<svg xmlns="http://www.w3.org/2000/svg" width="293" height="17" viewBox="0 0 293 17">
  <defs>
    <style>
      .cls-1 {
        fill: #231815;
        fill-rule: evenodd;
      }
    </style>
  </defs>
  <path id="graduate-ttl-detail-sub02.svg" class="cls-1" d="M638.222,5845.47a0.65,0.65,0,0,0-.812.45c-0.27.63-.522,1.27-0.85,2.17a0.627,0.627,0,0,1-.775.53h-1.353c-0.31,0-.446-0.04-0.446-0.19a0.829,0.829,0,0,1,.117-0.32c0.6-1.32,1.024-2.26,1.431-3.19l2.766-6.39c0.348-.82.754-1.72,1.16-2.74a0.63,0.63,0,0,1,.773-0.53h0.831a0.633,0.633,0,0,1,.775.53c0.4,1.02.792,1.92,1.139,2.72l2.786,6.37c0.425,0.99.85,1.93,1.451,3.23a0.816,0.816,0,0,1,.115.32c0,0.15-.136.19-0.444,0.19H645.4a0.626,0.626,0,0,1-.775-0.53c-0.329-.9-0.58-1.54-0.85-2.17a0.641,0.641,0,0,0-.812-0.45h-4.738Zm0.348-2.34a0.819,0.819,0,0,0-.077.32c0,0.17.136,0.21,0.444,0.21h3.306c0.31,0,.446-0.04.446-0.21a0.838,0.838,0,0,0-.077-0.32l-1.8-4.32a0.225,0.225,0,1,0-.425,0Zm15.033,1.72c0,1.09.059,3.17,0.059,3.3,0,0.4-.117.47-0.561,0.47h-1.16c-0.446,0-.562-0.07-0.562-0.47,0-.13.059-2.21,0.059-3.3v-6c0-1.06-.059-2.98-0.059-3.12,0-.39.116-0.47,0.562-0.47h0.638a0.946,0.946,0,0,1,.928.45c0.6,0.78,1.219,1.51,1.837,2.25l4.835,5.89a0.408,0.408,0,0,0,.23.17c0.1,0,.136-0.12.136-0.3v-4.68c0-1.1-.058-3.17-0.058-3.31,0-.39.117-0.47,0.561-0.47h1.16c0.446,0,.562.08,0.562,0.47,0,0.14-.059,2.21-0.059,3.31v6c0,1.03.059,2.98,0.059,3.11,0,0.4-.116.47-0.562,0.47h-0.385a0.915,0.915,0,0,1-.93-0.45c-0.58-.72-1.139-1.4-1.778-2.15l-5.145-6.19a0.406,0.406,0,0,0-.231-0.17c-0.1,0-.136.11-0.136,0.3v4.89Zm17.473,0.62a0.649,0.649,0,0,0-.812.45c-0.271.63-.522,1.27-0.851,2.17a0.626,0.626,0,0,1-.774.53h-1.354c-0.309,0-.445-0.04-0.445-0.19a0.812,0.812,0,0,1,.117-0.32c0.6-1.32,1.024-2.26,1.43-3.19l2.767-6.39c0.347-.82.753-1.72,1.16-2.74a0.629,0.629,0,0,1,.773-0.53h0.831a0.633,0.633,0,0,1,.775.53c0.4,1.02.791,1.92,1.139,2.72l2.785,6.37c0.425,0.99.85,1.93,1.451,3.23a0.806,0.806,0,0,1,.116.32c0,0.15-.136.19-0.444,0.19h-1.489a0.626,0.626,0,0,1-.775-0.53c-0.329-.9-0.58-1.54-0.85-2.17a0.642,0.642,0,0,0-.813-0.45h-4.737Zm0.348-2.34a0.825,0.825,0,0,0-.078.32c0,0.17.136,0.21,0.444,0.21H675.1c0.31,0,.446-0.04.446-0.21a0.825,0.825,0,0,0-.078-0.32l-1.8-4.32a0.4,0.4,0,0,0-.212-0.3,0.39,0.39,0,0,0-.213.3Zm21.627,0.91a0.458,0.458,0,0,0-.542.52v1.95c0,0.96.059,1.92,0.059,2.89,0,0.58-.233.6-1.083,0.6-0.871,0-1.083-.02-1.083-0.62,0-.95.038-1.91,0.038-2.87v-1.95a0.445,0.445,0,0,0-.521-0.52h-3.1a0.37,0.37,0,0,0-.444.43v0.21c0,0.45-.233.43-1.045,0.43-0.773,0-1.043.02-1.043-.43,0-.47.037-0.96,0.037-1.46v-4.64c0-.39-0.018-0.79-0.018-1.2,0-.74.58-0.82,1.2-0.82,0.58,0,1.181.02,1.762,0.02h2.649a0.448,0.448,0,0,0,.521-0.53v-1.15a9.686,9.686,0,0,0-.058-1.34,0.553,0.553,0,0,1-.019-0.19c0-.22.173-0.24,0.368-0.24,0.367,0,1.315.06,1.72,0.07,0.175,0.02.5,0.02,0.5,0.25a0.363,0.363,0,0,1-.232.28,1.7,1.7,0,0,0-.214,1.17v1.15a0.461,0.461,0,0,0,.542.53h2.708c0.58,0,1.16-.02,1.741-0.02,0.617,0,1.216.08,1.216,0.82,0,0.41-.019.81-0.019,1.2v4.68c0,0.49.04,0.98,0.04,1.47,0,0.44-.251.44-1.045,0.44s-1.045.02-1.045-.44v-0.26a0.376,0.376,0,0,0-.444-0.43h-3.152ZM690.44,5839a0.5,0.5,0,0,0-.521-0.53h-3.037a0.526,0.526,0,0,0-.542.53v2.64a0.539,0.539,0,0,0,.542.53h3.037a0.508,0.508,0,0,0,.521-0.53V5839Zm6.247,0a0.539,0.539,0,0,0-.542-0.53h-3.094a0.539,0.539,0,0,0-.542.53v2.64a0.552,0.552,0,0,0,.542.53h3.094a0.552,0.552,0,0,0,.542-0.53V5839Zm11.751,0.98a0.733,0.733,0,0,0,.773-0.42c0.387-.81.7-1.51,1.026-2.34a0.345,0.345,0,0,1,.27-0.3,7.136,7.136,0,0,1,1.142.46,1.062,1.062,0,0,1,.791.49c0,0.2-.174.2-0.347,0.22a0.31,0.31,0,0,0-.29.15c-0.232.44-.445,0.87-0.657,1.31a0.451,0.451,0,0,0-.04.17,0.27,0.27,0,0,0,.291.26c0.5,0,1-.04,1.508-0.04,0.465,0,.444.21,0.444,0.89,0,0.66,0,.87-0.444.87-0.658,0-1.334-.06-1.992-0.06H706c-0.658,0-1.316.06-1.992,0.06-0.444,0-.444-0.19-0.444-0.87,0-.7-0.019-0.89.444-0.89s0.928,0.04,1.393.04a0.253,0.253,0,0,0,.27-0.26c0-.06-0.019-0.1-0.019-0.16a16.264,16.264,0,0,0-.677-1.54,0.98,0.98,0,0,1-.136-0.36c0-.4,1.142-0.74,1.316-0.74,0.347,0,.5.47,0.812,1.17,0.019,0.04.04,0.1,0.078,0.17a4.685,4.685,0,0,1,.387,1.06,0.779,0.779,0,0,1-.6.49,0.107,0.107,0,0,0-.057.09,0.079,0.079,0,0,0,.1.08h1.566Zm1.527-4.91H710.6c0.638,0,1.3-.03,1.934-0.03,0.463,0,.426.22,0.426,0.88,0,0.68.018,0.89-.426,0.89-0.657,0-1.3-.04-1.934-0.04h-4.1c-0.637,0-1.275.04-1.914,0.04-0.463,0-.444-0.17-0.444-0.89,0-.68-0.019-0.88.425-0.88,0.658,0,1.3.03,1.933,0.03h0.5a0.455,0.455,0,0,0,.54-0.49,6.278,6.278,0,0,0-.077-1.04v-0.18a0.263,0.263,0,0,1,.328-0.27c0.369,0,1.161.06,1.529,0.11,0.212,0.02.559,0.04,0.559,0.27a0.368,0.368,0,0,1-.23.28,0.811,0.811,0,0,0-.232.83A0.441,0.441,0,0,0,709.965,5835.07Zm-0.078,13.74h-2.841a0.373,0.373,0,0,0-.444.42c0,0.11.018,0.2,0.018,0.3,0,0.41-.213.41-0.986,0.41-0.639,0-.928,0-0.928-0.39,0-.44.038-0.87,0.038-1.31V5845c0-.4-0.019-0.78-0.019-1.17,0-.68.484-0.81,1.1-0.81,0.406,0,.831.04,1.256,0.04h2.689c0.406,0,.832-0.04,1.238-0.04,0.6,0,1.1.13,1.1,0.81,0,0.39-.037.77-0.037,1.17v3.02c0,0.39.037,1.02,0.037,1.28,0,0.42-.27.4-0.965,0.4-0.813,0-.93,0-0.909-0.55A0.3,0.3,0,0,0,709.887,5848.81Zm-0.153-1.64a0.507,0.507,0,0,0,.541-0.51v-1.38a0.507,0.507,0,0,0-.541-0.51h-2.611a0.489,0.489,0,0,0-.542.51v1.38a0.489,0.489,0,0,0,.542.51h2.611Zm6.846-11.63a0.459,0.459,0,0,0-.542.51v10.59c0,0.93.059,1.83,0.059,2.76,0,0.6-.195.6-1.045,0.6-0.773,0-1.024,0-1.024-.6,0-.93.037-1.83,0.037-2.76v-10.32c0-.53-0.019-1.08-0.019-1.62,0-.78.426-0.95,1.142-0.95,0.5,0,1.024.04,1.545,0.04h1.414c0.4,0,.81-0.04,1.2-0.04a1.273,1.273,0,0,1,1.315,1.04,24.78,24.78,0,0,1-1.856,4.28,1.409,1.409,0,0,0-.117.36,1.178,1.178,0,0,0,.291.53,6.838,6.838,0,0,1,1.682,4.34c0,2.1-.89,3.04-3.037,3.04a1.575,1.575,0,0,1-.89-0.17,2.447,2.447,0,0,1-.425-1.38,0.358,0.358,0,0,1,.425-0.4c0.272,0,.524.04,0.794,0.04,0.948,0,1.122-.62,1.122-1.41a7.114,7.114,0,0,0-1.664-3.85,1.112,1.112,0,0,1-.271-0.57,1.871,1.871,0,0,1,.118-0.45c0.406-.83.946-2.21,1.333-3.11a0.689,0.689,0,0,0,.057-0.27c0-.23-0.329-0.23-0.482-0.23h-1.16Zm17.994,11.61a0.449,0.449,0,0,0,.543.51h4.157c0.774,0,1.566-.04,2.341-0.04,0.444,0,.425.23,0.425,0.89s0.019,0.89-.425.89c-0.775,0-1.567-.04-2.341-0.04H727.827c-0.794,0-1.567.04-2.36,0.04-0.444,0-.425-0.23-0.425-0.89s-0.019-.89.425-0.89c0.793,0,1.566.04,2.36,0.04h4.157a0.449,0.449,0,0,0,.542-0.51v-2.09a0.455,0.455,0,0,0-.542-0.53h-2.457c-0.735,0-1.449.03-2.184,0.03-0.446,0-.446-0.2-0.446-0.84,0-.66,0-0.87.446-0.87,0.735,0,1.449.04,2.184,0.04h8.046c0.714,0,1.449-.04,2.165-0.04,0.465,0,.445.22,0.445,0.85,0,0.66.02,0.86-.445,0.86-0.734,0-1.451-.03-2.165-0.03h-2.456a0.455,0.455,0,0,0-.543.53v2.09Zm0.04-12.64a0.465,0.465,0,0,0,.541.51h3.21c0.716,0,1.432-.04,2.146-0.04a0.879,0.879,0,0,1,1.1.77c0,0.23-.021.61-0.021,1V5837c0,0.13.021,0.41,0.021,0.53a1.024,1.024,0,0,1,.019.24c0,0.44-.329.42-0.968,0.42-0.676,0-1.024.02-1.024-.4,0-.13.019-0.43,0.019-0.57a0.445,0.445,0,0,0-.521-0.51h-2.3a0.469,0.469,0,0,0-.542.53v1.91c0,0.64.272,0.68,0.852,0.68h1.257c0.617,0,.772-0.21.908-0.87,0.057-.3.1-0.45,0.407-0.45,0.328,0,1.449.17,1.449,0.66a3.973,3.973,0,0,1-.618,1.71,1.755,1.755,0,0,1-1.761.67h-2.358c-1.257,0-2.088-.1-2.088-1.42,0-.26.019-0.53,0.019-0.79v-2.1a0.469,0.469,0,0,0-.542-0.53h-1.952a0.1,0.1,0,0,0-.118.1,0.076,0.076,0,0,0,.059.07l0.31,0.12a0.845,0.845,0,0,1,.714.47,0.367,0.367,0,0,1-.308.24,0.531,0.531,0,0,0-.368.38,6.93,6.93,0,0,1-2.553,2.85,10.763,10.763,0,0,1-2.05,1.11,5.679,5.679,0,0,1-1.142.36,1.531,1.531,0,0,1-.946-1.32c0-.24.193-0.3,0.618-0.43,1.644-.51,3.733-1.79,4.274-3.45a0.58,0.58,0,0,0,.04-0.16,0.365,0.365,0,0,0-.407-0.34H728.02a0.462,0.462,0,0,0-.543.53v0.06c0,0.26.04,0.57,0.04,0.83,0,0.43-.329.42-0.986,0.42-0.7,0-1.006.01-1.006-.44,0-.26.038-0.55,0.038-0.81v-0.49c0-.42-0.019-0.81-0.019-1.04,0-.68.522-0.79,1.431-0.79,0.5,0,1.122.04,1.817,0.04h3.192a0.464,0.464,0,0,0,.542-0.51,9.46,9.46,0,0,0-.077-1.02c0-.06-0.021-0.13-0.021-0.19,0-.27.2-0.3,0.406-0.3,0.291,0,1.2.07,1.529,0.11,0.366,0.04.714,0.04,0.714,0.3a0.4,0.4,0,0,1-.231.29,0.74,0.74,0,0,0-.232.66v0.15Zm25.789,9.19a0.188,0.188,0,0,0-.174.2v0.95c0,0.51.059,1,.059,1.24,0,0.29-.118.38-0.891,0.38a1.276,1.276,0,0,1-1.044-.17,0.357,0.357,0,0,0-.426-0.28H755.7a0.454,0.454,0,0,0-.54.53v0.39c0,0.87.078,1,1.043,1h2.959c1.257,0,1.374-.13,1.567-1.34a0.338,0.338,0,0,1,.406-0.37,2.571,2.571,0,0,1,1.122.26,0.426,0.426,0,0,1,.231.45,3.808,3.808,0,0,1-.792,2.29,2.414,2.414,0,0,1-1.761.47h-4.446c-1.259,0-2.322-.04-2.322-1.25,0-.3.039-0.64,0.039-0.94v-1.25c0-.37-0.039-0.71-0.039-1.03,0-.63.387-0.65,0.871-0.65,0.425,0,.871.02,1.3,0.02h2.513a0.447,0.447,0,0,0,.521-0.53v-0.39a0.454,0.454,0,0,0-.521-0.53H755.8c-0.463,0-.947.02-1.431,0.02a1.02,1.02,0,0,0-.754.36,8.216,8.216,0,0,1-2.146,1.75,1.771,1.771,0,0,1-.831-0.56,0.383,0.383,0,0,0-.233-0.12,0.236,0.236,0,0,0-.232.17c-0.5,1.3-1.083,2.57-1.682,3.81a1.649,1.649,0,0,0-.174.51c0,0.1.057,0.25,0.057,0.4a0.249,0.249,0,0,1-.212.26,4.294,4.294,0,0,1-1.1-.66,1.294,1.294,0,0,1-.7-0.64,1.68,1.68,0,0,1,.329-0.6,30.734,30.734,0,0,0,2.339-5.27c0.1-.26.118-0.41,0.31-0.41a2.469,2.469,0,0,1,1.412.92,0.882,0.882,0,0,1-.059.25,0.155,0.155,0,0,0-.019.09,0.127,0.127,0,0,0,.136.13,0.251,0.251,0,0,0,.116-0.03,14.184,14.184,0,0,0,2.592-2.83,0.281,0.281,0,0,0,.057-0.17,0.287,0.287,0,0,0-.308-0.27c-0.658,0-1.315.06-1.973,0.06-0.484,0-.484-0.23-0.484-0.91,0-.66,0-0.88.484-0.88,0.735,0,1.489.05,2.224,0.03a0.451,0.451,0,0,0,.54-0.52v-0.76a0.442,0.442,0,0,0-.5-0.53c-0.58-.02-1.16.04-1.74,0.04-0.484,0-.484-0.23-0.484-0.91s0-.92.484-0.92c0.58,0,1.16.04,1.74,0.04a0.435,0.435,0,0,0,.5-0.49,7.922,7.922,0,0,0-.077-0.97v-0.18c0-.23.136-0.27,0.329-0.27,0.251,0,1.315.1,1.606,0.13,0.174,0.02.5,0.04,0.5,0.27a0.39,0.39,0,0,1-.232.28,0.83,0.83,0,0,0-.232.74,0.449,0.449,0,0,0,.542.49h1.179a0.457,0.457,0,0,0,.542-0.49,8.7,8.7,0,0,0-.077-0.97v-0.18c0-.21.134-0.25,0.329-0.25,0.251,0,1.334.09,1.623,0.13,0.155,0.02.484,0.02,0.484,0.25a0.36,0.36,0,0,1-.233.28,0.855,0.855,0,0,0-.23.74,0.448,0.448,0,0,0,.54.49c0.639,0.02,1.277-.04,1.935-0.04,0.5,0,.482.25,0.482,0.92s0.021,0.91-.482.91c-0.58,0-1.16-.04-1.742-0.04h-0.212a0.447,0.447,0,0,0-.521.53v0.76a0.45,0.45,0,0,0,.54.52h0.27c0.716,0,1.433-.03,2.168-0.03,0.5,0,.5.2,0.5,0.88s0,0.91-.5.91c-0.735,0-1.452-.06-2.168-0.06h-0.251a0.287,0.287,0,0,0-.308.27,0.281,0.281,0,0,0,.057.17,14.266,14.266,0,0,0,2.881,3.02,1.043,1.043,0,0,1,.446.49,2.142,2.142,0,0,1-1.141,1.13,7.75,7.75,0,0,1-2.031-1.57A0.2,0.2,0,0,0,760.4,5843.7Zm-11.236-2.89a1.085,1.085,0,0,1-.5-0.3,20.77,20.77,0,0,0-1.973-1.49,0.648,0.648,0,0,1-.329-0.38,2.042,2.042,0,0,1,1.045-1.17,7.467,7.467,0,0,1,1.6,1.06,3.8,3.8,0,0,1,1.219,1.13A1.919,1.919,0,0,1,749.167,5840.81Zm0.562-4.25a1.144,1.144,0,0,1-.5-0.28c-0.6-.47-1.2-0.96-1.838-1.41a0.655,0.655,0,0,1-.329-0.38,2.063,2.063,0,0,1,1.084-1.17,9.6,9.6,0,0,1,1.992,1.38,1.632,1.632,0,0,1,.7.69A1.961,1.961,0,0,1,749.729,5836.56Zm6.632,3.7a0.738,0.738,0,0,0-.754.46c-0.1.18-.213,0.39-0.329,0.58a0.313,0.313,0,0,0-.058.17,0.269,0.269,0,0,0,.31.26h2.919a0.27,0.27,0,0,0,.291-0.26,0.307,0.307,0,0,0-.059-0.19c-0.115-.19-0.232-0.4-0.347-0.6a0.7,0.7,0,0,0-.735-0.42h-1.238Zm0.136-3.51a0.526,0.526,0,0,0-.542.53v0.76a0.524,0.524,0,0,0,.542.52h1.179a0.535,0.535,0,0,0,.542-0.52v-0.76a0.537,0.537,0,0,0-.542-0.53H756.5Zm35.486,0.08a3.284,3.284,0,0,0,.773-0.06,0.8,0.8,0,0,1,.213-0.04,2.735,2.735,0,0,1,1.412,1.46,2.017,2.017,0,0,1-.233.45c-0.115.21-.31,0.49-0.5,0.87-1.915,3.6-3.772,6.34-7.349,8.58a12.549,12.549,0,0,1-2.63,1.34,2.743,2.743,0,0,1-1.644-1.26,0.531,0.531,0,0,1,.387-0.36,16.939,16.939,0,0,0,7.483-6.04,11.6,11.6,0,0,0,1.489-2.75c0-.25-0.329-0.27-0.6-0.27H787.11a0.853,0.853,0,0,0-.813.51c-0.347.51-2.592,3.12-3.1,3.12-0.251,0-1.663-.72-1.663-1.14a0.338,0.338,0,0,1,.174-0.26,17.438,17.438,0,0,0,5.164-6.74,0.6,0.6,0,0,1,.31-0.45,11.268,11.268,0,0,1,1.372.58,2.541,2.541,0,0,0,.251.12,0.84,0.84,0,0,1,.58.38,0.484,0.484,0,0,1-.289.24,1.309,1.309,0,0,0-.5.62c-0.078.14-.155,0.27-0.272,0.46a0.708,0.708,0,0,0-.135.34,0.325,0.325,0,0,0,.329.3h3.462Zm3.906-.38a1.531,1.531,0,0,1-.987.79,0.37,0.37,0,0,1-.251-0.21c-0.388-.56-0.813-1.13-1.257-1.66a0.431,0.431,0,0,1-.136-0.24,1.673,1.673,0,0,1,1-.7A7.567,7.567,0,0,1,795.889,5836.45Zm1.991-1.17a1.5,1.5,0,0,1-.986.77,0.3,0.3,0,0,1-.252-0.18,19.066,19.066,0,0,0-1.275-1.67,0.383,0.383,0,0,1-.136-0.22,1.623,1.623,0,0,1,1-.72A7.523,7.523,0,0,1,797.88,5835.28Zm14.07,3.43c0.444,0,1.334,0,1.74-.03a2.051,2.051,0,0,1,.348-0.04,2.3,2.3,0,0,1,1.373,1.24,4.522,4.522,0,0,1-.251.78,13.244,13.244,0,0,1-1.122,2.55,16.06,16.06,0,0,1-4,4.45c-0.543.43-2.631,1.89-3.231,1.89a2.4,2.4,0,0,1-1.335-1.4,1.065,1.065,0,0,1,.679-0.49,13.8,13.8,0,0,0,5.935-5.36,4.777,4.777,0,0,0,.523-1.23c0-.45-0.523-0.41-0.831-0.41h-7.194c-0.812,0-1.625.04-2.456,0.04-0.542,0-.542-0.19-0.542-0.93,0-.96.019-1.09,0.561-1.09,0.812,0,1.644.03,2.475,0.03h7.33Zm-1.3-4.07c0.794,0,1.781-.06,2.283-0.06,0.484,0,.522.21,0.522,1.15,0,0.64,0,.89-0.522.89-0.775,0-1.529-.04-2.283-0.04h-4.737c-0.754,0-1.509.04-2.263,0.04-0.541,0-.541-0.23-0.541-0.92,0-.89.038-1.12,0.522-1.12,0.542,0,1.528.06,2.282,0.06h4.737Zm25.23,4.91a3.84,3.84,0,0,1-1.026,1.3,33.659,33.659,0,0,1-10.5,7.11,1.12,1.12,0,0,0-.813.64,0.192,0.192,0,0,1-.193.12,2.574,2.574,0,0,1-.754-0.99,4.966,4.966,0,0,1-.58-1.13,0.708,0.708,0,0,1,.6-0.32c4.274-1.22,9.108-4.79,11.855-8.21a0.482,0.482,0,0,1,.329-0.2C835.185,5837.87,835.883,5839.26,835.883,5839.55Zm-9.979-3.12a3.335,3.335,0,0,1,1.179,1.08,2.327,2.327,0,0,1-1.275,1.45,2.029,2.029,0,0,1-.775-0.51,23.5,23.5,0,0,0-2.572-1.75,0.489,0.489,0,0,1-.31-0.36,2.441,2.441,0,0,1,1.219-1.49A15.651,15.651,0,0,1,825.9,5836.43Zm21.515,2.64a13.3,13.3,0,0,1,2.705,1.81,4.818,4.818,0,0,1,1.355,1.36,2.356,2.356,0,0,1-1.3,1.31,0.725,0.725,0,0,1-.425-0.25,30.823,30.823,0,0,0-2.8-2.21,0.329,0.329,0,0,0-.193-0.07,0.251,0.251,0,0,0-.232.3v5.15c0,0.76.037,1.49,0.037,2.25,0,0.86-.019.98-1.2,0.98-0.774,0-1.1-.02-1.1-0.64,0-.85.058-1.7,0.058-2.55v-10.76c0-.49-0.037-1-0.058-1.47,0-.09-0.019-0.26-0.019-0.34a0.225,0.225,0,0,1,.251-0.28c0.117,0,.522.05,0.658,0.07,0.871,0.12,1.663.19,1.663,0.46a0.555,0.555,0,0,1-.1.24,1.493,1.493,0,0,0-.211,1c0,0.28.019,0.64,0.019,1.11v2.84a0.154,0.154,0,0,0,.154.18,0.2,0.2,0,0,0,.174-0.07A1.007,1.007,0,0,1,847.419,5839.07Zm4.6-1.86a1.582,1.582,0,0,1-.947.83,0.55,0.55,0,0,1-.291-0.21,18.9,18.9,0,0,0-1.315-1.51,0.431,0.431,0,0,1-.174-0.27,1.654,1.654,0,0,1,.949-0.75A7.053,7.053,0,0,1,852.02,5837.21Zm2.012-1.33a1.534,1.534,0,0,1-.949.85,0.468,0.468,0,0,1-.27-0.22,19.522,19.522,0,0,0-1.334-1.49,0.539,0.539,0,0,1-.174-0.27,1.688,1.688,0,0,1,.947-0.77A7.466,7.466,0,0,1,854.032,5835.88Zm14.283,0.02a6.689,6.689,0,0,0,.832-0.03c0.117,0,.309-0.04.427-0.04a2.384,2.384,0,0,1,1.237,1.28,3.45,3.45,0,0,1-.427.74c-0.115.17-.23,0.36-0.308,0.49a27.373,27.373,0,0,1-2.515,3.58,0.53,0.53,0,0,0-.155.36,0.493,0.493,0,0,0,.291.45,30.923,30.923,0,0,1,3.267,2.44c0.465,0.39.949,0.83,1.393,1.28a0.367,0.367,0,0,1,.136.27,2.735,2.735,0,0,1-1.47,1.51,0.664,0.664,0,0,1-.484-0.29,20.233,20.233,0,0,0-4.274-3.73,0.652,0.652,0,0,0-.444-0.17,0.9,0.9,0,0,0-.58.32,21.615,21.615,0,0,1-4.836,3.3,3.424,3.424,0,0,1-.85.36,2.789,2.789,0,0,1-1.3-1.61,0.46,0.46,0,0,1,.406-0.37,19.065,19.065,0,0,0,8.626-7.16,1.843,1.843,0,0,0,.329-0.64c0-.28-0.27-0.32-0.561-0.32h-4c-0.831,0-1.664.04-2.5,0.04-0.521,0-.481-0.28-0.481-1.15,0-.66-0.021-0.94.462-0.94,0.832,0,1.663.03,2.515,0.03h5.259Zm19.812,0.59a5.52,5.52,0,0,0,1.179-.1,0.66,0.66,0,0,1,.195-0.03,2.071,2.071,0,0,1,1,1.28,0.513,0.513,0,0,1-.117.28,4.189,4.189,0,0,0-.482.93,35.736,35.736,0,0,1-1.838,3.51,0.538,0.538,0,0,0,.213.86,3.347,3.347,0,0,1,1.083.99,2.54,2.54,0,0,1-1.238,1.43,0.466,0.466,0,0,1-.291-0.15c-0.27-.23-0.521-0.42-0.792-0.64a0.652,0.652,0,0,0-.425-0.19,1.036,1.036,0,0,0-.657.45,15.334,15.334,0,0,1-4.216,3.19,10.446,10.446,0,0,1-2.341.96,2.578,2.578,0,0,1-1.393-1.47c0-.22.329-0.28,0.832-0.43a13.644,13.644,0,0,0,5.53-3.4,0.719,0.719,0,0,0,.291-0.47,0.468,0.468,0,0,0-.232-0.4c-0.444-.28-1.449-0.79-1.933-1.02a0.779,0.779,0,0,1-.58-0.41,2.366,2.366,0,0,1,1.179-1.42,14.212,14.212,0,0,1,2.494,1.23,0.8,0.8,0,0,0,.369.11c0.366,0,.54-0.36,1.063-1.36a2.16,2.16,0,0,1,.116-0.26,5.94,5.94,0,0,0,.5-1.25c0-.39-0.5-0.37-0.793-0.37h-3.692a0.88,0.88,0,0,0-.853.49,26.985,26.985,0,0,1-2.513,2.9,1,1,0,0,1-.62.36,2.836,2.836,0,0,1-1.6-1.11,0.557,0.557,0,0,1,.289-0.36,17.392,17.392,0,0,0,5.049-6.77,0.584,0.584,0,0,1,.348-0.48,4.373,4.373,0,0,1,1.083.46,3.709,3.709,0,0,1,1.141.64,0.25,0.25,0,0,1-.195.21,0.989,0.989,0,0,0-.58.62c-0.075.13-.174,0.3-0.308,0.51a0.957,0.957,0,0,0-.155.4,0.328,0.328,0,0,0,.348.28h3.539Zm10.338,2.9c0.213,0.25.657,0.93,0.852,1.23a6.835,6.835,0,0,1,.831,1.49c0,0.4-1.16.87-1.392,0.87a0.454,0.454,0,0,1-.369-0.32,18.165,18.165,0,0,0-1.392-2.28,0.733,0.733,0,0,1-.153-0.34,1.934,1.934,0,0,1,1.294-.82A0.449,0.449,0,0,1,898.465,5839.39Zm9.572-.3a0.429,0.429,0,0,1,.348.34,0.449,0.449,0,0,1-.23.29,0.573,0.573,0,0,0-.252.39,13.91,13.91,0,0,1-2.651,5.28,11.019,11.019,0,0,1-5.258,3.29,3.323,3.323,0,0,1-.6.15,2.212,2.212,0,0,1-1.083-1.3,0.329,0.329,0,0,1,.31-0.34,9.475,9.475,0,0,0,6-3.98,10.866,10.866,0,0,0,1.586-4.29c0.019-.17.037-0.37,0.251-0.37A14.05,14.05,0,0,1,908.037,5839.09Zm-4.833.42a7.368,7.368,0,0,1,.869,1.54c0,0.38-1.12.87-1.392,0.87a0.51,0.51,0,0,1-.386-0.36,19.791,19.791,0,0,0-1.355-2.22,0.658,0.658,0,0,1-.174-0.38,1.976,1.976,0,0,1,1.3-.79,2.151,2.151,0,0,1,.968,1.05Zm20.409-3.68c0.406,0,1.355,0,1.74-.04,0.078,0,.291-0.04.35-0.04a2.368,2.368,0,0,1,1.294,1.21c0,0.19-.174.4-0.329,1.21a11.563,11.563,0,0,1-5.162,8.3,18.331,18.331,0,0,1-3.713,1.93,2.182,2.182,0,0,1-.639.17c-0.464,0-1.16-1.27-1.16-1.57a0.328,0.328,0,0,1,.348-0.3,13.929,13.929,0,0,0,4.815-2.49,8.736,8.736,0,0,0,3.172-5.51,3.754,3.754,0,0,0,.038-0.46c0-.36-0.329-0.39-0.677-0.39h-6.864c-0.813,0-1.607.03-2.417,0.03-0.6,0-.58-0.17-0.58-1.01,0-.87-0.021-1.08.521-1.08,0.832,0,1.663.04,2.5,0.04h6.768Z" transform="translate(-634 -5833)"/>
</svg>
