<svg xmlns="http://www.w3.org/2000/svg" width="283" height="18.53" viewBox="0 0 283 18.53">
  <defs>
    <style>
      .cls-1 {
        fill: #221613;
        fill-rule: evenodd;
      }
    </style>
  </defs>
  <path id="graduate-ttl-detail-sub01.svg" class="cls-1" d="M635.868,5488.01a6.9,6.9,0,0,1-1.77,1.07,1.777,1.777,0,0,1-1.1-1.36,0.986,0.986,0,0,1,.688-0.61,18.136,18.136,0,0,0,6.741-6.52,0.358,0.358,0,0,1,.3-0.26c0.223,0,1.117.24,1.415,0.3,0.317,0.08.708,0.12,0.708,0.38a0.3,0.3,0,0,1-.224.27,0.123,0.123,0,0,0-.093.11,0.473,0.473,0,0,0,.019.08,17.508,17.508,0,0,0,6.816,5.68,0.544,0.544,0,0,1,.391.38c0,0.42-.54,1.53-0.988,1.53a13.985,13.985,0,0,1-2.775-1.64,21.153,21.153,0,0,1-4.432-4.37,0.362,0.362,0,0,0-.614,0A26.366,26.366,0,0,1,635.868,5488.01Zm4.413,1.75a0.44,0.44,0,0,0-.5-0.53h-0.67c-0.671,0-1.323.04-1.994,0.04-0.484,0-.464-0.21-0.464-0.94,0-.65-0.02-0.91.446-0.91,0.671,0,1.341.05,2.012,0.05h4.413c0.671,0,1.341-.05,1.992-0.05,0.484,0,.466.26,0.466,0.91,0,0.69.018,0.94-.466,0.94-0.651,0-1.321-.04-1.992-0.04h-0.69a0.446,0.446,0,0,0-.52.53v0.95a0.449,0.449,0,0,0,.52.54h1.212c0.726,0,1.452-.04,2.178-0.04,0.484,0,.466.23,0.466,0.92s0.018,0.93-.466.93c-0.726,0-1.452-.06-2.178-0.06h-1.212a0.456,0.456,0,0,0-.52.54v1.08a0.452,0.452,0,0,0,.52.54h3.67c0.762,0,1.527-.06,2.289-0.06,0.448,0,.43.27,0.43,0.97,0,0.72.018,0.97-.43,0.97-0.762,0-1.527-.03-2.289-0.03h-10.43c-0.762,0-1.526.03-2.289,0.03-0.447,0-.429-0.25-0.429-0.97,0-.7-0.018-0.97.429-0.97,0.763,0,1.527.06,2.289,0.06h3.707a0.447,0.447,0,0,0,.5-0.54v-1.08a0.45,0.45,0,0,0-.5-0.54H638.53c-0.725,0-1.452.06-2.177,0.06-0.466,0-.448-0.25-0.448-0.93s-0.018-.92.448-0.92c0.725,0,1.452.04,2.177,0.04h1.249a0.444,0.444,0,0,0,.5-0.54v-0.95Zm23.327,6.33h-5.681a0.373,0.373,0,0,0-.427.44v0.19c0,0.53-.186.53-1.061,0.53-0.8,0-1.063,0-1.063-.51,0-.8.057-1.6,0.057-2.38v-9.59c0-.61-0.039-1.2-0.039-1.81a0.838,0.838,0,0,1,1.025-.99c0.54,0,1.081.03,1.639,0.03H663.5c0.541,0,1.081-.03,1.622-0.03a0.827,0.827,0,0,1,1.024.97c0,0.61-.038,1.22-0.038,1.83v9.55c0,0.8.056,1.58,0.056,2.38,0,0.53-.224.51-1.061,0.51s-1.062,0-1.062-.51a0.548,0.548,0,0,1,.018-0.17A0.392,0.392,0,0,0,663.608,5496.09Zm-0.038-8.12a0.542,0.542,0,0,0,.522-0.53v-3.05a0.544,0.544,0,0,0-.522-0.54h-5.6a0.544,0.544,0,0,0-.523.54v3.05a0.542,0.542,0,0,0,.523.53h5.6Zm-6.127,5.7a0.535,0.535,0,0,0,.523.53h5.6a0.535,0.535,0,0,0,.522-0.53v-3.36a0.542,0.542,0,0,0-.522-0.53h-5.6a0.542,0.542,0,0,0-.523.53v3.36Zm23.9-5.64a0.128,0.128,0,0,0-.111.15v3.81a0.447,0.447,0,0,0,.5.54H682c0.577,0,1.155-.04,1.732-0.04,0.522,0,.484.25,0.484,0.95,0,0.65.038,0.93-.466,0.93-0.577,0-1.173-.03-1.75-0.03h-0.26a0.426,0.426,0,0,0-.5.49c-0.02.76,0.037,1.53,0.037,2.31,0,0.59-.2.61-1.025,0.61s-1.024-.02-1.024-0.61c0-.78.056-1.55,0.038-2.31a0.433,0.433,0,0,0-.522-0.49h-0.224c-0.6,0-1.172.03-1.75,0.03-0.5,0-.464-0.28-0.464-0.93,0-.69-0.039-0.95.464-0.95,0.578,0,1.155.04,1.75,0.04h0.224a0.453,0.453,0,0,0,.522-0.54v-3.89a0.116,0.116,0,0,0-.113-0.13,0.127,0.127,0,0,0-.111.08,23.365,23.365,0,0,1-5.233,6.72,1.272,1.272,0,0,1-.669.41,2.075,2.075,0,0,1-1.231-1.28,0.811,0.811,0,0,1,.392-0.5,20.059,20.059,0,0,0,5.549-6.61,0.615,0.615,0,0,0,.037-0.17,0.3,0.3,0,0,0-.335-0.29h-2.737c-0.726,0-1.453.04-2.179,0.04-0.466,0-.446-0.23-0.446-0.92,0-.72-0.02-0.95.446-0.95,0.726,0,1.453.06,2.179,0.06h3.929a0.456,0.456,0,0,0,.522-0.54v-1.56a10.5,10.5,0,0,0-.056-1.37,0.551,0.551,0,0,1-.019-0.17c0-.23.15-0.27,0.335-0.27,0.3,0,1.416.08,1.769,0.11,0.131,0.02.391,0.04,0.391,0.23a0.414,0.414,0,0,1-.242.31,1.6,1.6,0,0,0-.2,1.12v1.6a0.465,0.465,0,0,0,.5.54H685.7c0.726,0,1.452-.06,2.178-0.06,0.466,0,.448.23,0.448,0.93,0,0.73.018,0.94-.448,0.94-0.726,0-1.452-.04-2.178-0.04h-2.849a0.3,0.3,0,0,0-.317.27,0.615,0.615,0,0,0,.037.17,21.288,21.288,0,0,0,5.569,6.4,0.811,0.811,0,0,1,.464.54,1.8,1.8,0,0,1-1.153,1.35c-0.41,0-2.011-1.64-2.366-2.02a25.171,25.171,0,0,1-3.612-4.94A0.214,0.214,0,0,0,681.345,5488.03Zm20.553,6.78a0.443,0.443,0,0,0,.522.52h4c0.746,0,1.508-.04,2.255-0.04,0.427,0,.409.23,0.409,0.89s0.018,0.9-.409.9c-0.747,0-1.509-.04-2.255-0.04H695.4c-0.764,0-1.509.04-2.273,0.04-0.427,0-.409-0.23-0.409-0.9s-0.018-.89.409-0.89c0.764,0,1.509.04,2.273,0.04h4a0.443,0.443,0,0,0,.522-0.52v-2.11a0.453,0.453,0,0,0-.522-0.54h-2.365c-0.708,0-1.4.04-2.1,0.04-0.429,0-.429-0.21-0.429-0.86s0-.87.429-0.87c0.708,0,1.4.04,2.1,0.04h7.747c0.688,0,1.4-.04,2.086-0.04,0.447,0,.427.23,0.427,0.85,0,0.67.02,0.88-.427,0.88-0.708,0-1.4-.04-2.086-0.04H702.42a0.453,0.453,0,0,0-.522.54v2.11Zm0.038-12.77a0.458,0.458,0,0,0,.52.52h3.092c0.689,0,1.379-.04,2.067-0.04a0.852,0.852,0,0,1,1.063.78c0,0.23-.021.61-0.021,1.01v0.25c0,0.13.021,0.42,0.021,0.53a1.17,1.17,0,0,1,.018.25c0,0.44-.317.42-0.932,0.42-0.651,0-.986.02-0.986-0.4,0-.13.018-0.44,0.018-0.57a0.437,0.437,0,0,0-.5-0.52h-2.217a0.463,0.463,0,0,0-.522.54v1.92c0,0.65.262,0.69,0.821,0.69h1.21c0.6,0,.744-0.21.875-0.88,0.055-.3.093-0.46,0.391-0.46,0.317,0,1.4.17,1.4,0.67a4.154,4.154,0,0,1-.6,1.73,1.642,1.642,0,0,1-1.7.67h-2.271c-1.21,0-2.01-.09-2.01-1.43,0-.26.018-0.53,0.018-0.8v-2.11a0.463,0.463,0,0,0-.522-0.54h-1.88a0.1,0.1,0,0,0-.113.1,0.074,0.074,0,0,0,.057.07l0.3,0.12a0.836,0.836,0,0,1,.688.47,0.367,0.367,0,0,1-.3.25,0.523,0.523,0,0,0-.355.38,6.81,6.81,0,0,1-2.458,2.88,10.909,10.909,0,0,1-1.974,1.13,6,6,0,0,1-1.1.36,1.545,1.545,0,0,1-.912-1.34c0-.24.186-0.3,0.6-0.43,1.583-.52,3.6-1.81,4.116-3.49a0.648,0.648,0,0,0,.038-0.15,0.356,0.356,0,0,0-.391-0.35h-1.9a0.457,0.457,0,0,0-.523.54v0.05c0,0.27.038,0.57,0.038,0.84,0,0.44-.316.42-0.949,0.42-0.672,0-.968.02-0.968-0.44,0-.26.036-0.55,0.036-0.82v-0.49c0-.42-0.018-0.82-0.018-1.05,0-.69.5-0.8,1.377-0.8,0.484,0,1.081.04,1.751,0.04H699.4a0.461,0.461,0,0,0,.522-0.52,10.107,10.107,0,0,0-.074-1.03c0-.05-0.02-0.13-0.02-0.19,0-.26.187-0.3,0.391-0.3,0.28,0,1.155.07,1.472,0.11,0.353,0.04.688,0.04,0.688,0.31a0.365,0.365,0,0,1-.222.28,0.775,0.775,0,0,0-.224.67v0.15Zm20.346,4.56a0.2,0.2,0,0,0-.131.05,5.212,5.212,0,0,1-1.433,1.34,1.705,1.705,0,0,1-.744-0.48,0.249,0.249,0,0,0-.17-0.05,0.182,0.182,0,0,0-.167.22v2.98c0,0.26.02,0.53,0.02,0.82a0.576,0.576,0,0,1-.708.63c-0.3,0-.6-0.02-0.895-0.02a0.388,0.388,0,0,0-.446.45v0.25a0.385,0.385,0,0,0,.446.46h0.205c0.484,0,.95-0.04,1.434-0.04,0.391,0,.391.19,0.391,0.78s0,0.78-.391.78c-0.484,0-.95-0.03-1.434-0.03h-0.131a0.438,0.438,0,0,0-.52.51c0,0.63.036,1.26,0.036,1.91,0,0.53-.149.55-0.857,0.55-0.687,0-.837-0.02-0.837-0.57,0-.63.057-1.26,0.037-1.89a0.433,0.433,0,0,0-.5-0.51H715.3c-0.466,0-.932.03-1.416,0.03-0.409,0-.391-0.17-0.391-0.78,0-.59-0.018-0.78.373-0.78,0.484,0,.95.04,1.434,0.04h0.26a0.392,0.392,0,0,0,.448-0.46v-0.25a0.4,0.4,0,0,0-.448-0.45c-0.28,0-.54.02-0.819,0.02-0.465,0-.726-0.12-0.726-0.63,0-.25.019-0.5,0.019-0.82v-3.8c0-.3-0.019-0.57-0.019-0.82a0.556,0.556,0,0,1,.688-0.62c0.28,0,.559.01,0.821,0.01a0.446,0.446,0,0,0,.484-0.53v-0.15a0.46,0.46,0,0,0-.522-0.54h-0.261c-0.447,0-.893.04-1.155,0.04-0.391,0-.391-0.21-0.391-0.8s0-.8.391-0.8c0.335,0,.746.04,1.155,0.04h0.261a0.443,0.443,0,0,0,.522-0.5,13.243,13.243,0,0,0-.057-1.33,0.226,0.226,0,0,1,.279-0.23c0.244,0,1.062.08,1.341,0.1s0.466,0.03.466,0.23a0.335,0.335,0,0,1-.224.24,0.742,0.742,0,0,0-.2.65v0.33a0.426,0.426,0,0,0,.5.51h0.28c0.428,0,.837-0.04,1.154-0.04,0.409,0,.391.21,0.391,0.8s0.018,0.8-.391.8c-0.242,0-.708-0.04-1.154-0.04h-0.28a0.447,0.447,0,0,0-.5.54v0.15a0.438,0.438,0,0,0,.484.53c0.278,0,.577-0.01.857-0.01a0.57,0.57,0,0,1,.708.62v0.16a0.161,0.161,0,0,0,.147.19,0.266,0.266,0,0,0,.149-0.08,17.607,17.607,0,0,0,2.608-3.07,19.3,19.3,0,0,0,1.416-2.51,0.275,0.275,0,0,1,.242-0.25,9.983,9.983,0,0,1,1.3.38c0.337,0.11.634,0.15,0.634,0.38a0.25,0.25,0,0,1-.148.19,0.177,0.177,0,0,0-.094.15,0.073,0.073,0,0,0,.02.06,20.74,20.74,0,0,0,3.743,4.69,1.1,1.1,0,0,1,.409.55,1.659,1.659,0,0,1-1.285,1.05,5.133,5.133,0,0,1-1.415-1.28,0.2,0.2,0,0,0-.131-0.05,0.18,0.18,0,0,0-.15.17c0,0.3.021,0.61-.371,0.61-0.447,0-.913-0.04-1.359-0.04h-1.192c-0.466,0-.913.04-1.379,0.04-0.373,0-.373-0.32-0.373-0.61A0.161,0.161,0,0,0,722.282,5486.6Zm-6.146.72a0.441,0.441,0,0,0-.446-0.46h-0.056a0.442,0.442,0,0,0-.448.46v0.25a0.436,0.436,0,0,0,.448.46h0.056a0.435,0.435,0,0,0,.446-0.46v-0.25Zm-0.5,2.1a0.436,0.436,0,0,0-.448.46v0.34a0.42,0.42,0,0,0,.448.44h0.056a0.419,0.419,0,0,0,.446-0.44v-0.34a0.435,0.435,0,0,0-.446-0.46h-0.056Zm2.383-1.39a0.436,0.436,0,0,0,.448-0.46v-0.25a0.442,0.442,0,0,0-.448-0.46h-0.092a0.431,0.431,0,0,0-.448.46v0.25a0.426,0.426,0,0,0,.448.46h0.092Zm-0.54,2.19a0.41,0.41,0,0,0,.448.44h0.092a0.42,0.42,0,0,0,.448-0.44v-0.34a0.436,0.436,0,0,0-.448-0.46h-0.092a0.426,0.426,0,0,0-.448.46v0.34Zm5.717,4.61a0.439,0.439,0,0,0-.52-0.51h-0.262a0.439,0.439,0,0,0-.521.51v0.71c0,0.57.037,1.12,0.037,1.69,0,0.44-.111.48-0.763,0.48-0.615,0-.746-0.04-0.746-0.5,0-.55.038-1.1,0.038-1.67v-5.11c0-.44-0.02-0.9-0.02-1.35,0-.56.15-0.75,0.708-0.75,0.355,0,.708.02,1.063,0.02h0.708c0.334,0,.688-0.02,1.022-0.02a0.59,0.59,0,0,1,.728.73c0,0.45-.02.91-0.02,1.35v4.21c0,0.44.038,0.9,0.038,1.34,0,1.31-.316,1.71-1.621,1.71-0.669,0-.781-0.15-0.781-1.31,0-.1,0-0.42.148-0.42,0.169,0,.355.02,0.522,0.02,0.224,0,.242-0.4.242-0.71v-0.42Zm-0.448-3.98a0.435,0.435,0,0,0,.448-0.46v-0.11a0.435,0.435,0,0,0-.448-0.46h-0.409a0.435,0.435,0,0,0-.446.46v0.11a0.435,0.435,0,0,0,.446.46h0.409Zm-0.855,1.77a0.435,0.435,0,0,0,.446.46h0.409a0.435,0.435,0,0,0,.448-0.46v-0.13a0.419,0.419,0,0,0-.448-0.44h-0.409a0.419,0.419,0,0,0-.446.44v0.13Zm2.886-9.4a0.317,0.317,0,0,0-.26.16,22.04,22.04,0,0,1-1.4,2.09,0.293,0.293,0,0,0-.056.17,0.253,0.253,0,0,0,.28.23c0.28,0,.559.02,0.839,0.02h1.192c0.278,0,.559-0.02.837-0.02a0.245,0.245,0,0,0,.26-0.23,0.355,0.355,0,0,0-.054-0.19,19.34,19.34,0,0,1-1.38-2.07A0.335,0.335,0,0,0,724.777,5483.22Zm0.652,7.23a7.175,7.175,0,0,0-.055-1.11v-0.15a0.194,0.194,0,0,1,.242-0.21h0.26a5.614,5.614,0,0,1,.577.06c0.484,0.04.708,0.04,0.708,0.25a0.323,0.323,0,0,1-.224.26c-0.186.15-.167,0.33-0.167,1.45v1.75c0,0.6.038,1.19,0.038,1.8,0,0.41-.131.43-0.69,0.43-0.6,0-.726-0.02-0.726-0.43,0-.59.037-1.2,0.037-1.8v-2.3Zm2.254-.59c0-.42-0.02-0.86-0.056-1.26,0-.06-0.019-0.1-0.019-0.15,0-.19.13-0.21,0.279-0.21,0.317,0,.708.03,1.062,0.05,0.446,0.04.706,0.06,0.706,0.29a0.4,0.4,0,0,1-.222.29,0.881,0.881,0,0,0-.187.85v5.21c0,0.4.02,0.78,0.02,1.16,0,1.31-.97,1.62-2.069,1.62-0.706,0-1.079.06-1.079-1.39,0-.25.057-0.44,0.335-0.44H726.7a2.86,2.86,0,0,0,.409.04c0.579,0,.579-0.21.579-0.99v-5.07Zm8.647-.65a13.077,13.077,0,0,1,3.539-8.81,1.136,1.136,0,0,1,.615-0.46,1.455,1.455,0,0,1,1.042.92,0.748,0.748,0,0,1-.262.46,11.183,11.183,0,0,0,0,15.78,0.708,0.708,0,0,1,.262.44,1.42,1.42,0,0,1-1.024.93,0.948,0.948,0,0,1-.6-0.42A13.024,13.024,0,0,1,736.33,5489.21Zm12.524,3.91a0.618,0.618,0,0,0-.783.45c-0.26.63-.5,1.28-0.818,2.2a0.611,0.611,0,0,1-.746.53h-1.3c-0.3,0-.428-0.04-0.428-0.19a0.791,0.791,0,0,1,.111-0.32c0.577-1.34.987-2.29,1.378-3.23l2.664-6.46c0.334-.82.725-1.73,1.117-2.76a0.609,0.609,0,0,1,.744-0.54h0.8a0.611,0.611,0,0,1,.746.54c0.391,1.03.762,1.94,1.1,2.74l2.68,6.45c0.409,0.99.821,1.94,1.4,3.26a0.776,0.776,0,0,1,.111.32c0,0.15-.129.19-0.427,0.19h-1.434a0.611,0.611,0,0,1-.746-0.53c-0.317-.92-0.559-1.57-0.819-2.2-0.167-.42-0.278-0.45-0.782-0.45h-4.562Zm0.335-2.37a0.889,0.889,0,0,0-.075.33c0,0.17.131,0.21,0.43,0.21h3.184c0.3,0,.428-0.04.428-0.21a0.909,0.909,0,0,0-.075-0.33l-1.732-4.36a0.223,0.223,0,1,0-.41,0Zm14.476,1.74c0,1.1.057,3.2,0.057,3.33,0,0.4-.113.48-0.541,0.48h-1.117c-0.429,0-.54-0.08-0.54-0.48,0-.13.056-2.23,0.056-3.33v-6.06c0-1.07-.056-3.02-0.056-3.15,0-.4.111-0.48,0.54-0.48h0.615a0.892,0.892,0,0,1,.894.46c0.576,0.78,1.173,1.53,1.768,2.27l4.657,5.95a0.389,0.389,0,0,0,.222.17c0.094,0,.131-0.12.131-0.31v-4.72c0-1.11-.057-3.21-0.057-3.34,0-.4.113-0.48,0.541-0.48h1.117c0.429,0,.54.08,0.54,0.48,0,0.13-.056,2.23-0.056,3.34v6.06c0,1.05.056,3.01,0.056,3.14,0,0.4-.111.48-0.54,0.48h-0.371a0.879,0.879,0,0,1-.9-0.46c-0.558-.72-1.1-1.41-1.712-2.17l-4.955-6.25a0.347,0.347,0,0,0-.222-0.17c-0.094,0-.131.11-0.131,0.3v4.94Zm16.826,0.63a0.617,0.617,0,0,0-.782.45c-0.26.63-.5,1.28-0.819,2.2a0.611,0.611,0,0,1-.746.53h-1.3c-0.3,0-.428-0.04-0.428-0.19a0.791,0.791,0,0,1,.111-0.32c0.577-1.34.987-2.29,1.378-3.23l2.664-6.46c0.335-.82.726-1.73,1.117-2.76a0.609,0.609,0,0,1,.744-0.54h0.8a0.611,0.611,0,0,1,.746.54c0.391,1.03.762,1.94,1.1,2.74l2.68,6.45c0.409,0.99.821,1.94,1.4,3.26a0.791,0.791,0,0,1,.111.32c0,0.15-.13.19-0.428,0.19H787.4a0.611,0.611,0,0,1-.746-0.53c-0.317-.92-0.558-1.57-0.819-2.2-0.167-.42-0.278-0.45-0.782-0.45h-4.562Zm0.335-2.37a0.909,0.909,0,0,0-.075.33c0,0.17.131,0.21,0.43,0.21h3.184c0.3,0,.428-0.04.428-0.21a0.909,0.909,0,0,0-.075-0.33l-1.732-4.36a0.223,0.223,0,1,0-.41,0Zm16.866-1.54a13.033,13.033,0,0,1-3.539,8.8,1.141,1.141,0,0,1-.614.46,1.439,1.439,0,0,1-1.042-.91,0.72,0.72,0,0,1,.26-0.46,11.18,11.18,0,0,0,0-15.78,0.732,0.732,0,0,1-.26-0.44,1.435,1.435,0,0,1,1.024-.94,0.989,0.989,0,0,1,.6.42A13.059,13.059,0,0,1,797.692,5489.21Zm24.575-4.9a0.225,0.225,0,0,0-.26-0.21h-2.664a0.442,0.442,0,0,0-.52.52v0.32c0,0.25.036,0.59,0.036,0.78,0,0.42-.373.38-0.968,0.38-0.651,0-.968.02-0.968-0.4,0-.19.036-0.51,0.036-0.76v-0.92c0-.4-0.036-0.74-0.036-0.93,0-.65.5-0.76,1.414-0.76,0.466,0,1.024.04,1.677,0.04H823.2a0.447,0.447,0,0,0,.5-0.52,6.779,6.779,0,0,0-.057-0.88,0.647,0.647,0,0,1-.018-0.19c0-.22.186-0.24,0.355-0.24,0.371,0,1.192.07,1.581,0.11,0.15,0.02.523,0.02,0.523,0.25a0.4,0.4,0,0,1-.224.27,0.842,0.842,0,0,0-.224.7,0.454,0.454,0,0,0,.522.5h3.2c0.651,0,1.322-.02,1.974-0.02,0.484,0,1.117.05,1.117,0.72,0,0.15-.018.57-0.018,0.95v1c0,0.15.018,0.38,0.018,0.53a0.91,0.91,0,0,1,.018.23c0,0.44-.335.4-0.968,0.4-0.6,0-.968.04-0.968-0.38,0-.23.037-0.54,0.037-0.78v-0.4a0.442,0.442,0,0,0-.521-0.52h-5.773c-0.075,0-.075.04-0.075,0.06a0.053,0.053,0,0,0,.057.05,0.721,0.721,0,0,1,.54.37,0.317,0.317,0,0,1-.3.21,0.442,0.442,0,0,0-.392.21,0.17,0.17,0,0,0-.036.11,0.143,0.143,0,0,0,.167.13h1.807c0.539,0,1.079-.01,1.62-0.01a1.5,1.5,0,0,1,1.266,1.22c0,0.47-1.992,2.26-2.422,2.64a0.346,0.346,0,0,0-.147.27,0.323,0.323,0,0,0,.185.29,22.977,22.977,0,0,0,5.512,2.19,0.76,0.76,0,0,1,.764.48c0,0.24-.429,1.29-0.893,1.29a16.482,16.482,0,0,1-2.348-.72,0.415,0.415,0,0,0-.167-0.04,0.345,0.345,0,0,0-.317.38v2.99c0,0.35.037,0.79,0.037,1.09,0,0.38-.242.38-0.912,0.38-0.651,0-.913.02-0.913-0.36v-0.1a0.293,0.293,0,0,0-.335-0.34h-4.655a0.306,0.306,0,0,0-.354.34,0.5,0.5,0,0,1,.018.08c0,0.38-.3.36-0.968,0.36s-0.93,0-.93-0.38c0-.21.036-0.74,0.036-1.09v-2.95a0.32,0.32,0,0,0-.316-0.34,0.484,0.484,0,0,0-.168.02,15.464,15.464,0,0,1-2.272.7,1.644,1.644,0,0,1-.95-1.33c0-.31.391-0.37,0.97-0.52a23.265,23.265,0,0,0,5.455-2.17,0.36,0.36,0,0,0,.206-0.31,0.459,0.459,0,0,0-.15-0.28,11.287,11.287,0,0,1-1.06-1.11,0.559,0.559,0,0,0-.392-0.21,0.684,0.684,0,0,0-.316.12,14.049,14.049,0,0,1-2.925,1.79,1.968,1.968,0,0,1-.967-1.22,0.8,0.8,0,0,1,.52-0.48,14.12,14.12,0,0,0,4.451-3.43A0.26,0.26,0,0,0,822.267,5484.31Zm4.562,10.96a0.542,0.542,0,0,0,.522-0.53v-0.73a0.542,0.542,0,0,0-.522-0.53h-4.376a0.5,0.5,0,0,0-.5.53v0.73a0.5,0.5,0,0,0,.5.53h4.376Zm-2.122-4.73a0.669,0.669,0,0,0-.391.14,20.449,20.449,0,0,1-1.918,1.08,0.134,0.134,0,0,0-.075.12,0.125,0.125,0,0,0,.13.11h4.525a0.147,0.147,0,0,0,.113-0.11,0.136,0.136,0,0,0-.075-0.12c-0.689-.34-1.248-0.66-1.9-1.06A0.808,0.808,0,0,0,824.707,5490.54Zm-0.038-2.28a0.561,0.561,0,0,0,.373-0.18,5.823,5.823,0,0,0,1.266-1.22,0.592,0.592,0,0,0-.558-0.13h-2.329a0.232,0.232,0,0,0-.242.21,0.251,0.251,0,0,0,.074.19,9.57,9.57,0,0,0,1.007.95A0.648,0.648,0,0,0,824.669,5488.26Zm22.172,3.85h2.476c0.708,0,1.416-.04,2.124-0.04,0.445,0,.427.25,0.427,0.84s0.018,0.84-.427.84c-0.708,0-1.416-.04-2.124-0.04h-2.5a0.441,0.441,0,0,0-.5.53v0.63a0.448,0.448,0,0,0,.5.53h4.042c0.744,0,1.488-.05,2.252-0.05,0.428,0,.428.21,0.428,0.85s0,0.84-.409.84c-0.763,0-1.509-.03-2.271-0.03H839.782c-0.764,0-1.508.03-2.27,0.03-0.412,0-.412-0.21-0.412-0.84,0-.66,0-0.85.43-0.85,0.762,0,1.508.05,2.252,0.05h4.042a0.447,0.447,0,0,0,.5-0.53v-0.63a0.44,0.44,0,0,0-.5-0.53h-2.458c-0.708,0-1.416.04-2.124,0.04-0.446,0-.428-0.23-0.428-0.84s0-.84.428-0.84c0.708,0,1.416.04,2.124,0.04h2.458a0.433,0.433,0,0,0,.5-0.52,4.124,4.124,0,0,0-.055-0.68,0.554,0.554,0,0,1-.02-0.18c0-.22.15-0.26,0.337-0.26,0.26,0,1.414.11,1.73,0.15,0.15,0.02.43,0.04,0.43,0.25a0.389,0.389,0,0,1-.224.28,0.505,0.505,0,0,0-.186.46A0.426,0.426,0,0,0,846.841,5492.11Zm0.036-9.82h3.148c0.689,0,1.377-.02,2.067-0.02a0.86,0.86,0,0,1,1.061.71c0,0.21-.037.53-0.037,0.91v0.76c0,0.12.037,0.38,0.037,0.52,0,0.06.02,0.15,0.02,0.21,0,0.42-.337.4-0.988,0.4-0.634,0-1.025.02-1.025-.38a0.9,0.9,0,0,1,.02-0.23c0-.14.019-0.4,0.019-0.52v-0.21a0.454,0.454,0,0,0-.523-0.53H840.117a0.452,0.452,0,0,0-.52.53v0.14c0,0.19.036,0.57,0.036,0.72,0,0.42-.353.38-1.024,0.38-0.633,0-.986.04-0.986-0.38,0-.19.036-0.51,0.036-0.72v-0.69c0-.44-0.036-0.7-0.036-0.9a0.862,0.862,0,0,1,1.08-.72c0.688,0,1.378.02,2.067,0.02h3.072a0.451,0.451,0,0,0,.522-0.48,6.46,6.46,0,0,0-.074-0.85c0-.06-0.019-0.12-0.019-0.18,0-.22.2-0.22,0.371-0.22,0.373,0,1.416.07,1.807,0.11,0.131,0.02.373,0.04,0.373,0.23a0.415,0.415,0,0,1-.242.25,0.717,0.717,0,0,0-.205.64A0.435,0.435,0,0,0,846.877,5482.29Zm2.049,7.72c-2.775.21-5.941,0.36-9.422,0.53a0.376,0.376,0,0,0-.3.27,0.279,0.279,0,0,1-.224.19c-0.149,0-.242-0.13-0.373-0.67a12.755,12.755,0,0,1-.3-1.27c0-.23.222-0.25,0.41-0.25h0.687c0.6,0,1.192-.02,1.789-0.04a0.742,0.742,0,0,0,.744-0.42c0.262-.42.5-0.88,0.726-1.31a0.326,0.326,0,0,0,.057-0.18,0.3,0.3,0,0,0-.335-0.28h-0.075c-0.708,0-1.415.04-2.123,0.04-0.41,0-.41-0.23-0.41-0.77,0-.57,0-0.8.41-0.8,0.708,0,1.415.04,2.123,0.04h6.145c0.708,0,1.416-.04,2.123-0.04,0.428,0,.41.23,0.41,0.79s0.018,0.78-.41.78h-0.594a0.155,0.155,0,0,0-.188.15,0.168,0.168,0,0,0,.075.15c0.429,0.4,3.073,2.86,3.073,3.24a1.62,1.62,0,0,1-1.266,1.03,1,1,0,0,1-.577-0.49c-0.113-.12-0.224-0.27-0.373-0.42a0.855,0.855,0,0,0-.69-0.35C849.876,5489.93,849.43,5489.97,848.926,5490.01Zm-3.725-3.11a0.26,0.26,0,0,1-.278.21,0.553,0.553,0,0,0-.355.29c-0.167.28-.3,0.59-0.466,0.87a0.284,0.284,0,0,0-.054.16,0.251,0.251,0,0,0,.278.26c1.379-.01,2.757-0.13,4.116-0.19a0.207,0.207,0,0,0,.206-0.21,0.318,0.318,0,0,0-.075-0.17,1.723,1.723,0,0,1-.726-0.76,0.978,0.978,0,0,1,.5-0.57,0.241,0.241,0,0,0,.057-0.12,0.157,0.157,0,0,0-.131-0.09h-3.223c-0.055.02-.073,0.06-0.018,0.09A0.285,0.285,0,0,1,845.2,5486.9Zm21.895,6.06a0.193,0.193,0,0,0-.187.23v1.09c0,0.95.038,1.89,0.038,2.82,0,0.59-.206.61-1.006,0.61s-1.006-.02-1.006-0.61c0-.93.056-1.87,0.056-2.82v-1.05a0.216,0.216,0,0,0-.186-0.23,0.266,0.266,0,0,0-.167.08,18.5,18.5,0,0,1-5.066,3.73c-0.038.02-.056,0.04-0.093,0.06a2.306,2.306,0,0,1-.689.27,1.883,1.883,0,0,1-1.081-1.37,0.88,0.88,0,0,1,.559-0.46,16.868,16.868,0,0,0,4.973-3.26,0.4,0.4,0,0,0,.074-0.17,0.2,0.2,0,0,0-.242-0.19h-2.049c-0.726,0-1.452.04-2.159,0.04-0.448,0-.428-0.21-0.428-0.84s0-.82.428-0.82c0.576,0,1.153.05,1.75,0.03a0.435,0.435,0,0,0,.484-0.53v-0.23a0.446,0.446,0,0,0-.52-0.53h-0.15c-0.764,0-1.508.04-2.272,0.04-0.41,0-.41-0.21-0.41-0.84,0-.65,0-0.86.428-0.86,0.746,0,1.508.06,2.254,0.06h0.15a0.456,0.456,0,0,0,.52-0.54v-0.28a0.446,0.446,0,0,0-.52-0.52c-0.373,0-.876.02-1.231,0.02-0.427,0-.427-0.21-0.427-0.82,0-.63,0-0.82.427-0.82,0.708,0,1.416.04,2.106,0.04h3.017a0.446,0.446,0,0,0,.52-0.53v-0.23a0.42,0.42,0,0,0-.5-0.5c-1.043.06-2.515,0.17-3.539,0.17h-0.5a0.6,0.6,0,0,1-.652-0.55,1.6,1.6,0,0,1-.113-0.61c0-.44.317-0.4,0.857-0.42,2.459-.05,7.45-0.28,9.646-1.1a0.556,0.556,0,0,1,.149-0.04,1.286,1.286,0,0,1,.6.53,3.144,3.144,0,0,1,.819,1.09,0.229,0.229,0,0,1-.224.19,1.07,1.07,0,0,1-.335-0.1,1.975,1.975,0,0,0-.242-0.03c-0.726.13-1.619,0.3-2.16,0.4-0.447.07-.913,0.11-1.377,0.19a0.5,0.5,0,0,0-.5.59v0.42a0.446,0.446,0,0,0,.522.53h3.053c0.708,0,1.416-.04,2.124-0.04,0.427,0,.409.23,0.409,0.82s0.018,0.82-.409.82c-0.466,0-.914-0.02-1.359-0.02a0.435,0.435,0,0,0-.5.52v0.28a0.457,0.457,0,0,0,.523.54h0.224c0.744,0,1.508-.06,2.252-0.06,0.43,0,.41.25,0.41,0.86s0.02,0.84-.41.84c-0.744,0-1.508-.04-2.252-0.04h-0.224a0.447,0.447,0,0,0-.523.53v0.23a0.436,0.436,0,0,0,.486.53c0.6,0.02,1.192-.03,1.787-0.03,0.428,0,.428.21,0.428,0.82,0,0.63,0,.84-0.428.84-0.726,0-1.434-.04-2.16-0.04h-2.048a0.189,0.189,0,0,0-.224.19,0.186,0.186,0,0,0,.074.15,19.791,19.791,0,0,0,5.122,3.43,0.435,0.435,0,0,1,.372.36,1.87,1.87,0,0,1-1.043,1.36,11.15,11.15,0,0,1-2.122-1.09,19.506,19.506,0,0,1-3.744-3.07A0.2,0.2,0,0,0,867.1,5492.96Zm-3.688-7.11a0.528,0.528,0,0,0-.52.54v0.28a0.506,0.506,0,0,0,.52.54h1.063a0.542,0.542,0,0,0,.52-0.54v-0.28a0.542,0.542,0,0,0-.52-0.54h-1.063Zm0,2.96a0.513,0.513,0,0,0-.52.53v0.23a0.493,0.493,0,0,0,.52.53h1.063a0.526,0.526,0,0,0,.52-0.53v-0.23a0.526,0.526,0,0,0-.52-0.53h-1.063Zm4.023-2.96a0.531,0.531,0,0,0-.522.54v0.28a0.508,0.508,0,0,0,.522.54h1a0.543,0.543,0,0,0,.522-0.54v-0.28a0.543,0.543,0,0,0-.522-0.54h-1Zm0,2.96a0.516,0.516,0,0,0-.522.53v0.23a0.5,0.5,0,0,0,.522.53h1a0.527,0.527,0,0,0,.522-0.53v-0.23a0.527,0.527,0,0,0-.522-0.53h-1Zm17.907,1.6a0.71,0.71,0,0,1-.43.42,1.429,1.429,0,0,1-1.1-.73,0.769,0.769,0,0,1,.222-0.38,3.5,3.5,0,0,0,.615-1.06c0-.21-0.26-0.19-0.391-0.19h-0.242a0.376,0.376,0,0,0-.428.45v5.68c0,0.38.018,0.77,0.018,1.15,0,1.67-1.3,1.85-2.644,1.85-0.373,0-.931.07-0.931-1.4,0-.24.056-0.43,0.335-0.43,0.205,0,.465.03,0.726,0.03,0.875,0,.839-0.3.839-1.14v-3.34c0-.07-0.019-0.13-0.093-0.13a0.117,0.117,0,0,0-.113.08,13.837,13.837,0,0,1-1.843,3.16,1.138,1.138,0,0,1-.5.46,1.86,1.86,0,0,1-1.062-1.11,0.483,0.483,0,0,1,.187-0.3,16.121,16.121,0,0,0,2.775-4.54,0.458,0.458,0,0,0,.037-0.15,0.307,0.307,0,0,0-.354-0.32H880.5c-0.522,0-1.025.03-1.527,0.03-0.373,0-.391-0.19-0.391-0.82s0.018-.82.391-0.82c0.5,0,1,.02,1.527.02h1.639a0.22,0.22,0,0,0,.26-0.21,0.317,0.317,0,0,0-.074-0.17,13.389,13.389,0,0,0-1.714-1.75,0.864,0.864,0,0,1-.317-0.44,1.835,1.835,0,0,1,1.137-.97,1.032,1.032,0,0,1,.634.42,1.059,1.059,0,0,0,.5.32,0.571,0.571,0,0,0,.353-0.15,4.386,4.386,0,0,0,.95-1.03c0-.17-0.279-0.15-0.392-0.15h-2.345c-0.577,0-1.248.04-1.639,0.04-0.41,0-.41-0.18-0.41-0.82s0-.82.41-0.82c0.54,0,1.1.03,1.639,0.03h3.128c0.335,0,.671-0.01,1.006-0.01a0.75,0.75,0,0,1,.726.36,1.628,1.628,0,0,1,.466.85c0,0.52-2.085,2.24-2.533,2.6a0.447,0.447,0,0,0-.206.36,0.538,0.538,0,0,0,.131.32,2.153,2.153,0,0,1,.448.65,0.54,0.54,0,0,1-.206.36,0.114,0.114,0,0,0-.056.1,0.12,0.12,0,0,0,.149.11c0.168,0,1.025-.02,1.137-0.02a1.447,1.447,0,0,1,1.21.88,0.262,0.262,0,0,0,.2.25h0.075a12.616,12.616,0,0,0,2.123-1.09,0.389,0.389,0,0,0,.224-0.34,0.443,0.443,0,0,0-.131-0.32,8.621,8.621,0,0,1-.651-0.92,0.382,0.382,0,0,0-.3-0.19,0.378,0.378,0,0,0-.278.13,2.211,2.211,0,0,1-.968.86,1.845,1.845,0,0,1-1.1-1.03,0.441,0.441,0,0,1,.167-0.27,11.579,11.579,0,0,0,2.588-4.02,0.343,0.343,0,0,1,.262-0.28,4.675,4.675,0,0,1,.651.19,1.909,1.909,0,0,1,1.174.55,0.363,0.363,0,0,1-.355.23,0.4,0.4,0,0,0-.3.32,0.36,0.36,0,0,0-.038.19,0.306,0.306,0,0,0,.335.29h2.422c0.669,0,1.321-.04,1.974-0.04,0.409,0,.409.15,0.409,0.82s-0.019.82-.409,0.82-0.988-.02-1.4-0.04a0.088,0.088,0,0,0-.075.1,0.064,0.064,0,0,0,.056.07,0.868,0.868,0,0,1,.6.42,0.236,0.236,0,0,1-.261.19,0.493,0.493,0,0,0-.409.33,11.912,11.912,0,0,1-.932,1.26,0.485,0.485,0,0,0-.131.3,0.412,0.412,0,0,0,.206.34,11.821,11.821,0,0,0,2.347,1.17,0.569,0.569,0,0,1,.484.36,1.986,1.986,0,0,1-.931,1.45,2.128,2.128,0,0,1-.523-0.17,13.031,13.031,0,0,1-2.718-1.59,0.669,0.669,0,0,0-.353-0.13,0.6,0.6,0,0,0-.391.13,12.2,12.2,0,0,1-3.241,1.72,0.884,0.884,0,0,1-.577-0.63,0.173,0.173,0,0,0-.167-0.13,0.184,0.184,0,0,0-.168.11C885.989,5489.25,885.412,5490.28,885.338,5490.41Zm5.344,1.93a0.574,0.574,0,0,0-.652.45,8.615,8.615,0,0,1-2.291,3.7,3.807,3.807,0,0,1-1.47,1.05,1.9,1.9,0,0,1-1.192-1.26,0.463,0.463,0,0,1,.335-0.34,6.7,6.7,0,0,0,2.775-3.13,0.577,0.577,0,0,0,.037-0.17,0.319,0.319,0,0,0-.373-0.3c-0.168,0-1.21.03-1.378,0.03-0.409,0-.391-0.21-0.391-0.84,0-.7-0.018-0.85.429-0.85,0.559,0,1.118.05,1.656,0.03a0.481,0.481,0,0,0,.559-0.49c0-.17.02-0.32,0.02-0.44,0-.53,0-0.67.278-0.67,0.262,0,1.285.14,1.565,0.19,0.149,0.02.373,0.06,0.373,0.21a0.436,0.436,0,0,1-.28.27,0.3,0.3,0,0,0-.168.29v0.13a0.423,0.423,0,0,0,.466.51h0.26c0.726,0,1.3-.03,1.751-0.03,0.875,0,1.23.13,1.23,0.93a23.464,23.464,0,0,1-.653,4.57c-0.41,1.4-1.434,1.47-2.681,1.47-0.764,0-1.08.04-1.08-1.31,0-.27,0-0.55.316-0.55,0.075,0,.186,0,0.28.01a6.34,6.34,0,0,0,.634.04,0.729,0.729,0,0,0,.911-0.65,13.639,13.639,0,0,0,.355-2.44c0-.45-0.244-0.41-0.932-0.41h-0.689Zm0.95-8.22a0.3,0.3,0,0,0-.335-0.27h-1.416a0.275,0.275,0,0,0-.316.27,0.3,0.3,0,0,0,.056.17,4.964,4.964,0,0,0,.651.88,0.441,0.441,0,0,0,.353.17,0.436,0.436,0,0,0,.337-0.17,5.352,5.352,0,0,0,.613-0.86A0.367,0.367,0,0,0,891.632,5484.12Zm18.876,2.33a0.446,0.446,0,0,0,.522-0.52c0-1.09-.018-2.17-0.018-3.26v-0.65c0-.4-0.038-0.87-0.038-1.03a0.294,0.294,0,0,1,.355-0.32c0.185,0,1.117.09,1.359,0.11,0.278,0.04.5,0.04,0.5,0.27a0.4,0.4,0,0,1-.278.31c-0.188.09-.188,0.21-0.188,0.57v4.02a0.447,0.447,0,0,0,.523.5H913.3c0.633,0,1.287-.04,1.938-0.04,0.428,0,.409.24,0.409,0.8s0.019,0.82-.409.82c-0.651,0-1.305-.06-1.956-0.04a0.437,0.437,0,0,0-.5.48c0.036,0.66.074,1.33,0.131,2a0.15,0.15,0,0,0,.3.05,13.913,13.913,0,0,0,.783-1.71,0.3,0.3,0,0,1,.26-0.27,2.763,2.763,0,0,1,1.024.57,0.846,0.846,0,0,1,.523.5,0.355,0.355,0,0,1-.317.25,0.636,0.636,0,0,0-.428.47,19.047,19.047,0,0,1-1.472,2.62,0.879,0.879,0,0,0-.205.57c0,0.32.465,1.98,0.727,1.98,0.354,0,.5-1.68.539-2a0.292,0.292,0,0,1,.355-0.31,0.97,0.97,0,0,1,1,.71,12.714,12.714,0,0,1-.464,2.27c-0.262.8-.54,1.58-1.528,1.58-1.135,0-1.638-1.28-1.936-2.21a0.317,0.317,0,0,0-.26-0.23,0.378,0.378,0,0,0-.242.09,10.877,10.877,0,0,1-2.4,1.95,1.609,1.609,0,0,1-.986-1.07,0.846,0.846,0,0,1,.466-0.53,15.861,15.861,0,0,0,2.569-2.35,0.886,0.886,0,0,0,.242-0.61,1.128,1.128,0,0,0-.018-0.23c-0.168-1.37-.317-2.66-0.373-4.08a0.439,0.439,0,0,0-.521-0.49h-4.023c-0.52,0-1.061-.02-1.583.02a0.454,0.454,0,0,0-.5.53v5.95c0,0.88.036,1.73,0.036,2.61,0,0.61-.167.61-0.875,0.61-0.613,0-.855,0-0.855-0.53,0-.9.036-1.79,0.036-2.69v-0.19a0.362,0.362,0,0,0-.353-0.44c-0.056,0-.113.02-0.149,0.02-0.726.19-1.434,0.32-2.142,0.48a0.363,0.363,0,0,0-.26.24,0.3,0.3,0,0,1-.28.25c-0.186,0-.224-0.17-0.335-0.57a11.78,11.78,0,0,1-.355-1.39c0-.23.3-0.23,0.69-0.27a0.418,0.418,0,0,0,.409-0.49v-8.79a0.3,0.3,0,0,0-.335-0.35c-0.427-.01-0.447-0.13-0.447-0.89,0-.67-0.018-0.9.429-0.9,0.335,0,.876.04,1.341,0.04h2.531c0.486,0,1.007-.04,1.341-0.04,0.466,0,.41.29,0.43,0.73,0.018,0.47.3,0.51,0.726,0.51h0.353a0.434,0.434,0,0,0,.484-0.49c-0.018-.29-0.037-0.58-0.075-0.86,0-.06-0.018-0.13-0.018-0.19,0-.21.168-0.23,0.335-0.23,0.355,0,1.024.06,1.4,0.09,0.168,0.02.5,0.02,0.5,0.23a0.336,0.336,0,0,1-.222.25,0.72,0.72,0,0,0-.206.71,0.433,0.433,0,0,0,.5.49c0.3,0,.857-0.02,1.1-0.02,0.335,0,.335.17,0.335,0.75s0,0.76-.335.76c-0.278,0-.577-0.02-0.857-0.04a0.105,0.105,0,0,0-.093.1,0.088,0.088,0,0,0,.057.07c0.093,0.04.167,0.08,0.26,0.12a1.123,1.123,0,0,1,.708.45c0,0.18-.168.18-0.3,0.19a0.288,0.288,0,0,0-.2.16c-0.168.32-.281,0.68-0.448,1.01a0.517,0.517,0,0,0-.018.17,0.286,0.286,0,0,0,.335.29h0.893Zm-9.031-1.99a0.5,0.5,0,0,0,.521.52h0.262a0.5,0.5,0,0,0,.52-0.52v-0.97a0.532,0.532,0,0,0-.52-0.53H902a0.532,0.532,0,0,0-.521.53v0.97Zm0,3.62a0.5,0.5,0,0,0,.521.52h0.262a0.5,0.5,0,0,0,.52-0.52v-1.02a0.5,0.5,0,0,0-.52-0.52H902a0.5,0.5,0,0,0-.521.52v1.02Zm0,3.78a0.386,0.386,0,0,0,.392.46,0.758,0.758,0,0,0,.092-0.02l0.335-.06a0.5,0.5,0,0,0,.484-0.61v-0.99a0.446,0.446,0,0,0-.52-0.52H902a0.446,0.446,0,0,0-.521.52v1.22Zm2.961-5.97a0.462,0.462,0,0,0,.5.54c0.484,0.03,1.1.02,1.583,0.02h0.726a0.645,0.645,0,0,0,.708-0.44,13.693,13.693,0,0,0,.54-1.7c0-.04.019-0.08,0.019-0.11a0.312,0.312,0,0,0-.335-0.31H906.69c-0.483,0-.967.04-1.377,0.04-0.317,0-.317-0.17-0.335-0.61a0.276,0.276,0,0,0-.2-0.31,0.42,0.42,0,0,0-.335.5v2.38Zm5.493,7.4c0,0.27.018,0.55,0.018,0.82a0.632,0.632,0,0,1-.762.7c-0.28,0-.579-0.02-0.875-0.02h-0.857a0.455,0.455,0,0,0-.541.48c-0.018.44-.018,0.44-0.857,0.44-0.5,0-.744.02-0.744-0.36,0-.35.018-0.69,0.018-1.03v-3.76c0-.28-0.018-0.57-0.018-0.86a0.632,0.632,0,0,1,.744-0.72c0.337,0,.672.04,1.007,0.04H908.2c0.317,0,.633-0.04.968-0.04a0.641,0.641,0,0,1,.782.71c0,0.3-.018.59-0.018,0.87v2.73Zm-3.761-7a1.1,1.1,0,0,1-.522-0.91,7.037,7.037,0,0,1-.3-0.9,1.114,1.114,0,0,1,.95-0.44c0.224,0,.317.12,0.579,0.88a5.3,5.3,0,0,1,.242.86A1.028,1.028,0,0,1,906.17,5486.29Zm1.172,4.14a0.429,0.429,0,0,0-.446.44,0.441,0.441,0,0,0,.446.44h0.689a0.442,0.442,0,0,0,.448-0.44,0.43,0.43,0,0,0-.448-0.44h-0.689Zm0,2a0.435,0.435,0,0,0-.446.46v0.04a0.433,0.433,0,0,0,.446.45h0.689a0.434,0.434,0,0,0,.448-0.45v-0.04a0.436,0.436,0,0,0-.448-0.46h-0.689Zm7.822-7.3a2.671,2.671,0,0,1-.651.19,0.445,0.445,0,0,1-.355-0.4,20.714,20.714,0,0,0-1.061-2.38,0.584,0.584,0,0,1-.074-0.25,1.381,1.381,0,0,1,1.08-.57,0.373,0.373,0,0,1,.317.19,10.062,10.062,0,0,1,.652,1.28,10.871,10.871,0,0,1,.54,1.48A0.506,0.506,0,0,1,915.164,5485.13Z" transform="translate(-633 -5479.94)"/>
</svg>
