<svg xmlns="http://www.w3.org/2000/svg" width="220.312" height="18.06" viewBox="0 0 220.312 18.06">
  <defs>
    <style>
      .cls-1 {
        fill: #231815;
        fill-rule: evenodd;
      }
    </style>
  </defs>
  <path id="M-CAPを通じて身近に" class="cls-1" d="M636.055,5076.49c0-.2.06-0.32,0.14-0.32a0.384,0.384,0,0,1,.26.18l3.961,4.94a0.53,0.53,0,0,0,.4.24,0.543,0.543,0,0,0,.42-0.24l4-4.94a0.384,0.384,0,0,1,.26-0.18c0.08,0,.14.12,0.14,0.32l0.1,5.14c0.04,1.08,0,2.98,0,3.56,0,0.5.1,0.6,0.6,0.6h1.221c0.5,0,.56-0.06.56-0.6,0-.3-0.1-2.64-0.12-3.7l-0.1-5.98c-0.02-1.42,0-2.98,0-3.28,0-.5-0.1-0.6-0.6-0.6h-0.66a0.959,0.959,0,0,0-.961.48c-0.58.78-1.18,1.56-1.76,2.28l-2.661,3.38a0.632,0.632,0,0,1-.38.3,0.585,0.585,0,0,1-.38-0.3l-2.72-3.44c-0.58-.72-1.161-1.46-1.721-2.22a0.958,0.958,0,0,0-.96-0.48h-0.66c-0.5,0-.58.1-0.58,0.6,0,0.4,0,2.28-.02,3.28l-0.1,5.98c-0.02,1.44-.14,3.62-0.14,3.9,0,0.3.14,0.4,0.58,0.4h1.2c0.5,0,.6-0.1.6-0.6,0-.46-0.02-2.88,0-3.58Zm20.4,4.98c0.62,0,1.461.02,1.721,0.02,0.42,0,.48-0.12.48-0.58v-0.94c0-.46-0.06-0.58-0.48-0.58-0.26,0-1.1.02-1.721,0.02h-1.7c-0.64,0-1.56-.02-1.82-0.02-0.421,0-.481.12-0.481,0.58v0.94c0,0.46.06,0.58,0.481,0.58,0.26,0,1.18-.02,1.82-0.02h1.7Zm16.582,3-0.381-.96c-0.12-.3-0.2-0.42-0.36-0.42a0.939,0.939,0,0,0-.4.14,5.221,5.221,0,0,1-2.32.5,4.4,4.4,0,0,1-4.641-4.74c0-2.82,1.7-5.16,5.021-5.16a5.4,5.4,0,0,1,2.14.46,1.06,1.06,0,0,0,.4.12c0.16,0,.22-0.12.341-0.42l0.44-1.2a1.189,1.189,0,0,0,.1-0.38,0.5,0.5,0,0,0-.44-0.4,7.857,7.857,0,0,0-2.881-.5c-5,0-7.542,3.36-7.542,7.54,0,4.1,2.661,6.86,6.8,6.86a8.774,8.774,0,0,0,3.38-.64,0.543,0.543,0,0,0,.441-0.42A1.189,1.189,0,0,0,673.037,5084.47Zm12.5-2.02a0.66,0.66,0,0,1,.84.48c0.28,0.66.54,1.34,0.88,2.3a0.652,0.652,0,0,0,.8.56h1.54c0.32,0,.46-0.04.46-0.2a0.858,0.858,0,0,0-.12-0.34c-0.62-1.38-1.06-2.38-1.5-3.42l-2.881-6.76c-0.36-.84-0.76-1.8-1.18-2.88a0.651,0.651,0,0,0-.8-0.56h-0.861a0.651,0.651,0,0,0-.8.56c-0.42,1.08-.84,2.04-1.2,2.9l-2.86,6.78c-0.421.98-.861,1.98-1.481,3.38a0.858,0.858,0,0,0-.12.34c0,0.16.14,0.2,0.46,0.2h1.4a0.651,0.651,0,0,0,.8-0.56c0.34-.96.6-1.64,0.88-2.3a0.668,0.668,0,0,1,.84-0.48h4.9Zm-2.66-7.06a0.236,0.236,0,1,1,.44,0l1.86,4.58a0.9,0.9,0,0,1,.08.34c0,0.18-.14.22-0.46,0.22h-3.421c-0.32,0-.46-0.04-0.46-0.22a0.9,0.9,0,0,1,.08-0.34Zm12.678,10.4c0.461,0,.581-0.08.581-0.5,0-.14-0.06-2.34-0.06-3.5v-0.46c0-.5.1-0.6,0.6-0.6h1.58c3.7,0,5.321-2.1,5.321-4.96,0-2.82-1.72-4.14-4.561-4.14h-2.04c-0.94,0-2.521-.04-2.661-0.04-0.44,0-.56.16-0.56,0.64,0.02,1.14.04,2.38,0.04,3.36v6.2c0,1.16-.06,3.36-0.06,3.5,0,0.42.12,0.5,0.58,0.5h1.24Zm0.521-11.5c0-.5.1-0.6,0.6-0.6h1.92c1.48,0,2.621.56,2.621,2.3,0,1.98-1.3,2.76-2.961,2.76h-1.58c-0.5,0-.6-0.1-0.6-0.6v-3.86Zm19.261-4.92c-0.2,0-.24.2-0.28,0.42a10.976,10.976,0,0,1-1.081,2.58,1.767,1.767,0,0,1-1.24.26h-0.58c-0.58,0-1.1-.04-1.44-0.04-0.5,0-.58.12-0.58,0.92,0,1.02.08,1.12,0.52,1.12,0.62,0,1.08-.06,1.4-0.06,0.28,0,.44.06,0.44,0.24a37.767,37.767,0,0,1-3.361,4.9,0.837,0.837,0,0,0-.26.44,2.915,2.915,0,0,0,1.7,1.16,0.333,0.333,0,0,0,.28-0.2,13.11,13.11,0,0,1,1.68-2.34,6.722,6.722,0,0,1,3.741-1.76,0.832,0.832,0,0,1,.88.68,2.746,2.746,0,0,1,.1.56,0.512,0.512,0,0,1-.36.46c-0.42.2-.84,0.42-1.24,0.66-1.381.82-2.841,1.8-2.841,3.6a3.037,3.037,0,0,0,2,2.86,7.41,7.41,0,0,0,3.16.52,26.539,26.539,0,0,0,3.841-.26c0.44-.1.46-0.26,0.46-0.86,0-1.14-.14-1.36-0.4-1.36a2.462,2.462,0,0,0-.4.04,14.625,14.625,0,0,1-3.721.5c-0.96,0-2.9-.12-2.9-1.46,0-1.24,2.06-2.12,2.16-2.12a0.278,0.278,0,0,1,.26.34c0,0.42-.04.86-0.04,1.3,0,0.52.36,0.56,1.22,0.56,0.761,0,.861-0.08.861-0.8,0-.62-0.02-1.22-0.02-1.84v-0.26a0.613,0.613,0,0,1,.52-0.66c0.78-.34,1.56-0.68,2.36-0.98,0.1-.04.2-0.06,0.28-0.1,0.38-.12.6-0.2,0.6-0.44,0-.34-0.48-1.88-0.86-1.88a1.649,1.649,0,0,0-.52.2,17.752,17.752,0,0,1-2.341,1.14,0.331,0.331,0,0,1-.3-0.34,2.039,2.039,0,0,0-2.28-1.8,5.533,5.533,0,0,0-2.18.52,0.775,0.775,0,0,1-.361.12,0.155,0.155,0,0,1-.16-0.14,6.466,6.466,0,0,1,.681-1.16,0.705,0.705,0,0,1,.6-0.32c1.26-.14,2.52-0.36,3.781-0.62,0.42-.08,1.06-0.16,1.06-0.5a6.391,6.391,0,0,0-.16-1.08,0.589,0.589,0,0,0-.5-0.6,1.515,1.515,0,0,0-.5.12,14.507,14.507,0,0,1-2.321.56,0.194,0.194,0,0,1-.22-0.2,1.343,1.343,0,0,1,.2-0.46,1.1,1.1,0,0,1,.66-0.68,0.325,0.325,0,0,0,.24-0.24C717.576,5070.29,715.516,5069.37,715.336,5069.37Zm18.479,3.8a7.531,7.531,0,0,0-1.4-1.82q-0.66-.72-1.381-1.38a0.846,0.846,0,0,0-.48-0.3,2.026,2.026,0,0,0-1.24,1.08,0.553,0.553,0,0,0,.26.4,25.975,25.975,0,0,1,2.581,2.76,0.55,0.55,0,0,0,.4.3A1.9,1.9,0,0,0,733.815,5073.17Zm-3.361,13.06c0.52-.4,1.041-0.8,1.541-1.22a0.531,0.531,0,0,1,.28-0.1,0.431,0.431,0,0,1,.36.24,3.478,3.478,0,0,0,2.54,1.36,20.866,20.866,0,0,0,2.961.24c2.42,0.04,4.841.02,7.261,0,0.761,0,1.3.12,1.3-1.34,0-.32-0.02-0.58-0.38-0.58-0.14,0-.42.02-0.56,0.02-1.7.06-3.4,0.1-5.082,0.1h-1.44a17.491,17.491,0,0,1-4.461-.38c-1.3-.42-1.3-1.36-1.3-2.5v-2.88c0-.56.04-1.1,0.04-1.66a0.891,0.891,0,0,0-1.12-.94c-0.4,0-.8.04-1.2,0.04h-0.62c-0.34,0-.68-0.06-1-0.06-0.48,0-.44.28-0.44,1,0,0.66-.04.98,0.44,0.98,0.3,0,.68-0.06,1-0.06h0.34a0.476,0.476,0,0,1,.54.56v3.46a0.836,0.836,0,0,1-.44.84c-0.3.2-1.18,0.8-1.46,0.92a1.066,1.066,0,0,0-.8.56,3.552,3.552,0,0,0,.42,1.04c0.46,0.88.52,1.06,0.72,1.06a0.327,0.327,0,0,0,.3-0.34A0.483,0.483,0,0,1,730.454,5086.23Zm7.262-7.02a0.462,0.462,0,0,1-.48-0.48v-0.22a0.462,0.462,0,0,1,.48-0.48h1.38a0.462,0.462,0,0,1,.48.48v0.22a0.462,0.462,0,0,1-.48.48h-1.38Zm5.661-1.18a0.446,0.446,0,0,1,.46.48v0.22a0.446,0.446,0,0,1-.46.48H741.9a0.446,0.446,0,0,1-.46-0.48v-0.22a0.446,0.446,0,0,1,.46-0.48h1.48Zm0.46-1.88a0.446,0.446,0,0,1-.46.48H741.9a0.446,0.446,0,0,1-.46-0.48v-0.2a0.446,0.446,0,0,1,.46-0.48h1.48a0.446,0.446,0,0,1,.46.48v0.2Zm-4.261,0a0.462,0.462,0,0,1-.48.48h-1.38a0.462,0.462,0,0,1-.48-0.48v-0.2a0.462,0.462,0,0,1,.48-0.48h1.38a0.462,0.462,0,0,1,.48.48v0.2Zm-1.58-2.2c-0.54,0-1.1-.02-1.66-0.02s-1.021.08-1.021,0.76c0,0.5.04,1,.04,1.48v5.12c0,0.74-.04,1.48-0.04,2.2,0,0.54.26,0.54,0.981,0.54,0.8,0,.98-0.02.98-0.56,0-.74-0.04-1.46-0.04-2.18v-0.16a0.476,0.476,0,0,1,.56-0.56h1.22a0.469,0.469,0,0,1,.56.54c0,0.7-.06,1.4-0.06,2.1,0,0.58.22,0.58,0.98,0.58,0.8,0,.981-0.02.981-0.62,0-.68-0.06-1.38-0.04-2.06a0.456,0.456,0,0,1,.54-0.54h1.32a0.469,0.469,0,0,1,.54.56v0.5c0,0.36-.04.58-0.5,0.58-0.26,0-.5-0.02-0.76-0.02-0.32,0-.36.32-0.36,0.58,0,1.28.46,1.24,0.9,1.24a3.678,3.678,0,0,0,2.22-.48,1.6,1.6,0,0,0,.441-1.36c0-.42-0.02-0.84-0.02-1.26v-4.76c0-.48.02-0.96,0.02-1.46,0-.68-0.441-0.78-1.021-0.78-0.44,0-.88.04-1.32,0.04a0.446,0.446,0,0,1-.26-0.12,2.958,2.958,0,0,0-.7-0.38,0.27,0.27,0,0,1-.16-0.24,0.234,0.234,0,0,1,.16-0.22c0.62-.34,1.24-0.68,1.84-1.06,0.32-.2,1.3-0.76,1.3-1.16a1.129,1.129,0,0,0-1.1-.92c-0.5,0-1,.02-1.52.02h-4.981c-0.72,0-1.44-.04-2.161-0.04-0.56,0-.56.18-0.56,0.76,0,0.56-.02.74,0.56,0.74,0.721,0,1.441-.04,2.161-0.04H741.5c0.1,0,.48-0.02.48,0.12a3.766,3.766,0,0,1-1,.72c-0.12.06-.2,0.12-0.241,0.14a1.306,1.306,0,0,1-.48.12,1.558,1.558,0,0,1-.42-0.08,14.164,14.164,0,0,0-2.1-.68,1.223,1.223,0,0,0-.9.96c0,0.24.24,0.32,1.02,0.58,0.38,0.14.92,0.32,1.62,0.58a0.133,0.133,0,0,1,.08.1c0,0.08-.04.1-0.12,0.1H738Zm26.181-3.02a1.683,1.683,0,0,0-.96.82,0.486,0.486,0,0,0,.18.28,20.818,20.818,0,0,1,1.42,1.56,0.387,0.387,0,0,0,.28.22,1.578,1.578,0,0,0,.96-0.9A7.7,7.7,0,0,0,764.177,5070.93Zm-2.2,1.5a1.722,1.722,0,0,0-.98.82,0.526,0.526,0,0,0,.18.28,17.554,17.554,0,0,1,1.4,1.58,0.446,0.446,0,0,0,.281.22,1.561,1.561,0,0,0,.98-0.9A7.726,7.726,0,0,0,761.976,5072.43Zm-6.4-1.62c-0.28,0-.3.2-0.3,0.5v0.22c0,0.82-.18,2.74-0.24,3.66q-0.18,2.37-.18,4.74c0,1.46.1,3.4,1,4.6a4.422,4.422,0,0,0,3.521,1.54,7,7,0,0,0,6.081-3.82,7.436,7.436,0,0,0,.82-2.34,2.57,2.57,0,0,0-1.66-1.62c-0.3,0-.32.34-0.38,0.66a6.269,6.269,0,0,1-1.24,2.96,5.069,5.069,0,0,1-3.761,1.94c-2.161,0-2.121-2.42-2.121-3.98a42.207,42.207,0,0,1,.56-7.28,1.022,1.022,0,0,1,.461-0.82,0.239,0.239,0,0,0,.1-0.18,0.722,0.722,0,0,0-.681-0.36A15.263,15.263,0,0,0,755.575,5070.81Zm17.839,2.62c0,0.2.18,2.1,0.66,2.1a1.544,1.544,0,0,0,.3-0.04,40.127,40.127,0,0,1,4.421-.82c0.22-.04,1.121-0.18,1.281-0.18a0.284,0.284,0,0,1,.3.24,1.318,1.318,0,0,1-.36.48,8.879,8.879,0,0,0-2.2,5.74c0,3.9,2.921,4.98,6.321,4.98a0.624,0.624,0,0,0,.581-0.2,4.791,4.791,0,0,0,.36-1.78c0-.32-0.16-0.34-0.46-0.34-0.2,0-.641.02-1,0.02-2.02,0-3.52-.56-3.52-2.88a7.488,7.488,0,0,1,.96-3.52,6.052,6.052,0,0,1,3.421-2.98,9.78,9.78,0,0,1,3.32-.42c0.46-.02.88,0.02,0.88-0.42a12.067,12.067,0,0,0-.16-1.46c-0.06-.24-0.1-0.5-0.4-0.5a0.974,0.974,0,0,0-.24.02c-1.5.24-3.04,0.44-4.541,0.62-2.92.34-5.841,0.64-8.762,0.82C773.694,5072.97,773.414,5072.91,773.414,5073.43Zm26.461,0.84a0.462,0.462,0,0,1-.48-0.48v-0.28a0.462,0.462,0,0,1,.48-0.48h6.182a0.462,0.462,0,0,1,.48.48v0.28a0.462,0.462,0,0,1-.48.48h-6.182Zm0,2.82a0.462,0.462,0,0,1-.48-0.48v-0.22a0.462,0.462,0,0,1,.48-0.48h6.182a0.462,0.462,0,0,1,.48.48v0.22a0.462,0.462,0,0,1-.48.48h-6.182Zm6.121,1.6a0.423,0.423,0,0,1,.521.42,0.378,0.378,0,0,1-.18.28,0.9,0.9,0,0,1-.541.24c-1.96.22-3.9,0.42-5.881,0.54a0.443,0.443,0,0,1-.52-0.52v-0.4a0.476,0.476,0,0,1,.56-0.56H806Zm-2.64,2.96a26.363,26.363,0,0,1-7.642,3.46,0.735,0.735,0,0,0-.68.46c0,0.28.42,1.5,0.86,1.5a4.34,4.34,0,0,0,.84-0.22,30.806,30.806,0,0,0,9.383-4.94,0.38,0.38,0,0,1,.18-0.06,0.273,0.273,0,0,1,.24.3v1.78c0,0.82,0,1.18-.921,1.18-0.4,0-.8-0.06-1.2-0.06-0.36,0-.48.14-0.48,0.54,0,1.56.34,1.58,1.34,1.58,3.181,0,3.281-1.22,3.281-2.32,0-.5-0.04-0.98-0.04-1.48v-2.96a1.016,1.016,0,0,1,.34-0.9c0.74-.74,1.4-1.46,2.1-2.2a0.558,0.558,0,0,1,.5-0.24c0.14,0,.44,0,0.44-0.2a0.676,0.676,0,0,0-.28-0.4,6.124,6.124,0,0,0-1.461-1.16,0.364,0.364,0,0,0-.26.2,16.443,16.443,0,0,1-1.04,1.3,0.207,0.207,0,0,1-.16.08,0.189,0.189,0,0,1-.18-0.22v-2.56c0-.62.02-1.22,0.02-1.82a0.86,0.86,0,0,0-1.08-.98c-0.56,0-1.12.04-1.7,0.04h-2.6a0.314,0.314,0,0,1-.34-0.28,2.7,2.7,0,0,1,.28-0.6,0.486,0.486,0,0,1,.38-0.32c0.14-.04.32-0.06,0.32-0.24a1.294,1.294,0,0,0-1-.48,12.561,12.561,0,0,0-1.26-.3,0.268,0.268,0,0,0-.28.26,13.3,13.3,0,0,1-.541,1.48,0.684,0.684,0,0,1-.76.48c-0.52.02-1.02-.04-1.52-0.04a0.861,0.861,0,0,0-1.08.98c0,0.6.04,1.22,0.04,1.82v5.66a0.516,0.516,0,0,1-.52.6l-1.3.06c-0.12,0-.24.02-0.34,0.02-0.54.04-.68,0.04-0.68,0.28a6.806,6.806,0,0,0,.24,1.02c0.18,0.64.26,1.06,0.48,1.06a0.4,0.4,0,0,0,.28-0.26,0.335,0.335,0,0,1,.24-0.22c2.5-.22,4.981-0.56,7.462-0.9a0.13,0.13,0,0,1,.16.12A0.11,0.11,0,0,1,803.356,5081.65Zm17.7-8.54a9.125,9.125,0,0,0-1.64-1.84,9.537,9.537,0,0,0-1.981-1.62,1.824,1.824,0,0,0-1.2,1.1,0.594,0.594,0,0,0,.28.42,29.067,29.067,0,0,1,2.861,2.8,0.663,0.663,0,0,0,.42.28A2.031,2.031,0,0,0,821.055,5073.11Zm-3.7,13.16c0.58-.4,1.441-0.98,1.981-1.38a0.441,0.441,0,0,1,.3-0.12,0.5,0.5,0,0,1,.38.22,3.233,3.233,0,0,0,1.6,1.22c1.42,0.54,4.241.54,5.821,0.54h4.781c0.681,0,1.061-.02,1.2-0.32a3.006,3.006,0,0,0,.2-1.12c0-.32-0.02-0.56-0.4-0.56-0.16,0-1.521.04-1.821,0.06-1.12.04-2.26,0.04-3.38,0.04a22.739,22.739,0,0,1-5.622-.42,2.19,2.19,0,0,1-1.62-2.44v-2.82c0-.56.04-1.12,0.04-1.68a0.892,0.892,0,0,0-1.12-.92c-0.46,0-.92.04-1.361,0.04h-0.82c-0.38,0-.72-0.04-1.1-0.04-0.48,0-.44.26-0.44,1,0,0.68-.02.96,0.44,0.96,0.36,0,.72-0.06,1.1-0.06h0.68a0.49,0.49,0,0,1,.561.56v3.52c0,0.7-.22.74-2.161,1.78a1.156,1.156,0,0,0-.9.56,3.486,3.486,0,0,0,.46,1.1,3.789,3.789,0,0,1,.2.42c0.2,0.4.28,0.54,0.46,0.54a0.409,0.409,0,0,0,.3-0.34A0.538,0.538,0,0,1,817.354,5086.27Zm7.962-12.36c0-1.14-.04-1.14,1.12-1.3a28.777,28.777,0,0,0,5.521-1.3,1.055,1.055,0,0,1,.24-0.06,0.424,0.424,0,0,1,.261.1,0.652,0.652,0,0,0,.26.08,0.227,0.227,0,0,0,.24-0.22,4.272,4.272,0,0,0-.7-1.18,2.033,2.033,0,0,0-.82-0.78,0.422,0.422,0,0,0-.2.08c-1.48.82-4.781,1.38-6.521,1.58-0.84.1-1.36,0.06-1.36,1.1v4.16a12.615,12.615,0,0,1-1.321,6.18,1.031,1.031,0,0,0-.18.4c0,0.54,1.061,1.08,1.521,1.08,0.3,0,.48-0.28.78-0.92a15.068,15.068,0,0,0,1.14-5.46,0.5,0.5,0,0,1,.58-0.54h1.841a0.476,0.476,0,0,1,.56.56v3.2c0,0.9-.04,1.78-0.04,2.68,0,0.74.22,0.76,1.08,0.76,0.8,0,1.06,0,1.06-.8,0-.88-0.06-1.76-0.06-2.64v-3.2a0.482,0.482,0,0,1,.56-0.56h0.14c0.7,0,1.421.04,2.041,0.04,0.44,0,.42-0.28.42-0.98,0-.68.02-0.98-0.42-0.98-0.68,0-1.361.06-2.041,0.06h-5.141a0.49,0.49,0,0,1-.56-0.56v-0.58Zm20.08,7.28c-0.38,0-1.081,1.42-1.081,1.7,0,0.32,1.341,2,4.581,2a23.255,23.255,0,0,0,4.741-.6,0.777,0.777,0,0,0,.24-0.74c0-1.02-.04-1.5-0.36-1.5a1.423,1.423,0,0,0-.42.08,16.37,16.37,0,0,1-4.4.64,3.427,3.427,0,0,1-3.04-1.4A0.352,0.352,0,0,0,845.4,5081.19Zm0.46-8.66c-0.32,0-.42.3-0.42,1.26a0.971,0.971,0,0,0,.2.78,13.787,13.787,0,0,0,3.5.4,23.312,23.312,0,0,0,3.361-.28c0.38-.08.38-0.24,0.38-0.66a9.808,9.808,0,0,0-.08-1.08,0.448,0.448,0,0,0-.4-0.48,1.931,1.931,0,0,0-.36.06,13.074,13.074,0,0,1-3.041.4,12.834,12.834,0,0,1-2.62-.3A2.635,2.635,0,0,0,845.856,5072.53Zm-4.8-1.56a0.424,0.424,0,0,0-.3.44,9.2,9.2,0,0,1-.26,1,23.9,23.9,0,0,0-1.021,6.62,13.761,13.761,0,0,0,1.221,6.14,1.373,1.373,0,0,0,.84.98c0.42,0,1.56-.48,1.56-0.98a1.775,1.775,0,0,0-.04-0.3c-0.02-.18-0.08-0.64-0.08-0.84a15.322,15.322,0,0,1,.8-2.9,1.1,1.1,0,0,0-.72-0.64,0.649,0.649,0,0,0-.42.48,1.556,1.556,0,0,1-.54.78c-0.46,0-.54-2.42-0.54-2.8a15.869,15.869,0,0,1,1.12-5.68,1.284,1.284,0,0,1,.62-0.86c0.2-.12.28-0.14,0.28-0.26a0.476,0.476,0,0,0-.4-0.34C842.9,5071.69,841.215,5070.97,841.055,5070.97Z" transform="translate(-633.594 -5069.13)"/>
</svg>
