<svg xmlns="http://www.w3.org/2000/svg" width="284" height="28.9" viewBox="0 0 284 28.9">
  <defs>
    <style>
      .cls-1 {
        fill: #fff;
        fill-rule: evenodd;
      }
    </style>
  </defs>
  <path id="job-ttl-detail01.svg" class="cls-1" d="M607.847,4532.16a17.952,17.952,0,0,0,1.687,3.16,0.532,0.532,0,0,1,.1.31,0.47,0.47,0,0,1-.49.46h-3.183c-0.784,0-1.4.05-1.887,0.04a0.894,0.894,0,0,1-1.078-1c0-.82.076-1.44,0.076-2.33l0.006-17.24c0-.89-0.074-1.51-0.074-2.32a0.9,0.9,0,0,1,1.081-1.01c0.489,0,1.1.05,1.887,0.05h3.183a0.478,0.478,0,0,1,.39.77,21.319,21.319,0,0,0-1.69,3.16,18.6,18.6,0,0,0-1.744,7.97A19.079,19.079,0,0,0,607.847,4532.16Zm12.708-4.07c-0.026.84,0,3.74,0,4.29,0,0.6-.122.72-0.733,0.72h-1.47c-0.539,0-.711-0.12-0.711-0.48,0-.34.146-2.95,0.174-4.67l0.124-7.16c0.024-1.2.026-3.45,0.026-3.93,0-.6.1-0.72,0.711-0.72h0.809a1.186,1.186,0,0,1,1.176.58c0.685,0.91,1.394,1.79,2.1,2.65l3.331,4.13a0.71,0.71,0,0,0,.465.36,0.779,0.779,0,0,0,.465-0.36l3.259-4.05c0.711-.86,1.448-1.79,2.157-2.73a1.178,1.178,0,0,1,1.176-.57h0.809c0.611,0,.735.12,0.735,0.72,0,0.36-.026,2.22,0,3.92l0.12,7.17c0.022,1.26.145,4.07,0.145,4.43,0,0.64-.074.72-0.687,0.72l-1.494-.01c-0.613,0-.734-0.12-0.734-0.71,0-.7.05-2.97,0-4.27l-0.12-6.15c0-.24-0.074-0.39-0.171-0.39a0.464,0.464,0,0,0-.32.22l-4.9,5.91a0.66,0.66,0,0,1-.513.29,0.639,0.639,0,0,1-.491-0.29l-4.847-5.92a0.473,0.473,0,0,0-.319-0.21c-0.1,0-.17.14-0.17,0.38Zm25.691-.15c-0.783,0-1.91.02-2.229,0.02-0.513,0-.587-0.15-0.587-0.7v-1.12c0-.55.074-0.7,0.587-0.7,0.319,0,1.446.03,2.229,0.03h2.082c0.759,0,1.788-.02,2.107-0.02,0.513,0,.587.14,0.587,0.69v1.13c0,0.55-.074.69-0.587,0.69-0.319,0-1.348-.02-2.107-0.02h-2.082Zm25.2,4.05a0.661,0.661,0,0,1-.54.51,11.011,11.011,0,0,1-4.139.76c-5.07,0-8.328-3.31-8.325-8.22,0-5,3.113-9.03,9.238-9.02a9.743,9.743,0,0,1,3.527.6,0.6,0.6,0,0,1,.539.48,1.466,1.466,0,0,1-.122.45l-0.542,1.44c-0.147.36-.221,0.5-0.417,0.5a1.41,1.41,0,0,1-.489-0.14,6.651,6.651,0,0,0-2.62-.55c-4.068-.01-6.149,2.79-6.151,6.17a5.333,5.333,0,0,0,5.681,5.68,6.414,6.414,0,0,0,2.84-.6,1.135,1.135,0,0,1,.491-0.16c0.2,0,.294.14,0.44,0.5l0.465,1.15A1.36,1.36,0,0,1,671.445,4531.99Zm11.632-2.87a0.822,0.822,0,0,0-1.029.58c-0.343.79-.661,1.6-1.078,2.75a0.79,0.79,0,0,1-.978.67h-1.716c-0.391,0-.563-0.05-0.563-0.24a1.1,1.1,0,0,1,.148-0.41c0.759-1.67,1.3-2.87,1.813-4.04l3.5-8.12c0.441-1.03.959-2.18,1.472-3.47a0.793,0.793,0,0,1,.981-0.67h1.052a0.791,0.791,0,0,1,.98.67c0.516,1.29,1,2.44,1.444,3.45l3.524,8.1c0.537,1.24,1.077,2.44,1.835,4.09a0.987,0.987,0,0,1,.146.41c0,0.19-.169.24-0.563,0.24h-1.885a0.8,0.8,0,0,1-.981-0.67c-0.415-1.15-.734-1.97-1.076-2.76-0.222-.53-0.367-0.57-1.03-0.57Zm0.443-2.97a1.089,1.089,0,0,0-.1.41c0,0.22.172,0.26,0.564,0.26l4.189,0.01c0.392,0,.563-0.05.563-0.27a1.06,1.06,0,0,0-.1-0.4l-2.277-5.49a0.5,0.5,0,0,0-.269-0.38,0.511,0.511,0,0,0-.27.38Zm19,6.98c-0.563,0-.711-0.09-0.711-0.6,0-.16.074-2.8,0.076-4.19l0-7.42c0-1.18-.024-2.66-0.046-4.03,0-.57.146-0.76,0.685-0.76,0.172,0,2.107.04,3.257,0.05h2.5c3.476,0,5.583,1.58,5.581,4.96,0,3.42-1.985,5.93-6.518,5.93h-1.935c-0.612,0-.733.12-0.733,0.72v0.55c0,1.39.069,4.03,0.069,4.19,0,0.51-.145.6-0.708,0.6h-1.52Zm2.159-9.15c0,0.6.121,0.72,0.733,0.72h1.935c2.035,0,3.626-.93,3.628-3.3,0-2.09-1.395-2.76-3.209-2.76h-2.352c-0.611,0-.733.12-0.733,0.72Zm18.341,8.22a19.181,19.181,0,0,0,.007-15.95,18.268,18.268,0,0,0-1.691-3.16,0.5,0.5,0,0,1-.1-0.31,0.47,0.47,0,0,1,.491-0.46l3.183,0.01c0.785,0,1.4-.05,1.885-0.05a0.9,0.9,0,0,1,1.077,1.01c0,0.81-.074,1.43-0.074,2.32l-0.007,17.24c0,0.89.072,1.51,0.072,2.33a0.894,0.894,0,0,1-1.079,1c-0.489,0-1.1-.04-1.885-0.04l-3.183-.01a0.462,0.462,0,0,1-.491-0.45,0.492,0.492,0,0,1,.1-0.31A17.938,17.938,0,0,0,723.021,4532.2Zm32.357-13.71a8.013,8.013,0,0,1,2.472,5.9,8.565,8.565,0,0,1-4.779,7.73,9.564,9.564,0,0,1-2.67.96c-0.637,0-1.639-1.49-1.639-2.01,0-.24.368-0.29,0.611-0.34,3.209-.74,5.733-2.8,5.733-6.22a5.8,5.8,0,0,0-3.915-5.73,4.52,4.52,0,0,0-.931-0.22c-0.563,0-.563.53-0.589,0.94-0.268,3.49-1.129,7.76-3.481,10.51a4.411,4.411,0,0,1-3.233,1.85,3.97,3.97,0,0,1-3.331-2.28,7.411,7.411,0,0,1-.759-3.41,9.979,9.979,0,0,1,10.171-10.05A8.836,8.836,0,0,1,755.378,4518.49Zm-9.527.69a7.418,7.418,0,0,0-4.412,6.9c0,0.89.318,3.11,1.566,3.12,1.224,0,2.6-2.73,3.285-5.18a23.745,23.745,0,0,0,.785-4.67,0.38,0.38,0,0,0-.391-0.43A2.959,2.959,0,0,0,745.851,4519.18Zm36.352-9.29A14.469,14.469,0,1,0,797,4524.36,14.635,14.635,0,0,0,782.2,4509.89Zm-1.286,23.44a10.846,10.846,0,0,1-4.386-.91,0.66,0.66,0,0,1-.513-0.51,1.41,1.41,0,0,1,.122-0.45l0.465-1.15a0.619,0.619,0,0,1,.418-0.5,0.978,0.978,0,0,1,.465.21,7.327,7.327,0,0,0,3.576.92c2.988,0,4.212-1.56,4.214-3.33,0-1.85-1.544-2.85-3.8-2.85a7.905,7.905,0,0,0-2.67.43,2.191,2.191,0,0,1-.661.16,3.1,3.1,0,0,1-.711-0.16c-0.489-.17-0.637-0.27-0.637-0.63a1.375,1.375,0,0,1,.026-0.31c0.1-.72.172-1.39,0.246-2.13l0.269-2.97c0.05-.65.124-1.63,0.15-2.25,0.024-.58.122-0.7,0.611-0.7,0.32,0,2.475.05,3.725,0.05l1.372,0.01c1.248,0,3.624-.05,3.8-0.05,0.513,0,.611.14,0.611,0.69v1.27c0,0.55-.1.7-0.613,0.7-0.172,0-2.548-.08-3.8-0.08h-2.45c-0.637,0-.759.1-0.809,0.72l-0.2,2.11a5.415,5.415,0,0,0-.048.65c0,0.31.1,0.4,0.341,0.4a1.864,1.864,0,0,0,.32-0.02,8.757,8.757,0,0,1,1.811-.17c3.381,0,5.975,1.63,5.975,4.91C788.141,4530.2,786.28,4533.33,780.917,4533.33Zm34.828-10.4a0.457,0.457,0,0,0-.539-0.46h-5.118c-0.956,0-1.911.04-2.865,0.04-0.614,0-.59-0.31-0.59-1.24,0-.96-0.024-1.27.59-1.27,0.954,0,1.909.07,2.865,0.07l5.462,0.01a0.607,0.607,0,0,0,.711-0.65c0.048-.74.074-1.51,0.074-2.25v-1.01a18.129,18.129,0,0,0-.072-2.06,0.388,0.388,0,0,1-.026-0.17c0-.33.269-0.38,0.539-0.38,0.418,0,1.861.12,2.3,0.17a0.427,0.427,0,0,1,.465.31,0.379,0.379,0,0,1-.2.27,0.714,0.714,0,0,0-.367.74c-0.048,1.46,0,2.92-.077,4.4a0.579,0.579,0,0,0,.664.63h5.509c0.957,0,1.911-.07,2.892-0.07,0.611,0,.563.33,0.563,1.27,0,0.96.048,1.24-.589,1.24-0.955,0-1.909-.05-2.866-0.05h-5.266a0.434,0.434,0,0,0-.489.39c0,0.09.024,0.14,0.024,0.21a17.776,17.776,0,0,0,8.423,9.42,0.64,0.64,0,0,1,.465.55c0,0.5-.885,1.82-1.448,1.82a9.644,9.644,0,0,1-2.4-1.37,19.431,19.431,0,0,1-6.464-7.64,0.265,0.265,0,0,0-.246-0.17,0.378,0.378,0,0,0-.269.19,17.5,17.5,0,0,1-8.554,8.65,0.279,0.279,0,0,1-.121.04,2.062,2.062,0,0,1-.857.29c-0.613,0-1.248-1.6-1.248-1.99a0.725,0.725,0,0,1,.539-0.55,1.262,1.262,0,0,0,.172-0.07c4.14-1.87,7.227-4.72,8.4-9.15v-0.16Zm26.7,0.51a0.4,0.4,0,0,0,.39.45,0.85,0.85,0,0,0,.221-0.04,5.168,5.168,0,0,1,1.153-.48c0.589,0,.759,1.05.759,1.48,0,0.63-.27.75-1.3,1.2a6.724,6.724,0,0,0-.66.29,0.837,0.837,0,0,0-.564.91l0,3.59c0,1.13.074,2.25,0.072,3.38,0,0.72-.27.74-1.322,0.74-1,0-1.274-.02-1.274-0.72,0-1.15.076-2.27,0.076-3.4l0-2.59a0.443,0.443,0,0,0-.417-0.48,5.46,5.46,0,0,0-.931.31c-0.954.36-1.1,0.43-1.252,0.82a0.363,0.363,0,0,1-.294.33c-0.293,0-.439-0.48-0.659-1.24a11.775,11.775,0,0,1-.391-1.37,0.63,0.63,0,0,1,.661-0.45,23.676,23.676,0,0,0,2.67-.84,0.776,0.776,0,0,0,.613-0.89l0-3.3a0.584,0.584,0,0,0-.687-0.67h-0.243a0.634,0.634,0,0,0-.761.62c-0.27,1.44-.172,1.8-0.931,1.8-0.367,0-1.493-.15-1.493-0.63,0-.09.121-0.57,0.147-0.69a23.728,23.728,0,0,0,.711-5.41c0-.32-0.023-0.65.394-0.65,0.17,0,.759.1,0.954,0.12,0.637,0.07,1.127.1,1.127,0.38a0.362,0.362,0,0,1-.2.29c-0.27.19-.27,0.24-0.294,0.79,0,0.17,0,.36-0.023.62a0.444,0.444,0,0,0,.513.55h0.195a0.487,0.487,0,0,0,.59-0.55v-1.46a19.8,19.8,0,0,0-.1-2.11c0-.09-0.027-0.16-0.027-0.24a0.36,0.36,0,0,1,.442-0.31c0.27,0,2.205.15,2.4,0.17a0.278,0.278,0,0,1,.294.27,0.474,0.474,0,0,1-.294.33,2.2,2.2,0,0,0-.269,1.53v1.7a0.575,0.575,0,0,0,.637.68c0.391-.03.954-0.05,1.3-0.05,0.589,0,.561.29,0.561,1.17,0,0.82.026,1.13-.54,1.13-0.293,0-.954-0.03-1.3-0.05a0.581,0.581,0,0,0-.661.67v2.3Zm10.167-7.02,1.152,0.01c0.735,0,1.494-.05,2.205-0.05,0.637,0,.611.31,0.611,1.08,0,0.74.024,1.08-.589,1.07-0.759,0-1.494-.04-2.229-0.04l-1.152-.01a0.582,0.582,0,0,0-.685.68v0.98a0.575,0.575,0,0,0,.685.67h1.961c0.807,0,1.616-.05,2.448-0.05,0.59,0,.563.34,0.563,1.1s0.027,1.11-.563,1.11c-0.832,0-1.641-.05-2.448-0.05l-7.153-.01c-0.809,0-1.616.05-2.448,0.05-0.589,0-.566-0.34-0.566-1.1,0-.82-0.023-1.1.59-1.1,0.808,0,1.615.05,2.424,0.05h1.348a0.575,0.575,0,0,0,.685-0.67v-0.99a0.578,0.578,0,0,0-.685-0.67h-0.394c-0.732,0-1.467.05-2.228,0.05-0.611,0-.585-0.34-0.585-1.08s-0.024-1.08.587-1.08c0.761,0,1.5.05,2.229,0.05h0.393a0.566,0.566,0,0,0,.685-0.64,9.306,9.306,0,0,0-.074-1.65,0.72,0.72,0,0,1-.024-0.22c0-.29.2-0.34,0.442-0.34,0.489,0,1.689.08,2.228,0.12,0.172,0,.489.03,0.489,0.27a0.5,0.5,0,0,1-.317.38,1.939,1.939,0,0,0-.27,1.49A0.57,0.57,0,0,0,852.607,4516.42Zm2.4,8.92c0.565,0.02,1.128-.05,1.716-0.05,0.613,0,.587.31,0.587,1.15s0,1.13-.587,1.13c-0.564-.01-1.127-0.08-1.666-0.05a0.566,0.566,0,0,0-.661.67l0,2.63c0,3.02.218,4.12-3.922,4.12-0.783,0-1.029-.07-1.224-0.6a4.147,4.147,0,0,1-.244-1.36,0.435,0.435,0,0,1,.491-0.51,1.943,1.943,0,0,1,.416.03c0.269,0.02.563,0.04,0.808,0.04,1.349,0,1.275-.43,1.275-1.65l0-2.7a0.582,0.582,0,0,0-.687-0.68h-3.453c-0.785,0-1.568.05-2.353,0.05-0.61,0-.586-0.34-0.586-1.13,0-.81-0.024-1.15.586-1.15,0.785,0,1.568.05,2.353,0.05l3.453,0.01a0.574,0.574,0,0,0,.687-0.63c0-.21-0.05-0.74-0.074-0.96,0-.07-0.024-0.16-0.024-0.23a0.352,0.352,0,0,1,.443-0.32c0.466,0,1.468.1,1.959,0.15,0.2,0.02.661,0.05,0.659,0.33a0.523,0.523,0,0,1-.293.34,0.73,0.73,0,0,0-.27.69A0.56,0.56,0,0,0,855,4525.34Zm-7.031,6.92a1.472,1.472,0,0,1-.857-0.87c-0.27-.4-0.637-0.98-1.224-1.74a0.882,0.882,0,0,1-.27-0.53,2.154,2.154,0,0,1,1.544-1.2c0.394,0,1.126,1.1,1.37,1.44a5.536,5.536,0,0,1,1,1.7A1.939,1.939,0,0,1,847.972,4532.26Zm21.407-9.15,0-6.08c0-.62-0.05-1.17-0.05-1.68a0.966,0.966,0,0,1,1.2-1.07c0.613,0,1.227.05,1.864,0.05h9.453c0.711,0,1.422-.05,2.131-0.05,0.539,0,.539.19,0.539,1.03,0,0.82,0,1.03-.539,1.03-0.709,0-1.42-.05-2.131-0.05h-9.332a0.5,0.5,0,0,0-.587.55v0.12a0.511,0.511,0,0,0,.587.58h7.006c0.906,0,1.813-.05,2.717-0.05,0.492,0,.516.19,0.514,0.98,0,0.77-.024.96-0.516,0.96-0.9,0-1.811-.05-2.718-0.05h-7a0.5,0.5,0,0,0-.587.55v0.14a0.5,0.5,0,0,0,.587.56h7.1c0.857,0,1.716-.05,2.6-0.05,0.515,0,.515.22,0.515,0.98s0,0.96-.515.96c-0.881,0-1.74-.05-2.6-0.05h-7.1a0.5,0.5,0,0,0-.587.57v0.17a0.5,0.5,0,0,0,.585.58h10.949c0.979,0,1.959-.05,2.964-0.05,0.563,0,.563.27,0.563,1.08s0,1.08-.563,1.08c-0.98,0-1.985-.05-2.964-0.05h-4.7a0.385,0.385,0,0,0-.442.33,0.326,0.326,0,0,0,.074.22,10.005,10.005,0,0,0,1.224,1.75,0.636,0.636,0,0,0,.489.26,0.843,0.843,0,0,0,.466-0.19,23.972,23.972,0,0,0,1.985-1.82,0.941,0.941,0,0,1,.465-0.36,6.849,6.849,0,0,1,2.057,1.87,0.247,0.247,0,0,1-.244.26,0.726,0.726,0,0,1-.171-0.04,0.857,0.857,0,0,0-.27-0.05,0.424,0.424,0,0,0-.246.09c-0.293.19-.663,0.51-0.956,0.72-0.368.26-.759,0.55-1.153,0.82a0.508,0.508,0,0,0-.2.36,0.442,0.442,0,0,0,.171.33,20.242,20.242,0,0,0,4.434,2.35,0.689,0.689,0,0,1,.563.48c0,0.48-.883,1.82-1.422,1.82-0.687,0-3.5-1.58-4.188-2.04a15.223,15.223,0,0,1-5.7-6.56,0.781,0.781,0,0,0-.883-0.6h-2.2a0.583,0.583,0,0,0-.685.67l0,4.12a0.493,0.493,0,0,0,.489.57c0.074,0,.122-0.02.172-0.02,1.4-.27,4.163-0.84,4.311-0.84,0.537,0,.489.72,0.489,1.25a0.787,0.787,0,0,1-.808,1,77.548,77.548,0,0,1-8.575,1.65,0.686,0.686,0,0,0-.759.43,0.332,0.332,0,0,1-.32.24c-0.27,0-.317-0.24-0.489-0.84-0.024-.12-0.072-0.28-0.12-0.45a12.28,12.28,0,0,1-.269-1.22c0-.32.245-0.36,1.15-0.43,0.393-.05.907-0.05,1.544-0.17a0.692,0.692,0,0,0,.637-0.77l0-4.52a0.59,0.59,0,0,0-.685-0.68c-0.907-.02-1.789.05-2.7,0.05-0.563,0-.563-0.26-0.563-1.08s0-1.07.563-1.07c0.907,0,1.789.07,2.7,0.04A0.593,0.593,0,0,0,869.379,4523.11Z" transform="translate(-603 -4509.91)"/>
</svg>
