<svg xmlns="http://www.w3.org/2000/svg" width="255.438" height="18.06" viewBox="0 0 255.438 18.06">
  <defs>
    <style>
      .cls-1 {
        fill: #231815;
        fill-rule: evenodd;
      }
    </style>
  </defs>
  <path id="華やかな部分だけではない" class="cls-1" d="M640.556,4652.05a0.477,0.477,0,0,1,.54-0.54h2.241a0.477,0.477,0,0,1,.54.54v0.22a0.448,0.448,0,0,1-.48.5h-2.381a0.417,0.417,0,0,1-.46-0.5v-0.22Zm3.161,6.82a0.572,0.572,0,0,1-.56-0.56v-0.32a0.53,0.53,0,0,1,.56-0.54h0.96a0.53,0.53,0,0,1,.56.54v0.32a0.572,0.572,0,0,1-.56.56h-0.96Zm-4.1,0a0.535,0.535,0,0,1-.56-0.56v-0.32a0.5,0.5,0,0,1,.56-0.54h0.96a0.53,0.53,0,0,1,.56.54v0.32a0.572,0.572,0,0,1-.56.56h-0.96Zm3.541-3.86a0.572,0.572,0,0,1,.56-0.56h0.96a0.572,0.572,0,0,1,.56.56v0.22a0.53,0.53,0,0,1-.56.54h-0.96a0.53,0.53,0,0,1-.56-0.54v-0.22Zm-4.1,0a0.535,0.535,0,0,1,.56-0.56h0.96a0.572,0.572,0,0,1,.56.56v0.22a0.53,0.53,0,0,1-.56.54h-0.96a0.5,0.5,0,0,1-.56-0.54v-0.22Zm-1.4-2.24c-0.761,0-1.541-.04-2.321-0.04-0.46,0-.44.22-0.44,0.9,0,0.64-.02.88,0.44,0.88,0.42,0,.82-0.02,1.22-0.04a0.478,0.478,0,0,1,.541.54v0.22a0.47,0.47,0,0,1-.561.54h-0.28c-0.8,0-1.62-.04-2.42-0.04-0.46,0-.46.24-0.46,0.88,0,0.68,0,.88.46,0.88,0.82,0,1.62-.04,2.42-0.04h0.28a0.47,0.47,0,0,1,.561.54v0.32a0.477,0.477,0,0,1-.541.56c-0.52.02-1.04-.04-1.56-0.04-0.44,0-.46.22-0.46,0.86,0,0.68.02,0.86,0.48,0.86,0.76,0,1.52-.04,2.281-0.04h3.36a0.41,0.41,0,0,1,.48.48v0.2a0.41,0.41,0,0,1-.48.48H636.7c-0.82,0-1.62-.04-2.42-0.04-0.44,0-.44.22-0.44,0.9s0,0.9.44,0.9c0.8,0,1.6-.04,2.42-0.04h3.881a0.456,0.456,0,0,1,.54.52c0,0.54-.02,1.1-0.02,1.64,0,0.64.2,0.66,1.061,0.66s1.06-.02,1.06-0.66c0-.54-0.02-1.1-0.04-1.64a0.463,0.463,0,0,1,.54-0.52h3.861c0.8,0,1.6.04,2.4,0.04,0.46,0,.46-0.2.46-0.9s0-.9-0.46-0.9c-0.8,0-1.6.04-2.4,0.04h-3.941a0.41,0.41,0,0,1-.48-0.48v-0.2a0.41,0.41,0,0,1,.48-0.48h3.421c0.78,0,1.54.04,2.3,0.04,0.46,0,.46-0.22.46-0.86s0.02-.86-0.46-0.86c-0.54,0-1.1.06-1.66,0.04a0.465,0.465,0,0,1-.5-0.56v-0.32a0.469,0.469,0,0,1,.56-0.54h0.4c0.82,0,1.62.04,2.44,0.04,0.44,0,.44-0.24.44-0.88s0.02-.88-0.44-0.88c-0.82,0-1.62.04-2.44,0.04h-0.4a0.469,0.469,0,0,1-.56-0.54v-0.22a0.462,0.462,0,0,1,.54-0.54c0.42,0.02.86,0.04,1.28,0.04,0.46,0,.48-0.2.48-0.88s0-.9-0.46-0.9c-0.78,0-1.56.04-2.32,0.04h-0.24a0.425,0.425,0,0,1-.461-0.5c0-.08-0.02-0.14-0.02-0.22a0.477,0.477,0,0,1,.541-0.54h1.36c0.8,0,1.58.06,2.38,0.06,0.48,0,.46-0.2.46-0.92,0-.74.02-0.96-0.46-0.96-0.8,0-1.58.06-2.38,0.06h-1.36a0.455,0.455,0,0,1-.541-0.46v-0.06a0.4,0.4,0,0,1,.22-0.4,0.347,0.347,0,0,0,.22-0.24c0-.2-0.34-0.2-0.48-0.22-0.38-.04-1.44-0.12-1.78-0.12-0.16,0-.36.02-0.36,0.24,0,0.04.02,0.12,0.02,0.16a2.813,2.813,0,0,1,.06.56,0.47,0.47,0,0,1-.54.54h-2.281a0.547,0.547,0,0,1-.3-1,0.341,0.341,0,0,0,.22-0.22c0-.18-0.24-0.2-0.36-0.22-0.34-.04-1.6-0.12-1.9-0.12-0.16,0-.36,0-0.36.22a0.39,0.39,0,0,0,.02.16,3.633,3.633,0,0,1,.06.64,0.484,0.484,0,0,1-.56.54h-1.4c-0.78,0-1.56-.06-2.36-0.06-0.48,0-.46.2-0.46,0.92,0,0.76-.02.96,0.46,0.96,0.78,0,1.58-.06,2.36-0.06h1.4a0.486,0.486,0,0,1,.54.54c0,0.08-.02.16-0.02,0.22-0.04.32-.1,0.5-0.44,0.5h-0.32Zm24.48-2.9c-0.44,0-.9,1.4-0.9,1.62a0.462,0.462,0,0,0,.48.38,15.558,15.558,0,0,1,2.121.72,2.755,2.755,0,0,0,.84.28c0.52,0,.92-1.28.92-1.48,0-.32-0.78-0.6-1.18-0.76A16.928,16.928,0,0,0,662.136,4649.87Zm-4.761,10.06a1.244,1.244,0,0,0,.38-0.22,10.357,10.357,0,0,1,2.141-1.56,0.591,0.591,0,0,1,.48.38c1,1.98,2.08,3.88,3.1,5.84a1,1,0,0,0,.621.74c0.38,0,1.76-.7,1.76-1.08a2.7,2.7,0,0,0-.44-0.86c-0.5-.78-3.521-5.7-3.521-6.24a0.634,0.634,0,0,1,.4-0.5c1.4-.84,3.621-2.1,5.241-2.1a1.614,1.614,0,0,1,1.841,1.6c0,1.74-2.4,2.38-3.781,2.62-0.26.04-.64,0.06-0.64,0.4,0,0.28.54,1.64,1.06,1.64a5.324,5.324,0,0,0,.78-0.14c2.3-.58,4.721-1.86,4.721-4.56,0-2.3-1.66-3.5-3.841-3.5a12.353,12.353,0,0,0-6.161,2.2,1,1,0,0,1-.48.18,0.53,0.53,0,0,1-.48-0.38,12.081,12.081,0,0,1-.8-1.98,0.377,0.377,0,0,1,.04-0.16,0.851,0.851,0,0,0,.04-0.22,0.2,0.2,0,0,0-.24-0.2,3.076,3.076,0,0,0-.66.2c-0.281.1-.541,0.2-0.761,0.28a1.424,1.424,0,0,0-.96.52,0.594,0.594,0,0,0,.2.38,11.029,11.029,0,0,1,1.5,2.7,0.829,0.829,0,0,1-.5.62c-0.48.32-1.44,1-1.88,1.22a0.557,0.557,0,0,0-.42.42A2.98,2.98,0,0,0,657.375,4659.93Zm33.243-8.58a2.377,2.377,0,0,0-1.521,1.06,0.518,0.518,0,0,0,.18.34,13.879,13.879,0,0,1,2.681,4.28,0.6,0.6,0,0,0,.46.46c0.4,0,1.66-.74,1.66-1.18C694.078,4655.81,691.358,4651.35,690.618,4651.35Zm-7.262-1.98c-0.22,0-.22.24-0.22,0.4,0,0.24.02,0.46,0.02,0.68a18.441,18.441,0,0,1-.2,2.58,0.642,0.642,0,0,1-.66.6,31.3,31.3,0,0,1-3.321.62c-0.26.02-.6,0.02-0.6,0.32,0,0.1.34,2.06,0.84,2.06a1.66,1.66,0,0,0,.42-0.12,16.332,16.332,0,0,1,2.281-.7,0.242,0.242,0,0,1,.26.26,10.975,10.975,0,0,1-.5,1.5,16.417,16.417,0,0,1-3.561,5.58,0.748,0.748,0,0,0-.28.46c0,0.46,1.28,1.22,1.62,1.22a0.549,0.549,0,0,0,.36-0.2,23.006,23.006,0,0,0,2-2.88,23.655,23.655,0,0,0,2.54-5.94c0.14-.56.34-0.72,1.481-0.72,1.2,0,1.26.82,1.26,1.82a12.046,12.046,0,0,1-.88,4.52,1.917,1.917,0,0,1-2.081,1.22c-0.4,0-.74-0.06-0.94-0.06s-0.26.14-.26,0.34a4.34,4.34,0,0,0,.34,1.42,0.846,0.846,0,0,0,.92.48,4.088,4.088,0,0,0,3.781-2.16,14.511,14.511,0,0,0,1.2-6.14,3.205,3.205,0,0,0-1.22-2.9,3.919,3.919,0,0,0-2.28-.46c-0.08,0-.16.02-0.24,0.02a0.4,0.4,0,0,1-.44-0.42,0.849,0.849,0,0,1,.039-0.22c0.061-.34.1-0.62,0.141-0.86a1.686,1.686,0,0,1,.54-1.3,0.3,0.3,0,0,0,.16-0.24,0.538,0.538,0,0,0-.5-0.32C685.077,4649.75,683.556,4649.37,683.356,4649.37Zm24.281,12.68c1,0,1.02.22,1.02,0.62a0.934,0.934,0,0,1-1.04,1.08,1.237,1.237,0,0,1-1.321-.94C706.3,4662.17,707.157,4662.05,707.637,4662.05Zm0.98-7.06a0.4,0.4,0,0,0-.48.44c0,0.1.02,0.18,0.02,0.28,0.06,0.78.36,3.68,0.36,4.32a0.351,0.351,0,0,1-.42.34h-0.52c-1.581,0-3.321.64-3.321,2.48,0,1.86,1.9,2.72,3.521,2.72,1.36,0,2.54-.5,2.78-1.96a0.441,0.441,0,0,1,.32-0.46,5.692,5.692,0,0,1,1.6.92,1.02,1.02,0,0,0,.52.28,2.188,2.188,0,0,0,1.24-1.46c0-.48-2.36-1.58-2.821-1.76-0.06-.02-0.14-0.06-0.2-0.08a0.779,0.779,0,0,1-.62-0.5c-0.1-.42-0.2-3.3-0.2-3.88,0-.42.04-1.02,0.04-1.06a0.449,0.449,0,0,0-.4-0.42A8.374,8.374,0,0,0,708.617,4654.99Zm3.061-3.08a2.573,2.573,0,0,0-1.341,1.38,0.524,0.524,0,0,0,.26.32,11.317,11.317,0,0,1,2.5,2.58,0.66,0.66,0,0,0,.44.36,2.431,2.431,0,0,0,1.5-1.38C715.038,4654.65,712.178,4651.91,711.678,4651.91Zm-6.722-3.26c-0.18,0-.18.2-0.18,0.34a12.209,12.209,0,0,1-.64,3.36,0.684,0.684,0,0,1-.6.32,17.776,17.776,0,0,1-2.061.1h-0.92a0.291,0.291,0,0,0-.36.32c0,0.2.1,0.92,0.14,1.16,0.08,0.46.16,0.64,0.5,0.64,0.46,0,2-.2,2.161-0.2a0.269,0.269,0,0,1,.28.26,7.819,7.819,0,0,1-.46,1.22,37.351,37.351,0,0,1-2.381,4.62,2.213,2.213,0,0,0-.36.72c0,0.42,1.34,1,1.78,1a0.4,0.4,0,0,0,.4-0.28,50.781,50.781,0,0,0,3.261-7.12c0.24-.66.22-0.8,0.94-0.92,1.841-.34,2.081-0.38,2.081-0.82a9.5,9.5,0,0,0-.1-1.06c-0.04-.24-0.06-0.6-0.3-0.6a0.711,0.711,0,0,0-.2.04,9.642,9.642,0,0,1-1.141.3,0.233,0.233,0,0,1-.22-0.26,6.484,6.484,0,0,1,.22-0.9,3.517,3.517,0,0,1,.361-1.06,0.582,0.582,0,0,0,.32-0.36,0.407,0.407,0,0,0-.32-0.24C706.837,4649.13,705.176,4648.65,704.956,4648.65Zm29.862,2.28c0.16,0,.5,0,0.5.24a0.706,0.706,0,0,1-.06.28c-0.4.96-.96,2.42-1.38,3.3a2.11,2.11,0,0,0-.12.48,1.186,1.186,0,0,0,.28.6,7.656,7.656,0,0,1,1.72,4.08c0,0.84-.18,1.5-1.16,1.5-0.28,0-.54-0.04-0.82-0.04a0.37,0.37,0,0,0-.44.42,2.616,2.616,0,0,0,.44,1.46,1.591,1.591,0,0,0,.92.18c2.22,0,3.14-1,3.14-3.22a7.329,7.329,0,0,0-1.74-4.6,1.277,1.277,0,0,1-.3-0.56,1.394,1.394,0,0,1,.12-0.38,26.724,26.724,0,0,0,1.92-4.54,1.328,1.328,0,0,0-1.36-1.1c-0.4,0-.82.04-1.24,0.04h-1.46c-0.54,0-1.081-.04-1.6-0.04-0.74,0-1.18.18-1.18,1,0,0.58.02,1.16,0.02,1.72v10.94c0,0.98-.04,1.94-0.04,2.92,0,0.64.26,0.64,1.06,0.64,0.88,0,1.08,0,1.08-.64,0-.98-0.06-1.94-0.06-2.92v-11.22a0.477,0.477,0,0,1,.561-0.54h1.2Zm-10.983,12.32a0.51,0.51,0,0,1-.56-0.54v-1.46a0.51,0.51,0,0,1,.56-0.54h2.7a0.53,0.53,0,0,1,.56.54v1.46a0.53,0.53,0,0,1-.56.54h-2.7Zm3.221,2.1c-0.02.58,0.1,0.58,0.94,0.58,0.721,0,1,.02,1-0.42,0-.28-0.04-0.94-0.04-1.36v-3.2c0-.42.04-0.82,0.04-1.24,0-.72-0.521-0.86-1.141-0.86-0.42,0-.86.04-1.28,0.04H723.8c-0.441,0-.881-0.04-1.3-0.04-0.64,0-1.14.14-1.14,0.86,0,0.42.02,0.82,0.02,1.24v3.44c0,0.46-.04.92-0.04,1.38,0,0.42.3,0.42,0.96,0.42,0.8,0,1.02,0,1.02-.44,0-.1-0.02-0.2-0.02-0.32a0.39,0.39,0,0,1,.46-0.44H726.7A0.311,0.311,0,0,1,727.056,4665.35Zm-3.481-9.72a0.081,0.081,0,0,1-.1-0.08,0.11,0.11,0,0,1,.06-0.1,0.8,0.8,0,0,0,.621-0.52,5.076,5.076,0,0,0-.4-1.12c-0.04-.08-0.059-0.14-0.08-0.18-0.32-.74-0.48-1.24-0.84-1.24-0.18,0-1.36.36-1.36,0.78a0.98,0.98,0,0,0,.14.38,16.826,16.826,0,0,1,.7,1.64c0,0.06.02,0.1,0.02,0.16a0.262,0.262,0,0,1-.28.28c-0.48,0-.96-0.04-1.44-0.04s-0.46.2-.46,0.94c0,0.72,0,.92.46,0.92,0.7,0,1.38-.06,2.06-0.06h5.081c0.68,0,1.381.06,2.061,0.06,0.46,0,.46-0.22.46-0.92,0-.72.02-0.94-0.46-0.94-0.52,0-1.04.04-1.561,0.04a0.278,0.278,0,0,1-.3-0.28,0.584,0.584,0,0,1,.04-0.18c0.22-.46.44-0.92,0.681-1.38a0.312,0.312,0,0,1,.3-0.16c0.18-.02.36-0.02,0.36-0.24a1.139,1.139,0,0,0-.82-0.52,7.765,7.765,0,0,0-1.181-.48,0.364,0.364,0,0,0-.28.32c-0.34.88-.66,1.62-1.06,2.48a0.752,0.752,0,0,1-.8.44h-1.621Zm2.641-5.72a0.868,0.868,0,0,1,.24-0.88,0.4,0.4,0,0,0,.24-0.3c0-.24-0.36-0.26-0.58-0.28a14,14,0,0,0-1.58-.12,0.272,0.272,0,0,0-.34.28v0.2a6.787,6.787,0,0,1,.08,1.1,0.478,0.478,0,0,1-.561.52H723.2c-0.66,0-1.32-.04-2-0.04-0.46,0-.44.22-0.44,0.94,0,0.76-.02.94,0.46,0.94,0.66,0,1.32-.04,1.98-0.04h4.241c0.66,0,1.321.04,2,.04,0.46,0,.44-0.22.44-0.94,0-.7.04-0.94-0.44-0.94-0.66,0-1.341.04-2,.04h-0.66A0.463,0.463,0,0,1,726.216,4649.91Zm26.3,0.96c0.5,0,.58,0,0.94.72a17.444,17.444,0,0,0,3.541,4.88,1.8,1.8,0,0,0,.2.18,2.906,2.906,0,0,0,1.22.84,1.977,1.977,0,0,0,1.28-1.34,0.921,0.921,0,0,0-.42-0.54,13.944,13.944,0,0,1-4.5-5.7c-0.24-.56-0.3-0.96-1.02-0.96-0.3,0-.6.02-0.9,0.02h-0.94c-0.52,0-1.04-.04-1.56-0.04-0.541,0-.541.16-0.541,1,0,0.76,0,.98.52,0.98s1.061-.04,1.581-0.04h0.6Zm-3.981,7.16a7.769,7.769,0,0,1-1.14,3.24,9.4,9.4,0,0,1-3.941,2.92,0.732,0.732,0,0,0-.58.48,1.841,1.841,0,0,0,1.26,1.38,8.109,8.109,0,0,0,2.141-1.04,9.013,9.013,0,0,0,4.3-7,0.5,0.5,0,0,1,.6-0.5h2.2c0.64,0,.84.04,0.84,0.58a24.043,24.043,0,0,1-.54,5.12c-0.24.74-.54,0.92-1.76,0.92-0.38,0-.76-0.06-1.14-0.06s-0.441.22-.441,0.66c0,1.38.2,1.48,1.5,1.48,1.58,0,3.14-.16,3.7-1.88a32.977,32.977,0,0,0,.8-7.48c0-1.08-.26-1.36-1.34-1.36-0.641,0-1.281.02-1.941,0.02h-5.141c-0.62,0-1.24-.02-1.84-0.04a0.246,0.246,0,0,1-.26-0.22,0.382,0.382,0,0,1,.06-0.16,17.188,17.188,0,0,0,2.58-4.26,0.612,0.612,0,0,1,.44-0.54,0.375,0.375,0,0,0,.36-0.24,0.927,0.927,0,0,0-.52-0.46l-0.12-.06a11.752,11.752,0,0,0-1.34-.66,0.394,0.394,0,0,0-.34.4,15.473,15.473,0,0,1-4.961,6.92,0.586,0.586,0,0,0-.28.38,1.941,1.941,0,0,0,1.34,1.14c0.42,0,1.58-1.24,1.9-1.58a0.266,0.266,0,0,1,.16-0.06,0.191,0.191,0,0,1,.18.22v0.48c0,0.62.04,0.78,0.5,0.78,0.721,0,1.441-.04,2.141-0.04h0.12a0.414,0.414,0,0,1,.5.42v0.1Zm23.36,3.52a2.919,2.919,0,0,0-1.24,1.48,2.088,2.088,0,0,0,.98,1.14,8.48,8.48,0,0,0,4.281.9,19.126,19.126,0,0,0,3.121-.26,1.234,1.234,0,0,0,.22-1c0-.8,0-1.26-0.34-1.26a0.711,0.711,0,0,0-.2.04,9.036,9.036,0,0,1-2.841.4,4.839,4.839,0,0,1-3.62-1.16A0.619,0.619,0,0,0,771.9,4661.55Zm1.5-4.58c0,0.34.1,0.44,0.5,0.44,0.26,0,.5-0.02.76-0.02a8.556,8.556,0,0,1,3.181.5,1.6,1.6,0,0,0,.42.1,0.345,0.345,0,0,0,.36-0.26,5.024,5.024,0,0,0,.38-1.4,0.377,0.377,0,0,0-.28-0.4,14.355,14.355,0,0,0-4.021-.56C773.757,4655.37,773.4,4655.25,773.4,4656.97Zm5.641-8.24a1.673,1.673,0,0,0-.98.82,0.445,0.445,0,0,0,.16.26,17.178,17.178,0,0,1,1.38,1.6,0.5,0.5,0,0,0,.3.24,1.611,1.611,0,0,0,.98-0.9A7.735,7.735,0,0,0,779.038,4648.73Zm-8.262-.28c-0.2,0-.2.2-0.22,0.5a18.324,18.324,0,0,1-.74,3.64c-0.18.3-.48,0.32-1.76,0.32-0.861,0-1.7-.08-1.881-0.08a0.286,0.286,0,0,0-.3.36,8.586,8.586,0,0,0,.16,1.46c0.12,0.38.44,0.36,0.84,0.36,0.621,0,1.5-.1,1.781-0.1a0.312,0.312,0,0,1,.36.3,3.051,3.051,0,0,1-.16.52,39.385,39.385,0,0,1-3.541,7.4,1.493,1.493,0,0,0-.34.66c0,0.44,1.38,1.08,1.7,1.08a1.039,1.039,0,0,0,.721-0.76,62.31,62.31,0,0,0,3.72-8.82,0.83,0.83,0,0,1,.821-0.78,30.1,30.1,0,0,0,3.28-.78,0.612,0.612,0,0,0,.38-0.72c0-.3,0-1.52-0.4-1.52a1.075,1.075,0,0,0-.42.1,14.107,14.107,0,0,1-2.32.74,0.3,0.3,0,0,1-.3-0.3c0-.1.42-1.56,0.48-1.78a0.888,0.888,0,0,1,.46-0.7,0.3,0.3,0,0,0,.18-0.2,1.1,1.1,0,0,0-.74-0.42C772.277,4648.85,770.956,4648.45,770.776,4648.45Zm6.182,1.56a1.753,1.753,0,0,0-.981.8,0.526,0.526,0,0,0,.18.28,17.456,17.456,0,0,1,1.381,1.6,0.427,0.427,0,0,0,.28.22,1.579,1.579,0,0,0,.98-0.88A7.735,7.735,0,0,0,776.958,4650.01Zm19.279,0.14a0.9,0.9,0,0,0,.02.24,24.142,24.142,0,0,1,.5,3.28,0.537,0.537,0,0,1-.42.54c-0.46.1-2.5,0.26-3.061,0.3-0.88.04-.96,0.04-0.96,0.82,0,1.26.32,1.3,0.58,1.3a4.171,4.171,0,0,0,.7-0.08c0.361-.06,2.7-0.42,2.861-0.42,0.46,0,.5.4,0.5,1.02v0.42c0,2.84-.66,4.66-2.86,6.5a0.329,0.329,0,0,0-.16.3,2.635,2.635,0,0,0,1.46,1.32,3.31,3.31,0,0,0,1.42-1.22,9.819,9.819,0,0,0,2.2-6.54c0-.52-0.02-1.06-0.02-1.6,0-.7.58-0.68,1.3-0.76,1.04-.14,1.26-0.16,1.26-0.66,0-.34-0.02-1.56-0.46-1.56a1.544,1.544,0,0,0-.3.04c-0.22.06-1.32,0.3-1.48,0.3a0.5,0.5,0,0,1-.46-0.58c-0.02-.62-0.1-1.24-0.1-1.86a2.134,2.134,0,0,1,.3-0.98,0.282,0.282,0,0,0-.28-0.2c-0.6-.1-1.221-0.08-1.841-0.14-0.1,0-.24-0.04-0.34-0.04A0.3,0.3,0,0,0,796.237,4650.15Zm-5.921.68c-0.22-.08-1.681-0.6-1.781-0.6-0.24,0-.26.3-0.3,0.48a4.582,4.582,0,0,1-.14.56,23.626,23.626,0,0,0-1.02,6.56,13.022,13.022,0,0,0,1.42,6.32,0.834,0.834,0,0,0,.7.62c0.18,0,1.52-.28,1.52-1.06,0-.32-0.02-0.64-0.02-0.94a18.581,18.581,0,0,1,.74-3.5,1.241,1.241,0,0,0-.84-0.6,1.4,1.4,0,0,0-.56.94,2.132,2.132,0,0,1-.44.88c-0.38,0-.52-2.32-0.52-2.7a16.31,16.31,0,0,1,1.08-5.62,1.148,1.148,0,0,1,.64-0.72,0.278,0.278,0,0,0,.2-0.22C791,4651.01,790.716,4650.95,790.316,4650.83Zm17.559,1.6a8.959,8.959,0,0,0,.22,1.44,0.743,0.743,0,0,0,.44.66,1.544,1.544,0,0,0,.3-0.04c1.28-.34,3.081-0.62,4.421-0.82,0.2-.02,1.12-0.18,1.26-0.18a0.259,0.259,0,0,1,.3.24,1.081,1.081,0,0,1-.34.48,8.883,8.883,0,0,0-2.2,5.74c0,3.9,2.921,4.98,6.321,4.98a0.555,0.555,0,0,0,.64-0.34,5.66,5.66,0,0,0,.3-1.64c0-.32-0.16-0.34-0.46-0.34-0.22,0-.66.02-1,0.02-2.04,0-3.521-.56-3.521-2.88a7.488,7.488,0,0,1,.96-3.52,6.083,6.083,0,0,1,3.4-2.98,9.913,9.913,0,0,1,3.321-.42c0.48-.02.9,0.02,0.9-0.42a9.1,9.1,0,0,0-.18-1.46c-0.04-.24-0.08-0.5-0.38-0.5a1.14,1.14,0,0,0-.26.02c-1.5.24-3.021,0.44-4.541,0.62-2.9.34-5.821,0.64-8.742,0.82C808.155,4651.97,807.875,4651.91,807.875,4652.43ZM823,4653.59a1.668,1.668,0,0,0-1.02.76,0.478,0.478,0,0,0,.14.26,16.923,16.923,0,0,1,1.3,1.66,0.478,0.478,0,0,0,.3.26,1.649,1.649,0,0,0,1.021-.84A8.131,8.131,0,0,0,823,4653.59Zm-2.42,1.1a1.7,1.7,0,0,0-1.021.74,0.526,0.526,0,0,0,.18.28c0.441,0.54.881,1.1,1.281,1.68a0.415,0.415,0,0,0,.28.24,1.636,1.636,0,0,0,1.02-.84A7.746,7.746,0,0,0,820.578,4654.69Zm19.539,7.12a1.044,1.044,0,0,1-1.26,1.1c-0.5,0-1.46-.22-1.46-0.86,0-.62.98-0.78,1.44-0.78C839.217,4661.27,840.117,4661.29,840.117,4661.81Zm-0.4-12.12a0.245,0.245,0,0,0-.28.28c0,0.06.02,0.14,0.02,0.2,0.08,0.5.24,2.44,0.24,2.86,0,0.44-.46.48-0.94,0.48h-0.32c-1.04,0-2.821-.2-3.061-0.2-0.3,0-.32.24-0.32,0.5a4.007,4.007,0,0,0,.2,1.52,4.442,4.442,0,0,0,1.52.16h0.261c0.8,0,2.22-.08,2.38-0.08,0.5,0,.46.56,0.48,0.76,0.02,0.58.12,2.48,0.12,2.98a0.365,0.365,0,0,1-.4.42h-0.14a5.123,5.123,0,0,0-.78-0.06c-1.56,0-3.141.72-3.141,2.52,0,1.84,1.741,2.6,3.341,2.6,1.2,0,2.54-.4,2.9-1.68a0.326,0.326,0,0,1,.3-0.32,5.684,5.684,0,0,1,1.48,1.1,0.915,0.915,0,0,0,.56.3,1.792,1.792,0,0,0,1.16-1.38,1.072,1.072,0,0,0-.52-0.76,11.106,11.106,0,0,0-2.16-1.4,0.809,0.809,0,0,1-.68-0.78c-0.021-.52-0.16-3.58-0.16-3.98,0-.5.24-0.58,0.68-0.64,2.36-.32,2.5-0.46,2.5-0.84,0-.3-0.14-1.68-0.54-1.68a1.594,1.594,0,0,0-.3.06,12.715,12.715,0,0,1-2,.5,0.44,0.44,0,0,1-.42-0.52v-0.56a2.8,2.8,0,0,1,.219-1.42,0.8,0.8,0,0,0,.221-0.4,0.2,0.2,0,0,0-.2-0.18A18.975,18.975,0,0,0,839.717,4649.69Zm-6.361.66a7.574,7.574,0,0,0-1.281-.52,0.328,0.328,0,0,0-.26.34c-0.22.88-.5,1.74-0.72,2.62a22.973,22.973,0,0,0-.7,5.6,14.4,14.4,0,0,0,1.18,6.16,0.894,0.894,0,0,0,.64.66c0.1,0,1.521-.24,1.521-1.02,0-.32-0.04-0.64-0.04-0.96a20.158,20.158,0,0,1,.98-3.64,1.243,1.243,0,0,0-.86-0.64,1.55,1.55,0,0,0-.54.88,1.126,1.126,0,0,1-.44.72c-0.381,0-.44-1.9-0.44-2.22a18.465,18.465,0,0,1,1.1-6.08,1.42,1.42,0,0,1,.82-1.02,0.213,0.213,0,0,0,.18-0.2,0.726,0.726,0,0,0-.52-0.4C833.856,4650.59,833.616,4650.47,833.356,4650.35Zm26.181,11.7c1,0,1.02.22,1.02,0.62a0.934,0.934,0,0,1-1.04,1.08,1.237,1.237,0,0,1-1.321-.94C858.2,4662.17,859.057,4662.05,859.537,4662.05Zm0.98-7.06a0.4,0.4,0,0,0-.48.44c0,0.1.02,0.18,0.02,0.28,0.06,0.78.36,3.68,0.36,4.32a0.351,0.351,0,0,1-.42.34h-0.52c-1.581,0-3.321.64-3.321,2.48,0,1.86,1.9,2.72,3.521,2.72,1.36,0,2.54-.5,2.78-1.96a0.441,0.441,0,0,1,.32-0.46,5.692,5.692,0,0,1,1.6.92,1.02,1.02,0,0,0,.52.28,2.188,2.188,0,0,0,1.24-1.46c0-.48-2.36-1.58-2.821-1.76-0.06-.02-0.14-0.06-0.2-0.08a0.779,0.779,0,0,1-.62-0.5c-0.1-.42-0.2-3.3-0.2-3.88,0-.42.04-1.02,0.04-1.06a0.449,0.449,0,0,0-.4-0.42A8.374,8.374,0,0,0,860.517,4654.99Zm3.06-3.08a2.575,2.575,0,0,0-1.34,1.38,0.524,0.524,0,0,0,.26.32,11.338,11.338,0,0,1,2.5,2.58,0.66,0.66,0,0,0,.44.36,2.431,2.431,0,0,0,1.5-1.38C866.938,4654.65,864.078,4651.91,863.577,4651.91Zm-6.721-3.26c-0.18,0-.18.2-0.18,0.34a12.209,12.209,0,0,1-.64,3.36,0.684,0.684,0,0,1-.6.32,17.776,17.776,0,0,1-2.061.1h-0.92a0.291,0.291,0,0,0-.36.32c0,0.2.1,0.92,0.14,1.16,0.08,0.46.16,0.64,0.5,0.64,0.46,0,2-.2,2.161-0.2a0.269,0.269,0,0,1,.28.26,7.819,7.819,0,0,1-.46,1.22,37.489,37.489,0,0,1-2.381,4.62,2.213,2.213,0,0,0-.36.72c0,0.42,1.34,1,1.78,1a0.4,0.4,0,0,0,.4-0.28,50.89,50.89,0,0,0,3.26-7.12c0.24-.66.22-0.8,0.94-0.92,1.841-.34,2.081-0.38,2.081-0.82a9.5,9.5,0,0,0-.1-1.06c-0.04-.24-0.06-0.6-0.3-0.6a0.711,0.711,0,0,0-.2.04,9.642,9.642,0,0,1-1.141.3,0.233,0.233,0,0,1-.22-0.26,6.63,6.63,0,0,1,.22-0.9,3.49,3.49,0,0,1,.361-1.06,0.582,0.582,0,0,0,.32-0.36,0.407,0.407,0,0,0-.32-0.24C858.737,4649.13,857.076,4648.65,856.856,4648.65Zm26.5,4.58a0.33,0.33,0,0,0,.18.3,7.669,7.669,0,0,1,2.961,5.7c0.04,0.48.02,0.76,0.66,0.76a4.228,4.228,0,0,0,1.12-.18,0.558,0.558,0,0,0,.54-0.58,10.911,10.911,0,0,0-1.18-4.16c-0.96-1.84-2.641-3.1-3.081-3.1A1.933,1.933,0,0,0,883.357,4653.23Zm-9.022-1.3a0.249,0.249,0,0,0-.28.22c-0.04.18-.1,2.72-0.1,3.04a14.432,14.432,0,0,0,1.16,6.52c0.661,1.22,1.821,2.56,3.3,2.56a2.88,2.88,0,0,0,2.141-1.26,5.593,5.593,0,0,0,1.18-1.74,2.22,2.22,0,0,0-1.44-1.18,0.79,0.79,0,0,0-.541.5,2.354,2.354,0,0,1-1.38,1.32c-0.7,0-1.36-1.18-1.6-1.74a11.428,11.428,0,0,1-.64-4.18,14.9,14.9,0,0,1,.16-2.12,1.458,1.458,0,0,1,.36-0.96,0.349,0.349,0,0,0,.2-0.26,0.45,0.45,0,0,0-.44-0.28C876.076,4652.31,874.6,4651.93,874.335,4651.93Z" transform="translate(-633.375 -4648.19)"/>
</svg>
