<svg xmlns="http://www.w3.org/2000/svg" width="321.719" height="18.09" viewBox="0 0 321.719 18.09">
  <defs>
    <style>
      .cls-1 {
        fill: #231815;
        fill-rule: evenodd;
      }
    </style>
  </defs>
  <path id="飛行機を飛ばす為に不可欠な存在" class="cls-1" d="M640.616,5500.79c0,0.9-.06,1.82-0.06,2.72,0,0.62.22,0.64,1.08,0.64s1.061-.02,1.061-0.64c0-.9-0.06-1.8-0.06-2.72v-3.82a0.476,0.476,0,0,1,.56-0.56h0.52a0.514,0.514,0,0,1,.62.52,13.747,13.747,0,0,0,1.14,4.64c0.6,1.26,1.781,2.56,3.3,2.56,1.98,0,2.5-2.36,2.5-2.96a1.375,1.375,0,0,0-1.321-.9,0.352,0.352,0,0,0-.38.4c-0.08.44-.24,1.42-0.82,1.42a2.14,2.14,0,0,1-1.5-1.34,10.275,10.275,0,0,1-1.041-4.7c0-.28.02-0.54,0.02-0.78,0-.78-0.66-0.8-1.26-0.8-0.5,0-1,.04-1.5.04H643.2a0.5,0.5,0,0,1-.56-0.56v-2.8a1.483,1.483,0,0,1,.24-1.18,0.361,0.361,0,0,0,.22-0.28c0-.24-0.34-0.24-0.5-0.26-0.38-.02-1.361-0.1-1.721-0.1-0.18,0-.34.04-0.34,0.26v0.2a11.126,11.126,0,0,1,.08,1.64v2.52a0.482,0.482,0,0,1-.56.56h-0.94a0.5,0.5,0,0,1-.56-0.56v-1.86a0.626,0.626,0,0,1,.5-0.72,2.926,2.926,0,0,1,.64-0.2,0.34,0.34,0,0,1,.14.02,0.988,0.988,0,0,0,.32.1,0.235,0.235,0,0,0,.22-0.2,2.732,2.732,0,0,0-.26-0.62l-0.18-.36a1.084,1.084,0,0,0-.62-0.74,0.523,0.523,0,0,0-.16.06,17.621,17.621,0,0,1-5.081,1.1,0.3,0.3,0,0,0-.34.34c0,0.16.26,1.48,0.82,1.48a10.934,10.934,0,0,0,1.56-.24h0.12a0.386,0.386,0,0,1,.4.46v1.38a0.482,0.482,0,0,1-.56.56c-0.74.02-1.48-.06-2.22-0.06-0.48,0-.48.22-0.48,1s0,1.02.48,1.02c0.72,0,1.44-.08,2.16-0.06a0.407,0.407,0,0,1,.48.42v0.1a8.452,8.452,0,0,1-2.92,5.4,1.046,1.046,0,0,0-.46.52,1.793,1.793,0,0,0,1.42,1.14,3.121,3.121,0,0,0,1.22-.98,10.673,10.673,0,0,0,2.681-6.06,0.528,0.528,0,0,1,.62-0.54h1a0.476,0.476,0,0,1,.56.56v3.82Zm8.862-4.94a2.651,2.651,0,0,1-.22-0.2,0.2,0.2,0,0,1-.08-0.14,0.235,0.235,0,0,1,.18-0.2,2.792,2.792,0,0,0,2.021-2.68c0-.62-0.981-0.86-1.341-0.86-0.34,0-.36.24-0.44,0.62a1.022,1.022,0,0,1-.7.96c-1.14,0-2.7-2.12-2.7-5.16v-0.56c0-.8-0.64-0.8-1.26-0.8-0.48,0-.96.02-1.44,0.02h-6.221c-0.841,0-1.661-.06-2.5-0.06-0.5,0-.46.22-0.46,1.02,0,0.74-.02.96,0.46,0.96,0.82,0,1.66-.04,2.5-0.04h6.441a0.528,0.528,0,0,1,.62.5,9.857,9.857,0,0,0,1,3.46,5.035,5.035,0,0,0,2.681,2.5,0.343,0.343,0,0,1,.24.28,0.369,0.369,0,0,1-.1.24c-0.22.2-.76,0.7-1,0.88a0.818,0.818,0,0,0-.4.44,1.08,1.08,0,0,0,.38.54,0.349,0.349,0,0,1,.12.24,0.4,0.4,0,0,1-.12.24,0.876,0.876,0,0,0-.28.44,0.329,0.329,0,0,0,.16.24,14.77,14.77,0,0,1,1.7,1.48,0.673,0.673,0,0,0,.4.26,1.582,1.582,0,0,0,.96-0.9,6.317,6.317,0,0,0-1.52-1.48,0.445,0.445,0,0,1-.18-0.34,0.418,0.418,0,0,1,.16-0.32c0.26-.22.44-0.4,0.58-0.52a0.763,0.763,0,0,1,.46-0.32c0.06,0,.12.02,0.16,0.02a0.254,0.254,0,0,0,.12.02,0.205,0.205,0,0,0,.22-0.16A1.837,1.837,0,0,0,649.478,5495.85Zm-2.34-6.4a0.974,0.974,0,0,0-.32.48,0.618,0.618,0,0,0,.3.34c0.46,0.36.86,0.72,1.18,1.02a2.723,2.723,0,0,0,.8.62,1.612,1.612,0,0,0,.96-0.88,7.071,7.071,0,0,0-1.56-1.52,0.467,0.467,0,0,1-.2-0.34,0.407,0.407,0,0,1,.18-0.32c0.26-.22.54-0.44,0.8-0.68a0.768,0.768,0,0,1,.38-0.26,0.44,0.44,0,0,1,.16.02,0.866,0.866,0,0,0,.1.02,0.2,0.2,0,0,0,.22-0.16,1.969,1.969,0,0,0-.56-0.6c-0.08-.06-0.18-0.16-0.26-0.22a1.053,1.053,0,0,0-.54-0.34,0.5,0.5,0,0,0-.28.16,15.054,15.054,0,0,1-1.46,1.3,0.512,0.512,0,0,0-.26.32,0.9,0.9,0,0,0,.36.54A0.32,0.32,0,0,1,647.138,5489.45Zm14.238-2.12a0.6,0.6,0,0,0-.36-0.4q-0.09-.06-0.3-0.18a4.532,4.532,0,0,0-1.14-.6,0.427,0.427,0,0,0-.3.26,18.526,18.526,0,0,1-4,3.9,0.553,0.553,0,0,0-.34.44,1.889,1.889,0,0,0,1.06,1.18,1.675,1.675,0,0,0,.7-0.36,19.442,19.442,0,0,0,3.821-3.76,0.485,0.485,0,0,1,.5-0.28C661.136,5487.53,661.376,5487.49,661.376,5487.33Zm7.662,1.86c0.66,0,1.34.04,2.02,0.04,0.54,0,.5-0.3.5-1s0.04-1.02-.5-1.02c-0.68,0-1.36.06-2.02,0.06h-3.561c-0.68,0-1.36-.06-2.041-0.06-0.52,0-.5.3-0.5,1.02s-0.02,1,.5,1c0.681,0,1.361-.04,2.041-0.04h3.561Zm-2.161,5.1a0.476,0.476,0,0,1,.56.56v5.78c0,1.06.06,1.46-1.1,1.46-0.22,0-.5-0.02-0.72-0.04a2.71,2.71,0,0,0-.4-0.04,0.448,0.448,0,0,0-.38.56,3.27,3.27,0,0,0,.3,1.32,1.074,1.074,0,0,0,.94.28c1.48,0,3.5-.1,3.5-2.04,0-.5-0.04-0.98-0.04-1.48v-5.8a0.476,0.476,0,0,1,.56-0.56h0.06c0.74,0,1.5.04,2.24,0.04,0.5,0,.5-0.24.5-1s0-1-.5-1c-0.76,0-1.5.04-2.24,0.04h-5.421c-0.76,0-1.5-.04-2.241-0.04-0.52,0-.5.26-0.5,1s-0.02,1,.5,1c0.74,0,1.481-.04,2.241-0.04h2.14Zm-7.181.28a25.17,25.17,0,0,0,1.92-2.5,0.658,0.658,0,0,1,.46-0.4,0.35,0.35,0,0,0,.36-0.26,0.63,0.63,0,0,0-.42-0.42c-0.04-.02-0.1-0.06-0.18-0.1a5.659,5.659,0,0,0-1.26-.6,0.308,0.308,0,0,0-.26.18,21.156,21.156,0,0,1-5.041,5.62,0.739,0.739,0,0,0-.44.56,1.928,1.928,0,0,0,1.08,1.3,4.063,4.063,0,0,0,1.56-1.1,0.3,0.3,0,0,1,.18-0.08,0.244,0.244,0,0,1,.22.26v4.48c0,0.68-.06,1.34-0.06,2,0,0.62.28,0.6,1.041,0.6s1.02,0.02,1.02-.6c0-.66-0.06-1.32-0.06-2v-4.58c0-1-.02-1.38.22-1.58a0.393,0.393,0,0,0,.22-0.28c0-.24-0.3-0.24-0.46-0.26a0.155,0.155,0,0,1-.16-0.14A0.17,0.17,0,0,1,659.7,5494.57Zm30.022,1.48a0.442,0.442,0,0,1-.541-0.44l-0.06-.54c0-.04.04-0.04,0.08-0.02a0.206,0.206,0,0,0,.24-0.14,0.509,0.509,0,0,1,.361-0.28l0.74-.12a0.115,0.115,0,0,1,.12.12,0.151,0.151,0,0,1-.02.08,0.676,0.676,0,0,0-.18.38,2.138,2.138,0,0,0,.8.64,0.239,0.239,0,0,1,.1.16,0.187,0.187,0,0,1-.22.16h-1.42Zm-7.242-.5a0.849,0.849,0,0,0,.12-0.38,0.321,0.321,0,0,0-.1-0.22,12.83,12.83,0,0,1-1.74-2.64,1.078,1.078,0,0,1-.06-0.2,0.385,0.385,0,0,1,.42-0.36c0.2,0.02.88,0.06,0.96,0.06,0.4,0,.38-0.3.4-0.84a0.194,0.194,0,0,1,.2-0.22,0.266,0.266,0,0,1,.16.06c0.26,0.2.52,0.4,0.78,0.62a0.652,0.652,0,0,1,.24.46,0.737,0.737,0,0,1-.1.34c-0.26.42-.5,0.86-0.78,1.28a0.312,0.312,0,0,1-.3.16c-0.12.02-.32,0-0.32,0.18a5.653,5.653,0,0,0,.2.94c0.14,0.42.16,0.58,0.34,0.58a0.2,0.2,0,0,0,.16-0.12,0.337,0.337,0,0,1,.28-0.24c0.8-.12,1.6-0.22,2.381-0.36a0.481,0.481,0,0,1,.56.34c0.06,0.18.08,0.36,0.3,0.36a1.764,1.764,0,0,0,.58-0.14,0.584,0.584,0,0,1,.18-0.04c0.22,0,.22.28,0.24,0.44a0.378,0.378,0,0,1-.42.44h-2.7c-0.56,0-1.12.02-1.68-.02a0.305,0.305,0,0,1-.34-0.3A0.584,0.584,0,0,1,682.476,5495.55Zm7.982-3.42c-0.18.32-.4,0.62-0.6,0.94a0.418,0.418,0,0,1-.36.24,0.463,0.463,0,0,1-.52-0.48c0-.46-0.02-0.94-0.02-1.4v-0.6a0.265,0.265,0,0,1,.26-0.26,0.279,0.279,0,0,1,.18.06c0.321,0.24.64,0.48,0.941,0.72a0.569,0.569,0,0,1,.24.42A0.645,0.645,0,0,1,690.458,5492.13Zm-5.322,8.16c0.381,0.28.781,0.56,1.141,0.86a0.986,0.986,0,0,0,.4.26,1.359,1.359,0,0,0,.86-1.16,0.549,0.549,0,0,0-.36-0.46,14.919,14.919,0,0,0-1.8-1.1,0.742,0.742,0,0,1-.461-0.66,0.457,0.457,0,0,1,.541-0.42h1.9a0.581,0.581,0,0,1,.68.5,15.383,15.383,0,0,0,.78,2.16,0.906,0.906,0,0,1,.06.32,0.529,0.529,0,0,1-.26.46,10.944,10.944,0,0,1-3.06,1.52,0.6,0.6,0,0,0-.6.44,1.425,1.425,0,0,0,.761,1.18,12.206,12.206,0,0,0,3.72-1.78,0.674,0.674,0,0,1,.34-0.1,0.511,0.511,0,0,1,.4.22,3.531,3.531,0,0,0,2.58,1.7,1.449,1.449,0,0,0,1.32-1.06,6.7,6.7,0,0,0,.541-2.04,0.942,0.942,0,0,0-1.081-.74c-0.34,0-.36.1-0.4,0.32-0.04.34-.14,1.76-0.6,1.76a2.663,2.663,0,0,1-1.14-.98,0.652,0.652,0,0,1-.16-0.38,0.667,0.667,0,0,1,.22-0.44,12.016,12.016,0,0,0,1-1.26,0.6,0.6,0,0,1,.48-0.38,0.308,0.308,0,0,0,.32-0.22,3.621,3.621,0,0,0-1.5-.98,0.478,0.478,0,0,0-.3.26,5.1,5.1,0,0,1-.82,1.16,0.4,0.4,0,0,1-.26.12,0.344,0.344,0,0,1-.3-0.24c-0.12-.34-0.26-0.68-0.36-1.02a0.373,0.373,0,0,1-.021-0.16,0.351,0.351,0,0,1,.421-0.34h1.84c0.66,0,1.34.04,2.02,0.04,0.461,0,.44-0.26.44-0.82,0-.5.021-0.82-0.42-0.82-0.36,0-.72.04-1.08,0.04a0.283,0.283,0,0,1-.34-0.22,0.371,0.371,0,0,1,.04-0.14,0.331,0.331,0,0,0,.1-0.24,1.6,1.6,0,0,0-.68-0.62l-0.2-.14a0.235,0.235,0,0,1-.12-0.2,0.214,0.214,0,0,1,.2-0.18c0.32-.06.64-0.12,0.94-0.16a0.394,0.394,0,0,1,.48.28c0.1,0.3.14,0.5,0.38,0.5a0.983,0.983,0,0,0,.86-0.42,7.674,7.674,0,0,0-.4-1.2c-0.22-.52-0.44-1.04-0.68-1.56a0.409,0.409,0,0,0-.34-0.28,1,1,0,0,0-.86.46,3.657,3.657,0,0,0,.22.52,1.078,1.078,0,0,1,.06.2,0.38,0.38,0,0,1-.38.38l-0.44.06a0.222,0.222,0,0,1-.26-0.22,0.471,0.471,0,0,1,.04-0.16,21.03,21.03,0,0,0,1.66-2.72,0.375,0.375,0,0,1,.42-0.22c0.12-.02.24-0.04,0.24-0.2a0.936,0.936,0,0,0-.56-0.46,4.132,4.132,0,0,0-.92-0.42,0.333,0.333,0,0,0-.22.26c-0.16.36-.32,0.7-0.5,1.04a0.418,0.418,0,0,1-.36.24,0.539,0.539,0,0,1-.3-0.1l-0.06-.06a0.3,0.3,0,0,1-.14-0.24,0.338,0.338,0,0,1,.06-0.2,20.711,20.711,0,0,0,1.16-1.94,0.4,0.4,0,0,1,.36-0.24c0.12,0,.28,0,0.28-0.18a0.468,0.468,0,0,0-.32-0.32,5.434,5.434,0,0,0-1.08-.54,0.257,0.257,0,0,0-.2.24,18.076,18.076,0,0,1-1.18,2.32,0.213,0.213,0,0,1-.181.1,0.509,0.509,0,0,1-.14-0.04,0.284,0.284,0,0,0-.12-0.04,0.246,0.246,0,0,0-.2.1,0.2,0.2,0,0,1-.14.08,0.113,0.113,0,0,1-.12-0.14v-1.36c0-.4.02-0.5,0.22-0.6a0.361,0.361,0,0,0,.3-0.3c0-.24-0.18-0.24-0.84-0.32-0.18-.02-0.94-0.1-1.06-0.1a0.278,0.278,0,0,0-.32.32c0,0.04.02,0.54,0.04,0.68,0.02,1.86-.02,3.74.06,5.6,0,0.14.06,0.94,0.06,0.98a0.113,0.113,0,0,1-.12.12,0.175,0.175,0,0,1-.12-0.14c-0.22-.58-0.48-1.18-0.76-1.76a0.361,0.361,0,0,0-.32-0.28,1.2,1.2,0,0,0-.88.46,3.247,3.247,0,0,0,.22.56,0.386,0.386,0,0,1,.06.2,0.347,0.347,0,0,1-.36.36,2.762,2.762,0,0,1-.381.04,0.239,0.239,0,0,1-.3-0.2,0.227,0.227,0,0,1,.06-0.16,24.169,24.169,0,0,0,1.681-2.86,0.47,0.47,0,0,1,.44-0.2c0.12,0,.26-0.02.26-0.18a3.845,3.845,0,0,0-1.42-.92c-0.12,0-.14.1-0.2,0.24-0.14.3-.281,0.6-0.421,0.88a0.371,0.371,0,0,1-.32.26,0.506,0.506,0,0,1-.3-0.12,0.471,0.471,0,0,0-.1-0.1,0.254,0.254,0,0,1-.08-0.18,0.424,0.424,0,0,1,.06-0.14,15.715,15.715,0,0,0,.861-1.46,6.13,6.13,0,0,1,.4-0.72,0.406,0.406,0,0,1,.4-0.2c0.14,0,.28-0.02.28-0.2a3.41,3.41,0,0,0-1.4-.8c-0.12,0-.14.1-0.18,0.22a18.759,18.759,0,0,1-1.22,2.46,0.2,0.2,0,0,1-.14.08,0.289,0.289,0,0,1-.14-0.04,0.173,0.173,0,0,0-.12-0.06,1.222,1.222,0,0,0-.5.66,0.323,0.323,0,0,1-.3.12c-0.3.02-.58,0.02-0.88,0.04a0.464,0.464,0,0,1-.5-0.56v-1.26a1.254,1.254,0,0,1,.22-1.06,0.388,0.388,0,0,0,.28-0.28c0-.24-0.34-0.24-0.5-0.26-0.3-.04-1.381-0.14-1.621-0.14a0.256,0.256,0,0,0-.32.24,0.554,0.554,0,0,0,.02.18,8.867,8.867,0,0,1,.06,1.3v1.28a0.482,0.482,0,0,1-.56.56c-0.4,0-.82-0.04-1.08-0.04-0.42,0-.38.32-0.38,0.96,0,0.62-.04.98,0.38,0.98,0.02,0,.82-0.04.92-0.04a0.382,0.382,0,0,1,.46.38c0,0.04-.02.08-0.02,0.14a20.639,20.639,0,0,1-2.16,6.3,1.055,1.055,0,0,0-.16.44,1.939,1.939,0,0,0,1.04,1.26,0.489,0.489,0,0,0,.4-0.38,16.938,16.938,0,0,0,1-2.66,0.124,0.124,0,0,1,.08-0.06,0.081,0.081,0,0,1,.08.1v3.7c0,0.9-.04,1.8-0.04,2.7,0,0.52.22,0.54,0.98,0.54,0.741,0,.961,0,0.961-0.54,0-.9-0.04-1.8-0.04-2.7v-5.46a0.14,0.14,0,0,1,.12-0.16,0.135,0.135,0,0,1,.12.08,1.147,1.147,0,0,0,.08.14,2.083,2.083,0,0,0,.74.94,0.2,0.2,0,0,1,.24.22v0.18c0,0.52.02,0.72,0.44,0.72,0.12,0,.24-0.02.36-0.02a0.471,0.471,0,0,1,.54.52,9.466,9.466,0,0,1-1.72,5.02,0.657,0.657,0,0,0-.14.32,1.452,1.452,0,0,0,1.18.76,0.766,0.766,0,0,0,.62-0.48,10.591,10.591,0,0,0,1.3-3.24,0.344,0.344,0,0,1,.34-0.3A0.453,0.453,0,0,1,685.136,5500.29Zm21.3-13.92c-0.2,0-.24.2-0.28,0.42a10.974,10.974,0,0,1-1.08,2.58,1.767,1.767,0,0,1-1.24.26h-0.58c-0.58,0-1.1-.04-1.441-0.04-0.5,0-.58.12-0.58,0.92,0,1.02.08,1.12,0.52,1.12,0.621,0,1.081-.06,1.4-0.06,0.28,0,.44.06,0.44,0.24a37.767,37.767,0,0,1-3.361,4.9,0.837,0.837,0,0,0-.26.44,2.913,2.913,0,0,0,1.7,1.16,0.333,0.333,0,0,0,.28-0.2,13.165,13.165,0,0,1,1.681-2.34,6.719,6.719,0,0,1,3.741-1.76,0.832,0.832,0,0,1,.88.68,2.746,2.746,0,0,1,.1.56,0.512,0.512,0,0,1-.36.46c-0.42.2-.84,0.42-1.24,0.66-1.381.82-2.841,1.8-2.841,3.6a3.038,3.038,0,0,0,2,2.86,7.414,7.414,0,0,0,3.161.52,26.539,26.539,0,0,0,3.841-.26c0.44-.1.46-0.26,0.46-0.86,0-1.14-.14-1.36-0.4-1.36a2.462,2.462,0,0,0-.4.04,14.637,14.637,0,0,1-3.721.5c-0.96,0-2.9-.12-2.9-1.46,0-1.24,2.061-2.12,2.161-2.12a0.278,0.278,0,0,1,.26.34c0,0.42-.04.86-0.04,1.3,0,0.52.36,0.56,1.22,0.56,0.76,0,.86-0.08.86-0.8,0-.62-0.02-1.22-0.02-1.84v-0.26a0.613,0.613,0,0,1,.52-0.66c0.781-.34,1.561-0.68,2.361-0.98,0.1-.04.2-0.06,0.28-0.1,0.38-.12.6-0.2,0.6-0.44,0-.34-0.48-1.88-0.86-1.88a1.649,1.649,0,0,0-.52.2,17.812,17.812,0,0,1-2.341,1.14,0.331,0.331,0,0,1-.3-0.34,2.039,2.039,0,0,0-2.28-1.8,5.538,5.538,0,0,0-2.181.52,0.771,0.771,0,0,1-.36.12,0.155,0.155,0,0,1-.16-0.14,6.457,6.457,0,0,1,.68-1.16,0.705,0.705,0,0,1,.6-0.32c1.261-.14,2.521-0.36,3.781-0.62,0.42-.08,1.06-0.16,1.06-0.5a6.391,6.391,0,0,0-.16-1.08,0.589,0.589,0,0,0-.5-0.6,1.521,1.521,0,0,0-.5.12,14.47,14.47,0,0,1-2.32.56,0.194,0.194,0,0,1-.22-0.2,1.343,1.343,0,0,1,.2-0.46,1.1,1.1,0,0,1,.66-0.68,0.325,0.325,0,0,0,.24-0.24C708.677,5487.29,706.616,5486.37,706.436,5486.37Zm20.98,14.42c0,0.9-.06,1.82-0.06,2.72,0,0.62.22,0.64,1.08,0.64s1.061-.02,1.061-0.64c0-.9-0.06-1.8-0.06-2.72v-3.82a0.476,0.476,0,0,1,.56-0.56h0.52a0.514,0.514,0,0,1,.62.52,13.747,13.747,0,0,0,1.14,4.64c0.6,1.26,1.781,2.56,3.3,2.56,1.98,0,2.5-2.36,2.5-2.96a1.375,1.375,0,0,0-1.321-.9,0.352,0.352,0,0,0-.38.4c-0.08.44-.24,1.42-0.82,1.42a2.14,2.14,0,0,1-1.5-1.34,10.288,10.288,0,0,1-1.041-4.7c0-.28.02-0.54,0.02-0.78,0-.78-0.66-0.8-1.26-0.8-0.5,0-1,.04-1.5.04H730a0.5,0.5,0,0,1-.56-0.56v-2.8a1.483,1.483,0,0,1,.24-1.18,0.361,0.361,0,0,0,.22-0.28c0-.24-0.34-0.24-0.5-0.26-0.38-.02-1.361-0.1-1.721-0.1-0.18,0-.34.04-0.34,0.26v0.2a11.126,11.126,0,0,1,.08,1.64v2.52a0.482,0.482,0,0,1-.56.56h-0.94a0.5,0.5,0,0,1-.56-0.56v-1.86a0.626,0.626,0,0,1,.5-0.72,2.926,2.926,0,0,1,.64-0.2,0.34,0.34,0,0,1,.14.02,0.988,0.988,0,0,0,.32.1,0.235,0.235,0,0,0,.22-0.2,2.732,2.732,0,0,0-.26-0.62l-0.18-.36a1.084,1.084,0,0,0-.62-0.74,0.523,0.523,0,0,0-.16.06,17.621,17.621,0,0,1-5.081,1.1,0.3,0.3,0,0,0-.34.34c0,0.16.26,1.48,0.82,1.48a10.934,10.934,0,0,0,1.56-.24h0.12a0.386,0.386,0,0,1,.4.46v1.38a0.482,0.482,0,0,1-.56.56c-0.74.02-1.48-.06-2.22-0.06-0.48,0-.48.22-0.48,1s0,1.02.48,1.02c0.72,0,1.44-.08,2.16-0.06a0.407,0.407,0,0,1,.48.42v0.1a8.452,8.452,0,0,1-2.92,5.4,1.046,1.046,0,0,0-.46.52,1.793,1.793,0,0,0,1.42,1.14,3.121,3.121,0,0,0,1.22-.98,10.673,10.673,0,0,0,2.681-6.06,0.528,0.528,0,0,1,.62-0.54h1a0.476,0.476,0,0,1,.56.56v3.82Zm8.862-4.94a2.651,2.651,0,0,1-.22-0.2,0.2,0.2,0,0,1-.08-0.14,0.235,0.235,0,0,1,.18-0.2,2.792,2.792,0,0,0,2.021-2.68c0-.62-0.981-0.86-1.341-0.86-0.34,0-.36.24-0.44,0.62a1.022,1.022,0,0,1-.7.96c-1.14,0-2.7-2.12-2.7-5.16v-0.56c0-.8-0.64-0.8-1.26-0.8-0.48,0-.96.02-1.44,0.02h-6.221c-0.841,0-1.661-.06-2.5-0.06-0.5,0-.46.22-0.46,1.02,0,0.74-.02.96,0.46,0.96,0.82,0,1.66-.04,2.5-0.04h6.441a0.528,0.528,0,0,1,.62.5,9.857,9.857,0,0,0,1,3.46,5.035,5.035,0,0,0,2.681,2.5,0.343,0.343,0,0,1,.24.28,0.369,0.369,0,0,1-.1.24c-0.22.2-.76,0.7-1,0.88a0.818,0.818,0,0,0-.4.44,1.08,1.08,0,0,0,.38.54,0.349,0.349,0,0,1,.12.24,0.4,0.4,0,0,1-.12.24,0.876,0.876,0,0,0-.28.44,0.329,0.329,0,0,0,.16.24,14.77,14.77,0,0,1,1.7,1.48,0.673,0.673,0,0,0,.4.26,1.582,1.582,0,0,0,.96-0.9,6.317,6.317,0,0,0-1.52-1.48,0.445,0.445,0,0,1-.18-0.34,0.418,0.418,0,0,1,.16-0.32c0.26-.22.44-0.4,0.58-0.52a0.763,0.763,0,0,1,.46-0.32c0.06,0,.12.02,0.16,0.02a0.254,0.254,0,0,0,.12.02,0.205,0.205,0,0,0,.22-0.16A1.837,1.837,0,0,0,736.278,5495.85Zm-2.34-6.4a0.974,0.974,0,0,0-.32.48,0.618,0.618,0,0,0,.3.34c0.46,0.36.86,0.72,1.18,1.02a2.723,2.723,0,0,0,.8.62,1.612,1.612,0,0,0,.96-0.88,7.071,7.071,0,0,0-1.56-1.52,0.467,0.467,0,0,1-.2-0.34,0.407,0.407,0,0,1,.18-0.32c0.26-.22.54-0.44,0.8-0.68a0.768,0.768,0,0,1,.38-0.26,0.44,0.44,0,0,1,.16.02,0.866,0.866,0,0,0,.1.02,0.2,0.2,0,0,0,.22-0.16,1.969,1.969,0,0,0-.56-0.6c-0.08-.06-0.18-0.16-0.26-0.22a1.053,1.053,0,0,0-.54-0.34,0.5,0.5,0,0,0-.28.16,15.054,15.054,0,0,1-1.46,1.3,0.512,0.512,0,0,0-.26.32,0.9,0.9,0,0,0,.36.54A0.32,0.32,0,0,1,733.938,5489.45Zm24.74-3.28a1.712,1.712,0,0,0-1,.78,0.445,0.445,0,0,0,.16.26c0.5,0.52.96,1.08,1.4,1.64a0.357,0.357,0,0,0,.26.22,1.589,1.589,0,0,0,1-.86A7.754,7.754,0,0,0,758.678,5486.17Zm-1.98,1.26a1.763,1.763,0,0,0-1,.76,0.672,0.672,0,0,0,.18.3,17.193,17.193,0,0,1,1.34,1.6,0.406,0.406,0,0,0,.28.24,1.59,1.59,0,0,0,1-.86A7.681,7.681,0,0,0,756.7,5487.43Zm-4.6,12.22c0.46,0,1.2.02,1.2,0.54a1.08,1.08,0,0,1-1.28,1.12c-0.5,0-1.42-.24-1.42-0.86C750.6,5499.81,751.637,5499.65,752.1,5499.65Zm0.62-11.58a0.231,0.231,0,0,0-.28.26,1.057,1.057,0,0,0,.02.26c0.06,0.46.28,2.54,0.28,2.92,0,0.5-.54.48-1.6,0.48-0.881,0-2.461-.16-2.7-0.16-0.28,0-.32.22-0.32,0.44a6.85,6.85,0,0,0,.16,1.48,1.615,1.615,0,0,0,1.12.24h0.26c1.021,0,2.821-.12,2.861-0.12,0.48,0,.44.52,0.46,0.7,0.04,0.74.18,2.26,0.18,2.96a0.37,0.37,0,0,1-.44.42c-0.26,0-.5-0.06-0.76-0.06-1.58,0-3.221.7-3.221,2.54,0,1.8,1.7,2.58,3.281,2.58,1.24,0,2.5-.3,2.94-1.62a0.481,0.481,0,0,1,.341-0.44,0.657,0.657,0,0,1,.32.14,9.145,9.145,0,0,1,.98.76,1.5,1.5,0,0,0,.76.48,1.8,1.8,0,0,0,1.14-1.4c0-.68-2.12-1.84-2.7-2.1a0.822,0.822,0,0,1-.7-0.76c-0.02-.24-0.221-3.76-0.221-3.94a0.586,0.586,0,0,1,.661-0.64c2.02-.32,2.5-0.42,2.5-0.82a6.647,6.647,0,0,0-.26-1.4,0.406,0.406,0,0,0-.32-0.32,1.877,1.877,0,0,0-.48.12,14.025,14.025,0,0,1-1.8.46,0.44,0.44,0,0,1-.441-0.54v-0.88a3.665,3.665,0,0,1,.14-1.2,0.966,0.966,0,0,0,.121-0.34c0-.16-0.08-0.18-0.281-0.22A18.458,18.458,0,0,0,752.717,5488.07Zm-6.361.5a8.091,8.091,0,0,0-1.281-.5,0.355,0.355,0,0,0-.26.36c-0.12.58-.3,1.14-0.46,1.72a24.59,24.59,0,0,0-.84,6.16,14.831,14.831,0,0,0,1.3,6.5,0.979,0.979,0,0,0,.62.66c0.221,0,1.521-.34,1.521-0.96,0-.3-0.06-0.7-0.06-1.04a11.611,11.611,0,0,1,.78-3.16,1.721,1.721,0,0,0,.14-0.5,1.243,1.243,0,0,0-.86-0.64,0.624,0.624,0,0,0-.36.5c-0.3.78-.42,1.12-0.6,1.12-0.4,0-.46-2.2-0.46-2.56a17.466,17.466,0,0,1,1.14-6.1,1.134,1.134,0,0,1,.64-0.68,0.233,0.233,0,0,0,.2-0.2,0.732,0.732,0,0,0-.6-0.44C746.816,5488.77,746.6,5488.67,746.356,5488.57Zm25.02,6.62c0.821,0,1,1.14,1,1.76s-0.24,1.64-1.041,1.64-0.94-1.1-.94-1.7S770.6,5495.19,771.376,5495.19Zm0.1-8.48a0.227,0.227,0,0,0-.26.24,0.44,0.44,0,0,0,.02.16,17.045,17.045,0,0,1,.2,2.48,0.588,0.588,0,0,1-.44.62c-0.18.04-4.881,0.3-5.421,0.32-0.98.04-1.16,0-1.16,0.4a11.745,11.745,0,0,0,.16,1.44c0.06,0.26.08,0.54,0.4,0.54a1.544,1.544,0,0,0,.3-0.04c0.96-.2,3.541-0.48,4.581-0.58,0.24-.02,1.16-0.12,1.32-0.12,0.22,0,.36.1,0.36,0.84a0.257,0.257,0,0,1-.24.24c-2.02.18-2.82,1.94-2.82,3.78,0,1.46.64,3.34,2.38,3.34a1.9,1.9,0,0,0,.46-0.1,0.44,0.44,0,0,1,.16-0.02,0.15,0.15,0,0,1,.14.14,0.761,0.761,0,0,1-.1.3,6.454,6.454,0,0,1-1.44,1.94,1.5,1.5,0,0,0-.46.56c0,0.36,1.62.86,1.86,0.86,0.881,0,3.021-3.58,3.021-6.8a6.16,6.16,0,0,0-.62-2.8,1.692,1.692,0,0,1-.2-1.04v-0.7a0.644,0.644,0,0,1,.38-0.66c0.22-.06,2.08-0.08,2.441-0.08,1.12,0,2.62.1,2.9,0.1,0.2,0,.44.02,0.44-1.2,0-.9-0.14-1.02-0.46-1.02-0.86,0-3,.12-3.981.16-0.22,0-1,.06-1.16.06a0.527,0.527,0,0,1-.58-0.58c0-.42,0-0.86.02-1.28a0.908,0.908,0,0,1,.32-0.84,0.3,0.3,0,0,0,.12-0.22,1.542,1.542,0,0,0-1.08-.28C772.557,5486.83,771.937,5486.71,771.476,5486.71Zm27.282,14.14a6.831,6.831,0,0,0-.5-1.22c-0.541-1.16-.661-1.3-0.9-1.3a1.724,1.724,0,0,0-1.26.64,0.675,0.675,0,0,0,.08.24c0.3,0.66.52,1.14,0.66,1.48,0.3,0.7.36,0.84,0.6,0.84C797.737,5501.53,798.758,5501.21,798.758,5500.85Zm-2.921,1.08a20.881,20.881,0,0,0-.92-2.64c-0.16-.36-0.24-0.56-0.56-0.56-0.22,0-1.241.24-1.241,0.56a2.3,2.3,0,0,0,.12.34,19.865,19.865,0,0,1,.841,2.46,0.49,0.49,0,0,0,.44.52C794.817,5502.61,795.837,5502.29,795.837,5501.93Zm-3.1.88a17.41,17.41,0,0,0-.4-1.8c-0.42-1.64-.48-1.76-1-1.76-0.26,0-1.1.16-1.1,0.52a2.487,2.487,0,0,0,.08.32,22.279,22.279,0,0,1,.68,2.82c0.06,0.3.08,0.52,0.46,0.52C791.816,5503.43,792.736,5503.27,792.736,5502.81Zm5.1-8.12c0.581,0,.721.02,0.721,0.32a6.911,6.911,0,0,1-.161.9,0.592,0.592,0,0,1-.68.52h-6.8a0.25,0.25,0,0,1-.3-0.24,0.3,0.3,0,0,1,.08-0.18l0.66-.9a0.853,0.853,0,0,1,.84-0.42h5.641Zm-1.04-3.42c0.54,0,.72,0,0.72.28a6.068,6.068,0,0,1-.12.84,0.582,0.582,0,0,1-.68.52H793.4a0.3,0.3,0,0,1-.34-0.28,0.386,0.386,0,0,1,.06-0.2l0.421-.72a0.765,0.765,0,0,1,.8-0.44h2.46Zm3.581,4.62a21.784,21.784,0,0,0,.42-2.36,0.837,0.837,0,0,0-1.02-.64,0.41,0.41,0,0,1-.44-0.4,0.866,0.866,0,0,1,.02-0.1c0.08-.5.38-1.86,0.38-2.28a0.8,0.8,0,0,0-.94-0.66c-0.64,0-1.281.04-1.921,0.04h-1.6a0.327,0.327,0,0,1-.36-0.32,0.584,0.584,0,0,1,.04-0.18c0.14-.32.26-0.56,0.34-0.76a1.276,1.276,0,0,1,.54-0.82,0.41,0.41,0,0,0,.32-0.3,0.956,0.956,0,0,0-.7-0.42,8.261,8.261,0,0,0-1.38-.42c-0.2,0-.26.18-0.34,0.42a17.05,17.05,0,0,1-.961,2.34,0.727,0.727,0,0,1-.78.46h-2.06a0.175,0.175,0,0,1-.18-0.14,0.144,0.144,0,0,1,.08-0.14,1.174,1.174,0,0,0,.64-0.56,2.9,2.9,0,0,0-.66-1c-0.3-.38-0.64-0.72-0.961-1.08a0.709,0.709,0,0,0-.48-0.28,2.142,2.142,0,0,0-1.4.9,0.867,0.867,0,0,0,.3.42,18.171,18.171,0,0,1,1.26,1.48,0.279,0.279,0,0,1,.06.18,0.246,0.246,0,0,1-.26.22c-0.72,0-1.46-.06-2.18-0.06-0.46,0-.46.24-0.46,0.94s0,0.94.46,0.94c0.74,0,1.5-.04,2.26-0.04h2.6a0.286,0.286,0,0,1,.34.26,0.587,0.587,0,0,1-.06.2,29.655,29.655,0,0,1-5.8,6.92,0.958,0.958,0,0,0-.44.54,2.173,2.173,0,0,0,1.32,1.16,1.884,1.884,0,0,0,.86-0.58,0.3,0.3,0,0,1,.14-0.06,0.164,0.164,0,0,1,.14.22,15.437,15.437,0,0,1-.8,2.96,1.592,1.592,0,0,0-.14.4c0,0.4,1.2.66,1.42,0.66a0.6,0.6,0,0,0,.54-0.54,29.478,29.478,0,0,0,.741-2.98,0.413,0.413,0,0,1,.3-0.4,0.261,0.261,0,0,0,.18-0.2c0-.24-0.26-0.26-1.5-0.5a0.277,0.277,0,0,1-.22-0.22,0.208,0.208,0,0,1,.08-0.16c0.14-.16.3-0.3,0.44-0.46a0.868,0.868,0,0,1,.761-0.32h9.9c0.94,0,1.14-.04,1.14.56a8.15,8.15,0,0,1-.72,3c-0.34.56-.96,0.6-1.821,0.6-0.42,0-.82-0.06-1.24-0.06-0.36,0-.42.1-0.42,0.44,0,1.54.32,1.52,1.52,1.52a7.487,7.487,0,0,0,2.5-.34,2.5,2.5,0,0,0,1.26-1.34,16.493,16.493,0,0,0,1.06-5.18c0-.66-0.16-0.96-0.86-0.96h-0.86a0.359,0.359,0,0,1-.42-0.38C800.358,5496.01,800.378,5495.93,800.378,5495.89Zm14.418,2.3c-0.38,0-1.08,1.42-1.08,1.7,0,0.32,1.34,2,4.581,2a23.264,23.264,0,0,0,4.741-.6,0.777,0.777,0,0,0,.24-0.74c0-1.02-.04-1.5-0.36-1.5a1.423,1.423,0,0,0-.42.08,16.376,16.376,0,0,1-4.4.64,3.43,3.43,0,0,1-3.041-1.4A0.352,0.352,0,0,0,814.8,5498.19Zm0.46-8.66c-0.32,0-.42.3-0.42,1.26a0.971,0.971,0,0,0,.2.78,13.8,13.8,0,0,0,3.5.4,23.324,23.324,0,0,0,3.361-.28c0.38-.08.38-0.24,0.38-0.66a9.808,9.808,0,0,0-.08-1.08,0.448,0.448,0,0,0-.4-0.48,1.931,1.931,0,0,0-.36.06,13.081,13.081,0,0,1-3.041.4,12.834,12.834,0,0,1-2.62-.3A2.631,2.631,0,0,0,815.256,5489.53Zm-4.8-1.56a0.424,0.424,0,0,0-.3.44,9.2,9.2,0,0,1-.26,1,23.931,23.931,0,0,0-1.02,6.62,13.774,13.774,0,0,0,1.22,6.14,1.372,1.372,0,0,0,.841.98c0.42,0,1.56-.48,1.56-0.98a1.775,1.775,0,0,0-.04-0.3c-0.02-.18-0.08-0.64-0.08-0.84a15.322,15.322,0,0,1,.8-2.9,1.1,1.1,0,0,0-.72-0.64,0.649,0.649,0,0,0-.42.48,1.556,1.556,0,0,1-.54.78c-0.46,0-.54-2.42-0.54-2.8a15.869,15.869,0,0,1,1.12-5.68,1.284,1.284,0,0,1,.62-0.86c0.2-.12.28-0.14,0.28-0.26a0.476,0.476,0,0,0-.4-0.34C812.3,5488.69,810.615,5487.97,810.455,5487.97Zm35.9,10.2c0-.38-2.14-2.66-2.54-3.06a29.989,29.989,0,0,0-2.461-2.34,0.826,0.826,0,0,0-.46-0.22,2.082,2.082,0,0,0-1.28,1.14,0.594,0.594,0,0,0,.26.4,34.579,34.579,0,0,1,4.741,4.94,0.559,0.559,0,0,0,.44.32A2.116,2.116,0,0,0,846.358,5498.17Zm-8.2-6.16a16.428,16.428,0,0,0,.96-1.62,0.6,0.6,0,0,1,.46-0.42,0.343,0.343,0,0,0,.32-0.28,0.953,0.953,0,0,0-.74-0.42c-0.06-.02-0.06-0.04-0.06-0.06a0.084,0.084,0,0,1,.08-0.06H843.3c0.84,0,1.68.06,2.52,0.06,0.521,0,.5-0.26.5-1.04s0.02-1.04-.5-1.04c-0.84,0-1.68.06-2.52,0.06H831.755c-0.84,0-1.68-.06-2.52-0.06-0.52,0-.52.2-0.52,1.04,0,0.78,0,1.04.5,1.04,0.86,0,1.7-.06,2.54-0.06h5.021a0.331,0.331,0,0,1,.381.3,0.378,0.378,0,0,1-.061.2,16.218,16.218,0,0,1-2,2.94,23.8,23.8,0,0,1-6.061,5.16,0.863,0.863,0,0,0-.6.54,2.029,2.029,0,0,0,1.14,1.46,1.689,1.689,0,0,0,.66-0.26,24.7,24.7,0,0,0,5.781-4.7,0.217,0.217,0,0,1,.18-0.08,0.234,0.234,0,0,1,.18.22v6.34c0,0.76-.06,1.5-0.06,2.26,0,0.66.3,0.66,1.161,0.66,0.92,0,1.18,0,1.18-.68,0-.74-0.06-1.48-0.06-2.24v-7.26a1.275,1.275,0,0,1,.22-1.02,0.375,0.375,0,0,0,.24-0.3c0-.28-0.5-0.26-0.68-0.28a0.222,0.222,0,0,1-.26-0.22A0.478,0.478,0,0,1,838.157,5492.01Zm17.159,5a0.559,0.559,0,0,1-.56-0.56v-2.38a0.52,0.52,0,0,1,.56-0.54h2.14a0.494,0.494,0,0,1,.54.54v2.38a0.53,0.53,0,0,1-.54.56h-2.14Zm2.66,2.32c0,0.06-.02.12-0.02,0.18,0,0.44.34,0.42,1.041,0.42,0.78,0,1.02,0,1.02-.46,0-.52-0.04-1.04-0.04-1.56v-4.24c0-.42.02-0.82,0.02-1.24,0-.68-0.44-0.82-1.04-0.82-0.441,0-.881.02-1.341,0.02h-2.48c-0.44,0-.9-0.02-1.341-0.02-0.6,0-1.04.14-1.04,0.82,0,0.42.02,0.82,0.02,1.24v4.84c0,0.52-.04,1.04-0.04,1.58,0,0.44.26,0.44,1.02,0.44,0.8,0,1.041,0,1.041-.44,0-.24-0.02-0.46-0.02-0.68a0.463,0.463,0,0,1,.54-0.54h2.2A0.4,0.4,0,0,1,857.976,5499.33Zm4.961,1.08c0,1.26.1,1.66-1.38,1.66-0.54,0-.96-0.08-1.24-0.08-0.4,0-.44.32-0.44,0.64a2.8,2.8,0,0,0,.32,1.26,1.246,1.246,0,0,0,1,.28,7.307,7.307,0,0,0,3.161-.6,1.968,1.968,0,0,0,.76-1.82c0-.46-0.02-0.94-0.02-1.4v-10.72a0.464,0.464,0,0,1,.5-0.56c0.66,0.02,1.32.04,2,.04,0.481,0,.5-0.2.5-1.02s0-1.06-.521-1.06c-0.84,0-1.68.06-2.52,0.06H853.5c-0.84,0-1.68-.06-2.52-0.06-0.52,0-.5.26-0.5,1.06,0,0.78-.02,1.02.5,1.02,0.84,0,1.68-.04,2.52-0.04h8.882a0.482,0.482,0,0,1,.56.56v10.78Zm16.8-8.1a12.4,12.4,0,0,1-.82,3.98,11.308,11.308,0,0,1-6.1,5.98c-0.38.18-.58,0.22-0.58,0.42a2.219,2.219,0,0,0,1.24,1.5,1.388,1.388,0,0,0,.62-0.24,15.111,15.111,0,0,0,4.541-3.48,10.786,10.786,0,0,0,2.241-4.32,0.155,0.155,0,0,1,.16-0.14,0.172,0.172,0,0,1,.14.12,15.325,15.325,0,0,0,5.1,6.74,9.421,9.421,0,0,0,2.1,1.26,2.347,2.347,0,0,0,1.24-1.5,0.708,0.708,0,0,0-.48-0.44,14.244,14.244,0,0,1-7.241-9.86v-0.14a0.411,0.411,0,0,1,.48-0.4h3.381c0.2,0,.64-0.04.64,0.24a7.406,7.406,0,0,1-1.6,1.82,0.453,0.453,0,0,0-.2.3,2.5,2.5,0,0,0,1.4,1.22,2.889,2.889,0,0,0,1.12-.98c0.44-.5,2-2.38,2-2.96a2.347,2.347,0,0,0-1.78-1.62c-0.36,0-1.2.06-1.94,0.06h-6.922a0.347,0.347,0,0,1-.38-0.34,0.471,0.471,0,0,1,.04-0.16c0.24-.6.4-1,0.5-1.28,0.22-.6.24-0.66,0.5-0.76a0.348,0.348,0,0,0,.28-0.24,0.5,0.5,0,0,0-.42-0.34c-0.26-.06-1.58-0.46-1.72-0.46a0.312,0.312,0,0,0-.3.32,19.772,19.772,0,0,1-1.5,3.72,18.267,18.267,0,0,1-3.08,4.42,1.463,1.463,0,0,0-.4.54,2.658,2.658,0,0,0,1.4,1.18,1.16,1.16,0,0,0,.62-0.46,19.84,19.84,0,0,0,2.741-3.78,0.738,0.738,0,0,1,.8-0.44h1.66A0.436,0.436,0,0,1,879.736,5492.31Zm23.2,7.74c1,0,1.02.22,1.02,0.62a0.934,0.934,0,0,1-1.04,1.08,1.237,1.237,0,0,1-1.321-.94C901.6,5500.17,902.457,5500.05,902.937,5500.05Zm0.98-7.06a0.4,0.4,0,0,0-.48.44c0,0.1.02,0.18,0.02,0.28,0.06,0.78.36,3.68,0.36,4.32a0.351,0.351,0,0,1-.42.34h-0.52c-1.581,0-3.321.64-3.321,2.48,0,1.86,1.9,2.72,3.521,2.72,1.36,0,2.54-.5,2.78-1.96a0.441,0.441,0,0,1,.32-0.46,5.692,5.692,0,0,1,1.6.92,1.02,1.02,0,0,0,.52.28,2.188,2.188,0,0,0,1.24-1.46c0-.48-2.36-1.58-2.821-1.76-0.06-.02-0.14-0.06-0.2-0.08a0.779,0.779,0,0,1-.62-0.5c-0.1-.42-0.2-3.3-0.2-3.88,0-.42.04-1.02,0.04-1.06a0.449,0.449,0,0,0-.4-0.42A8.374,8.374,0,0,0,903.917,5492.99Zm3.061-3.08a2.573,2.573,0,0,0-1.341,1.38,0.524,0.524,0,0,0,.26.32,11.317,11.317,0,0,1,2.5,2.58,0.66,0.66,0,0,0,.44.36,2.431,2.431,0,0,0,1.5-1.38C910.338,5492.65,907.478,5489.91,906.978,5489.91Zm-6.722-3.26c-0.18,0-.18.2-0.18,0.34a12.209,12.209,0,0,1-.64,3.36,0.684,0.684,0,0,1-.6.32,17.776,17.776,0,0,1-2.061.1h-0.92a0.291,0.291,0,0,0-.36.32c0,0.2.1,0.92,0.14,1.16,0.08,0.46.16,0.64,0.5,0.64,0.46,0,2-.2,2.161-0.2a0.269,0.269,0,0,1,.28.26,7.819,7.819,0,0,1-.46,1.22,37.351,37.351,0,0,1-2.381,4.62,2.213,2.213,0,0,0-.36.72c0,0.42,1.34,1,1.78,1a0.4,0.4,0,0,0,.4-0.28,50.89,50.89,0,0,0,3.26-7.12c0.24-.66.22-0.8,0.94-0.92,1.841-.34,2.081-0.38,2.081-0.82a9.5,9.5,0,0,0-.1-1.06c-0.04-.24-0.06-0.6-0.3-0.6a0.711,0.711,0,0,0-.2.04,9.642,9.642,0,0,1-1.141.3,0.233,0.233,0,0,1-.22-0.26,6.63,6.63,0,0,1,.22-0.9,3.517,3.517,0,0,1,.361-1.06,0.582,0.582,0,0,0,.32-0.36,0.407,0.407,0,0,0-.32-0.24C902.137,5487.13,900.476,5486.65,900.256,5486.65Zm22.28,4.02a0.69,0.69,0,0,1,.76-0.46h6.842c0.84,0,1.66.04,2.5,0.04,0.46,0,.46-0.24.46-0.96,0-.74,0-0.98-0.46-0.98-0.84,0-1.66.04-2.5,0.04H924a0.364,0.364,0,0,1-.421-0.36,0.888,0.888,0,0,1,.441-0.78,0.448,0.448,0,0,0,.28-0.32,1.081,1.081,0,0,0-.961-0.44,13.434,13.434,0,0,0-1.34-.28c-0.22,0-.28.18-0.42,0.76-0.06.24-.12,0.54-0.24,0.92a0.607,0.607,0,0,1-.7.5h-2.181c-0.82,0-1.64-.04-2.48-0.04-0.48,0-.46.24-0.46,0.98,0,0.72-.02.96,0.46,0.96,0.84,0,1.66-.04,2.48-0.04h1.461a0.321,0.321,0,0,1,.38.3,0.584,0.584,0,0,1-.04.18,21.237,21.237,0,0,1-1.381,2.36,0.525,0.525,0,0,1-.54.26h-0.22c-0.2,0-.36.02-0.36,0.26a4.64,4.64,0,0,0,.04.48v0.14a0.757,0.757,0,0,1-.24.56,12.353,12.353,0,0,1-2.04,1.92,1.066,1.066,0,0,0-.44.56,2.165,2.165,0,0,0,1.12,1.32,3.209,3.209,0,0,0,1.24-.84,0.231,0.231,0,0,1,.4.2v3.48c0,0.74-.06,1.48-0.06,2.22,0,0.58.3,0.56,1.06,0.56,0.781,0,1.041.02,1.041-.6,0-.72-0.06-1.44-0.06-2.18v-5.64a1.224,1.224,0,0,1,.3-0.92A22.6,22.6,0,0,0,922.536,5490.67Zm5.981,6.08a0.473,0.473,0,0,1-.3-0.88c0.6-.32,3.741-2.32,3.741-2.92a1.757,1.757,0,0,0-.48-0.8,0.963,0.963,0,0,0-.9-0.36c-0.62,0-1.22.02-1.84,0.02h-3.581c-0.68,0-1.361-.04-2.041-0.04-0.5,0-.48.22-0.48,0.98,0,0.72-.02.94,0.48,0.94,0.68,0,1.361-.04,2.041-0.04h2.72c0.14,0,.3,0,0.3.14a2.752,2.752,0,0,1-1.18,1,0.938,0.938,0,0,1-.56.14c-0.1,0-.18-0.02-0.28-0.02-0.2,0-.38.04-0.38,0.28,0,0.06.02,0.14,0.02,0.2,0.02,0.28.06,0.56,0.06,0.84a0.449,0.449,0,0,1-.54.52h-1.7c-0.72,0-1.44-.04-2.16-0.04-0.52,0-.5.24-0.5,0.92,0,0.7-.02.96,0.5,0.96,0.72,0,1.44-.04,2.16-0.04h1.7a0.482,0.482,0,0,1,.56.56v1.64c0,1,.04,1.44-1.14,1.44a2.057,2.057,0,0,1-.34-0.02,7.355,7.355,0,0,0-.781-0.08c-0.36,0-.42.22-0.42,0.54a2.381,2.381,0,0,0,.38,1.4,1.943,1.943,0,0,0,1.021.18c1.44,0,3.42-.2,3.42-2.06,0-.5-0.06-0.98-0.06-1.46v-1.58a0.476,0.476,0,0,1,.56-0.56h1.821c0.72,0,1.44.04,2.16,0.04,0.52,0,.5-0.24.5-0.94s0.02-.94-0.5-0.94c-0.72,0-1.44.04-2.16,0.04h-1.821Zm21.24-3.22a1.143,1.143,0,0,1,.22-0.96,0.419,0.419,0,0,0,.241-0.3c0-.22-0.3-0.24-0.461-0.26-0.32-.04-1.46-0.14-1.74-0.14-0.2,0-.34.04-0.34,0.26,0,0.06.02,0.14,0.02,0.2a7.436,7.436,0,0,1,.06,1.34v1.12a0.469,0.469,0,0,1-.56.54h-0.64c-0.74,0-1.5-.04-2.261-0.04-0.52,0-.5.24-0.5,0.98,0,0.72-.02.98,0.5,0.98,0.74,0,1.5-.04,2.261-0.04h0.64a0.476,0.476,0,0,1,.56.56v3.38a0.482,0.482,0,0,1-.56.56h-1.36c-0.761,0-1.5-.06-2.261-0.06-0.52,0-.5.24-0.5,0.98,0,0.7-.02.96,0.5,0.96,0.76,0,1.5-.04,2.261-0.04h6.241c0.74,0,1.48.04,2.24,0.04,0.521,0,.521-0.22.521-0.96,0-.72.02-0.98-0.5-0.98-0.76,0-1.52.06-2.26,0.06H950.3a0.492,0.492,0,0,1-.541-0.56v-3.38a0.47,0.47,0,0,1,.541-0.56h0.9c0.74,0,1.5.04,2.26,0.04,0.52,0,.5-0.22.5-0.98,0-.74.02-0.98-0.5-0.98-0.74,0-1.5.04-2.26,0.04h-0.9a0.463,0.463,0,0,1-.541-0.54v-1.26Zm-4-4.7c0.12-.36.22-0.62,0.28-0.82,0.2-.6.2-0.66,0.48-0.78a0.42,0.42,0,0,0,.28-0.3,1,1,0,0,0-.96-0.48,10.372,10.372,0,0,0-1.161-.26,0.286,0.286,0,0,0-.28.28,16.745,16.745,0,0,1-.64,2.38,0.647,0.647,0,0,1-.74.5h-2.841c-0.82,0-1.64-.06-2.48-0.06-0.48,0-.46.26-0.46,1,0,0.76,0,.98.48,0.98,0.82,0,1.64-.04,2.46-0.04h2.061a0.311,0.311,0,0,1,.36.3,0.584,0.584,0,0,1-.04.18,25.063,25.063,0,0,1-1.3,2.24,0.594,0.594,0,0,1-.541.28c-0.08,0-.14-0.02-0.22-0.02-0.18,0-.32.04-0.32,0.26a3.592,3.592,0,0,0,.04.44v0.14a0.8,0.8,0,0,1-.26.62,17.253,17.253,0,0,1-2.52,2.46,1.045,1.045,0,0,0-.48.58,1.963,1.963,0,0,0,1.12,1.14,6.275,6.275,0,0,0,1.8-1.44,0.217,0.217,0,0,1,.18-0.08,0.224,0.224,0,0,1,.2.24v2.88c0,0.72-.06,1.42-0.06,2.14,0,0.56.24,0.56,1.021,0.56,0.76,0,1,0,1-.58,0-.7-0.06-1.42-0.06-2.12v-5.3a1.24,1.24,0,0,1,.28-0.86,25.779,25.779,0,0,0,2.1-3.58,0.719,0.719,0,0,1,.78-0.48H951.9c0.82,0,1.64.04,2.48,0.04,0.481,0,.461-0.24.461-0.98s0.02-1-.461-1c-0.84,0-1.66.06-2.48,0.06h-5.781a0.375,0.375,0,0,1-.4-0.34A0.742,0.742,0,0,1,945.757,5488.83Z" transform="translate(-633.125 -5486.16)"/>
</svg>
