<svg xmlns="http://www.w3.org/2000/svg" width="147.594" height="18.12" viewBox="0 0 147.594 18.12">
  <defs>
    <style>
      .cls-1 {
        fill: #231815;
        fill-rule: evenodd;
      }
    </style>
  </defs>
  <path id="憧れから目標へ" class="cls-1" d="M635.635,4875.97c0,0.88-.06,1.76-0.06,2.64,0,0.52.2,0.68,0.96,0.68,0.681,0,.961-0.1.961-0.62,0-.92-0.04-1.84-0.04-2.74v-12.68a1.5,1.5,0,0,1,.22-1.1,0.509,0.509,0,0,0,.28-0.36c0-.26-0.32-0.28-0.5-0.3-0.34-.04-1.1-0.12-1.421-0.12-0.3,0-.46.06-0.46,0.36,0,0.22.06,1.4,0.06,2.34v11.9Zm-0.22-10.36c0-.26-0.44-0.3-1-0.36-0.1,0-.38-0.04-0.48-0.04-0.28,0-.26.22-0.26,0.42a22.732,22.732,0,0,1-.5,4.2c-0.02.1-.08,0.44-0.08,0.5,0,0.34.8,0.42,1.04,0.42,0.32,0,.34-0.2.4-0.48a28.78,28.78,0,0,0,.5-3.92,0.458,0.458,0,0,1,.22-0.5A0.329,0.329,0,0,0,635.415,4865.61Zm6.722,6.54a0.446,0.446,0,0,1,.48-0.46h0.78a0.446,0.446,0,0,1,.48.46v0.16a0.462,0.462,0,0,1-.48.48h-0.78a0.462,0.462,0,0,1-.48-0.48v-0.16Zm4.02,0.64a0.462,0.462,0,0,1-.48-0.48v-0.16a0.446,0.446,0,0,1,.48-0.46h0.821a0.446,0.446,0,0,1,.48.46v0.16a0.462,0.462,0,0,1-.48.48h-0.821Zm-2.76-3.24a0.462,0.462,0,0,1,.48.48v0.1a0.462,0.462,0,0,1-.48.48h-0.78a0.462,0.462,0,0,1-.48-0.48v-0.1a0.462,0.462,0,0,1,.48-0.48h0.78Zm4.061,0.58a0.462,0.462,0,0,1-.48.48h-0.821a0.462,0.462,0,0,1-.48-0.48v-0.1a0.462,0.462,0,0,1,.48-0.48h0.821a0.462,0.462,0,0,1,.48.48v0.1Zm-1.321,4.84a0.324,0.324,0,0,1-.38-0.38v-0.08a0.331,0.331,0,0,1,.38-0.38h1c0.42,0,.86.04,1.3,0.04a0.7,0.7,0,0,0,.86-0.8c0-.36-0.02-0.74-0.02-1.1v-2.2c0-.38.02-0.74,0.02-1.12a0.7,0.7,0,0,0-.88-0.78c-0.44,0-.86.04-1.28,0.04h-4.581c-0.44,0-.881-0.04-1.321-0.04a0.694,0.694,0,0,0-.84.8c0,0.38.02,0.74,0.02,1.1v2.2c0,0.36-.02.74-0.02,1.1a0.7,0.7,0,0,0,.86.8c0.44,0,.861-0.04,1.3-0.04h0.86a0.324,0.324,0,0,1,.38.38v0.08a0.317,0.317,0,0,1-.38.38h-1.44c-0.7,0-1.4-.04-2.121-0.04-0.42,0-.42.24-0.42,0.78s0,0.78.42,0.78c0.72,0,1.42-.04,2.121-0.04h1.44a0.324,0.324,0,0,1,.38.38v0.14a0.324,0.324,0,0,1-.38.38h-2.381c-0.74,0-1.5-.04-2.26-0.04-0.44,0-.44.22-0.44,0.82,0,0.56-.02.82,0.44,0.82,0.76,0,1.52-.04,2.26-0.04H648.5c0.76,0,1.5.04,2.26,0.04,0.461,0,.441-0.24.441-0.82,0-.6.02-0.82-0.441-0.82-0.76,0-1.5.04-2.26,0.04h-2.361a0.331,0.331,0,0,1-.38-0.38v-0.14a0.331,0.331,0,0,1,.38-0.38h1.641c0.7,0,1.42.04,2.12,0.04,0.42,0,.42-0.22.42-0.78,0-.54,0-0.78-0.42-0.78-0.72,0-1.42.04-2.12,0.04h-1.641Zm-1.88-9.06a0.63,0.63,0,0,1-.7-0.48,5.653,5.653,0,0,0-.22-0.62,0.471,0.471,0,0,1-.04-0.16,0.322,0.322,0,0,1,.36-0.32H646a0.323,0.323,0,0,1,.381.32,0.591,0.591,0,0,1-.041.2l-0.26.6a0.658,0.658,0,0,1-.76.46h-1.06Zm-2.8-1.46a0.251,0.251,0,0,0-.12.22,3.9,3.9,0,0,0,.26.66,0.788,0.788,0,0,1,.1.28,0.323,0.323,0,0,1-.36.3c-0.54,0-1.06-.02-1.6-0.04a0.613,0.613,0,0,1-.66-0.44c-0.22-.52-0.32-0.66-0.52-0.66a1.122,1.122,0,0,0-.92.52,1.032,1.032,0,0,0,.04.22,20.138,20.138,0,0,1,.74,2.66c0.04,0.26.08,0.56,0.42,0.56a1.059,1.059,0,0,0,1-.62c0-.12-0.06-0.24-0.06-0.34a0.342,0.342,0,0,1,.36-0.34c0.54-.02,1.08-0.02,1.621-0.02h6.521c0.74,0,1.46.04,2.2,0.04,0.44,0,.42-0.18.42-0.78,0-.62.02-0.8-0.42-0.8-0.72,0-1.42.04-2.14,0.04a0.323,0.323,0,0,1-.36-0.3,1.744,1.744,0,0,1,.2-0.5,0.412,0.412,0,0,1,.36-0.22,0.2,0.2,0,0,0,.2-0.2,0.466,0.466,0,0,0-.44-0.3,0.043,0.043,0,0,1-.04-0.04c0-.02.04-0.02,0.1-0.02,0.5,0,.96.04,1.46,0.04,0.44,0,.42-0.18.42-0.8,0-.58.02-0.78-0.42-0.78-0.74,0-1.46.04-2.2,0.04h-1.261a0.425,0.425,0,0,1-.52-0.4,0.55,0.55,0,0,1,.2-0.38,0.418,0.418,0,0,0,.26-0.3c0-.26-0.38-0.26-0.58-0.3-0.4-.04-1.28-0.12-1.64-0.12a0.293,0.293,0,0,0-.36.3c0,0.08.06,0.52,0.06,0.68a0.436,0.436,0,0,1-.52.52h-0.94c-0.741,0-1.481-.04-2.2-0.04-0.44,0-.44.18-0.44,0.78,0,0.62,0,.8.44,0.8s0.88-.04,1.32-0.04a0.053,0.053,0,0,1,.06.06A0.106,0.106,0,0,1,641.456,4864.45Zm19.08-2.64c-0.22,0-.32.06-0.32,0.28,0,0.14.02,0.38,0.02,0.62,0,0.88-.08,2.08-0.08,2.62a1.3,1.3,0,0,1-.1.6c-0.24.48-2.781,0.92-3.381,1-0.24.04-.66,0.04-0.66,0.36a5.909,5.909,0,0,0,.42,1.36,0.7,0.7,0,0,0,.58.56,13.833,13.833,0,0,0,2.421-.82,1.214,1.214,0,0,1,.36-0.1,0.263,0.263,0,0,1,.26.3c0,0.16-.04.34-0.04,0.52a1.879,1.879,0,0,1-.24.94c-0.92,1.66-1.861,3.3-2.941,4.88a2.136,2.136,0,0,0-.4.72,2.863,2.863,0,0,0,1.5,1.32,0.346,0.346,0,0,0,.26-0.24c0.2-.38.821-1.46,1.041-1.82a1.332,1.332,0,0,1,.48-0.6,0.226,0.226,0,0,1,.18.26c0,0.9-.12,3.12-0.12,3.3,0,0.4.36,0.4,0.84,0.4,1.48,0,1.46-.2,1.46-0.34,0-.22-0.06-1.3-0.1-2.12-0.02-.34-0.06-0.94-0.06-1.06,0-.46-0.08-2.9,0-3.16a6.68,6.68,0,0,1,1.12-1.28,20.238,20.238,0,0,1,2.181-1.94,3,3,0,0,1,1.56-.8c0.6,0,.6.7,0.6,1.14,0,1.8-.26,3.62-0.26,5.42,0,1.26.16,3.2,1.841,3.2a5.175,5.175,0,0,0,2.82-1.16,2.6,2.6,0,0,0,.96-0.96c0-.32-0.58-1.82-0.92-1.82a0.573,0.573,0,0,0-.38.22,3.709,3.709,0,0,1-1.76,1.26c-0.46,0-.44-0.7-0.44-1.18,0-.84.06-1.74,0.1-2.6,0.06-1.02.1-2.06,0.1-3.1a3.638,3.638,0,0,0-.36-1.9,2.162,2.162,0,0,0-1.721-.88,4.712,4.712,0,0,0-2.9,1.42c-0.48.4-1.281,1.12-1.7,1.56a0.275,0.275,0,0,1-.16.1,0.169,0.169,0,0,1-.16-0.2,1.554,1.554,0,0,1,.04-0.32c0.06-.14.44-0.84,0.54-0.98a0.477,0.477,0,0,0,.12-0.22,1.433,1.433,0,0,0-.68-0.92,0.347,0.347,0,0,1-.32-0.34c0-.28.14-1.26,0.18-1.6,0.12-.82.1-0.88,0.36-1.1a0.448,0.448,0,0,0,.16-0.3,0.277,0.277,0,0,0-.22-0.22C662.416,4862.03,660.756,4861.81,660.536,4861.81Zm30.082,2.54a2.377,2.377,0,0,0-1.521,1.06,0.518,0.518,0,0,0,.18.34,13.879,13.879,0,0,1,2.681,4.28,0.6,0.6,0,0,0,.46.46c0.4,0,1.66-.74,1.66-1.18C694.078,4868.81,691.358,4864.35,690.618,4864.35Zm-7.262-1.98c-0.22,0-.22.24-0.22,0.4,0,0.24.02,0.46,0.02,0.68a18.441,18.441,0,0,1-.2,2.58,0.642,0.642,0,0,1-.66.6,31.3,31.3,0,0,1-3.321.62c-0.26.02-.6,0.02-0.6,0.32,0,0.1.34,2.06,0.84,2.06a1.66,1.66,0,0,0,.42-0.12,16.332,16.332,0,0,1,2.281-.7,0.242,0.242,0,0,1,.26.26,10.975,10.975,0,0,1-.5,1.5,16.417,16.417,0,0,1-3.561,5.58,0.748,0.748,0,0,0-.28.46c0,0.46,1.28,1.22,1.62,1.22a0.549,0.549,0,0,0,.36-0.2,23.006,23.006,0,0,0,2-2.88,23.655,23.655,0,0,0,2.54-5.94c0.14-.56.34-0.72,1.481-0.72,1.2,0,1.26.82,1.26,1.82a12.046,12.046,0,0,1-.88,4.52,1.917,1.917,0,0,1-2.081,1.22c-0.4,0-.74-0.06-0.94-0.06s-0.26.14-.26,0.34a4.34,4.34,0,0,0,.34,1.42,0.846,0.846,0,0,0,.92.48,4.088,4.088,0,0,0,3.781-2.16,14.511,14.511,0,0,0,1.2-6.14,3.205,3.205,0,0,0-1.22-2.9,3.919,3.919,0,0,0-2.28-.46c-0.08,0-.16.02-0.24,0.02a0.4,0.4,0,0,1-.44-0.42,0.849,0.849,0,0,1,.039-0.22c0.061-.34.1-0.62,0.141-0.86a1.686,1.686,0,0,1,.54-1.3,0.3,0.3,0,0,0,.16-0.24,0.538,0.538,0,0,0-.5-0.32C685.077,4862.75,683.556,4862.37,683.356,4862.37Zm19.74,3.22c-0.32,0-.34.3-0.34,0.88,0,0.14-.02.28-0.02,0.44a31.792,31.792,0,0,1-.481,4.36c-0.12.66-.28,1.32-0.46,1.96a3.072,3.072,0,0,0-.2.7c0,0.58,1.341.78,1.521,0.78a0.812,0.812,0,0,0,.6-0.42c1.26-1.58,3.381-3.34,5.481-3.34a2.17,2.17,0,0,1,2.4,2.12c0,1.7-1.481,2.32-2.9,2.68a13.371,13.371,0,0,1-2.661.4c-0.26.02-.5,0.04-0.5,0.36a4.162,4.162,0,0,0,.34,1.3,0.71,0.71,0,0,0,.74.56,13.363,13.363,0,0,0,2.6-.54c2.421-.72,4.541-1.92,4.541-4.76a4.1,4.1,0,0,0-4.361-4.16c-1.9,0-3.1.8-4.581,1.84a0.446,0.446,0,0,1-.26.12,0.211,0.211,0,0,1-.2-0.24,3.034,3.034,0,0,1,.06-0.42c0.2-.92.32-1.86,0.48-2.78a0.91,0.91,0,0,1,.42-0.78,0.26,0.26,0,0,0,.18-0.22,0.449,0.449,0,0,0-.36-0.28A14.2,14.2,0,0,0,703.1,4865.59Zm1.28-2.3a0.677,0.677,0,0,0,.46.44,16.427,16.427,0,0,1,2.521,1.7,1.446,1.446,0,0,0,.64.4,2.537,2.537,0,0,0,1.24-1.58c0-.34-1.16-0.98-1.46-1.16a13.841,13.841,0,0,0-2.281-1.26C705.016,4861.83,704.376,4863.03,704.376,4863.29ZM725,4873.57a0.494,0.494,0,0,1,.54-0.54h6.881a0.53,0.53,0,0,1,.56.54v1.8a0.572,0.572,0,0,1-.56.56h-6.881a0.53,0.53,0,0,1-.54-0.56v-1.8Zm0-4.52a0.53,0.53,0,0,1,.54-0.56h6.881a0.572,0.572,0,0,1,.56.56v1.54a0.572,0.572,0,0,1-.56.56h-6.881a0.53,0.53,0,0,1-.54-0.56v-1.54Zm0.54-2.44a0.52,0.52,0,0,1-.54-0.56v-1.44a0.53,0.53,0,0,1,.54-0.56h6.881a0.572,0.572,0,0,1,.56.56v1.44a0.559,0.559,0,0,1-.56.56h-6.881Zm7.4,12.14c0,0.46.28,0.5,0.761,0.5h0.36c0.88,0,1.14.04,1.14-.58,0-.78-0.04-1.58-0.04-2.36v-11.32c0-.64.04-1.28,0.04-1.92a0.88,0.88,0,0,0-1.08-1.02c-0.58,0-1.161.04-1.741,0.04H725.6c-0.6,0-1.18-.04-1.761-0.04a0.872,0.872,0,0,0-1.06,1c0,0.64.04,1.3,0.04,1.94v11.28c0,0.8-.06,1.6-0.06,2.38,0,0.6.3,0.58,1.141,0.58,0.88,0,1.14.02,1.14-.58v-0.2a0.463,0.463,0,0,1,.54-0.52H732.4a0.47,0.47,0,0,1,.54.54v0.28Zm19.02-3.26a1.015,1.015,0,0,0-.8-0.5,6.662,6.662,0,0,0-1.041-.38,0.28,0.28,0,0,0-.24.18,12.258,12.258,0,0,1-2.12,2.74,0.92,0.92,0,0,0-.36.52,1.728,1.728,0,0,0,1.28.92c0.58,0,2.281-2.48,2.641-3.02a0.376,0.376,0,0,1,.36-0.26A0.249,0.249,0,0,0,751.957,4875.49Zm7.762,2.48a9.065,9.065,0,0,0-1.361-1.84c-0.36-.4-0.76-0.84-1.16-1.22a0.483,0.483,0,0,0-.38-0.2,1.919,1.919,0,0,0-1.2,1,0.641,0.641,0,0,0,.26.4,20.582,20.582,0,0,1,2.16,2.56,0.568,0.568,0,0,0,.4.34A1.886,1.886,0,0,0,759.719,4877.97Zm-3.681-6.18c0.58,0,1.16.04,1.74,0.04,0.38,0,.38-0.18.38-0.78,0-.58.02-0.78-0.38-0.78-0.58,0-1.16.04-1.74,0.04h-4.4c-0.58,0-1.18-.04-1.761-0.04-0.38,0-.38.2-0.38,0.78s0,0.78.38,0.78c0.581,0,1.181-.04,1.761-0.04h4.4Zm-3.721,2.5a0.49,0.49,0,0,1,.56.56v1.42c0,0.84.02,1.08-.86,1.08-0.16,0-.3-0.02-0.44-0.02a1.23,1.23,0,0,0-.26-0.02,0.4,0.4,0,0,0-.42.5c0,1.56.64,1.46,1.2,1.46,1.32,0,2.84-.12,2.84-1.8,0-.42-0.04-0.86-0.04-1.28v-1.34a0.483,0.483,0,0,1,.561-0.56h1.8c0.64,0,1.3.04,1.94,0.04,0.4,0,.4-0.16.4-0.8,0-.66,0-0.84-0.4-0.84-0.64,0-1.3.06-1.94,0.06h-6.942c-0.64,0-1.28-.06-1.94-0.06-0.4,0-.38.22-0.38,0.84,0,0.6-.02.8,0.38,0.8,0.66,0,1.3-.04,1.94-0.04h2Zm4.121-6.4a0.451,0.451,0,0,1-.48-0.48v-0.74a0.451,0.451,0,0,1,.48-0.48h0.26a0.462,0.462,0,0,1,.48.48v0.74a0.462,0.462,0,0,1-.48.48h-0.26Zm-2.7,0a0.462,0.462,0,0,1-.48-0.48v-0.74a0.462,0.462,0,0,1,.48-0.48h0.24a0.462,0.462,0,0,1,.48.48v0.74a0.462,0.462,0,0,1-.48.48h-0.24Zm-3.2-1.22a0.451,0.451,0,0,1,.48-0.48h0.26a0.462,0.462,0,0,1,.48.48v0.74a0.462,0.462,0,0,1-.48.48h-0.26a0.451,0.451,0,0,1-.48-0.48v-0.74Zm2.72-2.7a0.446,0.446,0,0,1,.48-0.46h0.24a0.446,0.446,0,0,1,.48.46v0.26a0.462,0.462,0,0,1-.48.48h-0.24a0.462,0.462,0,0,1-.48-0.48v-0.26Zm3.321,0.74a0.41,0.41,0,0,1-.48-0.48v-0.26a0.4,0.4,0,0,1,.48-0.46h0.44c0.68,0,1.36.04,2.04,0.04,0.42,0,.42-0.2.42-0.82,0-.64,0-0.84-0.42-0.84-0.68,0-1.36.04-2.04,0.04h-6.261c-0.681,0-1.361-.04-2.041-0.04-0.44,0-.44.22-0.44,0.84,0,0.6,0,.82.44,0.82,0.68,0,1.36-.04,2.041-0.04h0.38a0.41,0.41,0,0,1,.48.46v0.26a0.41,0.41,0,0,1-.48.48h-0.16c-0.4,0-.8-0.02-1.2-0.02-0.52,0-.88.12-0.88,0.7,0,0.24.02,0.54,0.02,0.88v1.56c0,0.36-.02.66-0.02,0.9,0,0.6.4,0.7,0.92,0.7,0.381,0,.781-0.04,1.161-0.04h5.741c0.4,0,.8.04,1.2,0.04,0.52,0,.9-0.12.9-0.72,0-.28-0.02-0.56-0.02-0.88v-1.56c0-.3.02-0.58,0.02-0.88,0-.6-0.38-0.7-0.9-0.7-0.4,0-.8.02-1.2,0.02h-0.14Zm-10.262,2.5c-0.02-.06-0.04-0.12-0.06-0.2a0.319,0.319,0,0,1,.36-0.28c0.38,0,.98.04,1.26,0.04,0.46,0,.44-0.26.44-1,0-.7.02-0.96-0.44-0.96-0.34,0-.76.04-1.12,0.04a0.457,0.457,0,0,1-.5-0.54v-1.3a1.476,1.476,0,0,1,.22-1.14,0.363,0.363,0,0,0,.26-0.28c0-.24-0.32-0.26-0.5-0.28-0.3-.02-1.361-0.14-1.621-0.14-0.18,0-.34.04-0.34,0.26a0.554,0.554,0,0,0,.02.18,9.727,9.727,0,0,1,.06,1.36v1.34a0.489,0.489,0,0,1-.56.56h-0.1c-0.52,0-1.02-.06-1.4-0.06-0.44,0-.42.32-0.42,0.96,0,0.74-.02,1,0.44,1,0.36,0,.82-0.04,1.26-0.04a0.371,0.371,0,0,1,.44.36c0,0.06-.02.1-0.02,0.14a27.625,27.625,0,0,1-2.36,6.16,2.015,2.015,0,0,0-.28.64,1.992,1.992,0,0,0,1.26,1.24,0.585,0.585,0,0,0,.48-0.46,19.48,19.48,0,0,0,1.12-3.02,0.064,0.064,0,0,1,.06-0.06,0.081,0.081,0,0,1,.08.1v4.02c0,0.92-.04,1.84-0.04,2.78,0,0.58.2,0.6,0.98,0.6,0.821,0,1.021-.02,1.021-0.6,0-.94-0.06-1.86-0.06-2.78v-5.34a0.14,0.14,0,0,1,.12-0.16,0.151,0.151,0,0,1,.14.08c0.18,0.32.8,1.54,1.18,1.54a1.923,1.923,0,0,0,.98-1.32,1.016,1.016,0,0,0-.3-0.48A17.8,17.8,0,0,1,746.316,4867.21Zm24.7-1.16c-1.08,0-2,.96-2.76,1.62a18.464,18.464,0,0,1-3.221,2.4,1.06,1.06,0,0,0-.62.5,4.689,4.689,0,0,0,1.66,1.98,0.894,0.894,0,0,0,.48-0.34c0.9-.96,1.941-1.78,2.9-2.68a3.469,3.469,0,0,1,1.54-1.04c0.42,0,.861.52,1.5,1.26a30.018,30.018,0,0,0,5.1,4.98,5.978,5.978,0,0,0,1.6.92c0.54,0,1.48-1.5,1.48-1.88a0.541,0.541,0,0,0-.4-0.4,20.591,20.591,0,0,1-6.341-5.34C773.177,4867.15,772.317,4866.05,771.016,4866.05Z" transform="translate(-633.094 -4861.16)"/>
</svg>
