<svg xmlns="http://www.w3.org/2000/svg" width="320.469" height="18.22" viewBox="0 0 320.469 18.22">
  <defs>
    <style>
      .cls-1 {
        fill: #231815;
        fill-rule: evenodd;
      }
    </style>
  </defs>
  <path id="表舞台ではない支える仕事の魅力" class="cls-1" d="M640.736,5287.85c0.44-.38.84-0.78,1.241-1.2a0.446,0.446,0,0,1,.26-0.12,0.315,0.315,0,0,1,.28.24,14.1,14.1,0,0,0,4.241,5.54,12.982,12.982,0,0,0,3.2,1.88c0.54,0,1.18-1.26,1.18-1.48a0.523,0.523,0,0,0-.42-0.36,12.276,12.276,0,0,1-3.4-2.12,0.353,0.353,0,0,1-.16-0.3,0.467,0.467,0,0,1,.2-0.34,25.1,25.1,0,0,0,2.08-1.52,0.369,0.369,0,0,1,.24-0.1,0.44,0.44,0,0,1,.16.02c0.04,0,.1.02,0.16,0.02a0.187,0.187,0,0,0,.2-0.2,0.958,0.958,0,0,0-.38-0.52,3.84,3.84,0,0,1-.3-0.28,3.1,3.1,0,0,0-.92-0.78,0.62,0.62,0,0,0-.36.28,20.97,20.97,0,0,1-2.061,1.74,0.575,0.575,0,0,1-.36.14,0.508,0.508,0,0,1-.4-0.24,13.909,13.909,0,0,1-1.02-1.76,0.377,0.377,0,0,1-.04-0.16,0.333,0.333,0,0,1,.38-0.32H648.1c0.82,0,1.62.04,2.44,0.04,0.46,0,.44-0.24.44-0.9s0.02-.9-0.44-0.9c-0.82,0-1.62.04-2.44,0.04h-4.361a0.41,0.41,0,0,1-.48-0.48v-0.32a0.417,0.417,0,0,1,.48-0.48H646c0.7,0,1.4.06,2.081,0.06,0.5,0,.48-0.26.48-0.88s0.02-.86-0.48-0.86c-0.7,0-1.38.04-2.081,0.04h-2.26a0.41,0.41,0,0,1-.48-0.48v-0.22a0.41,0.41,0,0,1,.48-0.48h3.341c0.76,0,1.52.04,2.28,0.04,0.46,0,.46-0.22.46-0.9,0-.66.02-0.9-0.46-0.9-0.76,0-1.52.04-2.28,0.04h-3.261a0.449,0.449,0,0,1-.54-0.52,0.75,0.75,0,0,1,.24-0.8,0.425,0.425,0,0,0,.3-0.28c0-.26-0.38-0.24-0.54-0.26-0.38-.04-1.54-0.14-1.841-0.14-0.2,0-.36.04-0.36,0.26v0.18a6.073,6.073,0,0,1,.08,1.04,0.47,0.47,0,0,1-.56.52h-3.32c-0.761,0-1.521-.04-2.281-0.04-0.46,0-.46.22-0.46,0.9,0,0.66-.02.9,0.46,0.9,0.76,0,1.52-.04,2.281-0.04h3.4a0.41,0.41,0,0,1,.48.48v0.22a0.41,0.41,0,0,1-.48.48H638.4c-0.7,0-1.38-.04-2.081-0.04-0.5,0-.48.24-0.48,0.86s-0.02.88,0.48,0.88c0.7,0,1.381-.06,2.081-0.06h2.28a0.41,0.41,0,0,1,.48.48v0.32a0.41,0.41,0,0,1-.48.48h-4.361c-0.82,0-1.62-.04-2.44-0.04-0.44,0-.44.22-0.44,0.9s0,0.9.44,0.9c0.82,0,1.62-.04,2.44-0.04H639.5a0.244,0.244,0,0,1,.26.2,0.178,0.178,0,0,1-.1.16,12.882,12.882,0,0,1-2.5,1.78,20.572,20.572,0,0,1-3.28,1.42c-0.38.12-.66,0.18-0.66,0.44a1.9,1.9,0,0,0,.96,1.4,17.439,17.439,0,0,0,3.8-1.58,0.584,0.584,0,0,1,.18-0.04,0.281,0.281,0,0,1,.28.34v1.04a0.519,0.519,0,0,1-.5.62c-0.76.1-1.321,0.14-1.721,0.18-0.98.12-1,.12-1,0.3,0,0.14.38,1.46,0.44,1.68a0.449,0.449,0,0,0,.34.4,0.361,0.361,0,0,0,.3-0.3c0.06-.18.16-0.18,0.58-0.24,1.5-.18,5.562-0.86,6.9-1.22,0.44-.12.54-0.18,0.54-0.92,0-.26,0-0.9-0.38-0.9a2.287,2.287,0,0,0-.48.1c-0.98.22-1.6,0.32-2.581,0.48h-0.12a0.4,0.4,0,0,1-.4-0.48v-2.06A0.909,0.909,0,0,1,640.736,5287.85Zm25.3,2.5a0.5,0.5,0,0,1-.54-0.54v-0.7a0.52,0.52,0,0,1,.54-0.56h0.76a0.559,0.559,0,0,1,.56.56v0.7a0.52,0.52,0,0,1-.56.54h-0.76Zm0.04-3.26c-0.44,0-.9-0.02-1.34-0.02a0.755,0.755,0,0,0-.94.88c0,0.48.04,0.98,0.04,1.46v0.38a0.463,0.463,0,0,1-.521.54c-0.2,0-.4-0.02-0.6-0.02-0.46,0-.46.24-0.46,0.86,0,0.6-.02.88,0.44,0.88,0.721,0,1.461-.06,2.181-0.06h1.92a0.484,0.484,0,0,1,.54.56c0,0.24-.04,1.02-0.04,1.22,0,0.52.26,0.5,1.021,0.5s0.98,0.02.98-.52c0-.38-0.02-0.82-0.04-1.22a0.484,0.484,0,0,1,.56-0.54h0.2c0.74,0,1.46.06,2.2,0.06,0.44,0,.44-0.28.44-0.88,0-.62,0-0.86-0.46-0.86-0.72,0-1.44.04-2.18,0.04h-0.2a0.469,0.469,0,0,1-.56-0.54v-0.7a0.476,0.476,0,0,1,.56-0.56c0.52-.02,1.04.04,1.58,0.04,0.4,0,.42-0.18.42-0.78s-0.02-.76-0.42-0.76c-0.52,0-1.04.04-1.58,0.04a0.47,0.47,0,0,1-.52-0.38,0.372,0.372,0,0,1,.18-0.3,0.358,0.358,0,0,0,.22-0.24c0-.22-0.34-0.22-0.48-0.24-0.4-.02-1.241-0.06-1.6-0.06-0.16,0-.34,0-0.34.22a0.5,0.5,0,0,0,.02.16c0,0.12.04,0.3,0.04,0.42a0.468,0.468,0,0,1-.54.42h-0.72Zm-6.861,2.78c-0.22-.22-0.461-0.42-0.7-0.66a0.515,0.515,0,0,1-.2-0.38,0.441,0.441,0,0,1,.12-0.3,0.454,0.454,0,0,1,.4-0.16h1.641c0.16,0,.42-0.02.42,0.22a0.513,0.513,0,0,1-.1.24c-0.32.42-.48,0.64-0.84,1.04a0.486,0.486,0,0,1-.36.18A0.568,0.568,0,0,1,659.216,5289.87Zm7.4-6.88a0.53,0.53,0,0,1,.56-0.54h0.32a0.544,0.544,0,0,1,.561.54v0.5a0.561,0.561,0,0,1-.561.56h-0.32a0.572,0.572,0,0,1-.56-0.56v-0.5Zm-2.94,0a0.53,0.53,0,0,1,.56-0.54h0.26a0.555,0.555,0,0,1,.56.54v0.5a0.572,0.572,0,0,1-.56.56h-0.26a0.572,0.572,0,0,1-.56-0.56v-0.5Zm-2.981,0a0.53,0.53,0,0,1,.56-0.54h0.3a0.555,0.555,0,0,1,.56.54v0.5a0.572,0.572,0,0,1-.56.56h-0.3a0.572,0.572,0,0,1-.56-0.56v-0.5Zm5.921-2.98a0.559,0.559,0,0,1,.56-0.56h0.32a0.548,0.548,0,0,1,.561.56v0.4a0.561,0.561,0,0,1-.561.56h-0.32a0.572,0.572,0,0,1-.56-0.56v-0.4Zm-2.94,0a0.559,0.559,0,0,1,.56-0.56h0.26a0.559,0.559,0,0,1,.56.56v0.4a0.572,0.572,0,0,1-.56.56h-0.26a0.572,0.572,0,0,1-.56-0.56v-0.4Zm-2.981,0a0.559,0.559,0,0,1,.56-0.56h0.3a0.559,0.559,0,0,1,.56.56v0.4a0.572,0.572,0,0,1-.56.56h-0.3a0.572,0.572,0,0,1-.56-0.56v-0.4Zm-2.541-.34a0.471,0.471,0,0,1,.861.34v0.4a0.463,0.463,0,0,1-.521.54c-0.22,0-.44-0.02-0.66-0.02a0.269,0.269,0,0,1-.28-0.26,0.279,0.279,0,0,1,.06-0.18C657.8,5280.21,657.975,5279.95,658.155,5279.67Zm-1.2,2.16c0.02,0.4,0,.66.44,0.66,0.36,0,.74-0.02,1.1-0.04a0.47,0.47,0,0,1,.521.56v0.48a0.47,0.47,0,0,1-.541.56c-0.8.02-1.58-.04-2.38-0.04-0.44,0-.44.2-0.44,0.82,0,0.6,0,.84.44,0.84,0.58,0,1.16-.04,1.74-0.04a0.273,0.273,0,0,1,.26.44,11.627,11.627,0,0,1-2.68,3.08,0.483,0.483,0,0,0-.26.36,1.83,1.83,0,0,0,.98,1.06,1.277,1.277,0,0,0,.56-0.3,0.449,0.449,0,0,1,.28-0.12,0.568,0.568,0,0,1,.38.18c0.24,0.2.46,0.42,0.68,0.62a0.458,0.458,0,0,1,.16.34,0.387,0.387,0,0,1-.2.34,10.1,10.1,0,0,1-1.72,1.04,0.577,0.577,0,0,0-.44.46,1.77,1.77,0,0,0,1.04,1.16,1.816,1.816,0,0,0,.62-0.24,13.861,13.861,0,0,0,3.621-2.84c0.46-.5,2.02-2.38,2.02-3a1.381,1.381,0,0,0-1.18-1.22c-0.4,0-.8.02-1.22,0.02h-0.66a0.261,0.261,0,0,1-.3-0.24,0.523,0.523,0,0,1,.06-0.16,0.392,0.392,0,0,1,.38-0.24,0.232,0.232,0,0,0,.26-0.2,0.641,0.641,0,0,0-.54-0.36l-0.16-.06a0.053,0.053,0,0,1-.06-0.06c0-.06.04-0.06,0.1-0.08H669.2c0.8,0,1.6.06,2.4,0.06,0.44,0,.44-0.22.44-0.84s0-.82-0.44-0.82-0.88.02-1.32,0.02a0.463,0.463,0,0,1-.56-0.54v-0.5a0.463,0.463,0,0,1,.54-0.54h0.22c0.62,0,1.22.04,1.84,0.04,0.42,0,.42-0.24.42-0.78,0-.6,0-0.8-0.44-0.8-0.68,0-1.36.08-2.02,0.06a0.482,0.482,0,0,1-.56-0.56v-0.4a0.463,0.463,0,0,1,.52-0.54c0.36,0,.72.02,1.08,0.02,0.42,0,.44-0.2.44-0.82,0-.64-0.02-0.84-0.44-0.84-0.8,0-1.58.04-2.36,0.04h-9.3a0.267,0.267,0,0,1-.32-0.24,0.523,0.523,0,0,1,.06-0.16,0.435,0.435,0,0,1,.34-0.22,0.348,0.348,0,0,0,.28-0.24,0.51,0.51,0,0,0-.42-0.32c-0.24-.08-1.441-0.48-1.581-0.48s-0.2.12-.32,0.44a16.083,16.083,0,0,1-2.62,4.2,1.119,1.119,0,0,0-.36.52,1.926,1.926,0,0,0,1.32.94,1.315,1.315,0,0,0,.66-0.58,0.121,0.121,0,0,1,.12-0.06A0.142,0.142,0,0,1,656.955,5281.83Zm24.781,9.32a0.53,0.53,0,0,1-.54-0.56v-2.3a0.53,0.53,0,0,1,.54-0.56H689.4a0.573,0.573,0,0,1,.561.56v2.3a0.573,0.573,0,0,1-.561.56h-7.661Zm7.721,1.86a0.384,0.384,0,0,1,.461.44v0.26c0,0.46.26,0.46,1.08,0.46,0.8,0,1.08,0,1.08-.46,0-.44-0.06-1.02-0.06-1.52v-4.26c0-.42.04-0.84,0.04-1.26,0-.74-0.58-0.82-1.18-0.82-0.58,0-1.16.02-1.741,0.02h-7.121c-0.58,0-1.18-.02-1.761-0.02-0.6,0-1.16.08-1.16,0.84,0,0.4.02,0.82,0.02,1.24v4.22c0,0.34-.04,1.3-0.04,1.52,0,0.46.26,0.44,1.08,0.44,0.841,0,1.081.02,1.081-.44a0.82,0.82,0,0,0-.02-0.22,0.4,0.4,0,0,1,.46-0.44h7.781Zm-10.942-8.84c4.121-.22,8.222-0.54,12.343-0.9a0.738,0.738,0,0,1,.8.38c0.2,0.3.34,0.54,0.44,0.72a0.911,0.911,0,0,0,.6.64,2.045,2.045,0,0,0,1.42-1,12.112,12.112,0,0,0-1.44-2.26,35.764,35.764,0,0,0-2.6-3.16,0.66,0.66,0,0,0-.481-0.32,2.142,2.142,0,0,0-1.4.92,0.641,0.641,0,0,0,.2.38c0.48,0.52.96,1.04,1.4,1.6a0.26,0.26,0,0,1,.08.2,0.3,0.3,0,0,1-.281.26c-2.04.14-4.1,0.26-6.161,0.36a0.258,0.258,0,0,1-.28-0.26,0.742,0.742,0,0,1,.04-0.18c0.86-1.32,1.68-2.64,2.5-4a0.372,0.372,0,0,1,.3-0.18c0.18-.02.4-0.04,0.4-0.24,0-.34-2.241-1.02-2.281-1.02a0.472,0.472,0,0,0-.3.34,52.158,52.158,0,0,1-3,5.24,0.812,0.812,0,0,1-.8.42c-0.62.02-1.22,0.06-1.84,0.06h-0.74a0.254,0.254,0,0,0-.3.26,9.975,9.975,0,0,0,.28,1.18c0.2,0.78.26,1.02,0.52,1.02a0.345,0.345,0,0,0,.28-0.22A0.408,0.408,0,0,1,678.515,5284.17Zm20.86-3.74a8.959,8.959,0,0,0,.22,1.44,0.743,0.743,0,0,0,.44.66,1.544,1.544,0,0,0,.3-0.04c1.28-.34,3.081-0.62,4.421-0.82,0.2-.02,1.12-0.18,1.26-0.18a0.259,0.259,0,0,1,.3.24,1.081,1.081,0,0,1-.34.48,8.883,8.883,0,0,0-2.2,5.74c0,3.9,2.92,4.98,6.321,4.98a0.555,0.555,0,0,0,.64-0.34,5.66,5.66,0,0,0,.3-1.64c0-.32-0.16-0.34-0.46-0.34-0.22,0-.66.02-1,0.02-2.04,0-3.521-.56-3.521-2.88a7.477,7.477,0,0,1,.961-3.52,6.078,6.078,0,0,1,3.4-2.98,9.916,9.916,0,0,1,3.321-.42c0.48-.02.9,0.02,0.9-0.42a9.1,9.1,0,0,0-.18-1.46c-0.04-.24-0.08-0.5-0.38-0.5a1.14,1.14,0,0,0-.26.02c-1.5.24-3.021,0.44-4.541,0.62-2.9.34-5.821,0.64-8.742,0.82C699.655,5279.97,699.375,5279.91,699.375,5280.43Zm15.123,1.16a1.668,1.668,0,0,0-1.02.76,0.478,0.478,0,0,0,.14.26,16.923,16.923,0,0,1,1.3,1.66,0.478,0.478,0,0,0,.3.26,1.648,1.648,0,0,0,1.02-.84A8.128,8.128,0,0,0,714.5,5281.59Zm-2.42,1.1a1.7,1.7,0,0,0-1.021.74,0.526,0.526,0,0,0,.18.28c0.441,0.54.881,1.1,1.281,1.68a0.415,0.415,0,0,0,.28.24,1.636,1.636,0,0,0,1.02-.84A7.746,7.746,0,0,0,712.078,5282.69Zm19.539,7.12a1.044,1.044,0,0,1-1.26,1.1c-0.5,0-1.46-.22-1.46-0.86,0-.62.98-0.78,1.44-0.78C730.717,5289.27,731.617,5289.29,731.617,5289.81Zm-0.4-12.12a0.245,0.245,0,0,0-.28.28c0,0.06.02,0.14,0.02,0.2,0.08,0.5.24,2.44,0.24,2.86,0,0.44-.46.48-0.94,0.48h-0.32c-1.04,0-2.821-.2-3.061-0.2-0.3,0-.32.24-0.32,0.5a4.007,4.007,0,0,0,.2,1.52,4.442,4.442,0,0,0,1.52.16h0.26c0.8,0,2.221-.08,2.381-0.08,0.5,0,.46.56,0.48,0.76,0.02,0.58.12,2.48,0.12,2.98a0.365,0.365,0,0,1-.4.42h-0.14a5.123,5.123,0,0,0-.78-0.06c-1.561,0-3.141.72-3.141,2.52,0,1.84,1.741,2.6,3.341,2.6,1.2,0,2.54-.4,2.9-1.68a0.328,0.328,0,0,1,.3-0.32,5.684,5.684,0,0,1,1.48,1.1,0.915,0.915,0,0,0,.56.3,1.792,1.792,0,0,0,1.16-1.38,1.072,1.072,0,0,0-.52-0.76,11.106,11.106,0,0,0-2.16-1.4,0.809,0.809,0,0,1-.68-0.78c-0.02-.52-0.161-3.58-0.161-3.98,0-.5.241-0.58,0.681-0.64,2.36-.32,2.5-0.46,2.5-0.84,0-.3-0.14-1.68-0.54-1.68a1.594,1.594,0,0,0-.3.06,12.715,12.715,0,0,1-2,.5,0.441,0.441,0,0,1-.421-0.52v-0.56a2.767,2.767,0,0,1,.221-1.42,0.8,0.8,0,0,0,.22-0.4,0.2,0.2,0,0,0-.2-0.18A18.975,18.975,0,0,0,731.217,5277.69Zm-6.361.66a7.574,7.574,0,0,0-1.281-.52,0.328,0.328,0,0,0-.26.34c-0.22.88-.5,1.74-0.72,2.62a22.973,22.973,0,0,0-.7,5.6,14.4,14.4,0,0,0,1.18,6.16,0.894,0.894,0,0,0,.64.66c0.1,0,1.521-.24,1.521-1.02,0-.32-0.04-0.64-0.04-0.96a20.158,20.158,0,0,1,.98-3.64,1.243,1.243,0,0,0-.86-0.64,1.55,1.55,0,0,0-.54.88,1.126,1.126,0,0,1-.44.72c-0.38,0-.44-1.9-0.44-2.22a18.465,18.465,0,0,1,1.1-6.08,1.42,1.42,0,0,1,.82-1.02,0.213,0.213,0,0,0,.18-0.2,0.726,0.726,0,0,0-.52-0.4C725.356,5278.59,725.116,5278.47,724.856,5278.35Zm26.181,11.7c1,0,1.02.22,1.02,0.62a0.934,0.934,0,0,1-1.04,1.08,1.237,1.237,0,0,1-1.321-.94C749.7,5290.17,750.557,5290.05,751.037,5290.05Zm0.98-7.06a0.4,0.4,0,0,0-.48.44c0,0.1.02,0.18,0.02,0.28,0.06,0.78.36,3.68,0.36,4.32a0.351,0.351,0,0,1-.42.34h-0.52c-1.581,0-3.321.64-3.321,2.48,0,1.86,1.9,2.72,3.521,2.72,1.36,0,2.54-.5,2.78-1.96a0.441,0.441,0,0,1,.32-0.46,5.692,5.692,0,0,1,1.6.92,1.02,1.02,0,0,0,.52.28,2.188,2.188,0,0,0,1.24-1.46c0-.48-2.36-1.58-2.821-1.76-0.06-.02-0.14-0.06-0.2-0.08a0.779,0.779,0,0,1-.62-0.5c-0.1-.42-0.2-3.3-0.2-3.88,0-.42.04-1.02,0.04-1.06a0.449,0.449,0,0,0-.4-0.42A8.374,8.374,0,0,0,752.017,5282.99Zm3.061-3.08a2.573,2.573,0,0,0-1.341,1.38,0.524,0.524,0,0,0,.26.32,11.338,11.338,0,0,1,2.5,2.58,0.66,0.66,0,0,0,.44.36,2.431,2.431,0,0,0,1.5-1.38C758.438,5282.65,755.578,5279.91,755.078,5279.91Zm-6.722-3.26c-0.18,0-.18.2-0.18,0.34a12.209,12.209,0,0,1-.64,3.36,0.684,0.684,0,0,1-.6.32,17.766,17.766,0,0,1-2.061.1h-0.92a0.291,0.291,0,0,0-.36.32c0,0.2.1,0.92,0.14,1.16,0.08,0.46.16,0.64,0.5,0.64,0.46,0,2-.2,2.161-0.2a0.269,0.269,0,0,1,.28.26,7.819,7.819,0,0,1-.46,1.22,37.351,37.351,0,0,1-2.381,4.62,2.213,2.213,0,0,0-.36.72c0,0.42,1.34,1,1.78,1a0.4,0.4,0,0,0,.4-0.28,50.89,50.89,0,0,0,3.26-7.12c0.24-.66.22-0.8,0.94-0.92,1.841-.34,2.081-0.38,2.081-0.82a9.5,9.5,0,0,0-.1-1.06c-0.04-.24-0.06-0.6-0.3-0.6a0.711,0.711,0,0,0-.2.04,9.73,9.73,0,0,1-1.14.3,0.233,0.233,0,0,1-.221-0.26,6.358,6.358,0,0,1,.221-0.9,3.462,3.462,0,0,1,.36-1.06,0.582,0.582,0,0,0,.32-0.36,0.407,0.407,0,0,0-.32-0.24C750.236,5277.13,748.576,5276.65,748.356,5276.65Zm26.5,4.58a0.33,0.33,0,0,0,.18.3,7.669,7.669,0,0,1,2.961,5.7c0.04,0.48.02,0.76,0.66,0.76a4.228,4.228,0,0,0,1.12-.18,0.558,0.558,0,0,0,.54-0.58,10.911,10.911,0,0,0-1.18-4.16c-0.96-1.84-2.64-3.1-3.081-3.1A1.933,1.933,0,0,0,774.857,5281.23Zm-9.022-1.3a0.249,0.249,0,0,0-.28.22c-0.04.18-.1,2.72-0.1,3.04a14.432,14.432,0,0,0,1.16,6.52c0.66,1.22,1.821,2.56,3.3,2.56a2.88,2.88,0,0,0,2.141-1.26,5.593,5.593,0,0,0,1.18-1.74,2.22,2.22,0,0,0-1.441-1.18,0.791,0.791,0,0,0-.54.5,2.354,2.354,0,0,1-1.38,1.32c-0.7,0-1.36-1.18-1.6-1.74a11.428,11.428,0,0,1-.64-4.18,14.9,14.9,0,0,1,.16-2.12,1.458,1.458,0,0,1,.36-0.96,0.349,0.349,0,0,0,.2-0.26,0.45,0.45,0,0,0-.44-0.28C767.576,5280.31,766.1,5279.93,765.835,5279.93Zm30.562,5.2c0.42,0,.66.02,0.66,0.24,0,0.54-1.9,2.32-2.38,2.72a0.546,0.546,0,0,1-.38.16,0.624,0.624,0,0,1-.42-0.18,8.3,8.3,0,0,1-1.981-2.44,0.386,0.386,0,0,1-.06-0.2,0.33,0.33,0,0,1,.38-0.3H796.4Zm-1.22-7.06a1.169,1.169,0,0,1,.26-1.12,0.452,0.452,0,0,0,.28-0.3c0-.24-0.34-0.26-0.52-0.26-0.44-.04-1.441-0.12-1.841-0.12-0.2,0-.36.04-0.36,0.28,0,0.06.02,0.14,0.02,0.18a11.262,11.262,0,0,1,.08,1.64,0.49,0.49,0,0,1-.56.56h-4.1c-0.84,0-1.66-.06-2.48-0.06-0.48,0-.48.24-0.48,1s0,1,.48,1c0.82,0,1.64-.04,2.48-0.04h4.1a0.476,0.476,0,0,1,.56.54v1.36a0.482,0.482,0,0,1-.56.56h-2.7c-0.84,0-1.661-.06-2.5-0.06-0.52,0-.5.22-0.5,0.98s-0.02.96,0.5,0.96,1.04-.04,1.58-0.02a0.659,0.659,0,0,1,.641.46,11.676,11.676,0,0,0,2.6,3.64,0.425,0.425,0,0,1,.14.3,0.4,0.4,0,0,1-.22.32,21.4,21.4,0,0,1-4.761,1.8c-0.28.06-.5,0.12-0.72,0.16-0.98.22-1.18,0.26-1.18,0.7s0.34,1.46.9,1.46a11.934,11.934,0,0,0,1.54-.34,23.517,23.517,0,0,0,5.9-2.48,0.816,0.816,0,0,1,.421-0.14,0.839,0.839,0,0,1,.44.16,21.191,21.191,0,0,0,6.741,2.7,2.936,2.936,0,0,0,.58.1c0.6,0,.94-1.14.94-1.54,0-.42-0.18-0.48-0.56-0.56a18.554,18.554,0,0,1-5.861-2.02,0.376,0.376,0,0,1-.22-0.32,0.411,0.411,0,0,1,.16-0.3,18.328,18.328,0,0,0,3.161-3.52,2.87,2.87,0,0,0,.58-1.22,1.605,1.605,0,0,0-.48-0.88,1.033,1.033,0,0,0-.94-0.36c-0.541,0-1.081.02-1.641,0.02h-1.34a0.476,0.476,0,0,1-.56-0.56v-1.36a0.469,0.469,0,0,1,.56-0.54h4.1c0.82,0,1.66.04,2.48,0.04,0.48,0,.46-0.24.46-1,0-.74.02-1-0.46-1-0.82,0-1.66.06-2.48,0.06h-4.1a0.476,0.476,0,0,1-.56-0.56v-0.3Zm23.76,9.78a1.777,1.777,0,0,0-1.74-2c-0.14,0-.26.02-0.4,0.02a0.2,0.2,0,0,1-.2-0.2,0.737,0.737,0,0,1,.26-0.4,25.271,25.271,0,0,1,2.78-2.7,0.771,0.771,0,0,0,.44-0.5c0-.3-0.92-1.7-1.4-1.7a1.773,1.773,0,0,0-.56.14,42.351,42.351,0,0,1-7.221,1.44c-0.221.02-.421,0.06-0.421,0.32a3.01,3.01,0,0,0,.461,1.12,1.492,1.492,0,0,1,.14.24,0.62,0.62,0,0,0,.54.46c0.34,0,2.68-.62,3.14-0.74a12.385,12.385,0,0,1,1.221-.32,0.163,0.163,0,0,1,.18.16,3.282,3.282,0,0,1-.72.94c-2.141,2.38-4.2,4.84-6.482,7.1a1.338,1.338,0,0,0-.48.68,2.627,2.627,0,0,0,1.6,1.46,1.275,1.275,0,0,0,.561-0.52,43.035,43.035,0,0,1,3.8-4.54,3.215,3.215,0,0,1,1.781-.84,0.6,0.6,0,0,1,.66.72,8.951,8.951,0,0,1-.12,1.26,10.326,10.326,0,0,0-.18,1.58,2.3,2.3,0,0,0,2.46,2.3,9.915,9.915,0,0,0,3.7-1.02,1.4,1.4,0,0,0,.34-1.2c0-.22.02-1.26-0.26-1.26a1.584,1.584,0,0,0-.56.26,6.593,6.593,0,0,1-2.961,1.2,0.576,0.576,0,0,1-.66-0.66c0-.3.1-0.98,0.14-1.3A9.55,9.55,0,0,0,818.937,5287.85Zm-5.521-10.98c-0.22,0-.3.08-0.5,0.62a5.308,5.308,0,0,0-.3,1.02c0,0.32.44,0.4,1.14,0.62,0.14,0.04.48,0.16,0.86,0.3,0.861,0.3,1.981.7,2.121,0.7,0.46,0,.74-1.6.74-1.7a0.409,0.409,0,0,0-.38-0.38C816.657,5277.91,813.576,5276.87,813.416,5276.87Zm24.061,13.88a0.6,0.6,0,0,1-.541.68c-0.6,0-1.56-.34-1.56-1.06a0.828,0.828,0,0,1,.86-0.8A1.223,1.223,0,0,1,837.477,5290.75Zm1.86-12.96a2.729,2.729,0,0,0-.76.22,18.543,18.543,0,0,1-5.061.74h-0.48c-0.6,0-.62.04-0.62,0.5,0,0.34.06,1.84,0.5,1.84,0.32,0,3.14-.58,3.62-0.7a4.8,4.8,0,0,1,.48-0.08,0.287,0.287,0,0,1,.341.24,1.744,1.744,0,0,1-.521.72,79.98,79.98,0,0,1-6.221,6.28,1.006,1.006,0,0,0-.48.6,2.738,2.738,0,0,0,1.44,1.44,0.271,0.271,0,0,0,.22-0.14c0.721-.82,1.441-1.64,2.221-2.4a6.072,6.072,0,0,1,4.481-1.96c1.74,0,3.381.8,3.381,2.74a3.251,3.251,0,0,1-2.421,3.08,0.248,0.248,0,0,1-.24-0.26,1.989,1.989,0,0,0-.36-1.28,3.263,3.263,0,0,0-2.661-1.42,2.511,2.511,0,0,0-2.56,2.42c0,2.04,2.36,2.72,4.021,2.72,3.22,0,6.361-1.84,6.361-5.38a4.133,4.133,0,0,0-2.381-3.88,5.866,5.866,0,0,0-2.46-.6,3.8,3.8,0,0,0-.82.08,1.171,1.171,0,0,1-.26.04,0.3,0.3,0,0,1-.34-0.26,0.6,0.6,0,0,1,.2-0.34,19.368,19.368,0,0,1,2.9-2.68,0.885,0.885,0,0,0,.44-0.42C841.3,5279.31,840.137,5277.79,839.337,5277.79Zm20.54,6.36a0.482,0.482,0,0,1,.56.56v6.12a0.476,0.476,0,0,1-.56.56h-1.14c-0.741,0-1.481-.06-2.241-0.06-0.5,0-.5.2-0.5,1.04,0,0.78,0,1.02.48,1.02,0.76,0,1.52-.06,2.261-0.06h5.581c0.76,0,1.5.06,2.26,0.06,0.5,0,.48-0.22.48-1.02s0.02-1.04-.48-1.04c-0.76,0-1.5.06-2.26,0.06h-1.241a0.476,0.476,0,0,1-.56-0.56v-6.12a0.482,0.482,0,0,1,.56-0.56H865.3c0.76,0,1.52.06,2.28,0.06,0.5,0,.48-0.24.48-1.02,0-.76.021-1.02-0.48-1.02-0.76,0-1.52.04-2.28,0.04h-2.221a0.469,0.469,0,0,1-.56-0.54v-3.36c0-.82.02-1.02,0.28-1.18a0.55,0.55,0,0,0,.32-0.36,0.3,0.3,0,0,0-.36-0.26c-0.32-.04-1.78-0.16-2.04-0.16a0.272,0.272,0,0,0-.34.3,0.617,0.617,0,0,0,.02.18c0.04,0.38.04,0.98,0.04,1.56v3.28a0.469,0.469,0,0,1-.56.54h-1.741c-0.76,0-1.52-.04-2.28-0.04-0.5,0-.48.24-0.48,1.02s-0.02,1.02.48,1.02c0.76,0,1.52-.06,2.28-0.06h1.741Zm-7.262,6.7c0,0.9-.04,1.82-0.04,2.72,0,0.58.22,0.58,1.04,0.58,0.841,0,1.061,0,1.061-.58,0-.9-0.06-1.82-0.06-2.72v-7.42a1.483,1.483,0,0,1,.24-1.18,0.345,0.345,0,0,0,.22-0.28c0-.2-0.24-0.22-0.4-0.24a0.179,0.179,0,0,1-.18-0.18,0.217,0.217,0,0,1,.02-0.1,27.872,27.872,0,0,0,1.8-3.42,0.638,0.638,0,0,1,.5-0.52,0.365,0.365,0,0,0,.28-0.28,1.141,1.141,0,0,0-.8-0.52,7.3,7.3,0,0,0-1.32-.44,0.412,0.412,0,0,0-.38.4,22.66,22.66,0,0,1-4.261,7.12,1.044,1.044,0,0,0-.32.6,2.327,2.327,0,0,0,1.1,1.48,2.056,2.056,0,0,0,.96-0.86l0.22-.28a0.178,0.178,0,0,1,.16-0.1,0.187,0.187,0,0,1,.16.22v6Zm29.3-8.5a0.462,0.462,0,0,1,.48-0.48h2.02a0.462,0.462,0,0,1,.48.48v0.12a0.462,0.462,0,0,1-.48.48H882.4a0.462,0.462,0,0,1-.48-0.48v-0.12Zm-2.561-.48a0.462,0.462,0,0,1,.48.48v0.12a0.462,0.462,0,0,1-.48.48h-2.02a0.462,0.462,0,0,1-.48-0.48v-0.12a0.462,0.462,0,0,1,.48-0.48h2.02Zm5.662,6.74a0.393,0.393,0,0,1,.38.38v0.1a0.357,0.357,0,0,1-.38.38H882.3a0.357,0.357,0,0,1-.38-0.38v-0.1a0.393,0.393,0,0,1,.38-0.38h2.721Zm-3.1-1.74a0.393,0.393,0,0,1,.38-0.38h2.721a0.393,0.393,0,0,1,.38.38v0.08a0.357,0.357,0,0,1-.38.38H882.3a0.357,0.357,0,0,1-.38-0.38v-0.08Zm5.561-.08c0-.28.04-0.58,0.04-0.88a0.729,0.729,0,0,0-.9-0.8c-0.54,0-1.08.04-1.621,0.04h-2.7a0.324,0.324,0,0,1-.38-0.38v-0.1a0.324,0.324,0,0,1,.38-0.38h1.66c0.62,0,1.221.02,1.821,0.02,0.46,0,1.12-.04,1.12-0.64,0-.2-0.04-0.38-0.04-0.72v-1.08c0-.34.04-0.52,0.04-0.72,0-.62-0.68-0.66-1.14-0.66-0.6,0-1.2.04-1.8,0.04H882.3a0.324,0.324,0,0,1-.38-0.38v-0.12a0.324,0.324,0,0,1,.38-0.38h4.061c0.82,0,1.66.04,2.48,0.04,0.46,0,.44-0.24.44-0.78s0.02-.76-0.44-0.76c-0.82,0-1.64.04-2.48,0.04h-3.881a0.469,0.469,0,0,1-.54-0.56,0.623,0.623,0,0,1,.2-0.58,0.394,0.394,0,0,0,.24-0.28c0-.24-0.34-0.24-0.54-0.26-0.32-.04-1.481-0.16-1.741-0.16-0.2,0-.36.04-0.36,0.28,0,0.04.02,0.12,0.02,0.18,0.04,0.28.06,0.56,0.08,0.84a0.483,0.483,0,0,1-.56.54h-3.9c-0.82,0-1.66-.04-2.48-0.04-0.44,0-.44.2-0.44,0.76s0,0.78.44,0.78c0.84,0,1.66-.04,2.48-0.04h4.081a0.324,0.324,0,0,1,.38.38v0.12a0.331,0.331,0,0,1-.38.38H877.8c-0.6,0-1.2-.04-1.8-0.04-0.461,0-1.141.04-1.141,0.66,0,0.2.04,0.38,0.04,0.72v1.08c0,0.34-.04.52-0.04,0.72,0,0.6.68,0.64,1.141,0.64,0.6,0,1.2-.02,1.8-0.02h1.66a0.331,0.331,0,0,1,.38.38v0.1a0.331,0.331,0,0,1-.38.38h-4.121c-0.5,0-1.02-.04-1.52-0.04-0.34,0-.34.18-0.34,0.7,0,0.54,0,.72.36,0.72,0.5,0,1-.04,1.5-0.04h4.121a0.331,0.331,0,0,1,.38.38v0.1a0.317,0.317,0,0,1-.38.36h-4.5c-0.84,0-1.7-.02-2.54-0.02-0.42,0-.4.24-0.4,0.66s-0.02.68,0.38,0.68c0.86,0,1.72-.04,2.56-0.04h4.5a0.331,0.331,0,0,1,.38.38v0.12a0.317,0.317,0,0,1-.38.36h-3.12c-0.8,0-1.621-.02-2.441-0.02-0.46,0-.48.14-0.48,0.7s0.02,0.72.48,0.72c0.82,0,1.64-.04,2.441-0.04h2.94a0.477,0.477,0,0,1,.56.52c-0.04.78-.12,1.04-1.12,1.04-0.48,0-.86-0.08-1.12-0.08a0.366,0.366,0,0,0-.38.46c0,1.58.66,1.48,1.22,1.48,1.46,0,3.521-.04,3.521-1.98,0-.2,0-0.72-0.02-0.92a0.456,0.456,0,0,1,.54-0.52h2.6a0.343,0.343,0,0,1,.321.24c0.1,0.24.38,0.24,0.98,0.24,0.84,0,1.16.02,1.16-.46,0-.38-0.06-0.9-0.06-1.42v-0.26a0.47,0.47,0,0,1,.54-0.54c0.42,0,.84.02,1.26,0.02,0.4,0,.4-0.22.4-0.68,0-.42.02-0.66-0.4-0.66s-0.84,0-1.28.02A0.489,0.489,0,0,1,887.478,5286.79Zm13.758-5.88a0.316,0.316,0,0,1,.32.36,20.34,20.34,0,0,1-.64,3.9c-0.56,2.04-1.68,4.32-2.68,4.32-1.021,0-1.281-1.86-1.281-2.6a6.189,6.189,0,0,1,3.6-5.76A2.25,2.25,0,0,1,901.236,5280.91Zm1.921-2.34a8.241,8.241,0,0,0-8.3,8.4,6.269,6.269,0,0,0,.62,2.84,3.224,3.224,0,0,0,2.721,1.9,3.583,3.583,0,0,0,2.64-1.54c1.921-2.3,2.621-5.86,2.841-8.78,0.02-.34.02-0.78,0.48-0.78a3.493,3.493,0,0,1,.76.18,4.851,4.851,0,0,1,3.2,4.78c0,2.86-2.061,4.58-4.681,5.2-0.2.04-.5,0.08-0.5,0.28a2.388,2.388,0,0,0,1.34,1.68,7.781,7.781,0,0,0,2.18-.8,7.185,7.185,0,0,0,3.9-6.46,6.765,6.765,0,0,0-2.02-4.92A7.115,7.115,0,0,0,903.157,5278.57Zm13.9,8.02c-0.3,0-.28.28-0.28,0.48a13.807,13.807,0,0,1-1.14,5.38,8.794,8.794,0,0,0-.44,1.08c0,0.4.98,0.78,1.32,0.78a0.841,0.841,0,0,0,.56-0.66,18.843,18.843,0,0,0,1.36-5.84c0.02-.4,0-0.4.26-0.58a0.371,0.371,0,0,0,.14-0.24c0-.24-0.46-0.24-0.82-0.28C917.875,5286.69,917.135,5286.59,917.055,5286.59Zm1.94-2.62a0.52,0.52,0,0,1-.56.54h-0.26a0.53,0.53,0,0,1-.56-0.54v-0.3a0.572,0.572,0,0,1,.56-0.56h0.26a0.559,0.559,0,0,1,.56.56v0.3Zm1.821,0.54a0.494,0.494,0,0,1-.54-0.54v-0.3a0.53,0.53,0,0,1,.54-0.56h0.32a0.572,0.572,0,0,1,.56.56v0.3a0.53,0.53,0,0,1-.56.54h-0.32Zm-0.54-3.72a0.52,0.52,0,0,1,.54-0.56h0.32a0.559,0.559,0,0,1,.56.56v0.24a0.572,0.572,0,0,1-.56.56h-0.32a0.53,0.53,0,0,1-.54-0.56v-0.24Zm-1.841-.56a0.547,0.547,0,0,1,.56.56v0.24a0.559,0.559,0,0,1-.56.56h-0.26a0.572,0.572,0,0,1-.56-0.56v-0.24a0.559,0.559,0,0,1,.56-0.56h0.26Zm-0.98-1.64c-0.22,0-.42-0.02-0.64-0.02a0.668,0.668,0,0,0-.8.8c0,0.44.02,0.9,0.02,1.34v3.32c0,0.46-.02.9-0.02,1.36a0.667,0.667,0,0,0,.8.78c0.44,0,.86-0.04,1.28-0.04h0.38a0.482,0.482,0,0,1,.56.56v4.2c0,0.38-.02.76-0.02,1.14,0,1.92,1.141,1.98,2.741,1.98h7.7c1.1,0,2.56.04,3.28-1a3.856,3.856,0,0,0,.641-1.92,0.51,0.51,0,0,0-.5-0.56,4,4,0,0,0-.98-0.14,0.471,0.471,0,0,0-.58.52c-0.16.88-.24,1.22-2.04,1.22H922.1c-1.22,0-1.32-.18-1.32-1.18v-0.28c0.02-.04.02-0.1,0.08-0.1a0.064,0.064,0,0,1,.06.06c0.12,0.36.16,0.6,0.34,0.6a0.187,0.187,0,0,0,.18-0.1,0.353,0.353,0,0,1,.28-0.24l1.46-.3h0.08a0.213,0.213,0,0,1,.2.18c0.06,0.3.06,0.46,0.32,0.46a0.7,0.7,0,0,0,.741-0.44,8.941,8.941,0,0,0-.18-0.9,0.222,0.222,0,0,1,.22-0.26,0.284,0.284,0,0,1,.12.04,0.931,0.931,0,0,0,.4.12,0.707,0.707,0,0,0,.42-0.32,12.532,12.532,0,0,0,1.76-3.26,0.17,0.17,0,0,1,.1-0.06c0.08,0,.1.04,0.1,0.12v1.62c0,0.9-.04,1.82-0.04,2.72,0,0.54.22,0.56,0.94,0.56,0.741,0,.961-0.02.961-0.54,0-.92-0.04-1.84-0.04-2.74v-1.7a0.132,0.132,0,0,1,.12-0.14,0.164,0.164,0,0,1,.12.08,16.8,16.8,0,0,0,1.8,3,1.893,1.893,0,0,0,.74.7,1.951,1.951,0,0,0,1.28-.98,0.876,0.876,0,0,0-.28-0.44,23.259,23.259,0,0,1-2.54-3.58,0.584,0.584,0,0,1-.04-0.18,0.281,0.281,0,0,1,.34-0.28c0.62,0,1.22.04,1.84,0.04,0.5,0,.5-0.24.5-0.94,0-.68.02-0.92-0.52-0.92-0.72,0-1.44.04-2.16,0.04h-0.64a0.476,0.476,0,0,1-.56-0.56v-0.8a0.476,0.476,0,0,1,.56-0.56h0.12c0.68,0,1.34.04,2.02,0.04,0.54,0,.5-0.28.5-0.94,0-.68.02-0.94-0.5-0.94-0.68,0-1.34.04-2.02,0.04h-0.12a0.457,0.457,0,0,1-.56-0.5v-0.58a1.023,1.023,0,0,1,.22-0.92,0.335,0.335,0,0,0,.22-0.28,0.277,0.277,0,0,0-.32-0.22c-0.18-.02-1.461-0.1-1.621-0.1-0.18,0-.4,0-0.4.24,0,0.06.02,0.12,0.02,0.2a14.263,14.263,0,0,1,.06,1.6,0.476,0.476,0,0,1-.56.56c-0.66.02-1.32-.04-1.98-0.04-0.54,0-.52.26-0.52,0.94,0,0.64-.02.94,0.5,0.94,0.66,0,1.34-.06,2-0.04a0.476,0.476,0,0,1,.56.56v0.8a0.476,0.476,0,0,1-.56.56h-0.4c-0.72,0-1.44-.04-2.16-0.04-0.521,0-.5.24-0.5,0.92,0,0.64-.021.94,0.46,0.94,0.6,0,1.18-.06,1.78-0.04a0.291,0.291,0,0,1,.34.28,0.338,0.338,0,0,1-.06.2,18.658,18.658,0,0,1-2.3,3.52c0,0.02-.019.02-0.039,0.02a0.116,0.116,0,0,1-.1-0.04,0.3,0.3,0,0,0-.281-0.1,0.76,0.76,0,0,0-.72.32,4.865,4.865,0,0,0,.18.6v0.12a0.282,0.282,0,0,1-.26.28c-0.06,0-.1.02-0.16,0.02H922.6a0.222,0.222,0,0,1-.22-0.22,0.1,0.1,0,0,1,.02-0.08c0.28-1.28.24-1.26,0.36-1.84a0.369,0.369,0,0,1,.26-0.3,0.175,0.175,0,0,0,.16-0.18,0.4,0.4,0,0,0-.38-0.24c-0.16-.02-0.72-0.16-0.82-0.16-0.2,0-.2.12-0.22,0.24a20.613,20.613,0,0,1-.46,2.74,0.256,0.256,0,0,1-.24.22H920.9c-0.06.02-.1,0-0.12-0.08v-3a0.491,0.491,0,0,1,.54-0.56c0.4,0.02.8,0.04,1.2,0.04a0.674,0.674,0,0,0,.8-0.8c0-.46-0.04-0.9-0.04-1.34v-3.32c0-.44.04-0.9,0.04-1.34a0.681,0.681,0,0,0-.82-0.8c-0.44,0-.86.04-1.28,0.04h-0.8a0.337,0.337,0,0,1-.38-0.32,0.584,0.584,0,0,1,.04-0.18c0.06-.16.18-0.52,0.24-0.66a0.408,0.408,0,0,1,.3-0.24,0.34,0.34,0,0,0,.3-0.28,0.586,0.586,0,0,0-.56-0.32c-0.26-.06-1.3-0.28-1.481-0.28a0.3,0.3,0,0,0-.26.34c-0.14.48-.26,0.98-0.44,1.44A0.628,0.628,0,0,1,917.455,5278.59Zm28.822-.22a1.076,1.076,0,0,1,.24-1,0.474,0.474,0,0,0,.34-0.34,0.3,0.3,0,0,0-.3-0.28c-0.26-.04-1.781-0.14-2.041-0.14-0.2,0-.46,0-0.46.34,0,0.08.02,0.14,0.02,0.22a18.544,18.544,0,0,1,.06,2.1v0.62a0.482,0.482,0,0,1-.56.56h-2.54c-0.781,0-1.561-.06-2.341-0.06-0.5,0-.48.26-0.48,1.02s-0.02,1.04.48,1.04c0.78,0,1.56-.06,2.341-0.06h2.48a0.449,0.449,0,0,1,.52.54,10.565,10.565,0,0,1-.68,3.32,10.98,10.98,0,0,1-5.061,5.6,1.054,1.054,0,0,0-.68.58,2.016,2.016,0,0,0,1.34,1.48,11.241,11.241,0,0,0,2.4-1.54c3.34-2.64,4.361-5.28,4.8-9.44a0.52,0.52,0,0,1,.62-0.54h3.561c1.1,0,1.32-.02,1.32.7a48.118,48.118,0,0,1-.56,7.5c-0.28,1.06-.82,1.18-1.8,1.18-0.6,0-1.16-.1-1.62-0.1-0.44,0-.46.3-0.46,0.72,0,1.58.28,1.54,1.92,1.54,1.561,0,3.081-.14,3.7-1.82,0.78-2.1.86-8.06,0.86-10.52,0-.94-0.38-1.2-1.3-1.2-0.74,0-1.48.06-2.221,0.06h-3.34a0.482,0.482,0,0,1-.56-0.56v-1.52Z" transform="translate(-633.219 -5276.09)"/>
</svg>
