<svg xmlns="http://www.w3.org/2000/svg" width="408.687" height="28.9" viewBox="0 0 408.687 28.9">
  <defs>
    <style>
      .cls-1 {
        fill: #231815;
        fill-rule: evenodd;
      }
    </style>
  </defs>
  <path id="華やかな部分だけではない" class="cls-1" d="M182.581,6457.31a0.762,0.762,0,0,1,.864-0.86h3.584a0.762,0.762,0,0,1,.864.86v0.36a0.717,0.717,0,0,1-.768.8h-3.808a0.668,0.668,0,0,1-.736-0.8v-0.36Zm5.056,10.91a0.91,0.91,0,0,1-.9-0.89v-0.51a0.85,0.85,0,0,1,.9-0.87h1.536a0.85,0.85,0,0,1,.9.87v0.51a0.91,0.91,0,0,1-.9.89h-1.536Zm-6.559,0a0.851,0.851,0,0,1-.9-0.89v-0.51a0.8,0.8,0,0,1,.9-0.87h1.535a0.85,0.85,0,0,1,.9.87v0.51a0.91,0.91,0,0,1-.9.89h-1.535Zm5.663-6.17a0.926,0.926,0,0,1,.9-0.9h1.536a0.926,0.926,0,0,1,.9.9v0.35a0.855,0.855,0,0,1-.9.87h-1.536a0.855,0.855,0,0,1-.9-0.87v-0.35Zm-6.559,0a0.864,0.864,0,0,1,.9-0.9h1.535a0.926,0.926,0,0,1,.9.9v0.35a0.855,0.855,0,0,1-.9.87h-1.535a0.807,0.807,0,0,1-.9-0.87v-0.35Zm-2.24-3.58c-1.216,0-2.464-.07-3.712-0.07-0.736,0-.7.35-0.7,1.44,0,1.03-.032,1.41.7,1.41,0.672,0,1.312-.03,1.952-0.06a0.758,0.758,0,0,1,.864.86v0.35a0.754,0.754,0,0,1-.9.87H175.7c-1.28,0-2.592-.07-3.872-0.07-0.736,0-.736.39-0.736,1.41,0,1.09,0,1.41.736,1.41,1.312,0,2.592-.07,3.872-0.07h0.448a0.754,0.754,0,0,1,.9.87v0.51a0.757,0.757,0,0,1-.864.89c-0.832.04-1.664-.06-2.5-0.06-0.7,0-.736.35-0.736,1.38,0,1.08.032,1.37,0.768,1.37,1.216,0,2.432-.06,3.648-0.06h5.375a0.655,0.655,0,0,1,.768.77v0.32a0.651,0.651,0,0,1-.768.76h-6.335c-1.312,0-2.592-.06-3.872-0.06-0.7,0-.7.35-0.7,1.44s0,1.44.7,1.44c1.28,0,2.56-.06,3.872-0.06h6.207a0.728,0.728,0,0,1,.864.83c0,0.86-.032,1.76-0.032,2.62,0,1.03.32,1.06,1.7,1.06s1.7-.03,1.7-1.06c0-.86-0.032-1.76-0.064-2.62a0.739,0.739,0,0,1,.864-0.83h6.176c1.28,0,2.559.06,3.839,0.06,0.736,0,.736-0.32.736-1.44s0-1.44-.736-1.44c-1.28,0-2.559.06-3.839,0.06h-6.3a0.651,0.651,0,0,1-.768-0.76v-0.32a0.655,0.655,0,0,1,.768-0.77h5.472c1.248,0,2.464.06,3.679,0.06,0.736,0,.736-0.35.736-1.37s0.032-1.38-.736-1.38c-0.863,0-1.759.1-2.655,0.06a0.738,0.738,0,0,1-.8-0.89v-0.51a0.754,0.754,0,0,1,.9-0.87h0.64c1.311,0,2.591.07,3.9,0.07,0.7,0,.7-0.39.7-1.41s0.032-1.41-.7-1.41c-1.312,0-2.592.07-3.9,0.07H194.1a0.754,0.754,0,0,1-.9-0.87v-0.35a0.736,0.736,0,0,1,.864-0.86c0.672,0.03,1.376.06,2.048,0.06,0.735,0,.767-0.32.767-1.41s0-1.44-.735-1.44c-1.248,0-2.5.07-3.712,0.07h-0.384a0.681,0.681,0,0,1-.736-0.8c0-.13-0.032-0.23-0.032-0.36a0.764,0.764,0,0,1,.864-0.86h2.176c1.28,0,2.527.1,3.807,0.1,0.768,0,.736-0.32.736-1.48,0-1.18.032-1.53-.736-1.53-1.28,0-2.527.09-3.807,0.09h-2.176a0.726,0.726,0,0,1-.864-0.73v-0.1a0.646,0.646,0,0,1,.352-0.64,0.552,0.552,0,0,0,.352-0.38c0-.32-0.544-0.32-0.768-0.35-0.608-.07-2.3-0.2-2.848-0.2-0.256,0-.576.04-0.576,0.39,0,0.06.032,0.19,0.032,0.25a4.524,4.524,0,0,1,.1.9,0.748,0.748,0,0,1-.864.86h-3.648a0.737,0.737,0,0,1-.864-0.86,0.746,0.746,0,0,1,.384-0.74,0.532,0.532,0,0,0,.352-0.35c0-.29-0.384-0.32-0.576-0.35-0.544-.06-2.559-0.19-3.039-0.19-0.256,0-.576,0-0.576.35a0.649,0.649,0,0,0,.032.26,5.752,5.752,0,0,1,.1,1.02,0.77,0.77,0,0,1-.9.86h-2.24c-1.248,0-2.5-.09-3.776-0.09-0.768,0-.736.32-0.736,1.47,0,1.22-.032,1.54.736,1.54,1.248,0,2.528-.1,3.776-0.1h2.24a0.776,0.776,0,0,1,.864.86c0,0.13-.032.26-0.032,0.36-0.064.51-.16,0.8-0.7,0.8h-0.512Zm39.167-4.64c-0.7,0-1.439,2.24-1.439,2.59a0.742,0.742,0,0,0,.768.61,24.557,24.557,0,0,1,3.391,1.15,4.473,4.473,0,0,0,1.344.45c0.832,0,1.472-2.05,1.472-2.37,0-.51-1.248-0.96-1.888-1.22A27.578,27.578,0,0,0,217.109,6453.83Zm-7.615,16.09a1.9,1.9,0,0,0,.608-0.35c0.48-.45,2.944-2.5,3.424-2.5a0.944,0.944,0,0,1,.768.61c1.6,3.17,3.327,6.21,4.959,9.34,0.32,0.64.544,1.19,0.992,1.19,0.608,0,2.816-1.12,2.816-1.73a4.363,4.363,0,0,0-.7-1.38c-0.8-1.24-5.631-9.11-5.631-9.98a1.018,1.018,0,0,1,.639-0.8c2.24-1.34,5.792-3.36,8.384-3.36,1.632,0,2.944.83,2.944,2.56,0,2.78-3.84,3.81-6.048,4.19-0.416.07-1.024,0.1-1.024,0.64,0,0.45.864,2.63,1.7,2.63a7.81,7.81,0,0,0,1.248-.23c3.68-.93,7.551-2.97,7.551-7.29,0-3.68-2.655-5.6-6.143-5.6-3.584,0-6.848,1.73-9.855,3.52a1.584,1.584,0,0,1-.768.29,0.852,0.852,0,0,1-.768-0.61,19.135,19.135,0,0,1-1.28-3.17,0.63,0.63,0,0,1,.064-0.26,1.274,1.274,0,0,0,.064-0.35,0.325,0.325,0,0,0-.384-0.32,5.287,5.287,0,0,0-1.056.32c-0.448.16-.864,0.32-1.216,0.45-0.96.35-1.536,0.54-1.536,0.83a0.94,0.94,0,0,0,.32.61c0.512,0.67,2.4,3.61,2.4,4.32a1.317,1.317,0,0,1-.8.99c-0.768.51-2.3,1.6-3.008,1.95a0.889,0.889,0,0,0-.672.67C207.478,6467.75,208.886,6469.92,209.494,6469.92Zm53.183-13.73c-0.576,0-2.432,1.12-2.432,1.7a0.809,0.809,0,0,0,.288.54,22.358,22.358,0,0,1,4.288,6.85,0.968,0.968,0,0,0,.735.74c0.64,0,2.656-1.19,2.656-1.89C268.212,6463.33,263.861,6456.19,262.677,6456.19Zm-11.615-3.16c-0.352,0-.352.38-0.352,0.64,0,0.38.032,0.73,0.032,1.08a29.441,29.441,0,0,1-.32,4.13,1.03,1.03,0,0,1-1.056.96,50.556,50.556,0,0,1-5.312.99c-0.416.04-.96,0.04-0.96,0.52,0,0.16.544,3.29,1.344,3.29a2.826,2.826,0,0,0,.672-0.19,26.66,26.66,0,0,1,3.648-1.12,0.385,0.385,0,0,1,.416.41,17.849,17.849,0,0,1-.8,2.41,26.211,26.211,0,0,1-5.7,8.92,1.2,1.2,0,0,0-.448.74c0,0.73,2.048,1.95,2.592,1.95a0.878,0.878,0,0,0,.576-0.32,36.388,36.388,0,0,0,3.2-4.61,37.881,37.881,0,0,0,4.063-9.5c0.224-.9.544-1.15,2.368-1.15,1.92,0,2.016,1.31,2.016,2.91a19.233,19.233,0,0,1-1.408,7.23c-0.8,1.57-1.6,1.95-3.328,1.95-0.639,0-1.183-.09-1.5-0.09s-0.416.22-.416,0.54a6.9,6.9,0,0,0,.544,2.27,1.356,1.356,0,0,0,1.471.77,6.536,6.536,0,0,0,6.048-3.46c1.408-2.56,1.92-6.88,1.92-9.82,0-1.76-.352-3.61-1.952-4.64a6.315,6.315,0,0,0-3.648-.73c-0.128,0-.256.03-0.384,0.03a0.649,0.649,0,0,1-.7-0.67,1.42,1.42,0,0,1,.064-0.36c0.1-.54.16-0.99,0.224-1.37,0.192-1.12.256-1.63,0.864-2.08a0.478,0.478,0,0,0,.256-0.39,0.871,0.871,0,0,0-.8-0.51C253.813,6453.63,251.382,6453.03,251.062,6453.03Zm38.847,20.28c1.6,0,1.632.35,1.632,0.99a1.5,1.5,0,0,1-1.664,1.73c-0.832,0-2.112-.51-2.112-1.5C287.765,6473.5,289.141,6473.31,289.909,6473.31Zm1.568-11.29a0.645,0.645,0,0,0-.768.7c0,0.16.032,0.29,0.032,0.45,0.1,1.25.576,5.89,0.576,6.91a0.556,0.556,0,0,1-.672.54h-0.832c-2.528,0-5.311,1.03-5.311,3.97,0,2.98,3.039,4.35,5.631,4.35,2.176,0,4.064-.8,4.448-3.13a0.71,0.71,0,0,1,.512-0.74,9.141,9.141,0,0,1,2.56,1.47,1.635,1.635,0,0,0,.832.45c0.8,0,1.983-1.82,1.983-2.33,0-.77-3.775-2.53-4.511-2.82-0.1-.03-0.224-0.1-0.32-0.13a1.243,1.243,0,0,1-.992-0.8c-0.16-.67-0.32-5.28-0.32-6.21,0-.67.064-1.63,0.064-1.69a0.714,0.714,0,0,0-.64-0.67A13.2,13.2,0,0,0,291.477,6462.02Zm4.9-4.93c-0.672,0-2.144,1.76-2.144,2.21a0.858,0.858,0,0,0,.416.51,18.061,18.061,0,0,1,4,4.13,1.058,1.058,0,0,0,.7.57c0.576,0,2.4-1.44,2.4-2.2C301.748,6461.47,297.173,6457.09,296.373,6457.09Zm-10.751-5.22c-0.288,0-.288.32-0.288,0.55a19.52,19.52,0,0,1-1.024,5.37,1.107,1.107,0,0,1-.96.52,30.306,30.306,0,0,1-3.3.16h-1.472a0.463,0.463,0,0,0-.576.51c0,0.32.16,1.47,0.224,1.85,0.128,0.74.256,1.03,0.8,1.03,0.736,0,3.2-.32,3.456-0.32a0.427,0.427,0,0,1,.448.41,12.731,12.731,0,0,1-.736,1.96,60.441,60.441,0,0,1-3.808,7.39,3.454,3.454,0,0,0-.576,1.15c0,0.67,2.144,1.6,2.848,1.6a0.642,0.642,0,0,0,.64-0.45,81.3,81.3,0,0,0,5.216-11.39c0.383-1.06.351-1.28,1.5-1.47,2.944-.55,3.328-0.61,3.328-1.31a15.264,15.264,0,0,0-.16-1.7c-0.064-.38-0.1-0.96-0.48-0.96a1.2,1.2,0,0,0-.32.06,14.742,14.742,0,0,1-1.824.48,0.369,0.369,0,0,1-.352-0.41,10.172,10.172,0,0,1,.352-1.44,5.683,5.683,0,0,1,.576-1.7,0.924,0.924,0,0,0,.512-0.57,0.657,0.657,0,0,0-.512-0.39C288.629,6452.64,285.974,6451.87,285.622,6451.87Zm47.775,3.65c0.256,0,.8,0,0.8.39a1.092,1.092,0,0,1-.1.44c-0.64,1.54-1.536,3.88-2.208,5.28a3.527,3.527,0,0,0-.192.77,1.913,1.913,0,0,0,.448.96c1.312,1.95,2.752,4.1,2.752,6.53,0,1.34-.288,2.4-1.856,2.4-0.448,0-.864-0.06-1.312-0.06a0.591,0.591,0,0,0-.7.67,4.172,4.172,0,0,0,.7,2.33,2.531,2.531,0,0,0,1.472.29c3.551,0,5.023-1.6,5.023-5.15,0-2.98-1.088-5.02-2.784-7.36a2.078,2.078,0,0,1-.48-0.9,2.15,2.15,0,0,1,.193-0.6c0.607-1.25,3.071-6.21,3.071-7.27a2.127,2.127,0,0,0-2.176-1.76c-0.64,0-1.311.07-1.983,0.07h-2.336c-0.864,0-1.728-.07-2.56-0.07-1.184,0-1.888.29-1.888,1.6,0,0.93.032,1.86,0.032,2.75v17.51c0,1.56-.064,3.1-0.064,4.67,0,1.02.416,1.02,1.7,1.02,1.408,0,1.728,0,1.728-1.02,0-1.57-.1-3.11-0.1-4.67v-17.95a0.765,0.765,0,0,1,.9-0.87h1.92Zm-17.567,19.71a0.815,0.815,0,0,1-.9-0.86v-2.34a0.815,0.815,0,0,1,.9-0.86h4.32a0.847,0.847,0,0,1,.9.86v2.34a0.847,0.847,0,0,1-.9.86h-4.32Zm5.152,3.36c-0.032.93,0.16,0.93,1.5,0.93,1.152,0,1.6.03,1.6-.67,0-.45-0.064-1.51-0.064-2.18v-5.12c0-.67.064-1.31,0.064-1.98,0-1.15-.832-1.38-1.824-1.38-0.672,0-1.375.07-2.047,0.07h-4.448c-0.7,0-1.408-.07-2.08-0.07-1.024,0-1.824.23-1.824,1.38,0,0.67.032,1.31,0.032,1.98v5.51c0,0.73-.064,1.47-0.064,2.2,0,0.68.48,0.68,1.536,0.68,1.28,0,1.632,0,1.632-.71,0-.16-0.032-0.32-0.032-0.51a0.622,0.622,0,0,1,.736-0.7h4.7A0.5,0.5,0,0,1,320.982,6478.59Zm-5.568-15.55a0.128,0.128,0,0,1-.16-0.13,0.178,0.178,0,0,1,.1-0.16,1.253,1.253,0,0,0,.992-0.83,8.142,8.142,0,0,0-.64-1.79c-0.064-.13-0.1-0.22-0.128-0.29-0.512-1.18-.768-1.98-1.344-1.98-0.288,0-2.176.57-2.176,1.25a1.535,1.535,0,0,0,.224.6,27.235,27.235,0,0,1,1.12,2.63c0,0.09.032,0.16,0.032,0.25a0.419,0.419,0,0,1-.448.45c-0.768,0-1.536-.06-2.3-0.06s-0.736.32-.736,1.5c0,1.15,0,1.47.736,1.47,1.12,0,2.208-.09,3.3-0.09H322.1c1.088,0,2.208.09,3.3,0.09,0.736,0,.736-0.35.736-1.47,0-1.15.032-1.5-.736-1.5-0.832,0-1.664.06-2.5,0.06a0.446,0.446,0,0,1-.48-0.45,0.887,0.887,0,0,1,.064-0.28c0.352-.74.7-1.48,1.088-2.21a0.507,0.507,0,0,1,.48-0.26c0.288-.03.576-0.03,0.576-0.38s-0.608-.55-1.312-0.83a12.368,12.368,0,0,0-1.888-.77,0.584,0.584,0,0,0-.447.51c-0.544,1.41-1.056,2.59-1.7,3.97a1.208,1.208,0,0,1-1.28.7h-2.592Zm4.224-9.15a1.4,1.4,0,0,1,.384-1.41,0.631,0.631,0,0,0,.384-0.48c0-.38-0.576-0.41-0.928-0.45a23.887,23.887,0,0,0-2.528-.19,0.438,0.438,0,0,0-.544.45v0.32a10.859,10.859,0,0,1,.128,1.76,0.762,0.762,0,0,1-.9.83h-0.832c-1.056,0-2.112-.06-3.2-0.06-0.736,0-.7.35-0.7,1.5,0,1.22-.032,1.51.736,1.51,1.056,0,2.112-.07,3.168-0.07h6.783c1.056,0,2.112.07,3.2,0.07,0.736,0,.7-0.36.7-1.51,0-1.12.064-1.5-.7-1.5-1.056,0-2.144.06-3.2,0.06h-1.055A0.739,0.739,0,0,1,319.638,6453.89Zm42.079,1.54c0.8,0,.928,0,1.5,1.15a27.944,27.944,0,0,0,5.664,7.81,2.859,2.859,0,0,0,.32.28,4.628,4.628,0,0,0,1.951,1.35c0.9,0,2.048-1.67,2.048-2.15a1.46,1.46,0,0,0-.672-0.86,22.286,22.286,0,0,1-7.2-9.12c-0.384-.9-0.48-1.54-1.632-1.54-0.48,0-.96.04-1.44,0.04h-1.5c-0.832,0-1.664-.07-2.5-0.07-0.864,0-.864.26-0.864,1.6,0,1.22,0,1.57.832,1.57s1.7-.06,2.528-0.06h0.96Zm-6.367,11.45a12.354,12.354,0,0,1-1.824,5.18,15.041,15.041,0,0,1-6.3,4.68,1.173,1.173,0,0,0-.928.76,2.941,2.941,0,0,0,2.016,2.21c0.672,0,2.752-1.25,3.424-1.66a14.418,14.418,0,0,0,6.879-11.2,0.8,0.8,0,0,1,.96-0.8h3.52c1.024,0,1.344.06,1.344,0.93a38.52,38.52,0,0,1-.864,8.19c-0.384,1.18-.864,1.47-2.816,1.47-0.608,0-1.216-.1-1.824-0.1s-0.7.36-.7,1.06c0,2.21.32,2.37,2.4,2.37,2.528,0,5.024-.26,5.92-3.01,0.9-2.69,1.28-9.02,1.28-11.97,0-1.72-.416-2.17-2.144-2.17-1.024,0-2.048.03-3.1,0.03h-8.223c-0.992,0-1.984-.03-2.944-0.07a0.386,0.386,0,0,1-.416-0.35,0.6,0.6,0,0,1,.1-0.25,27.6,27.6,0,0,0,4.128-6.82c0.256-.61.288-0.77,0.7-0.86a0.6,0.6,0,0,0,.575-0.39,1.5,1.5,0,0,0-.832-0.73l-0.191-.1a18.7,18.7,0,0,0-2.144-1.05,0.63,0.63,0,0,0-.544.64,24.758,24.758,0,0,1-7.936,11.07,0.937,0.937,0,0,0-.448.6,3.108,3.108,0,0,0,2.144,1.83c0.672,0,2.528-1.98,3.04-2.53a0.459,0.459,0,0,1,.256-0.1,0.314,0.314,0,0,1,.288.36v0.77c0,0.99.064,1.24,0.8,1.24,1.152,0,2.3-.06,3.424-0.06h0.192a0.662,0.662,0,0,1,.8.67v0.16Zm37.375,5.63c-0.512,0-1.984,1.89-1.984,2.37,0,0.67,1.056,1.47,1.568,1.82,1.792,1.19,4.736,1.44,6.848,1.44a31.284,31.284,0,0,0,4.992-.41,1.981,1.981,0,0,0,.351-1.6c0-1.28,0-2.02-.543-2.02a0.922,0.922,0,0,0-.32.07,14.454,14.454,0,0,1-4.544.64c-1.952,0-4.384-.29-5.792-1.86A1,1,0,0,0,392.725,6472.51Zm2.4-7.32c0,0.54.16,0.7,0.8,0.7,0.416,0,.8-0.03,1.216-0.03a13.682,13.682,0,0,1,5.088.8,2.735,2.735,0,0,0,.672.16,0.553,0.553,0,0,0,.576-0.42,8.057,8.057,0,0,0,.608-2.24,0.607,0.607,0,0,0-.448-0.64,22.879,22.879,0,0,0-6.432-.89C395.7,6462.63,395.125,6462.43,395.125,6465.19Zm9.024-13.19a2.687,2.687,0,0,0-1.568,1.31,0.734,0.734,0,0,0,.256.42,26.58,26.58,0,0,1,2.207,2.56,0.785,0.785,0,0,0,.48.38,2.578,2.578,0,0,0,1.568-1.44A12.445,12.445,0,0,0,404.149,6452Zm-13.216-.45c-0.32,0-.32.32-0.352,0.8a29.28,29.28,0,0,1-1.183,5.83c-0.288.48-.768,0.51-2.816,0.51-1.376,0-2.72-.13-3.008-0.13a0.461,0.461,0,0,0-.48.58,13.6,13.6,0,0,0,.256,2.33c0.192,0.61.7,0.58,1.344,0.58,0.992,0,2.4-.16,2.848-0.16a0.5,0.5,0,0,1,.576.48,4.809,4.809,0,0,1-.256.83c-1.248,3.39-3.648,8.96-5.664,11.84a2.423,2.423,0,0,0-.544,1.06c0,0.7,2.208,1.72,2.72,1.72,0.48,0,.736-0.44,1.152-1.21a99.649,99.649,0,0,0,5.951-14.11,1.325,1.325,0,0,1,1.312-1.25,48.627,48.627,0,0,0,5.248-1.25,0.979,0.979,0,0,0,.608-1.15c0-.48,0-2.43-0.64-2.43a1.652,1.652,0,0,0-.672.16,23.131,23.131,0,0,1-3.712,1.18,0.47,0.47,0,0,1-.48-0.48c0-.16.672-2.49,0.768-2.85a1.43,1.43,0,0,1,.736-1.12,0.473,0.473,0,0,0,.288-0.32c0-.35-0.9-0.57-1.184-0.67C393.333,6452.19,391.221,6451.55,390.933,6451.55Zm9.888,2.5a2.786,2.786,0,0,0-1.568,1.28,0.862,0.862,0,0,0,.288.45,27.63,27.63,0,0,1,2.208,2.56,0.68,0.68,0,0,0,.448.35,2.53,2.53,0,0,0,1.568-1.41A12.431,12.431,0,0,0,400.821,6454.05Zm30.848,0.22a1.488,1.488,0,0,0,.032.39,38.56,38.56,0,0,1,.8,5.25,0.863,0.863,0,0,1-.672.86c-0.736.16-4,.42-4.9,0.48-1.408.06-1.535,0.06-1.535,1.31,0,2.02.511,2.08,0.927,2.08a6.107,6.107,0,0,0,1.12-.13c0.576-.09,4.32-0.67,4.576-0.67,0.736,0,.8.64,0.8,1.63v0.68c0,4.54-1.056,7.45-4.576,10.39a0.535,0.535,0,0,0-.256.48c0,0.58,1.76,2.12,2.336,2.12,0.672,0,1.888-1.44,2.272-1.96a15.688,15.688,0,0,0,3.52-10.46c0-.83-0.032-1.69-0.032-2.56,0-1.12.928-1.09,2.08-1.22,1.663-.22,2.015-0.25,2.015-1.05,0-.54-0.032-2.5-0.736-2.5a2.65,2.65,0,0,0-.479.07c-0.352.09-2.112,0.48-2.368,0.48a0.8,0.8,0,0,1-.736-0.93c-0.032-.99-0.16-1.98-0.16-2.98,0-1.21.48-1.15,0.48-1.56a0.443,0.443,0,0,0-.448-0.32c-0.96-.16-1.952-0.13-2.944-0.23-0.16,0-.384-0.06-0.544-0.06A0.469,0.469,0,0,0,431.669,6454.27Zm-9.471,1.09c-0.352-.13-2.688-0.96-2.848-0.96-0.384,0-.416.48-0.48,0.77a7.492,7.492,0,0,1-.224.9,37.748,37.748,0,0,0-1.632,10.49,20.817,20.817,0,0,0,2.272,10.11c0.416,0.71.608,0.99,1.12,0.99,0.288,0,2.432-.44,2.432-1.69,0-.51-0.032-1.02-0.032-1.51,0-2.11,1.184-5.18,1.184-5.6a1.984,1.984,0,0,0-1.344-.95c-0.352,0-.576.7-0.9,1.5-0.128.29-.448,1.41-0.7,1.41-0.608,0-.832-3.72-0.832-4.32a26.058,26.058,0,0,1,1.728-8.99,1.851,1.851,0,0,1,1.024-1.16,0.438,0.438,0,0,0,.32-0.35C423.286,6455.65,422.838,6455.55,422.2,6455.36Zm28.1,2.56a14.406,14.406,0,0,0,.352,2.31c0.1,0.35.256,1.05,0.7,1.05a2.626,2.626,0,0,0,.48-0.06,70.817,70.817,0,0,1,7.072-1.31c0.32-.04,1.791-0.29,2.015-0.29a0.41,0.41,0,0,1,.48.38,1.71,1.71,0,0,1-.544.77,14.215,14.215,0,0,0-3.519,9.18c0,6.24,4.671,7.97,10.111,7.97a0.885,0.885,0,0,0,1.024-.54,9.121,9.121,0,0,0,.48-2.63c0-.51-0.256-0.54-0.736-0.54-0.352,0-1.056.03-1.6,0.03-3.264,0-5.632-.9-5.632-4.61a11.992,11.992,0,0,1,1.536-5.63,9.757,9.757,0,0,1,5.44-4.77,15.8,15.8,0,0,1,5.312-.67c0.767-.03,1.439.03,1.439-0.67a14.863,14.863,0,0,0-.287-2.34c-0.065-.38-0.129-0.8-0.609-0.8a1.466,1.466,0,0,0-.415.04c-2.4.38-4.832,0.7-7.264,0.99-4.64.54-9.311,1.02-13.983,1.31C450.742,6457.19,450.294,6457.09,450.294,6457.92Zm24.19,1.86a2.672,2.672,0,0,0-1.631,1.21,0.782,0.782,0,0,0,.224.42,26.418,26.418,0,0,1,2.079,2.66,0.755,0.755,0,0,0,.48.41,2.624,2.624,0,0,0,1.632-1.34A12.905,12.905,0,0,0,474.484,6459.78Zm-3.871,1.76a2.724,2.724,0,0,0-1.632,1.18,0.862,0.862,0,0,0,.288.45c0.7,0.86,1.408,1.76,2.048,2.69a0.658,0.658,0,0,0,.448.38,2.612,2.612,0,0,0,1.632-1.34A12.3,12.3,0,0,0,470.613,6461.54Zm31.264,11.39c0,1.31-.8,1.76-2.016,1.76-0.8,0-2.336-.35-2.336-1.38,0-.99,1.568-1.25,2.3-1.25C500.437,6472.06,501.877,6472.1,501.877,6472.93Zm-0.64-19.39a0.392,0.392,0,0,0-.448.45c0,0.09.032,0.22,0.032,0.32,0.128,0.8.384,3.9,0.384,4.57,0,0.71-.736.77-1.5,0.77h-0.512c-1.664,0-4.512-.32-4.9-0.32-0.48,0-.512.38-0.512,0.8s0.032,2.24.32,2.43a7.185,7.185,0,0,0,2.431.26h0.416c1.28,0,3.552-.13,3.808-0.13,0.8,0,.736.9,0.768,1.22,0.032,0.92.192,3.96,0.192,4.76a0.581,0.581,0,0,1-.64.67h-0.224a8.732,8.732,0,0,0-1.248-.09c-2.5,0-5.023,1.15-5.023,4.03,0,2.94,2.783,4.16,5.343,4.16,1.92,0,4.064-.64,4.64-2.69a0.524,0.524,0,0,1,.48-0.51,9.139,9.139,0,0,1,2.368,1.76,1.484,1.484,0,0,0,.9.48c0.735,0,1.855-1.47,1.855-2.21a1.712,1.712,0,0,0-.832-1.21,17.578,17.578,0,0,0-3.455-2.24c-0.7-.35-1.024-0.42-1.088-1.25-0.032-.83-0.256-5.73-0.256-6.37,0-.8.384-0.93,1.088-1.02,3.775-.51,4-0.74,4-1.35,0-.48-0.224-2.68-0.864-2.68a2.708,2.708,0,0,0-.479.09,20.567,20.567,0,0,1-3.2.8,0.7,0.7,0,0,1-.672-0.83v-0.9a4.467,4.467,0,0,1,.352-2.27,1.287,1.287,0,0,0,.352-0.64,0.325,0.325,0,0,0-.32-0.29A30.224,30.224,0,0,0,501.237,6453.54Zm-10.175,1.05a12.418,12.418,0,0,0-2.048-.83,0.526,0.526,0,0,0-.416.55c-0.352,1.4-.8,2.78-1.152,4.19a36.733,36.733,0,0,0-1.12,8.96,23.016,23.016,0,0,0,1.888,9.85,1.433,1.433,0,0,0,1.024,1.06c0.16,0,2.432-.39,2.432-1.63,0-.52-0.064-1.03-0.064-1.54,0-1.86,1.568-5.38,1.568-5.82a1.98,1.98,0,0,0-1.376-1.03c-0.384,0-.7,1.06-0.864,1.41-0.32.74-.48,1.15-0.7,1.15-0.608,0-.7-3.04-0.7-3.55a29.574,29.574,0,0,1,1.76-9.73A2.268,2.268,0,0,1,492.6,6456a0.339,0.339,0,0,0,.288-0.32,1.171,1.171,0,0,0-.832-0.64C491.862,6454.98,491.478,6454.79,491.062,6454.59Zm41.887,18.72c1.6,0,1.632.35,1.632,0.99a1.5,1.5,0,0,1-1.664,1.73c-0.832,0-2.112-.51-2.112-1.5C530.8,6473.5,532.181,6473.31,532.949,6473.31Zm1.568-11.29a0.645,0.645,0,0,0-.768.7c0,0.16.032,0.29,0.032,0.45,0.1,1.25.576,5.89,0.576,6.91a0.556,0.556,0,0,1-.672.54h-0.832c-2.528,0-5.311,1.03-5.311,3.97,0,2.98,3.039,4.35,5.631,4.35,2.176,0,4.064-.8,4.448-3.13a0.71,0.71,0,0,1,.512-0.74,9.141,9.141,0,0,1,2.56,1.47,1.635,1.635,0,0,0,.832.45c0.8,0,1.983-1.82,1.983-2.33,0-.77-3.775-2.53-4.511-2.82-0.1-.03-0.224-0.1-0.32-0.13a1.243,1.243,0,0,1-.992-0.8c-0.16-.67-0.32-5.28-0.32-6.21,0-.67.064-1.63,0.064-1.69a0.714,0.714,0,0,0-.64-0.67A13.2,13.2,0,0,0,534.517,6462.02Zm4.9-4.93c-0.672,0-2.144,1.76-2.144,2.21a0.858,0.858,0,0,0,.416.51,18.061,18.061,0,0,1,4,4.13,1.058,1.058,0,0,0,.7.57c0.576,0,2.4-1.44,2.4-2.2C544.788,6461.47,540.213,6457.09,539.413,6457.09Zm-10.751-5.22c-0.288,0-.288.32-0.288,0.55a19.52,19.52,0,0,1-1.024,5.37,1.107,1.107,0,0,1-.96.52,30.306,30.306,0,0,1-3.3.16h-1.472a0.463,0.463,0,0,0-.576.51c0,0.32.16,1.47,0.224,1.85,0.128,0.74.256,1.03,0.8,1.03,0.736,0,3.2-.32,3.456-0.32a0.427,0.427,0,0,1,.448.41,12.731,12.731,0,0,1-.736,1.96,60.441,60.441,0,0,1-3.808,7.39,3.454,3.454,0,0,0-.576,1.15c0,0.67,2.144,1.6,2.848,1.6a0.642,0.642,0,0,0,.64-0.45,81.3,81.3,0,0,0,5.216-11.39c0.383-1.06.352-1.28,1.5-1.47,2.944-.55,3.328-0.61,3.328-1.31a15.264,15.264,0,0,0-.16-1.7c-0.064-.38-0.1-0.96-0.48-0.96a1.2,1.2,0,0,0-.32.06,14.742,14.742,0,0,1-1.824.48,0.369,0.369,0,0,1-.352-0.41,10.172,10.172,0,0,1,.352-1.44,5.683,5.683,0,0,1,.576-1.7,0.924,0.924,0,0,0,.512-0.57,0.657,0.657,0,0,0-.512-0.39C531.669,6452.64,529.014,6451.87,528.662,6451.87Zm42.4,7.33a0.524,0.524,0,0,0,.288.48c3.04,2.34,4.352,5.38,4.736,9.12,0.064,0.77.032,1.22,1.056,1.22a6.76,6.76,0,0,0,1.791-.29,0.894,0.894,0,0,0,.864-0.93,17.415,17.415,0,0,0-1.887-6.65c-1.536-2.95-4.224-4.96-4.928-4.96A3.079,3.079,0,0,0,571.061,6459.2Zm-14.431-2.08a0.4,0.4,0,0,0-.448.35c-0.064.29-.16,4.36-0.16,4.87,0,3.39.256,7.42,1.856,10.43,1.056,1.95,2.912,4.09,5.28,4.09,1.5,0,2.5-.96,3.423-2.01,0.448-.51,1.888-2.18,1.888-2.79,0-.57-1.632-1.88-2.3-1.88a1.266,1.266,0,0,0-.864.8c-0.384.7-1.311,2.11-2.207,2.11-1.12,0-2.176-1.89-2.56-2.79a18.236,18.236,0,0,1-1.024-6.68,23.84,23.84,0,0,1,.256-3.39,2.327,2.327,0,0,1,.576-1.54,0.552,0.552,0,0,0,.32-0.42c0-.32-0.448-0.38-0.7-0.44C559.414,6457.73,557.046,6457.12,556.63,6457.12Z" transform="translate(-171.094 -6451.13)"/>
</svg>
