<?xml version="1.0" encoding="utf-8"?>
<!-- Generator: Adobe Illustrator 25.4.1, SVG Export Plug-In . SVG Version: 6.00 Build 0)  -->
<svg version="1.1" id="レイヤー_1" xmlns="http://www.w3.org/2000/svg" xmlns:xlink="http://www.w3.org/1999/xlink" x="0px"
	 y="0px" viewBox="0 0 90.5 14.3" style="enable-background:new 0 0 90.5 14.3;" xml:space="preserve">
<style type="text/css">
	.st0{fill-rule:evenodd;clip-rule:evenodd;fill:#FFFFFF;}
</style>
<path id="SCROLL" class="st0" d="M0.6,11.4H0.4c0,0.4-0.1,0.7-0.1,1c-0.1,0.3-0.1,0.6-0.2,0.8c0.4,0.3,0.8,0.6,1.3,0.8
	c0.6,0.2,1.3,0.4,2,0.3c0.7,0,1.4-0.1,2.1-0.3c0.6-0.2,1.1-0.5,1.5-0.9c0.4-0.4,0.7-0.9,1-1.4c0.2-0.6,0.3-1.1,0.3-1.7
	c0-0.6-0.1-1.2-0.5-1.8C7.4,7.6,7,7.3,6.5,7C6.1,6.7,5.6,6.5,5,6.3C4.5,6.1,4,5.9,3.5,5.6C3.1,5.4,2.7,5.1,2.4,4.7
	C2,4.3,1.9,3.8,1.9,3.2c0-0.3,0.1-0.7,0.2-1c0.1-0.3,0.3-0.6,0.5-0.8C2.9,1.2,3.1,1,3.4,0.9c0.3-0.1,0.7-0.2,1-0.2
	c0.3,0,0.7,0.1,1,0.2c0.3,0.1,0.5,0.3,0.7,0.5C6.3,1.6,6.5,1.8,6.6,2c0.1,0.2,0.2,0.4,0.3,0.6h0.2c0.1-0.4,0.2-0.7,0.2-1
	C7.4,1.4,7.5,1.2,7.6,1C7.2,0.6,6.8,0.4,6.3,0.2C5.8,0.1,5.2,0,4.7,0C4.1,0,3.5,0.1,2.9,0.3c-0.5,0.2-1,0.4-1.4,0.8
	C1.1,1.4,0.8,1.8,0.6,2.3c-0.2,0.5-0.3,1-0.3,1.5c0,0.7,0.1,1.3,0.5,1.9C1.1,6.1,1.5,6.5,2,6.8c0.5,0.3,1,0.6,1.5,0.8
	C4,7.8,4.5,8,5,8.2c0.4,0.2,0.8,0.5,1.2,0.9c0.3,0.4,0.5,0.9,0.5,1.5c0,0.4-0.1,0.8-0.2,1.1c-0.1,0.3-0.3,0.7-0.6,0.9
	c-0.3,0.3-0.6,0.5-0.9,0.6c-0.4,0.2-0.8,0.2-1.2,0.2c-0.4,0-0.8-0.1-1.2-0.2C2,13.1,1.4,12.7,1,12.1C0.9,11.9,0.7,11.7,0.6,11.4
	L0.6,11.4L0.6,11.4z M25.4,13.2l0.2-1.2l-0.1-0.1c-0.2,0.1-0.4,0.3-0.7,0.5c-0.3,0.2-0.6,0.4-0.9,0.5c-0.4,0.2-0.7,0.3-1.1,0.4
	c-0.4,0.1-0.9,0.2-1.3,0.2c-0.7,0-1.5-0.1-2.2-0.4C18.6,13,18,12.6,17.5,12c-0.5-0.6-0.9-1.3-1.2-2c-0.6-1.9-0.6-3.9,0-5.7
	c0.2-0.7,0.6-1.4,1.2-2c0.5-0.5,1.1-0.9,1.8-1.2c0.7-0.3,1.4-0.4,2.2-0.4c0.4,0,0.9,0.1,1.3,0.2c0.4,0.1,0.7,0.3,1.1,0.5
	c0.3,0.2,0.6,0.4,0.8,0.6c0.2,0.2,0.4,0.3,0.6,0.5l0.1,0c0-0.2,0.1-0.5,0.2-0.8c0-0.3,0.1-0.5,0.3-0.8c-0.6-0.3-1.3-0.5-1.9-0.7
	C23.1,0.1,22.2,0,21.4,0c-1,0-2.1,0.2-3,0.5c-0.9,0.3-1.7,0.8-2.4,1.4c-0.7,0.6-1.2,1.4-1.5,2.2c-0.7,2-0.7,4.1,0,6.1
	c0.3,0.9,0.9,1.6,1.5,2.2c0.7,0.6,1.4,1.1,2.3,1.4c0.9,0.3,1.9,0.5,2.9,0.5c0.5,0,1,0,1.4-0.1c0.5-0.1,0.9-0.2,1.2-0.3
	c0.3-0.1,0.6-0.2,0.9-0.3C25,13.5,25.2,13.3,25.4,13.2L25.4,13.2L25.4,13.2z M32.4,8.9c0,0.9,0,1.8,0,2.6s-0.1,1.7-0.1,2.5
	c0.3,0,0.6,0,1,0s0.7,0,1,0c0-0.8-0.1-1.7-0.1-2.5c0-0.8,0-1.7,0-2.6V7.4h0.8c0.4,0.4,0.9,1,1.4,1.6s1,1.3,1.5,1.9s0.9,1.2,1.4,1.8
	s0.7,1,0.9,1.3c0.2,0,0.4,0,0.6,0h1.2c0.2,0,0.4,0,0.6,0c-0.2-0.2-0.4-0.5-0.7-0.8s-0.6-0.8-1-1.2s-0.7-0.9-1.1-1.4
	s-0.7-0.9-1.1-1.4s-0.7-0.8-0.9-1.2S37,7.4,36.9,7.2c0.4-0.1,0.9-0.2,1.3-0.3c0.5-0.2,0.9-0.4,1.3-0.7c0.4-0.3,0.8-0.7,1-1.1
	c0.5-1,0.6-2.1,0.1-3.2c-0.2-0.4-0.5-0.7-0.9-1c-0.4-0.3-0.9-0.4-1.3-0.5c-0.5-0.1-1.1-0.2-1.6-0.2c-0.4,0-0.8,0-1.1,0
	c-0.4,0-0.8,0.1-1.1,0c-0.4,0-0.8,0-1.1,0c-0.4,0-0.8,0-1.1-0.1c0,0.9,0.1,1.8,0.1,2.6s0,1.7,0,2.6L32.4,8.9L32.4,8.9z M34,5.5
	c0-0.7,0-1.4,0-2.2c0-0.7,0.1-1.4,0.1-2.2c0.2,0,0.5,0,0.8-0.1s0.7,0,1.2,0c0.4,0,0.7,0,1.1,0.1c0.4,0.1,0.7,0.2,1,0.4
	c0.3,0.2,0.6,0.5,0.8,0.8c0.2,0.4,0.3,0.8,0.3,1.3c0,0.5-0.1,1-0.4,1.5c-0.2,0.4-0.5,0.7-0.9,0.9c-0.4,0.2-0.8,0.4-1.2,0.5
	c-0.4,0.1-0.9,0.1-1.3,0.1c-0.3,0-0.5,0-0.7,0c-0.2,0-0.4,0-0.6-0.1V5.5L34,5.5z M48,10.2c0.7,1.7,2.1,3.1,3.9,3.6
	c2,0.6,4.1,0.6,6.1,0c1.8-0.6,3.2-1.9,3.9-3.6c0.7-2,0.7-4.1,0-6.1c-0.3-0.9-0.9-1.6-1.5-2.2c-0.7-0.6-1.5-1.1-2.4-1.4
	c-2-0.6-4.1-0.6-6.1,0c-0.9,0.3-1.7,0.8-2.4,1.4c-0.7,0.6-1.2,1.4-1.5,2.2C47.3,6.1,47.3,8.2,48,10.2z M60.1,10
	c-0.2,0.7-0.6,1.4-1.2,2c-0.5,0.5-1.1,0.9-1.8,1.2c-0.7,0.3-1.4,0.4-2.2,0.4c-0.7,0-1.5-0.1-2.2-0.4C52.1,13,51.5,12.6,51,12
	c-0.5-0.6-0.9-1.3-1.2-2c-0.6-1.9-0.6-3.9,0-5.7c0.2-0.7,0.6-1.4,1.2-2c0.5-0.5,1.1-0.9,1.8-1.2c0.7-0.3,1.4-0.4,2.2-0.4
	c0.7,0,1.5,0.1,2.2,0.4c0.7,0.3,1.3,0.7,1.8,1.2c0.5,0.6,0.9,1.3,1.2,2C60.6,6.2,60.6,8.2,60.1,10L60.1,10z M69.3,5.5v3.4
	c0,0.9,0,1.8,0,2.6s-0.1,1.7-0.1,2.5c0.6,0,1.3,0,1.9,0h3.7c0.6,0,1.2,0,1.8,0c-0.1-0.2-0.1-0.4-0.1-0.5c0-0.2,0-0.4,0.1-0.6
	c-0.9,0.1-1.9,0.2-2.8,0.2c-0.9,0-1.8,0-2.7,0c0-1,0-2.1,0-3.3s0-2.7,0-4.4c0-0.9,0-1.7,0-2.6s0.1-1.7,0.1-2.6c-0.2,0-0.3,0-0.5,0.1
	c-0.3,0-0.6,0-1,0c-0.2,0-0.3,0-0.5-0.1c0,0.9,0.1,1.8,0.1,2.6S69.3,4.6,69.3,5.5L69.3,5.5L69.3,5.5z M83.3,5.5v3.4
	c0,0.9,0,1.8,0,2.6s-0.1,1.7-0.1,2.5c0.6,0,1.3,0,1.9,0h3.7c0.6,0,1.2,0,1.8,0c-0.1-0.2-0.1-0.4-0.1-0.5c0-0.2,0-0.4,0.1-0.6
	c-0.9,0.1-1.9,0.2-2.8,0.2c-0.9,0-1.8,0-2.7,0c0-1,0-2.1,0-3.3s0-2.7,0-4.4c0-0.9,0-1.7,0-2.6s0.1-1.7,0.1-2.6c-0.2,0-0.3,0-0.5,0.1
	c-0.3,0-0.6,0-1,0c-0.2,0-0.3,0-0.5-0.1c0,0.9,0.1,1.8,0.1,2.6S83.3,4.6,83.3,5.5L83.3,5.5L83.3,5.5z"/>
</svg>
