<svg xmlns="http://www.w3.org/2000/svg" width="90.5" height="14.28" viewBox="0 0 90.5 14.28">
  <defs>
    <style>
      .cls-1 {
        fill-rule: evenodd;
      }
    </style>
  </defs>
  <path id="SCROLL" class="cls-1" d="M330.11,1014.97h-0.24c-0.04.39-.083,0.71-0.13,0.95a4.509,4.509,0,0,1-.25.83,5.493,5.493,0,0,0,1.29.75,5.16,5.16,0,0,0,2.01.33,6.05,6.05,0,0,0,2.07-.33,4.226,4.226,0,0,0,1.54-.94,4.007,4.007,0,0,0,.96-1.43,4.567,4.567,0,0,0,.33-1.74,2.984,2.984,0,0,0-.47-1.76,3.848,3.848,0,0,0-1.17-1.08,8.988,8.988,0,0,0-1.51-.71,10.761,10.761,0,0,1-1.51-.66,3.9,3.9,0,0,1-1.17-.91,2.174,2.174,0,0,1-.47-1.48,2.6,2.6,0,0,1,.19-1,2.326,2.326,0,0,1,.54-0.79,2.468,2.468,0,0,1,.82-0.51,2.857,2.857,0,0,1,1.03-.18,2.326,2.326,0,0,1,.96.19,2.813,2.813,0,0,1,.69.47,2.389,2.389,0,0,1,.46.61,5.716,5.716,0,0,1,.27.61h0.24q0.12-.57.24-0.96a4.554,4.554,0,0,1,.3-0.72,4.271,4.271,0,0,0-1.3-.71,5.44,5.44,0,0,0-1.66-.23,5.6,5.6,0,0,0-1.8.28,4.231,4.231,0,0,0-1.37.78,3.392,3.392,0,0,0-.87,1.19,3.8,3.8,0,0,0-.3,1.53,3.306,3.306,0,0,0,.47,1.88,3.957,3.957,0,0,0,1.17,1.15,7.787,7.787,0,0,0,1.51.75,13.744,13.744,0,0,1,1.51.66,3.876,3.876,0,0,1,1.17.9,2.154,2.154,0,0,1,.47,1.46,3.168,3.168,0,0,1-.2,1.13,2.638,2.638,0,0,1-.57.92,2.669,2.669,0,0,1-.9.62,2.85,2.85,0,0,1-1.19.23,3.283,3.283,0,0,1-1.16-.19,3.314,3.314,0,0,1-1.57-1.16,3.812,3.812,0,0,1-.43-0.73h0Zm24.78,1.78,0.18-1.18-0.08-.08q-0.281.225-.69,0.51a5.554,5.554,0,0,1-.92.54,6.8,6.8,0,0,1-1.12.43,4.685,4.685,0,0,1-1.33.18,6.023,6.023,0,0,1-2.19-.38,4.588,4.588,0,0,1-1.76-1.17,5.374,5.374,0,0,1-1.17-2,10.016,10.016,0,0,1,0-5.74,5.539,5.539,0,0,1,1.17-2,4.826,4.826,0,0,1,1.76-1.17,6.242,6.242,0,0,1,2.19-.38,4.573,4.573,0,0,1,1.32.19,5.954,5.954,0,0,1,1.08.47,6.467,6.467,0,0,1,.84.58,4.4,4.4,0,0,1,.56.54l0.12-.04c0.04-.21.093-0.48,0.16-0.8a2.678,2.678,0,0,1,.26-0.76,11.549,11.549,0,0,0-1.93-.65,10.026,10.026,0,0,0-2.41-.27,9.2,9.2,0,0,0-3.04.48,6.682,6.682,0,0,0-2.37,1.4,6.448,6.448,0,0,0-1.54,2.25,8.621,8.621,0,0,0,0,6.06,6.392,6.392,0,0,0,1.52,2.25,6.074,6.074,0,0,0,2.31,1.37,9.121,9.121,0,0,0,2.92.45,8.161,8.161,0,0,0,1.42-.12q0.68-.12,1.23-0.27a5.144,5.144,0,0,0,.94-0.34,2.271,2.271,0,0,0,.57-0.35h0Zm7-4.3c0,0.88-.017,1.75-0.05,2.6s-0.07,1.7-.11,2.52c0.306-.02.633-0.04,0.98-0.04s0.673,0.02.98,0.04q-0.06-1.23-.11-2.52c-0.034-.85-0.05-1.72-0.05-2.6v-1.46h0.76c0.427,0.44.9,0.98,1.41,1.61s1.016,1.27,1.51,1.91,0.943,1.24,1.35,1.8,0.71,0.98.91,1.26a5.407,5.407,0,0,1,.58-0.04h1.18c0.2,0,.4.02,0.6,0.04-0.187-.18-0.434-0.46-0.74-0.82s-0.634-.75-0.98-1.19-0.707-.88-1.08-1.36-0.734-.92-1.08-1.36-0.66-.83-0.94-1.19-0.5-.64-0.66-0.84a6.249,6.249,0,0,0,1.29-.33,5,5,0,0,0,1.33-.7,4.019,4.019,0,0,0,1.05-1.14,3.469,3.469,0,0,0,.1-3.15,2.7,2.7,0,0,0-.9-0.97,4.108,4.108,0,0,0-1.33-.53,8.242,8.242,0,0,0-1.6-.16c-0.387,0-.767.02-1.14,0.05a10.727,10.727,0,0,1-1.14.05q-0.581,0-1.14-.03c-0.374-.02-0.753-0.04-1.14-0.07,0.04,0.88.076,1.75,0.11,2.59s0.05,1.71.05,2.59v3.44Zm1.64-3.44q0-1.08.04-2.16c0.026-.72.053-1.44,0.08-2.18,0.213-.02.473-0.05,0.78-0.07s0.693-.03,1.16-0.03a5.556,5.556,0,0,1,1.06.11,2.994,2.994,0,0,1,1,.41,2.314,2.314,0,0,1,.75.81,2.587,2.587,0,0,1,.29,1.29,2.756,2.756,0,0,1-.37,1.49,2.825,2.825,0,0,1-.93.94,3.551,3.551,0,0,1-1.23.49,5.876,5.876,0,0,1-1.29.14c-0.267,0-.51,0-0.73-0.02a3.694,3.694,0,0,1-.61-0.08v-1.14Zm14.01,4.75a6.17,6.17,0,0,0,3.91,3.62,10.426,10.426,0,0,0,6.06,0,6.17,6.17,0,0,0,3.91-3.62,8.621,8.621,0,0,0,0-6.06,6.448,6.448,0,0,0-1.54-2.25,6.682,6.682,0,0,0-2.37-1.4,9.8,9.8,0,0,0-6.06,0,6.682,6.682,0,0,0-2.37,1.4,6.435,6.435,0,0,0-1.54,2.25A8.621,8.621,0,0,0,377.54,1013.76Zm12.05-.16a5.374,5.374,0,0,1-1.17,2,4.588,4.588,0,0,1-1.76,1.17,6.03,6.03,0,0,1-2.19.38,5.964,5.964,0,0,1-2.17-.38,4.58,4.58,0,0,1-1.76-1.17,5.374,5.374,0,0,1-1.17-2,10.016,10.016,0,0,1,0-5.74,5.539,5.539,0,0,1,1.17-2,4.818,4.818,0,0,1,1.76-1.17,6.183,6.183,0,0,1,2.17-.38,6.25,6.25,0,0,1,2.19.38,4.826,4.826,0,0,1,1.76,1.17,5.539,5.539,0,0,1,1.17,2A10.016,10.016,0,0,1,389.59,1013.6Zm9.18-4.59v3.44c0,0.88-.017,1.75-0.05,2.6s-0.07,1.7-.11,2.52c0.64-.02,1.256-0.04,1.85-0.04h3.69c0.613,0,1.226.02,1.84,0.04a1.823,1.823,0,0,1-.1-0.54,2.311,2.311,0,0,1,.1-0.6,24.205,24.205,0,0,1-2.8.23q-1.3.03-2.72,0.03c-0.014-.97-0.027-2.07-0.04-3.31s-0.02-2.69-.02-4.37c0-.88.016-1.74,0.05-2.59s0.07-1.71.11-2.59c-0.174.03-.34,0.05-0.5,0.07a3.855,3.855,0,0,1-.96,0c-0.16-.02-0.327-0.04-0.5-0.07,0.04,0.88.076,1.75,0.11,2.59s0.05,1.71.05,2.59h0Zm14,0v3.44c0,0.88-.017,1.75-0.05,2.6s-0.07,1.7-.11,2.52c0.64-.02,1.256-0.04,1.85-0.04h3.69c0.613,0,1.226.02,1.84,0.04a1.823,1.823,0,0,1-.1-0.54,2.311,2.311,0,0,1,.1-0.6,24.205,24.205,0,0,1-2.8.23q-1.3.03-2.72,0.03c-0.014-.97-0.027-2.07-0.04-3.31s-0.02-2.69-.02-4.37c0-.88.016-1.74,0.05-2.59s0.07-1.71.11-2.59c-0.174.03-.34,0.05-0.5,0.07a3.855,3.855,0,0,1-.96,0c-0.16-.02-0.327-0.04-0.5-0.07,0.04,0.88.076,1.75,0.11,2.59s0.05,1.71.05,2.59h0Z" transform="translate(-329.5 -1003.56)"/>
</svg>
