<svg id="media-ttl-lead01.svg" xmlns="http://www.w3.org/2000/svg" width="214" height="22.22" viewBox="0 0 214 22.22">
  <defs>
    <style>
      .cls-1 {
        fill: #52a5dc;
        fill-rule: evenodd;
      }
    </style>
  </defs>
  <path id="内定先" class="cls-1" d="M327.026,6933.86a12.87,12.87,0,0,0,3.4,4.24,5.229,5.229,0,0,0,1.559,1.02,2.83,2.83,0,0,0,1.582-1.74,0.7,0.7,0,0,0-.383-0.46,13.283,13.283,0,0,1-3.6-3.45,11.58,11.58,0,0,1-1.726-3.98,0.465,0.465,0,0,1,.477-0.46,0.187,0.187,0,0,1,.074.01h4.773a0.56,0.56,0,0,1,.671.45,0.543,0.543,0,0,1,0,.22v10.59c0,0.77.048,1.33-.911,1.33-0.305-.01-0.609-0.04-0.911-0.08a5.085,5.085,0,0,0-.552-0.04,0.582,0.582,0,0,0-.544.62,0.645,0.645,0,0,0,.017.11c0,1.86.551,1.86,1.63,1.86,3.07,0,3.838-.63,3.838-2.74,0-.56-0.048-1.14-0.048-1.72v-9.91c0-.67.048-1.37,0.048-2.06,0-.94-0.5-1.09-1.32-1.09-0.7,0-1.415.05-2.11,0.05h-4.364a0.575,0.575,0,0,1-.671-0.47,0.591,0.591,0,0,1,0-.21v-1.62a1.07,1.07,0,0,1,.336-1.12,0.422,0.422,0,0,0,.288-0.34,0.361,0.361,0,0,0-.408-0.31c-0.383-.05-1.99-0.17-2.374-0.17a0.368,0.368,0,0,0-.445.26,0.382,0.382,0,0,0-.01.13c0,0.16.024,0.4,0.024,0.51a9.716,9.716,0,0,1,.048,1.21v1.45a0.584,0.584,0,0,1-.463.68,0.732,0.732,0,0,1-.209,0h-4.318c-0.7,0-1.414-.05-2.11-0.05-0.839,0-1.3.17-1.3,1.12,0,0.68.048,1.39,0.048,2.06v10.65c0,1.05-.072,2.07-0.072,3.08,0,0.69.311,0.71,1.342,0.71,1.055,0,1.3-.02,1.3-0.75,0-1-.048-2.02-0.048-3.04v-10.7a0.567,0.567,0,0,1,.445-0.67,0.437,0.437,0,0,1,.227,0h4.389a0.486,0.486,0,0,1,.568.4,0.685,0.685,0,0,1,.007.08v0.14a9.959,9.959,0,0,1-4.8,7.35,0.856,0.856,0,0,0-.575.64,2.588,2.588,0,0,0,1.559,1.82c0.767,0,3.957-3.1,5.084-5.61a0.314,0.314,0,0,1,.264-0.19A0.251,0.251,0,0,1,327.026,6933.86Zm27.674-9.29a1.5,1.5,0,0,1,.264-1.28,0.546,0.546,0,0,0,.312-0.37c0-.31-0.48-0.31-0.7-0.34-0.552-.04-1.535-0.14-2.062-0.14-0.24,0-.456.05-0.456,0.34,0,0.07.024,0.16,0.024,0.24a12.286,12.286,0,0,1,.1,1.31v0.24a0.582,0.582,0,0,1-.445.68,0.863,0.863,0,0,1-.227,0h-3.865c-0.911,0-1.822-.02-2.757-0.02-0.672,0-1.367.17-1.367,0.99,0,0.24.024,0.69,0.024,1.31v0.92c0,0.31-.048.73-0.048,1.04,0,0.59.432,0.54,1.271,0.54s1.3,0.05,1.3-.54c0-.26-0.071-0.69-0.071-1.04v-0.41a0.586,0.586,0,0,1,.467-0.68,0.7,0.7,0,0,1,.2,0h13.572a0.577,0.577,0,0,1,.672.68v0.36c0,0.34-.048.78-0.048,1.05,0,0.58.455,0.53,1.27,0.53,0.961,0,1.344.03,1.344-.56,0-.26-0.072-0.73-0.072-1.02v-0.87c0-.53.048-0.99,0.048-1.33,0-.83-0.744-0.99-1.415-0.99-0.912,0-1.823.04-2.734,0.04h-3.935a0.575,0.575,0,0,1-.672-0.47,0.593,0.593,0,0,1,0-.21h0Zm-6.693,16.5c2.5,2.79,6.427,2.57,9.808,2.57h2.4c0.792,0,1.583,0,2.375-.03a1.861,1.861,0,0,0,.959-0.16,2.375,2.375,0,0,0,.576-1.71,0.551,0.551,0,0,0-.4-0.66,0.314,0.314,0,0,0-.1-0.01,2.767,2.767,0,0,0-.575.03c-1.464.14-3.166,0.19-4.629,0.19-1.031,0-2.062.02-3.1-.05a0.581,0.581,0,0,1-.634-0.53,0.575,0.575,0,0,1,.01-0.18v-2.35a0.577,0.577,0,0,1,.45-0.68,0.418,0.418,0,0,1,.222,0H356.9c0.768,0,1.511.05,2.278,0.05,0.624,0,.6-0.32.6-1.16,0-.87.024-1.2-0.6-1.2-0.767,0-1.51.05-2.278,0.05h-1.534a0.56,0.56,0,0,1-.668-0.43,0.606,0.606,0,0,1,0-.22v-1.58a0.578,0.578,0,0,1,.445-0.68,0.863,0.863,0,0,1,.227,0h1.87c0.863,0,1.7.05,2.566,0.05,0.6,0,.6-0.26.6-1.16,0-.85,0-1.16-0.6-1.16-0.863,0-1.7.04-2.566,0.04h-7.53c-0.863,0-1.7-.04-2.565-0.04-0.624,0-.6.33-0.6,1.16,0,0.85,0,1.16.6,1.16,0.863,0,1.726-.05,2.565-0.05h1.775a0.575,0.575,0,0,1,.672.45,0.593,0.593,0,0,1,0,.23v7.16a0.457,0.457,0,0,1-.388.51h-0.044c-0.048,0-.12-0.02-0.192-0.02a4.932,4.932,0,0,1-2.566-2.11,1.134,1.134,0,0,1-.24-0.66,1.3,1.3,0,0,1,.072-0.43c0.192-.71.264-1.2,0.336-1.54a0.915,0.915,0,0,1,.5-0.92,0.431,0.431,0,0,0,.288-0.31c0-.3-0.384-0.37-1.079-0.51-0.288-.05-1.415-0.29-1.655-0.29-0.383,0-.383.33-0.407,0.62a14.574,14.574,0,0,1-3.117,7.65,0.975,0.975,0,0,0-.264.51c0,0.56,1.439,1.13,1.9,1.13a0.919,0.919,0,0,0,.648-0.47q0.738-1.065,1.366-2.19a0.392,0.392,0,0,1,.36-0.24,0.488,0.488,0,0,1,.335.17h0Zm32.994-.05c0,2.14.7,2.59,2.685,2.59h3.885c1.247,0,2.063-.16,2.566-1.42a12.067,12.067,0,0,0,.768-3.11c0-.6-1.247-0.8-1.68-0.8-0.551,0-.575.29-0.647,0.77-0.264,1.89-.456,2.17-1.415,2.17h-2.805c-0.839,0-1.007-.17-1.007-1.02v-5.32a0.571,0.571,0,0,1,.429-0.68,0.98,0.98,0,0,1,.242,0h3.405c0.983,0,1.99.05,2.974,0.05,0.6,0,.576-0.34.576-1.21,0-.92.024-1.24-0.576-1.24-1.007,0-1.991.05-2.974,0.05h-5.2a0.577,0.577,0,0,1-.672-0.68v-2.28a0.572,0.572,0,0,1,.445-0.68,0.437,0.437,0,0,1,.227,0h3.644c0.864,0,1.727.05,2.59,0.05,0.575,0,.528-0.29.528-1.21,0-.9.047-1.2-0.528-1.2-0.863,0-1.726.05-2.59,0.05h-3.644a0.559,0.559,0,0,1-.671-0.44,0.575,0.575,0,0,1,0-.23v-0.78a1.678,1.678,0,0,1,.288-1.36,0.606,0.606,0,0,0,.312-0.36,0.393,0.393,0,0,0-.432-0.29c-0.287-.03-2.11-0.17-2.374-0.17a0.346,0.346,0,0,0-.422.26,0.339,0.339,0,0,0-.009.1,0.689,0.689,0,0,0,.024.22,11.58,11.58,0,0,1,.072,1.6v0.78a0.567,0.567,0,0,1-.445.67,0.437,0.437,0,0,1-.227,0h-1.607a0.433,0.433,0,0,1-.478-0.39,0.117,0.117,0,0,1,0-.02,0.716,0.716,0,0,1,.048-0.19,3.841,3.841,0,0,1,.144-0.39,0.9,0.9,0,0,1,.5-0.75,0.387,0.387,0,0,0,.336-0.32c0-.26-0.264-0.33-1.008-0.55a13.969,13.969,0,0,0-1.558-.39,0.33,0.33,0,0,0-.288.32,20.45,20.45,0,0,1-2.781,5.89,5.645,5.645,0,0,0-.744,1.14c0,0.46,1.391,1.14,1.847,1.14a0.776,0.776,0,0,0,.6-0.41,20.817,20.817,0,0,0,1.367-2.22,0.917,0.917,0,0,1,.959-0.55h2.662a0.577,0.577,0,0,1,.672.68v2.28a0.582,0.582,0,0,1-.445.68,0.863,0.863,0,0,1-.227,0h-5.083c-1.007,0-1.99-.05-2.973-0.05-0.6,0-.576.29-0.576,1.24,0,0.9-.024,1.21.576,1.21,0.983,0,1.966-.05,2.973-0.05h2.518c0.407,0,.527.2,0.527,0.61a6.206,6.206,0,0,1-.983,3.25,10,10,0,0,1-5.2,3.82c-0.264.07-.575,0.11-0.575,0.43a2.333,2.333,0,0,0,1.534,1.7,7.6,7.6,0,0,0,2.182-.95,10.015,10.015,0,0,0,5.348-7.45,0.332,0.332,0,0,1,.24-0.33,0.431,0.431,0,0,0,.36-0.37c0-.24-0.456-0.32-1.392-0.56a0.086,0.086,0,0,1-.047-0.08,0.065,0.065,0,0,1,.05-0.07h2.52a0.575,0.575,0,0,1,.671.45,0.593,0.593,0,0,1,0,.23v6.14h0Z" transform="translate(-317 -6921.97)"/>
  <path id="_2020年卒" data-name="2020年卒" class="cls-1" d="M515.033,6927.68a0.279,0.279,0,0,0-.188-0.42,3,3,0,0,0-.625-0.08c-1-.01-2.01,0-3.014.04a0.619,0.619,0,0,1-.787-0.73c0.009-.12-0.006-0.23-0.008-0.35-0.016-1.38,0-1.36,1.384-1.32,2.037,0.04,4.076.02,6.114,0.05a0.889,0.889,0,0,0,1.05-1.09c-0.066-1.75-.041-1.75,1.765-1.52,0.335,0.05.669,0.1,1.064,0.17a0.278,0.278,0,0,1,.171.45,0.6,0.6,0,0,0-.142.24,2.661,2.661,0,0,0-.132,1.3,1.268,1.268,0,0,0,.991.42c2.181,0.02,4.362-.02,6.543-0.05,0.888-.02,1.024.12,1.034,1.14,0.011,1.16-.084,1.28-0.964,1.28-0.769-.01-1.537,0-2.366,0a0.278,0.278,0,0,0-.18.49l0.106,0.09a0.275,0.275,0,0,1-.068.46l-0.262.13a1.147,1.147,0,0,0-.339,1.99c0.872,0.88,1.792,1.7,2.693,2.55,0.4,0.37.9,0.68,0.342,1.33-0.8.94-1.342,1.16-2,.58a30.27,30.27,0,0,1-2.588-2.53c-0.532-.58-0.912-0.65-1.448-0.03-0.463.54-.983,1.03-1.508,1.55a0.282,0.282,0,0,0,.055.44c0.116,0.07.221,0.13,0.32,0.19a0.729,0.729,0,0,1,.02.22c-0.091.26-.186,0.52-0.281,0.79a0.282,0.282,0,0,0,.176.36,3.385,3.385,0,0,0,.918.21c2.354,0.01,4.708,0,7.061-.06A0.847,0.847,0,0,1,531,6937c-0.025,1.51.015,1.48-1.533,1.45-2.3-.04-4.593-0.01-6.889-0.03a0.881,0.881,0,0,0-1.042,1.03c0.03,1.13.03,2.25,0.084,3.37,0.038,0.78-.207,1.22-1.053,1.14a5.892,5.892,0,0,0-.84-0.02,0.7,0.7,0,0,1-.839-0.85c0.026-1.21.007-2.42,0.049-3.63a0.856,0.856,0,0,0-1.008-1.04c-2.411.03-4.822,0.02-7.233,0.06-1.02.01-1.1-.03-1.11-1.02-0.02-1.45.016-1.48,1.108-1.47,2.325,0.02,4.651.05,6.976,0.04a1.573,1.573,0,0,0,1.117-.34,1.794,1.794,0,0,0-.261-1.34c-0.443-.59-0.18-0.88.222-1.29,1.567-1.6,3.107-3.22,4.646-4.84a3.688,3.688,0,0,0,.361-0.5,0.28,0.28,0,0,0-.232-0.43h-5.257a0.282,0.282,0,0,0-.174.5l0.011,0.01a0.28,0.28,0,0,1-.058.47c-0.086.04-.16,0.08-0.232,0.12a1.173,1.173,0,0,0-.254,2.07c0.316,0.29.622,0.6,0.961,0.86,0.559,0.44.8,0.85,0.212,1.48-0.828.9-1.234,1.03-1.94,0.45-0.286-.24-0.543-0.52-0.8-0.78-0.785-.81-0.77-0.8-1.578.04a27.725,27.725,0,0,1-2.105,2.04,1.248,1.248,0,0,1-1.046.29,4.315,4.315,0,0,1-1.264-1.22,1.8,1.8,0,0,1,.509-0.79c1.394-1.57,2.807-3.11,4.2-4.67A3.768,3.768,0,0,0,515.033,6927.68Zm-22.982-4.88c-0.542.61-.883,1-1.381,1.56a7.69,7.69,0,0,0,1.133.19c3.587-.01,7.175-0.01,10.763-0.06,0.783-.01,1.139.22,1.038,1.03a2.736,2.736,0,0,0,0,.6c0.073,0.73-.261.96-0.961,0.94-1.663-.05-3.329-0.05-4.993-0.06-1,0-1.122.14-1.132,1.16-0.019,1.94-.019,1.94,1.89,1.94,1.005,0,2.01.01,3.014-.02a0.65,0.65,0,0,1,.793.75c0,0.29-.01.58,0,0.86a0.743,0.743,0,0,1-.939.88c-1.262-.05-2.526-0.02-3.789-0.05a0.827,0.827,0,0,0-.98.98c0.041,2.6-.336,2.47,2.369,2.44,1.606-.01,3.214-0.03,4.818-0.11a0.861,0.861,0,0,1,1.087,1.03c-0.011.2-.006,0.4,0,0.6a0.81,0.81,0,0,1-.984.95c-2.066-.06-4.134-0.01-6.2-0.06a0.869,0.869,0,0,0-1.037,1.12c0.057,1.17,0,2.02,0,3.54,0,0.98-.627.95-1.308,0.98-1.508-.03-1.508-0.03-1.508-1.84,0.023-.89-0.007-1.78.04-2.67a0.912,0.912,0,0,0-1.1-1.13c-2.7.04-5.4,0.03-8.094,0.04-1.077,0-1.174-.12-1.136-1.46,0.028-1,.189-1.16,1.2-1.07,2.891,0.27,2.362-.05,2.395-2.24,0.011-.75-0.028-1.5-0.03-2.25,0-1.04.219-1.28,1.254-1.28,1.492-.01,2.985-0.01,4.477.02a0.868,0.868,0,0,0,1.036-1.02c0.032-2.09.045-2-2.038-2.12a3.463,3.463,0,0,0-3.647,1.75,15.911,15.911,0,0,1-2.5,2.84c-0.7.72-1.112,0.59-1.991-.32a0.919,0.919,0,0,1,.121-1.57,16.347,16.347,0,0,0,4.836-7.01,0.8,0.8,0,0,1,1.238-.57C490.505,6922.35,491.228,6922.54,492.051,6922.8Zm-0.326,9.72c-2.335-.05-2.244.01-2.222,2.37,0,0.03,0,.06,0,0.09a0.9,0.9,0,0,0,.972.96c0.657,0.01,1.314.01,1.97,0.01,1.119-.01,1.327-0.22,1.327-1.38C493.774,6932.57,494.039,6932.48,491.725,6932.52Zm-51.48.71a10.129,10.129,0,0,1-2.306,6.81,6.741,6.741,0,0,1-11.441-2.27,11.661,11.661,0,0,1,.372-8.83c1.431-3.17,4.075-4.51,7.661-4.03a6.907,6.907,0,0,1,5.452,5.84C440.118,6931.57,440.16,6932.41,440.245,6933.23Zm-3.021.77a9.239,9.239,0,0,0-.342-3.42,3.835,3.835,0,0,0-7.294-.52,9.057,9.057,0,0,0-.478,6.3,3.806,3.806,0,0,0,3.178,3.21,3.712,3.712,0,0,0,4.068-2.38A9.711,9.711,0,0,0,437.224,6934Zm24.965-.16a10.318,10.318,0,0,1,2.194-6.76,6.823,6.823,0,0,1,11.311,1.64,11.114,11.114,0,0,1-.394,9.9,6.8,6.8,0,0,1-12.79-2.05C462.34,6935.67,462.293,6934.75,462.189,6933.84Zm2.97,1.09a14.245,14.245,0,0,0,.784,2.6,3.573,3.573,0,0,0,6,.82c1.74-1.9,2.251-5.78,1.106-8.3a3.654,3.654,0,0,0-3.346-2.41,3.759,3.759,0,0,0-3.663,2.23A10.117,10.117,0,0,0,465.159,6934.93Zm-14.979,4.62c1.77,0,3.541-.01,5.31.02a1.765,1.765,0,0,1,1.115.29,7.184,7.184,0,0,1-.041,2.12,1.825,1.825,0,0,1-.937.2c-3.126.01-6.253,0.02-9.379-.01a2.011,2.011,0,0,1-1.17-.36,3.274,3.274,0,0,1,.313-1.84,9.789,9.789,0,0,1,1.6-1.42c1.715-1.65,3.45-3.29,5.081-5.02a6.692,6.692,0,0,0,1.319-2.29,2.659,2.659,0,0,0-2.97-3.67,4.64,4.64,0,0,0-3.052,1.41,0.887,0.887,0,0,1-1.551-.07c-1.325-1.48-1.365-1.56.29-2.69a7.991,7.991,0,0,1,7.3-1.03c2.773,0.93,3.905,3.79,2.814,6.81a11.975,11.975,0,0,1-2.992,4.37c-1.029,1.02-2.1,2-3.158,3C450.109,6939.43,450.145,6939.49,450.18,6939.55Zm-35.85,0c1.83,0,3.662.04,5.491-.01,0.878-.03,1.223.26,1.1,1.13a3.67,3.67,0,0,0,0,.77,0.605,0.605,0,0,1-.7.74c-3.442,0-6.884.01-10.326-.01a0.844,0.844,0,0,1-.65-0.39,1.948,1.948,0,0,1,.444-1.99c1.341-1.12,2.7-2.24,3.939-3.47,1.2-1.19,2.285-2.49,3.364-3.79a4.067,4.067,0,0,0,.648-1.39,2.68,2.68,0,0,0-2.958-3.58,5.04,5.04,0,0,0-3.08,1.36c-0.8.75-.9,0.72-1.658-0.1-1.251-1.35-1.268-1.45.252-2.52a8.024,8.024,0,0,1,7.363-1.13c2.737,0.87,3.923,3.72,2.905,6.7a11.639,11.639,0,0,1-2.945,4.4c-0.87.88-1.786,1.71-2.694,2.54a5.636,5.636,0,0,1-.7.47Z" transform="translate(-317 -6921.97)"/>
</svg>
