<svg xmlns="http://www.w3.org/2000/svg" width="180" height="22.59" viewBox="0 0 180 22.59">
  <defs>
    <style>
      .cls-1 {
        fill: #52a5dc;
        fill-rule: evenodd;
      }
    </style>
  </defs>
  <path id="media-ttl-lead01.svg" class="cls-1" d="M324.359,7357.63a0.311,0.311,0,0,0-.266.19c-1.138,2.46-4.357,5.51-5.132,5.51a2.57,2.57,0,0,1-1.574-1.79,0.836,0.836,0,0,1,.58-0.62,9.826,9.826,0,0,0,4.843-7.23v-0.15a0.5,0.5,0,0,0-.582-0.48H317.8a0.575,0.575,0,0,0-.677.67v10.53c0,1.01.048,2.01,0.048,2.99,0,0.72-.242.74-1.307,0.74-1.042,0-1.356-.02-1.356-0.69,0-1.01.073-2.01,0.073-3.04v-10.48c0-.67-0.048-1.36-0.048-2.03,0-.93.459-1.1,1.306-1.1,0.7,0,1.429.05,2.13,0.05h4.359a0.578,0.578,0,0,0,.677-0.67v-1.43a9.382,9.382,0,0,0-.048-1.19c0-.1-0.024-0.34-0.024-0.5a0.373,0.373,0,0,1,.459-0.39c0.388,0,2.01.12,2.4,0.17a0.371,0.371,0,0,1,.412.31,0.439,0.439,0,0,1-.291.34,1.024,1.024,0,0,0-.339,1.09v1.6a0.579,0.579,0,0,0,.678.67h4.406c0.7,0,1.428-.05,2.131-0.05,0.823,0,1.331.15,1.331,1.08,0,0.67-.049,1.36-0.049,2.03v9.74c0,0.57.049,1.14,0.049,1.69,0,2.08-.774,2.7-3.873,2.7-1.091,0-1.647,0-1.647-1.84a0.575,0.575,0,0,1,.533-0.71,5.233,5.233,0,0,1,.557.04,8.848,8.848,0,0,0,.92.08c0.968,0,.919-0.55.919-1.32v-10.41a0.575,0.575,0,0,0-.677-0.67H326.03a0.473,0.473,0,0,0-.557.46,11.478,11.478,0,0,0,1.743,3.92,13.216,13.216,0,0,0,3.632,3.38,0.744,0.744,0,0,1,.387.46,2.852,2.852,0,0,1-1.6,1.72,5.445,5.445,0,0,1-1.575-1.01,12.754,12.754,0,0,1-3.438-4.17A0.26,0.26,0,0,0,324.359,7357.63Zm20.134,7.11a0.408,0.408,0,0,0-.363.24,24.842,24.842,0,0,1-1.379,2.15,0.943,0.943,0,0,1-.655.47c-0.459,0-1.912-.57-1.912-1.12a0.976,0.976,0,0,1,.266-0.5,14.121,14.121,0,0,0,3.147-7.52c0.025-.29.025-0.62,0.412-0.62,0.242,0,1.38.24,1.671,0.29,0.7,0.14,1.089.21,1.089,0.5a0.43,0.43,0,0,1-.291.31,0.9,0.9,0,0,0-.508.91c-0.072.33-.145,0.81-0.338,1.5a1.3,1.3,0,0,0-.073.43,1.046,1.046,0,0,0,.241.64,4.872,4.872,0,0,0,2.591,2.08c0.072,0,.145.03,0.194,0.03a0.452,0.452,0,0,0,.435-0.51v-7.04a0.571,0.571,0,0,0-.677-0.67h-1.792c-0.848,0-1.719.05-2.59,0.05-0.605,0-.605-0.31-0.605-1.15,0-.81-0.025-1.14.605-1.14,0.871,0,1.719.04,2.59,0.04h7.6c0.872,0,1.719-.04,2.591-0.04,0.6,0,.6.31,0.6,1.14,0,0.89,0,1.15-.6,1.15-0.872,0-1.719-.05-2.591-0.05h-1.888a0.572,0.572,0,0,0-.678.67v1.55a0.565,0.565,0,0,0,.678.65h1.549c0.775,0,1.525-.05,2.3-0.05,0.63,0,.605.31,0.605,1.17,0,0.84.025,1.15-.605,1.15-0.775,0-1.525-.05-2.3-0.05h-1.549a0.572,0.572,0,0,0-.678.67v2.31a0.588,0.588,0,0,0,.63.7c1.04,0.07,2.081.04,3.122,0.04,1.477,0,3.2-.04,4.673-0.19a5.411,5.411,0,0,1,.581-0.02,0.541,0.541,0,0,1,.508.67,2.3,2.3,0,0,1-.581,1.67,1.82,1.82,0,0,1-.968.17c-0.8.02-1.6,0.02-2.4,0.02h-2.421c-3.413,0-7.384.21-9.9-2.53A0.45,0.45,0,0,0,344.493,7364.74Zm7.772-15.4h3.97c0.92,0,1.84-.05,2.76-0.05,0.678,0,1.428.17,1.428,0.98,0,0.34-.048.79-0.048,1.32v0.85c0,0.29.073,0.74,0.073,1.01,0,0.57-.388.55-1.356,0.55-0.823,0-1.283.04-1.283-.53,0-.26.048-0.69,0.048-1.03v-0.35a0.572,0.572,0,0,0-.678-0.67h-13.7a0.58,0.58,0,0,0-.677.67v0.4c0,0.34.072,0.77,0.072,1.03,0,0.57-.459.52-1.307,0.52s-1.284.05-1.284-.52c0-.31.049-0.72,0.049-1.03v-0.9c0-.63-0.024-1.06-0.024-1.3,0-.81.7-0.97,1.38-0.97,0.944,0,1.864.02,2.784,0.02h3.9a0.572,0.572,0,0,0,.678-0.67v-0.24a11.426,11.426,0,0,0-.1-1.29c0-.07-0.024-0.16-0.024-0.23,0-.29.218-0.34,0.46-0.34,0.532,0,1.525.1,2.082,0.14,0.217,0.03.7,0.03,0.7,0.34a0.557,0.557,0,0,1-.314.36,1.429,1.429,0,0,0-.266,1.26A0.58,0.58,0,0,0,352.265,7349.34Zm25,9.48a0.572,0.572,0,0,0-.678-0.67h-2.519a0.061,0.061,0,0,0-.071.07,0.07,0.07,0,0,0,.048.07c0.944,0.24,1.4.31,1.4,0.55a0.408,0.408,0,0,1-.363.36,0.337,0.337,0,0,0-.243.34,9.854,9.854,0,0,1-5.4,7.33,7.994,7.994,0,0,1-2.2.93,2.32,2.32,0,0,1-1.55-1.67c0-.32.315-0.36,0.581-0.43a10.041,10.041,0,0,0,5.253-3.75,6.03,6.03,0,0,0,.993-3.2,0.478,0.478,0,0,0-.532-0.6h-2.542c-1.017,0-2.01.05-3,.05-0.606,0-.581-0.31-0.581-1.2,0-.93-0.025-1.21.581-1.21,0.992,0,1.985.05,3,.05h5.132a0.575,0.575,0,0,0,.678-0.67v-2.25a0.572,0.572,0,0,0-.678-0.67h-2.687a0.932,0.932,0,0,0-.969.55,21.314,21.314,0,0,1-1.38,2.18,0.777,0.777,0,0,1-.605.4c-0.459,0-1.864-.67-1.864-1.12a5.543,5.543,0,0,1,.75-1.12,19.823,19.823,0,0,0,2.809-5.8,0.338,0.338,0,0,1,.29-0.32,15.538,15.538,0,0,1,1.574.39c0.75,0.21,1.016.28,1.016,0.55a0.386,0.386,0,0,1-.338.31,0.866,0.866,0,0,0-.508.74,3.228,3.228,0,0,0-.146.38,0.694,0.694,0,0,0-.048.19,0.451,0.451,0,0,0,.484.41h1.622a0.572,0.572,0,0,0,.678-0.67v-0.77a10.952,10.952,0,0,0-.073-1.57,0.717,0.717,0,0,1-.023-0.22,0.352,0.352,0,0,1,.435-0.36c0.266,0,2.106.15,2.4,0.17a0.409,0.409,0,0,1,.436.29,0.633,0.633,0,0,1-.316.36,1.6,1.6,0,0,0-.289,1.33v0.77a0.571,0.571,0,0,0,.677.67h3.68c0.872,0,1.743-.05,2.615-0.05,0.581,0,.532.28,0.532,1.17s0.049,1.19-.532,1.19c-0.872,0-1.743-.05-2.615-0.05H378.5a0.571,0.571,0,0,0-.677.67v2.25a0.575,0.575,0,0,0,.677.67h5.253c0.994,0,1.986-.05,3-0.05,0.6,0,.581.31,0.581,1.21,0,0.86.024,1.2-.581,1.2-0.993,0-2.009-.05-3-0.05h-3.437a0.565,0.565,0,0,0-.678.67v5.23c0,0.83.17,1,1.016,1h2.833c0.969,0,1.162-.26,1.428-2.12,0.073-.48.1-0.77,0.655-0.77,0.436,0,1.694.19,1.694,0.79a11.625,11.625,0,0,1-.775,3.06c-0.508,1.24-1.331,1.41-2.59,1.41h-3.922c-2.009,0-2.711-.46-2.711-2.56v-6.04Zm24.167,10.08a0.7,0.7,0,0,1-.283.1,0.408,0.408,0,0,1-.325-0.25,10.859,10.859,0,0,1,0-12.54,0.43,0.43,0,0,1,.325-0.25,0.7,0.7,0,0,1,.283.1l0.41,0.2a0.341,0.341,0,0,1,.269.26,0.526,0.526,0,0,1-.128.27,9.771,9.771,0,0,0,0,11.37,0.585,0.585,0,0,1,.128.28,0.362,0.362,0,0,1-.269.27Zm7.561-4.08c0.72,0,2.05-.03,2.148-0.03,0.3,0,.353.08,0.353,0.4v0.66c0,0.32-.056.4-0.353,0.4-0.1,0-1.428-.03-2.148-0.03h-1.839c-0.721,0-2.05.03-2.148,0.03-0.3,0-.354-0.08-0.354-0.4v-0.25a0.669,0.669,0,0,1,.339-0.69,8.9,8.9,0,0,0,.722-0.58c2.544-2.21,4.015-3.6,4.015-4.97a1.553,1.553,0,0,0-1.8-1.53,2.876,2.876,0,0,0-2.064.92,0.455,0.455,0,0,1-.3.2,0.523,0.523,0,0,1-.282-0.2l-0.566-.6a0.48,0.48,0,0,1-.169-0.29,0.49,0.49,0,0,1,.2-0.31,4.884,4.884,0,0,1,3.322-1.27c2.15,0,3.351,1.26,3.351,2.86,0,1.97-1.6,3.54-3.761,5.4a0.335,0.335,0,0,0-.155.19q0,0.09.255,0.09h1.23Zm13.65-3.74c0,3.32-1.937,5.26-4.3,5.26-2.263,0-4.058-1.69-4.058-4.87,0-2.86,1.484-5.17,4.269-5.17C420.776,7356.3,422.642,7357.9,422.642,7361.08Zm-6.7.43c0,2.18.975,3.33,2.4,3.33,1.512,0,2.643-1.43,2.643-3.7,0-2.19-1.032-3.28-2.432-3.28C416.761,7357.86,415.941,7359.55,415.941,7361.51Zm13.426,3.31c0.721,0,2.05-.03,2.149-0.03,0.3,0,.353.08,0.353,0.4v0.66c0,0.32-.057.4-0.353,0.4-0.1,0-1.428-.03-2.149-0.03h-1.838c-0.722,0-2.05.03-2.149,0.03-0.3,0-.354-0.08-0.354-0.4v-0.25a0.67,0.67,0,0,1,.339-0.69,8.727,8.727,0,0,0,.722-0.58c2.545-2.21,4.015-3.6,4.015-4.97a1.553,1.553,0,0,0-1.8-1.53,2.873,2.873,0,0,0-2.063.92,0.456,0.456,0,0,1-.3.2,0.523,0.523,0,0,1-.282-0.2l-0.566-.6a0.48,0.48,0,0,1-.169-0.29,0.492,0.492,0,0,1,.2-0.31,4.879,4.879,0,0,1,3.321-1.27c2.15,0,3.352,1.26,3.352,2.86,0,1.97-1.6,3.54-3.762,5.4a0.332,0.332,0,0,0-.154.19c0,0.06.084,0.09,0.254,0.09h1.23Zm13.651-3.74c0,3.32-1.937,5.26-4.3,5.26-2.262,0-4.058-1.69-4.058-4.87,0-2.86,1.484-5.17,4.27-5.17C441.152,7356.3,443.018,7357.9,443.018,7361.08Zm-6.7.43c0,2.18.975,3.33,2.4,3.33,1.513,0,2.643-1.43,2.643-3.7,0-2.19-1.032-3.28-2.431-3.28C437.137,7357.86,436.318,7359.55,436.318,7361.51Zm13.948-3.87a0.069,0.069,0,0,0-.085.07,0.293,0.293,0,0,0,.183.12,0.613,0.613,0,0,1,.424.32,0.173,0.173,0,0,1-.2.14,0.413,0.413,0,0,0-.368.28c-0.042.07-.084,0.14-0.156,0.24a0.415,0.415,0,0,0-.1.26,0.368,0.368,0,0,0,.127.28,12.25,12.25,0,0,0,1,.88,0.388,0.388,0,0,1,.17.22,1.612,1.612,0,0,1-.905.89,3.76,3.76,0,0,1-1.1-.91,0.375,0.375,0,0,0-.254-0.13,0.348,0.348,0,0,0-.254.13c-0.382.41-1.09,1.12-1.513,1.49a0.689,0.689,0,0,1-.382.19,1.561,1.561,0,0,1-.933-0.79,0.7,0.7,0,0,1,.311-0.37,15.468,15.468,0,0,0,2.715-2.99,0.253,0.253,0,0,0,.042-0.14,0.189,0.189,0,0,0-.227-0.18H448.2c-0.551,0-1.117.02-1.668,0.02-0.339,0-.339-0.15-0.339-0.67s-0.015-.69.339-0.69c0.551,0,1.117.02,1.668,0.02h2.644a0.342,0.342,0,0,0,.395-0.39,7.6,7.6,0,0,0-.056-0.79c0-.04-0.014-0.13-0.014-0.17,0-.17.128-0.19,0.268-0.19,0.241,0,.934.07,1.2,0.09,0.127,0.02.382,0.02,0.382,0.2a0.267,0.267,0,0,1-.169.18,0.483,0.483,0,0,0-.156.46v0.24a0.316,0.316,0,0,0,.382.37h2.7c0.551,0,1.1-.02,1.668-0.02,0.354,0,.34.16,0.34,0.69s0,0.67-.34.67c-0.565,0-1.117-.02-1.668-0.02h-0.367a0.069,0.069,0,0,0-.085.07,0.223,0.223,0,0,0,.07.08,0.852,0.852,0,0,1,.537.35,0.209,0.209,0,0,1-.239.15,0.4,0.4,0,0,0-.354.27c-0.043.05-.085,0.11-0.141,0.19a0.516,0.516,0,0,0-.114.28,0.434,0.434,0,0,0,.114.29,14.231,14.231,0,0,0,1.908,1.76,0.588,0.588,0,0,1,.254.32,1.774,1.774,0,0,1-.933.84,9.784,9.784,0,0,1-2.092-1.87,0.321,0.321,0,0,0-.24-0.13,0.334,0.334,0,0,0-.241.12c-0.438.44-.763,0.75-1.23,1.17a0.173,0.173,0,0,0-.071.11,0.114,0.114,0,0,0,.127.1c0.114,0.01.34,0.02,0.34,0.19a0.261,0.261,0,0,1-.169.19,0.362,0.362,0,0,0-.142.3,0.32,0.32,0,0,0,.382.36h3.054c0.593,0,1.173-.03,1.752-0.03,0.354,0,.34.17,0.34,0.7s0.014,0.7-.34.7c-0.579,0-1.159-.04-1.752-0.04h-3.068a0.329,0.329,0,0,0-.382.39v0.99c0,0.44.028,0.9,0.028,1.35,0,0.43-.141.46-0.734,0.46s-0.807.01-.807-0.45c0-.42.029-0.88,0.029-1.36v-0.99a0.334,0.334,0,0,0-.4-0.39h-3.012c-0.579,0-1.173.04-1.753,0.04-0.353,0-.339-0.18-0.339-0.7s0-.7.339-0.7c0.58,0,1.174.03,1.753,0.03h3.012a0.317,0.317,0,0,0,.381-0.38,2.814,2.814,0,0,0-.028-0.32,0.571,0.571,0,0,0-.184-0.34,0.57,0.57,0,0,1-.2-0.31,0.784,0.784,0,0,1,.311-0.37,15.165,15.165,0,0,0,3-3.12,0.216,0.216,0,0,0,.042-0.12,0.189,0.189,0,0,0-.227-0.18h-3.646Zm16.56,4.1a0.708,0.708,0,0,1,.339-0.17,1.225,1.225,0,0,1,.595.93,0.5,0.5,0,0,1-.312.41,52.193,52.193,0,0,1-5.259,2.83c-0.3.14-.325,0.15-0.353,0.33a0.175,0.175,0,0,1-.169.2,1.211,1.211,0,0,1-.5-0.64c-0.056-.1-0.1-0.2-0.141-0.27a1.039,1.039,0,0,1-.2-0.43c0-.13.1-0.16,0.509-0.32,0.184-.07.453-0.18,0.806-0.35a0.47,0.47,0,0,0,.325-0.53v-7.43a6.735,6.735,0,0,0-.043-0.94,0.444,0.444,0,0,1-.013-0.14c0-.15.1-0.19,0.24-0.19,0.2,0,1.032.08,1.272,0.11,0.113,0.01.353,0.03,0.353,0.2a0.287,0.287,0,0,1-.169.2,0.971,0.971,0,0,0-.156.74v6.71a0.2,0.2,0,0,0,.2.25,0.251,0.251,0,0,0,.141-0.04C465.144,7362.74,466.006,7362.26,466.826,7361.74Zm3.479,2.87a0.391,0.391,0,0,0-.269.14,10.526,10.526,0,0,1-3.633,2.2,2.253,2.253,0,0,1-.6.18,1.428,1.428,0,0,1-.791-1.12,0.318,0.318,0,0,1,.3-0.25,8.4,8.4,0,0,0,3.873-2.2,5.666,5.666,0,0,0,.976-3.5v-3.55a8.9,8.9,0,0,0-.043-1.08,0.625,0.625,0,0,1-.013-0.15,0.228,0.228,0,0,1,.283-0.24c0.211,0,1.172.07,1.384,0.1a0.222,0.222,0,0,1,.241.2,0.258,0.258,0,0,1-.183.2,0.809,0.809,0,0,0-.212.81v3.53a8.762,8.762,0,0,1-.468,3.07,1.2,1.2,0,0,0-.042.21,0.5,0.5,0,0,0,.184.37,13.64,13.64,0,0,1,2.262,2.74,1.364,1.364,0,0,1-.989.83,0.433,0.433,0,0,1-.283-0.23,15.453,15.453,0,0,0-1.725-2.14A0.527,0.527,0,0,0,470.305,7364.61Zm-2.545-5.11a0.4,0.4,0,0,1-.3-0.22,16.6,16.6,0,0,0-1.937-2.08,0.435,0.435,0,0,1-.2-0.29,1.53,1.53,0,0,1,.905-0.82,5.628,5.628,0,0,1,1.286,1.1,7.21,7.21,0,0,1,1.188,1.48A1.662,1.662,0,0,1,467.76,7359.5Zm10.213,5.23c0,0.69.042,1.35,0.042,2.04,0,0.44-.127.46-0.735,0.46-0.579,0-.721-0.02-0.721-0.46,0-.67.028-1.35,0.028-2.04v-7.72c0-.39-0.014-0.78-0.014-1.17,0-.56.311-0.69,0.82-0.69,0.353,0,.692.02,1.046,0.02h0.693c0.326,0,.636-0.02.863-0.02a0.92,0.92,0,0,1,.975.76,1.065,1.065,0,0,1-.071.35c-0.169.48-.876,2.11-1.131,2.58a0.479,0.479,0,0,0-.085.25,0.614,0.614,0,0,0,.127.29,5.311,5.311,0,0,1,.99,2.95,1.8,1.8,0,0,1-1.937,2.1c-0.268,0-.72.04-0.72-1.11,0-.18.042-0.3,0.254-0.3,0.113,0,.226.03,0.381,0.03a0.793,0.793,0,0,0,.637-0.99,4.041,4.041,0,0,0-1-2.53,0.64,0.64,0,0,1-.17-0.36,1.566,1.566,0,0,1,.227-0.52,17.987,17.987,0,0,0,.862-2.02c0-.18-0.212-0.18-0.354-0.18h-0.608a0.333,0.333,0,0,0-.395.39v7.89Zm8.016-1.78a0.337,0.337,0,0,0-.4.39v0.46a0.333,0.333,0,0,0,.4.39h0.48c0.566,0,1.132-.03,1.7-0.03,0.438,0,.424.15,0.424,0.61s0.014,0.62-.424.62c-0.565,0-1.131-.03-1.7-0.03h-0.48a0.336,0.336,0,0,0-.4.36c0.014,0.29.029,0.85,0.029,1.12,0,0.4-.156.42-0.736,0.42s-0.721-.02-0.721-0.41c0-.37.015-0.75,0.029-1.13a0.326,0.326,0,0,0-.382-0.36H482.3c-0.566,0-1.131.03-1.7,0.03-0.439,0-.425-0.17-0.425-0.62s-0.014-.61.425-0.61a4.555,4.555,0,0,1,.522.02,0.36,0.36,0,0,0,.383-0.4v-0.37c0-.35-0.029-0.7-0.029-1.03a0.562,0.562,0,0,1,.707-0.63c0.339,0,.664.03,1,0.03h0.623a0.332,0.332,0,0,0,.382-0.38c-0.014-.1-0.057-0.54-0.057-0.56,0-.15.127-0.16,0.255-0.16,0.24,0,.918.04,1.187,0.05,0.127,0.01.353,0.01,0.353,0.2a0.266,0.266,0,0,1-.169.19,0.347,0.347,0,0,0-.156.29,0.323,0.323,0,0,0,.382.37h0.282c0.41,0,.82-0.03,1.245-0.03,0.311,0,.311.12,0.311,0.61s0,0.62-.326.62c-0.41,0-.82-0.03-1.23-0.03h-0.282Zm-4.2-1.66a3.269,3.269,0,0,1-.608.12,1.053,1.053,0,0,1-.579-0.97c0-.22.2-0.25,0.707-0.39a10.791,10.791,0,0,0,2.247-.94,0.279,0.279,0,0,0,.155-0.23,0.341,0.341,0,0,0-.1-0.23c-0.184-.19-0.354-0.37-0.523-0.57a0.342,0.342,0,0,0-.269-0.15,0.4,0.4,0,0,0-.24.11,6.431,6.431,0,0,1-1.542,1.06,1.229,1.229,0,0,1-.791-0.82,0.32,0.32,0,0,1,.212-0.27,7.962,7.962,0,0,0,3-3.12,0.312,0.312,0,0,1,.227-0.22c0.07,0,1.032.23,1.159,0.26a0.551,0.551,0,0,1,.424.27,0.217,0.217,0,0,1-.212.15,0.474,0.474,0,0,0-.381.33,0.291,0.291,0,0,0-.043.14,0.194,0.194,0,0,0,.226.17h2.092a0.705,0.705,0,0,1,.707.39,0.89,0.89,0,0,1,.184.46,5.681,5.681,0,0,1-1.541,1.91,0.358,0.358,0,0,0-.114.23,0.315,0.315,0,0,0,.142.22,13.616,13.616,0,0,0,2.036.95,0.467,0.467,0,0,1,.41.3,1.472,1.472,0,0,1-.721,1.05,12.05,12.05,0,0,1-2.828-1.47,0.7,0.7,0,0,0-.325-0.11,0.468,0.468,0,0,0-.283.1A12.834,12.834,0,0,1,481.79,7361.29Zm2.4,2.05a0.39,0.39,0,0,0-.382-0.39h-0.594a0.4,0.4,0,0,0-.4.39v0.46a0.394,0.394,0,0,0,.4.39h0.594a0.374,0.374,0,0,0,.382-0.39v-0.46Zm1.64-6.11a0.742,0.742,0,0,0-.468-0.08h-1.059a0.171,0.171,0,0,0-.2.15,0.218,0.218,0,0,0,.042.14l0.481,0.48a0.488,0.488,0,0,0,.282.12,0.388,0.388,0,0,0,.269-0.11A3.408,3.408,0,0,0,485.834,7357.23Zm5.378,11.21a0.591,0.591,0,0,1,.127-0.28,9.767,9.767,0,0,0,0-11.37,0.531,0.531,0,0,1-.127-0.27,0.339,0.339,0,0,1,.269-0.26l0.41-.2a0.7,0.7,0,0,1,.283-0.1,0.43,0.43,0,0,1,.325.25,10.859,10.859,0,0,1,0,12.54,0.408,0.408,0,0,1-.325.25,0.7,0.7,0,0,1-.283-0.1l-0.41-.19A0.361,0.361,0,0,1,491.212,7368.44Z" transform="translate(-314.5 -7346.41)"/>
</svg>
