<svg xmlns="http://www.w3.org/2000/svg" width="357.156" height="22.5" viewBox="0 0 357.156 22.5">
  <defs>
    <style>
      .cls-1 {
        fill: #4da5dc;
        fill-rule: evenodd;
      }
    </style>
  </defs>
  <path id="エアライン就職対策講座_基礎_" data-name="エアライン就職対策講座［基礎］" class="cls-1" d="M571.674,12438.1h-3.12c-0.48,0-.624.1-0.624,1v0.6c0,0.7.072,1,.744,1,0.984,0,1.968-.1,2.976-0.1h1.921a0.7,0.7,0,0,1,.72.7v6.8a0.765,0.765,0,0,1-.72.7h-3.745c-1.008,0-2.3-.1-3.024-0.1-0.6,0-.624.2-0.624,1.4,0,0.8,0,1.3.672,1.3,0.72,0,1.944-.1,2.976-0.1h11.617c1.032,0,2.256.1,2.977,0.1,0.672,0,.672-0.5.672-1.3,0-1.2-.024-1.4-0.624-1.4-0.72,0-2.041.1-3.025,0.1H577.7a0.765,0.765,0,0,1-.72-0.7v-6.8a0.7,0.7,0,0,1,.72-0.7h1.92c1.008,0,1.992.1,2.976,0.1,0.672,0,.745-0.3.745-1v-0.6c0-.9-0.145-1-0.625-1H571.674Zm26.785,2.9c-0.24,0-.24.1-0.24,0.3a13.139,13.139,0,0,1-.384,3.6,11.458,11.458,0,0,1-5.017,7,0.872,0.872,0,0,0-.576.5,4.065,4.065,0,0,0,1.968,1.7,2.178,2.178,0,0,0,.792-0.4c3.577-2.8,5.065-5.9,5.761-10.2a4.537,4.537,0,0,1,.48-1.8,0.193,0.193,0,0,0,.144-0.2c0-.3-0.336-0.3-0.5-0.3C600.523,12441.2,598.771,12441,598.459,12441Zm-4.2-3.6c-1.1,0-2.208-.1-3.312-0.1-0.552,0-.6.3-0.6,0.9v0.5c0,1,.024,1.2.648,1.2h13.561c0.216,0,.744-0.1.744,0.2,0,0.4-2.664,2.7-3.1,3.1a2.228,2.228,0,0,0-.6.7,3.221,3.221,0,0,0,1.752,1.5,1.175,1.175,0,0,0,.576-0.3c0.888-.8,2.136-2.1,2.976-2.9,0.288-.3,2.089-2.2,2.233-2.3a1.239,1.239,0,0,0,.528-0.7,3.8,3.8,0,0,0-.888-1.4,1.372,1.372,0,0,0-.889-0.6h-0.312a10.421,10.421,0,0,1-2.5.2H594.258Zm25.128,3.5c-1.032,0-2.064-.1-3.072-0.1-0.672,0-.7.2-0.7,1.4,0,0.9,0,1.2.672,1.2,1.032,0,2.04-.1,3.048-0.1h8.929c0.384,0,1.032,0,1.032.6a5.794,5.794,0,0,1-.648,1.5,17.017,17.017,0,0,1-7.368,6.8,1.761,1.761,0,0,0-.84.7,2.907,2.907,0,0,0,1.656,1.7c0.744,0,3.336-1.8,4.008-2.4a20.116,20.116,0,0,0,4.968-5.6,16.557,16.557,0,0,0,1.393-3.3,6.123,6.123,0,0,0,.312-0.9,2.7,2.7,0,0,0-1.7-1.6h-0.432a15.279,15.279,0,0,1-2.16.1h-9.1Zm1.609-5.2c-0.937,0-2.161-.1-2.833-0.1-0.6,0-.648.3-0.648,1.4,0,0.9,0,1.2.672,1.2h11.521c0.648,0,.648-0.3.648-1.1,0-1.2-.048-1.5-0.648-1.5-0.624,0-1.848.1-2.832,0.1H621Zm29.328,5.9a1.444,1.444,0,0,1,.552-1.1,35.493,35.493,0,0,0,3.288-3.6,1.123,1.123,0,0,1,.936-0.5,0.344,0.344,0,0,0,.24-0.3,2.241,2.241,0,0,0-.936-0.9,12.825,12.825,0,0,0-1.632-.9,0.6,0.6,0,0,0-.384.3,19.628,19.628,0,0,1-3.264,4.1,35.059,35.059,0,0,1-9.433,6.3,0.572,0.572,0,0,0-.384.4,4.029,4.029,0,0,0,1.872,2c0.624,0,4.441-2.6,5.161-3.1a3.763,3.763,0,0,1,.936-0.6c0.456,0,.384.6,0.384,0.7v6.5c0,1.1-.048,2.1-0.048,3.1,0,0.7.24,0.7,1.56,0.7,0.888,0,1.2,0,1.2-.7,0-1-.048-2.1-0.048-3.1v-9.3Zm26.593-1.8a0.589,0.589,0,0,0-.408.2c-3.409,4.4-9.409,8.9-14.714,10.5-0.312.1-.744,0.1-0.744,0.4a6.469,6.469,0,0,0,.72,1.4,3.4,3.4,0,0,0,.936,1.3,0.288,0.288,0,0,0,.24-0.2,1.45,1.45,0,0,1,1.008-.8,40.844,40.844,0,0,0,13.034-9,4.9,4.9,0,0,0,1.272-1.7C678.26,12441.6,677.4,12439.8,676.916,12439.8Zm-14.186-3.9c-0.552,0-1.512,1.6-1.512,1.9a0.534,0.534,0,0,0,.384.5,26.3,26.3,0,0,1,3.193,2.2,2.684,2.684,0,0,0,.96.7,2.908,2.908,0,0,0,1.584-1.9,4.567,4.567,0,0,0-1.464-1.3A16.292,16.292,0,0,0,662.73,12435.9Zm23.856,12.7a0.5,0.5,0,0,0-.384-0.3c-0.312,0-1.608-.4-1.8-0.4a0.232,0.232,0,0,0-.264.2,20.228,20.228,0,0,1-1.368,3.9,1.716,1.716,0,0,0-.216.6c0,0.4,1.248.7,1.56,0.7a0.484,0.484,0,0,0,.5-0.4,21.751,21.751,0,0,0,1.1-2.9c0.048-.2.1-0.3,0.12-0.4,0.192-.6.192-0.6,0.48-0.7A0.265,0.265,0,0,0,686.586,12448.6Zm16.778-10.9a7.848,7.848,0,0,0-.816-1.7c-0.192-.4-0.864-1.5-1.225-1.5-0.24,0-1.584.6-1.584,1a1.02,1.02,0,0,0,.192.4,15.149,15.149,0,0,1,1.3,2.3,0.664,0.664,0,0,0,.481.5C702.02,12438.7,703.364,12438.2,703.364,12437.7Zm-13.994-2.1c-0.024-.6-0.024-1,0.288-1.1a0.718,0.718,0,0,0,.337-0.4,0.625,0.625,0,0,0-.649-0.3c-0.384,0-1.56-.1-1.92-0.1-0.216,0-.432,0-0.432.3v0.2a8.337,8.337,0,0,1,.1,1.4,0.6,0.6,0,0,1-.672.7h-0.672c-0.792,0-1.584-.1-2.376-0.1-0.48,0-.456.3-0.456,1.1,0,0.9-.024,1.2.48,1.2,0.72,0,1.56-.1,2.352-0.1h4.777c0.792,0,1.608.1,2.352,0.1,0.5,0,.48-0.3.48-1.2,0-.8,0-1.1-0.48-1.1-0.792,0-1.584.1-2.352,0.1h-0.481A0.583,0.583,0,0,1,689.37,12435.6Zm8.857,17.2c0,1.7.672,2.1,2.256,2.1h1.273a1.862,1.862,0,0,0,1.992-1,10.766,10.766,0,0,0,.672-3.5,0.635,0.635,0,0,0-.552-0.7,4.044,4.044,0,0,0-1.1-.1c-0.384,0-.384.2-0.408,0.5-0.1,2.4-.408,2.4-0.864,2.4h-0.384c-0.5,0-.625-0.1-0.625-0.6v-7.2c0-1-.024-1.3.288-1.4a0.705,0.705,0,0,0,.337-0.3c0-.3-0.457-0.3-1.273-0.4h-0.72a0.587,0.587,0,0,1-.576-0.7,0.362,0.362,0,0,1,.408-0.3h2.016c0.841,0,1.681.1,2.5,0.1,0.648,0,.624-0.4.624-1.2s0.048-1.2-.6-1.2c-0.84,0-1.68.1-2.521,0.1h-1.656a0.62,0.62,0,0,1-.672-0.7v-3c0-.8.024-1,0.336-1.2a0.558,0.558,0,0,0,.288-0.3,0.352,0.352,0,0,0-.384-0.3,16.118,16.118,0,0,0-2.184-.2,0.4,0.4,0,0,0-.48.4c0,0.1.024,0.1,0.024,0.2,0.048,0.6.072,1.1,0.072,1.7v2.7a0.543,0.543,0,0,1-.648.6h-1.728c-0.648,0-.624.3-0.624,1.2,0,0.8-.024,1.2.624,1.2,0.432,0,1.176-.1,1.656-0.1a0.518,0.518,0,0,1,.6.6,21.216,21.216,0,0,1-2.352,8.6,0.288,0.288,0,0,1-.24.2,0.32,0.32,0,0,1-.264-0.2c-0.288-.6-0.6-1.3-0.912-1.9-0.432-.8-0.5-1-0.792-1s-1.56.4-1.56,0.7a0.76,0.76,0,0,0,.168.4c0.5,1,.912,2,1.3,2.9a0.421,0.421,0,0,0,.36.4,2.182,2.182,0,0,0,.792-0.2h0.1a0.211,0.211,0,0,1,.192.2,3.688,3.688,0,0,1-.432.7,1.631,1.631,0,0,0-.528.8c0,0.5,1.224,1.2,1.824,1.2a1.1,1.1,0,0,0,.72-0.6,22.558,22.558,0,0,0,3.36-8c0.1-.5.1-0.6,0.216-0.6,0.072,0,.1.1,0.1,0.2v6.8Zm-8.617-10.8a0.7,0.7,0,0,1,.649.7v1.4a0.563,0.563,0,0,1-.649.6h-2.928a0.6,0.6,0,0,1-.672-0.6v-1.4a0.759,0.759,0,0,1,.672-0.7h2.928Zm0.529,4.6a0.279,0.279,0,0,1,.264.1,1.56,1.56,0,0,0,.936.2c0.5,0,1.056,0,1.056-.7,0,0-.048-1-0.048-1.2v-2.7c0-.4.048-0.9,0.048-1.3,0-.8-0.624-0.9-1.272-0.9H685.17c-0.648,0-1.248.1-1.248,0.9,0,0.4.024,0.8,0.024,1.3v2.7c0,0.4-.048.9-0.048,1.2,0,0.6.5,0.7,0.984,0.7a1.308,1.308,0,0,0,1.008-.2,0.279,0.279,0,0,1,.264-0.1h0.336a0.576,0.576,0,0,1,.648.7v4.3c0,0.9.048,1.3-.72,1.3H685.53c-0.36,0-.384.3-0.384,0.6,0,1.7.576,1.7,1.32,1.7a3.978,3.978,0,0,0,2.4-.6,1.909,1.909,0,0,0,.576-1.7c0-.4-0.048-0.9-0.048-1.4v-4.2a0.584,0.584,0,0,1,.673-0.7h0.072Zm29.832,2a0.541,0.541,0,0,1,.576.6h0a0.541,0.541,0,0,1-.576.6h-0.888a0.541,0.541,0,0,1-.576-0.6h0a0.541,0.541,0,0,1,.576-0.6h0.888Zm0-2.5a0.53,0.53,0,0,1,.576.5,0.614,0.614,0,0,1-.576.6h-0.888a0.614,0.614,0,0,1-.576-0.6,0.53,0.53,0,0,1,.576-0.5h0.888Zm2.448,0.1c0-.3.024-0.7,0.024-1.1a0.825,0.825,0,0,0-1.008-.9c-0.432,0-.84.1-1.248,0.1h-1.464c-0.432,0-.864-0.1-1.3-0.1a0.86,0.86,0,0,0-.96,1c0,0.3.024,0.7,0.024,1v4.8c0,0.4-.024.8-0.024,1.3,0,0.4.312,0.4,0.96,0.4,1.08,0,1.08,0,1.1-.5,0-.5.264-0.6,0.7-0.6h2.232a0.808,0.808,0,0,0,.984-0.9c0-.3-0.024-0.7-0.024-1v-3.5Zm7.321-7.4a11.11,11.11,0,0,0-.7-1.8,13.73,13.73,0,0,0-.84-1.7,0.589,0.589,0,0,0-.408-0.2c-0.216,0-1.393.3-1.393,0.7a0.731,0.731,0,0,0,.1.3,32.944,32.944,0,0,1,1.369,3,0.488,0.488,0,0,0,.456.5,2.572,2.572,0,0,0,.84-0.2A0.614,0.614,0,0,0,729.74,12438.8Zm-18.218,7.5a0.552,0.552,0,0,1,.672-0.6h0.336a0.552,0.552,0,0,1,.672.6v1.3a0.666,0.666,0,0,1-.624.8h-0.552a0.447,0.447,0,0,1-.5-0.5v-1.6Zm0-4.5a0.6,0.6,0,0,1,.672-0.6h0.336a0.6,0.6,0,0,1,.672.6v1.3a0.685,0.685,0,0,1-.672.7h-0.336a0.685,0.685,0,0,1-.672-0.7v-1.3Zm0-4.5a0.6,0.6,0,0,1,.672-0.6h0.336a0.6,0.6,0,0,1,.672.6v1.3a0.6,0.6,0,0,1-.672.6h-0.336a0.6,0.6,0,0,1-.672-0.6v-1.3Zm3.816,0.1c0-.6.337-0.7,0.433-0.7a0.354,0.354,0,0,1,.264.4c0.024,0.6.024,0.8,0.432,0.8,0.528,0,1.152-.1,1.776-0.1h1.92a0.525,0.525,0,0,1,.432.4c0,0.1-.024.1-0.024,0.2a17.919,17.919,0,0,1-.7,2.1,0.9,0.9,0,0,1-.912.6h-0.936a13.941,13.941,0,0,1-2.04-.1,0.544,0.544,0,0,1-.649-0.6v-3Zm6.673,3.7a0.373,0.373,0,0,1-.432-0.4,0.572,0.572,0,0,1,.024-0.2c0.216-.4.36-0.9,0.576-1.3a0.32,0.32,0,0,1,.264-0.2c0.168,0,.384,0,0.384-0.2a1.449,1.449,0,0,0-.912-0.6c-0.12,0-.216-0.1-0.336-0.1a0.262,0.262,0,0,1-.072-0.1,0.3,0.3,0,0,1,.12-0.2,4.131,4.131,0,0,0,1.1.1c0.432,0,.432-0.3.432-1s0-.9-0.432-0.9h-1.416a0.553,0.553,0,0,1-.648-0.6,0.91,0.91,0,0,1,.264-0.9,0.479,0.479,0,0,0,.288-0.3c0-.3-0.432-0.3-0.648-0.3-0.48,0-1.344-.1-1.8-0.1-0.216,0-.432,0-0.432.3a0.983,0.983,0,0,1,.024.2c0.048,0.4.072,0.7,0.1,1.1a0.554,0.554,0,0,1-.624.6h-0.456c-0.552,0-.912,0-0.936-0.6s0.048-.9-0.552-0.9H709.17c-0.576,0-.552.2-0.552,1.1s0.024,1.1.576,1.1a0.386,0.386,0,0,1,.432.4v11.1a0.489,0.489,0,0,1-.528.6c-0.5.1-.888,0.1-0.888,0.4a15.978,15.978,0,0,0,.456,1.7c0.144,0.5.192,0.7,0.432,0.7a0.344,0.344,0,0,0,.36-0.3,0.843,0.843,0,0,1,.336-0.3c0.912-.2,1.824-0.3,2.76-0.6h0.192a0.423,0.423,0,0,1,.456.5v0.3c0,1.1-.048,2.2-0.048,3.4,0,0.6.312,0.6,1.1,0.6,0.912,0,1.129,0,1.129-.7,0-1.1-.049-2.2-0.049-3.3v-7.5a0.576,0.576,0,0,1,.649-0.7h7.224a0.571,0.571,0,0,1,.672.6c0.072,1.8.264,3.4,0.48,5.2a0.974,0.974,0,0,1,.024.2,1.015,1.015,0,0,1-.312.8,19.015,19.015,0,0,1-3.312,3,1.111,1.111,0,0,0-.6.6,1.986,1.986,0,0,0,1.272,1.4c0.48,0,2.664-2,3.1-2.5a2.418,2.418,0,0,1,.312-0.1,0.514,0.514,0,0,1,.336.3c0.384,1.2,1.032,2.8,2.5,2.8,1.272,0,1.632-1,1.968-2a15.582,15.582,0,0,0,.6-2.9c0-.6-0.936-0.8-1.3-0.8-0.312,0-.432,0-0.456.3-0.048.4-.24,2.6-0.7,2.6-0.336,0-.937-2.1-0.937-2.5a1.268,1.268,0,0,1,.265-0.8,23.624,23.624,0,0,0,1.9-3.2c0.168-.4.24-0.6,0.552-0.6a0.609,0.609,0,0,0,.408-0.4c0-.2-0.144-0.2-0.672-0.6a3.549,3.549,0,0,0-1.32-.7,0.4,0.4,0,0,0-.336.3,15.164,15.164,0,0,1-1.009,2.2,0.162,0.162,0,0,1-.192.1,0.211,0.211,0,0,1-.192-0.2c-0.072-.8-0.12-1.7-0.168-2.5a0.562,0.562,0,0,1,.648-0.6h2.521c0.552,0,.528-0.3.528-1s0.024-1-.528-1c-0.84,0-1.68.1-2.5,0.1h-0.072a0.6,0.6,0,0,1-.672-0.7v-5a0.771,0.771,0,0,1,.24-0.8,0.329,0.329,0,0,0,.36-0.3c0-.3-0.288-0.3-0.648-0.4-0.312,0-1.512-.1-1.752-0.1a0.373,0.373,0,0,0-.456.4c0,0.2.048,0.8,0.048,1.3v0.8c0,1.4.024,2.7,0.024,4.1a0.591,0.591,0,0,1-.672.7h-1.152Zm-3.216-.9a10.329,10.329,0,0,0-.312-1.1c-0.336-.9-0.456-1.1-0.744-1.1s-1.224.2-1.224,0.6c0,0.1.216,0.6,0.384,1.1,0.24,0.7.384,1.2,0.672,1.2A1.328,1.328,0,0,0,718.8,12440.2Zm30.864,7.7a18.583,18.583,0,0,0-1.032-2.9c-0.288-.6-0.552-1.3-0.888-1.9a0.48,0.48,0,0,0-.48-0.3c-0.36,0-1.728.5-1.728,0.9a1.37,1.37,0,0,0,.168.5,27.249,27.249,0,0,1,1.776,4.2,0.655,0.655,0,0,0,.528.5C748.2,12448.9,749.659,12448.5,749.659,12447.9Zm-7.465-2c0.337-1,.649-2,0.889-3a0.989,0.989,0,0,1,.48-0.9c0.144-.1.336-0.1,0.336-0.3a0.475,0.475,0,0,0-.552-0.4,7.678,7.678,0,0,0-1.969-.6,0.4,0.4,0,0,0-.384.4,18.156,18.156,0,0,1-.648,2.9,0.36,0.36,0,0,1-.36.3c-0.12,0-.216-0.1-0.312-0.1a14.008,14.008,0,0,0-2.928-2.2,2.308,2.308,0,0,0-1.32,1.5,0.66,0.66,0,0,0,.384.5,20.535,20.535,0,0,1,2.976,2.5,0.645,0.645,0,0,1,.264.5,0.8,0.8,0,0,1-.1.4,19.7,19.7,0,0,1-3.552,4.9,1.685,1.685,0,0,0-.384.6,2.543,2.543,0,0,0,1.56,1.4,1.233,1.233,0,0,0,.7-0.5,18.585,18.585,0,0,0,3.336-4.5,0.493,0.493,0,0,1,.384-0.2,0.438,0.438,0,0,1,.336.2c0.552,0.7.936,1.2,1.2,1.6,0.432,0.7.624,1,.888,1a2.67,2.67,0,0,0,1.464-1.5c0-.5-2.04-3-2.5-3.5a1.107,1.107,0,0,1-.264-0.6A0.852,0.852,0,0,1,742.194,12445.9Zm11.689-10a1.864,1.864,0,0,1,.265-1.4,0.535,0.535,0,0,0,.288-0.4c0-.3-0.408-0.3-0.745-0.3a14.447,14.447,0,0,0-2.016-.2c-0.24,0-.432,0-0.432.3,0,0.1.024,0.2,0.024,0.3a15.077,15.077,0,0,1,.1,1.8v2.2a0.552,0.552,0,0,1-.672.6h-4.32c-0.6,0-.576.3-0.576,1.2,0,0.8-.024,1.2.576,1.2,0.648,0,1.536-.1,2.352-0.1h1.968a0.583,0.583,0,0,1,.672.7v9c0,1.4.048,1.8-1.392,1.8H748.7a0.473,0.473,0,0,0-.48.6,4.7,4.7,0,0,0,.264,1.5,1.306,1.306,0,0,0,1.272.4,6.786,6.786,0,0,0,3.456-.7,2.152,2.152,0,0,0,.7-1.8c0-.6-0.025-1.2-0.025-1.8v-9a0.6,0.6,0,0,1,.625-0.7c0.456,0,1.1.1,1.488,0.1,0.6,0,.552-0.4.552-1.2,0-1,.048-1.2-0.576-1.2h-1.464a0.527,0.527,0,0,1-.625-0.6v-2.3Zm-12.625.4a1.865,1.865,0,0,1,.264-1.4,0.535,0.535,0,0,0,.288-0.4,0.505,0.505,0,0,0-.528-0.3c-0.384,0-1.9-.2-2.232-0.2a0.373,0.373,0,0,0-.432.4l0.024,0.2a15.077,15.077,0,0,1,.1,1.8v1.2c0,0.5-.192.6-0.672,0.6a14.219,14.219,0,0,1-2.064,0c-0.72,0-.7.4-0.7,1.2,0,0.9-.024,1.2.7,1.2h8.209c0.72,0,.72-0.2.72-1.2,0-.9.024-1.2-0.7-1.2a17.7,17.7,0,0,1-2.3,0c-0.481,0-.673-0.1-0.673-0.6v-1.3Zm37.345,11.2c0,0.4,0,.7-0.648.7a0.53,0.53,0,0,1-.384-0.1h-0.216c-0.336,0-.36.3-0.36,0.6a0.211,0.211,0,0,1-.192.2,0.123,0.123,0,0,1-.144-0.1,17.348,17.348,0,0,1-2.3-2.1l-0.1-.2c0-.3.168-0.3,0.36-0.3h3.312a0.552,0.552,0,0,1,.672.6v0.7Zm-2.544-12.5a0.547,0.547,0,0,1,.432-0.4,0.333,0.333,0,0,0,.312-0.2c0-.4-0.336-0.4-1.272-0.6-0.216,0-1.176-.2-1.32-0.2-0.216,0-.24.2-0.312,0.4a16.76,16.76,0,0,1-1.968,3.8,3.573,3.573,0,0,0-.576,1,0.765,0.765,0,0,0,.312.4h0.048a0.262,0.262,0,0,1-.072.1c-0.216,0-.48,0-0.48.3a3.525,3.525,0,0,0,.048.5,0.428,0.428,0,0,1-.528.5H762.4c-0.528,0-.528.3-0.528,1.1s-0.024,1.1.528,1.1h8.281c0.408,0,.576.1,0.576,0.5v0.3a0.511,0.511,0,0,1-.576.6h-5.4c-0.6,0-1.344-.1-1.344.7,0,0.4.024,1,.024,1.5v1.5c0,0.5-.024,1.1-0.024,1.6s0.312,0.5,1.224.5c0.936,0,1.2,0,1.2-.5,0-.6-0.024-1.1-0.024-1.6v-1.1a0.552,0.552,0,0,1,.672-0.6h3.145c0.168,0,.336,0,0.336.2a0.193,0.193,0,0,1-.072.2,22.4,22.4,0,0,1-8.017,5.5,0.824,0.824,0,0,0-.7.6,2.1,2.1,0,0,0,1.272,1.6,3.107,3.107,0,0,0,.888-0.3,20.8,20.8,0,0,0,6.961-5c0.072,0,.12-0.1.192-0.1a0.314,0.314,0,0,1,.24.3v2.1c0,1-.072,2.1-0.072,3.1,0,0.7.264,0.8,1.272,0.8,1.032,0,1.3,0,1.3-.8,0-1-.072-2.1-0.072-3.1v-1.9c0.024-.2.072-0.3,0.24-0.3a0.174,0.174,0,0,1,.192.1,20.36,20.36,0,0,0,5.376,4.1,13.8,13.8,0,0,0,2.329,1.1,2.456,2.456,0,0,0,1.224-1.7,0.912,0.912,0,0,0-.72-0.5,35.744,35.744,0,0,1-3.193-1.7,0.178,0.178,0,0,1-.12-0.2,0.215,0.215,0,0,1,.216-0.2c1.273-.2,1.8-0.6,1.8-1.9,0-.3-0.024-0.6-0.024-0.9v-1.2c0-.6.024-0.9,0.024-1.2,0-.7-0.721-0.8-1.3-0.8-0.7,0-1.368.1-2.064,0.1h-3.408a0.511,0.511,0,0,1-.576-0.6v-0.3c0-.4.168-0.5,0.576-0.5h8.3c0.552,0,.528-0.3.528-1.1s0.024-1.1-.528-1.1h-8.3c-0.192,0-.5,0-0.5-0.3a0.7,0.7,0,0,1,.192-0.3,0.429,0.429,0,0,0,.264-0.3,0.293,0.293,0,0,0-.216-0.3,0.248,0.248,0,0,1-.216-0.3s0-.1.048-0.1a5.533,5.533,0,0,1,.552-0.8,0.949,0.949,0,0,1,1.008-.6h0.48a0.811,0.811,0,0,1,.912.6,11.8,11.8,0,0,1,.432,1.2c0.168,0.5.216,0.6,0.5,0.6,0.408,0,1.872-.3,1.872-0.8a4.245,4.245,0,0,0-.264-0.7,0.859,0.859,0,0,1-.144-0.3,0.608,0.608,0,0,1-.048-0.2,0.391,0.391,0,0,1,.456-0.4h0.5c0.84,0,1.68.1,2.448,0.1,0.552,0,.552-0.3.552-1.1,0-.9.024-1.2-0.576-1.2-0.816,0-1.608.1-2.424,0.1h-3.673a0.349,0.349,0,0,1-.408-0.3A0.608,0.608,0,0,1,776.059,12435Zm-9.049,0a0.607,0.607,0,0,1,.48-0.4,0.316,0.316,0,0,0,.312-0.3c0-.3-0.36-0.3-0.6-0.4-0.36,0-1.776-.3-2.064-0.3a0.227,0.227,0,0,0-.288.2,19.329,19.329,0,0,1-2.808,4.8,1,1,0,0,0-.288.5c0,0.5,1.392.9,1.824,0.9a0.749,0.749,0,0,0,.672-0.5,12.824,12.824,0,0,0,1.032-1.4,0.88,0.88,0,0,1,.768-0.5,0.782,0.782,0,0,1,.744.6,8.012,8.012,0,0,1,.5,1.3,0.5,0.5,0,0,0,.528.5c0.36,0,1.753-.3,1.753-0.8a4.388,4.388,0,0,0-.408-1,0.608,0.608,0,0,1-.048-0.2,0.373,0.373,0,0,1,.432-0.4h1.872c0.576,0,.552-0.2.552-1.1,0-.8.024-1.1-0.552-1.1-0.672,0-1.464.1-2.233,0.1h-1.848a0.338,0.338,0,0,1-.384-0.3A0.279,0.279,0,0,1,767.01,12435Zm26.9,4.6c0.672,0,1.344.1,2.017,0.1,0.6,0,.576-0.3.576-1s0.024-1-.576-1h-6.889c-0.624,0-.6.3-0.6,1s-0.024,1,.576,1c0.672,0,1.344-.1,2.016-0.1h2.88Zm-0.6,6.5h1.777c0.576,0,.552-0.3.552-1,0-.6.024-0.9-0.552-0.9H790.05c-0.576,0-.528.4-0.528,0.9,0,0.7-.048,1,0.552,1h3.24Zm0.048-3.2h1.729c0.576,0,.552-0.3.552-1,0-.6.048-1-0.5-1-0.6,0-1.176.1-1.776,0.1h-1.584c-0.576,0-1.152-.1-1.728-0.1s-0.552.3-.552,1c0,0.6-.048,1,0.5,1h3.36Zm0.1-6.5h1.656c0.529,0,.5-0.4.5-1s0.025-1-.527-1c-0.409,0-1.081.1-1.633,0.1h-1.824c-0.552,0-1.224-.1-1.632-0.1-0.552,0-.528.4-0.528,1s-0.024,1,.5,1h3.48Zm-1.32,15.6a0.6,0.6,0,0,1-.672-0.6v-1.4a0.6,0.6,0,0,1,.672-0.6h0.912a0.6,0.6,0,0,1,.672.6v1.4a0.6,0.6,0,0,1-.672.6h-0.912Zm1.536,2.3c0.024,0.6.168,0.6,1.056,0.6,0.841,0,1.081,0,1.081-.6s-0.048-1.2-.048-1.8v-2.5c0-.4.048-0.9,0.048-1.4a1.011,1.011,0,0,0-1.2-1.2h-4.128a0.988,0.988,0,0,0-1.2,1.1c0,0.5.048,1,.048,1.5v2.7c0,0.6-.048,1.2-0.048,1.8s0.24,0.6,1.1.6c0.984,0,1.152,0,1.128-.7,0-.4.144-0.5,0.432-0.5h1.272A0.373,0.373,0,0,1,793.674,12454.3Zm10.081-14.3a0.541,0.541,0,0,1,.576.6h0a0.541,0.541,0,0,1-.576.6H802.2a0.541,0.541,0,0,1-.576-0.6h0a0.541,0.541,0,0,1,.576-0.6h1.56Zm0.12-2.8a0.458,0.458,0,0,1,.456.5v0.2a0.458,0.458,0,0,1-.456.5h-1.8a0.458,0.458,0,0,1-.456-0.5v-0.2a0.458,0.458,0,0,1,.456-0.5h1.8Zm0.024,11.7a0.5,0.5,0,0,1,.552-0.5h0.888a0.517,0.517,0,0,1,.576.5v0.2a0.517,0.517,0,0,1-.576.5h-0.888a0.5,0.5,0,0,1-.552-0.5v-0.2Zm-2.424-.5a0.5,0.5,0,0,1,.552.5v0.2a0.5,0.5,0,0,1-.552.5h-0.816a0.517,0.517,0,0,1-.576-0.5v-0.2a0.517,0.517,0,0,1,.576-0.5h0.816Zm2.976-1.5a0.576,0.576,0,0,1-.552-0.6v-0.1a0.5,0.5,0,0,1,.552-0.5h0.888a0.517,0.517,0,0,1,.576.5v0.1a0.6,0.6,0,0,1-.576.6h-0.888Zm-2.424-.6a0.576,0.576,0,0,1-.552.6h-0.816a0.6,0.6,0,0,1-.576-0.6v-0.1a0.517,0.517,0,0,1,.576-0.5h0.816a0.5,0.5,0,0,1,.552.5v0.1Zm-3.12-5.1h-2.088c-0.48,0-.48.2-0.48,0.8s-0.024.9,0.48,0.9c0.768,0,1.512-.1,2.28-0.1h2.28a0.434,0.434,0,0,1,.456.5v0.2a0.434,0.434,0,0,1-.456.5h-0.312c-0.672,0-1.32-.1-1.968-0.1-0.7,0-1.224.2-1.224,0.9,0,0.6.048,1.2,0.048,1.8v2.5a0.465,0.465,0,0,1-.528.5h-0.5c-0.48,0-.48.3-0.48,0.9s0,0.9.48,0.9c0.168,0,.336-0.1.5-0.1a0.5,0.5,0,0,1,.528.6v0.5c0,0.8-.048,1.6-0.048,2.4,0,0.6.288,0.6,1.152,0.6,0.888,0,1.1,0,1.1-.7,0-.8-0.048-1.5-0.048-2.3v-0.4a0.591,0.591,0,0,1,.672-0.7h4.488a0.583,0.583,0,0,1,.672.7v0.2c0,0.8.024,1-.624,1H804c-0.36,0-.552.1-0.552,0.7,0,1.5.648,1.5,1.08,1.5,2.232,0,3.6-.1,3.6-2.4,0-.4-0.024-0.7-0.024-1a0.6,0.6,0,0,1,.6-0.7c0.24,0,.456.1,0.672,0.1,0.5,0,.48-0.4.48-0.9,0-.6.024-0.9-0.48-0.9H808.7a0.518,0.518,0,0,1-.6-0.6v-2.4c0-.6.024-1.2,0.024-1.8,0-.8-0.552-0.9-1.224-0.9-0.649,0-1.321.1-1.969,0.1h-0.48a0.423,0.423,0,0,1-.456-0.5v-0.2a0.434,0.434,0,0,1,.456-0.5h2.665c0.768,0,1.512.1,2.28,0.1,0.48,0,.48-0.3.48-0.9s0-.8-0.48-0.8h-2.3c-0.337,0-.457-0.1-0.457-0.5v-0.2c0-.4.12-0.5,0.432-0.5h1.321c0.576,0,.552-0.2.552-0.8s0.048-.9-0.552-0.9c-0.456,0-.888.1-1.345,0.1a0.4,0.4,0,0,1-.408-0.5v-0.2a0.418,0.418,0,0,1,.432-0.5c0.6,0,1.3.1,1.9,0.1,0.48,0,.456-0.3.456-0.9s0.024-.8-0.456-0.8h-1.68a0.516,0.516,0,0,1-.625-0.5l0.024-.1a0.5,0.5,0,0,1,.241-0.4,0.479,0.479,0,0,0,.288-0.3c0-.3-0.361-0.3-0.553-0.3a14.447,14.447,0,0,0-2.016-.2c-0.216,0-.408,0-0.408.3,0,0,.072.7,0.072,0.9a0.543,0.543,0,0,1-.648.6h-1.368a0.546,0.546,0,0,1-.648-0.5,0.155,0.155,0,0,1,.024-0.1,0.5,0.5,0,0,1,.24-0.4,0.607,0.607,0,0,0,.288-0.4c0-.2-0.36-0.3-0.984-0.3a0.838,0.838,0,0,1-.456-0.1h-1.08c-0.24,0-.408,0-0.408.3,0,0.1.072,0.6,0.072,0.9a0.535,0.535,0,0,1-.624.6h-1.464c-0.48,0-.456.3-0.456,0.8,0,0.6-.024.9,0.48,0.9,0.36,0,1.248-.1,1.656-0.1a0.418,0.418,0,0,1,.432.5v0.2a0.418,0.418,0,0,1-.432.5c-0.336,0-.672-0.1-1.008-0.1-0.576,0-.576.3-0.576,0.9s0,0.8.576,0.8h1.008a0.418,0.418,0,0,1,.432.5v0.2C799.363,12441.1,799.219,12441.2,798.907,12441.2Zm24.936,0.1a1.565,1.565,0,0,0,.12-0.3,0.889,0.889,0,0,1,.5-0.7,0.431,0.431,0,0,0,.312-0.3,0.377,0.377,0,0,0-.408-0.3c-0.312-.1-1.752-0.6-1.968-0.6a0.363,0.363,0,0,0-.288.3,17.473,17.473,0,0,1-2.785,6,0.388,0.388,0,0,0-.192.3,2.31,2.31,0,0,0,1.584,1.1,0.675,0.675,0,0,0,.552-0.4c0.36-.6.72-1.1,1.009-1.7a0.392,0.392,0,0,1,.312-0.2,0.236,0.236,0,0,1,.288.2c0.24,0.3,1.32,2.1,1.7,2.1a2.347,2.347,0,0,0,1.464-1.5,0.592,0.592,0,0,0-.216-0.3,24.526,24.526,0,0,1-1.9-2.5,1.219,1.219,0,0,1-.216-0.6A1.78,1.78,0,0,1,823.843,12441.3Zm2.52,10.6a0.552,0.552,0,0,1-.672.6h-6.385c-0.6,0-.576.3-0.576,1.1s-0.024,1.1.576,1.1H835.8c0.576,0,.552-0.3.552-1.1,0-.9.024-1.1-0.576-1.1h-6.5a0.552,0.552,0,0,1-.672-0.6v-1.4a0.552,0.552,0,0,1,.672-0.6h4.7c0.6,0,.577-0.3.577-1.1s0.024-1.1-.577-1.1h-4.7a0.583,0.583,0,0,1-.672-0.7v-6a1.87,1.87,0,0,1,.288-1.4,0.479,0.479,0,0,0,.288-0.3c0-.3-0.36-0.3-0.6-0.3a13.157,13.157,0,0,0-1.92-.2,0.336,0.336,0,0,0-.408.3c0,0.1.024,0.2,0.024,0.3,0.048,0.6.1,1.2,0.1,1.9v5.7a0.583,0.583,0,0,1-.672.7h-4.633c-0.576,0-.552.3-0.552,1.1s-0.024,1.1.552,1.1h4.633a0.561,0.561,0,0,1,.672.6v1.4Zm1.488-15.9a0.584,0.584,0,0,1-.648-0.7,0.878,0.878,0,0,1,.24-0.8,0.478,0.478,0,0,0,.312-0.4c0-.3-0.432-0.3-0.648-0.3a16.882,16.882,0,0,0-2.16-.2c-0.24,0-.456,0-0.456.3,0,0.1.024,0.2,0.024,0.3a8.508,8.508,0,0,1,.1,1.1,0.591,0.591,0,0,1-.672.7h-3.745c-0.768,0-1.536-.1-2.3-0.1a1.084,1.084,0,0,0-1.32,1.2c0,0.8.048,1.5,0.048,2.3v3.9c0,3.1-.36,7.2-1.848,10a0.955,0.955,0,0,0-.168.4c0,0.6,1.368,1.2,1.9,1.2a0.5,0.5,0,0,0,.408-0.2,11.505,11.505,0,0,0,.936-2.4,28.628,28.628,0,0,0,1.152-8.3v-5.2a0.583,0.583,0,0,1,.672-0.7H832.6c0.937,0,1.873.1,2.809,0.1,0.576,0,.576-0.3.576-1.2,0-.8,0-1.1-0.576-1.1-0.816,0-1.825.1-2.809,0.1h-4.752Zm4.824,8.7c0.264,0.4,1.585,2.3,1.993,2.3a2.425,2.425,0,0,0,1.56-1.4,1.308,1.308,0,0,0-.36-0.5,15.035,15.035,0,0,1-2.185-2.6,0.764,0.764,0,0,1-.216-0.6,2.984,2.984,0,0,1,.1-0.5,2.145,2.145,0,0,0,.193-0.5,0.741,0.741,0,0,1,.456-0.6c0.1,0,.336,0,0.336-0.2a0.736,0.736,0,0,0-.481-0.4,18.788,18.788,0,0,0-1.824-.6,0.5,0.5,0,0,0-.336.5,22.724,22.724,0,0,1-2.736,5.8,1.787,1.787,0,0,0-.288.5c0,0.4,1.224.9,1.584,0.9,0.528,0,1.1-1.2,1.584-2.1a0.361,0.361,0,0,1,.312-0.2A0.436,0.436,0,0,1,832.675,12444.7Zm30.5,9.5c0-.6-0.072-0.7-0.576-0.7h-2.761c-0.576,0-.672-0.1-0.672-0.6v-16.7c0-.6.1-0.7,0.672-0.7h0.7c0.768,0,1.752.1,2.064,0.1,0.5,0,.576-0.2.576-0.7v-0.9c0-.6-0.1-0.7-0.6-0.7h-4.9c-0.6,0-.72.1-0.72,0.7v21c0,0.6.12,0.7,0.72,0.7h2.857c0.768,0,1.872.1,2.04,0.1,0.5,0,.6-0.2.6-0.7v-0.9Zm16.847-13.8a0.541,0.541,0,0,1,.576.6h0a0.541,0.541,0,0,1-.576.6h-5.016a0.541,0.541,0,0,1-.576-0.6h0a0.541,0.541,0,0,1,.576-0.6h5.016Zm0-2.9a0.6,0.6,0,0,1,.576.6v0.1a0.6,0.6,0,0,1-.576.6h-5.016a0.6,0.6,0,0,1-.576-0.6v-0.1a0.6,0.6,0,0,1,.576-0.6h5.016Zm0.576,6.4a0.541,0.541,0,0,1-.576.6h-5.016a0.541,0.541,0,0,1-.576-0.6v-0.1a0.6,0.6,0,0,1,.576-0.6h5.016a0.6,0.6,0,0,1,.576.6v0.1Zm-0.672,2.9a10.225,10.225,0,0,0,1.56,1.8,0.3,0.3,0,0,1,.12.2,0.282,0.282,0,0,1-.288.3h-1.992a0.562,0.562,0,0,1-.648-0.6,0.643,0.643,0,0,1,.264-0.7,0.658,0.658,0,0,0,.312-0.4c0-.2-0.432-0.2-0.6-0.2a15.872,15.872,0,0,0-2.064-.2,0.373,0.373,0,0,0-.432.3,0.983,0.983,0,0,0,.024.2c0.024,0.3.072,0.7,0.072,1a0.553,0.553,0,0,1-.648.6h-2.065a0.282,0.282,0,0,1-.288-0.3l0.1-.2a11.7,11.7,0,0,0,1.657-1.8,1.006,1.006,0,0,1,1.032-.4h2.88A0.985,0.985,0,0,1,879.931,12446.8Zm-7.969-3a0.583,0.583,0,0,1-.672.7h-3.816c-0.576,0-.552.2-0.552,0.9,0,0.8,0,1,.528,1h4.536c0.144,0,.312,0,0.312.2a0.385,0.385,0,0,1-.1.2,17.533,17.533,0,0,1-4.992,3.3,0.626,0.626,0,0,0-.5.5,2.181,2.181,0,0,0,1.272,1.5c0.624,0,3-1.5,3.6-2h0.168a0.232,0.232,0,0,1,.264.2c0,0.5.048,0.7,0.528,0.7h3.073a0.543,0.543,0,0,1,.648.6v0.3a0.576,0.576,0,0,1-.648.7H869.25c-0.552,0-.552.2-0.552,1,0,0.7,0,.9.552,0.9h16.369c0.577,0,.553-0.2.553-0.9,0-.8.024-1-0.553-1h-6.288a0.609,0.609,0,0,1-.672-0.7v-0.3a0.561,0.561,0,0,1,.672-0.6h3.1c0.528,0,.5-0.2.528-0.7a0.211,0.211,0,0,1,.192-0.2,0.147,0.147,0,0,1,.168.1c0.576,0.4,2.953,2,3.553,2a2.549,2.549,0,0,0,1.368-1.6,0.86,0.86,0,0,0-.6-0.5,16.13,16.13,0,0,1-4.825-3.3,0.2,0.2,0,0,1-.1-0.2c0-.2.288-0.2,0.312-0.2h4.489c0.576,0,.552-0.2.552-1,0-.7.024-0.9-0.552-0.9h-3.769a0.583,0.583,0,0,1-.672-0.7v-5.6a0.583,0.583,0,0,1,.672-0.7c0.888,0,1.752.1,2.641,0.1,0.552,0,.552-0.2.552-1,0-.7,0-0.9-0.552-0.9h-2.641a0.571,0.571,0,0,1-.672-0.6,0.767,0.767,0,0,1,.264-0.7,0.479,0.479,0,0,0,.288-0.3c0-.3-0.336-0.3-0.528-0.3-0.384,0-1.848-.2-2.184-0.2a0.387,0.387,0,0,0-.432.3c0,0.1.024,0.1,0.024,0.2,0.048,0.3.072,0.7,0.1,1a0.533,0.533,0,0,1-.672.6h-4.824a0.561,0.561,0,0,1-.672-0.6,0.861,0.861,0,0,1,.264-0.8,0.479,0.479,0,0,0,.288-0.3c0-.3-0.432-0.3-0.624-0.3-0.337,0-1.8-.2-2.089-0.2a0.373,0.373,0,0,0-.432.3,0.983,0.983,0,0,0,.024.2,8.508,8.508,0,0,1,.1,1.1,0.548,0.548,0,0,1-.672.6h-2.64c-0.552,0-.552.2-0.552,0.9,0,0.8,0,1,.552,1,0.888,0,1.752-.1,2.64-0.1a0.591,0.591,0,0,1,.672.7v5.6Zm24,4.9a0.581,0.581,0,0,1-.576-0.6v-4.2a0.5,0.5,0,0,1,.576-0.5h0.192a0.517,0.517,0,0,1,.576.5v4.2a0.6,0.6,0,0,1-.576.6h-0.192Zm-2.784-.8a0.37,0.37,0,0,1,.1-0.1c0.072,0,.1.1,0.1,0.2v2.6c0,0.7-.024,1.3-0.024,2,0,0.5.24,0.5,1.008,0.5h0.168c0.888,0,.864,0,0.864-0.8,0-1.1-.048-1.3.48-1.3h0.36c0.456,0,.48.1,0.48,0.6,0.024,0.7-.072.7,1.032,0.7,0.624,0,.936,0,0.936-0.5v-8.2c0-.4.024-0.9,0.024-1.4a0.876,0.876,0,0,0-.912-1.1c-0.216,0-.624.1-0.96,0.1H896.49a0.523,0.523,0,0,1-.552-0.5c0-.1.024-0.1,0.024-0.1,0.216-1.1.312-2,.456-3a0.581,0.581,0,0,1,.672-0.6h1.464c0.648,0,.625-0.4.625-1.1,0-.8.023-1.2-0.625-1.2-0.624,0-1.248.1-1.872,0.1H894.69c-0.624,0-1.272-.1-1.9-0.1s-0.6.4-.6,1.2-0.024,1.1.648,1.1h0.816a0.506,0.506,0,0,1,.624.5l-0.024.1a24.423,24.423,0,0,1-2.424,8.2,1.738,1.738,0,0,0-.288.7,2.2,2.2,0,0,0,1.392,1.5A0.241,0.241,0,0,0,893.178,12447.9Zm14.641-7.1a0.114,0.114,0,0,1,.144-0.1,0.175,0.175,0,0,1,.168.2c0,0.6-.048,1.3-0.048,2,0,0.6.216,0.6,1.008,0.6,0.72,0,.936,0,0.936-0.6,0-.7-0.048-1.4-0.048-2.1h0a0.175,0.175,0,0,1,.168-0.2h0.168c0.312,0.5,1.7,2.5,2.209,2.5a1.644,1.644,0,0,0,1.224-1,1.065,1.065,0,0,0-.384-0.6,14.2,14.2,0,0,1-2.713-3.3,0.668,0.668,0,0,1-.071-0.2c0-.3.216-0.3,0.408-0.4,0.648,0,1.272.1,1.728,0.1,0.528,0,.528-0.2.528-0.9s0-.9-0.552-0.9h-2.065a0.524,0.524,0,0,1-.648-0.6,0.992,0.992,0,0,1,.24-0.9,0.479,0.479,0,0,0,.288-0.3,0.655,0.655,0,0,0-.528-0.3c-0.384,0-1.248-.1-1.584-0.1a0.316,0.316,0,0,0-.36.3,0.983,0.983,0,0,0,.024.2l0.072,1.2a0.5,0.5,0,0,1-.624.5h-0.936c-0.552,0-.552.2-0.552,0.9s0,0.9.552,0.9h0.552a0.349,0.349,0,0,1,.408.3,0.279,0.279,0,0,1-.048.2,18.6,18.6,0,0,1-2.4,3.4,1.337,1.337,0,0,0-.36.6,2.013,2.013,0,0,0,1.152.9C906.379,12443.1,907.555,12441.2,907.819,12440.8Zm-5.9,11.7a6.282,6.282,0,0,0,3.36,1.9,26.86,26.86,0,0,0,6.337.4c0.744,0,1.272.1,1.512-.2a2.406,2.406,0,0,0,.432-1.4,0.508,0.508,0,0,0-.528-0.6c-0.192,0-2.544.1-3.769,0.1a9.21,9.21,0,0,1-1.656-.1,0.568,0.568,0,0,1-.648-0.7v-1.1a0.591,0.591,0,0,1,.672-0.7h1.632c0.744,0,1.488.1,2.257,0.1,0.48,0,.5-0.2.5-1,0-.7-0.024-0.9-0.5-0.9-0.769,0-1.513.1-2.257,0.1h-1.632a0.591,0.591,0,0,1-.672-0.7v-1a0.591,0.591,0,0,1,.672-0.7h2.3c0.072,0,.312,0,0.312.1a1.573,1.573,0,0,1-.48.7,0.562,0.562,0,0,0-.264.4c0,0.5,1.152,1,1.561,1a2.583,2.583,0,0,0,1.128-1.2,6.856,6.856,0,0,0,1.056-1.9,1.341,1.341,0,0,0-1.392-1.1h-11.9c-0.5,0-.5.2-0.5,1s0,1,.528,1H904a0.583,0.583,0,0,1,.672.7v4.8a0.368,0.368,0,0,1-.36.4h-0.24a5.524,5.524,0,0,1-1.608-1.4,1.175,1.175,0,0,1-.24-0.7c0-.1.024-0.2,0.024-0.4l0.12-.5a0.822,0.822,0,0,1,.408-0.8,0.3,0.3,0,0,0,.312-0.3c0-.3-0.6-0.4-1.392-0.6-0.216,0-.72-0.1-0.912-0.1-0.312,0-.336.2-0.384,0.7a7,7,0,0,1-.1.7,11.942,11.942,0,0,1-2.353,5.3,0.827,0.827,0,0,0-.216.4c0,0.5,1.225.9,1.609,0.9a0.621,0.621,0,0,0,.576-0.3,13.347,13.347,0,0,0,1.32-2.2,0.4,0.4,0,0,1,.36-0.3A0.487,0.487,0,0,1,901.915,12452.5Zm2.112-12a2.21,2.21,0,0,0,.912.7,1.48,1.48,0,0,0,.864-1.1,0.592,0.592,0,0,0-.216-0.3,9.9,9.9,0,0,1-1.776-1.9,0.282,0.282,0,0,1,.288-0.3c0.288,0,.6.1,0.888,0.1,0.528,0,.528-0.3.528-0.9,0-.7.024-0.9-0.528-0.9h-0.744a0.554,0.554,0,0,1-.624-0.6,1.068,1.068,0,0,1,.264-0.9c0.168-.1.264-0.1,0.264-0.3s-0.36-.2-0.552-0.2a8.592,8.592,0,0,0-1.56-.2,0.3,0.3,0,0,0-.336.3v0.2a9.752,9.752,0,0,1,.072,1.1,0.537,0.537,0,0,1-.6.6H900c-0.552,0-.552.2-0.552,0.9,0,0.6,0,.9.552,0.9,0.264,0,.528-0.1.816-0.1a0.365,0.365,0,0,1,.408.4,0.341,0.341,0,0,1-.072.2,13.1,13.1,0,0,1-1.945,2.9,0.845,0.845,0,0,0-.36.5,2.014,2.014,0,0,0,1.033,1.2c0.336,0,1.056-1.2,1.416-1.7a0.481,0.481,0,0,1,.336-0.4,0.173,0.173,0,0,1,.144.2c0,0.7-.048,1.3-0.048,1.9s0.216,0.6,1.008.6c0.72,0,.936,0,0.936-0.6s-0.048-1.3-.048-1.9v-0.3a0.2,0.2,0,0,1,.216-0.2A0.174,0.174,0,0,1,904.027,12440.5Zm13.1,13.7v0.9c0,0.5.1,0.7,0.6,0.7,0.168,0,1.272-.1,2.04-0.1h2.856c0.6,0,.72-0.1.72-0.7v-21c0-.6-0.12-0.7-0.72-0.7h-4.9c-0.5,0-.6.1-0.6,0.7v0.9c0,0.5.072,0.7,0.576,0.7,0.312,0,1.3-.1,2.064-0.1h0.7c0.576,0,.672.1,0.672,0.7v16.7c0,0.5-.1.6-0.672,0.6h-2.76C917.2,12453.5,917.13,12453.6,917.13,12454.2Z" transform="translate(-566.188 -12433.3)"/>
</svg>
