<svg id="movie-ttl-sub01.svg" xmlns="http://www.w3.org/2000/svg" width="373" height="22.31" viewBox="0 0 373 22.31">
  <defs>
    <style>
      .cls-1 {
        fill: #52a5dc;
        fill-rule: evenodd;
      }
    </style>
  </defs>
  <path id="シェイプ_10" data-name="シェイプ 10" class="cls-1" d="M569.018,8266.26a12.922,12.922,0,0,0,3.4,4.26,5.425,5.425,0,0,0,1.558,1.02,2.835,2.835,0,0,0,1.582-1.75,0.741,0.741,0,0,0-.384-0.46,13.272,13.272,0,0,1-3.594-3.45,11.732,11.732,0,0,1-1.726-3.99,0.482,0.482,0,0,1,.478-0.47c0.024,0,.049.01,0.073,0.01h4.769a0.574,0.574,0,0,1,.671.45,0.594,0.594,0,0,1,0,.23v10.6c0,0.77.048,1.34-.912,1.34-0.305-.01-0.608-0.04-0.91-0.08a5.085,5.085,0,0,0-.551-0.04,0.583,0.583,0,0,0-.545.62,0.763,0.763,0,0,0,.017.11c0,1.86.551,1.86,1.63,1.86,3.068,0,3.835-.63,3.835-2.74,0-.56-0.048-1.15-0.048-1.72v-9.93c0-.68.048-1.38,0.048-2.07,0-.94-0.5-1.09-1.318-1.09-0.7,0-1.415.05-2.11,0.05h-4.361a0.576,0.576,0,0,1-.671-0.47,0.617,0.617,0,0,1,0-.21v-1.63a1.06,1.06,0,0,1,.336-1.11,0.436,0.436,0,0,0,.287-0.35,0.368,0.368,0,0,0-.407-0.31c-0.383-.05-1.989-0.17-2.372-0.17a0.367,0.367,0,0,0-.446.27,0.349,0.349,0,0,0-.01.12c0,0.16.024,0.41,0.024,0.51a9.793,9.793,0,0,1,.048,1.21v1.46a0.584,0.584,0,0,1-.462.68,0.732,0.732,0,0,1-.209,0h-4.314c-0.7,0-1.414-.05-2.108-0.05-0.839,0-1.3.17-1.3,1.13,0,0.67.048,1.38,0.048,2.06v10.68c0,1.04-.072,2.06-0.072,3.08,0,0.67.311,0.71,1.341,0.71,1.055,0,1.3-.04,1.3-0.75,0-1.01-.047-2.03-0.047-3.04v-10.73a0.58,0.58,0,0,1,.444-0.68,0.855,0.855,0,0,1,.226,0h4.386a0.5,0.5,0,0,1,.569.41,0.72,0.72,0,0,1,.007.08v0.14a10.006,10.006,0,0,1-4.793,7.37,0.837,0.837,0,0,0-.575.63,2.622,2.622,0,0,0,1.558,1.83c0.767,0,3.954-3.11,5.08-5.63a0.337,0.337,0,0,1,.264-0.19A0.263,0.263,0,0,1,569.018,8266.26Zm29.089-9.3a1.516,1.516,0,0,1,.264-1.29,0.528,0.528,0,0,0,.311-0.36c0-.32-0.479-0.32-0.7-0.35-0.551-.04-1.533-0.14-2.06-0.14-0.24,0-.456.05-0.456,0.34,0,0.08.024,0.17,0.024,0.25a11.849,11.849,0,0,1,.1,1.3v0.25a0.582,0.582,0,0,1-.444.68,0.863,0.863,0,0,1-.227,0h-3.859c-0.91,0-1.821-.02-2.755-0.02-0.671,0-1.366.17-1.366,0.99,0,0.24.024,0.69,0.024,1.32v0.92c0,0.31-.048.73-0.048,1.04,0,0.59.431,0.54,1.27,0.54s1.3,0.05,1.3-.54c0-.26-0.072-0.7-0.072-1.04v-0.42a0.586,0.586,0,0,1,.467-0.68,0.7,0.7,0,0,1,.2,0h13.564a0.574,0.574,0,0,1,.671.45,0.593,0.593,0,0,1,0,.23v0.37c0,0.34-.048.78-0.048,1.05,0,0.58.456,0.53,1.27,0.53,0.959,0,1.342.03,1.342-.56,0-.26-0.072-0.73-0.072-1.02v-0.87c0-.54.048-1,0.048-1.34,0-.83-0.743-0.99-1.414-0.99-0.91,0-1.822.04-2.732,0.04h-3.93a0.578,0.578,0,0,1-.674-0.47,0.593,0.593,0,0,1,0-.21h0Zm-6.689,16.53c2.5,2.79,6.423,2.58,9.8,2.58h2.4c0.792,0,1.583,0,2.374-.03a1.966,1.966,0,0,0,.958-0.16,2.409,2.409,0,0,0,.575-1.72,0.55,0.55,0,0,0-.4-0.66c-0.031-.01-0.063-0.01-0.1-0.02a3.7,3.7,0,0,0-.575.04c-1.462.14-3.164,0.19-4.626,0.19-1.03,0-2.06.02-3.1-.05a0.581,0.581,0,0,1-.633-0.53,0.575,0.575,0,0,1,.01-0.18v-2.35a0.588,0.588,0,0,1,.45-0.69,0.818,0.818,0,0,1,.221,0h1.534c0.767,0,1.509.05,2.276,0.05,0.623,0,.6-0.31.6-1.16,0-.88.024-1.2-0.6-1.2-0.767,0-1.509.05-2.276,0.05h-1.534a0.559,0.559,0,0,1-.667-0.44,0.577,0.577,0,0,1,0-.22v-1.58a0.582,0.582,0,0,1,.445-0.68,0.855,0.855,0,0,1,.226,0h1.869c0.863,0,1.7.05,2.564,0.05,0.6,0,.6-0.26.6-1.16,0-.85,0-1.17-0.6-1.17-0.863,0-1.7.05-2.564,0.05H593.12c-0.862,0-1.7-.05-2.565-0.05-0.623,0-.6.34-0.6,1.17,0,0.85,0,1.16.6,1.16,0.863,0,1.726-.05,2.565-0.05h1.773a0.574,0.574,0,0,1,.671.45,0.593,0.593,0,0,1,0,.23v7.17a0.467,0.467,0,0,1-.387.52h-0.044c-0.048,0-.12-0.02-0.192-0.02a4.95,4.95,0,0,1-2.564-2.12,1.091,1.091,0,0,1-.239-0.66,1.375,1.375,0,0,1,.072-0.43c0.191-.71.263-1.2,0.335-1.54a0.915,0.915,0,0,1,.5-0.92,0.449,0.449,0,0,0,.288-0.31c0-.3-0.383-0.37-1.078-0.51-0.288-.05-1.415-0.29-1.655-0.29-0.383,0-.383.33-0.407,0.62a14.587,14.587,0,0,1-3.115,7.66,0.982,0.982,0,0,0-.264.52c0,0.55,1.438,1.14,1.9,1.14a0.937,0.937,0,0,0,.647-0.49,24.9,24.9,0,0,0,1.366-2.19,0.429,0.429,0,0,1,.359-0.24,0.5,0.5,0,0,1,.339.17h0Zm31.079-1a0.694,0.694,0,0,1,.671-0.68h6.422a0.648,0.648,0,0,1,.648.63c0,0.02,0,.04,0,0.05v0.32a0.626,0.626,0,0,1-.585.67,0.13,0.13,0,0,1-.062,0h-6.422a0.675,0.675,0,0,1-.671-0.67v-0.32Zm0.671-2.58a0.678,0.678,0,0,1-.671-0.68v-0.24a0.675,0.675,0,0,1,.671-0.68h6.422a0.632,0.632,0,0,1,.648.61,0.566,0.566,0,0,1,0,.07v0.24a0.635,0.635,0,0,1-.585.68h-6.484Zm7.932-8.43a25.816,25.816,0,0,0,2.612-3.26,0.781,0.781,0,0,1,.767-0.48,0.306,0.306,0,0,0,.336-0.27h0a1.95,1.95,0,0,0-1.031-.83c-0.048-.02-0.12-0.07-0.215-0.12a4.378,4.378,0,0,0-1.127-.56,0.419,0.419,0,0,0-.336.32,21.456,21.456,0,0,1-4.169,5.27,1.2,1.2,0,0,1-1.1.39h-0.623a0.566,0.566,0,0,1-.667-0.44,0.582,0.582,0,0,1,0-.22v-1.01a0.583,0.583,0,0,1,.451-0.69,0.411,0.411,0,0,1,.22,0c0.887-.02,1.774.05,2.684,0.05,0.575,0,.551-0.29.551-1.17,0-.92.024-1.16-0.575-1.16-0.886,0-1.773.07-2.66,0.05a0.561,0.561,0,0,1-.661-0.44,0.553,0.553,0,0,1-.01-0.17,1.109,1.109,0,0,1,.288-1.14,0.505,0.505,0,0,0,.311-0.37c0-.29-0.359-0.31-0.574-0.34-0.432-.05-1.9-0.19-2.277-0.19a0.355,0.355,0,0,0-.431.36,0.816,0.816,0,0,0,.024.24,13.48,13.48,0,0,1,.072,1.39,0.575,0.575,0,0,1-.484.66,0.587,0.587,0,0,1-.187,0H620.9c-0.959,0-1.9-.05-2.828-0.05-0.6,0-.575.26-0.575,1.16s-0.024,1.17.575,1.17c0.935,0,1.869-.05,2.828-0.05h1.391a0.577,0.577,0,0,1,.672.46,0.635,0.635,0,0,1,0,.23v1.01a0.564,0.564,0,0,1-.454.66,0.4,0.4,0,0,1-.217,0h-4.03c-0.934,0-1.869-.05-2.8-0.05-0.576,0-.576.27-0.576,1.19,0,0.87,0,1.15.576,1.15,0.934,0,1.869-.05,2.8-0.05h5.464a0.25,0.25,0,0,1,.264.24v0.02a0.339,0.339,0,0,1-.168.29c-1.078.64-1.318,0.84-2.54,1.46a34.689,34.689,0,0,1-5.943,2.43,0.692,0.692,0,0,0-.6.47c0,0.21.527,1.84,1.078,1.84a28.021,28.021,0,0,0,3.642-1.42,0.538,0.538,0,0,1,.216-0.05,0.421,0.421,0,0,1,.383.45v4.16c0,0.63-.048,1.24-0.048,1.88,0,0.58.24,0.63,0.84,0.63h0.431c1.055,0,1.246.05,1.27-.68a0.4,0.4,0,0,1,.343-0.44h6.87a0.4,0.4,0,0,1,.452.35,0.324,0.324,0,0,1,0,.09c0.024,0.73.24,0.68,1.246,0.68,0.983,0,1.3.05,1.3-.66,0-.63-0.048-1.24-0.048-1.85v-4.74c0-.66.024-1.21,0.024-1.65,0-.88-0.12-1.33-0.959-1.33-0.624,0-1.247.04-1.87,0.04h-3.714a0.293,0.293,0,0,1-.351-0.21,0.411,0.411,0,0,1-.008-0.06,0.485,0.485,0,0,1,.24-0.29c0.6-.42,1.174-0.82,1.749-1.29a1.427,1.427,0,0,1,1.1-.36h3.739c0.935,0,1.869.05,2.8,0.05,0.575,0,.551-0.27.551-1.17s0.024-1.17-.551-1.17c-0.935,0-1.869.05-2.8,0.05h-1.343a0.274,0.274,0,0,1-.31-0.24h0a0.383,0.383,0,0,1,.1-0.22h0Zm22.663,1.29a1.281,1.281,0,0,1,.552-1.09,48.484,48.484,0,0,0,3.282-3.65,1.307,1.307,0,0,1,.936-0.59,0.265,0.265,0,0,0,.238-0.24,2.064,2.064,0,0,0-.934-0.87,9.455,9.455,0,0,0-1.629-1.01,0.649,0.649,0,0,0-.384.37,20.267,20.267,0,0,1-3.259,4.11,34.371,34.371,0,0,1-9.418,6.44,0.49,0.49,0,0,0-.383.42,4.079,4.079,0,0,0,1.869,1.94c0.623,0,4.434-2.58,5.153-3.11a2.636,2.636,0,0,1,.934-0.56c0.456,0,.384.53,0.384,0.68v6.61c0,1.05-.048,2.09-0.048,3.14,0,0.63.239,0.71,1.557,0.71,0.887,0,1.2-.08,1.2-0.73,0-1.05-.047-2.12-0.047-3.19v-9.38h0Zm29.666-1.85a0.555,0.555,0,0,0-.407.27c-3.4,4.39-9.394,8.99-14.691,10.57a0.827,0.827,0,0,0-.743.42,7.072,7.072,0,0,0,.719,1.46,3.309,3.309,0,0,0,.935,1.26,0.232,0.232,0,0,0,.239-0.15,1.405,1.405,0,0,1,1.008-.82,42.033,42.033,0,0,0,13.012-9.16,5.022,5.022,0,0,0,1.27-1.69c0.007-.36-0.856-2.16-1.335-2.16h-0.007Zm-14.163-3.89c-0.551,0-1.51,1.56-1.51,1.92a0.627,0.627,0,0,0,.383.47,28.191,28.191,0,0,1,3.188,2.26,2.523,2.523,0,0,0,.959.65,2.944,2.944,0,0,0,1.581-1.87c0-.36-1.15-1.16-1.461-1.39a18.816,18.816,0,0,0-3.131-2.04h-0.009Zm32.014,2.11a0.4,0.4,0,0,1-.432-0.36,1.284,1.284,0,0,1,.192-0.51c0.168-.27.288-0.48,0.383-0.66a1.241,1.241,0,0,1,.719-0.8,0.313,0.313,0,0,0,.24-0.27,4.587,4.587,0,0,0-1.414-.82,5.485,5.485,0,0,0-1.342-.59,0.742,0.742,0,0,0-.431.61,22.407,22.407,0,0,1-6.255,8.73,0.683,0.683,0,0,0-.36.46c0,0.41,1.558,1.43,1.989,1.43a1.245,1.245,0,0,0,.767-0.46,35.255,35.255,0,0,0,3.116-3.74,1.1,1.1,0,0,1,1.054-.64h4.577c0.359,0,.983-0.02.983,0.49a7.727,7.727,0,0,1-.624,1.61,3.135,3.135,0,0,0-.143.33c-0.647,1.3-.863,1.76-1.318,1.76a1.039,1.039,0,0,1-.455-0.14,17.322,17.322,0,0,0-3.095-1.58c-0.528,0-1.462,1.47-1.462,1.82a1.038,1.038,0,0,0,.719.54,27.147,27.147,0,0,1,2.4,1.3,0.617,0.617,0,0,1,.287.52,0.965,0.965,0,0,1-.359.61,16.813,16.813,0,0,1-6.854,4.37c-0.623.19-1.03,0.26-1.03,0.56,0,0.34,1.1,1.89,1.725,1.89a12.771,12.771,0,0,0,2.9-1.23,18.989,18.989,0,0,0,5.224-4.11,1.307,1.307,0,0,1,.815-0.59,0.814,0.814,0,0,1,.527.24c0.335,0.3.647,0.54,0.982,0.83a0.511,0.511,0,0,0,.36.19,3.221,3.221,0,0,0,1.533-1.84,4.249,4.249,0,0,0-1.342-1.26,0.717,0.717,0,0,1-.263-1.12,42.991,42.991,0,0,0,2.277-4.53,5.648,5.648,0,0,1,.6-1.18,0.7,0.7,0,0,0,.144-0.37,2.666,2.666,0,0,0-1.246-1.66,1.906,1.906,0,0,0-.241.05,6.519,6.519,0,0,1-1.461.13h-4.385Zm30.886-1.65a2.259,2.259,0,0,0-1.222.9,0.844,0.844,0,0,0,.216.37,21.266,21.266,0,0,1,1.511,2.01,0.547,0.547,0,0,0,.359.3,1.9,1.9,0,0,0,1.222-1.01,9.4,9.4,0,0,0-2.078-2.57h-0.008Zm2.5-1.51a2.084,2.084,0,0,0-1.222.92,0.759,0.759,0,0,0,.192.33c0.551,0.65,1.054,1.34,1.557,2.03a0.553,0.553,0,0,0,.336.3,1.905,1.905,0,0,0,1.222-1.04,9.459,9.459,0,0,0-2.077-2.53Zm-13.969,10.53a0.7,0.7,0,0,1,.7-0.69,0.143,0.143,0,0,0,.064.01,26.088,26.088,0,0,0,9.3-2.31,2.033,2.033,0,0,1,.862-0.26c0.048,0,.121.02,0.168,0.02,0.121,0,.217.03,0.312,0.03a0.312,0.312,0,0,0,.36-0.25,4.189,4.189,0,0,0-.647-1.12c-0.049-.07-0.1-0.14-0.168-0.24a2.929,2.929,0,0,0-.935-1.12,1.086,1.086,0,0,0-.384.17,20.773,20.773,0,0,1-8.937,2.7,0.61,0.61,0,0,1-.692-0.51,0.777,0.777,0,0,1-.007-0.1v-3.54c0-.45,0-0.9.024-1.08a4.869,4.869,0,0,1,.407-0.85,0.752,0.752,0,0,0-.719-0.36c-0.336-.07-1.942-0.42-2.181-0.42a0.25,0.25,0,0,0-.264.24,0.258,0.258,0,0,0,0,.04v0.19a31.629,31.629,0,0,1,.12,3.37v8.24c0,1.08.024,2.97,0.623,3.87,1.03,1.51,3.715,1.41,5.32,1.41,1.869,0,6.758-.02,8.387-0.26,0.767-.1.767-0.71,0.767-1.44s-0.024-1.34-.479-1.34c-0.072,0-.168.02-0.24,0.02a45.635,45.635,0,0,1-8,.52c-3.283,0-3.762.05-3.762-2.9v-2.04h0Zm28.778-3.91c-0.959,0-1.965-.02-2.373-0.02-0.575,0-.528.45-0.528,1.09,0,0.77,0,1.19.552,1.19,0.6,0,1.534-.05,2.349-0.05h3.33a0.543,0.543,0,0,1,.638.44,0.419,0.419,0,0,1,.009.07c0,0.05-.072.42-0.072,0.49l-0.455,4.25a0.682,0.682,0,0,1-.671.59h-5.727c-0.648,0-1.918-.05-2.325-0.05-0.551,0-.6.44-0.6,1.27,0,0.47-.024,1.04.623,1.04,0.575,0,1.486-.05,2.3-0.05h9.8c0.767,0,1.557.05,2.325,0.05,0.671,0,.671-0.42.671-1.09,0-.81.024-1.22-0.6-1.22-0.815,0-1.606.05-2.4,0.05h-0.647a0.522,0.522,0,0,1-.5-0.53,0.4,0.4,0,0,1,0-.06l0.5-4.47c0.024-.12.1-0.66,0.168-1.12,0.047-.36.119-0.48,0.119-0.68a1.606,1.606,0,0,0-1.39-1.24c-0.1,0-.239.03-0.335,0.03-0.24.02-.527,0.02-0.815,0.02h-3.949Zm22.863,1.41c-1.006,0-2.66-.08-2.971-0.08-0.623,0-.671.2-0.671,1.56,0,0.75.024,1.22,0.647,1.22,1.006,0,2.013-.05,2.995-0.05h11.024c0.982,0,1.989.05,3,.05,0.623,0,.647-0.47.647-1.25,0-1.33-.024-1.53-0.671-1.53-0.312,0-1.87.08-2.972,0.08H772.334Z" transform="translate(-559 -8254.69)"/>
  <path id="シェイプ_9" data-name="シェイプ 9" class="cls-1" d="M916.033,8260.68a0.279,0.279,0,0,0-.188-0.42,3,3,0,0,0-.625-0.08c-1-.01-2.01,0-3.014.04a0.619,0.619,0,0,1-.787-0.73c0.009-.12-0.006-0.23-0.008-0.35-0.016-1.38,0-1.36,1.384-1.32,2.037,0.04,4.076.02,6.114,0.05a0.889,0.889,0,0,0,1.05-1.09c-0.066-1.75-.041-1.75,1.765-1.52,0.335,0.05.669,0.1,1.064,0.17a0.278,0.278,0,0,1,.171.45,0.6,0.6,0,0,0-.142.24,2.661,2.661,0,0,0-.132,1.3,1.268,1.268,0,0,0,.991.42c2.181,0.02,4.362-.02,6.543-0.05,0.888-.02,1.024.12,1.034,1.14,0.011,1.16-.084,1.28-0.964,1.28-0.769-.01-1.537,0-2.366,0a0.278,0.278,0,0,0-.18.49l0.106,0.09a0.275,0.275,0,0,1-.068.46l-0.262.13a1.147,1.147,0,0,0-.339,1.99c0.872,0.88,1.792,1.7,2.693,2.55,0.4,0.37.9,0.68,0.342,1.33-0.8.94-1.342,1.16-2,.58a30.27,30.27,0,0,1-2.588-2.53c-0.532-.58-0.912-0.65-1.448-0.03-0.463.54-.983,1.03-1.508,1.55a0.282,0.282,0,0,0,.055.44c0.116,0.07.221,0.13,0.32,0.19a0.729,0.729,0,0,1,.02.22c-0.091.26-.186,0.52-0.281,0.79a0.282,0.282,0,0,0,.176.36,3.385,3.385,0,0,0,.918.21c2.354,0.01,4.708,0,7.061-.06A0.847,0.847,0,0,1,932,8270c-0.025,1.51.015,1.48-1.533,1.45-2.3-.04-4.593-0.01-6.889-0.03a0.881,0.881,0,0,0-1.042,1.03c0.03,1.13.03,2.25,0.084,3.37,0.038,0.78-.207,1.22-1.053,1.14a5.892,5.892,0,0,0-.84-0.02,0.7,0.7,0,0,1-.839-0.85c0.026-1.21.007-2.42,0.049-3.63a0.856,0.856,0,0,0-1.008-1.04c-2.411.03-4.822,0.02-7.233,0.06-1.02.01-1.1-.03-1.11-1.02-0.02-1.45.016-1.48,1.108-1.47,2.325,0.02,4.651.05,6.976,0.04a1.573,1.573,0,0,0,1.117-.34,1.794,1.794,0,0,0-.261-1.34c-0.443-.59-0.18-0.88.222-1.29,1.567-1.6,3.107-3.22,4.646-4.84a3.688,3.688,0,0,0,.361-0.5,0.28,0.28,0,0,0-.232-0.43h-5.257a0.282,0.282,0,0,0-.174.5l0.011,0.01a0.28,0.28,0,0,1-.058.47c-0.086.04-.16,0.08-0.232,0.12a1.173,1.173,0,0,0-.254,2.07c0.316,0.29.622,0.6,0.961,0.86,0.559,0.44.8,0.85,0.212,1.48-0.828.9-1.234,1.03-1.94,0.45-0.286-.24-0.543-0.52-0.8-0.78-0.785-.81-0.77-0.8-1.578.04a27.725,27.725,0,0,1-2.105,2.04,1.248,1.248,0,0,1-1.046.29,4.315,4.315,0,0,1-1.264-1.22,1.8,1.8,0,0,1,.509-0.79c1.394-1.57,2.807-3.11,4.2-4.67A3.768,3.768,0,0,0,916.033,8260.68Zm-22.982-4.88c-0.542.61-.883,1-1.381,1.56a7.69,7.69,0,0,0,1.133.19c3.587-.01,7.175-0.01,10.763-0.06,0.783-.01,1.139.22,1.038,1.03a2.736,2.736,0,0,0,0,.6c0.073,0.73-.261.96-0.961,0.94-1.663-.05-3.329-0.05-4.993-0.06-1,0-1.122.14-1.132,1.16-0.019,1.94-.019,1.94,1.89,1.94,1,0,2.01.01,3.014-.02a0.65,0.65,0,0,1,.793.75c0,0.29-.01.58,0,0.86a0.743,0.743,0,0,1-.939.88c-1.262-.05-2.526-0.02-3.789-0.05a0.827,0.827,0,0,0-.98.98c0.041,2.6-.336,2.47,2.369,2.44,1.606-.01,3.214-0.03,4.818-0.11a0.861,0.861,0,0,1,1.087,1.03c-0.011.2-.006,0.4,0,0.6a0.81,0.81,0,0,1-.984.95c-2.066-.06-4.134-0.01-6.2-0.06a0.869,0.869,0,0,0-1.037,1.12c0.057,1.17,0,2.02,0,3.54,0,0.98-.627.95-1.308,0.98-1.508-.03-1.508-0.03-1.508-1.84,0.023-.89-0.007-1.78.04-2.67a0.912,0.912,0,0,0-1.1-1.13c-2.7.04-5.4,0.03-8.094,0.04-1.077,0-1.174-.12-1.136-1.46,0.028-1,.189-1.16,1.2-1.07,2.891,0.27,2.362-.05,2.395-2.24,0.011-.75-0.028-1.5-0.03-2.25,0-1.04.219-1.28,1.254-1.28,1.492-.01,2.985-0.01,4.477.02a0.868,0.868,0,0,0,1.036-1.02c0.032-2.09.045-2-2.038-2.12a3.463,3.463,0,0,0-3.647,1.75,15.911,15.911,0,0,1-2.5,2.84c-0.7.72-1.112,0.59-1.991-.32a0.919,0.919,0,0,1,.121-1.57,16.347,16.347,0,0,0,4.836-7.01,0.8,0.8,0,0,1,1.238-.57C891.505,8255.35,892.228,8255.54,893.051,8255.8Zm-0.326,9.72c-2.335-.05-2.244.01-2.222,2.37,0,0.03,0,.06,0,0.09a0.9,0.9,0,0,0,.972.96c0.657,0.01,1.314.01,1.97,0.01,1.119-.01,1.327-0.22,1.327-1.38C894.774,8265.57,895.039,8265.48,892.725,8265.52Zm-51.48.71a10.129,10.129,0,0,1-2.306,6.81,6.741,6.741,0,0,1-11.441-2.27,11.661,11.661,0,0,1,.372-8.83c1.431-3.17,4.075-4.51,7.661-4.03a6.907,6.907,0,0,1,5.452,5.84C841.118,8264.57,841.16,8265.41,841.245,8266.23Zm-3.021.77a9.239,9.239,0,0,0-.342-3.42,3.835,3.835,0,0,0-7.294-.52,9.057,9.057,0,0,0-.478,6.3,3.806,3.806,0,0,0,3.178,3.21,3.712,3.712,0,0,0,4.068-2.38A9.711,9.711,0,0,0,838.224,8267Zm24.965-.16a10.318,10.318,0,0,1,2.194-6.76,6.823,6.823,0,0,1,11.311,1.64,11.114,11.114,0,0,1-.394,9.9,6.8,6.8,0,0,1-12.79-2.05C863.34,8268.67,863.293,8267.75,863.189,8266.84Zm2.97,1.09a14.245,14.245,0,0,0,.784,2.6,3.573,3.573,0,0,0,6,.82c1.74-1.9,2.251-5.78,1.106-8.3a3.654,3.654,0,0,0-3.346-2.41,3.759,3.759,0,0,0-3.663,2.23A10.117,10.117,0,0,0,866.159,8267.93Zm-14.979,4.62c1.77,0,3.541-.01,5.31.02a1.765,1.765,0,0,1,1.115.29,7.184,7.184,0,0,1-.041,2.12,1.825,1.825,0,0,1-.937.2c-3.126.01-6.253,0.02-9.379-.01a2.011,2.011,0,0,1-1.17-.36,3.274,3.274,0,0,1,.313-1.84,9.789,9.789,0,0,1,1.6-1.42c1.715-1.65,3.45-3.29,5.081-5.02a6.692,6.692,0,0,0,1.319-2.29,2.659,2.659,0,0,0-2.97-3.67,4.64,4.64,0,0,0-3.052,1.41,0.887,0.887,0,0,1-1.551-.07c-1.325-1.48-1.365-1.56.29-2.69a7.991,7.991,0,0,1,7.3-1.03c2.773,0.93,3.9,3.79,2.814,6.81a11.975,11.975,0,0,1-2.992,4.37c-1.029,1.02-2.1,2-3.158,3C851.109,8272.43,851.145,8272.49,851.18,8272.55Zm-35.85,0c1.83,0,3.662.04,5.491-.01,0.878-.03,1.223.26,1.1,1.13a3.67,3.67,0,0,0,0,.77,0.605,0.605,0,0,1-.7.74c-3.442,0-6.884.01-10.326-.01a0.844,0.844,0,0,1-.65-0.39,1.948,1.948,0,0,1,.444-1.99c1.341-1.12,2.7-2.24,3.939-3.47,1.2-1.19,2.285-2.49,3.364-3.79a4.067,4.067,0,0,0,.648-1.39,2.68,2.68,0,0,0-2.958-3.58,5.04,5.04,0,0,0-3.08,1.36c-0.8.75-.9,0.72-1.658-0.1-1.251-1.35-1.268-1.45.252-2.52a8.024,8.024,0,0,1,7.363-1.13c2.737,0.87,3.923,3.72,2.9,6.7a11.639,11.639,0,0,1-2.945,4.4c-0.87.88-1.786,1.71-2.694,2.54a5.636,5.636,0,0,1-.7.47Z" transform="translate(-559 -8254.69)"/>
</svg>
