<svg xmlns="http://www.w3.org/2000/svg" width="149.156" height="21.7" viewBox="0 0 149.156 21.7">
  <defs>
    <style>
      .cls-1 {
        fill: #4da5dc;
        fill-rule: evenodd;
      }
    </style>
  </defs>
  <path id="空港職場見学" class="cls-1" d="M681.843,11965.9c0-.5.192-0.6,0.672-0.6h5.736c0.576,0,.552-0.3.552-1.1s0.024-1.1-.552-1.1c-0.888,0-1.8.1-2.688,0.1h-9.985c-0.912,0-1.8-.1-2.712-0.1-0.552,0-.552.3-0.552,1.1s0,1.1.552,1.1h5.761c0.48,0,.672.1,0.672,0.6v2.7a0.552,0.552,0,0,1-.672.6h-8.089c-0.552,0-.528.3-0.528,1.1,0,0.9-.024,1.1.528,1.1H690.58c0.552,0,.528-0.2.528-1.1,0-.8.024-1.1-0.528-1.1h-8.065a0.552,0.552,0,0,1-.672-0.6v-2.7Zm0.048-13.6a0.907,0.907,0,0,1,.288-0.8,0.5,0.5,0,0,0,.288-0.4c0-.3-0.432-0.3-0.888-0.4-0.408,0-1.536-.1-1.9-0.1-0.264,0-.5,0-0.5.4a0.983,0.983,0,0,1,.024.2,11.841,11.841,0,0,1,.1,1.3,0.6,0.6,0,0,1-.672.7h-3.961c-0.864,0-1.632-.1-2.256-0.1-1.128,0-1.776.2-1.776,1,0,0.3.024,0.8,0.024,1.3v0.7c0,0.3-.048.7-0.048,1,0,0.6.384,0.5,1.248,0.5,0.816,0,1.224.1,1.224-.5,0-.3-0.048-0.7-0.048-1v-0.1a0.583,0.583,0,0,1,.672-0.7h2.448a0.444,0.444,0,0,1,.5.5,0.193,0.193,0,0,1-.048.1c-0.672,2.2-3.264,3.8-5.3,4.4-0.528.2-.768,0.3-0.768,0.6,0,0.6.648,1.7,1.176,1.7a9.6,9.6,0,0,0,1.416-.5,13.427,13.427,0,0,0,2.544-1.4,9.149,9.149,0,0,0,3.169-3.6,0.637,0.637,0,0,1,.456-0.5,0.883,0.883,0,0,0,.384-0.3,1.059,1.059,0,0,0-.888-0.6l-0.384-.2c-0.024,0-.072,0-0.072-0.1a0.179,0.179,0,0,1,.144-0.1h2.424a0.591,0.591,0,0,1,.672.7v2.7c0,0.3-.024.6-0.024,1,0,1.6,1.032,1.8,2.592,1.8h2.928a2.119,2.119,0,0,0,2.185-.9,5.234,5.234,0,0,0,.768-2.2c0-.6-1.393-0.8-1.8-0.8-0.384,0-.432.2-0.5,0.6-0.168.8-.36,1.1-1.128,1.1h-1.56c-0.72,0-1.056-.1-1.056-0.9v-2.4a0.591,0.591,0,0,1,.672-0.7h2.856a0.576,0.576,0,0,1,.648.7c0,0.1-.024.5-0.024,0.7,0,0.5.433,0.5,1.273,0.5,0.792,0,1.2,0,1.2-.5a0.9,0.9,0,0,0-.024-0.3c0-.2-0.024-0.6-0.024-0.7v-0.3c0-.5.024-1,0.024-1.3a1.113,1.113,0,0,0-1.368-1c-0.889,0-1.777.1-2.665,0.1h-3.984a0.609,0.609,0,0,1-.672-0.7v-0.2Zm18.407,6.8c0-.4-1.2-1.2-1.512-1.5a12.226,12.226,0,0,0-1.992-1.3,2.475,2.475,0,0,0-1.3,1.5,0.526,0.526,0,0,0,.408.4,26.016,26.016,0,0,1,2.448,1.9,0.921,0.921,0,0,0,.624.4A2.468,2.468,0,0,0,700.3,11959.1Zm0.744-5.5a1.99,1.99,0,0,0-.864-0.8,9.668,9.668,0,0,0-2.472-1.8,2.526,2.526,0,0,0-1.344,1.5,1.252,1.252,0,0,0,.408.5,26.008,26.008,0,0,1,2.28,1.8,1.461,1.461,0,0,0,.624.3A2.513,2.513,0,0,0,701.042,11953.6Zm8.5,1.8a0.6,0.6,0,0,1,.672.6v1a0.759,0.759,0,0,1-.672.7h-1.464a0.738,0.738,0,0,1-.672-0.7v-1a0.592,0.592,0,0,1,.672-0.6h1.464Zm-0.1,4.4a0.839,0.839,0,0,1,.912.6c0.144,0.2.288,0.5,0.432,0.7a0.688,0.688,0,0,1,.072.3,0.316,0.316,0,0,1-.36.3h-3.624a0.338,0.338,0,0,1-.384-0.3,0.193,0.193,0,0,1,.072-0.2c0.144-.3.288-0.6,0.408-0.8a0.971,0.971,0,0,1,.936-0.6h1.536Zm3.7,4.5c0.408,0.4,2.017,2,2.521,2a2.744,2.744,0,0,0,1.416-1.5,1.4,1.4,0,0,0-.552-0.6,18.8,18.8,0,0,1-3.577-3.8,0.341,0.341,0,0,1-.072-0.2c0-.3.192-0.3,0.384-0.4h0.312c0.889,0,1.777.1,2.689,0.1,0.624,0,.624-0.3.624-1.1,0-.9,0-1.2-0.624-1.2-0.912,0-1.8.1-2.689,0.1h-0.336a0.583,0.583,0,0,1-.672-0.7v-1a0.543,0.543,0,0,1,.648-0.6h2.425c0.624,0,.6-0.3.6-1.1,0-.9.024-1.2-0.6-1.2a19.234,19.234,0,0,1-2.4,0,0.533,0.533,0,0,1-.672-0.6,1,1,0,0,1,.288-0.9,0.452,0.452,0,0,0,.288-0.4c0-.3-0.408-0.3-0.6-0.3-0.36,0-1.7-.2-2.016-0.2a0.336,0.336,0,0,0-.408.3v0.3c0.048,0.4.1,0.9,0.1,1.2a0.54,0.54,0,0,1-.672.6h-1.464a0.533,0.533,0,0,1-.672-0.6,1,1,0,0,1,.288-0.9,0.607,0.607,0,0,0,.288-0.4c0-.3-0.408-0.3-0.624-0.3a14.118,14.118,0,0,0-1.992-.2,0.336,0.336,0,0,0-.408.3v0.3a10.105,10.105,0,0,1,.1,1.2,0.544,0.544,0,0,1-.624.6h-2.161c-0.6,0-.6.3-0.6,1.2,0,0.8,0,1.1.6,1.1a15.585,15.585,0,0,1,2.161,0,0.526,0.526,0,0,1,.624.6v1a0.583,0.583,0,0,1-.672.7c-0.912,0-1.849-.1-2.761-0.1-0.6,0-.6.3-0.6,1.2,0,0.8,0,1.1.6,1.1,0.816,0,1.633-.1,2.449-0.1,0.192,0.1.384,0.1,0.384,0.4a0.341,0.341,0,0,1-.072.2,20.313,20.313,0,0,1-3.217,3.6h-0.144c-0.1,0-.168,0-0.168-0.1a0.572,0.572,0,0,1,.024-0.2,0.656,0.656,0,0,0,.072-0.3c0-.4-1.464-1.1-1.752-1.1-0.24,0-.264.1-0.384,0.5a41.238,41.238,0,0,1-2.9,6.7,2.124,2.124,0,0,0-.408.7,1.586,1.586,0,0,0,.864.9,4.87,4.87,0,0,0,1.368.8,0.312,0.312,0,0,0,.264-0.3c0-.2-0.072-0.4-0.072-0.5a2.612,2.612,0,0,1,.216-0.7c0.744-1.6,1.464-3.2,2.088-4.8,0.048-.2.12-0.2,0.288-0.2a0.322,0.322,0,0,1,.288.1,2.4,2.4,0,0,0,1.032.7c0.48,0,2.281-1.8,2.665-2.2a1.582,1.582,0,0,1,.936-0.5h4.32a0.576,0.576,0,0,1,.648.7v0.5a0.576,0.576,0,0,1-.648.7h-3.12c-0.528,0-1.08-.1-1.608-0.1-0.6,0-1.08.1-1.08,0.8,0,0.5.048,0.9,0.048,1.4v1.5c0,0.4-.048.9-0.048,1.2,0,1.6,1.32,1.6,2.88,1.6h5.52a2.73,2.73,0,0,0,2.184-.6,4.67,4.67,0,0,0,.985-2.9,0.417,0.417,0,0,0-.288-0.5,2.379,2.379,0,0,0-1.393-.4,0.458,0.458,0,0,0-.5.5c-0.24,1.5-.384,1.7-1.944,1.7h-3.672c-1.2,0-1.3-.2-1.3-1.3v-0.5c0-.5.192-0.6,0.672-0.6h2.76a0.412,0.412,0,0,1,.528.3c0.1,0.3.552,0.2,1.3,0.2,0.96,0,1.1-.1,1.1-0.5,0-.3-0.072-0.9-0.072-1.5v-1.2q0-.3.216-0.3A0.191,0.191,0,0,1,713.139,11964.3Zm19.632,1.3a0.541,0.541,0,0,1,.576.6h0a0.541,0.541,0,0,1-.576.6h-0.888a0.541,0.541,0,0,1-.576-0.6h0a0.541,0.541,0,0,1,.576-0.6h0.888Zm0-2.5a0.53,0.53,0,0,1,.576.5,0.614,0.614,0,0,1-.576.6h-0.888a0.614,0.614,0,0,1-.576-0.6,0.53,0.53,0,0,1,.576-0.5h0.888Zm2.448,0.1c0-.3.024-0.7,0.024-1.1a0.825,0.825,0,0,0-1.008-.9c-0.432,0-.84.1-1.248,0.1h-1.464c-0.432,0-.864-0.1-1.3-0.1a0.86,0.86,0,0,0-.96,1c0,0.3.024,0.7,0.024,1v4.8c0,0.4-.024.8-0.024,1.3,0,0.4.312,0.4,0.96,0.4,1.08,0,1.08,0,1.1-.5,0-.5.264-0.6,0.7-0.6h2.232a0.808,0.808,0,0,0,.984-0.9c0-.3-0.024-0.7-0.024-1v-3.5Zm7.321-7.4a11.11,11.11,0,0,0-.7-1.8,13.73,13.73,0,0,0-.84-1.7,0.589,0.589,0,0,0-.408-0.2c-0.216,0-1.393.3-1.393,0.7a0.731,0.731,0,0,0,.1.3c0.528,1,.96,2,1.369,3a0.488,0.488,0,0,0,.456.5,2.572,2.572,0,0,0,.84-0.2A0.614,0.614,0,0,0,742.54,11955.8Zm-18.218,7.5a0.552,0.552,0,0,1,.672-0.6h0.336a0.552,0.552,0,0,1,.672.6v1.3a0.666,0.666,0,0,1-.624.8h-0.552a0.447,0.447,0,0,1-.5-0.5v-1.6Zm0-4.5a0.6,0.6,0,0,1,.672-0.6h0.336a0.6,0.6,0,0,1,.672.6v1.3a0.685,0.685,0,0,1-.672.7h-0.336a0.685,0.685,0,0,1-.672-0.7v-1.3Zm0-4.5a0.6,0.6,0,0,1,.672-0.6h0.336a0.6,0.6,0,0,1,.672.6v1.3a0.6,0.6,0,0,1-.672.6h-0.336a0.6,0.6,0,0,1-.672-0.6v-1.3Zm3.816,0.1c0-.6.337-0.7,0.433-0.7a0.355,0.355,0,0,1,.264.4c0.024,0.6.024,0.8,0.432,0.8,0.528,0,1.152-.1,1.776-0.1h1.92a0.525,0.525,0,0,1,.432.4c0,0.1-.024.1-0.024,0.2a17.919,17.919,0,0,1-.7,2.1,0.9,0.9,0,0,1-.912.6h-0.936a13.941,13.941,0,0,1-2.04-.1,0.544,0.544,0,0,1-.649-0.6v-3Zm6.673,3.7a0.373,0.373,0,0,1-.432-0.4,0.572,0.572,0,0,1,.024-0.2c0.216-.4.36-0.9,0.576-1.3a0.32,0.32,0,0,1,.264-0.2c0.168,0,.384,0,0.384-0.2a1.449,1.449,0,0,0-.912-0.6c-0.12,0-.216-0.1-0.336-0.1a0.262,0.262,0,0,1-.072-0.1,0.3,0.3,0,0,1,.12-0.2,4.131,4.131,0,0,0,1.1.1c0.432,0,.432-0.3.432-1s0-.9-0.432-0.9h-1.416a0.553,0.553,0,0,1-.648-0.6,0.91,0.91,0,0,1,.264-0.9,0.479,0.479,0,0,0,.288-0.3c0-.3-0.432-0.3-0.648-0.3-0.48,0-1.344-.1-1.8-0.1-0.216,0-.432,0-0.432.3a0.983,0.983,0,0,1,.024.2c0.048,0.4.072,0.7,0.1,1.1a0.554,0.554,0,0,1-.624.6h-0.456c-0.552,0-.912,0-0.936-0.6s0.048-.9-0.553-0.9h-6.72c-0.576,0-.552.2-0.552,1.1s0.024,1.1.576,1.1a0.386,0.386,0,0,1,.432.4v11.1a0.489,0.489,0,0,1-.528.6c-0.5.1-.888,0.1-0.888,0.4a15.978,15.978,0,0,0,.456,1.7c0.144,0.5.192,0.7,0.432,0.7a0.344,0.344,0,0,0,.36-0.3,0.843,0.843,0,0,1,.336-0.3c0.912-.2,1.824-0.3,2.76-0.6h0.192a0.423,0.423,0,0,1,.456.5v0.3c0,1.1-.048,2.2-0.048,3.4,0,0.6.312,0.6,1.1,0.6,0.912,0,1.128,0,1.128-.7,0-1.1-.048-2.2-0.048-3.3v-7.5a0.576,0.576,0,0,1,.649-0.7h7.224a0.571,0.571,0,0,1,.672.6c0.072,1.8.264,3.4,0.48,5.2a0.974,0.974,0,0,1,.024.2,1.015,1.015,0,0,1-.312.8,19.015,19.015,0,0,1-3.312,3,1.111,1.111,0,0,0-.6.6,1.986,1.986,0,0,0,1.272,1.4c0.48,0,2.664-2,3.1-2.5a2.418,2.418,0,0,1,.312-0.1,0.514,0.514,0,0,1,.336.3c0.384,1.2,1.032,2.8,2.5,2.8,1.272,0,1.632-1,1.968-2a15.582,15.582,0,0,0,.6-2.9c0-.6-0.936-0.8-1.3-0.8-0.312,0-.432,0-0.456.3-0.048.4-.24,2.6-0.7,2.6-0.337,0-.937-2.1-0.937-2.5a1.273,1.273,0,0,1,.264-0.8,23.528,23.528,0,0,0,1.9-3.2c0.168-.4.24-0.6,0.552-0.6a0.609,0.609,0,0,0,.408-0.4c0-.2-0.144-0.2-0.672-0.6a3.549,3.549,0,0,0-1.32-.7,0.4,0.4,0,0,0-.336.3,15.271,15.271,0,0,1-1.009,2.2,0.162,0.162,0,0,1-.192.1,0.211,0.211,0,0,1-.192-0.2c-0.072-.8-0.12-1.7-0.168-2.5a0.562,0.562,0,0,1,.648-0.6h2.521c0.552,0,.528-0.3.528-1s0.024-1-.528-1c-0.84,0-1.68.1-2.5,0.1h-0.072a0.6,0.6,0,0,1-.672-0.7v-5a0.771,0.771,0,0,1,.24-0.8,0.329,0.329,0,0,0,.36-0.3c0-.3-0.288-0.3-0.648-0.4-0.312,0-1.512-.1-1.752-0.1a0.373,0.373,0,0,0-.456.4c0,0.2.048,0.8,0.048,1.3v0.8c0,1.4.024,2.7,0.024,4.1a0.591,0.591,0,0,1-.672.7h-1.152Zm-3.216-.9a10.329,10.329,0,0,0-.312-1.1c-0.336-.9-0.456-1.1-0.744-1.1s-1.224.2-1.224,0.6c0,0.1.216,0.6,0.384,1.1,0.24,0.7.384,1.2,0.672,1.2A1.328,1.328,0,0,0,731.6,11957.2Zm31.752-1.3a0.6,0.6,0,0,1,.576.6v0.3a0.517,0.517,0,0,1-.576.5h-4.2a0.517,0.517,0,0,1-.576-0.5v-0.3a0.6,0.6,0,0,1,.576-0.6h4.2Zm-4.2-1.4a0.6,0.6,0,0,1-.576-0.6v-0.2a0.6,0.6,0,0,1,.576-0.6h4.2a0.6,0.6,0,0,1,.576.6v0.2a0.6,0.6,0,0,1-.576.6h-4.2Zm7.057-.7c0-.5.047-0.9,0.047-1.4,0-.8-0.455-1-1.224-1h-7.56c-0.792,0-1.224.2-1.224,1,0,0.5.048,0.9,0.048,1.4v2.9c0,0.4-.048.9-0.048,1.3a1.031,1.031,0,0,0,1.248,1.1c0.6,0,1.2-.1,1.8-0.1h3.936c0.6,0,1.2.1,1.824,0.1a1,1,0,0,0,1.2-1.1c0-.4-0.047-0.9-0.047-1.3v-2.9Zm-2.017,11.6c0.36,0,.624,0,0.624.5a15.212,15.212,0,0,1-.384,3.1,0.889,0.889,0,0,1-1.1.8h-0.48c-0.24,0-.624-0.1-0.84-0.1a0.488,0.488,0,0,0-.408.6c0,1.9.408,1.9,1.536,1.9,1.536,0,2.832-.2,3.409-1.8a24.179,24.179,0,0,0,.7-5.9c0-.8-0.168-1.2-1.081-1.2h-6.624a0.349,0.349,0,0,1-.408-0.3,0.279,0.279,0,0,1,.048-0.2c0.048-.1.072-0.2,0.12-0.3a0.693,0.693,0,0,1,.648-0.3h7.849c0.528,0,.5-0.4.5-1,0-.7.024-1.1-0.5-1.1-0.912,0-1.825.1-2.713,0.1h-7.752c-0.912,0-1.8-.1-2.713-0.1-0.528,0-.5.4-0.5,1.1,0,0.6-.024,1,0.5,1h2.017a0.316,0.316,0,0,1,.36.3,0.341,0.341,0,0,1-.072.2,14.383,14.383,0,0,1-4.057,4.1,0.878,0.878,0,0,0-.552.5,1.769,1.769,0,0,0,1.152,1.2,1.862,1.862,0,0,0,.721-0.3,17.463,17.463,0,0,0,2.808-2.4,1.013,1.013,0,0,1,.888-0.4h0.1a0.329,0.329,0,0,1,.36.3,0.385,0.385,0,0,1-.1.2,13.043,13.043,0,0,1-3.672,3.3,1.023,1.023,0,0,0-.553.5,1.641,1.641,0,0,0,1.129,1.1,0.418,0.418,0,0,0,.336-0.1,13.043,13.043,0,0,0,2.448-1.9,15.69,15.69,0,0,0,2.376-3,0.882,0.882,0,0,1,.84-0.4h0.192a0.365,0.365,0,0,1,.408.4l-0.048.2a16.735,16.735,0,0,1-4.2,4.7,0.842,0.842,0,0,0-.5.6,1.762,1.762,0,0,0,1.152,1,2.194,2.194,0,0,0,.7-0.4,15.848,15.848,0,0,0,4.8-6.1A0.517,0.517,0,0,1,764.187,11965.4Zm-15.025-.7a10.972,10.972,0,0,1-1.7.5c-0.264.1-.6,0.1-0.6,0.5a8.437,8.437,0,0,0,.552,1.6c0.192,0.5.264,0.8,0.528,0.8a0.5,0.5,0,0,0,.36-0.4,0.523,0.523,0,0,1,.528-0.4,58.537,58.537,0,0,0,5.665-2.6,0.6,0.6,0,0,0,.408-0.7c0-.3-0.072-1.6-0.432-1.6a5.788,5.788,0,0,0-1.2.6,2.943,2.943,0,0,1-.552.2,0.241,0.241,0,0,1-.24.1c-0.264,0-.36-0.2-0.36-0.5v-4.1a0.614,0.614,0,0,1,.648-0.7,10.057,10.057,0,0,0,1.633.1c0.5,0,.48-0.3.48-1.2s0-1.1-.48-1.1h-1.633a0.576,0.576,0,0,1-.648-0.7v-2.2c0-.8.024-1.1,0.264-1.2a0.609,0.609,0,0,0,.36-0.4c0-.3-0.288-0.3-0.456-0.3-0.432,0-1.872-.2-2.232-0.2a0.336,0.336,0,0,0-.408.3,0.9,0.9,0,0,0,.024.3,16.762,16.762,0,0,1,.072,1.9v1.8a0.583,0.583,0,0,1-.672.7H747.6c-0.5,0-.48.2-0.48,1.1s-0.024,1.2.48,1.2c0.456,0,.984-0.1,1.488-0.1a0.6,0.6,0,0,1,.648.7v5.1A0.8,0.8,0,0,1,749.162,11964.7Zm33.1,0.9a0.461,0.461,0,0,0,.48-0.3c0-.3-1.008-0.6-1.32-0.7a3.038,3.038,0,0,0-1.248-.4c-0.264,0-.289.2-0.337,0.6-0.552,3-3.192,4.3-6,4.7-0.672.1-.984,0.1-0.984,0.5s0.336,1.9,1.128,1.9a13.857,13.857,0,0,0,3.384-.9,7.725,7.725,0,0,0,4.633-5A0.522,0.522,0,0,1,782.259,11965.6Zm-3.985-4.6a0.685,0.685,0,0,1,.672-0.7h8.785a0.685,0.685,0,0,1,.672.7v0.2a0.629,0.629,0,0,1-.672.7h-8.785a0.629,0.629,0,0,1-.672-0.7v-0.2Zm0-3.5a0.541,0.541,0,0,1,.576-0.6h8.977a0.541,0.541,0,0,1,.576.6v0.3a0.541,0.541,0,0,1-.576.6H778.85a0.541,0.541,0,0,1-.576-0.6v-0.3Zm0.576-2.5a0.517,0.517,0,0,1-.576-0.5v-0.4a0.6,0.6,0,0,1,.576-0.6h8.977a0.6,0.6,0,0,1,.576.6v0.4a0.517,0.517,0,0,1-.576.5H778.85Zm9.529,9.3c0.072,0.4.336,0.4,1.248,0.4,0.96,0,1.248,0,1.248-.6s-0.048-1.3-.048-2v-7.8c0-.7.048-1.3,0.048-1.7,0-.9-0.168-1.3-1.176-1.3-0.672,0-1.344.1-2.04,0.1h-8.641c-0.672,0-1.368-.1-2.04-0.1a0.962,0.962,0,0,0-1.152,1.1c0,0.6.048,1.2,0.048,1.9v7.8c0,0.7-.048,1.4-0.048,2.1,0,0.5.264,0.5,1.248,0.5,0.936,0,1.152,0,1.248-.3,0.072-.3.12-0.4,0.384-0.4h4.7a0.583,0.583,0,0,1,.672.7v3.7c0,0.5-.024.9-0.024,1.4,0,1.5.888,1.9,2.232,1.9h3.624c0.912,0,2.089,0,2.713-.8a7.65,7.65,0,0,0,1.248-3.8c0-.8-1.344-1-1.7-1a0.442,0.442,0,0,0-.529.4c-0.311,2.6-.552,2.9-2.16,2.9h-1.752c-0.984,0-1.2-.2-1.2-1.2v-3.5a0.576,0.576,0,0,1,.648-0.7h0.792A0.362,0.362,0,0,1,788.379,11964.3ZM810.2,11954a4.123,4.123,0,0,0-.648-1.3,0.929,0.929,0,0,0-.144-0.2c-0.648-1-1.008-1.7-1.464-1.7-0.432,0-1.632.6-1.632,1.1a0.527,0.527,0,0,0,.192.4c0.5,0.7,1.1,1.7,1.512,2.4a0.64,0.64,0,0,0,.528.4C808.947,11955.1,810.2,11954.5,810.2,11954Zm5.232,1.4a0.282,0.282,0,0,1-.288-0.3,0.341,0.341,0,0,1,.072-0.2c0.48-.6.888-1.3,1.3-1.9a0.875,0.875,0,0,1,.48-0.4,0.321,0.321,0,0,0,.408-0.3,0.352,0.352,0,0,0-.384-0.3,9.505,9.505,0,0,0-2.04-.8,0.466,0.466,0,0,0-.336.3,24.906,24.906,0,0,1-2.3,3.5,1.04,1.04,0,0,1-1.032.4H803.93c-0.072,0-.144,0-0.144-0.1s0.024-.1.072-0.1a1.51,1.51,0,0,0,.72-0.8,4.684,4.684,0,0,0-.864-1.6c-0.7-1-.984-1.4-1.368-1.4-0.456,0-1.656.6-1.656,1a0.781,0.781,0,0,0,.192.5,16.908,16.908,0,0,1,1.368,2,0.608,0.608,0,0,1,.048.2,0.316,0.316,0,0,1-.36.3h-1.392c-0.7,0-1.272.1-1.272,1,0,0.4.024,0.9,0.024,1.5v0.9c0,0.3-.048.7-0.048,1.1,0,0.6.312,0.6,1.224,0.6,0.864,0,1.248,0,1.248-.6,0-.4-0.048-0.8-0.048-1.1v-0.7a0.583,0.583,0,0,1,.672-0.7h13.3a0.591,0.591,0,0,1,.672.7v0.7c0,0.3-.072.7-0.072,1.1,0,0.6.384,0.6,1.273,0.6,0.912,0,1.248,0,1.248-.6,0-.4-0.072-0.8-0.072-1.1v-0.9c0-.6.048-1.1,0.048-1.6,0-.8-0.6-0.9-1.3-0.9h-2.017Zm0.288,11.1c0.96,0,1.945.1,2.9,0.1,0.552,0,.528-0.3.528-1.1s0.024-1.1-.528-1.1c-0.96,0-1.945.1-2.9,0.1h-5.232a0.169,0.169,0,0,0-.144-0.1,0.385,0.385,0,0,1,.1-0.2c0.744-.5,4.272-3,4.272-3.8a2.139,2.139,0,0,0-.5-0.9,1.212,1.212,0,0,0-.984-0.5c-0.672,0-1.32.1-1.992,0.1h-5.185c-0.816,0-1.632-.1-2.472-0.1-0.576,0-.576.3-0.576,1.1s0,1.1.552,1.1c0.84,0,1.68-.1,2.5-0.1h4.2c0.264,0,.6,0,0.6.2a7.082,7.082,0,0,1-1.3,1.2,1.031,1.031,0,0,1-.768.2H808.2c-0.216,0-.408,0-0.408.3,0,0.1.048,0.6,0.072,0.8a0.584,0.584,0,0,1-.648.7H802.3c-0.984,0-1.944-.1-2.9-0.1-0.552,0-.552.3-0.552,1.1s0,1.1.552,1.1c0.984,0,1.944-.1,2.9-0.1h4.921a0.583,0.583,0,0,1,.672.7v1c0,1.4.024,1.7-1.584,1.7h-1.249a0.526,0.526,0,0,0-.624.6,2.863,2.863,0,0,0,.288,1.3,1.4,1.4,0,0,0,1.344.4c1.009,0,2.737,0,3.577-.6a2.269,2.269,0,0,0,.72-1.8c0-.5-0.048-1.1-0.048-1.7v-0.9a0.591,0.591,0,0,1,.672-0.7h4.728Z" transform="translate(-670 -11950.6)"/>
</svg>
