<svg xmlns="http://www.w3.org/2000/svg" width="320.313" height="21.5" viewBox="0 0 320.313 21.5">
  <defs>
    <style>
      .cls-1 {
        fill: #4da5dc;
        fill-rule: evenodd;
      }
    </style>
  </defs>
  <path id="JALホスピタリティプログラム" class="cls-1" d="M592,11474.3c0-1.4.072-4.1,0.072-4.2,0-.5-0.144-0.6-0.7-0.6h-1.536c-0.552,0-.7.1-0.7,0.6,0,0.1.072,2.8,0.072,4.2v7.1c0,1.8-.888,2.5-2.617,2.5h-0.864a0.4,0.4,0,0,0-.288-0.1c-0.336,0-.408.2-0.408,0.7v1.4a0.561,0.561,0,0,0,.6.7h0.648c3.985,0,5.713-1.8,5.713-5.1v-7.2Zm15.624,8.2c0.648,0,.792,0,1.008.5,0.336,0.8.648,1.6,1.056,2.8a0.785,0.785,0,0,0,.96.7H612.5c0.384,0,.552-0.1.552-0.3a1.026,1.026,0,0,0-.144-0.4c-0.744-1.6-1.272-2.8-1.8-4.1l-3.456-8.1c-0.432-1-.912-2.2-1.416-3.5a0.786,0.786,0,0,0-.96-0.6h-1.032a0.786,0.786,0,0,0-.96.6c-0.5,1.3-1.009,2.5-1.441,3.5l-3.432,8.2c-0.5,1.1-1.032,2.3-1.776,4a1.026,1.026,0,0,0-.144.4c0,0.2.168,0.3,0.552,0.3h1.68a0.785,0.785,0,0,0,.96-0.7c0.408-1.2.72-2,1.056-2.8,0.216-.5.384-0.5,1.008-0.5h5.881Zm-3.192-8.5a0.475,0.475,0,0,1,.264-0.4c0.1,0,.168.1,0.264,0.4l2.232,5.5a0.818,0.818,0,0,1,.1.4c0,0.2-.168.3-0.552,0.3h-4.105c-0.384,0-.552-0.1-0.552-0.3a0.829,0.829,0,0,1,.1-0.4Zm18.911,12.5h3.481c0.5,0,.6-0.1.6-0.7v-1.2c0-.6-0.1-0.7-0.6-0.7h-5.665c-0.6,0-.72-0.1-0.72-0.7v-8.9c0-1.4.072-4.1,0.072-4.2,0-.5-0.144-0.6-0.7-0.6h-1.536c-0.552,0-.7.1-0.7,0.6,0,0.1.072,2.8,0.072,4.2v7.4c0,1.4-.048,4-0.048,4.1a0.575,0.575,0,0,0,.672.7h5.064Zm23.761-9.4a2.667,2.667,0,0,0-1.488,1.6,1,1,0,0,0,.384.5,20.586,20.586,0,0,1,3.552,3.6,0.965,0.965,0,0,0,.624.5,3.249,3.249,0,0,0,1.68-1.6c0-.5-1.656-2.1-2.04-2.5C649.363,11478.8,647.707,11477.1,647.107,11477.1Zm-11.065.1a0.518,0.518,0,0,0-.432.4,12.474,12.474,0,0,1-3.361,3.7,0.794,0.794,0,0,0-.5.6,3.342,3.342,0,0,0,1.681,1.6c0.7,0,3.576-3.4,4.152-4.1a0.948,0.948,0,0,1,.672-0.5c0.144-.1.336-0.1,0.336-0.3a2.474,2.474,0,0,0-1.056-.8A10.251,10.251,0,0,0,636.042,11477.2Zm0.12-4.5c-0.984,0-2.352-.1-3.048-0.1-0.624,0-.6.4-0.6,1.4,0,0.8,0,1.2.648,1.2,1.008,0,1.992-.1,3-0.1h3.7a0.723,0.723,0,0,1,.72.8v5.6c0,1.9.144,2.5-1.848,2.7-0.288,0-.84,0-0.84.3a3.881,3.881,0,0,0,.384,1.2c0.408,0.8.576,1,.936,1a7.849,7.849,0,0,0,2.592-.7c1.344-.7,1.344-1.8,1.344-3.1,0-.5-0.024-1-0.024-1.4v-5.6a0.736,0.736,0,0,1,.72-0.8h3.721c1.032,0,2.064.1,3.1,0.1,0.672,0,.648-0.4.648-1.3s0.024-1.3-.6-1.3c-0.408,0-.912.1-1.368,0.1h-5.545a0.731,0.731,0,0,1-.672-0.8v-0.3c0-.5.024-1,0.024-1.5a1.475,1.475,0,0,1,.288-1.1,0.706,0.706,0,0,0,.216-0.3c0-.3-0.36-0.3-0.528-0.3a18.244,18.244,0,0,0-2.232-.3,0.36,0.36,0,0,0-.432.3,1.266,1.266,0,0,0,.024.3c0.1,1,.1,1.9.1,2.8v0.4a0.686,0.686,0,0,1-.672.8h-3.744Zm27.984-2.4c-1.056,0-2.088-.1-3.12-0.1-0.6,0-.576.4-0.576,1.2,0,1.1-.048,1.5.6,1.5h8.064c0.36,0,.7,0,0.7.4a2.513,2.513,0,0,1-.409.8,24.177,24.177,0,0,1-10.7,9.1,0.527,0.527,0,0,0-.5.5c0,0.4,1.1,2,1.608,2a2.544,2.544,0,0,0,1.056-.5,25.254,25.254,0,0,0,6-4.2,1.575,1.575,0,0,1,.72-0.4,1.143,1.143,0,0,1,.552.2,26.565,26.565,0,0,1,5.3,4.8,0.83,0.83,0,0,0,.6.4,3.576,3.576,0,0,0,1.824-2,0.482,0.482,0,0,0-.168-0.3,20.625,20.625,0,0,0-1.728-1.6,27.966,27.966,0,0,0-4.056-3.1,0.734,0.734,0,0,1-.36-0.6,0.872,0.872,0,0,1,.192-0.5,32.176,32.176,0,0,0,3.12-4.5,4.188,4.188,0,0,1,.384-0.6,8.226,8.226,0,0,0,.528-1,2.972,2.972,0,0,0-1.536-1.6h-0.528a3.151,3.151,0,0,1-1.032.1h-6.529Zm34.009-1.3a1.225,1.225,0,0,1,1.3,1.2,1.246,1.246,0,0,1-1.3,1.3,1.227,1.227,0,0,1-1.272-1.3A1.2,1.2,0,0,1,698.155,11469Zm0-1.1a2.35,2.35,0,1,0,0,4.7A2.351,2.351,0,1,0,698.155,11467.9Zm-13.2,10.4a0.738,0.738,0,0,1,.768-0.7,27.07,27.07,0,0,0,9.313-2.2,1.452,1.452,0,0,1,.864-0.3h0.48c0.144,0,.36,0,0.36-0.2a10.218,10.218,0,0,0-.96-1.6,2.378,2.378,0,0,0-.792-0.9c-0.12,0-.264.2-0.384,0.2a21.237,21.237,0,0,1-8.809,2.7c-0.432,0-.84-0.1-0.84-0.6v-2.4c0-.4-0.024-0.8-0.024-1.2a2.713,2.713,0,0,1,.264-1.5,0.477,0.477,0,0,0,.216-0.3c0-.3-0.36-0.3-0.528-0.3-0.384-.1-2.16-0.5-2.376-0.5a0.3,0.3,0,0,0-.288.3v0.2a30.332,30.332,0,0,1,.12,3.3v8.1c0,1.1.024,3,.624,3.9,1.032,1.4,3.72,1.3,5.328,1.3,1.872,0,6.769,0,8.425-.2,0.744-.1.744-0.7,0.744-1.5,0-.7-0.048-1.3-0.48-1.3-0.072,0-.168.1-0.24,0.1a53.031,53.031,0,0,1-7.993.5c-3.312,0-3.792,0-3.792-2.9v-2Zm28.8-7.3a0.373,0.373,0,0,1-.432-0.3,0.939,0.939,0,0,1,.192-0.5c0.168-.3.288-0.5,0.384-0.7a1.358,1.358,0,0,1,.72-0.8,0.24,0.24,0,0,0,.24-0.2,4.708,4.708,0,0,0-1.416-.9,5.542,5.542,0,0,0-1.344-.5,0.718,0.718,0,0,0-.432.6,22.847,22.847,0,0,1-6.264,8.6,0.906,0.906,0,0,0-.36.4c0,0.5,1.56,1.5,1.992,1.5a1.313,1.313,0,0,0,.768-0.5,40.513,40.513,0,0,0,3.12-3.7,1.118,1.118,0,0,1,1.056-.6h4.585c0.36,0,.984,0,0.984.5a8.052,8.052,0,0,1-.624,1.5c-0.072.2-.12,0.3-0.144,0.4-0.648,1.3-.864,1.7-1.321,1.7-0.167,0-.312-0.1-0.456-0.1a17.352,17.352,0,0,0-3.1-1.6c-0.528,0-1.464,1.5-1.464,1.8a0.9,0.9,0,0,0,.72.5c0.6,0.3,1.848,1,2.4,1.3a0.781,0.781,0,0,1,.288.5,0.7,0.7,0,0,1-.36.6,16.248,16.248,0,0,1-6.864,4.4c-0.624.1-1.032,0.2-1.032,0.5s1.1,1.9,1.728,1.9a18.756,18.756,0,0,0,2.9-1.2,19.686,19.686,0,0,0,5.232-4.1,1.522,1.522,0,0,1,.817-0.6,0.625,0.625,0,0,1,.528.3c0.336,0.3.648,0.5,0.984,0.8a0.531,0.531,0,0,0,.36.2,3.1,3.1,0,0,0,1.536-1.9,4.1,4.1,0,0,0-1.344-1.2,0.822,0.822,0,0,1-.432-0.6,0.772,0.772,0,0,1,.168-0.5,35.344,35.344,0,0,0,2.28-4.5,6.221,6.221,0,0,1,.6-1.1,1.708,1.708,0,0,0,.144-0.4,2.523,2.523,0,0,0-1.248-1.6h-0.24a6.869,6.869,0,0,1-1.464.1h-4.393Zm27.169-.8a2.392,2.392,0,0,1,.168-1.1,0.477,0.477,0,0,0,.216-0.3,0.6,0.6,0,0,0-.48-0.3,19.831,19.831,0,0,0-2.376-.2c-0.192,0-.288,0-0.288.2a2.275,2.275,0,0,0,.048.4,13.429,13.429,0,0,1,.072,1.7v5.2a29.607,29.607,0,0,1-.288,4.6c-0.408,2.7-1.921,4.1-4.273,5.3a1.166,1.166,0,0,0-.648.5c0,0.5,1.656,1.7,2.016,1.7a12.458,12.458,0,0,0,2.641-1.7,8.2,8.2,0,0,0,2.928-5.6,36.315,36.315,0,0,0,.264-5.1v-5.3Zm-9.409,2.2c0-.6-0.024-1-0.024-1.3a2.157,2.157,0,0,1,.264-1.4,0.788,0.788,0,0,0,.12-0.3c0-.2-0.336-0.2-0.84-0.3a17.018,17.018,0,0,0-2.064-.3c-0.168,0-.216.1-0.216,0.3,0,0.1.024,0.3,0.024,0.4,0.024,0.6.072,1.2,0.072,1.9v5.1c0,1.1-.072,2.2-0.072,3.3,0,0.7.312,0.7,1.44,0.7s1.344-.1,1.344-0.8c0-1.1-.048-2.2-0.048-3.3v-4Zm20.712,2.8h-3.049c-0.528,0-.6.2-0.6,1.3,0,0.9.024,1.3,0.649,1.3,1.008,0,2.016-.1,3-0.1H757.1a0.552,0.552,0,0,1,.576.6c0,0.1-.168.9-0.216,1.1a6.87,6.87,0,0,1-3.024,4.4,8.444,8.444,0,0,1-3,1.2,0.861,0.861,0,0,0-.672.5,3.684,3.684,0,0,0,1.848,1.9,13.01,13.01,0,0,0,2.5-1,9.908,9.908,0,0,0,5.184-7.6c0.073-.5.1-1.1,0.769-1.1H764.2c1.032,0,2.064.1,3.12,0.1,0.648,0,.648-0.5.648-1.3,0-1.1.024-1.3-.72-1.3H752.226Zm3.264-6.3h-3.12c-0.624,0-.648.3-0.648,1.3,0,0.9-.072,1.3.648,1.3,1.008,0,2.04-.1,3.072-0.1h5.233c1.032,0,2.064.1,3.072,0.1,0.672,0,.648-0.4.648-1.1,0-1.2.024-1.5-.624-1.5H755.49Zm26.832,8.9a1.381,1.381,0,0,1,.625-1.3,25.162,25.162,0,0,0,2.16-2.4,1.1,1.1,0,0,1,.7-0.5,0.308,0.308,0,0,0,.336-0.3,1.065,1.065,0,0,0-.672-0.7,4.771,4.771,0,0,0-1.416-.8,0.593,0.593,0,0,0-.408.4c-1.993,3.3-5.953,6.1-9.433,7.7a1.039,1.039,0,0,0-.552.5,2.678,2.678,0,0,0,1.536,1.6,21.6,21.6,0,0,0,3.936-2.3,1.461,1.461,0,0,1,.624-0.3,0.279,0.279,0,0,1,.288.3v5c0,0.7-.048,1.5-0.048,2.2s0.072,0.8,1.416.8c0.456,0,.96,0,0.96-0.6,0-.9-0.048-1.6-0.048-2.5v-6.8Zm13.128-7.4c-1.032,0-2.064-.1-3.1-0.1-0.7,0-.672.3-0.672,1.4s0,1.3.72,1.3h11.545c0.432,0,.84,0,0.84.5,0,0.1-.048.4-0.072,0.6a11.245,11.245,0,0,1-3.913,6.9,15.9,15.9,0,0,1-5.976,3.2c-0.216.1-.432,0.1-0.432,0.4,0,0.4.84,2,1.416,2a2.182,2.182,0,0,0,.792-0.2,20.756,20.756,0,0,0,4.608-2.5c3.793-2.6,5.569-5.8,6.361-10.3,0.168-.9.36-1.2,0.36-1.4a2.725,2.725,0,0,0-.816-1.1,1.98,1.98,0,0,0-1.152-.8c-0.216,0-.792.1-1.2,0.1H795.45Zm13.825-3.1a1.307,1.307,0,0,1,1.3,1.3,1.284,1.284,0,1,1-2.568,0A1.3,1.3,0,0,1,809.275,11467.3Zm0-1a2.35,2.35,0,1,0,0,4.7A2.351,2.351,0,1,0,809.275,11466.3Zm19.656,6.8a0.7,0.7,0,0,1,.72.7v7.1a0.71,0.71,0,0,1-.72.7h-9.313a0.7,0.7,0,0,1-.72-0.7v-7.1a0.765,0.765,0,0,1,.72-0.7h9.313Zm-9.265-2.4c-0.648,0-1.32-.1-1.968-0.1-0.96,0-1.44.3-1.44,1.3,0,0.7.024,1.4,0.024,2.2v8.1c0,0.8-.048,1.7-0.048,2.5,0,0.9.192,0.9,1.32,0.9,1.44,0,1.368-.1,1.392-0.8,0.048-.7.36-0.7,1.176-0.7h8.305c0.84,0,1.1,0,1.152.7s0,0.8,1.392.8c1.128,0,1.344,0,1.344-.9,0-.8-0.048-1.7-0.048-2.5v-8.1c0-.7.024-1.5,0.024-2.2,0-1.1-.552-1.3-1.536-1.3-0.624,0-1.248.1-1.872,0.1h-9.217Zm35.281-2.3a2.058,2.058,0,0,0-1.248.9,0.636,0.636,0,0,0,.168.3c0.552,0.7,1.08,1.4,1.56,2.1a0.611,0.611,0,0,0,.312.3,2.086,2.086,0,0,0,1.224-1A9.264,9.264,0,0,0,854.947,11468.4Zm2.448-1.5a2.058,2.058,0,0,0-1.248.9,0.37,0.37,0,0,0,.168.3c0.552,0.7,1.1,1.4,1.584,2.1a0.333,0.333,0,0,0,.312.3,1.785,1.785,0,0,0,1.224-1A9.8,9.8,0,0,0,857.4,11466.9Zm-9.577,4.6a0.526,0.526,0,0,1-.408-0.4,1.37,1.37,0,0,1,.168-0.5c0.144-.2.24-0.4,0.336-0.5a1.213,1.213,0,0,1,.624-0.8,0.947,0.947,0,0,0,.36-0.3,1.063,1.063,0,0,0-.72-0.5,0.965,0.965,0,0,1-.312-0.2c-0.552-.2-1.536-0.7-1.7-0.7a0.716,0.716,0,0,0-.384.6,22.124,22.124,0,0,1-6.408,8.5,0.478,0.478,0,0,0-.216.4c0,0.5,1.752,1.4,2.064,1.4,0.624,0,3.408-3.3,3.84-3.9a1.206,1.206,0,0,1,1.008-.7h4.561c0.336,0,.744,0,0.744.3,0,0.6-1.465,3-1.849,3.6a21,21,0,0,1-9.288,7.6,0.665,0.665,0,0,0-.48.5,3.532,3.532,0,0,0,2.04,1.6,17.734,17.734,0,0,0,3.264-1.7c4.44-2.9,6.745-6.3,9.121-10.9a8,8,0,0,1,.624-1.1,2.1,2.1,0,0,0,.288-0.6,3.5,3.5,0,0,0-1.752-1.9c-0.1,0-.168.1-0.264,0.1a3.065,3.065,0,0,1-.96.1h-4.3Zm20.208,2.4c-1.032,0-2.064-.1-3.072-0.1-0.672,0-.7.2-0.7,1.4,0,0.9,0,1.2.672,1.2,1.032,0,2.04-.1,3.048-0.1h8.929c0.384,0,1.032,0,1.032.6a5.794,5.794,0,0,1-.648,1.5,17.02,17.02,0,0,1-7.369,6.8,1.761,1.761,0,0,0-.84.7,2.907,2.907,0,0,0,1.656,1.7c0.744,0,3.336-1.8,4.008-2.4a20.1,20.1,0,0,0,4.969-5.6,16.5,16.5,0,0,0,1.392-3.3,6.123,6.123,0,0,0,.312-0.9,2.7,2.7,0,0,0-1.7-1.6h-0.432a15.279,15.279,0,0,1-2.16.1h-9.1Zm1.608-5.2c-0.936,0-2.16-.1-2.832-0.1-0.6,0-.648.3-0.648,1.4,0,0.9,0,1.2.672,1.2h11.521c0.648,0,.648-0.3.648-1.1,0-1.2-.048-1.5-0.648-1.5-0.624,0-1.848.1-2.833,0.1h-5.88Zm25.368-.2a0.555,0.555,0,0,0-.408.5c-0.456,1.5-4.68,10.2-5.568,11.9-0.36.7-.432,0.8-2.064,0.8h-0.408c-0.312,0-.528,0-0.528.3a1.361,1.361,0,0,0,.071.3,5.9,5.9,0,0,1,.192.9c0.192,0.9.361,1.6,0.649,1.6a0.356,0.356,0,0,0,.288-0.2,1.15,1.15,0,0,1,1.08-.4c1.344-.1,13.177-1.6,13.249-1.6,0.5,0,.7.4,1.32,1.4a0.783,0.783,0,0,0,.6.6,2.8,2.8,0,0,0,1.872-1.5c0-.6-2.112-3.2-2.544-3.7-0.528-.6-3.384-3.8-3.984-3.8a3.028,3.028,0,0,0-1.609,1.6,1.345,1.345,0,0,0,.433.6c0.408,0.3,2.232,1.9,2.232,2.4,0,0.3-.408.3-0.672,0.4-2.065.2-4.129,0.4-6.217,0.7h-0.72a0.43,0.43,0,0,1-.432-0.4,1.344,1.344,0,0,1,.216-0.6c1.416-2.8,2.712-5.6,4.152-8.4,0.624-1.2.744-1.5,1.272-1.8a0.3,0.3,0,0,0,.289-0.3,0.756,0.756,0,0,0-.625-0.4A11.459,11.459,0,0,0,895,11468.5Z" transform="translate(-585.031 -11466.3)"/>
</svg>
