<svg xmlns="http://www.w3.org/2000/svg" width="204.75" height="21.7" viewBox="0 0 204.75 21.7">
  <defs>
    <style>
      .cls-1 {
        fill: #4da5dc;
        fill-rule: evenodd;
      }
    </style>
  </defs>
  <path id="JAL_羽田空港見学_" data-name="JAL 羽田空港見学 " class="cls-1" d="M649.975,12925.3c0-1.4.072-4.1,0.072-4.2,0-.5-0.144-0.6-0.7-0.6h-1.536c-0.552,0-.7.1-0.7,0.6,0,0.1.072,2.8,0.072,4.2v7.1c0,1.8-.888,2.5-2.616,2.5h-0.864a0.4,0.4,0,0,0-.289-0.1c-0.336,0-.408.2-0.408,0.7v1.4a0.561,0.561,0,0,0,.6.7h0.649c3.984,0,5.712-1.8,5.712-5.1v-7.2Zm14.664,8.2c0.648,0,.792,0,1.008.5,0.336,0.8.648,1.6,1.056,2.8a0.785,0.785,0,0,0,.96.7h1.849c0.384,0,.552-0.1.552-0.3a1.026,1.026,0,0,0-.144-0.4c-0.744-1.6-1.273-2.8-1.8-4.1l-3.456-8.1c-0.432-1-.912-2.2-1.416-3.5a0.786,0.786,0,0,0-.96-0.6h-1.032a0.786,0.786,0,0,0-.96.6c-0.5,1.3-1.008,2.5-1.44,3.5l-3.433,8.2c-0.5,1.1-1.032,2.3-1.776,4a1.026,1.026,0,0,0-.144.4c0,0.2.168,0.3,0.552,0.3h1.68a0.785,0.785,0,0,0,.96-0.7c0.408-1.2.72-2,1.057-2.8,0.216-.5.384-0.5,1.008-0.5h5.88Zm-3.192-8.5a0.475,0.475,0,0,1,.264-0.4c0.1,0,.168.1,0.264,0.4l2.232,5.5a0.818,0.818,0,0,1,.1.4c0,0.2-.168.3-0.552,0.3h-4.1c-0.384,0-.552-0.1-0.552-0.3a0.818,0.818,0,0,1,.1-0.4Zm17.951,12.5h3.481c0.5,0,.6-0.1.6-0.7v-1.2c0-.6-0.1-0.7-0.6-0.7h-5.665c-0.6,0-.72-0.1-0.72-0.7v-8.9c0-1.4.072-4.1,0.072-4.2,0-.5-0.144-0.6-0.7-0.6h-1.536c-0.552,0-.7.1-0.7,0.6,0,0.1.072,2.8,0.072,4.2v7.4c0,1.4-.048,4-0.048,4.1a0.575,0.575,0,0,0,.672.7H679.4Zm30.409-10.9a11.562,11.562,0,0,0-1.44-2.4c-0.312-.4-0.912-1.3-1.248-1.7a0.811,0.811,0,0,0-.481-0.3,2.169,2.169,0,0,0-1.536,1.1,0.891,0.891,0,0,0,.24.4,30.61,30.61,0,0,1,2.377,3.5,0.694,0.694,0,0,0,.5.5C708.535,12927.7,709.807,12927.1,709.807,12926.6Zm-10.729,0a9.113,9.113,0,0,0-1.488-2.3c-0.432-.6-0.84-1.1-1.32-1.7a0.613,0.613,0,0,0-.48-0.3,2.08,2.08,0,0,0-1.489,1.1,0.746,0.746,0,0,0,.289.5,37.342,37.342,0,0,1,2.424,3.4,0.575,0.575,0,0,0,.48.4A2.421,2.421,0,0,0,699.078,12926.6Zm11.521,1.8a0.789,0.789,0,0,0-.48.4,38.2,38.2,0,0,1-5.209,3.9,0.665,0.665,0,0,0-.48.5,0.725,0.725,0,0,0,.264.5c0.192,0.3.36,0.5,0.5,0.7a1.528,1.528,0,0,0,.744.9c0.265,0,.288-0.3.312-0.5a0.746,0.746,0,0,1,.433-0.5,33.138,33.138,0,0,0,4.632-3.7,0.686,0.686,0,0,0,.36-0.5A2.536,2.536,0,0,0,710.6,12928.4Zm-10.633.1a0.482,0.482,0,0,0-.336.2,41.066,41.066,0,0,1-5.521,4.1,0.658,0.658,0,0,0-.5.5,2.937,2.937,0,0,0,.528.9,3.506,3.506,0,0,0,.312.5,1.076,1.076,0,0,0,.672.7c0.241,0,.265-0.3.289-0.5a0.719,0.719,0,0,1,.48-0.5,46.666,46.666,0,0,0,4.776-3.7,0.742,0.742,0,0,0,.408-0.6A2.417,2.417,0,0,0,699.966,12928.5Zm11.233-7.5c0.456,0,.672.1,0.672,0.6v12.4c0,2.1.12,2.8-1.752,2.8-0.576,0-1.176-.1-1.464-0.1a0.48,0.48,0,0,0-.456.6c0,1.9.624,2,1.3,2,2.52,0,4.752-.3,4.752-3.4,0-.7-0.048-1.4-0.048-2.1v-12.1c0-.6.048-1.3,0.048-1.9a0.963,0.963,0,0,0-1.176-1.1h-7.609c-0.576,0-.552.3-0.552,1.1,0,0.9-.024,1.2.552,1.2H711.2Zm-10.657-.1a0.591,0.591,0,0,1,.672.7v12.4c0,2.1.12,2.8-1.632,2.8a3.957,3.957,0,0,1-1.08-.1h-0.36a0.447,0.447,0,0,0-.5.5,5.525,5.525,0,0,0,.288,1.5c0.168,0.4.36,0.5,1.1,0.5,2.5,0,4.56-.3,4.56-3.3,0-.7-0.048-1.4-0.048-2.1v-12.2c0-.6.048-1.2,0.048-1.8,0-.9-0.36-1.1-1.2-1.1h-7.921c-0.552,0-.528.2-0.528,1.1s-0.024,1.2.528,1.2c0.721,0,1.441-.1,2.161-0.1h3.912Zm29.208,5.5a0.562,0.562,0,0,1-.648.6H725.07a0.6,0.6,0,0,1-.672-0.6v-4.2a0.759,0.759,0,0,1,.672-0.7H729.1a0.7,0.7,0,0,1,.648.7v4.2Zm0,7.8a0.593,0.593,0,0,1-.648.7H725.07a0.629,0.629,0,0,1-.672-0.7v-4.3a0.6,0.6,0,0,1,.672-0.6H729.1a0.562,0.562,0,0,1,.648.6v4.3Zm2.5-4.3a0.6,0.6,0,0,1,.673-0.6h4.1a0.562,0.562,0,0,1,.648.6v4.3a0.593,0.593,0,0,1-.648.7h-4.1a0.629,0.629,0,0,1-.673-0.7v-4.3Zm0.673-2.9a0.6,0.6,0,0,1-.673-0.6v-4.2a0.759,0.759,0,0,1,.673-0.7h4.1a0.7,0.7,0,0,1,.648.7v4.2a0.562,0.562,0,0,1-.648.6h-4.1Zm4.7,11c0,0.6.264,0.7,1.32,0.7,1.032,0,1.3,0,1.3-.7,0-1-.048-2-0.048-3v-12.3c0-.8.048-1.6,0.048-2.3a1.124,1.124,0,0,0-1.368-1.3c-0.744,0-1.512.1-2.28,0.1H725.478c-0.768,0-1.536-.1-2.28-0.1a1.108,1.108,0,0,0-1.344,1.3c0,0.7.048,1.5,0.048,2.3v12.2c0,1.1-.073,2-0.073,3,0,0.7.265,0.7,1.3,0.7,1.2,0,1.344,0,1.344-.8a0.5,0.5,0,0,1,.552-0.6h12.049a0.513,0.513,0,0,1,.552.6v0.2Zm21.287-5.1c0-.5.192-0.6,0.672-0.6h5.737c0.576,0,.552-0.3.552-1.1s0.024-1.1-.552-1.1c-0.888,0-1.8.1-2.688,0.1h-9.985c-0.912,0-1.8-.1-2.712-0.1-0.552,0-.552.3-0.552,1.1s0,1.1.552,1.1h5.76c0.48,0,.672.1,0.672,0.6v2.7a0.552,0.552,0,0,1-.672.6h-8.089c-0.552,0-.528.3-0.528,1.1,0,0.9-.024,1.1.528,1.1h20.042c0.552,0,.528-0.2.528-1.1,0-.8.024-1.1-0.528-1.1h-8.065a0.552,0.552,0,0,1-.672-0.6v-2.7Zm0.048-13.6a0.907,0.907,0,0,1,.288-0.8,0.5,0.5,0,0,0,.289-0.4c0-.3-0.433-0.3-0.889-0.4-0.408,0-1.536-.1-1.9-0.1-0.264,0-.5,0-0.5.4a0.983,0.983,0,0,1,.024.2,11.841,11.841,0,0,1,.1,1.3,0.6,0.6,0,0,1-.672.7h-3.96c-0.864,0-1.632-.1-2.256-0.1-1.128,0-1.777.2-1.777,1,0,0.3.024,0.8,0.024,1.3v0.7c0,0.3-.048.7-0.048,1,0,0.6.384,0.5,1.249,0.5,0.816,0,1.224.1,1.224-.5,0-.3-0.048-0.7-0.048-1v-0.1a0.583,0.583,0,0,1,.672-0.7h2.448a0.444,0.444,0,0,1,.5.5,0.193,0.193,0,0,1-.048.1c-0.672,2.2-3.264,3.8-5.3,4.4-0.527.2-.768,0.3-0.768,0.6,0,0.6.648,1.7,1.177,1.7a9.6,9.6,0,0,0,1.416-.5,13.427,13.427,0,0,0,2.544-1.4,9.147,9.147,0,0,0,3.168-3.6,0.637,0.637,0,0,1,.456-0.5,0.883,0.883,0,0,0,.384-0.3,1.059,1.059,0,0,0-.888-0.6l-0.384-.2c-0.024,0-.072,0-0.072-0.1a0.179,0.179,0,0,1,.144-0.1h2.424a0.591,0.591,0,0,1,.672.7v2.7c0,0.3-.024.6-0.024,1,0,1.6,1.033,1.8,2.593,1.8h2.928a2.117,2.117,0,0,0,2.184-.9,5.234,5.234,0,0,0,.768-2.2c0-.6-1.392-0.8-1.8-0.8-0.384,0-.432.2-0.5,0.6-0.168.8-.36,1.1-1.128,1.1H762.1c-0.72,0-1.056-.1-1.056-0.9v-2.4a0.591,0.591,0,0,1,.672-0.7h2.856a0.576,0.576,0,0,1,.648.7c0,0.1-.024.5-0.024,0.7,0,0.5.432,0.5,1.272,0.5,0.792,0,1.2,0,1.2-.5a0.9,0.9,0,0,0-.024-0.3c0-.2-0.024-0.6-0.024-0.7v-0.3c0-.5.024-1,0.024-1.3a1.113,1.113,0,0,0-1.368-1c-0.888,0-1.776.1-2.664,0.1h-3.984a0.609,0.609,0,0,1-.673-0.7v-0.2Zm19.368,6.8c0-.4-1.2-1.2-1.512-1.5a12.19,12.19,0,0,0-1.993-1.3,2.475,2.475,0,0,0-1.3,1.5,0.526,0.526,0,0,0,.408.4,25.9,25.9,0,0,1,2.449,1.9,0.921,0.921,0,0,0,.624.4A2.468,2.468,0,0,0,778.326,12926.1Zm0.744-5.5a1.99,1.99,0,0,0-.864-0.8,9.668,9.668,0,0,0-2.472-1.8,2.528,2.528,0,0,0-1.345,1.5,1.26,1.26,0,0,0,.408.5,25.873,25.873,0,0,1,2.281,1.8,1.461,1.461,0,0,0,.624.3A2.513,2.513,0,0,0,779.07,12920.6Zm8.5,1.8a0.6,0.6,0,0,1,.672.6v1a0.759,0.759,0,0,1-.672.7H786.1a0.738,0.738,0,0,1-.672-0.7v-1a0.592,0.592,0,0,1,.672-0.6h1.465Zm-0.1,4.4a0.839,0.839,0,0,1,.912.6c0.144,0.2.288,0.5,0.432,0.7a0.688,0.688,0,0,1,.072.3,0.316,0.316,0,0,1-.36.3H784.9a0.338,0.338,0,0,1-.384-0.3,0.193,0.193,0,0,1,.072-0.2c0.144-.3.288-0.6,0.408-0.8a0.971,0.971,0,0,1,.936-0.6h1.537Zm3.7,4.5c0.408,0.4,2.016,2,2.52,2a2.744,2.744,0,0,0,1.416-1.5,1.4,1.4,0,0,0-.552-0.6,18.794,18.794,0,0,1-3.576-3.8,0.341,0.341,0,0,1-.072-0.2c0-.3.192-0.3,0.384-0.4H791.6c0.888,0,1.776.1,2.688,0.1,0.624,0,.624-0.3.624-1.1,0-.9,0-1.2-0.624-1.2-0.912,0-1.8.1-2.688,0.1h-0.336a0.583,0.583,0,0,1-.672-0.7v-1a0.543,0.543,0,0,1,.648-0.6h2.424c0.624,0,.6-0.3.6-1.1,0-.9.024-1.2-0.6-1.2a19.218,19.218,0,0,1-2.4,0,0.533,0.533,0,0,1-.672-0.6,1,1,0,0,1,.288-0.9,0.452,0.452,0,0,0,.288-0.4c0-.3-0.408-0.3-0.6-0.3-0.36,0-1.7-.2-2.016-0.2a0.336,0.336,0,0,0-.408.3v0.3c0.048,0.4.1,0.9,0.1,1.2a0.54,0.54,0,0,1-.672.6H786.1a0.533,0.533,0,0,1-.672-0.6,1,1,0,0,1,.288-0.9,0.6,0.6,0,0,0,.288-0.4c0-.3-0.408-0.3-0.624-0.3a14.118,14.118,0,0,0-1.992-.2,0.336,0.336,0,0,0-.408.3v0.3a10.105,10.105,0,0,1,.1,1.2,0.544,0.544,0,0,1-.624.6h-2.16c-0.6,0-.6.3-0.6,1.2,0,0.8,0,1.1.6,1.1a15.571,15.571,0,0,1,2.16,0,0.526,0.526,0,0,1,.624.6v1a0.583,0.583,0,0,1-.672.7c-0.912,0-1.848-.1-2.76-0.1-0.6,0-.6.3-0.6,1.2,0,0.8,0,1.1.6,1.1,0.816,0,1.632-.1,2.448-0.1,0.192,0.1.384,0.1,0.384,0.4a0.341,0.341,0,0,1-.072.2,20.307,20.307,0,0,1-3.216,3.6h-0.144c-0.1,0-.168,0-0.168-0.1a0.572,0.572,0,0,1,.024-0.2,0.656,0.656,0,0,0,.072-0.3c0-.4-1.464-1.1-1.752-1.1-0.24,0-.264.1-0.384,0.5a41.155,41.155,0,0,1-2.9,6.7,2.124,2.124,0,0,0-.408.7,1.586,1.586,0,0,0,.864.9,4.889,4.889,0,0,0,1.369.8,0.312,0.312,0,0,0,.264-0.3c0-.2-0.072-0.4-0.072-0.5a2.612,2.612,0,0,1,.216-0.7c0.744-1.6,1.464-3.2,2.088-4.8,0.048-.2.12-0.2,0.288-0.2a0.322,0.322,0,0,1,.288.1,2.4,2.4,0,0,0,1.032.7c0.48,0,2.28-1.8,2.664-2.2a1.582,1.582,0,0,1,.936-0.5h4.321a0.576,0.576,0,0,1,.648.7v0.5a0.576,0.576,0,0,1-.648.7h-3.121c-0.528,0-1.08-.1-1.608-0.1-0.6,0-1.08.1-1.08,0.8,0,0.5.048,0.9,0.048,1.4v1.5c0,0.4-.048.9-0.048,1.2,0,1.6,1.32,1.6,2.88,1.6h5.521a2.73,2.73,0,0,0,2.184-.6,4.675,4.675,0,0,0,.984-2.9,0.417,0.417,0,0,0-.288-0.5,2.374,2.374,0,0,0-1.392-.4,0.458,0.458,0,0,0-.5.5c-0.24,1.5-.384,1.7-1.944,1.7h-3.673c-1.2,0-1.3-.2-1.3-1.3v-0.5c0-.5.192-0.6,0.672-0.6h2.761a0.412,0.412,0,0,1,.528.3c0.1,0.3.552,0.2,1.3,0.2,0.96,0,1.1-.1,1.1-0.5,0-.3-0.072-0.9-0.072-1.5v-1.2q0-.3.216-0.3A0.191,0.191,0,0,1,791.167,12931.3Zm18.719,1.3a0.461,0.461,0,0,0,.48-0.3c0-.3-1.008-0.6-1.32-0.7a3.038,3.038,0,0,0-1.248-.4c-0.264,0-.288.2-0.336,0.6-0.552,3-3.192,4.3-6,4.7-0.673.1-.985,0.1-0.985,0.5s0.336,1.9,1.129,1.9a13.857,13.857,0,0,0,3.384-.9,7.723,7.723,0,0,0,4.632-5A0.522,0.522,0,0,1,809.886,12932.6Zm-3.984-4.6a0.685,0.685,0,0,1,.672-0.7h8.785a0.685,0.685,0,0,1,.672.7v0.2a0.629,0.629,0,0,1-.672.7h-8.785a0.629,0.629,0,0,1-.672-0.7v-0.2Zm0-3.5a0.541,0.541,0,0,1,.576-0.6h8.977a0.541,0.541,0,0,1,.576.6v0.3a0.541,0.541,0,0,1-.576.6h-8.977a0.541,0.541,0,0,1-.576-0.6v-0.3Zm0.576-2.5a0.517,0.517,0,0,1-.576-0.5v-0.4a0.6,0.6,0,0,1,.576-0.6h8.977a0.6,0.6,0,0,1,.576.6v0.4a0.517,0.517,0,0,1-.576.5h-8.977Zm9.529,9.3c0.072,0.4.336,0.4,1.248,0.4,0.96,0,1.248,0,1.248-.6s-0.048-1.3-.048-2v-7.8c0-.7.048-1.3,0.048-1.7,0-.9-0.168-1.3-1.176-1.3-0.672,0-1.344.1-2.04,0.1h-8.641c-0.672,0-1.368-.1-2.04-0.1a0.962,0.962,0,0,0-1.152,1.1c0,0.6.048,1.2,0.048,1.9v7.8c0,0.7-.048,1.4-0.048,2.1,0,0.5.264,0.5,1.248,0.5,0.936,0,1.152,0,1.248-.3,0.072-.3.12-0.4,0.384-0.4h4.7a0.583,0.583,0,0,1,.672.7v3.7c0,0.5-.024.9-0.024,1.4,0,1.5.888,1.9,2.233,1.9h3.624c0.912,0,2.088,0,2.712-.8a7.65,7.65,0,0,0,1.248-3.8c0-.8-1.344-1-1.7-1a0.441,0.441,0,0,0-.528.4c-0.312,2.6-.552,2.9-2.16,2.9h-1.752c-0.984,0-1.2-.2-1.2-1.2v-3.5a0.576,0.576,0,0,1,.648-0.7H815.6A0.362,0.362,0,0,1,816.007,12931.3Zm22.775-10.3a4.123,4.123,0,0,0-.648-1.3,0.929,0.929,0,0,0-.144-0.2c-0.648-1-1.008-1.7-1.464-1.7-0.432,0-1.632.6-1.632,1.1a0.527,0.527,0,0,0,.192.4c0.5,0.7,1.1,1.7,1.512,2.4a0.64,0.64,0,0,0,.528.4C837.534,12922.1,838.782,12921.5,838.782,12921Zm5.233,1.4a0.282,0.282,0,0,1-.288-0.3,0.341,0.341,0,0,1,.072-0.2c0.48-.6.888-1.3,1.3-1.9a0.875,0.875,0,0,1,.48-0.4,0.321,0.321,0,0,0,.408-0.3,0.352,0.352,0,0,0-.384-0.3,9.505,9.505,0,0,0-2.04-.8,0.466,0.466,0,0,0-.336.3,24.906,24.906,0,0,1-2.3,3.5,1.04,1.04,0,0,1-1.032.4h-7.369c-0.072,0-.144,0-0.144-0.1s0.024-.1.072-0.1a1.51,1.51,0,0,0,.72-0.8,4.684,4.684,0,0,0-.864-1.6c-0.7-1-.984-1.4-1.368-1.4-0.456,0-1.656.6-1.656,1a0.781,0.781,0,0,0,.192.5,16.908,16.908,0,0,1,1.368,2,0.608,0.608,0,0,1,.048.2,0.316,0.316,0,0,1-.36.3h-1.392c-0.7,0-1.273.1-1.273,1,0,0.4.024,0.9,0.024,1.5v0.9c0,0.3-.048.7-0.048,1.1,0,0.6.312,0.6,1.225,0.6,0.864,0,1.248,0,1.248-.6,0-.4-0.048-0.8-0.048-1.1v-0.7a0.583,0.583,0,0,1,.672-0.7h13.3a0.591,0.591,0,0,1,.672.7v0.7c0,0.3-.072.7-0.072,1.1,0,0.6.384,0.6,1.272,0.6,0.912,0,1.248,0,1.248-.6,0-.4-0.072-0.8-0.072-1.1v-0.9c0-.6.048-1.1,0.048-1.6,0-.8-0.6-0.9-1.3-0.9h-2.016Zm0.288,11.1c0.96,0,1.944.1,2.9,0.1,0.552,0,.528-0.3.528-1.1s0.024-1.1-.528-1.1c-0.96,0-1.944.1-2.9,0.1H839.07a0.169,0.169,0,0,0-.144-0.1,0.385,0.385,0,0,1,.1-0.2c0.744-.5,4.273-3,4.273-3.8a2.139,2.139,0,0,0-.5-0.9,1.212,1.212,0,0,0-.984-0.5c-0.672,0-1.32.1-1.992,0.1H834.63c-0.816,0-1.632-.1-2.472-0.1-0.576,0-.576.3-0.576,1.1s0,1.1.552,1.1c0.84,0,1.68-.1,2.5-0.1h4.2c0.264,0,.6,0,0.6.2a7.09,7.09,0,0,1-1.3,1.2,1.031,1.031,0,0,1-.768.2H836.79c-0.216,0-.408,0-0.408.3,0,0.1.048,0.6,0.072,0.8a0.584,0.584,0,0,1-.648.7h-4.92c-0.984,0-1.944-.1-2.9-0.1-0.552,0-.552.3-0.552,1.1s0,1.1.552,1.1c0.985,0,1.945-.1,2.9-0.1h4.92a0.583,0.583,0,0,1,.672.7v1c0,1.4.024,1.7-1.584,1.7h-1.248a0.526,0.526,0,0,0-.624.6,2.863,2.863,0,0,0,.288,1.3,1.4,1.4,0,0,0,1.344.4c1.008,0,2.736,0,3.576-.6a2.269,2.269,0,0,0,.72-1.8c0-.5-0.048-1.1-0.048-1.7v-0.9a0.591,0.591,0,0,1,.672-0.7H844.3Z" transform="translate(-643 -12917.6)"/>
</svg>
