<svg xmlns="http://www.w3.org/2000/svg" width="360.125" height="22" viewBox="0 0 360.125 22">
  <defs>
    <style>
      .cls-1 {
        fill: #4da5dc;
        fill-rule: evenodd;
      }
    </style>
  </defs>
  <path id="プログラム参加者インタビュー" class="cls-1" d="M568.418,11332.4c-1.032,0-2.064-.1-3.1-0.1-0.7,0-.672.3-0.672,1.4s0,1.3.72,1.3h11.545c0.432,0,.84,0,0.84.5,0,0.1-.048.4-0.072,0.6a11.248,11.248,0,0,1-3.912,6.9,15.9,15.9,0,0,1-5.977,3.2c-0.216.1-.432,0.1-0.432,0.4,0,0.4.84,2,1.416,2a2.182,2.182,0,0,0,.792-0.2,20.741,20.741,0,0,0,4.609-2.5c3.792-2.6,5.568-5.8,6.36-10.3,0.168-.9.36-1.2,0.36-1.4a2.725,2.725,0,0,0-.816-1.1,1.98,1.98,0,0,0-1.152-.8c-0.216,0-.792.1-1.2,0.1h-9.313Zm13.826-3.1a1.307,1.307,0,0,1,1.3,1.3,1.285,1.285,0,1,1-2.569,0A1.3,1.3,0,0,1,582.244,11329.3Zm0-1a2.35,2.35,0,1,0,0,4.7A2.351,2.351,0,1,0,582.244,11328.3Zm21.263,6.8a0.7,0.7,0,0,1,.72.7v7.1a0.71,0.71,0,0,1-.72.7h-9.313a0.7,0.7,0,0,1-.72-0.7v-7.1a0.765,0.765,0,0,1,.72-0.7h9.313Zm-9.265-2.4c-0.648,0-1.32-.1-1.968-0.1-0.96,0-1.44.3-1.44,1.3,0,0.7.024,1.4,0.024,2.2v8.1c0,0.8-.048,1.7-0.048,2.5,0,0.9.192,0.9,1.32,0.9,1.44,0,1.368-.1,1.392-0.8,0.048-.7.36-0.7,1.176-0.7H603c0.84,0,1.1,0,1.152.7s0,0.8,1.392.8c1.128,0,1.344,0,1.344-.9,0-.8-0.048-1.7-0.048-2.5v-8.1c0-.7.024-1.5,0.024-2.2,0-1.1-.552-1.3-1.536-1.3-0.624,0-1.248.1-1.872,0.1h-9.217Zm37.849-2.3a2.058,2.058,0,0,0-1.248.9,0.636,0.636,0,0,0,.168.3c0.552,0.7,1.08,1.4,1.56,2.1a0.611,0.611,0,0,0,.312.3,2.085,2.085,0,0,0,1.225-1A9.267,9.267,0,0,0,632.091,11330.4Zm2.449-1.5a2.06,2.06,0,0,0-1.249.9,0.368,0.368,0,0,0,.169.3c0.552,0.7,1.1,1.4,1.584,2.1a0.333,0.333,0,0,0,.312.3,1.785,1.785,0,0,0,1.224-1A9.8,9.8,0,0,0,634.54,11328.9Zm-9.577,4.6a0.526,0.526,0,0,1-.408-0.4,1.37,1.37,0,0,1,.168-0.5c0.144-.2.24-0.4,0.336-0.5a1.213,1.213,0,0,1,.624-0.8,0.947,0.947,0,0,0,.36-0.3,1.063,1.063,0,0,0-.72-0.5,0.965,0.965,0,0,1-.312-0.2c-0.552-.2-1.536-0.7-1.7-0.7a0.716,0.716,0,0,0-.384.6,22.126,22.126,0,0,1-6.409,8.5,0.478,0.478,0,0,0-.216.4c0,0.5,1.752,1.4,2.064,1.4,0.624,0,3.408-3.3,3.841-3.9a1.206,1.206,0,0,1,1.008-.7h4.56c0.336,0,.744,0,0.744.3,0,0.6-1.464,3-1.848,3.6a21,21,0,0,1-9.289,7.6,0.665,0.665,0,0,0-.48.5,3.532,3.532,0,0,0,2.04,1.6,17.773,17.773,0,0,0,3.265-1.7c4.44-2.9,6.744-6.3,9.12-10.9a8,8,0,0,1,.624-1.1,2.1,2.1,0,0,0,.288-0.6,3.5,3.5,0,0,0-1.752-1.9c-0.1,0-.168.1-0.264,0.1a3.065,3.065,0,0,1-.96.1h-4.3Zm21.815,2.4c-1.032,0-2.064-.1-3.072-0.1-0.672,0-.7.2-0.7,1.4,0,0.9,0,1.2.672,1.2,1.032,0,2.04-.1,3.048-0.1h8.929c0.384,0,1.032,0,1.032.6a5.794,5.794,0,0,1-.648,1.5,17.017,17.017,0,0,1-7.368,6.8,1.759,1.759,0,0,0-.841.7,2.906,2.906,0,0,0,1.657,1.7c0.744,0,3.336-1.8,4.008-2.4a20.116,20.116,0,0,0,4.968-5.6,16.5,16.5,0,0,0,1.392-3.3,6.123,6.123,0,0,0,.312-0.9,2.7,2.7,0,0,0-1.7-1.6h-0.432a15.279,15.279,0,0,1-2.16.1h-9.1Zm1.608-5.2c-0.936,0-2.16-.1-2.832-0.1-0.6,0-.648.3-0.648,1.4,0,0.9,0,1.2.672,1.2H657.1c0.648,0,.648-0.3.648-1.1,0-1.2-.048-1.5-0.648-1.5-0.624,0-1.848.1-2.832,0.1h-5.881Zm27.937-.2a0.555,0.555,0,0,0-.408.5c-0.456,1.5-4.681,10.2-5.569,11.9-0.36.7-.432,0.8-2.064,0.8h-0.408c-0.312,0-.528,0-0.528.3a1.364,1.364,0,0,0,.072.3,6.022,6.022,0,0,1,.192.9c0.192,0.9.36,1.6,0.648,1.6a0.356,0.356,0,0,0,.288-0.2,1.15,1.15,0,0,1,1.08-.4c1.344-.1,13.177-1.6,13.249-1.6,0.5,0,.7.4,1.32,1.4a0.783,0.783,0,0,0,.6.6,2.8,2.8,0,0,0,1.873-1.5c0-.6-2.113-3.2-2.545-3.7-0.528-.6-3.384-3.8-3.984-3.8a3.026,3.026,0,0,0-1.608,1.6,1.349,1.349,0,0,0,.432.6c0.408,0.3,2.232,1.9,2.232,2.4,0,0.3-.408.3-0.672,0.4-2.064.2-4.128,0.4-6.216,0.7h-0.721a0.43,0.43,0,0,1-.432-0.4,1.344,1.344,0,0,1,.216-0.6c1.417-2.8,2.713-5.6,4.153-8.4,0.624-1.2.744-1.5,1.272-1.8a0.3,0.3,0,0,0,.288-0.3,0.755,0.755,0,0,0-.624-0.4A11.459,11.459,0,0,0,676.323,11330.5Zm33.912,12.9a1.719,1.719,0,0,0-.672-0.6c-0.168-.2-0.336-0.3-0.5-0.5a2.195,2.195,0,0,0-.768-0.4,0.346,0.346,0,0,0-.312.1,28.824,28.824,0,0,1-9.817,3.8c-0.5.1-.912,0.1-0.912,0.5a1.4,1.4,0,0,0,.936,1.1,8.742,8.742,0,0,0,1.536-.3,37.48,37.48,0,0,0,9.169-3.2,1.415,1.415,0,0,1,.624-0.2h0.336A0.368,0.368,0,0,0,710.235,11343.4Zm-2.76-3a2.019,2.019,0,0,0-.648-0.6l-0.288-.2a2.3,2.3,0,0,0-.936-0.6,0.989,0.989,0,0,0-.48.3,22.544,22.544,0,0,1-6.937,3.8,1.248,1.248,0,0,0-.816.6,1.426,1.426,0,0,0,.936,1.1,4.669,4.669,0,0,0,1.08-.3,34.784,34.784,0,0,0,6.985-3.5,0.74,0.74,0,0,1,.576-0.3C707.115,11340.7,707.475,11340.7,707.475,11340.4Zm6.1,5.9a1.633,1.633,0,0,0-.7-0.8c-0.168-.2-0.312-0.3-0.48-0.5a2.057,2.057,0,0,0-.72-0.5,0.767,0.767,0,0,0-.432.2c-3.96,2.4-9.145,3.5-13.753,3.7-0.408,0-1.1-.1-1.1.4a2.079,2.079,0,0,0,.288.9,0.708,0.708,0,0,0,.768.5,12.207,12.207,0,0,0,1.872-.1,35.171,35.171,0,0,0,12.721-3.3,1.852,1.852,0,0,1,.72-0.3c0.144,0,.264.1,0.408,0.1A0.394,0.394,0,0,0,713.572,11346.3Zm-7.705-8.3a1.062,1.062,0,0,1,1.056.4,22.58,22.58,0,0,0,4.56,3.8,14.635,14.635,0,0,0,3.1,1.5,2.675,2.675,0,0,0,1.272-1.7,0.691,0.691,0,0,0-.456-0.4,20.113,20.113,0,0,1-5.569-3.2,0.262,0.262,0,0,1-.1-0.2c0-.2.144-0.2,0.264-0.2h5.065c0.7,0,.7-0.2.7-1.1s0.024-1.1-.7-1.1c-1.129,0-2.281.1-3.409,0.1H706.3c-0.216-.1-0.408-0.1-0.408-0.4a0.608,0.608,0,0,1,.048-0.2,0.872,0.872,0,0,1,.528-0.6,0.99,0.99,0,0,0,.408-0.3,0.8,0.8,0,0,0-.48-0.4h-0.048c0-.1.024-0.1,0.048-0.1,1.344,0,2.688-.1,4.056-0.2a0.949,0.949,0,0,1,.936.5c0.12,0.2.192,0.3,0.264,0.4,0.288,0.5.36,0.6,0.576,0.6,0.36,0,1.656-.6,1.656-1,0-.6-2.568-3.8-3.1-4.5a0.961,0.961,0,0,0-.648-0.5,2.871,2.871,0,0,0-1.632.9,1.981,1.981,0,0,0,.624.9c0.072,0.1.168,0.2,0.24,0.3a0.731,0.731,0,0,1,.1.3,0.316,0.316,0,0,1-.36.3c-1.824.1-3.624,0.1-5.448,0.1-0.168,0-.36,0-0.36-0.2a1.364,1.364,0,0,1,.072-0.3,11.5,11.5,0,0,0,1.032-1.5,0.939,0.939,0,0,1,.528-0.3,0.344,0.344,0,0,0,.36-0.3c0-.4-2.64-1-2.713-1a0.421,0.421,0,0,0-.335.4c-0.145.3-1.177,2.4-1.417,2.8a0.878,0.878,0,0,1-.912.5,20.438,20.438,0,0,1-2.472.1h-0.72c-0.36,0-.528,0-0.528.3a5.048,5.048,0,0,0,.24,1c0.264,0.9.336,1.2,0.6,1.2a0.436,0.436,0,0,0,.312-0.2,0.361,0.361,0,0,1,.312-0.2c1.848-.1,3.72-0.1,5.569-0.2a0.373,0.373,0,0,1,.432.3,0.255,0.255,0,0,1-.072.2c-0.144.3-.288,0.5-0.432,0.8a1.034,1.034,0,0,1-1.008.5h-3.481c-1.152,0-2.28-.1-3.408-0.1-0.72,0-.7.2-0.7,1.1s-0.024,1.1.672,1.1h5.016c0.12,0,.264,0,0.264.2a0.385,0.385,0,0,1-.1.2,17.821,17.821,0,0,1-5.352,2.8c-0.456.1-.744,0.2-0.744,0.5s0.648,1.7,1.128,1.7a5.184,5.184,0,0,0,1.08-.4,20.178,20.178,0,0,0,7.081-4.6,1.1,1.1,0,0,1,1.08-.4h1.176Zm33.072,7.2a0.562,0.562,0,0,1-.648-0.6v-10.3a0.638,0.638,0,0,1,.648-0.7h2.208a0.685,0.685,0,0,1,.672.7v10.3a0.6,0.6,0,0,1-.672.6h-2.208Zm2.832,3.5c0,0.7.24,0.7,1.2,0.7,0.937,0,1.225,0,1.225-.7,0-.9-0.048-1.9-0.048-2.8v-11.2c0-.8.048-1.4,0.048-1.9,0-1.1-.192-1.5-1.368-1.5h-5.569a1.069,1.069,0,0,0-1.32,1.2c0,0.8.024,1.5,0.024,2.2v11.1c0,1-.048,2-0.048,2.9,0,0.7.288,0.7,1.2,0.7,0.96,0,1.224,0,1.224-.7,0-.2-0.024-0.4-0.024-0.6a0.524,0.524,0,0,1,.648-0.6h2.16a0.517,0.517,0,0,1,.648.6v0.6Zm-10.873-12.9a0.907,0.907,0,0,1,.961.3,4.379,4.379,0,0,1,.1,1.3c0,1.4-.1,3.5-0.121,4-0.047,1.1-.264,4.7-0.744,5.6a1.418,1.418,0,0,1-1.248.5,2.224,2.224,0,0,1-.816-0.1h-0.36c-0.48,0-.552.3-0.552,0.7a5.4,5.4,0,0,0,.216,1.5c0.168,0.4.744,0.4,1.512,0.4,2.113,0,3.289-.4,3.769-2.6a78.511,78.511,0,0,0,.768-12.2c0-1.1-.312-1.8-1.728-1.8H729.89a0.543,0.543,0,0,1-.648-0.6v-2.1c0-.8.024-1.1,0.312-1.2a0.523,0.523,0,0,0,.312-0.4c0-.3-0.288-0.3-0.48-0.3a16.127,16.127,0,0,0-2.16-.2,0.373,0.373,0,0,0-.456.4v0.2a16.807,16.807,0,0,1,.072,1.8v1.8a0.526,0.526,0,0,1-.624.6h-1.776c-0.576,0-.552.3-0.552,1.2s-0.024,1.2.576,1.2h1.7a0.518,0.518,0,0,1,.6.6c-0.24,3.9-1.008,8.3-3.168,11.6a1.985,1.985,0,0,0-.216.5,2.239,2.239,0,0,0,1.632,1.5c0.528,0,1.3-1.8,1.488-2.2a32.355,32.355,0,0,0,2.664-11.4,0.55,0.55,0,0,1,.7-0.6H730.9Zm30.216,10.4a0.761,0.761,0,0,1,.673-0.7h6.432a0.7,0.7,0,0,1,.648.7v0.3a0.7,0.7,0,0,1-.648.7h-6.432a0.761,0.761,0,0,1-.673-0.7v-0.3Zm0.673-2.5a0.761,0.761,0,0,1-.673-0.7v-0.2a0.63,0.63,0,0,1,.673-0.7h6.432a0.593,0.593,0,0,1,.648.7v0.2a0.7,0.7,0,0,1-.648.7h-6.432Zm7.944-8.4a22.234,22.234,0,0,0,2.616-3.2,0.827,0.827,0,0,1,.768-0.5c0.145,0,.337,0,0.337-0.2a1.753,1.753,0,0,0-1.033-.8,0.867,0.867,0,0,0-.216-0.2,4.734,4.734,0,0,0-1.128-.5,0.466,0.466,0,0,0-.336.3,20.081,20.081,0,0,1-4.176,5.2,1.18,1.18,0,0,1-1.1.4h-0.624a0.583,0.583,0,0,1-.672-0.7v-1a0.552,0.552,0,0,1,.672-0.6,24.1,24.1,0,0,1,2.688,0c0.576,0,.552-0.3.552-1.1,0-1,.024-1.2-0.576-1.2-0.888,0-1.776.1-2.664,0.1a0.571,0.571,0,0,1-.672-0.6,1.221,1.221,0,0,1,.288-1.2,0.47,0.47,0,0,0,.312-0.3c0-.3-0.36-0.3-0.576-0.4-0.432,0-1.9-.2-2.28-0.2a0.364,0.364,0,0,0-.432.4,0.351,0.351,0,0,0,.023.2c0.049,0.5.073,1,.073,1.4a0.591,0.591,0,0,1-.673.7h-1.392c-0.96,0-1.9-.1-2.832-0.1-0.6,0-.576.3-0.576,1.2,0,0.8-.024,1.1.576,1.1H760.9a0.552,0.552,0,0,1,.673.6v1a0.583,0.583,0,0,1-.673.7h-4.032c-0.936,0-1.872-.1-2.808-0.1-0.576,0-.576.3-0.576,1.2s0,1.1.576,1.1h8.281a0.254,0.254,0,0,1,.264.3,0.482,0.482,0,0,1-.168.3c-1.08.6-1.321,0.8-2.545,1.4a32.4,32.4,0,0,1-5.952,2.4,0.879,0.879,0,0,0-.6.4c0,0.3.528,1.9,1.08,1.9a35.393,35.393,0,0,0,3.648-1.4,0.222,0.222,0,0,1,.216-0.1,0.459,0.459,0,0,1,.384.5v4.1c0,0.6-.048,1.2-0.048,1.8s0.24,0.6.84,0.6h0.432c1.056,0,1.248.1,1.273-.6a0.44,0.44,0,0,1,.431-0.5h6.793a0.445,0.445,0,0,1,.456.5c0.024,0.7.24,0.6,1.248,0.6,0.984,0,1.3.1,1.3-.6,0-.6-0.048-1.2-0.048-1.8v-4.7c0-.7.024-1.2,0.024-1.6,0-.9-0.12-1.4-0.96-1.4-0.624,0-1.248.1-1.872,0.1h-3.72a0.329,0.329,0,0,1-.36-0.3,0.662,0.662,0,0,1,.24-0.3c0.6-.4,1.176-0.8,1.752-1.2a1.2,1.2,0,0,1,1.1-.4H774.1c0.576,0,.552-0.2.552-1.1s0.024-1.2-.552-1.2c-0.936,0-1.873.1-2.809,0.1h-1.344a0.309,0.309,0,0,1-.312-0.2A0.731,0.731,0,0,1,769.731,11335.3Zm23.064,1.3a1.444,1.444,0,0,1,.552-1.1,35.493,35.493,0,0,0,3.288-3.6,1.123,1.123,0,0,1,.936-0.5,0.344,0.344,0,0,0,.24-0.3,2.241,2.241,0,0,0-.936-0.9,12.825,12.825,0,0,0-1.632-.9,0.6,0.6,0,0,0-.384.3,19.628,19.628,0,0,1-3.264,4.1,35.059,35.059,0,0,1-9.433,6.3,0.572,0.572,0,0,0-.384.4,4.029,4.029,0,0,0,1.872,2c0.624,0,4.441-2.6,5.161-3.1a3.763,3.763,0,0,1,.936-0.6c0.456,0,.384.6,0.384,0.7v6.5c0,1.1-.048,2.1-0.048,3.1,0,0.7.24,0.7,1.56,0.7,0.888,0,1.2,0,1.2-.7,0-1-.048-2.1-0.048-3.1v-9.3Zm29.192-1.8a0.589,0.589,0,0,0-.408.2c-3.408,4.4-9.408,8.9-14.713,10.5-0.312.1-.744,0.1-0.744,0.4a6.469,6.469,0,0,0,.72,1.4,3.4,3.4,0,0,0,.936,1.3,0.288,0.288,0,0,0,.24-0.2,1.45,1.45,0,0,1,1.008-.8,40.829,40.829,0,0,0,13.033-9,4.894,4.894,0,0,0,1.273-1.7C823.332,11336.6,822.468,11334.8,821.987,11334.8Zm-14.185-3.9c-0.552,0-1.512,1.6-1.512,1.9a0.534,0.534,0,0,0,.384.5,26.214,26.214,0,0,1,3.192,2.2,2.693,2.693,0,0,0,.96.7,2.907,2.907,0,0,0,1.585-1.9,4.567,4.567,0,0,0-1.464-1.3A16.292,16.292,0,0,0,807.8,11330.9Zm31.585,2.1a0.373,0.373,0,0,1-.432-0.3,0.939,0.939,0,0,1,.192-0.5c0.168-.3.288-0.5,0.384-0.7a1.358,1.358,0,0,1,.72-0.8,0.24,0.24,0,0,0,.24-0.2,4.708,4.708,0,0,0-1.416-.9,5.542,5.542,0,0,0-1.344-.5,0.718,0.718,0,0,0-.432.6,22.85,22.85,0,0,1-6.265,8.6,0.906,0.906,0,0,0-.36.4c0,0.5,1.56,1.5,1.992,1.5a1.313,1.313,0,0,0,.768-0.5,40.686,40.686,0,0,0,3.121-3.7,1.118,1.118,0,0,1,1.056-.6H842.2c0.36,0,.984,0,0.984.5a8.052,8.052,0,0,1-.624,1.5c-0.072.2-.12,0.3-0.144,0.4-0.648,1.3-.864,1.7-1.32,1.7-0.168,0-.312-0.1-0.456-0.1a17.352,17.352,0,0,0-3.1-1.6c-0.528,0-1.464,1.5-1.464,1.8a0.9,0.9,0,0,0,.72.5c0.6,0.3,1.848,1,2.4,1.3a0.781,0.781,0,0,1,.288.5,0.7,0.7,0,0,1-.36.6,16.251,16.251,0,0,1-6.865,4.4c-0.624.1-1.032,0.2-1.032,0.5s1.1,1.9,1.728,1.9a18.756,18.756,0,0,0,2.9-1.2,19.675,19.675,0,0,0,5.233-4.1,1.516,1.516,0,0,1,.816-0.6,0.625,0.625,0,0,1,.528.3c0.336,0.3.648,0.5,0.984,0.8a0.531,0.531,0,0,0,.36.2,3.1,3.1,0,0,0,1.536-1.9,4.1,4.1,0,0,0-1.344-1.2,0.822,0.822,0,0,1-.432-0.6,0.772,0.772,0,0,1,.168-0.5,35.344,35.344,0,0,0,2.28-4.5,6.221,6.221,0,0,1,.6-1.1,1.708,1.708,0,0,0,.144-0.4,2.523,2.523,0,0,0-1.248-1.6h-0.24a6.869,6.869,0,0,1-1.464.1h-4.392Zm30.456-1.6a2.076,2.076,0,0,0-1.224.9,0.41,0.41,0,0,0,.216.3c0.552,0.7,1.032,1.3,1.512,2a0.4,0.4,0,0,0,.36.3,1.785,1.785,0,0,0,1.224-1A10.191,10.191,0,0,0,869.843,11331.4Zm2.5-1.5a2.078,2.078,0,0,0-1.225.9,0.7,0.7,0,0,0,.192.3c0.552,0.7,1.057,1.4,1.561,2.1a0.482,0.482,0,0,0,.336.2,1.785,1.785,0,0,0,1.224-1A9.027,9.027,0,0,0,872.34,11329.9Zm-13.994,10.4a0.723,0.723,0,0,1,.768-0.7,27.06,27.06,0,0,0,9.313-2.2,1.452,1.452,0,0,1,.864-0.3h0.48c0.144,0,.36,0,0.36-0.2a4.394,4.394,0,0,0-.648-1.1,0.283,0.283,0,0,0-.168-0.2,2.987,2.987,0,0,0-.936-1.2c-0.12,0-.288.2-0.384,0.2a20.353,20.353,0,0,1-8.953,2.7,0.612,0.612,0,0,1-.7-0.6v-3.5c0-.5,0-0.9.024-1.1a2.726,2.726,0,0,1,.408-0.8c0-.3-0.408-0.3-0.72-0.4a20.256,20.256,0,0,0-2.184-.4,0.294,0.294,0,0,0-.264.3v0.2a29.428,29.428,0,0,1,.12,3.3v8.1c0,1.1.024,3,.624,3.9,1.032,1.4,3.721,1.3,5.329,1.3,1.872,0,6.768,0,8.4-.2,0.768-.1.768-0.7,0.768-1.4,0-.8-0.024-1.4-0.48-1.4-0.072,0-.168.1-0.24,0.1a53.336,53.336,0,0,1-8.016.5c-3.289,0-3.769,0-3.769-2.9v-2Zm28.825-3.9h-2.377c-0.576,0-.528.5-0.528,1.1,0,0.8,0,1.2.552,1.2,0.6,0,1.536-.1,2.353-0.1h3.336a0.535,0.535,0,0,1,.648.5c0,0.1-.072.4-0.072,0.5l-0.456,4.2a0.729,0.729,0,0,1-.672.6h-5.737c-0.648,0-1.92-.1-2.328-0.1-0.552,0-.6.5-0.6,1.3,0,0.5-.024,1,0.624,1h14.449c0.672,0,.672-0.4.672-1.1,0-.8.024-1.2-0.6-1.2-0.816,0-1.608.1-2.4,0.1h-0.648a0.539,0.539,0,0,1-.5-0.6l0.5-4.4c0.024-.1.1-0.7,0.168-1.1,0.048-.4.12-0.5,0.12-0.7a1.66,1.66,0,0,0-1.392-1.2h-5.112Zm22.895,1.4H907.09c-0.624,0-.672.2-0.672,1.5,0,0.7.024,1.2,0.648,1.2,1.008,0,2.016-.1,3-0.1h11.041c0.984,0,1.992.1,3,.1,0.625,0,.649-0.5.649-1.2,0-1.3-.024-1.5-0.673-1.5H910.066Z" transform="translate(-564.625 -11328.3)"/>
</svg>
