<svg xmlns="http://www.w3.org/2000/svg" width="277.156" height="21.8" viewBox="0 0 277.156 21.8">
  <defs>
    <style>
      .cls-1 {
        fill: #4da5dc;
        fill-rule: evenodd;
      }
    </style>
  </defs>
  <path id="グランドスタッフ業務体験" class="cls-1" d="M622.428,13885.4a2.06,2.06,0,0,0-1.249.9,0.636,0.636,0,0,0,.168.3c0.553,0.7,1.081,1.4,1.561,2.1a0.611,0.611,0,0,0,.312.3,2.086,2.086,0,0,0,1.224-1A9.264,9.264,0,0,0,622.428,13885.4Zm2.448-1.5a2.058,2.058,0,0,0-1.248.9,0.37,0.37,0,0,0,.168.3c0.552,0.7,1.1,1.4,1.584,2.1a0.333,0.333,0,0,0,.312.3,1.785,1.785,0,0,0,1.224-1A9.8,9.8,0,0,0,624.876,13883.9Zm-9.577,4.6a0.526,0.526,0,0,1-.408-0.4,1.37,1.37,0,0,1,.168-0.5c0.144-.2.24-0.4,0.336-0.5a1.213,1.213,0,0,1,.624-0.8,0.947,0.947,0,0,0,.36-0.3,1.063,1.063,0,0,0-.72-0.5,0.965,0.965,0,0,1-.312-0.2c-0.552-.2-1.536-0.7-1.7-0.7a0.716,0.716,0,0,0-.384.6,22.126,22.126,0,0,1-6.409,8.5,0.478,0.478,0,0,0-.216.4c0,0.5,1.752,1.4,2.064,1.4,0.624,0,3.409-3.3,3.841-3.9a1.206,1.206,0,0,1,1.008-.7h4.56c0.336,0,.744,0,0.744.3,0,0.6-1.464,3-1.848,3.6a20.992,20.992,0,0,1-9.289,7.6,0.665,0.665,0,0,0-.48.5,3.532,3.532,0,0,0,2.04,1.6,17.71,17.71,0,0,0,3.265-1.7c4.44-2.9,6.744-6.3,9.121-10.9a8,8,0,0,1,.624-1.1,2.1,2.1,0,0,0,.288-0.6,3.5,3.5,0,0,0-1.753-1.9c-0.1,0-.168.1-0.264,0.1a3.065,3.065,0,0,1-.96.1h-4.3Zm19.248,2.4c-1.033,0-2.065-.1-3.073-0.1-0.672,0-.7.2-0.7,1.4,0,0.9,0,1.2.672,1.2,1.032,0,2.04-.1,3.049-0.1h8.928c0.384,0,1.032,0,1.032.6a5.794,5.794,0,0,1-.648,1.5,17.017,17.017,0,0,1-7.368,6.8,1.761,1.761,0,0,0-.84.7,2.907,2.907,0,0,0,1.656,1.7c0.744,0,3.336-1.8,4.008-2.4a20.136,20.136,0,0,0,4.969-5.6,16.5,16.5,0,0,0,1.392-3.3,6.123,6.123,0,0,0,.312-0.9,2.7,2.7,0,0,0-1.7-1.6H645.8a15.3,15.3,0,0,1-2.161.1h-9.1Zm1.608-5.2c-0.936,0-2.16-.1-2.833-0.1-0.6,0-.648.3-0.648,1.4,0,0.9,0,1.2.672,1.2h11.521c0.649,0,.649-0.3.649-1.1,0-1.2-.049-1.5-0.649-1.5-0.624,0-1.848.1-2.832,0.1h-5.88Zm35.041,4.1a0.589,0.589,0,0,0-.408.2c-3.409,4.4-9.409,8.9-14.714,10.5-0.312.1-.744,0.1-0.744,0.4a6.469,6.469,0,0,0,.72,1.4,3.391,3.391,0,0,0,.937,1.3,0.286,0.286,0,0,0,.239-0.2,1.452,1.452,0,0,1,1.009-.8,40.851,40.851,0,0,0,13.033-9,4.9,4.9,0,0,0,1.272-1.7C672.54,13891.6,671.676,13889.8,671.2,13889.8Zm-14.186-3.9c-0.552,0-1.512,1.6-1.512,1.9a0.534,0.534,0,0,0,.384.5,26.227,26.227,0,0,1,3.193,2.2,2.693,2.693,0,0,0,.96.7,2.908,2.908,0,0,0,1.584-1.9,4.567,4.567,0,0,0-1.464-1.3A16.262,16.262,0,0,0,657.01,13885.9Zm32.426-1.1a2.063,2.063,0,0,0-1.176,1,1.765,1.765,0,0,0,.215.4,12.6,12.6,0,0,1,1.657,1.9,0.438,0.438,0,0,0,.336.2,1.924,1.924,0,0,0,1.176-1A9.867,9.867,0,0,0,689.436,13884.8Zm-2.5,1.7a2.063,2.063,0,0,0-1.176,1,0.477,0.477,0,0,0,.216.3c0.576,0.6,1.128,1.3,1.632,1.9a0.7,0.7,0,0,0,.36.3,1.858,1.858,0,0,0,1.177-1.1A9.409,9.409,0,0,0,686.939,13886.5Zm-4.2,5.3a0.206,0.206,0,0,1-.216.1,0.165,0.165,0,0,1-.192-0.2v-3.6c0-.6-0.024-1.1-0.024-1.4a1.994,1.994,0,0,1,.264-1.3,0.788,0.788,0,0,0,.12-0.3c0-.3-0.984-0.4-2.064-0.6-0.168,0-.672-0.1-0.816-0.1a0.333,0.333,0,0,0-.312.4c0,0.1.024,0.3,0.024,0.4,0.024,0.6.072,1.3,0.072,1.9v13.7c0,1.1-.072,2.1-0.072,3.2,0,0.8.408,0.8,1.368,0.8,1.464,0,1.488-.1,1.488-1.2,0-1-.048-1.9-0.048-2.9v-6.5a0.331,0.331,0,0,1,.288-0.4,0.241,0.241,0,0,1,.24.1,28.825,28.825,0,0,1,3.48,2.8,1.132,1.132,0,0,0,.528.3,2.873,2.873,0,0,0,1.608-1.6c0-.5-1.344-1.5-1.68-1.8-0.48-.4-2.88-2.3-3.36-2.3A1.809,1.809,0,0,0,682.739,13891.8Zm20.088-4.5c-1.056,0-2.088-.1-3.121-0.1-0.6,0-.576.4-0.576,1.2,0,1.1-.048,1.5.6,1.5H707.8c0.36,0,.7,0,0.7.4a2.53,2.53,0,0,1-.408.8,24.174,24.174,0,0,1-10.7,9.1,0.527,0.527,0,0,0-.5.5c0,0.4,1.1,2,1.608,2a2.544,2.544,0,0,0,1.056-.5,25.24,25.24,0,0,0,6-4.2,1.575,1.575,0,0,1,.72-0.4,1.143,1.143,0,0,1,.552.2,26.62,26.62,0,0,1,5.3,4.8,0.83,0.83,0,0,0,.6.4,3.576,3.576,0,0,0,1.824-2,0.482,0.482,0,0,0-.168-0.3,20.625,20.625,0,0,0-1.728-1.6,28.029,28.029,0,0,0-4.057-3.1,0.734,0.734,0,0,1-.36-0.6,0.872,0.872,0,0,1,.192-0.5,32.176,32.176,0,0,0,3.12-4.5,4.2,4.2,0,0,1,.385-0.6,8.387,8.387,0,0,0,.528-1,2.974,2.974,0,0,0-1.537-1.6h-0.528a3.151,3.151,0,0,1-1.032.1h-6.528Zm25.848,0.7a0.373,0.373,0,0,1-.432-0.3,0.939,0.939,0,0,1,.192-0.5c0.168-.3.288-0.5,0.384-0.7a1.358,1.358,0,0,1,.72-0.8,0.24,0.24,0,0,0,.24-0.2,4.708,4.708,0,0,0-1.416-.9,5.542,5.542,0,0,0-1.344-.5,0.718,0.718,0,0,0-.432.6,22.85,22.85,0,0,1-6.265,8.6,0.906,0.906,0,0,0-.36.4c0,0.5,1.56,1.5,1.992,1.5a1.313,1.313,0,0,0,.768-0.5,40.365,40.365,0,0,0,3.121-3.7,1.118,1.118,0,0,1,1.056-.6h4.584c0.36,0,.984,0,0.984.5a8.052,8.052,0,0,1-.624,1.5c-0.072.2-.12,0.3-0.144,0.4-0.648,1.3-.864,1.7-1.32,1.7-0.168,0-.312-0.1-0.456-0.1a17.352,17.352,0,0,0-3.1-1.6c-0.528,0-1.464,1.5-1.464,1.8a0.9,0.9,0,0,0,.72.5c0.6,0.3,1.848,1,2.4,1.3a0.781,0.781,0,0,1,.288.5,0.7,0.7,0,0,1-.36.6,16.245,16.245,0,0,1-6.865,4.4c-0.624.1-1.032,0.2-1.032,0.5s1.1,1.9,1.728,1.9a18.766,18.766,0,0,0,2.905-1.2,19.686,19.686,0,0,0,5.232-4.1,1.516,1.516,0,0,1,.816-0.6,0.625,0.625,0,0,1,.528.3c0.336,0.3.648,0.5,0.984,0.8a0.531,0.531,0,0,0,.36.2,3.1,3.1,0,0,0,1.537-1.9,4.1,4.1,0,0,0-1.345-1.2,0.822,0.822,0,0,1-.432-0.6,0.772,0.772,0,0,1,.168-0.5,35.348,35.348,0,0,0,2.281-4.5,6.221,6.221,0,0,1,.6-1.1,1.708,1.708,0,0,0,.144-0.4,2.523,2.523,0,0,0-1.248-1.6h-0.24a6.879,6.879,0,0,1-1.465.1h-4.392Zm25.176,2.6c-0.264,0-.288.3-0.312,0.5a14.536,14.536,0,0,1-1.968,5.5c-1.728,2.8-4.344,4.2-7.44,5a0.482,0.482,0,0,0-.384.5,2.785,2.785,0,0,0,1.344,1.6,2.066,2.066,0,0,0,.744-0.2,13.931,13.931,0,0,0,6.528-4.1,18.151,18.151,0,0,0,3.289-6.8,1.431,1.431,0,0,1,.312-0.5,0.668,0.668,0,0,0,.288-0.3,0.579,0.579,0,0,0-.432-0.5A20.75,20.75,0,0,0,753.851,13890.6Zm-4.248.9a2.42,2.42,0,0,0-1.2-1.3c-0.312,0-1.608.6-1.608,1a1.136,1.136,0,0,0,.216.5,23.055,23.055,0,0,1,1.68,2.8,0.575,0.575,0,0,0,.48.4c0.336,0,1.728-.6,1.728-1.1a8.5,8.5,0,0,0-1.08-1.9Zm-6.073,0c-0.312,0-1.608.6-1.608,1a0.939,0.939,0,0,0,.192.5,21.866,21.866,0,0,1,1.729,2.9,0.546,0.546,0,0,0,.456.4c0.288,0,1.728-.6,1.728-1.1a8.235,8.235,0,0,0-1.032-1.9,16.311,16.311,0,0,0-1.056-1.6A0.589,0.589,0,0,0,743.53,13891.5Zm22.105-4.3c-1.032,0-2.065-.1-3.1-0.1-0.672,0-.648.3-0.648,1.4s-0.024,1.3.72,1.3h11.521c0.432,0,.84,0,0.84.5a3.525,3.525,0,0,1-.048.5,10.791,10.791,0,0,1-3.936,7,15.375,15.375,0,0,1-5.976,3.2c-0.216.1-.432,0.1-0.432,0.4,0,0.4.864,2,1.44,2a2.311,2.311,0,0,0,.792-0.2,20.756,20.756,0,0,0,4.608-2.5c3.888-2.7,5.593-5.9,6.409-10.5,0.192-1.1.408-1.3,0.408-1.6a3.064,3.064,0,0,0-1.608-1.5H776.2a15.47,15.47,0,0,1-2.161.1h-8.4Zm27.168,4.7c-0.624,0-.624-0.3-1.224-1.5a0.608,0.608,0,0,1-.048-0.2c0-.3.192-0.3,0.432-0.4h4.344c0.24,0.1.456,0.1,0.456,0.4a0.279,0.279,0,0,1-.048.2c-0.168.3-.312,0.6-0.456,0.9a0.877,0.877,0,0,1-.96.6h-2.5Zm5.592-4.2a0.282,0.282,0,0,1-.336.2,0.5,0.5,0,0,1-.576-0.6v-1.6a1.2,1.2,0,0,1,.264-1.1,0.607,0.607,0,0,0,.288-0.4c0-.3-0.408-0.3-0.624-0.3a13.474,13.474,0,0,0-1.944-.2,0.336,0.336,0,0,0-.408.3v0.3a8.955,8.955,0,0,1,.1,1.6v1.4a0.552,0.552,0,0,1-.672.6h-0.7a0.552,0.552,0,0,1-.672-0.6v-1.4a1.6,1.6,0,0,1,.288-1.3,0.535,0.535,0,0,0,.288-0.4c0-.3-0.336-0.3-0.576-0.3a14.447,14.447,0,0,0-2.016-.2c-0.24,0-.408,0-0.408.3a0.983,0.983,0,0,0,.024.2c0.072,0.8.1,1.6,0.1,2.3v0.8a0.561,0.561,0,0,1-.672.6h-1.177c-0.071,0-.12,0-0.12-0.1,0,0,.024,0,0.049-0.1a1.092,1.092,0,0,0,.768-0.6,10.946,10.946,0,0,0-1.513-2.2,1.173,1.173,0,0,1-.216-0.3,0.929,0.929,0,0,0-.624-0.5c-0.432,0-1.68.6-1.68,1a1.1,1.1,0,0,0,.216.4,16.263,16.263,0,0,1,1.464,1.9,0.516,0.516,0,0,1,.048.2c0,0.3-.168.3-0.336,0.3h-2.64c-0.528,0-.528.3-0.528,1s0,1,.528,1c1.008,0,1.992-.1,3-0.1H788a0.911,0.911,0,0,1,.889.6c0.167,0.3.312,0.6,0.456,0.9a0.608,0.608,0,0,1,.048.2,0.394,0.394,0,0,1-.433.4H788.41c-0.984,0-1.944-.1-2.928-0.1-0.552,0-.528.3-0.528,1,0,0.5-.024.9,0.5,0.9h6.817a0.365,0.365,0,0,1,.456.4v0.2c0,0.4-.144.5-0.456,0.5h-2.712c-0.913,0-1.849-.1-2.761-0.1-0.552,0-.552.3-0.552,1,0,0.6-.024.9,0.552,0.9h5.473a0.365,0.365,0,0,1,.456.4v0.2a0.434,0.434,0,0,1-.456.5H787.09c-1.008,0-2.04-.1-3.072-0.1-0.528,0-.528.3-0.528,1s0,1,.528,1c1.032,0,2.064-.1,3.072-0.1H790a0.234,0.234,0,0,1,.216.2,0.385,0.385,0,0,1-.1.2,31.474,31.474,0,0,1-5.9,2.8c-0.528.2-.84,0.3-0.84,0.6a2.16,2.16,0,0,0,1.32,1.6,10.515,10.515,0,0,0,1.992-.7,27.364,27.364,0,0,0,5.545-3.4c0.072,0,.144-0.1.216-0.1,0.216,0,.264.2,0.288,0.4v0.1c0,1.1-.072,2.2-0.072,3.3,0,0.8.288,0.8,1.344,0.8,1.1,0,1.368,0,1.368-.9,0-1-.072-2.1-0.072-3.2v-0.2c0.024-.2.072-0.3,0.264-0.3a0.241,0.241,0,0,1,.24.1,26.148,26.148,0,0,0,4.68,3,18.5,18.5,0,0,0,2.857,1.1,2.24,2.24,0,0,0,1.344-1.6c0-.3-0.24-0.4-0.792-0.6a21.945,21.945,0,0,1-5.977-2.8,0.262,0.262,0,0,1-.1-0.2,0.24,0.24,0,0,1,.24-0.2h3.073c1.008,0,2.04.1,3.072,0.1,0.528,0,.528-0.3.528-1,0-.8,0-1-0.552-1-1.032,0-2.04.1-3.048,0.1h-5.377a0.423,0.423,0,0,1-.456-0.5v-0.2a0.365,0.365,0,0,1,.456-0.4h5.617c0.552,0,.552-0.3.552-0.9,0-.7,0-1-0.552-1-0.936,0-1.849.1-2.761,0.1h-2.856a0.423,0.423,0,0,1-.456-0.5v-0.2a0.365,0.365,0,0,1,.456-0.4h7.033c0.528,0,.5-0.3.5-0.9,0-.7.024-1-0.528-1-0.984,0-1.944.1-2.929,0.1h-0.624c-0.24-.1-0.456-0.1-0.456-0.4a0.671,0.671,0,0,1,.072-0.2c0.1-.2.216-0.5,0.312-0.7a0.745,0.745,0,0,1,.48-0.3,0.371,0.371,0,0,0,.336-0.2,0.671,0.671,0,0,0-.072-0.2c-0.048,0-.048-0.1.024-0.1h0.937c1.008,0,1.992.1,3,.1,0.528,0,.528-0.3.528-1s0-1-.528-1h-2.592c-0.192,0-.36,0-0.36-0.3a0.341,0.341,0,0,1,.072-0.2,18.13,18.13,0,0,0,.96-1.7,0.707,0.707,0,0,1,.456-0.2c0.048,0,.312,0,0.312-0.2,0-.3-2.064-1.1-2.16-1.1a0.292,0.292,0,0,0-.265.2A27.514,27.514,0,0,1,798.4,13887.7Zm27.84,10.8c0.889,0,1.2-.1,1.2.5a17.177,17.177,0,0,1-.457,3.1,0.944,0.944,0,0,1-1.176.8,2.224,2.224,0,0,1-.816-0.1h-0.36c-0.408,0-.408.4-0.408,0.7,0,1.7.408,1.7,1.392,1.7,1.609,0,2.929-.1,3.457-1.9a28.123,28.123,0,0,0,.84-5.7c0-1-.456-1.2-1.584-1.2h-2.593a0.518,0.518,0,0,1-.6-0.6v-0.2a0.293,0.293,0,0,1,.216-0.3,0.648,0.648,0,0,0,.36-0.4c0-.2-0.288-0.2-0.48-0.2a14.534,14.534,0,0,0-2.016-.3c-0.36,0-.36.2-0.36,0.9,0,0.1-.024.3-0.024,0.5a0.583,0.583,0,0,1-.72.6,15.226,15.226,0,0,1-2.136,0c-0.576,0-.552.2-0.552,1.1,0,0.8-.024,1,0.5,1H821.7a0.411,0.411,0,0,1,.48.4l-0.048.2a8.749,8.749,0,0,1-3.576,3.9,0.56,0.56,0,0,0-.432.4,2.391,2.391,0,0,0,1.536,1.6,4.5,4.5,0,0,0,1.9-1.3,10.558,10.558,0,0,0,2.952-4.7,0.74,0.74,0,0,1,.84-0.5h0.888Zm0.264-10.1a4.567,4.567,0,0,1-.792,1,0.478,0.478,0,0,1-.888,0,3.6,3.6,0,0,1-.84-1.1,0.193,0.193,0,0,1-.072-0.2,0.349,0.349,0,0,1,.408-0.3h1.824a0.372,0.372,0,0,1,.432.3A0.674,0.674,0,0,1,826.5,13888.4Zm-7.152,6.1a0.291,0.291,0,0,1,.216-0.2,0.259,0.259,0,0,1,.216.2,1.117,1.117,0,0,0,.744.8c0.744,0,3.5-1.7,4.176-2.2a0.838,0.838,0,0,1,.5-0.1,0.726,0.726,0,0,1,.456.1,16.416,16.416,0,0,0,3.5,2,1.726,1.726,0,0,0,.672.2c0.5,0,1.2-1.3,1.2-1.8a1.076,1.076,0,0,0-.624-0.5,16,16,0,0,1-3.024-1.4,0.65,0.65,0,0,1-.264-0.4,0.513,0.513,0,0,1,.168-0.4c0.456-.6.816-1,1.2-1.6a0.64,0.64,0,0,1,.528-0.4,0.322,0.322,0,0,0,.336-0.3,1.484,1.484,0,0,0-.768-0.5c-0.048,0-.072,0-0.072-0.1s0.024-.1.1-0.1h1.8c0.5,0,.528-0.2.528-1s0-1-.528-1h-5.665a0.373,0.373,0,0,1-.432-0.3,0.658,0.658,0,0,1,.048-0.3,0.687,0.687,0,0,1,.384-0.4,0.431,0.431,0,0,0,.456-0.3c0-.3-0.912-0.5-1.512-0.7-0.192,0-.672-0.2-0.84-0.2a0.423,0.423,0,0,0-.336.4,15.185,15.185,0,0,1-3.336,5,0.544,0.544,0,0,0-.216.4,2.419,2.419,0,0,0,1.416,1.2,2.532,2.532,0,0,0,1.248-1,0.485,0.485,0,0,1,.36-0.2,0.493,0.493,0,0,1,.384.2c0.24,0.4.552,0.8,0.84,1.2a0.446,0.446,0,0,1,.168.4,0.452,0.452,0,0,1-.288.4,14.239,14.239,0,0,1-2.736,1.4h-0.1a0.338,0.338,0,0,1-.264-0.3,1.883,1.883,0,0,0-1.56-1.1h-1.464c-0.1,0-.192,0-0.192-0.1a0.341,0.341,0,0,1,.072-0.2,0.522,0.522,0,0,0,.264-0.4,1.881,1.881,0,0,0-.576-0.8,1.207,1.207,0,0,1-.168-0.4,0.516,0.516,0,0,1,.264-0.5c0.576-.4,3.264-2.6,3.264-3.3a1.809,1.809,0,0,0-.6-1,0.949,0.949,0,0,0-.936-0.5h-7.441c-0.528,0-.528.2-0.528,1s0,1,.528,1h5.137c0.144,0,.5,0,0.5.2a6.761,6.761,0,0,1-1.224,1.3,0.769,0.769,0,0,1-.457.2,1.773,1.773,0,0,1-.648-0.4,1.437,1.437,0,0,0-.816-0.6,2.29,2.29,0,0,0-1.464,1.3,0.918,0.918,0,0,0,.408.5,20.85,20.85,0,0,1,2.208,2.2,0.385,0.385,0,0,1,.1.2,0.308,0.308,0,0,1-.336.3h-4.08c-0.48,0-.5.2-0.5,1s0.024,1,.5,1h2.568a0.391,0.391,0,0,1,.456.4,0.608,0.608,0,0,1-.048.2,20.5,20.5,0,0,1-3.576,5.7,0.566,0.566,0,0,0-.24.4,2.342,2.342,0,0,0,1.368,1.4,1.263,1.263,0,0,0,.648-0.6,16.771,16.771,0,0,0,2.376-4,0.746,0.746,0,0,1,.144-0.1c0.1,0,.12.1,0.12,0.2v4.2c0,1.1.048,1.4-1.08,1.4H812.05a0.4,0.4,0,0,0-.432.5c0,1.9.72,1.8,1.2,1.8,1.728,0,3.409-.2,3.409-2.3,0-.5-0.024-1-0.024-1.5v-7.1a0.5,0.5,0,0,1,.552-0.6h0.312c0.168,0,.5,0,0.5.2a5.182,5.182,0,0,1-.792,1.4,0.749,0.749,0,0,0-.288.5,1.865,1.865,0,0,0,1.416.9,0.894,0.894,0,0,0,.552-0.6C818.555,13895.9,819.3,13894.6,819.347,13894.5Zm21.912,5.3a2.332,2.332,0,0,0,1.008.7,1.39,1.39,0,0,0,.768-0.5,28.314,28.314,0,0,0,4.464-5.7,0.147,0.147,0,0,1,.168-0.1,0.173,0.173,0,0,1,.144.2v4a0.583,0.583,0,0,1-.672.7c-0.576,0-1.152-.1-1.728-0.1-0.672,0-.648.4-0.648,1.2,0,0.9-.024,1.2.648,1.2h1.728a0.561,0.561,0,0,1,.672.6c0,0.9-.048,1.7-0.048,2.5,0,0.7.24,0.8,1.272,0.8,0.96,0,1.224-.1,1.224-0.8,0-.8-0.048-1.6-0.048-2.5a0.553,0.553,0,0,1,.648-0.6h1.632c0.673,0,.649-0.3.649-1.2,0-.8.024-1.2-0.672-1.2-0.529,0-1.057.1-1.609,0.1a0.609,0.609,0,0,1-.672-0.7v-4.2a0.212,0.212,0,0,1,.168-0.2,1.034,1.034,0,0,1,.168.1,21.71,21.71,0,0,0,3.745,4.9c1.1,1.2,1.3,1.4,1.584,1.4a2.693,2.693,0,0,0,1.44-1.7,0.871,0.871,0,0,0-.36-0.6,24.494,24.494,0,0,1-5.545-6.6,0.193,0.193,0,0,1-.072-0.2,0.349,0.349,0,0,1,.408-0.3h4.513c0.576,0,.552-0.3.552-1.2s0.024-1.2-.552-1.2c-0.84,0-1.656.1-2.5,0.1h-2.881a0.609,0.609,0,0,1-.672-0.7v-1.8a2.332,2.332,0,0,1,.288-1.6,0.5,0.5,0,0,0,.288-0.4c0-.2-0.192-0.2-0.36-0.2a18.34,18.34,0,0,0-2.256-.2c-0.24,0-.432,0-0.432.3a1.266,1.266,0,0,0,.024.3,11.18,11.18,0,0,1,.072,1.6v2a0.583,0.583,0,0,1-.672.7H845c-0.84,0-1.656-.1-2.5-0.1-0.6,0-.552.3-0.552,1.2s-0.024,1.2.552,1.2h3.72c0.1,0,.456,0,0.456.3a0.688,0.688,0,0,1-.072.3,23.717,23.717,0,0,1-5.28,6.7,0.223,0.223,0,0,1-.217.1c-0.192,0-.24-0.1-0.263-0.3v-4.9c0-1.4-.025-1.9.263-2.1a0.446,0.446,0,0,0,.241-0.4c0-.3-0.288-0.3-0.553-0.4a0.265,0.265,0,0,1-.264-0.3l0.024-.1c0.481-1,1.249-2.8,1.633-3.8a0.962,0.962,0,0,1,.6-0.8,0.377,0.377,0,0,0,.408-0.3c0-.4-0.456-0.5-1.056-0.7a13.315,13.315,0,0,0-1.657-.5c-0.264,0-.288.3-0.336,0.5a22.886,22.886,0,0,1-4.44,8.7,1.211,1.211,0,0,0-.312.6c0,0.4.936,1.9,1.344,1.9a3.631,3.631,0,0,0,1.3-1.3,0.162,0.162,0,0,1,.192-0.1,0.175,0.175,0,0,1,.168.2v7.1c0,1-.048,2-0.048,3,0,0.7.24,0.9,1.272,0.9,0.96,0,1.3-.1,1.3-0.8,0-1-.071-2-0.071-3.1v-1.4c0.023-.2.071-0.3,0.216-0.3A1.465,1.465,0,0,1,841.259,13899.8Zm27.432,0.1a11.342,11.342,0,0,0-.36-1.5c-0.336-1.2-.456-1.3-0.721-1.3a0.732,0.732,0,0,0-.768.4,0.382,0.382,0,0,0,.072.3c0.169,0.6.336,1,.432,1.5,0.193,0.9.193,1.2,0.529,1.2A0.8,0.8,0,0,0,868.691,13899.9Zm-1.681,1.1c0-.3-0.24-1.4-0.312-1.8-0.312-1.4-.432-1.7-0.744-1.7a0.749,0.749,0,0,0-.744.5,1.3,1.3,0,0,0,.048.3c0.24,1,.336,1.8.432,2.3,0.12,0.8.168,1.1,0.48,1.1A0.777,0.777,0,0,0,867.01,13901Zm-1.8,1.1c0-.4-0.144-1.8-0.216-2.3-0.192-1.4-.24-1.8-0.672-1.8a0.651,0.651,0,0,0-.72.5,1.266,1.266,0,0,0,.024.3,30.744,30.744,0,0,1,.336,3.3c0.024,0.3.024,0.6,0.456,0.6A0.67,0.67,0,0,0,865.21,13902.1Zm-1.656-3.6c0-.3-1.248-0.5-1.416-0.5a0.331,0.331,0,0,0-.288.4v0.5a18.564,18.564,0,0,1-.384,3.7,1.266,1.266,0,0,0-.024.3,0.818,0.818,0,0,0,.84.4c0.48,0,.5-0.4.552-0.9,0.12-.9.192-1.9,0.24-2.9,0.024-.5-0.024-0.6.168-0.7C863.386,13898.7,863.554,13898.7,863.554,13898.5Zm11.545-9a0.277,0.277,0,0,1-.288-0.2c0-.1.024-0.2,0.1-0.2,0.624-.7,1.2-1.4,1.752-2.1a0.531,0.531,0,0,1,.36-0.2,0.493,0.493,0,0,1,.384.2c0.552,0.7,1.176,1.4,1.824,2.1a0.2,0.2,0,0,1,.1.2,0.266,0.266,0,0,1-.263.2H875.1Zm-9.121,3.4a0.562,0.562,0,0,1,.648.6v0.3a0.7,0.7,0,0,1-.648.7H865.45a0.738,0.738,0,0,1-.672-0.7v-0.3a0.592,0.592,0,0,1,.672-0.6h0.528Zm0.1-3.2a0.5,0.5,0,0,1,.552.5v0.4a0.576,0.576,0,0,1-.552.6h-0.72a0.6,0.6,0,0,1-.576-0.6v-0.4a0.517,0.517,0,0,1,.576-0.5h0.72Zm0.552-2.3a0.5,0.5,0,0,1-.552.5h-0.72a0.517,0.517,0,0,1-.576-0.5v-0.4a0.517,0.517,0,0,1,.576-0.5h0.72a0.5,0.5,0,0,1,.552.5v0.4Zm8.833,7.2a0.584,0.584,0,0,1,.648.7,5.068,5.068,0,0,1-.048.8,0.642,0.642,0,0,1-.744.6h-0.384a0.591,0.591,0,0,1-.672-0.7v-0.7a0.591,0.591,0,0,1,.672-0.7h0.528Zm2.88,1.4c0.024-.2.024-0.5,0.048-0.8a0.581,0.581,0,0,1,.673-0.6h0.576a0.576,0.576,0,0,1,.648.7v0.7a0.576,0.576,0,0,1-.648.7h-0.7C878.508,13896.7,878.339,13896.5,878.339,13896Zm-4.9-5.1a0.445,0.445,0,0,0,.528.5h1.584a0.478,0.478,0,0,1,.576.5v0.3a0.461,0.461,0,0,1-.576.5h-2.064c-0.792,0-1.416.1-1.416,1.1,0,0.4.024,0.8,0.024,1.2v1.7c0,0.5-.024,1-0.024,1.5,0,0.7.48,0.7,1.1,0.7a2.627,2.627,0,0,0,.888-0.1,0.846,0.846,0,0,1,.432-0.2h0.384a0.4,0.4,0,0,1,.456.4,0.193,0.193,0,0,1-.048.1,9.767,9.767,0,0,1-4.344,4.1,0.6,0.6,0,0,0-.456.5,2.525,2.525,0,0,0,1.44,1.6c0.576,0,3.48-2,4.992-4.4a0.4,0.4,0,0,1,.336-0.2,0.4,0.4,0,0,1,.312.2,11.959,11.959,0,0,0,2.953,3.4,4.983,4.983,0,0,0,1.512.9,2.466,2.466,0,0,0,1.536-1.5,0.978,0.978,0,0,0-.672-0.6,12.708,12.708,0,0,1-3.912-4,0.255,0.255,0,0,1-.072-0.2,0.372,0.372,0,0,1,.432-0.3h0.72a0.846,0.846,0,0,1,.432.2,2.627,2.627,0,0,0,.888.1c0.6,0,1.1,0,1.1-.7,0-.5-0.024-1-0.024-1.5v-1.7c0-.4.024-0.8,0.024-1.3,0-.9-0.624-1-1.416-1h-2.112a0.483,0.483,0,0,1-.577-0.5v-0.3c0-.4.168-0.5,0.577-0.5h1.392a0.455,0.455,0,0,0,.528-0.5,0.191,0.191,0,0,1,.168-0.2c0.048,0,.072,0,0.12.1a3.116,3.116,0,0,0,1.2.7,2.183,2.183,0,0,0,1.416-1.6,0.753,0.753,0,0,0-.408-0.5,19.607,19.607,0,0,1-4.849-4.4c-0.023,0-.023,0-0.023-0.1a0.172,0.172,0,0,1,.119-0.1,0.316,0.316,0,0,0,.169-0.2,1.11,1.11,0,0,0-.913-0.6,10.084,10.084,0,0,0-1.464-.5,0.627,0.627,0,0,0-.456.5,15.612,15.612,0,0,1-4.416,4.8,0.189,0.189,0,0,1-.192.1,0.265,0.265,0,0,1-.264-0.3c-0.024-.4.024-0.7-0.456-0.7a7.4,7.4,0,0,1-1.488,0c-0.408,0-.576-0.1-0.576-0.5v-0.4c0-.4.168-0.5,0.576-0.5h2.064c0.5,0,.5-0.2.5-1.1,0-.8,0-1-0.528-1h-7.2c-0.912,0-1.392.2-1.392,1.2,0,0.6.024,1.2,0.024,1.8v6.8c0,0.7-.024,1.5-0.024,2.3,0,0.5.24,0.5,1.1,0.5h0.336a1.091,1.091,0,0,0,.72-0.2,0.912,0.912,0,0,1,.456-0.4H868c0.672,0,1.1,0,1.1.7a22.851,22.851,0,0,1-.528,4.2c-0.288,1.3-.552,1.5-1.633,1.5h-1.032c-0.336,0-.432.3-0.432,0.9,0,1.3.552,1.5,1.248,1.5,1.777,0,2.833-.3,3.529-2.1a26.8,26.8,0,0,0,1.032-7.3c0-.8-0.024-1.4-1.176-1.4-0.312,0-.6.1-0.912,0.1a0.6,0.6,0,0,1-.624-0.7v-0.3a0.552,0.552,0,0,1,.672-0.6h1.416c0.432,0,.432-0.3.432-0.9,0-.7,0-0.9-0.456-0.9-0.336,0-.912.1-1.488,0.1a0.511,0.511,0,0,1-.576-0.6v-0.4c0-.4.168-0.5,0.576-0.5h1.08c0.1,0,.1.1,0.1,0.2a2.261,2.261,0,0,0,1.44,1.6,4.185,4.185,0,0,0,1.344-.8,0.746,0.746,0,0,1,.144-0.1A0.338,0.338,0,0,1,873.443,13890.9Z" transform="translate(-606.625 -13883.5)"/>
</svg>
