<svg xmlns="http://www.w3.org/2000/svg" width="55.5" height="16.09" viewBox="0 0 55.5 16.09">
  <defs>
    <style>
      .cls-1 {
        fill: #4da5dc;
        fill-rule: evenodd;
      }
    </style>
  </defs>
  <path id="一覧へ" class="cls-1" d="M1152.59,1393.77c0.81,0,1.6.05,2.41,0.05,0.5,0,.47-0.27.47-1.06,0-.77.03-1.06-0.47-1.06-0.79,0-1.6.05-2.41,0.05h-9.8c-0.81,0-1.62-.05-2.41-0.05-0.5,0-.47.31-0.47,1.06,0,0.77-.03,1.06.47,1.06,0.79,0,1.6-.05,2.41-0.05h9.8Zm20.57-3.31c0.49,0,.99.03,1.5,0.03,0.39,0,.37-0.21.37-0.68,0-.56,0-0.67-0.48-0.67-0.29,0-.72.04-1.39,0.04h-2.55c-0.67,0-1.1-.04-1.39-0.04-0.49,0-.49.11-0.49,0.67,0,0.43-.02.68,0.36,0.68,0.51,0,1.01-.03,1.52-0.03h2.55Zm-3.47-2.52a0.635,0.635,0,0,1,.7-0.42h3.22c0.61,0,1.23.04,1.84,0.04,0.36,0,.36-0.16.36-0.7,0-.56,0-0.71-0.36-0.71-0.61,0-1.23.04-1.84,0.04h-2.66a0.319,0.319,0,0,1-.36-0.31,0.414,0.414,0,0,1,.02-0.16,0.319,0.319,0,0,1,.18-0.25,0.359,0.359,0,0,0,.3-0.24c0-.16-0.14-0.17-0.52-0.28-0.09-.02-0.2-0.06-0.32-0.09-0.17-.04-0.83-0.22-0.96-0.22s-0.16.09-.2,0.23a11.26,11.26,0,0,1-1.35,3.12,0.653,0.653,0,0,0-.14.29,1.877,1.877,0,0,0,1.29.7A1.919,1.919,0,0,0,1169.69,1387.94Zm-5.66,8.37a0.32,0.32,0,0,1,.29-0.29h6.79a0.3,0.3,0,0,1,.29.29v0.11a0.274,0.274,0,0,1-.29.27h-6.79a0.286,0.286,0,0,1-.29-0.27v-0.11Zm0-1.59a0.3,0.3,0,0,1,.29-0.28h6.79a0.288,0.288,0,0,1,.29.28v0.11a0.274,0.274,0,0,1-.29.27h-6.79a0.286,0.286,0,0,1-.29-0.27v-0.11Zm0.29-1.19a0.3,0.3,0,0,1-.29-0.28v-0.11a0.3,0.3,0,0,1,.29-0.29h6.79a0.29,0.29,0,0,1,.29.29v0.11a0.288,0.288,0,0,1-.29.28h-6.79Zm0.34,4.29a0.2,0.2,0,0,1,.22.18,0.235,0.235,0,0,1-.07.14,7.733,7.733,0,0,1-4.09,1.17c-0.49.02-.81-0.01-0.81,0.29a1.393,1.393,0,0,0,.14.51c0.27,0.56.42,0.65,0.69,0.65,0.21,0,.43-0.04.66-0.06a13.747,13.747,0,0,0,2.2-.41,6.4,6.4,0,0,0,2.72-1.53,0.357,0.357,0,0,1,.32-0.11,0.279,0.279,0,0,0,.33-0.2,0.853,0.853,0,0,0-.52-0.45,0.127,0.127,0,0,1-.04-0.09,0.1,0.1,0,0,1,.11-0.09h1.31a0.429,0.429,0,0,1,.51.5v0.33c0,0.25-.02.5-0.02,0.76,0,1.09,1.02,1.11,1.87,1.11h2.92c1.19,0,1.69.02,2.07-.54a4.185,4.185,0,0,0,.65-1.64c0-.43-0.9-0.59-1.25-0.59a0.293,0.293,0,0,0-.37.29c-0.18,1.11-.36,1.1-0.99,1.1h-2.27c-0.49,0-.85.03-0.85-0.49v-0.33a0.429,0.429,0,0,1,.51-0.5h0.64a0.316,0.316,0,0,1,.22.13,1.844,1.844,0,0,0,.74.1h0.18c0.45,0,.88.02,0.88-0.55,0-.27-0.04-0.62-0.04-0.96v-3.15c0-.36.04-0.67,0.04-0.92,0-.54-0.14-0.81-1.01-0.81-0.5,0-1.01.02-1.49,0.02h-6.11c-0.5,0-.99-0.02-1.49-0.02-0.54,0-.99.07-0.99,0.74,0,0.32.03,0.67,0.03,0.99v3.15c0,0.31-.03.67-0.03,0.96,0,0.57.41,0.55,0.86,0.55h0.2a1.692,1.692,0,0,0,.72-0.1,0.41,0.41,0,0,1,.24-0.13h0.46Zm-2.21-9.38a0.274,0.274,0,0,1-.27-0.29v-0.12a0.252,0.252,0,0,1,.27-0.27h3.06a0.268,0.268,0,0,1,.29.27v0.12a0.29,0.29,0,0,1-.29.29h-3.06Zm1.26,1.3a0.261,0.261,0,0,1-.29.28h-0.97a0.255,0.255,0,0,1-.27-0.28v-0.11a0.286,0.286,0,0,1,.27-0.29h0.97a0.29,0.29,0,0,1,.29.29v0.11Zm-0.27-3.55a0.257,0.257,0,0,1,.27.27v0.12a0.26,0.26,0,0,1-.27.28h-0.99a0.26,0.26,0,0,1-.27-0.28v-0.12a0.257,0.257,0,0,1,.27-0.27h0.99Zm1.8,0.27a0.238,0.238,0,0,1,.29-0.27h0.79c0.47,0,.94.02,1.4,0.02,0.33,0,.33-0.13.33-0.53s-0.02-.52-0.33-0.52c-0.46,0-.93.02-1.4,0.02h-3.96c-0.34,0-.7-0.02-1.06-0.02a0.588,0.588,0,0,0-.74.63c0,0.34.02,0.69,0.02,1.01v2.67c0,0.34-.02.66-0.02,1,0,0.54.3,0.63,0.79,0.63,0.34,0,.67-0.01,1.01-0.01h3.96c0.47,0,.94.01,1.4,0.01,0.29,0,.33-0.09.33-0.54s-0.04-.55-0.33-0.55c-0.46,0-.93.01-1.4,0.01h-0.81a0.231,0.231,0,0,1-.27-0.28v-0.11a0.244,0.244,0,0,1,.29-0.29h0.3c0.33,0,.63.04,0.96,0.04s0.54-.06.54-0.45c0-.13-0.02-0.36-0.02-0.69v-0.29c0-.3.02-0.54,0.02-0.68,0-.38-0.22-0.43-0.54-0.43s-0.63.02-.96,0.02h-0.3a0.245,0.245,0,0,1-.29-0.28v-0.12Zm21.44,2.48c-0.97,0-1.8.87-2.49,1.46a15.837,15.837,0,0,1-2.9,2.16,0.972,0.972,0,0,0-.55.45,4.247,4.247,0,0,0,1.49,1.79,0.812,0.812,0,0,0,.43-0.31c0.81-.86,1.75-1.6,2.61-2.41a3.174,3.174,0,0,1,1.39-.94,2.65,2.65,0,0,1,1.35,1.13,27.465,27.465,0,0,0,4.59,4.49,5.336,5.336,0,0,0,1.44.83c0.49,0,1.33-1.35,1.33-1.7a0.486,0.486,0,0,0-.36-0.36,18.631,18.631,0,0,1-5.7-4.8C1188.62,1389.93,1187.85,1388.94,1186.68,1388.94Z" transform="translate(-1139.88 -1384.66)"/>
</svg>
