<svg xmlns="http://www.w3.org/2000/svg" width="101.813" height="21.66" viewBox="0 0 101.813 21.66">
  <defs>
    <style>
      .cls-1 {
        fill: #4da5dc;
        fill-rule: evenodd;
      }
    </style>
  </defs>
  <path id="活動報告" class="cls-1" d="M700.262,1395.53a3.176,3.176,0,0,0-1.656-1.32c-0.192,0-.24.12-0.432,0.5a36.738,36.738,0,0,1-3.984,6.68,1.109,1.109,0,0,0-.288.52,1.4,1.4,0,0,0,.552.68,7.315,7.315,0,0,0,1.536,1.15,0.308,0.308,0,0,0,.264-0.36c0-.07-0.024-0.15-0.024-0.22v-0.19a1.388,1.388,0,0,1,.288-0.67,60.154,60.154,0,0,0,3.456-6.03A3.143,3.143,0,0,0,700.262,1395.53Zm-5.112-7.42a2.748,2.748,0,0,0-1.224,1.56,0.752,0.752,0,0,0,.456.48,30.412,30.412,0,0,1,2.856,2.09,0.8,0.8,0,0,0,.48.26,2.505,2.505,0,0,0,1.272-1.56,2.684,2.684,0,0,0-1.1-1.12A14.309,14.309,0,0,0,695.15,1388.11Zm4.968-2.45a0.529,0.529,0,0,0-.24-0.38c-0.336-.31-1.08-0.86-1.488-1.15a8.2,8.2,0,0,0-1.992-1.18c-0.456,0-1.248,1.32-1.248,1.54a0.7,0.7,0,0,0,.456.53c0.864,0.57,1.728,1.15,2.544,1.8a1.5,1.5,0,0,0,.648.38A2.417,2.417,0,0,0,700.118,1385.66Zm5.185,14.98a0.637,0.637,0,0,1-.672-0.65v-2.66a0.678,0.678,0,0,1,.672-0.67h5.28a0.665,0.665,0,0,1,.672.67v2.66a0.649,0.649,0,0,1-.672.65H705.3Zm5.9,2.78c-0.024.73,0.048,0.73,1.249,0.73,0.936,0,1.248.02,1.248-.49,0-.33-0.048-1.07-0.048-1.67v-5.21c0-.56.024-1.01,0.024-1.44,0-.87-0.84-0.94-1.513-0.94-0.6,0-1.224.05-1.824,0.05h-0.48a0.6,0.6,0,0,1-.672-0.67v-1.68a0.563,0.563,0,0,1,.672-0.65h2.3c0.841,0,1.681.05,2.521,0.05,0.624,0,.6-0.34.6-1.18s0.024-1.15-.6-1.15c-0.84,0-1.68.05-2.521,0.05h-2.3a0.576,0.576,0,0,1-.672-0.68v-1.92a0.667,0.667,0,0,1,.624-0.79,27.6,27.6,0,0,0,2.952-.77,3.749,3.749,0,0,1,.577-0.16,1.01,1.01,0,0,1,.288.07,1.415,1.415,0,0,0,.312.05,0.3,0.3,0,0,0,.312-0.22,5.964,5.964,0,0,0-1.777-2.09,1.111,1.111,0,0,0-.408.12,32.5,32.5,0,0,1-9.528,1.75c-0.7.03-.96,0.05-0.96,0.51a3.716,3.716,0,0,0,.336,1.34,0.579,0.579,0,0,0,.624.36c0.624,0,2.9-.26,3.6-0.36a0.524,0.524,0,0,1,.624.6v1.51a0.576,0.576,0,0,1-.672.68h-2.232c-0.864,0-1.7-.05-2.544-0.05-0.6,0-.577.31-0.577,1.15s-0.023,1.18.577,1.18c0.84,0,1.68-.05,2.544-0.05H706.1a0.563,0.563,0,0,1,.672.65v1.68a0.58,0.58,0,0,1-.672.67h-0.624c-0.624,0-1.224-.05-1.848-0.05-0.672,0-1.512.07-1.512,0.96,0,0.48.048,0.94,0.048,1.42v5.16c0,0.52-.048,1.25-0.048,1.68,0,0.5.336,0.48,1.3,0.48,1.2,0,1.3-.03,1.272-0.68a0.464,0.464,0,0,1,.552-0.52h5.424A0.463,0.463,0,0,1,711.207,1403.42Zm13.007-11.23a0.553,0.553,0,0,1-.576-0.57v-0.22a0.532,0.532,0,0,1,.576-0.55H725.2a0.513,0.513,0,0,1,.552.55v0.22a0.534,0.534,0,0,1-.552.57h-0.984Zm1.536,2.33a0.527,0.527,0,0,1-.552.58h-0.984a0.545,0.545,0,0,1-.576-0.58v-0.26a0.54,0.54,0,0,1,.576-0.56H725.2a0.521,0.521,0,0,1,.552.56v0.26Zm3.7-.82a0.54,0.54,0,0,1,.576.56v0.26a0.545,0.545,0,0,1-.576.58h-0.984a0.546,0.546,0,0,1-.577-0.58v-0.26a0.54,0.54,0,0,1,.577-0.56h0.984Zm-1.561-2.3a0.533,0.533,0,0,1,.577-0.55h0.984a0.532,0.532,0,0,1,.576.55v0.22a0.553,0.553,0,0,1-.576.57h-0.984a0.554,0.554,0,0,1-.577-0.57v-0.22Zm1.417,5.21c0.552,0,1.1.02,1.656,0.02,0.6,0,1.056-.14,1.056-0.84,0-.38-0.048-0.77-0.048-1.17v-3.29c0-.41.048-0.79,0.048-1.18,0-.72-0.456-0.86-1.08-0.86-0.552,0-1.08.05-1.632,0.05h-0.96a0.4,0.4,0,0,1-.457-0.46v-0.24a0.4,0.4,0,0,1,.457-0.46h1.608c0.7,0,1.392.05,2.088,0.05,0.528,0,.5-0.31.5-0.86s0.048-.87-0.5-0.87c-0.7,0-1.392.05-2.088,0.05h-1.392a0.586,0.586,0,0,1-.673-0.67v-0.24a0.673,0.673,0,0,1,.625-0.77c0.336-.05,2.424-0.5,2.544-0.5a0.707,0.707,0,0,1,.312.07,0.993,0.993,0,0,0,.384.12,0.25,0.25,0,0,0,.24-0.22,1.769,1.769,0,0,0-.456-0.76,2.033,2.033,0,0,0-.864-0.99h-0.1a29.091,29.091,0,0,1-8.017,1.06h-0.312c-0.432,0-.744.02-0.744,0.38a3.575,3.575,0,0,0,.24,1.03,0.545,0.545,0,0,0,.576.34c0.864,0,2.04-.1,2.9-0.14a0.437,0.437,0,0,1,.528.52v0.2a0.483,0.483,0,0,1-.552.57h-1.68c-0.7,0-1.392-.05-2.088-0.05-0.528,0-.5.32-0.5,0.87s-0.048.86,0.5,0.86c0.7,0,1.392-.05,2.088-0.05h1.776a0.392,0.392,0,0,1,.456.46v0.24a0.392,0.392,0,0,1-.456.46h-0.912c-0.552,0-1.1-.05-1.632-0.05-0.624,0-1.08.14-1.08,0.84,0,0.41.048,0.79,0.048,1.2v3.29c0,0.4-.048.79-0.048,1.17,0,0.72.456,0.84,1.08,0.84,0.552,0,1.08-.02,1.632-0.02h0.912a0.385,0.385,0,0,1,.456.45v0.22a0.392,0.392,0,0,1-.456.46h-1.536c-0.7,0-1.392-.05-2.088-0.05-0.528,0-.5.29-0.5,0.86,0,0.55-.024.84,0.5,0.84,0.7,0,1.392-.04,2.088-0.04H725.1a0.569,0.569,0,0,1,.648.67v0.55a0.6,0.6,0,0,1-.624.72c-1.176.14-3.024,0.29-3.576,0.29-0.648,0-.744.04-0.744,0.31a10.629,10.629,0,0,0,.312,1.39,0.967,0.967,0,0,0,.456.82,0.354,0.354,0,0,0,.312-0.27,0.728,0.728,0,0,1,.72-0.36c1.392-.16,2.88-0.33,4.32-0.55,1.489-.24,2.977-0.48,4.465-0.74a0.212,0.212,0,0,1,.288.19,0.15,0.15,0,0,1-.048.14,1.624,1.624,0,0,0-.336.58c0,0.46,1.1,1.1,1.68,1.1a0.524,0.524,0,0,0,.48-0.28,16.645,16.645,0,0,0,1.128-1.76c1.992-3.6,2.472-7.77,2.592-11.83a0.56,0.56,0,0,1,.672-0.62h0.432c1.177,0,1.081.14,0.985,3.26-0.049,1.63-.217,6.67-0.625,7.99-0.192.67-.6,0.7-1.3,0.7-0.168,0-.48-0.03-0.648-0.05-0.1,0-.264-0.02-0.36-0.02-0.408,0-.432.41-0.432,0.72a5.218,5.218,0,0,0,.12,1.05c0.168,0.72.288,0.82,1.32,0.82,3.553,0,3.6-1.22,3.985-7.25,0.12-2.02.264-6.19,0.192-8.16a1.205,1.205,0,0,0-1.416-1.34c-0.744,0-1.513.07-2.257,0.07a0.6,0.6,0,0,1-.672-0.67v-2.02c0-.86.024-1.08,0.336-1.25a0.493,0.493,0,0,0,.288-0.33c0-.36-0.5-0.34-1.152-0.39-0.312-.02-1.056-0.09-1.344-0.09a0.365,0.365,0,0,0-.456.38c0,0.14.024,0.36,0.024,0.46,0.048,0.55.048,0.93,0.048,1.53v1.68a0.547,0.547,0,0,1-.648.65c-0.144,0-.6-0.02-0.744-0.02-0.552,0-.528.31-0.528,1.2,0,0.81-.024,1.15.528,1.15,0.24,0,.5-0.03.744-0.03a0.56,0.56,0,0,1,.648.65c-0.048,3.65-.456,7.68-2.424,10.85a0.1,0.1,0,0,1-.1.07,0.156,0.156,0,0,1-.12-0.14c0-.29,0-0.82-0.408-0.82a2.783,2.783,0,0,0-.456.05c-0.864.17-2.016,0.41-2.9,0.5h-0.1a0.512,0.512,0,0,1-.529-0.6v-0.28a0.586,0.586,0,0,1,.673-0.67h1.248c0.672,0,1.368.04,2.064,0.04,0.528,0,.528-0.24.528-0.84,0-.57.024-0.86-0.5-0.86-0.7,0-1.392.05-2.088,0.05h-1.464a0.4,0.4,0,0,1-.457-0.46v-0.22a0.387,0.387,0,0,1,.457-0.45h0.96Zm35.136,0.81a11.825,11.825,0,0,1-1.032-2.66v-0.17a0.448,0.448,0,0,1,.528-0.45h1.344c0.408,0,.672.04,0.672,0.43a9.408,9.408,0,0,1-.888,2.81,0.365,0.365,0,0,1-.312.24A0.436,0.436,0,0,1,764.439,1397.42Zm-3.288,4.16c-0.024-.43-0.024-0.89-0.024-1.35v-5.64a0.382,0.382,0,0,1,.312-0.43,0.233,0.233,0,0,1,.168.19,14.181,14.181,0,0,0,1.656,4.92,1.143,1.143,0,0,1,.144.51,0.785,0.785,0,0,1-.216.5,11.542,11.542,0,0,1-1.584,1.51,0.323,0.323,0,0,1-.216.07A0.235,0.235,0,0,1,761.151,1401.58Zm4.2,0.53c0.432,0.45,2.041,1.94,2.641,1.94,0.528,0,1.056-1.13,1.056-1.68a0.459,0.459,0,0,0-.312-0.43,10.846,10.846,0,0,1-2.184-1.71,0.942,0.942,0,0,1-.24-0.55,1.107,1.107,0,0,1,.119-0.46,17.928,17.928,0,0,0,1.585-4.15,12.065,12.065,0,0,0,.312-1.77,1.353,1.353,0,0,0-.336-0.89,1.335,1.335,0,0,0-1.1-.39c-0.553,0-1.129.03-1.681,0.03H761.8a0.569,0.569,0,0,1-.672-0.67v-4.88a0.58,0.58,0,0,1,.672-0.67h2.952a0.589,0.589,0,0,1,.672.67v1.44c0,0.7-.12.94-0.888,0.94-0.312,0-.624-0.05-0.888-0.05-0.384,0-.432.22-0.432,0.53,0,1.58.408,1.8,1.248,1.8a5.6,5.6,0,0,0,2.353-.48,1.736,1.736,0,0,0,.912-1.85c0-.53-0.024-1.08-0.024-1.61v-0.72c0-.64.048-1.15,0.048-1.56,0-.98-0.192-1.34-1.272-1.34-0.553,0-1.081.05-1.633,0.05h-3.24c-0.5,0-1.008-.05-1.512-0.05a1.018,1.018,0,0,0-1.248,1.18c0,0.72.048,1.44,0.048,2.13v13.32c0,1.11-.072,2.19-0.072,3.27,0,0.69.24,0.69,1.176,0.69s1.176,0,1.176-.67v-0.24a0.21,0.21,0,0,1,.192-0.19,0.246,0.246,0,0,1,.168.07,1.7,1.7,0,0,0,.96.63c0.528,0,1.656-1.25,2.04-1.68a0.609,0.609,0,0,1,.408-0.22A0.582,0.582,0,0,1,765.351,1402.11Zm-11.425-11.14a0.446,0.446,0,0,1,.5.43c0,0.07-.024.14-0.024,0.19a18.47,18.47,0,0,1-.7,1.87,0.825,0.825,0,0,1-.912.56h-1.224c-0.12-.03-0.12-0.08-0.12-0.1a0.164,0.164,0,0,1,.072-0.12,0.5,0.5,0,0,0,.408-0.43,10.466,10.466,0,0,0-.528-1.49,2.14,2.14,0,0,1-.144-0.34,0.421,0.421,0,0,1-.048-0.19,0.389,0.389,0,0,1,.432-0.38h2.28Zm2.545,1.15a0.4,0.4,0,0,1,.336-0.24,0.3,0.3,0,0,0,.336-0.24,0.689,0.689,0,0,0-.648-0.46,0.088,0.088,0,0,1-.048-0.09,0.09,0.09,0,0,1,.1-0.1c0.384,0.03.768,0.05,1.152,0.05,0.6,0,.576-0.31.576-1.1,0-.82.024-1.11-0.576-1.11-0.84,0-1.656.05-2.5,0.05h-0.432a0.58,0.58,0,0,1-.673-0.67v-0.41a0.57,0.57,0,0,1,.673-0.67c0.672-.03,1.344.05,2.04,0.05,0.576,0,.552-0.34.552-1.11,0-.81.024-1.1-0.576-1.1-0.672,0-1.344.07-2.016,0.05a0.585,0.585,0,0,1-.673-0.68,0.959,0.959,0,0,1,.264-0.93,0.468,0.468,0,0,0,.288-0.34c0-.26-0.336-0.29-0.528-0.31-0.336-.05-1.68-0.17-1.968-0.17-0.216,0-.384.05-0.384,0.31v0.24a11.133,11.133,0,0,1,.1,1.25,0.585,0.585,0,0,1-.672.63c-0.7.02-1.392-.05-2.088-0.05-0.6,0-.576.31-0.576,1.1,0,0.77-.048,1.11.576,1.11,0.7,0,1.392-.08,2.088-0.05a0.569,0.569,0,0,1,.672.67v0.41a0.58,0.58,0,0,1-.672.67h-0.552c-0.816,0-1.656-.05-2.472-0.05-0.624,0-.6.31-0.6,1.11,0,0.76-.024,1.1.6,1.1,0.384,0,.744-0.05,1.128-0.05a0.105,0.105,0,0,1,.1.1,0.089,0.089,0,0,1-.072.09,0.555,0.555,0,0,0-.312.41,11.748,11.748,0,0,0,.624,1.59c0.048,0.09.072,0.19,0.1,0.24a0.554,0.554,0,0,1,.048.19,0.389,0.389,0,0,1-.432.38c-0.264,0-.528-0.02-0.816-0.02-0.6,0-.576.31-0.576,1.1,0,0.75-.048,1.11.576,1.11,0.72,0,1.44-.08,2.184-0.08h0.384a0.592,0.592,0,0,1,.672.68v0.55a0.578,0.578,0,0,1-.672.67h-0.072c-0.7,0-1.392-.05-2.088-0.05-0.6,0-.576.36-0.576,1.11,0,0.81,0,1.13.6,1.13,0.7,0,1.392-.05,2.064-0.05h0.072a0.571,0.571,0,0,1,.672.65c0.024,0.88-.072,1.77-0.072,2.63,0,0.75.24,0.77,1.2,0.77,0.984,0,1.2-.02,1.2-0.74,0-.89-0.072-1.78-0.048-2.66a0.564,0.564,0,0,1,.649-0.65h0.215c0.7,0,1.393.05,2.089,0.05,0.6,0,.576-0.37.576-1.13s0.024-1.11-.576-1.11c-0.7,0-1.392.05-2.089,0.05H754.7a0.562,0.562,0,0,1-.649-0.67v-0.55a0.576,0.576,0,0,1,.649-0.68h0.48c0.72,0,1.44.08,2.184,0.08,0.624,0,.6-0.32.6-1.13,0-.77.024-1.08-0.6-1.08-0.336,0-.7.02-1.056,0.02a0.36,0.36,0,0,1-.432-0.36,0.459,0.459,0,0,1,.048-0.19C756.111,1393.01,756.279,1392.55,756.471,1392.12Zm24.263,8.74a0.624,0.624,0,0,1-.672-0.65v-2.06a0.624,0.624,0,0,1,.672-0.65h8.641a0.594,0.594,0,0,1,.648.65v2.06a0.594,0.594,0,0,1-.648.65h-8.641Zm8.713,2.09a0.472,0.472,0,0,1,.552.52,1.107,1.107,0,0,0-.024.27c0,0.52.408,0.5,1.3,0.5,1.008,0,1.32,0,1.32-.53,0-.48-0.072-1.2-0.072-1.77v-4.13c0-.48.048-0.99,0.048-1.47,0-.88-0.72-0.98-1.44-0.98-0.672,0-1.368.02-2.04,0.02H781c-0.672,0-1.368-.02-2.064-0.02-0.72,0-1.416.12-1.416,1.01,0,0.48.048,0.96,0.048,1.44v4.08c0,0.57-.048,1.27-0.048,1.77,0,0.53.312,0.53,1.3,0.53,0.96,0,1.3,0,1.3-.53v-0.19a0.463,0.463,0,0,1,.552-0.52h8.785Zm-8.809-17.02a0.385,0.385,0,0,1-.456-0.36,0.568,0.568,0,0,1,.048-0.22c0.36-.86.36-1.01,0.744-1.13a0.328,0.328,0,0,0,.337-0.28,1.265,1.265,0,0,0-.937-0.56,16.735,16.735,0,0,0-1.656-.38,0.292,0.292,0,0,0-.288.29,24.548,24.548,0,0,1-3.1,6,1.147,1.147,0,0,0-.264.5c0,0.41,1.44,1.08,1.848,1.08a0.709,0.709,0,0,0,.528-0.43c0.36-.5.84-1.32,1.152-1.85a0.906,0.906,0,0,1,.96-0.53h3.7a0.584,0.584,0,0,1,.672.68v1.89a0.569,0.569,0,0,1-.672.67H778c-0.984,0-1.992-.04-2.976-0.04-0.576,0-.552.28-0.552,1.12,0,0.87-.024,1.16.552,1.16,0.984,0,1.992-.05,2.976-0.05h14.161c0.985,0,1.993.05,2.977,0.05,0.576,0,.552-0.29.552-1.16,0-.84.024-1.12-0.552-1.12-1.008,0-1.992.04-2.977,0.04h-5.184a0.569,0.569,0,0,1-.672-0.67v-1.89a0.576,0.576,0,0,1,.672-0.68h3.36c0.936,0,1.848.05,2.785,0.05,0.576,0,.552-0.26.552-1.1,0-.87.024-1.13-0.552-1.13-0.937,0-1.849.05-2.785,0.05h-3.36a0.567,0.567,0,0,1-.672-0.63v-0.72a1.269,1.269,0,0,1,.264-1.05,0.462,0.462,0,0,0,.288-0.36c0-.29-0.408-0.29-0.624-0.31-0.36-.05-1.7-0.2-2.016-0.2a0.342,0.342,0,0,0-.408.34c0,0.07.024,0.17,0.024,0.24a14.3,14.3,0,0,1,.1,2.04,0.563,0.563,0,0,1-.672.65h-2.617Z" transform="translate(-693.906 -1382.59)"/>
</svg>
