<svg xmlns="http://www.w3.org/2000/svg" width="434.62" height="77.031" viewBox="0 0 434.62 77.031">
  <defs>
    <style>
      .cls-1 {
        fill: #51a6da;
        fill-rule: evenodd;
      }
    </style>
  </defs>
  <path id="大学生活を楽しみ3年生から_M-CAP参加" data-name="大学生活を楽しみ3年生から M-CAP参加" class="cls-1" d="M2631.38,364.93c-1.53,5.92-5.56,9.727-10.97,12.223a1.591,1.591,0,0,1-.22.1,0.974,0.974,0,0,0-.71.736c0,0.512.83,2.656,1.63,2.656a2.742,2.742,0,0,0,1.12-.384,0.3,0.3,0,0,0,.16-0.064,23.069,23.069,0,0,0,11.17-11.551,0.477,0.477,0,0,1,.35-0.256,0.344,0.344,0,0,1,.32.224,25.939,25.939,0,0,0,8.45,10.207c0.51,0.384,2.59,1.824,3.14,1.824,0.73,0,1.88-1.76,1.88-2.432a0.844,0.844,0,0,0-.6-0.736,23.545,23.545,0,0,1-11.01-12.575c0-.1-0.03-0.16-0.03-0.288a0.56,0.56,0,0,1,.64-0.512h6.88c1.24,0,2.49.064,3.74,0.064,0.83,0,.77-0.384.77-1.664,0-1.248.06-1.7-.74-1.7-1.28,0-2.53.1-3.77,0.1h-7.2a0.756,0.756,0,0,1-.87-0.832c0.1-1.983.03-3.935,0.1-5.887a0.963,0.963,0,0,1,.48-0.992,0.461,0.461,0,0,0,.25-0.352,0.559,0.559,0,0,0-.6-0.416c-0.58-.064-2.47-0.224-3.01-0.224-0.35,0-.71.064-0.71,0.512a0.445,0.445,0,0,0,.04.224,25.9,25.9,0,0,1,.09,2.752v1.344c0,0.992-.03,2.016-0.09,3.007a0.8,0.8,0,0,1-.93.864h-7.14c-1.24,0-2.49-.1-3.74-0.1-0.8,0-.77.416-0.77,1.7,0,1.248-.03,1.664.77,1.664,1.25,0,2.5-.064,3.74-0.064h6.69a0.6,0.6,0,0,1,.7.608v0.224Zm39.3-8.479a6.243,6.243,0,0,0-.86-1.76,3.1,3.1,0,0,1-.2-0.288c-0.86-1.312-1.34-2.176-1.95-2.176-0.57,0-2.17.736-2.17,1.408a1.02,1.02,0,0,0,.25.576,31.285,31.285,0,0,1,2.02,3.2,0.826,0.826,0,0,0,.7.544C2669.02,357.955,2670.68,357.123,2670.68,356.451Zm6.98,1.888a0.389,0.389,0,0,1-.39-0.384,0.419,0.419,0,0,1,.1-0.288,29.346,29.346,0,0,0,1.73-2.592,0.846,0.846,0,0,1,.64-0.448,0.519,0.519,0,0,0,.54-0.384,0.652,0.652,0,0,0-.51-0.512,15.236,15.236,0,0,0-2.72-1.024,0.548,0.548,0,0,0-.45.416,30.46,30.46,0,0,1-3.07,4.64,1.468,1.468,0,0,1-1.38.576h-9.82a0.157,0.157,0,0,1-.19-0.16,0.233,0.233,0,0,1,.09-0.192,1.629,1.629,0,0,0,.96-1.056,7.182,7.182,0,0,0-1.15-2.112c-0.93-1.344-1.31-1.856-1.82-1.856-0.61,0-2.21.8-2.21,1.408a0.946,0.946,0,0,0,.26.576,31.836,31.836,0,0,1,1.82,2.688,0.988,0.988,0,0,1,.06.288,0.438,0.438,0,0,1-.48.416c-0.6-.032-1.21-0.032-1.85-0.032-0.93,0-1.7.128-1.7,1.28,0,0.64.03,1.311,0.03,2.015v1.184c0,0.48-.06,1.024-0.06,1.472,0,0.832.42,0.832,1.63,0.832,1.15,0,1.67,0,1.67-.8,0-.48-0.07-0.992-0.07-1.5v-0.9a0.764,0.764,0,0,1,.9-0.9h17.72a0.774,0.774,0,0,1,.9.9v0.9c0,0.512-.1.992-0.1,1.5,0,0.8.52,0.8,1.7,0.8,1.22,0,1.66,0,1.66-.8,0-.512-0.09-1.024-0.09-1.5V361.6c0-.736.06-1.407,0.06-2.047,0-1.12-.8-1.248-1.73-1.248C2679.45,358.307,2678.55,358.339,2677.66,358.339Zm0.38,14.815c1.28,0,2.59.064,3.87,0.064,0.74,0,.71-0.352.71-1.44s0.03-1.472-.71-1.472c-1.28,0-2.59.1-3.87,0.1h-6.98a0.218,0.218,0,0,1-.19-0.128,0.25,0.25,0,0,1,.13-0.192c0.99-.672,5.7-4,5.7-5.056a2.324,2.324,0,0,0-.68-1.184,1.426,1.426,0,0,0-1.31-.672c-0.89,0-1.76.064-2.65,0.064h-6.92c-1.08,0-2.17-.1-3.29-0.1-0.77,0-.77.32-0.77,1.44,0,1.056,0,1.44.74,1.44,1.12,0,2.24-.1,3.32-0.1h5.6c0.36,0,.8-0.032.8,0.224a7.767,7.767,0,0,1-1.72,1.6,1.481,1.481,0,0,1-1.03.32h-0.16c-0.19,0-.38-0.032-0.61-0.032a0.435,0.435,0,0,0-.54.448c0,0.128.06,0.8,0.1,1.056a0.754,0.754,0,0,1-.87.864h-6.56c-1.31,0-2.59-.1-3.87-0.1-0.73,0-.73.384-0.73,1.472,0,1.12,0,1.44.73,1.44,1.31,0,2.59-.064,3.87-0.064h6.56a0.763,0.763,0,0,1,.9.895v1.344c0,1.792.03,2.272-2.11,2.272-0.61,0-1.22-.064-1.67-0.064a0.731,0.731,0,0,0-.83.864,4.1,4.1,0,0,0,.39,1.76c0.31,0.544.96,0.512,1.79,0.512,1.34,0,3.64,0,4.76-.864a2.864,2.864,0,0,0,.96-2.3c0-.768-0.06-1.536-0.06-2.3v-1.216a0.774,0.774,0,0,1,.9-0.895h6.3Zm20.19-14.687a0.547,0.547,0,0,1-.67-0.544,0.749,0.749,0,0,1,.03-0.256c0.16-.512.29-0.96,0.39-1.28,0.29-1.056.35-1.28,0.86-1.536a0.754,0.754,0,0,0,.58-0.576c0-.384-0.55-0.448-2.08-0.864-0.29-.064-1.35-0.352-1.57-0.352-0.42,0-.45.48-0.51,0.832a26.469,26.469,0,0,1-4.93,11.1,1.683,1.683,0,0,0-.48.832c0,0.7,1.86,1.5,2.43,1.5,0.93,0,3.01-4.064,3.46-4.928a1.139,1.139,0,0,1,1.21-.736h4.67a0.764,0.764,0,0,1,.9.9v3.424a0.764,0.764,0,0,1-.9.9h-3.96c-1.28,0-2.53-.1-3.81-0.1-0.9,0-.86.416-0.86,1.632,0,1.248-.04,1.664.86,1.664,1.28,0,2.53-.1,3.81-0.1h3.96a0.764,0.764,0,0,1,.9.9v4.639a0.754,0.754,0,0,1-.9.864h-6.75c-1.31,0-2.65-.064-4-0.064-0.83,0-.8.384-0.8,1.664,0,1.248-.03,1.664.8,1.664,1.35,0,2.69-.064,4-0.064h18.69c1.34,0,2.66.064,4,.064,0.83,0,.8-0.416.8-1.664s0.06-1.664-.8-1.664c-1.34,0-2.69.064-4,.064h-6.62a0.764,0.764,0,0,1-.9-0.864v-4.639a0.774,0.774,0,0,1,.9-0.9H2711c1.28,0,2.56.1,3.84,0.1,0.86,0,.83-0.448.83-1.664,0-1.184.03-1.632-.83-1.632-1.28,0-2.56.1-3.84,0.1h-4.06a0.774,0.774,0,0,1-.9-0.9v-3.424a0.774,0.774,0,0,1,.9-0.9h5.44c1.31,0,2.62.064,3.93,0.064,0.83,0,.77-0.416.77-1.664s0.06-1.663-.77-1.663c-1.31,0-2.62.064-3.93,0.064h-5.44a0.764,0.764,0,0,1-.9-0.864v-2.4c0-1.12.03-1.728,0.38-2.016a0.65,0.65,0,0,0,.42-0.48c0-.384-0.54-0.416-0.83-0.448-0.51-.064-2.59-0.256-3.04-0.256-0.32,0-.61.064-0.61,0.448,0,0.1.03,0.224,0.03,0.32,0.07,0.7.13,1.568,0.13,2.4V357.6a0.754,0.754,0,0,1-.9.864h-3.39Zm35.49,10.687c0-.512-1.82-1.76-2.21-1.76-0.25,0-.32.16-0.57,0.672a49.246,49.246,0,0,1-5.31,8.9,1.519,1.519,0,0,0-.39.7,1.786,1.786,0,0,0,.74.9,9.509,9.509,0,0,0,2.05,1.536,0.414,0.414,0,0,0,.35-0.48c0-.1-0.03-0.192-0.03-0.288v-0.256a1.865,1.865,0,0,1,.38-0.9,80.091,80.091,0,0,0,4.61-8.031A4.489,4.489,0,0,0,2733.72,369.154Zm-6.81-9.887c-0.52,0-1.64,1.663-1.64,2.079a1.016,1.016,0,0,0,.61.64,41.257,41.257,0,0,1,3.81,2.784,1.055,1.055,0,0,0,.64.352c0.54,0,1.7-1.568,1.7-2.08,0-.416-0.9-1.088-1.48-1.5C2729.82,361.026,2727.42,359.267,2726.91,359.267Zm6.62-3.264a0.686,0.686,0,0,0-.32-0.512c-0.45-.416-1.44-1.152-1.98-1.536a10.967,10.967,0,0,0-2.66-1.568c-0.61,0-1.66,1.76-1.66,2.048a0.918,0.918,0,0,0,.6.7c1.16,0.768,2.31,1.536,3.4,2.4a1.959,1.959,0,0,0,.86.512C2732.35,358.051,2733.53,356.547,2733.53,356Zm6.91,19.966a0.857,0.857,0,0,1-.9-0.864v-3.551a0.926,0.926,0,0,1,.9-0.9h7.04a0.9,0.9,0,0,1,.9.9v3.551a0.877,0.877,0,0,1-.9.864h-7.04Zm7.87,3.712c-0.03.96,0.07,0.96,1.67,0.96,1.24,0,1.66.032,1.66-.64,0-.448-0.06-1.44-0.06-2.24v-6.943c0-.736.03-1.344,0.03-1.92,0-1.152-1.12-1.248-2.02-1.248-0.8,0-1.63.064-2.43,0.064h-0.64a0.8,0.8,0,0,1-.9-0.9v-2.24a0.754,0.754,0,0,1,.9-0.864h3.07c1.12,0,2.24.064,3.36,0.064,0.83,0,.8-0.448.8-1.568s0.03-1.536-.8-1.536c-1.12,0-2.24.064-3.36,0.064h-3.07a0.763,0.763,0,0,1-.9-0.895v-2.56a0.894,0.894,0,0,1,.84-1.056c1.31-.288,2.65-0.608,3.93-1.024a4.041,4.041,0,0,1,.77-0.224,1.536,1.536,0,0,1,.38.1,1.668,1.668,0,0,0,.42.064,0.394,0.394,0,0,0,.42-0.288c0-.384-1.96-2.784-2.37-2.784a1.579,1.579,0,0,0-.55.16c-3.48,1.44-8.89,2.144-12.7,2.336-0.93.032-1.28,0.064-1.28,0.672a4.813,4.813,0,0,0,.45,1.792,0.769,0.769,0,0,0,.83.48c0.83,0,3.87-.352,4.8-0.48a0.7,0.7,0,0,1,.83.8v2.016a0.756,0.756,0,0,1-.89.895h-2.98c-1.15,0-2.27-.064-3.39-0.064-0.8,0-.77.416-0.77,1.536s-0.03,1.568.77,1.568c1.12,0,2.24-.064,3.39-0.064h2.98a0.747,0.747,0,0,1,.89.864v2.24a0.768,0.768,0,0,1-.89.9h-0.84c-0.83,0-1.63-.064-2.46-0.064-0.9,0-2.02.1-2.02,1.28,0,0.64.07,1.248,0.07,1.888V377.7c0,0.7-.07,1.664-0.07,2.24,0,0.672.45,0.64,1.73,0.64,1.6,0,1.73-.032,1.7-0.9a0.62,0.62,0,0,1,.73-0.7h7.24A0.621,0.621,0,0,1,2748.31,379.681Zm25.03-27.55c-0.32,0-.39.32-0.45,0.672a17.994,17.994,0,0,1-1.73,4.128,2.821,2.821,0,0,1-1.98.416h-0.93c-0.93,0-1.76-.064-2.3-0.064-0.8,0-.93.192-0.93,1.472,0,1.631.13,1.791,0.83,1.791,0.99,0,1.73-.1,2.24-0.1,0.45,0,.7.1,0.7,0.384,0,0.608-4.64,7.04-5.37,7.84a1.347,1.347,0,0,0-.42.7c0,0.576,2.15,1.856,2.72,1.856a0.532,0.532,0,0,0,.45-0.32,20.788,20.788,0,0,1,2.69-3.744,10.752,10.752,0,0,1,5.98-2.816,1.331,1.331,0,0,1,1.41,1.088,4.686,4.686,0,0,1,.16.9,0.823,0.823,0,0,1-.58.736c-0.67.32-1.34,0.672-1.98,1.056-2.21,1.312-4.54,2.88-4.54,5.76a4.854,4.854,0,0,0,3.19,4.575,11.894,11.894,0,0,0,5.06.832,42.287,42.287,0,0,0,6.14-.416c0.71-.16.74-0.416,0.74-1.376,0-1.824-.22-2.176-0.64-2.176a3.962,3.962,0,0,0-.64.064,23.406,23.406,0,0,1-5.95.8c-1.54,0-4.64-.192-4.64-2.335,0-1.984,3.29-3.392,3.45-3.392a0.447,0.447,0,0,1,.42.544c0,0.672-.06,1.376-0.06,2.08,0,0.832.57,0.9,1.95,0.9,1.21,0,1.37-.128,1.37-1.28,0-.992-0.03-1.952-0.03-2.944v-0.416a0.985,0.985,0,0,1,.83-1.056c1.25-.544,2.5-1.088,3.78-1.568,0.16-.064.32-0.1,0.45-0.16,0.61-.192.96-0.32,0.96-0.7,0-.544-0.77-3.008-1.38-3.008a2.647,2.647,0,0,0-.83.32,28.573,28.573,0,0,1-3.74,1.824,0.527,0.527,0,0,1-.48-0.544,3.266,3.266,0,0,0-3.65-2.88,8.847,8.847,0,0,0-3.49.832,1.219,1.219,0,0,1-.58.192,0.247,0.247,0,0,1-.25-0.224,9.893,9.893,0,0,1,1.09-1.856,1.121,1.121,0,0,1,.96-0.512c2.01-.223,4.03-0.575,6.04-0.991,0.68-.128,1.7-0.256,1.7-0.8a9.839,9.839,0,0,0-.26-1.728,0.933,0.933,0,0,0-.8-0.96,2.494,2.494,0,0,0-.8.192,23.079,23.079,0,0,1-3.71.9,0.31,0.31,0,0,1-.35-0.32,2.075,2.075,0,0,1,.32-0.736,1.751,1.751,0,0,1,1.06-1.088,0.515,0.515,0,0,0,.38-0.384C2776.92,353.6,2773.62,352.131,2773.34,352.131Zm50.65,13.535a0.65,0.65,0,0,0-.25-0.48c-0.45-.448-1.89-1.6-2.4-2.016-0.48-.384-2.63-2.112-3.08-2.112a3,3,0,0,0-1.76,1.952,0.922,0.922,0,0,0,.52.64,46.127,46.127,0,0,1,4.35,3.488,1.556,1.556,0,0,0,.73.48A3.246,3.246,0,0,0,2823.99,365.666Zm-20.6-2.624a3.492,3.492,0,0,0-1.64-1.984,0.763,0.763,0,0,0-.51.288,36.432,36.432,0,0,1-5.15,3.424,0.667,0.667,0,0,0-.48.48c0,0.32,1.63,2.656,2.02,2.656a0.468,0.468,0,0,0,.38-0.512,0.748,0.748,0,0,1,.54-0.576c1.48-.992,2.95-2.016,4.36-3.136A0.955,0.955,0,0,0,2803.39,363.042Zm20.7-7.551a5.844,5.844,0,0,0-1.57-1.536,3.621,3.621,0,0,0-1.09-.7,0.877,0.877,0,0,0-.48.352,24.969,24.969,0,0,1-3.71,3.456,1.287,1.287,0,0,0-.67.736,3.205,3.205,0,0,0,1.89,1.824c0.73,0,3.71-2.816,4.35-3.456a0.944,0.944,0,0,1,.51-0.352h0.29A0.393,0.393,0,0,0,2824.09,355.491Zm-21.18,2.272c0-.512-1.06-1.344-1.57-1.792-0.45-.416-2.21-1.952-2.66-2.3a1,1,0,0,0-.54-0.288,3.044,3.044,0,0,0-1.89,1.824,0.955,0.955,0,0,0,.48.64c1.22,1.024,2.43,2.08,3.58,3.232a1.2,1.2,0,0,0,.77.48A2.978,2.978,0,0,0,2802.91,357.763Zm9.63,4.1a0.737,0.737,0,0,1,.76.768v0.448a0.737,0.737,0,0,1-.76.768h-5.16a0.737,0.737,0,0,1-.76-0.768v-0.448a0.737,0.737,0,0,1,.76-0.768h5.16Zm-5.16-2.367a0.737,0.737,0,0,1-.76-0.768v-0.416a0.737,0.737,0,0,1,.76-0.768h5.16a0.737,0.737,0,0,1,.76.768v0.416a0.737,0.737,0,0,1-.76.768h-5.16Zm1.32-7.264a19.782,19.782,0,0,1-.9,2.016,1.145,1.145,0,0,1-1.25.7c-0.54,0-1.12-.032-1.66-0.032a1.04,1.04,0,0,0-1.22,1.216c0,0.64.04,1.312,0.04,1.952v5.855c0,0.544-.04,1.536-0.04,2.016,0,0.864.61,0.832,1.54,0.832a2.417,2.417,0,0,0,1.25-.192,0.564,0.564,0,0,1,.38-0.16h6.24a0.731,0.731,0,0,1,.42.192,3.012,3.012,0,0,0,1.21.16c0.93,0,1.54.032,1.54-.832,0-.672-0.03-1.344-0.03-2.016v-5.855c0-.672.03-1.344,0.03-2.016a1.03,1.03,0,0,0-1.22-1.152c-0.64,0-1.28.032-1.92,0.032h-1.44a0.432,0.432,0,0,1-.51-0.416,0.572,0.572,0,0,1,.1-0.32c0.09-.128.16-0.288,0.28-0.448a0.732,0.732,0,0,1,.52-0.352c0.22-.064.6-0.1,0.6-0.384,0-.448-1.56-0.768-2.27-0.96a10.144,10.144,0,0,0-1.28-.32C2808.79,351.747,2808.76,351.971,2808.7,352.227Zm3.45,21.311a39.273,39.273,0,0,0,7.46,5.183,13.249,13.249,0,0,0,2.75,1.28c0.74,0,1.82-1.664,1.82-2.208a1.17,1.17,0,0,0-.89-0.7,37.061,37.061,0,0,1-8.1-4.607,0.521,0.521,0,0,1-.13-0.256,0.309,0.309,0,0,1,.36-0.288h4c1.28,0,2.52.064,3.8,0.064,0.77,0,.74-0.352.74-1.44,0-1.12.03-1.472-.74-1.472-1.28,0-2.52.064-3.8,0.064h-7.01a0.729,0.729,0,0,1-.87-0.608,0.81,0.81,0,0,1,.32-0.608,0.591,0.591,0,0,0,.36-0.416c0-.384-0.48-0.384-0.84-0.448-0.57-.064-2.11-0.192-2.62-0.192a0.462,0.462,0,0,0-.58.448c0,0.128.07,0.672,0.1,0.992a0.729,0.729,0,0,1-.86.832h-7.07c-1.28,0-2.53-.064-3.81-0.064-0.77,0-.74.32-0.74,1.472,0,1.088-.03,1.44.74,1.44,1.28,0,2.53-.064,3.81-0.064h3.9a0.379,0.379,0,0,1,.38.288,0.358,0.358,0,0,1-.12.288,30.962,30.962,0,0,1-8.04,4.479,1.2,1.2,0,0,0-.96.736c0,0.544,1,2.208,1.67,2.208a12.935,12.935,0,0,0,2.91-1.152,30.854,30.854,0,0,0,7.61-5.183,0.64,0.64,0,0,1,.26-0.1,0.355,0.355,0,0,1,.35.384v2.847c0,1.056-.09,2.112-0.09,3.04,0,0.992.48,0.96,1.69,0.96,1.28,0,1.67.032,1.67-.992,0-.992-0.07-1.984-0.07-3.008v-2.911a0.373,0.373,0,0,1,.32-0.416A0.547,0.547,0,0,1,2812.15,373.538Zm26.53-19.1c-0.45,0-.48.32-0.48,0.8v0.352c0,1.312-.29,4.384-0.38,5.855q-0.285,3.792-.29,7.584c0,2.336.16,5.439,1.6,7.359a7.067,7.067,0,0,0,5.63,2.464,11.206,11.206,0,0,0,9.73-6.111,11.842,11.842,0,0,0,1.31-3.744c0-.96-1.95-2.592-2.66-2.592-0.48,0-.54.544-0.64,1.056a10.068,10.068,0,0,1-1.95,4.736,8.1,8.1,0,0,1-6.01,3.1c-3.46,0-3.4-3.871-3.4-6.367,0-1.824.29-11.967,1.41-12.8a0.71,0.71,0,0,0,.39-0.48,0.668,0.668,0,0,0-.64-0.448A27,27,0,0,0,2838.68,354.435Zm36.29,13.887a8.974,8.974,0,0,1-.77,1.728c-0.41.736-1.31,2.432-2.27,2.432a0.878,0.878,0,0,1-.83-1.024c0-2.016,2.62-3.488,3.52-3.488A0.336,0.336,0,0,1,2874.97,368.322Zm6.78-13.919a2.1,2.1,0,0,0-.99.384,30.134,30.134,0,0,1-7.36,2.24c-0.57.1-1.05,0.1-1.05,0.512s0.92,2.975,1.92,2.975a4.647,4.647,0,0,0,1.24-.383c1.06-.416,3.65-1.408,3.75-1.408a0.325,0.325,0,0,1,.35.32,0.9,0.9,0,0,1-.16.448c-0.74,1.439-1.41,2.911-2.11,4.351a1.117,1.117,0,0,1-1,.8,17.232,17.232,0,0,0-1.85.288c-3.07.7-6.24,3.264-6.24,6.624a3.906,3.906,0,0,0,3.81,4.1,4.285,4.285,0,0,0,3.61-2.175,51.351,51.351,0,0,0,2.56-4.768,1,1,0,0,1,.93-0.672,16.07,16.07,0,0,1,3.07.8c1.19,0.416,1.7.64,1.7,1.216,0,0.64-2.5,4.639-5.83,6.367a1.028,1.028,0,0,0-.6.608c0,0.608,2.17,1.984,2.65,1.984a9.724,9.724,0,0,0,2.43-1.7,21.149,21.149,0,0,0,4.16-5.375,0.839,0.839,0,0,1,.68-0.544,8.8,8.8,0,0,1,2.59,1.664,2.322,2.322,0,0,0,.96.672c0.64,0,2.24-2.5,2.24-3.1a0.935,0.935,0,0,0-.71-0.7c-0.44-.224-2.33-1.248-2.97-1.568a1.1,1.1,0,0,1-.74-0.992,2.428,2.428,0,0,1,.13-0.64c0.26-.992.51-2.016,0.7-3.04a2.98,2.98,0,0,1,.23-0.832,1.377,1.377,0,0,0,.51-0.7,0.56,0.56,0,0,0-.58-0.416c-0.38-.1-2.97-0.64-3.23-0.64a0.5,0.5,0,0,0-.48.608c0,0.16.03,0.32,0.03,0.48a20.353,20.353,0,0,1-.44,3.36,0.745,0.745,0,0,1-.74.7,1.526,1.526,0,0,1-.54-0.16,20.584,20.584,0,0,0-2.21-.736c-1.12-.288-1.76-0.32-1.76-0.9a1.188,1.188,0,0,1,.19-0.544c0.86-1.7,2.43-5.087,3.71-6.3a0.811,0.811,0,0,0,.32-0.544C2884.63,356.355,2882.39,354.4,2881.75,354.4Zm31.46,11.423a5.2,5.2,0,0,0,2.69-4.768c0-2.879-2.15-5.535-7.39-5.535a13.849,13.849,0,0,0-6.34,1.5,0.816,0.816,0,0,0-.64.672,1.648,1.648,0,0,0,.19.64l0.71,1.472a0.775,0.775,0,0,0,.57.639,1.319,1.319,0,0,0,.64-0.287,8.393,8.393,0,0,1,4.48-1.248c2.47,0,4.03,1.087,4.03,2.815,0,1.76-1.44,3.136-5.31,3.136-0.61,0-1.47-.032-1.82-0.032-0.83,0-.96.128-0.96,0.96v1.44c0,0.8.13,0.928,0.96,0.928,0.32,0,1.44-.032,2.14-0.032,4.13,0,5.98,1.12,5.98,3.328,0,2.016-1.88,3.967-5.66,3.967a9.745,9.745,0,0,1-4.96-1.247,1.608,1.608,0,0,0-.61-0.256,0.733,0.733,0,0,0-.54.671l-0.54,1.568a1.393,1.393,0,0,0-.13.576,0.843,0.843,0,0,0,.67.736,14.958,14.958,0,0,0,5.98,1.152c6.98,0,9.6-3.552,9.6-7.1a5.009,5.009,0,0,0-3.68-5.056,0.589,0.589,0,0,1-.48-0.288A0.671,0.671,0,0,1,2913.21,365.826Zm23.61-.192a0.893,0.893,0,0,1,.9.9v2.848a0.874,0.874,0,0,1-.9.9h-3.96a0.892,0.892,0,0,1-.9-0.9V366.53a0.912,0.912,0,0,1,.9-0.9h3.96Zm4.39-6.367a0.757,0.757,0,0,1,.89-0.9h3.88c1.31,0,2.59.064,3.9,0.064,0.8,0,.77-0.416.77-1.632,0-1.248.03-1.664-.77-1.664-1.31,0-2.59.1-3.9,0.1h-11.62a0.5,0.5,0,0,1-.58-0.48,1.226,1.226,0,0,1,.07-0.32c0.32-.672.29-0.768,0.8-0.928a0.593,0.593,0,0,0,.48-0.416,0.585,0.585,0,0,0-.55-0.448,28.933,28.933,0,0,0-3.1-.864,0.48,0.48,0,0,0-.45.448,22.373,22.373,0,0,1-6.56,9.727,2.12,2.12,0,0,0-.8.96,3.6,3.6,0,0,0,2.15,2.112,1.922,1.922,0,0,0,1.05-.7,31.282,31.282,0,0,0,4.39-5.279,1.356,1.356,0,0,1,1.34-.672h4.22a0.764,0.764,0,0,1,.9.9V361.7a0.8,0.8,0,0,1-.9.9h-4.19c-0.76,0-1.53-.064-2.3-0.064-1.09,0-1.57.32-1.57,1.44,0,0.8.03,1.568,0.03,2.368v3.04a0.742,0.742,0,0,1-.8.9c-1.05.032-2.11-.064-3.13-0.064-0.8,0-.77.352-0.77,1.632,0,1.216-.03,1.568.77,1.568,1.34,0,2.69-.064,4.03-0.064h7.93a0.764,0.764,0,0,1,.9.9v0.895c0,1.568-.1,3.1-0.1,4.672,0,1.024.42,1.024,1.83,1.024,1.44,0,1.85,0,1.85-1.056,0-1.536-.09-3.072-0.09-4.64v-0.895a0.757,0.757,0,0,1,.89-0.9h5.28c1.35,0,2.69.064,4.04,0.064,0.8,0,.76-0.352.76-1.6,0-1.216.04-1.6-.76-1.6-1.35,0-2.69.064-4.04,0.064h-5.28a0.757,0.757,0,0,1-.89-0.9V366.53a0.757,0.757,0,0,1,.89-0.9h2.56c1.12,0,2.21.064,3.33,0.064,0.77,0,.8-0.32.8-1.568,0-1.28,0-1.632-.8-1.632-1.12,0-2.21.1-3.33,0.1h-2.56a0.791,0.791,0,0,1-.89-0.9v-2.431Zm26.05-.8a0.543,0.543,0,0,1-.67-0.544,0.749,0.749,0,0,1,.03-0.256c0.16-.512.28-0.96,0.38-1.28,0.29-1.056.35-1.28,0.86-1.536a0.754,0.754,0,0,0,.58-0.576c0-.384-0.54-0.448-2.08-0.864-0.29-.064-1.34-0.352-1.57-0.352-0.41,0-.44.48-0.51,0.832a26.222,26.222,0,0,1-4.93,11.1,1.683,1.683,0,0,0-.48.832c0,0.7,1.86,1.5,2.44,1.5,0.92,0,3-4.064,3.45-4.928a1.151,1.151,0,0,1,1.22-.736h4.67a0.757,0.757,0,0,1,.89.9v3.424a0.757,0.757,0,0,1-.89.9h-3.97c-1.28,0-2.53-.1-3.81-0.1-0.89,0-.86.416-0.86,1.632,0,1.248-.03,1.664.86,1.664,1.28,0,2.53-.1,3.81-0.1h3.97a0.757,0.757,0,0,1,.89.9v4.639a0.747,0.747,0,0,1-.89.864h-6.75c-1.31,0-2.66-.064-4-0.064-0.83,0-.8.384-0.8,1.664,0,1.248-.03,1.664.8,1.664,1.34,0,2.69-.064,4-0.064h18.68c1.35,0,2.66.064,4,.064,0.84,0,.8-0.416.8-1.664s0.07-1.664-.8-1.664c-1.34,0-2.68.064-4,.064h-6.62a0.764,0.764,0,0,1-.9-0.864v-4.639a0.774,0.774,0,0,1,.9-0.9h4.06c1.28,0,2.56.1,3.84,0.1,0.87,0,.84-0.448.84-1.664,0-1.184.03-1.632-.84-1.632-1.28,0-2.56.1-3.84,0.1h-4.06a0.774,0.774,0,0,1-.9-0.9v-3.424a0.774,0.774,0,0,1,.9-0.9h5.44c1.31,0,2.62.064,3.94,0.064,0.83,0,.76-0.416.76-1.664s0.07-1.663-.76-1.663c-1.32,0-2.63.064-3.94,0.064h-5.44a0.764,0.764,0,0,1-.9-0.864v-2.4c0-1.12.04-1.728,0.39-2.016a0.655,0.655,0,0,0,.41-0.48c0-.384-0.54-0.416-0.83-0.448-0.51-.064-2.59-0.256-3.04-0.256-0.32,0-.61.064-0.61,0.448,0,0.1.04,0.224,0.04,0.32,0.06,0.7.12,1.568,0.12,2.4V357.6a0.747,0.747,0,0,1-.89.864h-3.39Zm49.31-1.568c-0.58,0-2.43,1.12-2.43,1.7a0.856,0.856,0,0,0,.28.544,22.109,22.109,0,0,1,4.29,6.847,0.961,0.961,0,0,0,.74.736c0.64,0,2.65-1.184,2.65-1.888C3022.1,364.034,3017.75,356.9,3016.57,356.9Zm-11.62-3.168c-0.35,0-.35.384-0.35,0.64,0,0.384.03,0.736,0.03,1.088a29.812,29.812,0,0,1-.32,4.128,1.018,1.018,0,0,1-1.05.959,50.111,50.111,0,0,1-5.31.992c-0.42.032-.96,0.032-0.96,0.512,0,0.16.54,3.3,1.34,3.3a2.642,2.642,0,0,0,.67-0.192,26.3,26.3,0,0,1,3.65-1.12,0.385,0.385,0,0,1,.41.416,17.56,17.56,0,0,1-.8,2.4,26.174,26.174,0,0,1-5.69,8.927,1.209,1.209,0,0,0-.45.736c0,0.736,2.05,1.952,2.59,1.952a0.873,0.873,0,0,0,.58-0.32,37.075,37.075,0,0,0,3.2-4.607,37.983,37.983,0,0,0,4.06-9.5c0.23-.9.55-1.152,2.37-1.152,1.92,0,2.02,1.312,2.02,2.912a19.236,19.236,0,0,1-1.41,7.232,3.066,3.066,0,0,1-3.33,1.951c-0.64,0-1.18-.1-1.5-0.1a0.434,0.434,0,0,0-.42.544,7.094,7.094,0,0,0,.54,2.272,1.365,1.365,0,0,0,1.48.768,6.529,6.529,0,0,0,6.04-3.456c1.41-2.559,1.92-6.879,1.92-9.823,0-1.76-.35-3.616-1.95-4.64a6.269,6.269,0,0,0-3.65-.735c-0.12,0-.25.032-0.38,0.032a0.645,0.645,0,0,1-.7-0.672,1.443,1.443,0,0,1,.06-0.352c0.1-.544.16-0.992,0.22-1.376,0.2-1.12.26-1.632,0.87-2.08a0.464,0.464,0,0,0,.25-0.384,0.856,0.856,0,0,0-.8-0.512C3007.7,354.339,3005.27,353.731,3004.95,353.731Zm32.07,5.152c-0.51,0-.55.48-0.55,1.407,0,0.224-.03.448-0.03,0.7a49.589,49.589,0,0,1-.77,6.976c-0.19,1.056-.44,2.112-0.73,3.136a4.72,4.72,0,0,0-.32,1.12c0,0.928,2.14,1.248,2.43,1.248a1.3,1.3,0,0,0,.96-0.672c2.01-2.528,5.41-5.344,8.77-5.344,2.04,0,3.84,1.184,3.84,3.392,0,2.72-2.37,3.711-4.64,4.287a21.439,21.439,0,0,1-4.26.64c-0.42.032-.8,0.064-0.8,0.576a6.764,6.764,0,0,0,.54,2.08,1.14,1.14,0,0,0,1.19.9,21.39,21.39,0,0,0,4.16-.864c3.87-1.152,7.26-3.072,7.26-7.615,0-4.032-3.04-6.656-6.97-6.656-3.04,0-4.96,1.28-7.33,2.944a0.731,0.731,0,0,1-.42.192,0.34,0.34,0,0,1-.32-0.384,5.191,5.191,0,0,1,.1-0.672c0.32-1.472.51-2.976,0.77-4.448a1.441,1.441,0,0,1,.67-1.248,0.415,0.415,0,0,0,.29-0.351,0.731,0.731,0,0,0-.58-0.448A22.533,22.533,0,0,0,3037.02,358.883Zm2.04-3.68a1.089,1.089,0,0,0,.74.7,25.7,25.7,0,0,1,4.03,2.72,2.311,2.311,0,0,0,1.03.64c0.67,0,1.98-1.952,1.98-2.528,0-.544-1.86-1.568-2.34-1.856a21.84,21.84,0,0,0-3.64-2.016C3040.09,352.867,3039.06,354.787,3039.06,355.2ZM2751,411.522c0-.32.1-0.512,0.23-0.512a0.623,0.623,0,0,1,.41.288l6.34,7.9a0.845,0.845,0,0,0,.64.384,0.86,0.86,0,0,0,.67-0.384l6.4-7.9a0.623,0.623,0,0,1,.41-0.288c0.13,0,.23.192,0.23,0.512l0.16,8.224c0.06,1.728,0,4.767,0,5.695,0,0.8.16,0.96,0.96,0.96h1.95c0.8,0,.9-0.1.9-0.96,0-.48-0.16-4.223-0.2-5.919l-0.16-9.568c-0.03-2.271,0-4.767,0-5.247,0-.8-0.16-0.96-0.96-0.96h-1.05a1.537,1.537,0,0,0-1.54.768c-0.92,1.248-1.88,2.5-2.81,3.648l-4.26,5.407a1,1,0,0,1-.61.48,0.917,0.917,0,0,1-.6-0.48l-4.36-5.5c-0.92-1.151-1.85-2.335-2.75-3.551a1.523,1.523,0,0,0-1.53-.768h-1.06c-0.8,0-.93.16-0.93,0.96,0,0.64,0,3.647-.03,5.247l-0.16,9.568c-0.03,2.3-.22,5.791-0.22,6.239,0,0.48.22,0.64,0.92,0.64h1.92c0.8,0,.96-0.16.96-0.96,0-.736-0.03-4.607,0-5.727Zm33.12,7.968c0.99,0,2.34.032,2.75,0.032,0.68,0,.77-0.192.77-0.928v-1.5c0-.736-0.09-0.928-0.77-0.928-0.41,0-1.76.032-2.75,0.032h-2.72c-1.02,0-2.49-.032-2.91-0.032-0.67,0-.77.192-0.77,0.928v1.5c0,0.736.1,0.928,0.77,0.928,0.42,0,1.89-.032,2.91-0.032h2.72Zm27.01,4.8-0.61-1.536c-0.19-.48-0.32-0.672-0.58-0.672a1.546,1.546,0,0,0-.64.224,8.326,8.326,0,0,1-3.71.8c-4.57,0-7.42-3.071-7.42-7.583s2.72-8.255,8.03-8.255a8.622,8.622,0,0,1,3.42.736,1.706,1.706,0,0,0,.64.192c0.26,0,.36-0.192.55-0.672l0.7-1.92a1.8,1.8,0,0,0,.16-0.608,0.8,0.8,0,0,0-.7-0.64,12.6,12.6,0,0,0-4.61-.8c-8,0-12.06,5.375-12.06,12.063,0,6.559,4.25,10.975,10.88,10.975a14,14,0,0,0,5.4-1.024,0.878,0.878,0,0,0,.71-0.672A2.077,2.077,0,0,0,2811.13,424.289Zm20.48-3.231c0.86,0,1.05.064,1.34,0.767,0.45,1.056.87,2.144,1.41,3.68a1.043,1.043,0,0,0,1.28.9h2.46c0.52,0,.74-0.064.74-0.32a1.329,1.329,0,0,0-.19-0.544c-0.99-2.208-1.7-3.807-2.4-5.471l-4.61-10.816c-0.58-1.343-1.22-2.879-1.89-4.607a1.043,1.043,0,0,0-1.28-.9h-1.37a1.039,1.039,0,0,0-1.28.9c-0.67,1.728-1.35,3.264-1.92,4.639l-4.58,10.848c-0.67,1.568-1.37,3.167-2.37,5.407a1.5,1.5,0,0,0-.19.544c0,0.256.23,0.32,0.74,0.32h2.24a1.043,1.043,0,0,0,1.28-.9c0.54-1.536.96-2.624,1.41-3.68a1.063,1.063,0,0,1,1.34-.767h7.84Zm-4.26-11.3a0.7,0.7,0,0,1,.35-0.512,0.681,0.681,0,0,1,.36.512l2.97,7.328a1.372,1.372,0,0,1,.13.544c0,0.288-.22.352-0.74,0.352h-5.47c-0.51,0-.73-0.064-0.73-0.352a1.372,1.372,0,0,1,.13-0.544Zm20.77,16.639c0.74,0,.93-0.128.93-0.8,0-.224-0.1-3.743-0.1-5.6v-0.736c0-.8.16-0.96,0.96-0.96h2.53c5.92,0,8.51-3.36,8.51-7.936,0-4.511-2.75-6.623-7.29-6.623h-3.27c-1.5,0-4.03-.064-4.25-0.064-0.71,0-.9.256-0.9,1.024,0.03,1.824.07,3.808,0.07,5.375V420c0,1.856-.1,5.375-0.1,5.6,0,0.672.19,0.8,0.93,0.8h1.98Zm0.83-18.4c0-.8.16-0.96,0.96-0.96h3.07c2.37,0,4.2.9,4.2,3.679,0,3.168-2.08,4.416-4.74,4.416h-2.53c-0.8,0-.96-0.16-0.96-0.96V408Zm39.46,11.711a2.3,2.3,0,0,0-.9-0.928c-0.22-.192-0.45-0.384-0.67-0.544a2.638,2.638,0,0,0-1.02-.608,0.828,0.828,0,0,0-.42.128,37.689,37.689,0,0,1-13.09,5.023c-0.67.16-1.21,0.16-1.21,0.7,0,0.288.54,1.5,1.24,1.5a16.119,16.119,0,0,0,2.05-.352,52.155,52.155,0,0,0,12.23-4.351,1.945,1.945,0,0,1,.83-0.288c0.16,0,.32.032,0.45,0.032A0.44,0.44,0,0,0,2888.41,419.714Zm-3.68-4a1.866,1.866,0,0,0-.87-0.864l-0.38-.288a4.158,4.158,0,0,0-1.25-.832,1.413,1.413,0,0,0-.64.416,30.514,30.514,0,0,1-9.25,5.152c-0.44.16-1.08,0.32-1.08,0.768a1.89,1.89,0,0,0,1.24,1.44,6.547,6.547,0,0,0,1.44-.416,38.179,38.179,0,0,0,9.32-4.7,1.331,1.331,0,0,1,.76-0.32C2884.25,416.066,2884.73,416.066,2884.73,415.714Zm8.13,7.839a2.52,2.52,0,0,0-.93-1.12c-0.23-.191-0.42-0.416-0.64-0.608a2.216,2.216,0,0,0-.96-0.671,1.3,1.3,0,0,0-.58.224c-5.28,3.263-12.19,4.639-18.33,4.9-0.55.032-1.48-.064-1.48,0.64a2.756,2.756,0,0,0,.39,1.12,1.049,1.049,0,0,0,1.02.736c0.55,0,1.86-.1,2.5-0.16a47.418,47.418,0,0,0,16.96-4.448,2,2,0,0,1,.96-0.32c0.19,0,.35.032,0.54,0.032S2892.86,423.809,2892.86,423.553Zm-10.28-11.135a1.441,1.441,0,0,1,1.41.608,29.352,29.352,0,0,0,6.08,4.992c0.64,0.416,3.49,2.048,4.13,2.048,0.58,0,1.69-1.728,1.69-2.272a0.847,0.847,0,0,0-.6-0.576,28.5,28.5,0,0,1-7.43-4.256,0.339,0.339,0,0,1-.12-0.256,0.3,0.3,0,0,1,.35-0.288h2.21c1.5,0,3.04.064,4.54,0.064,0.93,0,.93-0.288.93-1.472s0.03-1.472-.93-1.472c-1.5,0-3.04.064-4.54,0.064h-7.14a0.484,0.484,0,0,1-.54-0.48,0.988,0.988,0,0,1,.06-0.288,1.317,1.317,0,0,1,.7-0.831,0.629,0.629,0,0,0,.55-0.416,0.72,0.72,0,0,0-.64-0.416,0.117,0.117,0,0,1-.07-0.1,0.148,0.148,0,0,1,.07-0.064c1.79-.064,3.58-0.16,5.41-0.256a1.246,1.246,0,0,1,1.24.608c0.16,0.224.26,0.416,0.36,0.576,0.38,0.639.48,0.8,0.76,0.8,0.48,0,2.21-.8,2.21-1.311,0-.864-3.42-5.12-4.13-5.984a1.3,1.3,0,0,0-.86-0.7c-0.42,0-2.18.768-2.18,1.216a3,3,0,0,0,.84,1.216c0.09,0.128.22,0.256,0.32,0.384a0.59,0.59,0,0,1,.12.32,0.415,0.415,0,0,1-.48.384c-2.43.16-4.83,0.192-7.26,0.256a0.416,0.416,0,0,1-.48-0.384,0.826,0.826,0,0,1,.1-0.288c0.35-.512,1.08-1.536,1.37-2.016a1.057,1.057,0,0,1,.71-0.448,0.455,0.455,0,0,0,.48-0.384c0-.576-3.52-1.28-3.62-1.28a0.517,0.517,0,0,0-.45.48c-0.19.448-1.57,3.168-1.89,3.744a1.176,1.176,0,0,1-1.21.7c-1.09.032-2.21,0.032-3.3,0.032h-0.96c-0.48,0-.7.032-0.7,0.384a7.7,7.7,0,0,0,.32,1.408c0.35,1.248.45,1.631,0.8,1.631a0.519,0.519,0,0,0,.41-0.287,0.548,0.548,0,0,1,.42-0.32c2.46-.064,4.96-0.16,7.42-0.288a0.519,0.519,0,0,1,.58.48,0.826,0.826,0,0,1-.1.288c-0.19.319-.38,0.671-0.57,0.991a1.347,1.347,0,0,1-1.35.64h-4.64c-1.53,0-3.04-.064-4.54-0.064-0.96,0-.93.288-0.93,1.472,0,1.152-.03,1.472.9,1.472,1.53,0,3.04-.064,4.57-0.064h2.12a0.3,0.3,0,0,1,.35.288,0.417,0.417,0,0,1-.13.256,21.852,21.852,0,0,1-7.13,3.744c-0.61.192-1,.32-1,0.64,0,0.448.87,2.24,1.51,2.24a6.882,6.882,0,0,0,1.44-.448,27.251,27.251,0,0,0,9.44-6.144,1.609,1.609,0,0,1,1.44-.576h1.56Zm40.36,9.663a0.849,0.849,0,0,1-.87-0.9V407.491a0.793,0.793,0,0,1,.87-0.864h2.94a0.857,0.857,0,0,1,.9.864v13.695a0.925,0.925,0,0,1-.9.9h-2.94Zm3.77,4.672c0,0.832.32,0.832,1.6,0.832,1.25,0,1.63.032,1.63-.864,0-1.248-.06-2.528-0.06-3.776V408.1c0-1.055.06-1.919,0.06-2.623,0-1.376-.25-1.984-1.82-1.984-0.67,0-1.38.032-2.05,0.032h-3.29c-0.68,0-1.38-.032-2.08-0.032-1.22,0-1.76.384-1.76,1.664,0,0.992.03,1.952,0.03,2.943v14.815c0,1.28-.07,2.56-0.07,3.808,0,0.864.39,0.864,1.6,0.864,1.28,0,1.64,0,1.64-.864,0-.288-0.04-0.544-0.04-0.832a0.747,0.747,0,0,1,.87-0.832h2.88a0.729,0.729,0,0,1,.86.832v0.864Zm-14.49-17.279a1.3,1.3,0,0,1,1.28.384,7.374,7.374,0,0,1,.12,1.824c0,1.888-.12,4.608-0.16,5.312-0.06,1.472-.35,6.271-0.99,7.391a1.827,1.827,0,0,1-1.66.736,5.943,5.943,0,0,1-1.09-.1c-0.16,0-.35-0.032-0.48-0.032-0.64,0-.74.384-0.74,0.928a7.049,7.049,0,0,0,.29,2.016c0.23,0.576.99,0.576,2.02,0.576,2.81,0,4.38-.608,5.02-3.552,0.83-3.967,1.03-12,1.03-16.255,0-1.5-.42-2.4-2.31-2.4-1.02,0-2.08.064-3.13,0.064h-0.55a0.748,0.748,0,0,1-.86-0.9v-2.72c0-1.12.03-1.472,0.41-1.7a0.619,0.619,0,0,0,.42-0.512c0-.352-0.38-0.384-0.64-0.416-0.51-.064-2.4-0.192-2.88-0.192-0.38,0-.61.1-0.61,0.512v0.32a19.787,19.787,0,0,1,.1,2.4v2.3a0.766,0.766,0,0,1-.83.9c-0.77-.032-1.57-0.1-2.37-0.1-0.77,0-.74.448-0.74,1.664,0,1.183-.03,1.6.77,1.6,0.42,0,1.79-.032,2.27-0.064a0.708,0.708,0,0,1,.8.832c-0.32,5.248-1.34,11.04-4.22,15.519a1.376,1.376,0,0,0-.29.672c0,0.7,1.5,1.952,2.18,1.952,0.7,0,1.72-2.336,1.98-2.912a42.969,42.969,0,0,0,3.55-15.231,0.775,0.775,0,0,1,.93-0.832h1.38Z" transform="translate(-2619.44 -351.75)"/>
</svg>
