<svg xmlns="http://www.w3.org/2000/svg" width="463.75" height="77.2" viewBox="0 0 463.75 77.2">
  <defs>
    <style>
      .cls-1 {
        fill: #51a6da;
        fill-rule: evenodd;
      }
    </style>
  </defs>
  <path id="M-CAPを通じて本当に多くの_経験をし_憧れのCAに_" data-name="M-CAPを通じて本当に多くの 経験をし、憧れのCAに！" class="cls-1" d="M129.2,10359.5c0-.3.1-0.5,0.224-0.5a0.614,0.614,0,0,1,.416.3l6.335,7.9a0.844,0.844,0,0,0,.64.4,0.964,0.964,0,0,0,.672-0.4l6.4-7.9a0.614,0.614,0,0,1,.416-0.3c0.128,0,.224.2,0.224,0.5l0.16,8.2c0.064,1.8,0,4.8,0,5.7,0,0.8.16,1,.96,1H147.6c0.8,0,.9-0.1.9-1,0-.4-0.16-4.2-0.192-5.9l-0.16-9.5c-0.032-2.3,0-4.8,0-5.3,0-.8-0.16-1-0.96-1h-1.056a1.628,1.628,0,0,0-1.536.8c-0.928,1.3-1.888,2.5-2.816,3.7l-4.256,5.4a1.169,1.169,0,0,1-.608.5,1.064,1.064,0,0,1-.608-0.5l-4.351-5.5c-0.928-1.2-1.856-2.4-2.752-3.6a1.628,1.628,0,0,0-1.536-.8H126.61c-0.8,0-.928.2-0.928,1,0,0.6,0,3.7-.032,5.3l-0.16,9.5c-0.032,2.3-.224,5.8-0.224,6.3,0,0.4.224,0.6,0.928,0.6h1.92c0.8,0,.96-0.2.96-1,0-.7-0.032-4.6,0-5.7Zm33.119,8h2.752c0.672,0,.768-0.2.768-0.9v-1.5c0-.7-0.1-0.9-0.768-0.9H156.69c-0.672,0-.768.2-0.768,0.9v1.5c0,0.7.1,0.9,0.768,0.9h5.631Zm27.007,4.8-0.608-1.5c-0.192-.5-0.32-0.7-0.576-0.7a1.017,1.017,0,0,0-.639.2,8.52,8.52,0,0,1-3.712.8c-4.576,0-7.424-3.1-7.424-7.6s2.72-8.2,8.032-8.2a9.536,9.536,0,0,1,3.424.7,2.548,2.548,0,0,0,.639.2c0.256,0,.352-0.2.544-0.7l0.7-1.9a1.891,1.891,0,0,0,.16-0.6,0.685,0.685,0,0,0-.7-0.6,11.488,11.488,0,0,0-4.607-.8c-8,0-12.063,5.3-12.063,12,0,6.6,4.255,11,10.879,11a15.513,15.513,0,0,0,5.407-1,0.978,0.978,0,0,0,.7-0.7A1.4,1.4,0,0,0,189.328,10372.3Zm20.481-3.2c0.864,0,1.055,0,1.343.7,0.448,1.1.864,2.2,1.408,3.7a1.025,1.025,0,0,0,1.28.9H216.3c0.512,0,.736-0.1.736-0.3a2.022,2.022,0,0,0-.192-0.6c-0.992-2.2-1.7-3.8-2.4-5.4l-4.607-10.8c-0.576-1.4-1.216-2.9-1.888-4.7a1.087,1.087,0,0,0-1.28-.9H205.3a1.087,1.087,0,0,0-1.28.9c-0.672,1.8-1.344,3.3-1.92,4.7l-4.576,10.8c-0.671,1.6-1.375,3.2-2.367,5.4a2.022,2.022,0,0,0-.192.6c0,0.2.224,0.3,0.736,0.3h2.239a1.025,1.025,0,0,0,1.28-.9c0.544-1.5.96-2.6,1.408-3.7,0.288-.7.512-0.7,1.344-0.7h7.84Zm-4.256-11.3c0.128-.4.256-0.5,0.352-0.5,0.128,0,.224.1,0.352,0.5l2.976,7.3a1.276,1.276,0,0,1,.128.5c0,0.3-.224.4-0.736,0.4h-5.472c-0.512,0-.736-0.1-0.736-0.4a1.276,1.276,0,0,1,.128-0.5Zm20.768,16.6c0.736,0,.928-0.1.928-0.8,0-.2-0.1-3.7-0.1-5.6v-0.7c0-.8.16-1,0.96-1h2.528c5.919,0,8.511-3.4,8.511-7.9s-2.752-6.7-7.3-6.7h-7.519c-0.7,0-.9.2-0.9,1,0.032,1.8.064,3.8,0.064,5.4v9.9c0,1.9-.1,5.4-0.1,5.6,0,0.7.192,0.8,0.928,0.8h1.984Zm0.832-18.4c0-.8.16-1,0.96-1h3.072c2.367,0,4.191.9,4.191,3.7,0,3.2-2.08,4.4-4.735,4.4h-2.528c-0.8,0-.96-0.1-0.96-0.9v-6.2Zm31.295-7.9a0.676,0.676,0,0,0-.448.7,17.78,17.78,0,0,1-1.728,4.1c-0.288.4-1.152,0.4-1.984,0.4h-3.231c-0.8,0-.928.2-0.928,1.5,0,1.6.128,1.7,0.832,1.7h2.24c0.448,0,.7,0,0.7.3,0,0.6-4.639,7.1-5.375,7.9a1.207,1.207,0,0,0-.416.7c0,0.6,2.144,1.8,2.72,1.8a0.453,0.453,0,0,0,.448-0.3,21.583,21.583,0,0,1,2.687-3.7,10.6,10.6,0,0,1,5.984-2.8,1.268,1.268,0,0,1,1.408,1,6.08,6.08,0,0,1,.16.9,0.931,0.931,0,0,1-.576.8,15.886,15.886,0,0,0-1.984,1c-2.208,1.3-4.544,2.9-4.544,5.8a4.9,4.9,0,0,0,3.2,4.6,12.411,12.411,0,0,0,5.056.8,40.826,40.826,0,0,0,6.143-.4c0.7-.2.736-0.4,0.736-1.4,0-1.8-.224-2.2-0.64-2.2-0.224,0-.448.1-0.64,0.1a23.93,23.93,0,0,1-5.951.8c-1.536,0-4.64-.2-4.64-2.3,0-2,3.3-3.4,3.456-3.4a0.4,0.4,0,0,1,.416.5c0,0.7-.064,1.4-0.064,2.1,0,0.8.576,0.9,1.952,0.9,1.216,0,1.376-.1,1.376-1.3,0-1-.032-1.9-0.032-2.9v-0.5a0.938,0.938,0,0,1,.832-1c1.248-.6,2.5-1.1,3.775-1.6,0.16,0,.32-0.1.448-0.1a1.086,1.086,0,0,0,.96-0.7c0-.6-0.768-3.1-1.376-3.1a2.751,2.751,0,0,0-.832.4,26.746,26.746,0,0,1-3.743,1.8,0.556,0.556,0,0,1-.48-0.5c-0.416-2.1-1.6-2.9-3.648-2.9a8.485,8.485,0,0,0-3.488.8,1.2,1.2,0,0,1-.576.2,0.251,0.251,0,0,1-.256-0.2,9.611,9.611,0,0,1,1.088-1.9,1.167,1.167,0,0,1,.96-0.5c2.016-.2,4.032-0.6,6.048-1,0.672-.1,1.7-0.2,1.7-0.8a10.4,10.4,0,0,0-.256-1.7,0.947,0.947,0,0,0-.8-1,2.353,2.353,0,0,0-.8.2,26.058,26.058,0,0,1-3.712.9,0.309,0.309,0,0,1-.352-0.3,1.553,1.553,0,0,1,.32-0.7,1.644,1.644,0,0,1,1.056-1.1,0.588,0.588,0,0,0,.384-0.4C262.032,10349.6,258.736,10348.1,258.448,10348.1Zm30.049,6.1c0-.5-1.792-2.4-2.24-2.9a27.935,27.935,0,0,0-2.208-2.2,1.541,1.541,0,0,0-.768-0.5,3.237,3.237,0,0,0-1.984,1.7,1.063,1.063,0,0,0,.416.7,40.474,40.474,0,0,1,4.128,4.4,0.974,0.974,0,0,0,.64.5C287.057,10355.9,288.5,10354.8,288.5,10354.2Zm-5.376,20.9c0.832-.6,1.664-1.3,2.464-1.9a0.893,0.893,0,0,1,.448-0.2,0.689,0.689,0,0,1,.576.4c0.832,1.4,2.559,1.9,4.063,2.2a37.268,37.268,0,0,0,4.736.3q5.808,0.15,11.615,0c1.216,0,2.08.2,2.08-2.1,0-.5-0.032-0.9-0.608-0.9h-0.9c-2.72.1-5.439,0.2-8.127,0.2h-2.3c-2.464,0-5.472-.1-7.136-0.7-2.079-.6-2.079-2.1-2.079-4v-4.6c0-.9.064-1.7,0.064-2.6,0-1.2-.672-1.5-1.792-1.5h-2.912c-0.544,0-1.088-.1-1.6-0.1-0.768,0-.7.5-0.7,1.7,0,1-.064,1.5.7,1.5,0.48,0,1.088-.1,1.6-0.1h0.544a0.768,0.768,0,0,1,.864.9v5.6a1.321,1.321,0,0,1-.7,1.3c-0.48.3-1.888,1.3-2.336,1.5-0.96.4-1.28,0.6-1.28,0.9a5.7,5.7,0,0,0,.672,1.6c0.736,1.4.832,1.7,1.152,1.7a0.486,0.486,0,0,0,.48-0.5A0.867,0.867,0,0,1,283.121,10375.1Zm11.615-11.2a0.737,0.737,0,0,1-.768-0.8v-0.3a0.737,0.737,0,0,1,.768-0.8h2.208a0.737,0.737,0,0,1,.768.8v0.3a0.737,0.737,0,0,1-.768.8h-2.208Zm9.055-1.9a0.714,0.714,0,0,1,.736.8v0.3a0.714,0.714,0,0,1-.736.8h-2.367a0.714,0.714,0,0,1-.736-0.8v-0.3a0.714,0.714,0,0,1,.736-0.8h2.367Zm0.736-3a0.686,0.686,0,0,1-.736.7h-2.367a0.686,0.686,0,0,1-.736-0.7v-0.3a0.714,0.714,0,0,1,.736-0.8h2.367a0.714,0.714,0,0,1,.736.8v0.3Zm-6.815,0a0.714,0.714,0,0,1-.768.7h-2.208a0.714,0.714,0,0,1-.768-0.7v-0.3a0.737,0.737,0,0,1,.768-0.8h2.208a0.737,0.737,0,0,1,.768.8v0.3Zm-2.528-3.5c-0.864,0-1.76-.1-2.656-0.1s-1.632.2-1.632,1.2c0,0.8.064,1.6,0.064,2.4v8.2c0,1.2-.064,2.4-0.064,3.5,0,0.9.416,0.9,1.568,0.9,1.28,0,1.568,0,1.568-.9,0-1.2-.064-2.3-0.064-3.5v-0.3a0.777,0.777,0,0,1,.9-0.9h1.952a0.777,0.777,0,0,1,.9.9c0,1.1-.1,2.3-0.1,3.4,0,0.9.352,0.9,1.568,0.9,1.28,0,1.568,0,1.568-1,0-1.1-.1-2.2-0.064-3.3a0.768,0.768,0,0,1,.864-0.9h2.111a0.768,0.768,0,0,1,.864.9v0.8c0,0.6-.064,1-0.8,1-0.416,0-.8-0.1-1.215-0.1-0.512,0-.576.6-0.576,1,0,2,.736,2,1.439,2a6.172,6.172,0,0,0,3.552-.8,2.669,2.669,0,0,0,.7-2.2c0-.7-0.032-1.3-0.032-2v-7.6c0-.8.032-1.6,0.032-2.4,0-1-.7-1.2-1.632-1.2-0.7,0-1.408.1-2.112,0.1a0.7,0.7,0,0,1-.416-0.2,2.646,2.646,0,0,0-1.119-.6,0.5,0.5,0,0,1-.256-0.4,0.434,0.434,0,0,1,.256-0.4c0.991-.5,1.983-1.1,2.943-1.7,0.512-.3,2.08-1.2,2.08-1.8a1.839,1.839,0,0,0-1.76-1.5H291.76c-0.9,0-.9.3-0.9,1.2s-0.032,1.2.9,1.2c1.152,0,2.3-.1,3.456-0.1h5.568a0.934,0.934,0,0,1,.768.2,4.985,4.985,0,0,1-1.6,1.1,1,1,0,0,0-.384.3,2.022,2.022,0,0,1-.768.2,1.726,1.726,0,0,1-.672-0.2,26.01,26.01,0,0,0-3.36-1.1,2.007,2.007,0,0,0-1.44,1.6c0,0.4.384,0.5,1.632,0.9q0.912,0.3,2.592.9a0.355,0.355,0,0,1,.128.2,0.189,0.189,0,0,1-.192.2h-2.3Zm42.368-4.9a2.732,2.732,0,0,0-1.536,1.3,0.72,0.72,0,0,0,.288.5c0.8,0.8,1.567,1.7,2.271,2.5a0.735,0.735,0,0,0,.448.3,2.409,2.409,0,0,0,1.536-1.4A11.726,11.726,0,0,0,337.552,10350.6Zm-3.52,2.4a2.8,2.8,0,0,0-1.568,1.3,0.857,0.857,0,0,0,.288.5,27.2,27.2,0,0,1,2.24,2.5,0.894,0.894,0,0,0,.448.4,2.54,2.54,0,0,0,1.568-1.5A12.105,12.105,0,0,0,334.032,10353Zm-10.239-2.6c-0.448,0-.48.4-0.48,0.8v0.4c0,1.3-.288,4.4-0.384,5.8-0.192,2.6-.288,5.1-0.288,7.6,0,2.4.16,5.5,1.6,7.4a7.006,7.006,0,0,0,5.632,2.4,11.157,11.157,0,0,0,9.727-6.1,11.358,11.358,0,0,0,1.312-3.7c0-1-1.952-2.6-2.656-2.6-0.48,0-.512.5-0.607,1.1a9.988,9.988,0,0,1-1.984,4.7,7.971,7.971,0,0,1-6.016,3.1c-3.456,0-3.392-3.9-3.392-6.4a67.469,67.469,0,0,1,.9-11.6,1.492,1.492,0,0,1,.736-1.3,0.467,0.467,0,0,0,.16-0.3c0-.4-0.64-0.5-1.088-0.6A19.368,19.368,0,0,0,323.793,10350.4Zm29.024,4.2c0,0.3.288,3.4,1.056,3.4a0.836,0.836,0,0,0,.48-0.1c2.048-.5,4.927-1,7.071-1.3a16.785,16.785,0,0,1,2.048-.3,0.522,0.522,0,0,1,.48.4,2.507,2.507,0,0,1-.576.8,13.981,13.981,0,0,0-3.52,9.2c0,6.2,4.672,7.9,10.112,7.9a1.037,1.037,0,0,0,.928-0.3,7.532,7.532,0,0,0,.576-2.8c0-.6-0.256-0.6-0.736-0.6h-1.6c-3.232,0-5.632-.8-5.632-4.6a12.035,12.035,0,0,1,1.536-5.6,9.769,9.769,0,0,1,5.472-4.8,15.8,15.8,0,0,1,5.311-.6c0.736-.1,1.408,0,1.408-0.7a18.728,18.728,0,0,0-.256-2.3c-0.1-.4-0.16-0.8-0.64-0.8h-0.384c-2.4.4-4.863,0.7-7.263,1-4.672.5-9.344,1-14.015,1.3C353.265,10353.9,352.817,10353.8,352.817,10354.6Zm49.887,6a40.1,40.1,0,0,0,6.207,8.3c0.608,0.7,3.36,3.4,4.064,3.4,0.768,0,1.984-1.5,1.984-2.2a1.166,1.166,0,0,0-.8-0.9,36.133,36.133,0,0,1-9.567-10.8,1.008,1.008,0,0,1-.064-0.3,0.46,0.46,0,0,1,.544-0.4h8.639c0.8,0,.768-0.3.768-1.5s0.032-1.6-.768-1.6c-1.248,0-2.5.1-3.744,0.1h-6.815a0.808,0.808,0,0,1-.864-0.9v-2.7a2.74,2.74,0,0,1,.352-1.9,0.731,0.731,0,0,0,.416-0.5c0-.3-0.448-0.3-0.672-0.4-0.608,0-2.528-.2-3.04-0.2a0.475,0.475,0,0,0-.576.5,0.959,0.959,0,0,0,.032.3,16.161,16.161,0,0,1,.1,2.3v2.6a0.777,0.777,0,0,1-.9.9h-6.751c-1.248,0-2.5-.1-3.744-0.1-0.8,0-.768.4-0.768,1.6,0,1.1-.032,1.5.768,1.5h8.447a0.479,0.479,0,0,1,.576.4,1.008,1.008,0,0,1-.064.3,32.974,32.974,0,0,1-9.535,11.1,1.356,1.356,0,0,0-.672.9,3.456,3.456,0,0,0,2.112,2.1,2.032,2.032,0,0,0,1.152-.7,37.2,37.2,0,0,0,8.991-11.3,0.514,0.514,0,0,1,.192-0.1,0.189,0.189,0,0,1,.192.2v6.6a0.777,0.777,0,0,1-.9.9h-0.384c-1.024,0-2.016-.1-3.007-0.1-0.864,0-.8.4-0.8,1.6,0,1.1-.064,1.6.8,1.6,0.991,0,1.983-.1,3.007-0.1H398a0.724,0.724,0,0,1,.9.8c0.032,1.3-.064,2.6-0.064,3.9,0,1,.352,1,1.76,1s1.76,0,1.76-1c0-1.3-.1-2.6-0.064-3.9a0.712,0.712,0,0,1,.864-0.8H403.6c0.992,0,2.016.1,3.008,0.1,0.864,0,.8-0.5.8-1.6,0-1.2.064-1.6-.832-1.6-0.992,0-1.984.1-2.976,0.1h-0.448a0.768,0.768,0,0,1-.864-0.9v-6.4q0-.3.192-0.3A1.528,1.528,0,0,1,402.7,10360.6Zm45.695-9.2a0.477,0.477,0,0,0-.352-0.3,3.848,3.848,0,0,0-.7-0.3,7.887,7.887,0,0,0-2.272-1,0.486,0.486,0,0,0-.448.4,37.339,37.339,0,0,1-3.9,6.5,2.372,2.372,0,0,0-.448.9c0,0.3.256,0.4,0.96,0.9a3.085,3.085,0,0,0,1.248.5,1.489,1.489,0,0,0,.863-0.6c1.184-1.6,2.752-4.2,3.776-5.9a0.989,0.989,0,0,1,.64-0.7A0.578,0.578,0,0,0,448.4,10351.4Zm-17.215,6.1a20.837,20.837,0,0,0-1.472-3.1,38.038,38.038,0,0,0-2.367-4,1.139,1.139,0,0,0-.736-0.6c-0.48,0-2.336.9-2.336,1.4a1.62,1.62,0,0,0,.256.6,55.892,55.892,0,0,1,3.872,6.6,0.527,0.527,0,0,0,.576.4C429.424,10358.8,431.184,10358,431.184,10357.5Zm6.3-6.5c0-1,.032-1.5.384-1.8a0.5,0.5,0,0,0,.384-0.5c0-.3-0.576-0.3-0.864-0.4-0.544,0-2.432-.2-2.88-0.2-0.32,0-.576,0-0.576.4v0.3a17.026,17.026,0,0,1,.128,2.6v7.3a0.777,0.777,0,0,1-.9.9h-6.431c-0.9,0-1.76-.1-2.56-0.1-0.672,0-.672.3-0.672,1.5s0,1.6.672,1.6c0.864,0,1.728-.1,2.56-0.1H443.5a0.79,0.79,0,0,1,.9.9v1.6a0.777,0.777,0,0,1-.9.9H428.849c-1.248,0-2.5-.1-3.776-0.1-0.7,0-.7.3-0.7,1.4s0,1.5.7,1.5c1.28,0,2.528-.1,3.776-0.1H443.5a0.79,0.79,0,0,1,.9.9v1.7a0.777,0.777,0,0,1-.9.9H427.761c-1.312,0-2.656-.1-3.968-0.1-0.768,0-.736.4-0.736,1.6s-0.032,1.5.736,1.5h19.774a0.615,0.615,0,0,1,.736.7c0.032,0.9.288,0.9,1.76,0.9,1.344,0,1.76.1,1.76-.8,0-1.1-.1-2.1-0.1-3.2v-9.1c0-.8.064-1.7,0.064-2.6,0-1.2-.416-1.5-1.6-1.5-0.832,0-1.664.1-2.5,0.1h-5.311a0.777,0.777,0,0,1-.9-0.9v-7.7Zm31.936,16c-0.608,0-1.728,2.3-1.728,2.8s2.144,3.2,7.328,3.2c1.28,0,6.687-.5,7.583-1a1.242,1.242,0,0,0,.384-1.2c0-1.6-.064-2.4-0.576-2.4-0.192,0-.512.1-0.672,0.1a24.083,24.083,0,0,1-7.039,1.1,5.523,5.523,0,0,1-4.864-2.3A0.664,0.664,0,0,0,469.424,10367Zm0.736-13.8c-0.512,0-.672.5-0.672,2a1.7,1.7,0,0,0,.32,1.3c0.672,0.4,4.608.6,5.6,0.6a31.942,31.942,0,0,0,5.375-.5c0.608-.1.608-0.3,0.608-1a13.572,13.572,0,0,0-.128-1.7,0.738,0.738,0,0,0-.64-0.8c-0.192,0-.416.1-0.576,0.1a20.037,20.037,0,0,1-4.863.6,19.75,19.75,0,0,1-4.192-.5C470.736,10353.3,470.384,10353.2,470.16,10353.2Zm-7.679-2.5a0.664,0.664,0,0,0-.48.7,14.719,14.719,0,0,1-.416,1.6,38.118,38.118,0,0,0-1.632,10.6,21.99,21.99,0,0,0,1.952,9.8c0.416,0.9.8,1.6,1.344,1.6,0.672,0,2.5-.8,2.5-1.6a4.346,4.346,0,0,0-.064-0.5c-0.032-.3-0.128-1-0.128-1.3,0-1.5,1.28-4.4,1.28-4.7a1.859,1.859,0,0,0-1.152-1,1.132,1.132,0,0,0-.672.8,2.425,2.425,0,0,1-.863,1.2c-0.736,0-.864-3.8-0.864-4.4a25.022,25.022,0,0,1,1.791-9.1,2.14,2.14,0,0,1,.992-1.4c0.32-.2.448-0.2,0.448-0.4a0.858,0.858,0,0,0-.64-0.6C465.424,10351.8,462.737,10350.7,462.481,10350.7Zm42.271,20.9a49.608,49.608,0,0,1-10.143,1.9c-1.472.2-1.856,0.2-1.856,0.9,0,0.5.384,2.3,1.632,2.3,0.256,0,.64-0.1.928-0.1a44.758,44.758,0,0,0,16.031-4.6,29.755,29.755,0,0,0,7.711-5.9,3.386,3.386,0,0,0,.864-1.4,2.889,2.889,0,0,0-.64-1.2,1.734,1.734,0,0,0-1.632-.7c-1.088,0-2.176.1-3.264,0.1h-3.711c-0.288-.1-0.352-0.2-0.352-0.3a2.778,2.778,0,0,1,.864-1,1.068,1.068,0,0,1,.992-0.5c0.192-.1.512-0.1,0.512-0.4,0-.4-0.448-0.5-0.992-0.7a13.681,13.681,0,0,0-2.24-.7,0.844,0.844,0,0,0-.608.4c-3.2,3.6-9.151,6-13.791,7.2a0.816,0.816,0,0,0-.832.7c0,0.7.9,2.1,1.7,2.1a5.935,5.935,0,0,0,1.28-.3,47.779,47.779,0,0,0,8.127-3.5,2.119,2.119,0,0,1,1.536-.4h6.624c0.671,0,1.055,0,1.055.3,0,0.9-4.479,3.5-5.343,3.9a1.087,1.087,0,0,1-.544.2,0.882,0.882,0,0,1-.736-0.5c-0.512-.6-1.216-1.3-1.76-1.9a1.805,1.805,0,0,0-.9-0.6c-0.48,0-2.048.8-2.048,1.4a11.268,11.268,0,0,0,1.184,1.6c0.224,0.2.448,0.5,0.64,0.7a1.141,1.141,0,0,1,.16.4A0.636,0.636,0,0,1,504.752,10371.6Zm0.448-14.4c-0.384-.5-2.016-2.4-2.528-2.4-0.544,0-2.144.9-2.144,1.4a4.324,4.324,0,0,0,.992,1.3,2.653,2.653,0,0,1,.96,1.3,0.638,0.638,0,0,1-.416.5,50.175,50.175,0,0,1-8.447,2c-0.768.2-1.216,0.2-1.216,0.8s0.448,2.2,1.472,2.2a6.24,6.24,0,0,0,1.344-.2,51.822,51.822,0,0,0,14.783-5.3,29.059,29.059,0,0,0,6.5-4.6,1.749,1.749,0,0,0-1.344-3.2c-0.96,0-1.919.1-2.879,0.1h-5.056a0.357,0.357,0,0,1-.384-0.3,1.5,1.5,0,0,1,.576-0.7,1.582,1.582,0,0,1,1.024-.6,0.476,0.476,0,0,0,.544-0.4c0-.4-0.672-0.5-1.376-0.8a18.1,18.1,0,0,0-1.952-.6,1.013,1.013,0,0,0-.736.6,26.768,26.768,0,0,1-10.527,6.4c-0.8.3-1.376,0.4-1.376,0.9,0,0.6.832,2.1,1.6,2.1,1.376,0,6.4-2.8,7.743-3.7a2.36,2.36,0,0,1,1.44-.3h6.848a1.287,1.287,0,0,1,1.056.2c0,0.8-4.416,3.2-5.248,3.5a0.881,0.881,0,0,1-.48.2A1.04,1.04,0,0,1,505.2,10357.2Zm40.864-6.1c-0.352-.4-1.28-1.5-1.7-1.5a1.127,1.127,0,0,0-.48.4,47.314,47.314,0,0,1-5.984,5.7,35.584,35.584,0,0,0-4.127,3.7,3.738,3.738,0,0,0-.7,2.2,4.729,4.729,0,0,0,1.536,3.4,70.3,70.3,0,0,0,5.055,5.3c1.312,1.4,2.656,2.7,3.872,4.2a2.162,2.162,0,0,0,.992.8c0.768,0,2.72-1.8,2.72-2.6,0-.6-2.208-2.4-2.752-2.9-1.984-1.8-3.968-3.6-5.792-5.5-0.544-.6-1.6-1.7-1.6-2.5a3.6,3.6,0,0,1,1.312-1.9c1.664-1.6,3.488-3,5.28-4.5,0.8-.6,1.6-1.3,2.4-1.8a1.025,1.025,0,0,1,.864-0.4c0.224,0,.672,0,0.672-0.3C547.632,10352.5,546.352,10351.4,546.064,10351.1Zm28.384,4.3a0.535,0.535,0,0,1,.512.6,32.145,32.145,0,0,1-1.024,6.2c-0.9,3.3-2.688,6.9-4.287,6.9-1.632,0-2.048-3-2.048-4.1a10.059,10.059,0,0,1,5.759-9.3A4.421,4.421,0,0,1,574.448,10355.4Zm3.072-3.7a13.142,13.142,0,0,0-13.279,13.4,9.825,9.825,0,0,0,.992,4.5,5.1,5.1,0,0,0,4.352,3.1,5.713,5.713,0,0,0,4.223-2.5c3.072-3.7,4.192-9.4,4.544-14,0.032-.6.032-1.3,0.768-1.3a5.4,5.4,0,0,1,1.216.3,7.8,7.8,0,0,1,5.119,7.7c0,4.5-3.3,7.3-7.487,8.3-0.32,0-.8.1-0.8,0.4,0,0.7,1.312,2.7,2.144,2.7a12.033,12.033,0,0,0,3.488-1.3,11.52,11.52,0,0,0,6.239-10.3,10.881,10.881,0,0,0-3.232-7.9A11.483,11.483,0,0,0,577.52,10351.7ZM172.9,10419.6a25.067,25.067,0,0,0-1.056-3.2c-0.64-1.7-.992-2.7-1.536-2.7-0.32,0-1.824.3-1.824,0.9a1.985,1.985,0,0,0,.224.7,30.035,30.035,0,0,1,1.632,4.4,0.978,0.978,0,0,0,.768,1C171.361,10420.7,172.9,10420.3,172.9,10419.6Zm-8.255-4.5a0.963,0.963,0,0,0-.768-0.5,17.61,17.61,0,0,0-2.016-.5c-0.352,0-.384.4-0.416,0.7a31.126,31.126,0,0,1-1.568,6.4,4.752,4.752,0,0,0-.256.9c0,0.6,1.632.9,2.016,0.9a0.816,0.816,0,0,0,.672-0.8c0.352-1.2,1.312-4.9,1.5-6a0.63,0.63,0,0,1,.512-0.7A0.5,0.5,0,0,0,164.642,10415.1Zm16.062-12.3a0.7,0.7,0,0,1-1.151,0,11.174,11.174,0,0,1-1.376-2.1,1.09,1.09,0,0,1-.1-0.3,0.487,0.487,0,0,1,.576-0.5h3.327c0.448,0,.736,0,0.736.3C182.72,10400.7,181.088,10402.4,180.7,10402.8Zm-1.375,5a0.852,0.852,0,0,1,.671-0.2,0.89,0.89,0,0,1,.7.2,25.063,25.063,0,0,0,5.888,3.1c0.288,0,.7.2,1.024,0.2,0.8,0,1.632-1.6,1.632-2.4a0.648,0.648,0,0,0-.64-0.5,26.585,26.585,0,0,1-5.472-2.3,0.671,0.671,0,0,1-.064-1.1,19.3,19.3,0,0,0,3.424-4.3,0.632,0.632,0,0,0,.128-0.2,3.72,3.72,0,0,0,.576-1.4,2.333,2.333,0,0,0-.7-1.3,1.615,1.615,0,0,0-1.44-.6c-0.64,0-1.28.1-1.952,0.1h-6.719c-1.024,0-2.016-.1-3.04-0.1-0.608,0-.576.4-0.576,1.5s-0.032,1.5.576,1.5c0.384,0,.768-0.1,1.152-0.1a0.541,0.541,0,0,1,.352.3,20.564,20.564,0,0,0,2.528,4.3,1.462,1.462,0,0,1,.192.6,1,1,0,0,1-.352.6,23.95,23.95,0,0,1-4.352,2.1,1.154,1.154,0,0,0-.9.7c0,0.7.992,2.2,1.728,2.2C174.689,10410.7,178.369,10408.4,179.329,10407.8Zm-15.2,0c-0.288.5-.544,0.9-0.864,1.4a1.291,1.291,0,0,1-1.248.7H160.8c-0.64,0-.96.1-0.96,0.4,0,0.2.256,1.2,0.32,1.5a9.026,9.026,0,0,1,.192.9c0.16,0.8.192,1,.544,1a0.643,0.643,0,0,0,.48-0.4,0.639,0.639,0,0,1,.416-0.4,17.918,17.918,0,0,0,2.336-.2h0.128a0.685,0.685,0,0,1,.736.8v5.9c0,1.3-.1,2.7-0.1,4.1,0,1,.384,1,1.6,1,1.28,0,1.6,0,1.6-1,0-1.4-.064-2.8-0.064-4.1v-6.3a0.984,0.984,0,0,1,.8-1.1,1.874,1.874,0,0,0,.736-0.1h0.224a0.748,0.748,0,0,1,.736.6l0.1,0.3a0.957,0.957,0,0,0,.736.9c0.192,0,1.92-.5,1.92-1.1a7.271,7.271,0,0,0-.448-1.3c-0.608-1.3-1.28-2.8-1.984-4.3a0.725,0.725,0,0,0-.672-0.5c-0.352,0-1.76.5-1.76,1a4.425,4.425,0,0,0,.416,1,1.09,1.09,0,0,1,.1.3,0.586,0.586,0,0,1-.576.6c-0.48,0-.928.1-1.408,0.1a0.385,0.385,0,0,1-.448-0.3,1.125,1.125,0,0,1,.1-0.3,78.582,78.582,0,0,0,4.32-6.7,2.755,2.755,0,0,1,.544-0.3c0.32,0,.608,0,0.608-0.4a1.431,1.431,0,0,0-.576-0.6,1.184,1.184,0,0,1-.512-0.3c-0.672-.3-1.728-0.9-1.888-0.9-0.256,0-.288.2-0.448,0.5-0.672,1.3-1.408,2.6-2.144,3.8a0.683,0.683,0,0,1-.543.4,0.653,0.653,0,0,1-.512-0.3,5.64,5.64,0,0,0-.448-0.4,0.6,0.6,0,0,1-.256-0.5,0.553,0.553,0,0,1,.1-0.3c0.864-1.7,1.536-3.2,2.3-4.9a0.894,0.894,0,0,1,.448-0.4c0.256,0,.544,0,0.544-0.3a0.842,0.842,0,0,0-.544-0.6,0.315,0.315,0,0,1-.256-0.1c-0.608-.2-1.919-0.8-2.111-0.8a0.534,0.534,0,0,0-.384.5,42.868,42.868,0,0,1-1.92,4.8,0.494,0.494,0,0,1-.48.3c-0.16,0-.288-0.1-0.416-0.1a1.4,1.4,0,0,0-.576-0.4c-0.544,0-1.44,1.8-1.44,2.2a0.534,0.534,0,0,0,.384.5,39.262,39.262,0,0,1,3.552,2.9A0.906,0.906,0,0,1,164.13,10407.8Zm13.471,8.8a0.777,0.777,0,0,1,.9.9v2.4a0.777,0.777,0,0,1-.9.9h-2.08c-1.088,0-2.176-.1-3.264-0.1-0.832,0-.8.5-0.8,1.6s-0.032,1.6.832,1.6c1.088,0,2.144-.1,3.232-0.1h9.119c1.088,0,2.176.1,3.264,0.1,0.832,0,.8-0.5.8-1.6s0.064-1.6-.8-1.6c-1.088,0-2.176.1-3.264,0.1h-2.08a0.777,0.777,0,0,1-.9-0.9v-2.4a0.777,0.777,0,0,1,.9-0.9h0.9c1.12,0,2.272.1,3.424,0.1,0.864,0,.832-0.4.832-1.6,0-1,.032-1.5-0.8-1.5-1.152,0-2.3.1-3.456,0.1h-0.9a0.734,0.734,0,0,1-.9-0.8c-0.032-1.3-.032-1.8.352-2a0.671,0.671,0,0,0,.384-0.5c0-.4-0.48-0.4-0.736-0.4a27.611,27.611,0,0,0-2.751-.3c-0.32,0-.544.1-0.544,0.4a1.689,1.689,0,0,0,.032.4,13.388,13.388,0,0,1,.1,2.3,0.777,0.777,0,0,1-.9.9h-0.48c-1.152,0-2.3-.1-3.456-0.1-0.832,0-.8.4-0.8,1.5,0,1.2-.032,1.6.832,1.6,1.152,0,2.272-.1,3.424-0.1h0.48Zm26.848,1a20.116,20.116,0,0,0-.48-2c-0.448-1.6-.608-1.7-0.96-1.7a0.713,0.713,0,0,0-.928,1,15.668,15.668,0,0,1,.576,2c0.256,1.2.256,1.6,0.7,1.6A1.2,1.2,0,0,0,204.449,10417.6Zm-2.24,1.5a19.294,19.294,0,0,0-.416-2.3c-0.415-2-.575-2.3-0.991-2.3a0.918,0.918,0,0,0-.992.7,1.008,1.008,0,0,0,.064.3c0.32,1.4.448,2.4,0.576,3.1,0.16,1.1.224,1.4,0.64,1.4A1.059,1.059,0,0,0,202.209,10419.1Zm-2.4,1.5c0-.6-0.192-2.5-0.288-3.1-0.256-1.9-.32-2.4-0.9-2.4a0.96,0.96,0,0,0-.96.6,2.144,2.144,0,0,0,.032.5,40.992,40.992,0,0,1,.448,4.4c0.032,0.4.032,0.8,0.608,0.8A0.939,0.939,0,0,0,199.81,10420.6Zm-2.208-4.9c0-.3-1.664-0.5-1.888-0.5a0.36,0.36,0,0,0-.384.4v0.7a26.511,26.511,0,0,1-.512,5,1.31,1.31,0,0,0-.032.4c0,0.4.768,0.5,1.12,0.5,0.64,0,.672-0.5.736-1.2,0.16-1.3.256-2.6,0.32-3.8,0.032-.7-0.032-0.9.224-1A0.563,0.563,0,0,0,197.6,10415.7Zm15.391-11.9a0.338,0.338,0,0,1-.384-0.3,0.415,0.415,0,0,1,.128-0.3c0.832-.9,1.6-1.8,2.336-2.7a0.561,0.561,0,0,1,.48-0.3,0.539,0.539,0,0,1,.511.3,27.2,27.2,0,0,0,2.432,2.7,0.612,0.612,0,0,1,.128.3,0.326,0.326,0,0,1-.352.3h-5.279Zm-12.159,4.5a0.793,0.793,0,0,1,.864.9v0.3a0.793,0.793,0,0,1-.864.9h-0.7a0.831,0.831,0,0,1-.9-0.9v-0.3a0.831,0.831,0,0,1,.9-0.9h0.7Zm0.128-4.3a0.714,0.714,0,0,1,.736.8v0.4a0.714,0.714,0,0,1-.736.8H200a0.737,0.737,0,0,1-.768-0.8v-0.4a0.737,0.737,0,0,1,.768-0.8h0.96Zm0.736-3.1a0.714,0.714,0,0,1-.736.8H200a0.737,0.737,0,0,1-.768-0.8v-0.4a0.8,0.8,0,0,1,.768-0.8h0.96a0.769,0.769,0,0,1,.736.8v0.4Zm11.775,9.7a0.78,0.78,0,0,1,.864.9,5.252,5.252,0,0,1-.064,1,0.777,0.777,0,0,1-.992.8h-0.512a0.724,0.724,0,0,1-.9-0.8v-1a0.79,0.79,0,0,1,.9-0.9h0.7Zm3.839,1.9c0.032-.3.032-0.7,0.064-1.1a0.791,0.791,0,0,1,.9-0.8h0.768a0.768,0.768,0,0,1,.864.9v1a0.7,0.7,0,0,1-.864.8h-0.928A0.669,0.669,0,0,1,217.312,10412.5Zm-6.527-6.9c0.032,0.5.128,0.7,0.7,0.7H213.6a0.676,0.676,0,0,1,.768.7v0.4a0.649,0.649,0,0,1-.768.7h-0.8c-0.64,0-1.28-.1-1.952-0.1-1.056,0-1.888.2-1.888,1.5,0,0.5.032,1,.032,1.6v2.3c0,0.6-.032,1.3-0.032,1.9,0,1,.64,1,1.472,1a2.411,2.411,0,0,0,1.184-.2c0.16,0,.416-0.2.576-0.2h0.512a0.512,0.512,0,0,1,.608.5,0.487,0.487,0,0,1-.064.2,12.879,12.879,0,0,1-5.792,5.4,0.807,0.807,0,0,0-.608.7c0,0.6,1.248,2.2,1.92,2.2,0.768,0,4.64-2.7,6.656-5.9a0.384,0.384,0,0,1,.447-0.2,0.561,0.561,0,0,1,.416.2,16.268,16.268,0,0,0,3.936,4.5,6.033,6.033,0,0,0,2.016,1.2,3.137,3.137,0,0,0,2.048-2,1.471,1.471,0,0,0-.9-0.8,17.945,17.945,0,0,1-5.216-5.3,1.09,1.09,0,0,1-.1-0.3,0.475,0.475,0,0,1,.576-0.4h0.96c0.16,0,.416.2,0.576,0.2a2.411,2.411,0,0,0,1.184.2c0.8,0,1.472.1,1.472-1,0-.6-0.032-1.3-0.032-1.9v-2.3c0-.6.032-1.1,0.032-1.7,0-1.2-.832-1.4-1.888-1.4-0.64,0-1.28.1-1.952,0.1h-0.864a0.693,0.693,0,0,1-.768-0.8v-0.3a0.626,0.626,0,0,1,.768-0.7H220a0.565,0.565,0,0,0,.7-0.6c0.032-.2.064-0.3,0.224-0.3a0.151,0.151,0,0,1,.16.1,3.7,3.7,0,0,0,1.6.9,2.839,2.839,0,0,0,1.888-2,0.93,0.93,0,0,0-.544-0.7,28.37,28.37,0,0,1-6.464-5.9c-0.032,0-.032,0-0.032-0.1a0.185,0.185,0,0,1,.16-0.2,0.465,0.465,0,0,0,.224-0.3c0-.4-0.544-0.5-1.216-0.7a8.607,8.607,0,0,0-1.951-.7,0.737,0.737,0,0,0-.608.6,21.162,21.162,0,0,1-5.888,6.5,0.285,0.285,0,0,1-.256.1,0.394,0.394,0,0,1-.352-0.4c-0.032-.6.032-1-0.608-1-0.576,0-1.344.1-1.984,0.1a0.658,0.658,0,0,1-.768-0.8v-0.4a0.693,0.693,0,0,1,.768-0.8h0.768c0.672,0,1.312.1,1.984,0.1s0.672-.3.672-1.4,0-1.4-.7-1.4h-9.6c-1.216,0-1.856.3-1.856,1.6,0,0.8.032,1.6,0.032,2.4v9.1c0,0.9-.032,2-0.032,3,0,0.7.32,0.6,1.472,0.6h0.448a1.189,1.189,0,0,0,.96-0.2,1.331,1.331,0,0,1,.608-0.5h3.711c0.9,0,1.472-.1,1.472.9a31.538,31.538,0,0,1-.7,5.7c-0.384,1.6-.736,2-2.176,2-0.575,0-1.215-.1-1.375-0.1-0.448,0-.576.4-0.576,1.2,0,1.7.736,2,1.663,2,2.368,0,3.776-.4,4.7-2.8,0.9-2.2,1.376-7.3,1.376-9.8,0-1-.032-1.7-1.568-1.7h-1.216a0.747,0.747,0,0,1-.832-0.9v-0.3a0.745,0.745,0,0,1,.9-0.9h1.888c0.576,0,.576-0.4.576-1.2,0-.9,0-1.2-0.608-1.2-0.448,0-1.216.1-1.984,0.1a0.658,0.658,0,0,1-.768-0.8v-0.4a0.658,0.658,0,0,1,.768-0.8h1.44a0.32,0.32,0,0,1,.128.3,3.054,3.054,0,0,0,1.92,2.2,5.144,5.144,0,0,0,1.792-1.1,0.17,0.17,0,0,1,.192-0.1A0.35,0.35,0,0,1,210.785,10405.6Zm32.672-9.5a0.676,0.676,0,0,0-.448.7,17.78,17.78,0,0,1-1.728,4.1c-0.288.4-1.152,0.4-1.984,0.4h-3.231c-0.8,0-.928.2-0.928,1.5,0,1.6.128,1.7,0.832,1.7h2.239c0.448,0,.7,0,0.7.3,0,0.6-4.639,7.1-5.375,7.9a1.207,1.207,0,0,0-.416.7c0,0.6,2.144,1.8,2.72,1.8a0.453,0.453,0,0,0,.448-0.3,21.476,21.476,0,0,1,2.687-3.7,10.6,10.6,0,0,1,5.984-2.8,1.268,1.268,0,0,1,1.408,1,6.08,6.08,0,0,1,.16.9,0.931,0.931,0,0,1-.576.8,15.886,15.886,0,0,0-1.984,1c-2.208,1.3-4.544,2.9-4.544,5.8a4.9,4.9,0,0,0,3.2,4.6,12.411,12.411,0,0,0,5.056.8,40.826,40.826,0,0,0,6.143-.4c0.7-.2.736-0.4,0.736-1.4,0-1.8-.224-2.2-0.64-2.2-0.224,0-.448.1-0.64,0.1a23.937,23.937,0,0,1-5.951.8c-1.536,0-4.64-.2-4.64-2.3,0-2,3.3-3.4,3.456-3.4a0.4,0.4,0,0,1,.416.5c0,0.7-.064,1.4-0.064,2.1,0,0.8.576,0.9,1.952,0.9,1.216,0,1.376-.1,1.376-1.3,0-1-.032-1.9-0.032-2.9v-0.5a0.938,0.938,0,0,1,.831-1c1.248-.6,2.5-1.1,3.776-1.6,0.16,0,.32-0.1.448-0.1a1.086,1.086,0,0,0,.96-0.7c0-.6-0.768-3.1-1.376-3.1a2.751,2.751,0,0,0-.832.4,26.746,26.746,0,0,1-3.743,1.8,0.579,0.579,0,0,1-.48-0.6c-0.416-2-1.6-2.8-3.648-2.8a8.485,8.485,0,0,0-3.488.8,1.2,1.2,0,0,1-.576.2,0.251,0.251,0,0,1-.256-0.2,9.611,9.611,0,0,1,1.088-1.9,1.167,1.167,0,0,1,.96-0.5c2.016-.2,4.032-0.6,6.048-1,0.672-.1,1.695-0.2,1.695-0.8a10.4,10.4,0,0,0-.256-1.7,0.946,0.946,0,0,0-.8-1,2.353,2.353,0,0,0-.8.2,26.058,26.058,0,0,1-3.712.9,0.309,0.309,0,0,1-.352-0.3,1.553,1.553,0,0,1,.32-0.7,1.644,1.644,0,0,1,1.056-1.1,0.588,0.588,0,0,0,.384-0.4C247.041,10397.6,243.745,10396.1,243.457,10396.1Zm30.144,2.3c-0.448,0-.48.4-0.48,0.8v0.4c0,1.3-.288,4.4-0.384,5.8-0.192,2.6-.288,5.1-0.288,7.6,0,2.4.16,5.5,1.6,7.4a7.006,7.006,0,0,0,5.632,2.4,11.159,11.159,0,0,0,9.727-6.1,11.358,11.358,0,0,0,1.312-3.7c0-1-1.952-2.6-2.656-2.6-0.48,0-.544.5-0.64,1.1a10.28,10.28,0,0,1-1.951,4.7,7.971,7.971,0,0,1-6.016,3.1c-3.456,0-3.392-3.9-3.392-6.4,0-1.8.288-11.9,1.408-12.8a0.529,0.529,0,0,0,.384-0.4,0.658,0.658,0,0,0-.64-0.5A26.206,26.206,0,0,0,273.6,10398.4Zm28.321,19.6a0.825,0.825,0,0,0,.576.6,18.431,18.431,0,0,1,4.863,4.3,1.053,1.053,0,0,0,.64.5,3.872,3.872,0,0,0,2.336-2.4c0-.8-5.5-5.3-6.239-5.3A4.289,4.289,0,0,0,301.922,10418Zm38.016,1.5c0,1.4-.1,2.8-0.1,4.2,0,0.8.32,1.1,1.536,1.1,1.088,0,1.535-.2,1.535-1,0-1.5-.064-2.9-0.064-4.4v-20.3c0-.9.032-1.5,0.352-1.7a0.914,0.914,0,0,0,.448-0.6c0-.4-0.512-0.4-0.8-0.5-0.543,0-1.759-.2-2.271-0.2-0.48,0-.736.1-0.736,0.6,0,0.4.1,2.2,0.1,3.8v19Zm-0.352-16.6c0-.4-0.7-0.5-1.6-0.6h-0.768c-0.448,0-.416.3-0.416,0.6a36.861,36.861,0,0,1-.8,6.8,6.93,6.93,0,0,0-.128.8c0,0.5,1.28.6,1.664,0.6,0.512,0,.544-0.3.64-0.7a47.106,47.106,0,0,0,.8-6.3,0.8,0.8,0,0,1,.352-0.8A0.5,0.5,0,0,0,339.586,10402.9Zm10.751,10.5a0.737,0.737,0,0,1,.768-0.8h1.248a0.737,0.737,0,0,1,.768.8v0.2a0.737,0.737,0,0,1-.768.8h-1.248a0.737,0.737,0,0,1-.768-0.8v-0.2Zm6.431,1a0.737,0.737,0,0,1-.767-0.8v-0.2a0.737,0.737,0,0,1,.767-0.8h1.312a0.737,0.737,0,0,1,.768.8v0.2a0.737,0.737,0,0,1-.768.8h-1.312Zm-4.415-5.2a0.737,0.737,0,0,1,.768.8v0.1a0.737,0.737,0,0,1-.768.8h-1.248a0.737,0.737,0,0,1-.768-0.8v-0.1a0.737,0.737,0,0,1,.768-0.8h1.248Zm6.5,0.9a0.737,0.737,0,0,1-.768.8h-1.312a0.737,0.737,0,0,1-.767-0.8v-0.1a0.737,0.737,0,0,1,.767-0.8h1.312a0.737,0.737,0,0,1,.768.8v0.1Zm-2.112,7.8a0.529,0.529,0,0,1-.607-0.6v-0.1a0.565,0.565,0,0,1,.607-0.7h1.6c0.672,0,1.376.1,2.08,0.1a1.131,1.131,0,0,0,1.376-1.3c0-.5-0.032-1.2-0.032-1.7v-3.5c0-.7.032-1.2,0.032-1.8a1.153,1.153,0,0,0-1.408-1.3c-0.7,0-1.376.1-2.048,0.1h-7.327c-0.7,0-1.408-.1-2.112-0.1a1.11,1.11,0,0,0-1.344,1.3c0,0.6.032,1.2,0.032,1.8v3.5c0,0.5-.032,1.2-0.032,1.7a1.131,1.131,0,0,0,1.376,1.3c0.7,0,1.376-.1,2.08-0.1h1.376c0.448,0,.608.2,0.608,0.7v0.1a0.518,0.518,0,0,1-.608.6h-2.3c-1.12,0-2.24-.1-3.392-0.1-0.672,0-.672.4-0.672,1.3,0,0.8,0,1.2.672,1.2h5.7a0.488,0.488,0,0,1,.608.6v0.2a0.518,0.518,0,0,1-.608.6h-3.808c-1.184,0-2.4-.1-3.616-0.1-0.7,0-.7.4-0.7,1.3s-0.032,1.4.7,1.4c1.216,0,2.432-.1,3.616-0.1h11.935c1.216,0,2.4.1,3.616,0.1,0.736,0,.7-0.4.7-1.4,0-.9.032-1.3-0.7-1.3-1.216,0-2.4.1-3.616,0.1h-3.776a0.529,0.529,0,0,1-.607-0.6v-0.2a0.5,0.5,0,0,1,.607-0.6h6.016c0.672,0,.672-0.3.672-1.2s0-1.3-.672-1.3c-1.152,0-2.272.1-3.392,0.1h-2.624Zm-3.007-14.5a1.041,1.041,0,0,1-1.12-.8c-0.1-.3-0.224-0.6-0.352-1a0.487,0.487,0,0,1-.064-0.2,0.493,0.493,0,0,1,.576-0.5h3.743a0.5,0.5,0,0,1,.608.5,1.008,1.008,0,0,1-.064.3l-0.416,1a1.037,1.037,0,0,1-1.215.7h-1.7Zm-4.48-2.3a0.405,0.405,0,0,0-.192.3,10.109,10.109,0,0,0,.416,1.1,1.051,1.051,0,0,1,.16.4,0.487,0.487,0,0,1-.576.5,21.914,21.914,0,0,1-2.56-.1,0.9,0.9,0,0,1-1.056-.7c-0.352-.8-0.512-1-0.832-1-0.352,0-1.472.4-1.472,0.8a3.337,3.337,0,0,0,.064.4,29.988,29.988,0,0,1,1.184,4.2c0.064,0.4.128,0.9,0.672,0.9,0.512,0,1.6-.4,1.6-1a4.49,4.49,0,0,0-.1-0.5,0.608,0.608,0,0,1,.576-0.6H360.16c1.184,0,2.336.1,3.52,0.1,0.7,0,.672-0.3.672-1.3s0.032-1.3-.672-1.3c-1.152,0-2.272.1-3.424,0.1a0.487,0.487,0,0,1-.576-0.5,2.79,2.79,0,0,1,.32-0.8,0.605,0.605,0,0,1,.576-0.3,0.45,0.45,0,0,0,.32-0.4,0.635,0.635,0,0,0-.7-0.4,0.177,0.177,0,0,1-.064-0.1h2.5c0.7,0,.672-0.3.672-1.2,0-1,.032-1.3-0.672-1.3-1.184,0-2.336.1-3.52,0.1h-2.016a0.728,0.728,0,0,1-.832-0.7,1.118,1.118,0,0,1,.32-0.6,0.526,0.526,0,0,0,.416-0.5c0-.4-0.608-0.4-0.928-0.4a24.309,24.309,0,0,0-2.623-.2c-0.32,0-.576.1-0.576,0.4,0,0.2.1,0.9,0.1,1.1a0.747,0.747,0,0,1-.832.9h-1.5c-1.184,0-2.368-.1-3.52-0.1-0.7,0-.7.3-0.7,1.3,0,0.9,0,1.2.7,1.2h2.112c0.064,0,.1,0,0.1.1C349.313,10401,349.281,10401,349.249,10401.1Zm31.008-4.3a0.42,0.42,0,0,0-.512.5c0,0.2.032,0.6,0.032,1,0,1.4-.128,3.3-0.128,4.2a1.726,1.726,0,0,1-.16.9c-0.384.8-4.447,1.5-5.407,1.6-0.384.1-1.056,0.1-1.056,0.6a9.637,9.637,0,0,0,.672,2.2,1.146,1.146,0,0,0,.928.9,32.861,32.861,0,0,0,3.871-1.3,1.327,1.327,0,0,1,.576-0.2,0.418,0.418,0,0,1,.416.5c0,0.2-.064.5-0.064,0.8a2.913,2.913,0,0,1-.384,1.5,85.577,85.577,0,0,1-4.7,7.8,4.386,4.386,0,0,0-.64,1.2,4.751,4.751,0,0,0,2.4,2.1,0.563,0.563,0,0,0,.416-0.4c0.32-.6,1.311-2.3,1.663-2.9a2.2,2.2,0,0,1,.768-1,0.381,0.381,0,0,1,.288.4c0,1.5-.192,5-0.192,5.3,0,0.7.576,0.7,1.344,0.7,2.368,0,2.336-.4,2.336-0.6,0-.3-0.1-2.1-0.16-3.4-0.032-.5-0.1-1.5-0.1-1.7,0-.7-0.128-4.6,0-5a14.918,14.918,0,0,1,1.792-2.1,40.127,40.127,0,0,1,3.488-3.1,4.771,4.771,0,0,1,2.5-1.2c0.96,0,.96,1.1.96,1.8,0,2.9-.416,5.8-0.416,8.6,0,2.1.256,5.2,2.943,5.2a8.556,8.556,0,0,0,4.512-1.9,4.017,4.017,0,0,0,1.536-1.5c0-.5-0.928-2.9-1.472-2.9a1.182,1.182,0,0,0-.608.3c-0.576.7-1.952,2-2.816,2-0.736,0-.7-1.1-0.7-1.9,0-1.3.1-2.7,0.16-4.1,0.1-1.6.16-3.3,0.16-5a5.728,5.728,0,0,0-.576-3,3.349,3.349,0,0,0-2.751-1.4,7.552,7.552,0,0,0-4.64,2.2c-0.768.7-2.048,1.8-2.72,2.5a0.373,0.373,0,0,1-.256.2,0.284,0.284,0,0,1-.256-0.3,1.877,1.877,0,0,1,.064-0.5,10.629,10.629,0,0,1,.864-1.6,0.791,0.791,0,0,0,.192-0.3,2.257,2.257,0,0,0-1.088-1.5,0.578,0.578,0,0,1-.512-0.6c0-.4.224-2,0.288-2.5,0.192-1.3.16-1.4,0.576-1.8a0.688,0.688,0,0,0,.256-0.5,0.326,0.326,0,0,0-.352-0.3C383.265,10397.2,380.609,10396.8,380.257,10396.8Zm38.4,6.6a0.535,0.535,0,0,1,.512.6,32.145,32.145,0,0,1-1.024,6.2c-0.9,3.3-2.688,6.9-4.288,6.9-1.631,0-2.047-3-2.047-4.1a10.058,10.058,0,0,1,5.759-9.3A4.421,4.421,0,0,1,418.657,10403.4Zm3.072-3.7a13.142,13.142,0,0,0-13.279,13.4,9.825,9.825,0,0,0,.992,4.5,5.1,5.1,0,0,0,4.351,3.1,5.713,5.713,0,0,0,4.224-2.5c3.072-3.7,4.192-9.4,4.544-14,0.032-.6.032-1.3,0.768-1.3a5.4,5.4,0,0,1,1.216.3,7.805,7.805,0,0,1,5.119,7.7c0,4.5-3.295,7.3-7.487,8.3-0.32,0-.8.1-0.8,0.4,0,0.7,1.312,2.7,2.144,2.7a12.016,12.016,0,0,0,3.487-1.3,11.519,11.519,0,0,0,6.24-10.3,10.881,10.881,0,0,0-3.232-7.9A11.485,11.485,0,0,0,421.729,10399.7Zm36.64,20.6-0.608-1.5c-0.192-.5-0.32-0.7-0.576-0.7a1.018,1.018,0,0,0-.64.2,8.52,8.52,0,0,1-3.712.8c-4.576,0-7.423-3.1-7.423-7.6s2.719-8.2,8.031-8.2a9.536,9.536,0,0,1,3.424.7,2.553,2.553,0,0,0,.64.2c0.256,0,.352-0.2.544-0.7l0.7-1.9a1.891,1.891,0,0,0,.16-0.6,0.685,0.685,0,0,0-.7-0.6,11.5,11.5,0,0,0-4.608-.8c-8,0-12.063,5.3-12.063,12,0,6.6,4.256,11,10.879,11a15.523,15.523,0,0,0,5.408-1,0.978,0.978,0,0,0,.7-0.7A1.4,1.4,0,0,0,458.369,10420.3Zm20.48-3.2c0.864,0,1.056,0,1.344.7,0.448,1.1.864,2.2,1.408,3.7a1.025,1.025,0,0,0,1.28.9h2.463c0.512,0,.736-0.1.736-0.3a2.022,2.022,0,0,0-.192-0.6c-0.992-2.2-1.695-3.8-2.4-5.4l-4.608-10.8c-0.576-1.4-1.216-2.9-1.888-4.7a1.087,1.087,0,0,0-1.28-.9h-1.376a1.087,1.087,0,0,0-1.28.9c-0.672,1.8-1.344,3.3-1.92,4.7l-4.575,10.8c-0.672,1.6-1.376,3.2-2.368,5.4a2.022,2.022,0,0,0-.192.6c0,0.2.224,0.3,0.736,0.3h2.24a1.025,1.025,0,0,0,1.28-.9c0.544-1.5.96-2.6,1.408-3.7,0.288-.7.512-0.7,1.343-0.7h7.84Zm-4.256-11.3c0.128-.4.256-0.5,0.352-0.5,0.128,0,.224.1,0.352,0.5l2.976,7.3a1.276,1.276,0,0,1,.128.5c0,0.3-.224.4-0.736,0.4h-5.472c-0.512,0-.736-0.1-0.736-0.4a1.276,1.276,0,0,1,.128-0.5Zm29.824,9.2c-0.608,0-1.728,2.3-1.728,2.8s2.144,3.2,7.327,3.2c1.28,0,6.688-.5,7.584-1a1.242,1.242,0,0,0,.384-1.2c0-1.6-.064-2.4-0.576-2.4-0.192,0-.512.1-0.672,0.1a24.089,24.089,0,0,1-7.04,1.1,5.52,5.52,0,0,1-4.863-2.3A0.664,0.664,0,0,0,504.417,10415Zm0.735-13.8c-0.511,0-.671.5-0.671,2a1.706,1.706,0,0,0,.319,1.3c0.672,0.4,4.608.6,5.6,0.6a31.954,31.954,0,0,0,5.376-.5c0.608-.1.608-0.3,0.608-1a13.572,13.572,0,0,0-.128-1.7,0.738,0.738,0,0,0-.64-0.8c-0.192,0-.416.1-0.576,0.1a20.045,20.045,0,0,1-4.864.6,19.75,19.75,0,0,1-4.192-.5C505.728,10401.3,505.376,10401.2,505.152,10401.2Zm-7.679-2.5a0.664,0.664,0,0,0-.48.7,14.719,14.719,0,0,1-.416,1.6,38.118,38.118,0,0,0-1.632,10.6,21.99,21.99,0,0,0,1.952,9.8c0.416,0.9.8,1.6,1.344,1.6,0.672,0,2.5-.8,2.5-1.6a4.346,4.346,0,0,0-.064-0.5c-0.032-.3-0.128-1-0.128-1.3,0-1.5,1.28-4.4,1.28-4.7a1.859,1.859,0,0,0-1.152-1,1.132,1.132,0,0,0-.672.8,2.433,2.433,0,0,1-.864,1.2c-0.736,0-.864-3.8-0.864-4.4a25,25,0,0,1,1.792-9.1,2.14,2.14,0,0,1,.992-1.4c0.32-.2.448-0.2,0.448-0.4a0.858,0.858,0,0,0-.64-0.6C500.417,10399.8,497.729,10398.7,497.473,10398.7Zm44.255,17c0.8,0,.96-0.2.992-1l0.192-7.9c0.064-2.1.288-6.4,0.288-7s-0.192-.7-0.9-0.7h-2.239c-0.7,0-.9.1-0.9,0.7s0.224,4.9.288,6.8l0.224,8.1c0.032,0.8.192,1,.991,1h1.056Zm-0.416,2.5a2.349,2.349,0,0,0-2.463,2.5,2.038,2.038,0,0,0,2.207,2.1,2.316,2.316,0,0,0,2.5-2.4A2.143,2.143,0,0,0,541.312,10418.2Z" transform="translate(-125.281 -10347.7)"/>
</svg>
