<svg xmlns="http://www.w3.org/2000/svg" width="375.34" height="76.625" viewBox="0 0 375.34 76.625">
  <defs>
    <style>
      .cls-1 {
        fill: #51a6da;
        fill-rule: evenodd;
      }
    </style>
  </defs>
  <path id="ラッキーアイテムと共に_夢を実現_" data-name="ラッキーアイテムと共に 夢を実現！" class="cls-1" d="M1036.49,361.6c-1.38,0-2.75-.064-4.1-0.064-0.89,0-.92.224-0.92,1.856,0,1.248,0,1.568.89,1.568,1.38,0,2.72-.064,4.07-0.064h11.9c0.51,0,1.37-.064,1.37.7a8.338,8.338,0,0,1-.86,2.08,23.026,23.026,0,0,1-9.82,9.087c-0.32.16-1.12,0.448-1.12,0.832,0,0.544,1.47,2.368,2.2,2.368,1,0,4.45-2.464,5.35-3.2a26.7,26.7,0,0,0,6.62-7.551,22.28,22.28,0,0,0,1.86-4.32,8.054,8.054,0,0,0,.41-1.312,3.812,3.812,0,0,0-2.27-2.112,3.454,3.454,0,0,0-.57.064c-0.68.064-2.15,0.064-2.88,0.064h-12.13Zm2.14-6.911c-1.25,0-2.88-.1-3.77-0.1-0.8,0-.87.384-0.87,1.888,0,1.184,0,1.568.9,1.568,1.25,0,2.49-.064,3.74-0.064h7.84c1.25,0,2.5.064,3.78,0.064,0.86,0,.86-0.416.86-1.5,0-1.6-.06-1.952-0.86-1.952-0.83,0-2.47.1-3.78,0.1h-7.84Zm45.89,6.623c-0.35,0-.38.352-0.42,0.64a18.467,18.467,0,0,1-2.62,7.264c-2.3,3.744-5.79,5.631-9.92,6.751a0.559,0.559,0,0,0-.51.576c0,0.448,1.18,2.208,1.79,2.208a5.636,5.636,0,0,0,.99-0.256,18.287,18.287,0,0,0,8.71-5.567,24.027,24.027,0,0,0,4.38-8.96,1.02,1.02,0,0,1,.42-0.672,0.541,0.541,0,0,0-.2-1.056A21.316,21.316,0,0,0,1084.52,361.314Zm-5.66,1.152c-0.55-.9-1.16-1.792-1.6-1.792-0.42,0-2.15.8-2.15,1.344a1.07,1.07,0,0,0,.29.64,34.471,34.471,0,0,1,2.24,3.776,0.879,0.879,0,0,0,.64.608c0.45,0,2.3-.832,2.3-1.472a12.526,12.526,0,0,0-1.44-2.624Zm-8.1,0c-0.41,0-2.14.8-2.14,1.376a1.236,1.236,0,0,0,.25.576,30.711,30.711,0,0,1,2.31,3.872,0.748,0.748,0,0,0,.6.544c0.39,0,2.31-.8,2.31-1.472a11.582,11.582,0,0,0-1.38-2.528,24.209,24.209,0,0,0-1.41-2.08A0.683,0.683,0,0,0,1070.76,362.466Zm35.68-2.655c-1.15.16-2.08,0.288-2.75,0.352-1.66.191-2.11,0.255-2.11,0.863,0,0.384.19,1.472,0.25,1.92a0.775,0.775,0,0,0,.68.768c0.19,0,3.77-.576,4.35-0.672l2.81-.416a0.935,0.935,0,0,1,1.12.8l0.64,3.488a0.8,0.8,0,0,1-.7.992l-5.5.8c-1.12.16-1.99,0.256-2.63,0.32-1.69.16-2.11,0.224-2.11,0.832a14.254,14.254,0,0,0,.32,2.08,0.648,0.648,0,0,0,.67.64c0.29,0,3.59-.576,4.19-0.672l5.63-.8a0.985,0.985,0,0,1,1.09.768l0.42,2.239c0.22,1.248.51,2.88,0.73,4.16a1.3,1.3,0,0,1,.07.384c0.09,0.7.16,1.312,0.77,1.312a12.2,12.2,0,0,0,2.11-.384,0.752,0.752,0,0,0,.7-0.672c0-.48-0.93-4.576-1.09-5.439l-0.38-2.112a0.8,0.8,0,0,1,.67-0.992l5.06-.736c1.09-.16,1.92-0.256,2.56-0.32,1.95-.224,2.27-0.288,2.27-0.992a9.056,9.056,0,0,0-.1-0.992c-0.03-.16-0.03-0.288-0.06-0.416-0.1-.7-0.16-1.184-0.77-1.184-0.16,0-3.81.64-4.35,0.7l-5.18.736a0.935,0.935,0,0,1-1.06-.768l-0.67-3.52a0.817,0.817,0,0,1,.67-0.992l2.59-.384c1.03-.16,1.83-0.224,2.47-0.288,1.85-.224,2.27-0.256,2.27-0.928a13.475,13.475,0,0,0-.23-1.6c-0.09-.48-0.12-1.056-0.7-1.056-0.19,0-3.71.576-4.29,0.672l-2.65.384a0.983,0.983,0,0,1-1.06-.832l-0.13-.544c-0.06-.448-0.38-2.208-0.38-2.528a5.112,5.112,0,0,1,.38-1.184c0-.288-0.38-0.288-0.57-0.288-0.77,0-1.54.032-2.31,0.064-0.8.032-1.34,0.032-1.34,0.448a1.194,1.194,0,0,0,.09.352c0.26,0.832.52,2.3,0.71,3.168l0.16,0.736a3.394,3.394,0,0,1,.06.512,0.831,0.831,0,0,1-.7.832Zm34.59,4.415c-1.34,0-3.55-.1-3.96-0.1-0.84,0-.9.256-0.9,2.048,0,0.992.03,1.6,0.86,1.6,1.35,0,2.69-.064,4-0.064h14.72c1.31,0,2.66.064,4,.064,0.83,0,.87-0.608.87-1.632,0-1.76-.04-2.016-0.9-2.016-0.42,0-2.5.1-3.97,0.1h-14.72Zm40.67-2.432c-0.32,0-.32.16-0.32,0.416a17.085,17.085,0,0,1-.51,4.768,15.149,15.149,0,0,1-6.68,9.311,1.19,1.19,0,0,0-.77.7c0,0.576,2.08,2.24,2.62,2.24a2.331,2.331,0,0,0,1.06-.576c4.76-3.68,6.75-7.743,7.68-13.6a5.348,5.348,0,0,1,.64-2.3,0.51,0.51,0,0,0,.19-0.32c0-.352-0.45-0.352-0.67-0.384C1184.46,361.986,1182.12,361.794,1181.7,361.794Zm-5.59-4.863c-1.48,0-2.95-.064-4.42-0.064-0.74,0-.8.384-0.8,1.216v0.64c0,1.279.03,1.631,0.86,1.631,1.44,0,2.88-.1,4.36-0.1h13.72c0.29,0,.99-0.063.99,0.384s-3.55,3.584-4.12,4.1a2.059,2.059,0,0,0-.8.96c0,0.544,1.79,1.952,2.33,1.952a1.264,1.264,0,0,0,.77-0.448c1.18-1.056,2.85-2.688,3.97-3.84,0.38-.416,2.78-2.912,2.97-3.072a1.429,1.429,0,0,0,.71-0.863,3.983,3.983,0,0,0-1.19-1.856,1.811,1.811,0,0,0-1.18-.832,1.732,1.732,0,0,0-.42.032,22.867,22.867,0,0,1-3.32.16h-14.43Zm45.31,5.663a1.7,1.7,0,0,1,.73-1.44,62.236,62.236,0,0,0,4.39-4.8,1.707,1.707,0,0,1,1.24-.768,0.373,0.373,0,0,0,.32-0.32,2.742,2.742,0,0,0-1.24-1.152,11.931,11.931,0,0,0-2.18-1.312,0.834,0.834,0,0,0-.51.48,27.47,27.47,0,0,1-4.35,5.408,46.22,46.22,0,0,1-12.58,8.479,0.65,0.65,0,0,0-.51.544,5.368,5.368,0,0,0,2.5,2.56c0.83,0,5.91-3.392,6.87-4.1a3.615,3.615,0,0,1,1.25-.736c0.61,0,.51.7,0.51,0.9v8.7c0,1.376-.06,2.752-0.06,4.128,0,0.832.32,0.928,2.08,0.928,1.18,0,1.6-.1,1.6-0.96,0-1.376-.06-2.784-0.06-4.192V362.594Zm24.51,0.832c-1.34,0-2.69-.1-4.06-0.1-0.71,0-.8.352-0.8,1.824,0,1.152.03,1.632,0.86,1.632,1.34,0,2.69-.064,4-0.064h6.49a0.751,0.751,0,0,1,.77.736,13.457,13.457,0,0,1-.29,1.568,9.415,9.415,0,0,1-4.03,5.823,14.98,14.98,0,0,1-4,1.664,1,1,0,0,0-.89.544c0,0.544,1.76,2.656,2.46,2.656a14.829,14.829,0,0,0,3.33-1.408,13.052,13.052,0,0,0,6.91-10.079c0.1-.672.13-1.5,1.02-1.5h4.2c1.37,0,2.75.064,4.16,0.064,0.86,0,.86-0.608.86-1.7,0-1.5.03-1.76-.96-1.76-1.38,0-2.72.1-4.06,0.1h-15.97Zm4.35-8.383c-1.41,0-2.78-.064-4.16-0.064-0.83,0-.86.352-0.86,1.7,0,1.216-.1,1.728.86,1.728,1.35,0,2.72-.064,4.1-0.064h6.97c1.38,0,2.75.064,4.1,0.064,0.89,0,.86-0.448.86-1.44,0-1.568.03-1.984-.83-1.984-1.41,0-2.78.064-4.16,0.064h-6.88Zm38.18-.608a0.72,0.72,0,0,0-.55.64c-0.61,1.984-6.24,13.663-7.42,15.9-0.48.9-.58,1.024-2.75,1.024h-0.55c-0.41,0-.7.032-0.7,0.384a2.053,2.053,0,0,0,.1.48,9.4,9.4,0,0,1,.25,1.183c0.26,1.216.48,2.176,0.87,2.176a0.477,0.477,0,0,0,.38-0.256c0.35-.48.35-0.416,1.44-0.544,1.79-.224,17.57-2.175,17.66-2.175,0.67,0,.93.543,1.76,1.887a1.187,1.187,0,0,0,.8.8c0.71,0,2.5-1.312,2.5-2.079,0-.7-2.82-4.16-3.39-4.864-0.71-.8-4.52-5.024-5.32-5.024a3.971,3.971,0,0,0-2.14,2.048,1.385,1.385,0,0,0,.58.8c0.54,0.48,2.97,2.592,2.97,3.168,0,0.48-.54.512-0.89,0.544-2.76.352-5.51,0.64-8.29,0.928-0.23.032-.74,0.1-0.96,0.1a0.577,0.577,0,0,1-.58-0.576,2.485,2.485,0,0,1,.29-0.832c1.89-3.712,3.62-7.488,5.54-11.167,0.83-1.568.99-2.048,1.69-2.368a0.528,0.528,0,0,0,.39-0.384,1.439,1.439,0,0,0-.84-0.64A18.416,18.416,0,0,0,1288.46,354.435Zm29.63,0.224a1.363,1.363,0,0,0,.1.384,21.375,21.375,0,0,1,.6,2.112c0.32,1.312,1.22,4.7,1.6,5.855a1.059,1.059,0,0,1,.13.576,0.988,0.988,0,0,1-.54.832c-2.66,1.728-5.54,4-5.54,7.488a5.622,5.622,0,0,0,2.95,4.927,11.971,11.971,0,0,0,6.55,1.376,76.5,76.5,0,0,0,8.8-.512c0.64-.16.68-0.512,0.68-1.344v-0.384c0-.672-0.04-1.983-0.48-1.983a0.9,0.9,0,0,0-.29.031,48.331,48.331,0,0,1-8.35.832,12.79,12.79,0,0,1-4.26-.576c-0.99-.351-2.11-1.151-2.11-2.3a4.039,4.039,0,0,1,1.57-2.88,32.242,32.242,0,0,1,5.76-3.776,58.686,58.686,0,0,1,7.9-3.68,0.686,0.686,0,0,0,.61-0.512,6.308,6.308,0,0,0-.93-1.951c-0.19-.32-0.74-1.28-1.15-1.28a2,2,0,0,0-.83.32c-0.84.544-5.96,3.551-6.53,3.551a0.916,0.916,0,0,1-.74-0.96,43.054,43.054,0,0,1-.99-5.727c-0.06-.736,0-1.216-0.9-1.216a11.825,11.825,0,0,0-1.53.16C1319.14,354.179,1318.09,354.179,1318.09,354.659Zm55.29,23.9a0.876,0.876,0,0,0-.6-0.64,29.64,29.64,0,0,1-7.78-5.727,0.953,0.953,0,0,0-.61-0.384c-0.41,0-2.37,1.344-2.37,1.824,0,0.576,3.43,3.455,4.04,3.935,0.76,0.608,4.35,3.168,5.12,3.168C1371.88,380.737,1373.38,379.041,1373.38,378.561Zm-16.16-4.607a4.264,4.264,0,0,0-1.44-1.248,7.35,7.35,0,0,0-1.69-.96,0.814,0.814,0,0,0-.45.352,30.39,30.39,0,0,1-7.61,5.759,1.082,1.082,0,0,0-.74.7c0,0.512,1.5,2.176,2.21,2.176a2.55,2.55,0,0,0,1.09-.48,35.283,35.283,0,0,0,7.03-5.5,0.983,0.983,0,0,1,.9-0.416C1356.78,374.337,1357.22,374.305,1357.22,373.954Zm-1.15-11.52a0.9,0.9,0,0,1,.9-0.9h5.09a0.91,0.91,0,0,1,.89.9v4.992a0.91,0.91,0,0,1-.89.9h-5.09a0.9,0.9,0,0,1-.9-0.9v-4.992Zm-3.23,4.992a0.768,0.768,0,0,1-.89.9h-1.89c-1.38,0-2.72-.1-4.1-0.1-0.73,0-.7.48-0.7,1.6s-0.03,1.6.7,1.6c1.38,0,2.72-.1,4.1-0.1h18.68c1.35,0,2.69.1,4.07,0.1,0.73,0,.73-0.448.73-1.6s0-1.6-.73-1.6c-1.38,0-2.72.1-4.07,0.1h-1.66a0.775,0.775,0,0,1-.9-0.9v-4.992a0.764,0.764,0,0,1,.9-0.9h0.7c1.28,0,2.56.1,3.88,0.1,0.7,0,.67-0.48.67-1.6,0-1.183.03-1.631-.67-1.631-1.32,0-2.6.064-3.88,0.064h-0.7a0.754,0.754,0,0,1-.9-0.864v-2.816a1.679,1.679,0,0,1,.39-1.5,0.641,0.641,0,0,0,.45-0.48c0-.384-0.58-0.416-0.9-0.448-0.54-.064-2.27-0.224-2.75-0.224-0.32,0-.58.064-0.58,0.448,0,0.1.03,0.224,0.03,0.32,0.07,0.768.13,1.5,0.13,2.24V357.6a0.747,0.747,0,0,1-.89.864h-5.09a0.754,0.754,0,0,1-.9-0.864v-2.784c0-.864.03-1.28,0.39-1.5a0.678,0.678,0,0,0,.44-0.512c0-.384-0.57-0.416-0.89-0.448-0.55-.064-2.27-0.224-2.75-0.224a0.449,0.449,0,0,0-.55.48V352.9a13.325,13.325,0,0,1,.13,2.272V357.6a0.747,0.747,0,0,1-.89.864h-0.77c-1.28,0-2.59-.064-3.87-0.064-0.74,0-.71.416-0.71,1.631,0,1.152-.03,1.6.71,1.6,1.28,0,2.59-.1,3.87-0.1h0.77a0.757,0.757,0,0,1,.89.9v4.992Zm40.38,3.616c-0.6,0-1.72,2.272-1.72,2.719,0,0.512,2.14,3.2,7.32,3.2,1.28,0,6.69-.48,7.59-0.96a1.255,1.255,0,0,0,.38-1.184c0-1.631-.06-2.4-0.57-2.4a2.282,2.282,0,0,0-.68.128,26.166,26.166,0,0,1-7.04,1.024,5.485,5.485,0,0,1-4.86-2.24A0.564,0.564,0,0,0,1393.22,371.042Zm0.74-13.855c-0.51,0-.67.48-0.67,2.016a1.558,1.558,0,0,0,.32,1.247c0.67,0.448,4.61.64,5.6,0.64a37.261,37.261,0,0,0,5.37-.448c0.61-.128.61-0.384,0.61-1.055a14.353,14.353,0,0,0-.13-1.728,0.713,0.713,0,0,0-.64-0.768,3.052,3.052,0,0,0-.57.1,20.98,20.98,0,0,1-4.87.64,20.531,20.531,0,0,1-4.19-.48A4.171,4.171,0,0,0,1393.96,357.187Zm-7.68-2.5a0.686,0.686,0,0,0-.48.7,13.423,13.423,0,0,1-.41,1.6,37.99,37.99,0,0,0-1.64,10.591,21.958,21.958,0,0,0,1.96,9.823c0.41,0.864.8,1.568,1.34,1.568,0.67,0,2.49-.768,2.49-1.568a3.019,3.019,0,0,0-.06-0.48c-0.03-.288-0.13-1.024-0.13-1.344,0-1.44,1.28-4.351,1.28-4.639a1.751,1.751,0,0,0-1.15-1.024,1.029,1.029,0,0,0-.67.768,2.548,2.548,0,0,1-.86,1.248c-0.74,0-.87-3.872-0.87-4.48a25.378,25.378,0,0,1,1.79-9.087,2.065,2.065,0,0,1,.99-1.376c0.32-.192.45-0.224,0.45-0.416a0.756,0.756,0,0,0-.64-0.544C1389.22,355.843,1386.54,354.691,1386.28,354.691Zm-242.43,69.758a27.25,27.25,0,0,1-5.31.96c-1.31.128-1.89,0.128-1.89,0.736a4.566,4.566,0,0,0,.32,1.312c0.45,1.088.93,1.088,1.25,1.088,0.35,0,.7-0.064,1.05-0.1a32.062,32.062,0,0,0,9.73-2.656,21.568,21.568,0,0,0,7.2-5.119,2.094,2.094,0,0,0,.67-1.216,2.15,2.15,0,0,0-2.17-1.92c-1,0-1.96.032-2.95,0.032h-4.06a0.281,0.281,0,0,1-.29-0.224,0.218,0.218,0,0,1,.1-0.192,0.767,0.767,0,0,1,.28-0.128c0.23,0,.9-0.032.9-0.384a0.636,0.636,0,0,0-.67-0.48,0.185,0.185,0,0,1-.19-0.1,0.1,0.1,0,0,1,.09-0.064h9.86a0.767,0.767,0,0,1,.89.9c0,0.352-.06.832-0.06,1.184,0,0.64.51,0.608,1.57,0.608,1.09,0,1.57.032,1.57-.608,0-.32-0.07-0.832-0.07-1.152v-0.64c0-.576.03-1.024,0.03-1.408,0-1.088-.73-1.248-2.27-1.248-0.7,0-1.57.032-2.59,0.032h-16.89c-1.06,0-1.99-.064-2.72-0.064-1.41,0-2.18.192-2.18,1.248,0,0.352.06,0.832,0.06,1.44v0.576c0,0.352-.06.832-0.06,1.152,0,0.64.45,0.64,1.57,0.64,1.05,0,1.53,0,1.53-.608,0-.32-0.06-0.832-0.06-1.152a0.811,0.811,0,0,1,.9-0.9h4.44a0.4,0.4,0,0,1,.42.32,0.447,0.447,0,0,1-.13.288,19.8,19.8,0,0,1-5.82,3.712c-0.99.384-1.28,0.48-1.28,0.832,0,0.544.86,2.047,1.57,2.047,0.99,0,4.6-2.207,5.53-2.847a2.28,2.28,0,0,1,1.54-.448h6.04c0.39,0,.74.032,0.74,0.224a4.583,4.583,0,0,1-1.12,1.088,21.273,21.273,0,0,1-2.53,1.439,1.181,1.181,0,0,1-.57.16,1.146,1.146,0,0,1-.77-0.352,10.29,10.29,0,0,0-2.5-1.919c-0.57,0-2.17,1.088-2.17,1.5a3.432,3.432,0,0,0,1.05,1.056c0.26,0.192.45,0.384,0.61,0.512a0.615,0.615,0,0,1,.19.416A0.442,0.442,0,0,1,1143.85,424.449Zm9.02-15.391a0.832,0.832,0,0,1,.87-0.895h1.44a0.889,0.889,0,0,1,.89.895v0.32a0.843,0.843,0,0,1-.89.864h-1.44a0.793,0.793,0,0,1-.87-0.864v-0.32Zm-6.05,0a0.879,0.879,0,0,1,.9-0.895h1.47a0.9,0.9,0,0,1,.9.895v0.32a0.852,0.852,0,0,1-.9.864h-1.47a0.8,0.8,0,0,1-.9-0.864v-0.32Zm-3.74-.895a0.9,0.9,0,0,1,.9.895v0.32a0.857,0.857,0,0,1-.9.864h-1.41a0.843,0.843,0,0,1-.89-0.864v-0.32a0.889,0.889,0,0,1,.89-0.895h1.41Zm3.49-2.08a0.678,0.678,0,0,1-.71-0.768,0.723,0.723,0,0,1,.87-0.8h3.45a0.743,0.743,0,0,1,.87.832,0.672,0.672,0,0,1-.71.736h-3.77Zm-7.65-3.968c-1.25,0-2.49-.064-3.77-0.064-0.77,0-.74.288-0.74,1.28,0,0.96,0,1.248.74,1.248,1.28,0,2.52-.064,3.77-0.064h2.63a0.709,0.709,0,0,1,.83.8,0.68,0.68,0,0,1-.67.768c-0.74-.032-1.51-0.064-2.24-0.064s-1.8.064-1.8,1.056c0,0.256.04,0.544,0.04,1.152v2.015c0,0.608-.04.9-0.04,1.152,0,1.024,1.12,1.056,1.89,1.056,0.8,0,1.6-.064,2.4-0.064h12.96c0.8,0,1.63.064,2.43,0.064,0.77,0,1.83-.064,1.83-1.056,0-.32-0.04-0.576-0.04-1.152v-2.015c0-.576.04-0.832,0.04-1.152,0-1.024-1.12-1.056-1.86-1.056s-1.44.032-2.14,0.064a0.711,0.711,0,0,1-.68-0.768,0.75,0.75,0,0,1,.87-0.8h2.65c1.25,0,2.53.064,3.78,0.064,0.77,0,.74-0.288.74-1.248s0.03-1.28-.74-1.28c-1.28,0-2.53.064-3.78,0.064h-2.68a0.712,0.712,0,0,1-.87-0.64,0.7,0.7,0,0,1,.39-0.64,0.519,0.519,0,0,0,.35-0.384c0-.32-0.51-0.352-0.77-0.352-0.64-.064-2.27-0.192-2.88-0.192-0.26,0-.58,0-0.58.352a0.719,0.719,0,0,0,.04.288,5.594,5.594,0,0,1,.06.736,0.729,0.729,0,0,1-.86.832h-3.52a0.71,0.71,0,0,1-.87-0.608v-0.1a0.68,0.68,0,0,1,.35-0.576,0.516,0.516,0,0,0,.36-0.384c0-.32-0.48-0.352-0.74-0.352-0.67-.064-2.3-0.192-2.91-0.192-0.26,0-.58.032-0.58,0.352a0.719,0.719,0,0,0,.04.288c0.03,0.224.06,0.48,0.09,0.736a0.729,0.729,0,0,1-.86.832h-2.66Zm43.33-1.984c-0.32,0-.39.32-0.45,0.672a17.152,17.152,0,0,1-1.73,4.128,2.821,2.821,0,0,1-1.98.416h-0.93c-0.93,0-1.76-.064-2.3-0.064-0.8,0-.93.192-0.93,1.472,0,1.631.13,1.791,0.83,1.791,0.99,0,1.73-.1,2.24-0.1,0.45,0,.71.1,0.71,0.384,0,0.608-4.64,7.04-5.38,7.84a1.347,1.347,0,0,0-.42.7c0,0.576,2.15,1.856,2.72,1.856a0.52,0.52,0,0,0,.45-0.32,20.788,20.788,0,0,1,2.69-3.744,10.752,10.752,0,0,1,5.98-2.816,1.331,1.331,0,0,1,1.41,1.088,4.686,4.686,0,0,1,.16.9,0.823,0.823,0,0,1-.58.736c-0.67.32-1.34,0.672-1.98,1.056-2.21,1.312-4.54,2.88-4.54,5.76a4.849,4.849,0,0,0,3.2,4.575,11.824,11.824,0,0,0,5.05.832,42.524,42.524,0,0,0,6.15-.416c0.7-.16.73-0.416,0.73-1.376,0-1.824-.22-2.176-0.64-2.176a3.962,3.962,0,0,0-.64.064,23.406,23.406,0,0,1-5.95.8c-1.54,0-4.64-.192-4.64-2.335,0-1.984,3.3-3.392,3.46-3.392a0.441,0.441,0,0,1,.41.544c0,0.672-.06,1.376-0.06,2.08,0,0.832.57,0.9,1.95,0.9,1.22,0,1.38-.128,1.38-1.28,0-.992-0.04-1.952-0.04-2.944v-0.416a0.985,0.985,0,0,1,.84-1.056c1.24-.544,2.49-1.088,3.77-1.568,0.16-.064.32-0.1,0.45-0.16,0.61-.192.96-0.32,0.96-0.7,0-.544-0.77-3.008-1.38-3.008a2.743,2.743,0,0,0-.83.32,28.573,28.573,0,0,1-3.74,1.824,0.527,0.527,0,0,1-.48-0.544,3.266,3.266,0,0,0-3.65-2.88,8.888,8.888,0,0,0-3.49.832,1.218,1.218,0,0,1-.57.192,0.25,0.25,0,0,1-.26-0.224,10.427,10.427,0,0,1,1.09-1.855,1.129,1.129,0,0,1,.96-0.512c2.01-.224,4.03-0.576,6.05-0.992,0.67-.128,1.69-0.256,1.69-0.8a10.867,10.867,0,0,0-.25-1.728,0.949,0.949,0,0,0-.8-0.96,2.376,2.376,0,0,0-.8.192,23.449,23.449,0,0,1-3.72.9,0.31,0.31,0,0,1-.35-0.32,2.271,2.271,0,0,1,.32-0.736,1.774,1.774,0,0,1,1.06-1.088,0.515,0.515,0,0,0,.38-0.384C1185.83,401.6,1182.54,400.131,1182.25,400.131Zm38.17,7.9a0.737,0.737,0,0,1,.39-0.415,0.626,0.626,0,0,0,.41-0.48,0.5,0.5,0,0,0-.54-0.416c-0.45-.064-2.56-0.192-3.04-0.192a0.491,0.491,0,0,0-.61.512c0,0.224.07,0.672,0.07,0.96a0.734,0.734,0,0,1-.87.9h-3.87c-0.93,0-1.82,0-2.75-.032a0.815,0.815,0,0,1-.86-0.863,1.947,1.947,0,0,1-.04-0.48v-0.352a0.775,0.775,0,0,1,.9-0.9h18.3a0.786,0.786,0,0,1,.9.9v0.512a1.386,1.386,0,0,1-.03.351,0.8,0.8,0,0,1-.9.832c-0.93.064-1.89,0.032-2.82,0.032h-3.8a0.723,0.723,0,0,1-.87-0.576v-0.191Zm-12.31,2.368c0.03,0.864,0,1.28.76,1.28,1.19,0,2.34-.1,3.49-0.1h4.03a0.649,0.649,0,0,1,.74.768v0.32a0.638,0.638,0,0,1-.74.736h-2.97c-1.19,0-2.37-.064-3.55-0.064-0.77,0-.74.384-0.74,1.408,0,1.056-.03,1.376.77,1.376,1.18,0,2.33-.064,3.52-0.064h2.65a0.66,0.66,0,0,1,.77.64v0.224c-0.03.1-.03,0.16-0.06,0.256a0.793,0.793,0,0,1-.93.7H1209c-1.21,0-2.46-.064-3.71-0.064-0.74,0-.74.352-0.74,1.408,0,1.024,0,1.408.74,1.408,1.25,0,2.5-.064,3.71-0.064h5.6a0.416,0.416,0,0,1,.48.384,0.369,0.369,0,0,1-.1.288c-1.95,2.367-5.66,3.839-8.63,4.191-0.8.1-1.51,0.064-1.51,0.8,0,0.544.48,2.336,1.44,2.336a12.3,12.3,0,0,0,1.47-.192c3.72-.768,8.35-2.944,10.5-6.208a0.588,0.588,0,0,1,.48-0.287,0.625,0.625,0,0,1,.45.223,15.52,15.52,0,0,0,6.72,5.12,23.541,23.541,0,0,0,5.02,1.5c0.96,0,1.6-1.664,1.6-2.4,0-.576-0.38-0.64-1.02-0.768-3.14-.576-6.92-2.016-9.19-4.351a0.5,0.5,0,0,1-.13-0.288,0.4,0.4,0,0,1,.45-0.352h5.76c1.25,0,2.5.064,3.71,0.064,0.77,0,.74-0.352.74-1.408s0.03-1.408-.74-1.408c-1.21,0-2.46.064-3.71,0.064h-7.55a0.642,0.642,0,0,1-.74-0.672v-0.192c0-.064.04-0.16,0.04-0.256a0.746,0.746,0,0,1,.86-0.7h3.07c1.19,0,2.34.064,3.52,0.064,0.8,0,.77-0.32.77-1.376,0-1.024.03-1.408-.74-1.408-1.18,0-2.36.064-3.55,0.064h-2.97a0.634,0.634,0,0,1-.74-0.736v-0.32a0.645,0.645,0,0,1,.74-0.768h3.96c1.16,0,2.34.1,3.49,0.1,0.8,0,.74-0.448.77-1.152a0.592,0.592,0,0,1,.7-0.64h0.58c1.12,0,1.54-.064,1.54-0.768,0-.416-0.1-0.991-0.1-1.439v-1.152c0-.736.06-1.472,0.06-1.824,0-1.12-.92-1.344-1.85-1.344-1.15,0-2.34.064-3.52,0.064h-5.38a0.772,0.772,0,0,1-.89-0.864,1.475,1.475,0,0,1,.38-1.408,0.7,0.7,0,0,0,.38-0.448c0-.384-0.6-0.384-0.89-0.416-0.71-.064-2.15-0.192-2.82-0.192-0.32,0-.61.032-0.61,0.416a0.719,0.719,0,0,0,.04.288,11.569,11.569,0,0,1,.12,1.76,0.779,0.779,0,0,1-.89.864h-5.41c-1.15,0-2.17-.064-3.01-0.064-1.47,0-2.33.192-2.33,1.344,0,0.384.03,1.12,0.03,1.824v0.992c0,0.48-.06.992-0.06,1.471,0,0.768.51,0.736,1.72,0.736h0.29A0.613,0.613,0,0,1,1208.11,410.4Zm48.89,10.24a0.7,0.7,0,0,0,.54-0.448,0.415,0.415,0,0,0-.25-0.352c-0.64-.288-1.31-0.544-1.95-0.8a3.573,3.573,0,0,0-.9-0.288,0.6,0.6,0,0,0-.45.608c-0.73,3.039-3.74,5.343-6.68,6.111-1.41.352-1.73,0.352-1.73,0.8,0,0.7.73,2.368,1.57,2.368a13.8,13.8,0,0,0,4.41-1.568,11.216,11.216,0,0,0,5.06-5.983A0.635,0.635,0,0,1,1257,420.642Zm5.5-7.3a0.793,0.793,0,0,1,.87.864v0.576a0.793,0.793,0,0,1-.87.864h-6.65a0.852,0.852,0,0,1-.9-0.864V414.21a0.852,0.852,0,0,1,.9-0.864h6.65Zm0-4.831a0.832,0.832,0,0,1,.87.9v0.448a0.85,0.85,0,0,1-.87.9h-6.65a0.919,0.919,0,0,1-.9-0.9V409.41a0.9,0.9,0,0,1,.9-0.9h6.65Zm-6.65-2.56a0.919,0.919,0,0,1-.9-0.9v-0.448a0.919,0.919,0,0,1,.9-0.9h6.65a0.85,0.85,0,0,1,.87.9v0.448a0.85,0.85,0,0,1-.87.9h-6.65Zm3.01,17.982c0,0.512-.04,1.024-0.04,1.536,0,2.176.8,2.624,2.88,2.624h3.04a2.586,2.586,0,0,0,2.6-1.184,10.3,10.3,0,0,0,1.05-3.872c0-.992-1.5-1.279-2.3-1.279-0.48,0-.64.192-0.74,0.8-0.29,2.048-.45,2.368-1.31,2.368h-0.99c-0.71,0-.99-0.1-0.99-0.864v-4.7a0.758,0.758,0,0,1,.86-0.9h0.16c0.7,0,1.44.064,2.14,0.064a1.2,1.2,0,0,0,1.44-1.44c0-.768-0.06-1.536-0.06-2.3V404.611c0-.768.06-1.536,0.06-2.3a1.2,1.2,0,0,0-1.44-1.44c-0.73,0-1.44.064-2.14,0.064h-7.84c-0.7,0-1.44-.064-2.14-0.064a1.2,1.2,0,0,0-1.44,1.44c0,0.768.06,1.536,0.06,2.3v10.175c0,0.768-.06,1.536-0.06,2.3a1.223,1.223,0,0,0,1.47,1.44c0.7,0,1.41-.064,2.11-0.064h2.72a0.786,0.786,0,0,1,.9.9v4.575ZM1246.89,405.8a0.737,0.737,0,0,1,.86-0.864c0.58,0,1.8.064,2.28,0.064,0.7,0,.67-0.352.67-1.568,0-1.152.03-1.536-.67-1.536-0.74,0-1.76.1-2.79,0.1h-3.81c-1.02,0-2.04-.1-2.81-0.1-0.71,0-.67.48-0.67,1.568,0,1.056-.04,1.536.67,1.536,0.48,0,1.69-.064,2.24-0.064a0.748,0.748,0,0,1,.86.864v3.263a0.77,0.77,0,0,1-.86.9c-0.58,0-1.15-.064-1.73-0.064-0.7,0-.67.416-0.67,1.536,0,1.088-.03,1.5.67,1.5,0.06,0,1.57-.064,1.73-0.064a0.759,0.759,0,0,1,.86.9v4.32a0.929,0.929,0,0,1-.8,1.088,21.68,21.68,0,0,1-2.14.416c-1.03.192-1.25,0.224-1.25,0.576a21.546,21.546,0,0,0,.83,2.719c0.16,0.48.23,0.7,0.51,0.7a0.537,0.537,0,0,0,.45-0.384c0.13-.416.16-0.48,0.96-0.7,2.08-.575,5.82-1.663,7.75-2.463,0.63-.256.73-0.384,0.73-1.312,0-.48,0-1.6-0.67-1.6a24.369,24.369,0,0,0-2.37.768c-0.09,0-.19.032-0.29,0.032a0.574,0.574,0,0,1-.54-0.7v-3.456a0.75,0.75,0,0,1,.83-0.9c0.13,0,1.54.064,1.6,0.064,0.67,0,.64-0.416.64-1.5,0-1.152.03-1.536-.67-1.536-0.06,0-1.41.064-1.57,0.064a0.75,0.75,0,0,1-.83-0.9V405.8Zm42.85,13.887c0.8,0,.96-0.16.99-0.96l0.19-7.9c0.06-2.112.29-6.4,0.29-7.039,0-.544-0.19-0.672-0.9-0.672h-2.24c-0.7,0-.89.128-0.89,0.672,0,0.64.22,4.927,0.28,6.847l0.23,8.1c0.03,0.8.19,0.96,0.99,0.96h1.06Zm-0.42,2.5a2.388,2.388,0,0,0-2.46,2.56,2.07,2.07,0,0,0,2.2,2.112,2.357,2.357,0,0,0,2.5-2.464A2.143,2.143,0,0,0,1289.32,422.177Z" transform="translate(-1031.47 -352.125)"/>
</svg>
