<svg id="review-ttl-lead03.svg" xmlns="http://www.w3.org/2000/svg" width="286.25" height="52.44" viewBox="0 0 286.25 52.44">
  <defs>
    <style>
      .cls-1 {
        fill: #52a5dc;
        fill-rule: evenodd;
      }
    </style>
  </defs>
  <path id="シェイプ_14" data-name="シェイプ 14" class="cls-1" d="M1006.13,6858.22h-6.98a0.455,0.455,0,0,0-.525.53v0.23c0,0.63-.228.63-1.3,0.63-0.986,0-1.305,0-1.305-.61,0-.96.069-1.92,0.069-2.85v-11.48c0-.73-0.047-1.44-0.047-2.17a1.018,1.018,0,0,1,1.259-1.18c0.664,0,1.328.04,2.014,0.04h6.679c0.66,0,1.33-.04,1.99-0.04a1,1,0,0,1,1.26,1.16c0,0.73-.05,1.46-0.05,2.19v11.43c0,0.96.07,1.89,0.07,2.85,0,0.64-.27.62-1.3,0.62s-1.31,0-1.31-.62a0.465,0.465,0,0,1,.03-0.2A0.481,0.481,0,0,0,1006.13,6858.22Zm-0.05-9.72a0.644,0.644,0,0,0,.64-0.64v-3.65a0.643,0.643,0,0,0-.64-0.63H999.2a0.65,0.65,0,0,0-.642.63v3.65a0.652,0.652,0,0,0,.642.64h6.883Zm-7.525,6.83a0.65,0.65,0,0,0,.642.63h6.883a0.643,0.643,0,0,0,.64-0.63v-4.02a0.651,0.651,0,0,0-.64-0.64H999.2a0.658,0.658,0,0,0-.642.64v4.02Zm27.765-6.76a0.161,0.161,0,0,0-.14.18v4.57a0.539,0.539,0,0,0,.62.64h0.32c0.71,0,1.42-.05,2.13-0.05,0.64,0,.59.3,0.59,1.14,0,0.78.05,1.12-.57,1.12-0.71,0-1.44-.05-2.15-0.05h-0.32a0.525,0.525,0,0,0-.62.6c-0.02.91,0.05,1.82,0.05,2.76,0,0.7-.26.73-1.26,0.73s-1.26-.03-1.26-0.73c0-.94.07-1.85,0.05-2.76a0.536,0.536,0,0,0-.65-0.6h-0.27c-0.73,0-1.44.05-2.15,0.05-0.62,0-.57-0.34-0.57-1.12,0-.82-0.05-1.14.57-1.14,0.71,0,1.42.05,2.15,0.05h0.27a0.552,0.552,0,0,0,.65-0.64v-4.66a0.142,0.142,0,0,0-.14-0.16,0.162,0.162,0,0,0-.14.09,28.08,28.08,0,0,1-6.43,8.06,1.613,1.613,0,0,1-.82.48,2.513,2.513,0,0,1-1.51-1.53,0.935,0.935,0,0,1,.48-0.59,24.3,24.3,0,0,0,6.82-7.92,0.779,0.779,0,0,0,.04-0.21,0.361,0.361,0,0,0-.41-0.34h-3.36c-0.89,0-1.79.05-2.68,0.05-0.57,0-.55-0.28-0.55-1.1,0-.86-0.02-1.14.55-1.14,0.89,0,1.79.07,2.68,0.07h4.82a0.559,0.559,0,0,0,.65-0.64v-1.87a12.021,12.021,0,0,0-.07-1.64,0.511,0.511,0,0,1-.03-0.21c0-.27.19-0.32,0.42-0.32,0.36,0,1.73.09,2.17,0.14,0.16,0.02.48,0.05,0.48,0.27a0.491,0.491,0,0,1-.3.37,1.867,1.867,0,0,0-.25,1.34v1.92a0.565,0.565,0,0,0,.62.64h4.87c0.89,0,1.79-.07,2.68-0.07,0.57,0,.55.28,0.55,1.12,0,0.87.02,1.12-.55,1.12-0.89,0-1.79-.05-2.68-0.05h-3.5a0.359,0.359,0,0,0-.39.32,0.537,0.537,0,0,0,.05.21,25.7,25.7,0,0,0,6.84,7.66,0.962,0.962,0,0,1,.57.64,2.17,2.17,0,0,1-1.42,1.62c-0.5,0-2.47-1.96-2.9-2.42a29.779,29.779,0,0,1-4.44-5.91A0.26,0.26,0,0,0,1026.32,6848.57Zm18.38,3.33a0.363,0.363,0,0,1-.25.28c-0.3.2-.27,0.52-0.27,1.27v0.76c0,0.52.04,1.07,0.04,1.59,0,0.46-.16.48-0.8,0.48s-0.8-.02-0.8-0.48c0-.52.02-1.07,0.02-1.59v-1.51c0-.59-0.02-1-0.29-1a0.6,0.6,0,0,0-.48.64,20.523,20.523,0,0,1-1.6,7c-0.21.46-.32,0.62-0.55,0.62-0.39,0-1.51-.51-1.51-0.96a1.378,1.378,0,0,1,.13-0.39,18.83,18.83,0,0,0,1.56-6.14,0.279,0.279,0,0,0-.23-0.34,0.277,0.277,0,0,0-.16.05,0.593,0.593,0,0,0-.21.23,0.385,0.385,0,0,1-.29.2c-0.25,0-.3-0.34-0.44-0.98-0.04-.23-0.23-1.19-0.23-1.37,0-.25.16-0.25,0.69-0.3a2.625,2.625,0,0,0,.37-0.02,0.611,0.611,0,0,0,.61-0.71v-4.45c0-.59-0.02-1.16-0.02-1.75a0.777,0.777,0,0,1,.94-0.91c0.2,0,.43.02,0.64,0.02a0.7,0.7,0,0,0,.78-0.53,16.118,16.118,0,0,0,.45-1.82c0.03-.18.05-0.37,0.28-0.37,0.25,0,1.71.41,2.08,0.51a0.539,0.539,0,0,1,.5.34,0.418,0.418,0,0,1-.39.34,0.535,0.535,0,0,0-.43.34c-0.07.16-.18,0.48-0.25,0.66a0.669,0.669,0,0,0-.05.19,0.354,0.354,0,0,0,.39.36c0.44,0,.85-0.04,1.26-0.04a0.78,0.78,0,0,1,.92.93c0,0.57-.03,1.16-0.03,1.73v3.38a0.373,0.373,0,0,0,.39.41h0.19a1.848,1.848,0,0,1,.45-0.11c0.44,0,.44.89,0.44,1.18,0,0.78-.26.78-1.03,0.99a0.645,0.645,0,0,0-.44.7v4.5c0,0.54.05,1.07,0.05,1.62,0,2.3-1.56,2.55-3.5,2.55-0.69,0-1.17-.04-1.17-1.69a0.47,0.47,0,0,1,.48-0.59c0.37,0,.87.07,1.28,0.07,0.99,0,.94-0.57.94-1.39v-4.63a0.45,0.45,0,0,0-.46-0.53,0.3,0.3,0,0,0-.13.02c-0.23.03-.44,0.07-0.67,0.12a0.14,0.14,0,0,0-.13.13,0.149,0.149,0,0,0,.13.12C1044.41,6851.68,1044.7,6851.68,1044.7,6851.9Zm0.46-7.16a0.542,0.542,0,0,0-.64-0.64h-1.94a0.542,0.542,0,0,0-.64.64v4.24a0.479,0.479,0,0,0,.48.57h0.13c0.67-.11,1.35-0.18,2.02-0.32a0.644,0.644,0,0,0,.59-0.75v-3.74Zm-1.67,3.9c-0.27,0-.34-0.32-0.52-1.05-0.12-.46-0.26-1.07-0.53-1.87a1.834,1.834,0,0,1-.07-0.32c0-.41.96-0.52,0.98-0.52,0.39,0,.51.59,0.8,1.64a14.966,14.966,0,0,1,.39,1.57C1044.54,6848.53,1043.58,6848.64,1043.49,6848.64Zm8.72,0.32a0.542,0.542,0,0,0-.64.64v1.89a14.152,14.152,0,0,1-1.42,6.5c-0.23.46-1.08,2.01-1.58,2.01a2.062,2.062,0,0,1-1.46-1.21,0.668,0.668,0,0,1,.16-0.34,11.31,11.31,0,0,0,2.15-7.03v-2.16c0-.55-0.05-1.08-0.05-1.6,0-.69.32-0.84,0.98-0.84,0.46,0,.94.02,1.4,0.02h1.53c0.53,0,1.06-.02,1.58-0.02,0.64,0,.96.13,0.96,0.84,0,0.55-.02,1.07-0.02,1.62v7.35c0,0.63,0,.84.48,0.84h0.32c0.62,0,.66-1.21.76-2.1,0.02-.34.04-0.48,0.43-0.48,0.48,0,1.49.23,1.49,0.8a14.609,14.609,0,0,1-.64,2.85,1.54,1.54,0,0,1-1.74,1.1h-1.56c-1.39,0-1.69-.57-1.69-1.87,0-.57.02-1.17,0.02-1.76v-6.41a0.542,0.542,0,0,0-.64-0.64h-0.82Zm1.97-6.78a0.532,0.532,0,0,0,.61.64h1.28c0.74,0,1.47-.04,2.16-0.04,0.45,0,.43.29,0.43,1.09,0,0.82.02,1.12-.43,1.12-0.69,0-1.42-.07-2.16-0.07h-5.53c-0.73,0-1.49.07-2.13,0.07-0.48,0-.46-0.3-0.46-1.09,0-.85-0.02-1.12.46-1.12,0.64,0,1.4.04,2.13,0.04h0.73a0.542,0.542,0,0,0,.64-0.64v-0.73a7.609,7.609,0,0,0-.07-1.27,1.018,1.018,0,0,1-.02-0.23,0.343,0.343,0,0,1,.43-0.32c0.39,0,1.45.11,1.88,0.16,0.25,0.02.66,0.02,0.66,0.32a0.464,0.464,0,0,1-.34.34,0.869,0.869,0,0,0-.27.89v0.84Zm19.59,14.51a0.535,0.535,0,0,0,.64.62h4.92c0.92,0,1.85-.05,2.77-0.05,0.53,0,.5.28,0.5,1.08s0.03,1.07-.5,1.07c-0.92,0-1.85-.05-2.77-0.05h-13.54c-0.94,0-1.86.05-2.79,0.05-0.53,0-.51-0.27-0.51-1.07s-0.02-1.08.51-1.08c0.93,0,1.85.05,2.79,0.05h4.92a0.539,0.539,0,0,0,.64-0.62v-2.53a0.545,0.545,0,0,0-.64-0.64h-2.91c-0.87,0-1.71.05-2.58,0.05-0.53,0-.53-0.25-0.53-1.03,0-.8,0-1.05.53-1.05,0.87,0,1.71.05,2.58,0.05h9.52c0.84,0,1.71-.05,2.56-0.05,0.55,0,.53.28,0.53,1.03,0,0.8.02,1.05-.53,1.05-0.87,0-1.72-.05-2.56-0.05h-2.91a0.542,0.542,0,0,0-.64.64v2.53Zm0.05-15.28a0.546,0.546,0,0,0,.64.61h3.8c0.84,0,1.69-.04,2.53-0.04,0.65,0,1.31.16,1.31,0.93,0,0.28-.02.73-0.02,1.21v0.3c0,0.16.02,0.5,0.02,0.64a1.464,1.464,0,0,1,.02.3c0,0.52-.39.5-1.14,0.5-0.8,0-1.21.02-1.21-.48,0-.16.02-0.53,0.02-0.69a0.529,0.529,0,0,0-.62-0.61h-2.72a0.556,0.556,0,0,0-.64.64v2.3c0,0.78.32,0.82,1.01,0.82h1.48c0.73,0,.92-0.25,1.08-1.05,0.07-.36.11-0.55,0.48-0.55,0.39,0,1.71.21,1.71,0.8a4.944,4.944,0,0,1-.73,2.08,2.046,2.046,0,0,1-2.08.8h-2.79c-1.49,0-2.47-.12-2.47-1.71,0-.32.02-0.64,0.02-0.96v-2.53a0.559,0.559,0,0,0-.64-0.64h-2.31a0.115,0.115,0,0,0-.14.11,0.1,0.1,0,0,0,.07.09l0.37,0.14a1.006,1.006,0,0,1,.84.57,0.467,0.467,0,0,1-.36.3,0.626,0.626,0,0,0-.44.45,8.311,8.311,0,0,1-3.02,3.45,13.363,13.363,0,0,1-2.42,1.34,6.821,6.821,0,0,1-1.35.44,1.841,1.841,0,0,1-1.12-1.6c0-.3.22-0.36,0.73-0.52,1.94-.62,4.41-2.17,5.05-4.18a0.549,0.549,0,0,0,.05-0.18,0.424,0.424,0,0,0-.48-0.41h-2.33a0.555,0.555,0,0,0-.65.64v0.06c0,0.32.05,0.69,0.05,1.01,0,0.52-.39.5-1.17,0.5-0.82,0-1.18.02-1.18-.52,0-.32.04-0.67,0.04-0.99v-0.59c0-.5-0.02-0.98-0.02-1.25,0-.82.61-0.96,1.69-0.96,0.59,0,1.33.04,2.15,0.04h3.78a0.554,0.554,0,0,0,.64-0.61c0-.39-0.05-0.85-0.09-1.23,0-.07-0.03-0.16-0.03-0.23,0-.32.23-0.37,0.48-0.37,0.35,0,1.42.09,1.81,0.14,0.43,0.05.85,0.05,0.85,0.36a0.465,0.465,0,0,1-.28.35,0.914,0.914,0,0,0-.27.8v0.18Zm15.24,8.58a15.412,15.412,0,0,1,4.35-10.54,1.345,1.345,0,0,1,.76-0.55,1.768,1.768,0,0,1,1.28,1.09,0.83,0.83,0,0,1-.33.55,13.151,13.151,0,0,0,0,18.89,0.863,0.863,0,0,1,.33.53,1.728,1.728,0,0,1-1.26,1.11,1.211,1.211,0,0,1-.74-0.5A15.424,15.424,0,0,1,1089.06,6849.99Zm15.84,3.76c0,3.13-1.64,4.84-5.44,4.84a4.361,4.361,0,0,1-.62-0.03c-0.48-.06-0.57-0.15-0.57-0.63v-1.33c0-.48.07-0.61,0.39-0.61a1.422,1.422,0,0,1,.27.02,4.911,4.911,0,0,0,.83.05c1.65,0,2.49-.69,2.49-2.45v-6.73c0-1.32-.07-3.83-0.07-3.99,0-.48.14-0.57,0.67-0.57h1.46c0.53,0,.66.09,0.66,0.57,0,0.16-.07,2.67-0.07,3.99v6.87Zm8.16,0.91a0.762,0.762,0,0,0-.96.55c-0.32.75-.62,1.53-1.01,2.62a0.747,0.747,0,0,1-.92.64h-1.6c-0.36,0-.52-0.04-0.52-0.22a0.916,0.916,0,0,1,.13-0.39c0.71-1.6,1.22-2.74,1.7-3.86l3.27-7.73c0.41-.98.89-2.08,1.37-3.31a0.747,0.747,0,0,1,.92-0.64h0.98a0.752,0.752,0,0,1,.92.64c0.48,1.23.93,2.33,1.35,3.28l3.29,7.72c0.5,1.18,1.01,2.32,1.72,3.9a0.916,0.916,0,0,1,.13.39c0,0.18-.16.22-0.52,0.22h-1.76a0.747,0.747,0,0,1-.92-0.64c-0.39-1.09-.69-1.87-1.01-2.62-0.2-.5-0.34-0.55-0.96-0.55h-5.6Zm0.41-2.83a1,1,0,0,0-.09.39c0,0.21.16,0.25,0.52,0.25h3.92c0.36,0,.52-0.04.52-0.25a1,1,0,0,0-.09-0.39l-2.13-5.22a0.269,0.269,0,1,0-.5,0Zm17.26,6.64c-1.08,0-2.88.05-3.04,0.05a0.536,0.536,0,0,1-.65-0.64c0-.16.05-2.62,0.05-3.9v-7.1c0-1.32-.07-3.83-0.07-3.99,0-.48.14-0.57,0.67-0.57h1.46c0.53,0,.66.09,0.66,0.57,0,0.16-.06,2.67-0.06,3.99v8.51c0,0.57.11,0.69,0.68,0.69h2.08c1.1,0,3.16-.07,3.32-0.07,0.48,0,.57.14,0.57,0.66v1.19c0,0.52-.09.66-0.57,0.66-0.16,0-2.22-.05-3.32-0.05h-1.78Zm15.11-8.48a15.449,15.449,0,0,1-4.35,10.54,1.386,1.386,0,0,1-.75.54,1.75,1.75,0,0,1-1.28-1.09,0.855,0.855,0,0,1,.32-0.55,13.151,13.151,0,0,0,0-18.89,0.852,0.852,0,0,1-.32-0.52,1.724,1.724,0,0,1,1.25-1.12,1.211,1.211,0,0,1,.74.5A15.4,15.4,0,0,1,1145.84,6849.99Zm25.84-5.87a0.274,0.274,0,0,0-.32-0.25h-3.27a0.535,0.535,0,0,0-.64.62v0.39c0,0.29.04,0.7,0.04,0.93,0,0.5-.45.46-1.19,0.46-0.8,0-1.18.02-1.18-.48,0-.23.04-0.62,0.04-0.91v-1.1c0-.48-0.04-0.89-0.04-1.12,0-.77.61-0.91,1.73-0.91,0.57,0,1.26.05,2.06,0.05h3.92a0.536,0.536,0,0,0,.61-0.62,7.408,7.408,0,0,0-.07-1.05,0.9,0.9,0,0,1-.02-0.23c0-.27.23-0.29,0.44-0.29,0.45,0,1.46.09,1.94,0.13,0.18,0.03.64,0.03,0.64,0.3a0.487,0.487,0,0,1-.27.32,1,1,0,0,0-.28.84,0.55,0.55,0,0,0,.64.6h3.94c0.8,0,1.62-.03,2.42-0.03,0.6,0,1.38.07,1.38,0.87,0,0.18-.03.68-0.03,1.14v1.19c0,0.18.03,0.45,0.03,0.64a1.1,1.1,0,0,1,.02.27c0,0.52-.41.48-1.19,0.48-0.73,0-1.19.04-1.19-.46,0-.27.04-0.64,0.04-0.93v-0.48a0.535,0.535,0,0,0-.64-0.62h-7.09c-0.09,0-.09.05-0.09,0.07a0.074,0.074,0,0,0,.07.07,0.851,0.851,0,0,1,.66.43,0.373,0.373,0,0,1-.36.25,0.566,0.566,0,0,0-.48.25,0.217,0.217,0,0,0-.05.14,0.184,0.184,0,0,0,.21.16h2.22c0.66,0,1.32-.02,1.99-0.02a1.828,1.828,0,0,1,1.55,1.46c0,0.57-2.45,2.71-2.97,3.17a0.372,0.372,0,0,0-.18.32,0.36,0.36,0,0,0,.22.34,28.557,28.557,0,0,0,6.77,2.63,0.932,0.932,0,0,1,.94.56c0,0.3-.52,1.56-1.09,1.56a20.741,20.741,0,0,1-2.89-.87,0.587,0.587,0,0,0-.2-0.05,0.414,0.414,0,0,0-.39.46v3.58c0,0.41.04,0.94,0.04,1.3,0,0.46-.3.46-1.12,0.46-0.8,0-1.12.02-1.12-.43v-0.12a0.353,0.353,0,0,0-.41-0.41h-5.72a0.374,0.374,0,0,0-.44.41,0.465,0.465,0,0,1,.03.09c0,0.46-.37.44-1.19,0.44s-1.14,0-1.14-.46c0-.25.04-0.89,0.04-1.3v-3.54a0.4,0.4,0,0,0-.39-0.41,0.68,0.68,0,0,0-.2.02,18.341,18.341,0,0,1-2.8.85c-0.59,0-1.16-1.21-1.16-1.6,0-.36.48-0.43,1.19-0.61a29.458,29.458,0,0,0,6.7-2.6,0.443,0.443,0,0,0,.25-0.37,0.544,0.544,0,0,0-.18-0.34,14.735,14.735,0,0,1-1.3-1.32,0.683,0.683,0,0,0-.48-0.26,0.839,0.839,0,0,0-.39.14c-0.55.41-3.07,2.15-3.6,2.15a2.384,2.384,0,0,1-1.19-1.46,0.929,0.929,0,0,1,.64-0.57,17.469,17.469,0,0,0,5.47-4.11A0.314,0.314,0,0,0,1171.68,6844.12Zm5.61,13.12a0.658,0.658,0,0,0,.64-0.64v-0.86a0.658,0.658,0,0,0-.64-0.64h-5.38a0.6,0.6,0,0,0-.62.64v0.86a0.6,0.6,0,0,0,.62.64h5.38Zm-2.61-5.66a0.862,0.862,0,0,0-.48.16,24.9,24.9,0,0,1-2.36,1.3,0.157,0.157,0,0,0-.09.14,0.154,0.154,0,0,0,.16.14h5.56a0.182,0.182,0,0,0,.14-0.14,0.177,0.177,0,0,0-.09-0.14c-0.85-.41-1.54-0.8-2.34-1.27A1.062,1.062,0,0,0,1174.68,6851.58Zm-0.05-2.73a0.728,0.728,0,0,0,.46-0.21,7.359,7.359,0,0,0,1.56-1.46,0.72,0.72,0,0,0-.69-0.16h-2.86a0.279,0.279,0,0,0-.3.25,0.334,0.334,0,0,0,.09.23,12.23,12.23,0,0,0,1.24,1.14A0.86,0.86,0,0,0,1174.63,6848.85Zm26.1,4.6h3.04c0.87,0,1.74-.04,2.61-0.04,0.55,0,.53.29,0.53,1s0.02,1.01-.53,1.01c-0.87,0-1.74-.05-2.61-0.05h-3.06a0.535,0.535,0,0,0-.62.64v0.75a0.542,0.542,0,0,0,.62.64h4.96c0.92,0,1.83-.07,2.77-0.07,0.52,0,.52.25,0.52,1.03,0,0.75,0,1-.5,1-0.94,0-1.85-.04-2.79-0.04h-13.61c-0.94,0-1.86.04-2.79,0.04-0.51,0-.51-0.25-0.51-1,0-.8,0-1.03.53-1.03,0.94,0,1.85.07,2.77,0.07h4.96a0.542,0.542,0,0,0,.62-0.64v-0.75a0.535,0.535,0,0,0-.62-0.64H1194c-0.87,0-1.74.05-2.61,0.05-0.54,0-.52-0.28-0.52-1.01s0-1,.52-1c0.87,0,1.74.04,2.61,0.04h3.02a0.522,0.522,0,0,0,.62-0.61,4.465,4.465,0,0,0-.07-0.82,0.749,0.749,0,0,1-.02-0.21c0-.27.18-0.32,0.41-0.32,0.32,0,1.74.14,2.13,0.19,0.18,0.02.53,0.04,0.53,0.29a0.473,0.473,0,0,1-.28.34,0.578,0.578,0,0,0-.23.55A0.516,0.516,0,0,0,1200.73,6853.45Zm0.04-11.74h3.87c0.85,0,1.69-.03,2.54-0.03a1.052,1.052,0,0,1,1.3.85c0,0.25-.04.64-0.04,1.09v0.91c0,0.14.04,0.46,0.04,0.62,0,0.07.03,0.18,0.03,0.25,0,0.5-.42.48-1.22,0.48-0.77,0-1.25.02-1.25-.46a1.274,1.274,0,0,1,.02-0.27c0-.16.02-0.48,0.02-0.62v-0.25a0.552,0.552,0,0,0-.64-0.64h-12.97a0.552,0.552,0,0,0-.64.64v0.16c0,0.23.04,0.69,0.04,0.87,0,0.5-.43.46-1.25,0.46-0.78,0-1.22.04-1.22-.46,0-.23.05-0.62,0.05-0.87v-0.82c0-.52-0.05-0.84-0.05-1.07,0-.75.73-0.87,1.33-0.87,0.85,0,1.69.03,2.54,0.03h3.77a0.562,0.562,0,0,0,.65-0.58,6.78,6.78,0,0,0-.1-1.02c0-.07-0.02-0.14-0.02-0.21,0-.27.25-0.27,0.46-0.27,0.46,0,1.74.09,2.22,0.14,0.16,0.02.46,0.04,0.46,0.27a0.489,0.489,0,0,1-.3.3,0.846,0.846,0,0,0-.25.77A0.529,0.529,0,0,0,1200.77,6841.71Zm2.52,9.24c-3.41.25-7.3,0.43-11.57,0.63a0.461,0.461,0,0,0-.37.32,0.344,0.344,0,0,1-.28.23c-0.18,0-.29-0.16-0.45-0.8a14.087,14.087,0,0,1-.37-1.53c0-.27.27-0.29,0.5-0.29h0.85c0.73,0,1.46-.02,2.2-0.05a0.894,0.894,0,0,0,.91-0.5c0.32-.5.62-1.05,0.89-1.58a0.306,0.306,0,0,0,.07-0.2,0.362,0.362,0,0,0-.41-0.34h-0.09c-0.87,0-1.74.04-2.61,0.04-0.5,0-.5-0.27-0.5-0.91,0-.68,0-0.96.5-0.96,0.87,0,1.74.05,2.61,0.05h7.55c0.87,0,1.74-.05,2.61-0.05,0.52,0,.5.28,0.5,0.94s0.02,0.93-.5.93h-0.73a0.2,0.2,0,0,0-.23.19,0.213,0.213,0,0,0,.09.18c0.53,0.48,3.77,3.42,3.77,3.88a1.981,1.981,0,0,1-1.55,1.23,1.237,1.237,0,0,1-.71-0.59c-0.14-.14-0.28-0.32-0.46-0.51a1.061,1.061,0,0,0-.85-0.41C1204.46,6850.85,1203.91,6850.9,1203.29,6850.95Zm-4.58-3.72a0.329,0.329,0,0,1-.34.25,0.636,0.636,0,0,0-.43.34c-0.21.34-.37,0.71-0.58,1.05a0.323,0.323,0,0,0-.06.18,0.315,0.315,0,0,0,.34.32c1.69-.02,3.39-0.16,5.06-0.23a0.254,0.254,0,0,0,.25-0.25,0.337,0.337,0,0,0-.09-0.2,2.136,2.136,0,0,1-.89-0.92,1.223,1.223,0,0,1,.61-0.68,0.309,0.309,0,0,0,.07-0.14,0.169,0.169,0,0,0-.16-0.11h-3.96c-0.07.02-.09,0.07-0.02,0.11A0.337,0.337,0,0,1,1198.71,6847.23Zm25.76,7.25a0.226,0.226,0,0,0-.23.27v1.31c0,1.14.04,2.25,0.04,3.37,0,0.71-.25.73-1.23,0.73s-1.24-.02-1.24-0.73c0-1.12.07-2.23,0.07-3.37v-1.26a0.249,0.249,0,0,0-.23-0.27,0.288,0.288,0,0,0-.2.09,22.943,22.943,0,0,1-6.23,4.47c-0.04.02-.07,0.05-0.11,0.07a3.1,3.1,0,0,1-.85.32,2.288,2.288,0,0,1-1.33-1.65,1.071,1.071,0,0,1,.69-0.54,20.918,20.918,0,0,0,6.11-3.9,0.386,0.386,0,0,0,.09-0.21,0.247,0.247,0,0,0-.29-0.23h-2.52c-0.89,0-1.79.05-2.66,0.05-0.55,0-.52-0.25-0.52-1.01s0-.98.52-0.98c0.71,0,1.42.07,2.16,0.05a0.529,0.529,0,0,0,.59-0.64v-0.27a0.542,0.542,0,0,0-.64-0.64h-0.18c-0.94,0-1.86.04-2.8,0.04-0.5,0-.5-0.25-0.5-1,0-.78,0-1.03.53-1.03,0.91,0,1.85.07,2.77,0.07h0.18a0.552,0.552,0,0,0,.64-0.64v-0.34a0.539,0.539,0,0,0-.64-0.62c-0.46,0-1.08.03-1.51,0.03-0.53,0-.53-0.25-0.53-0.98,0-.76,0-0.99.53-0.99,0.87,0,1.74.05,2.59,0.05h3.7a0.542,0.542,0,0,0,.64-0.64v-0.27a0.509,0.509,0,0,0-.62-0.6c-1.28.07-3.09,0.21-4.34,0.21h-0.62a0.743,0.743,0,0,1-.8-0.66,1.937,1.937,0,0,1-.14-0.73c0-.53.39-0.48,1.05-0.5,3.02-.07,9.16-0.35,11.85-1.33a0.809,0.809,0,0,1,.19-0.04,1.553,1.553,0,0,1,.73.64,3.7,3.7,0,0,1,1.01,1.3,0.283,0.283,0,0,1-.28.23,1.276,1.276,0,0,1-.41-0.12,1.567,1.567,0,0,0-.3-0.05c-0.89.17-1.99,0.37-2.65,0.48-0.55.1-1.12,0.14-1.69,0.23a0.6,0.6,0,0,0-.62.71v0.5a0.542,0.542,0,0,0,.64.64h3.75c0.87,0,1.74-.05,2.61-0.05,0.52,0,.5.28,0.5,0.99s0.02,0.98-.5.98c-0.57,0-1.12-.03-1.67-0.03a0.525,0.525,0,0,0-.62.62v0.34a0.552,0.552,0,0,0,.64.64h0.28c0.91,0,1.85-.07,2.76-0.07,0.53,0,.51.3,0.51,1.03s0.02,1-.51,1c-0.91,0-1.85-.04-2.76-0.04h-0.28a0.542,0.542,0,0,0-.64.64v0.27a0.532,0.532,0,0,0,.6.64c0.73,0.02,1.46-.05,2.19-0.05,0.53,0,.53.25,0.53,0.98,0,0.76,0,1.01-.53,1.01-0.89,0-1.76-.05-2.65-0.05h-2.52a0.231,0.231,0,0,0-.27.23,0.192,0.192,0,0,0,.09.18,24.115,24.115,0,0,0,6.29,4.11,0.531,0.531,0,0,1,.46.43,2.232,2.232,0,0,1-1.28,1.62,13.78,13.78,0,0,1-2.61-1.3,23.555,23.555,0,0,1-4.6-3.67A0.257,0.257,0,0,0,1224.47,6854.48Zm-4.53-8.51a0.638,0.638,0,0,0-.64.64v0.34a0.608,0.608,0,0,0,.64.64h1.3a0.644,0.644,0,0,0,.64-0.64v-0.34a0.651,0.651,0,0,0-.64-0.64h-1.3Zm0,3.54a0.62,0.62,0,0,0-.64.64v0.27a0.614,0.614,0,0,0,.64.64h1.3a0.651,0.651,0,0,0,.64-0.64v-0.27a0.632,0.632,0,0,0-.64-0.64h-1.3Zm4.94-3.54a0.638,0.638,0,0,0-.64.64v0.34a0.608,0.608,0,0,0,.64.64h1.23a0.644,0.644,0,0,0,.64-0.64v-0.34a0.651,0.651,0,0,0-.64-0.64h-1.23Zm0,3.54a0.62,0.62,0,0,0-.64.64v0.27a0.614,0.614,0,0,0,.64.64h1.23a0.651,0.651,0,0,0,.64-0.64v-0.27a0.632,0.632,0,0,0-.64-0.64h-1.23Zm20.86,1.91a0.872,0.872,0,0,1-.53.51,1.773,1.773,0,0,1-1.35-.87,0.92,0.92,0,0,1,.27-0.46,3.943,3.943,0,0,0,.76-1.28c0-.25-0.32-0.22-0.48-0.22h-0.3a0.453,0.453,0,0,0-.52.54v6.8c0,0.46.02,0.92,0.02,1.37,0,2.01-1.6,2.21-3.25,2.21-0.46,0-1.14.1-1.14-1.66,0-.3.06-0.53,0.41-0.53,0.25,0,.57.05,0.89,0.05,1.07,0,1.03-.36,1.03-1.37v-3.99c0-.09-0.02-0.16-0.11-0.16a0.137,0.137,0,0,0-.14.09,16.708,16.708,0,0,1-2.27,3.79,1.463,1.463,0,0,1-.61.55,2.262,2.262,0,0,1-1.31-1.33,0.557,0.557,0,0,1,.23-0.36,19.229,19.229,0,0,0,3.41-5.43,0.654,0.654,0,0,0,.04-0.18,0.378,0.378,0,0,0-.43-0.39h-0.57c-0.64,0-1.26.04-1.88,0.04-0.46,0-.48-0.23-0.48-0.98,0-.78.02-0.98,0.48-0.98,0.62,0,1.24.02,1.88,0.02h2.01a0.274,0.274,0,0,0,.32-0.25,0.367,0.367,0,0,0-.09-0.2,15.5,15.5,0,0,0-2.11-2.1,1.043,1.043,0,0,1-.39-0.53,2.26,2.26,0,0,1,1.4-1.16,1.285,1.285,0,0,1,.78.5,1.258,1.258,0,0,0,.62.39,0.754,0.754,0,0,0,.43-0.18,5.574,5.574,0,0,0,1.17-1.23c0-.21-0.34-0.19-0.48-0.19h-2.88c-0.71,0-1.54.05-2.02,0.05-0.5,0-.5-0.21-0.5-0.98s0-.98.5-0.98c0.67,0,1.35.04,2.02,0.04h3.84c0.41,0,.82-0.02,1.23-0.02a0.953,0.953,0,0,1,.9.43,2,2,0,0,1,.57,1.03c0,0.62-2.56,2.67-3.11,3.1a0.555,0.555,0,0,0-.26.44,0.6,0.6,0,0,0,.17.38,2.6,2.6,0,0,1,.55.78,0.632,0.632,0,0,1-.26.43,0.139,0.139,0,0,0-.07.12,0.151,0.151,0,0,0,.19.13c0.2,0,1.26-.02,1.39-0.02a1.76,1.76,0,0,1,1.49,1.05,0.319,0.319,0,0,0,.25.3h0.09a15.879,15.879,0,0,0,2.61-1.3,0.5,0.5,0,0,0,.28-0.41,0.528,0.528,0,0,0-.16-0.39,7.927,7.927,0,0,1-.8-1.1,0.492,0.492,0,0,0-.37-0.23,0.443,0.443,0,0,0-.34.16,2.73,2.73,0,0,1-1.19,1.03,2.258,2.258,0,0,1-1.35-1.23,0.481,0.481,0,0,1,.2-0.32,13.883,13.883,0,0,0,3.18-4.81,0.429,0.429,0,0,1,.32-0.35,7.018,7.018,0,0,1,.8.23c0.58,0.16,1.45.39,1.45,0.66a0.45,0.45,0,0,1-.44.28,0.458,0.458,0,0,0-.36.38,0.4,0.4,0,0,0-.05.23,0.376,0.376,0,0,0,.41.35h2.98c0.82,0,1.62-.05,2.42-0.05,0.5,0,.5.18,0.5,0.98s-0.02.98-.5,0.98-1.21-.02-1.72-0.04a0.094,0.094,0,0,0-.09.11,0.093,0.093,0,0,0,.07.09,1.041,1.041,0,0,1,.73.5,0.3,0.3,0,0,1-.32.23,0.58,0.58,0,0,0-.5.39,15.179,15.179,0,0,1-1.14,1.5,0.575,0.575,0,0,0-.17.37,0.5,0.5,0,0,0,.26.41,14.173,14.173,0,0,0,2.88,1.39,0.724,0.724,0,0,1,.6.44c0,0.43-.67,1.73-1.15,1.73a2.285,2.285,0,0,1-.64-0.21,15.761,15.761,0,0,1-3.34-1.89,0.814,0.814,0,0,0-.43-0.16,0.76,0.76,0,0,0-.49.16c-0.64.46-3.27,2.05-3.98,2.05a1.074,1.074,0,0,1-.71-0.75,0.213,0.213,0,0,0-.2-0.16,0.236,0.236,0,0,0-.21.14C1246.54,6850.03,1245.83,6851.26,1245.74,6851.42Zm6.56,2.31a0.7,0.7,0,0,0-.8.55,10.223,10.223,0,0,1-2.81,4.42,4.8,4.8,0,0,1-1.81,1.26,2.292,2.292,0,0,1-1.46-1.51,0.563,0.563,0,0,1,.41-0.41,8.14,8.14,0,0,0,3.41-3.74,0.779,0.779,0,0,0,.04-0.21,0.4,0.4,0,0,0-.46-0.36c-0.2,0-1.48.04-1.69,0.04-0.5,0-.48-0.25-0.48-1,0-.84-0.02-1.03.53-1.03,0.68,0,1.37.07,2.03,0.05a0.591,0.591,0,0,0,.69-0.59c0-.21.02-0.39,0.02-0.53,0-.64,0-0.8.35-0.8a18.912,18.912,0,0,1,1.92.23c0.18,0.02.46,0.07,0.46,0.25a0.535,0.535,0,0,1-.35.32,0.343,0.343,0,0,0-.2.34v0.16a0.517,0.517,0,0,0,.57.62h0.32c0.89,0,1.6-.05,2.15-0.05,1.07,0,1.51.16,1.51,1.12a28.086,28.086,0,0,1-.8,5.48c-0.51,1.66-1.76,1.75-3.3,1.75-0.93,0-1.32.05-1.32-1.57,0-.32,0-0.66.39-0.66a2.118,2.118,0,0,1,.34.02c0.25,0.02.5,0.05,0.78,0.05a0.906,0.906,0,0,0,1.12-.78,16.339,16.339,0,0,0,.43-2.92c0-.55-0.3-0.5-1.14-0.5h-0.85Zm1.17-9.83a0.366,0.366,0,0,0-.41-0.32h-1.74c-0.21.02-.39,0.06-0.39,0.32a0.346,0.346,0,0,0,.07.2,5.939,5.939,0,0,0,.8,1.05,0.517,0.517,0,0,0,.43.21,0.54,0.54,0,0,0,.42-0.21,6.958,6.958,0,0,0,.75-1.03A0.381,0.381,0,0,0,1253.47,6843.9Zm22.04,2.78a0.535,0.535,0,0,0,.64-0.62c0-1.3-.02-2.6-0.02-3.9v-0.77c0-.48-0.04-1.05-0.04-1.24a0.351,0.351,0,0,1,.43-0.38c0.23,0,1.37.11,1.67,0.13,0.34,0.05.62,0.05,0.62,0.32a0.475,0.475,0,0,1-.34.37c-0.23.11-.23,0.25-0.23,0.68v4.82a0.537,0.537,0,0,0,.64.59h0.06c0.78,0,1.59-.05,2.39-0.05,0.52,0,.5.3,0.5,0.96,0,0.69.02,0.98-.5,0.98-0.8,0-1.61-.07-2.41-0.04a0.525,0.525,0,0,0-.61.57c0.04,0.8.09,1.59,0.16,2.39a0.215,0.215,0,0,0,.18.21,0.218,0.218,0,0,0,.18-0.14,15.3,15.3,0,0,0,.96-2.05,0.371,0.371,0,0,1,.32-0.32,3.355,3.355,0,0,1,1.26.68,1.01,1.01,0,0,1,.64.6,0.416,0.416,0,0,1-.39.29,0.794,0.794,0,0,0-.52.57,21.981,21.981,0,0,1-1.81,3.13,1.056,1.056,0,0,0-.25.68c0,0.39.57,2.38,0.89,2.38,0.43,0,.62-2.01.66-2.4a0.361,0.361,0,0,1,.44-0.37,1.19,1.19,0,0,1,1.23.85,14.889,14.889,0,0,1-.57,2.71c-0.32.96-.66,1.9-1.88,1.9-1.39,0-2.01-1.53-2.37-2.65a0.4,0.4,0,0,0-.32-0.27,0.425,0.425,0,0,0-.3.11c-0.41.41-2.5,2.33-2.95,2.33a1.95,1.95,0,0,1-1.22-1.28,1.068,1.068,0,0,1,.58-0.64,19.378,19.378,0,0,0,3.15-2.8,1.028,1.028,0,0,0,.3-0.73,1.417,1.417,0,0,0-.02-0.28c-0.21-1.64-.39-3.19-0.46-4.88a0.537,0.537,0,0,0-.64-0.59h-4.94c-0.64,0-1.31-.03-1.95.02a0.546,0.546,0,0,0-.61.64v7.12c0,1.05.04,2.07,0.04,3.12,0,0.73-.21.73-1.08,0.73-0.75,0-1.05,0-1.05-.64,0-1.07.05-2.14,0.05-3.21v-0.23a0.441,0.441,0,0,0-.43-0.53c-0.07,0-.14.03-0.19,0.03-0.89.22-1.76,0.38-2.63,0.57a0.448,0.448,0,0,0-.32.29,0.371,0.371,0,0,1-.34.3c-0.23,0-.28-0.21-0.41-0.68a13.136,13.136,0,0,1-.44-1.67c0-.27.37-0.27,0.85-0.32a0.5,0.5,0,0,0,.5-0.59v-10.52a0.361,0.361,0,0,0-.41-0.41c-0.53-.02-0.55-0.16-0.55-1.07,0-.8-0.02-1.08.53-1.08,0.41,0,1.07.05,1.64,0.05h3.11c0.6,0,1.24-.05,1.65-0.05,0.57,0,.5.35,0.53,0.87,0.02,0.57.36,0.62,0.89,0.62h0.43a0.534,0.534,0,0,0,.6-0.6q-0.03-.51-0.09-1.02c0-.07-0.03-0.16-0.03-0.23,0-.25.21-0.27,0.42-0.27,0.43,0,1.25.06,1.71,0.11,0.21,0.02.62,0.02,0.62,0.27a0.408,0.408,0,0,1-.27.3,0.831,0.831,0,0,0-.26.84,0.537,0.537,0,0,0,.62.6c0.37,0,1.05-.03,1.35-0.03,0.41,0,.41.21,0.41,0.89s0,0.92-.41.92c-0.34,0-.71-0.03-1.05-0.05a0.128,0.128,0,0,0-.12.11,0.116,0.116,0,0,0,.07.1c0.12,0.04.21,0.09,0.32,0.13a1.417,1.417,0,0,1,.87.55c0,0.21-.2.21-0.36,0.23a0.324,0.324,0,0,0-.25.18c-0.21.39-.35,0.82-0.55,1.21a0.511,0.511,0,0,0-.03.21,0.351,0.351,0,0,0,.42.34h1.09Zm-11.09-2.37a0.6,0.6,0,0,0,.64.61h0.32a0.607,0.607,0,0,0,.64-0.61v-1.17a0.658,0.658,0,0,0-.64-0.64h-0.32a0.651,0.651,0,0,0-.64.64v1.17Zm0,4.33a0.6,0.6,0,0,0,.64.62h0.32a0.609,0.609,0,0,0,.64-0.62v-1.23a0.609,0.609,0,0,0-.64-0.62h-0.32a0.6,0.6,0,0,0-.64.62v1.23Zm0,4.52a0.456,0.456,0,0,0,.48.54c0.04,0,.09-0.02.11-0.02l0.41-.07a0.6,0.6,0,0,0,.6-0.73v-1.18a0.535,0.535,0,0,0-.64-0.62h-0.32a0.535,0.535,0,0,0-.64.62v1.46Zm3.64-7.14a0.543,0.543,0,0,0,.61.63c0.6,0.05,1.35.03,1.95,0.03h0.89a0.8,0.8,0,0,0,.87-0.53,14.571,14.571,0,0,0,.66-2.03c0-.04.03-0.09,0.03-0.13a0.377,0.377,0,0,0-.42-0.37h-1.83c-0.59,0-1.19.05-1.69,0.05-0.39,0-.39-0.21-0.41-0.73a0.325,0.325,0,0,0-.25-0.37,0.5,0.5,0,0,0-.41.6v2.85Zm6.74,8.85c0,0.32.03,0.66,0.03,0.98a0.772,0.772,0,0,1-.94.84c-0.34,0-.71-0.02-1.08-0.02h-1.05a0.546,0.546,0,0,0-.66.57c-0.02.53-.02,0.53-1.06,0.53-0.61,0-.91.02-0.91-0.44,0-.41.02-0.82,0.02-1.23v-4.49c0-.35-0.02-0.69-0.02-1.03a0.77,0.77,0,0,1,.91-0.87c0.42,0,.83.05,1.24,0.05h1.4c0.39,0,.77-0.05,1.19-0.05a0.785,0.785,0,0,1,.96.85c0,0.36-.03.7-0.03,1.05v3.26Zm-4.62-8.37c-0.27,0-.41-0.41-0.64-1.1a8.628,8.628,0,0,1-.36-1.07c0-.34.89-0.53,1.16-0.53s0.39,0.14.71,1.05a6.233,6.233,0,0,1,.3,1.03A1.273,1.273,0,0,1,1270.18,6846.5Zm1.44,4.95a0.509,0.509,0,0,0-.54.52,0.529,0.529,0,0,0,.54.53h0.85a0.538,0.538,0,0,0,.55-0.53,0.518,0.518,0,0,0-.55-0.52h-0.85Zm0,2.39a0.522,0.522,0,0,0-.54.55v0.04a0.522,0.522,0,0,0,.54.55h0.85a0.53,0.53,0,0,0,.55-0.55v-0.04a0.53,0.53,0,0,0-.55-0.55h-0.85Zm9.61-8.74a3.311,3.311,0,0,1-.8.23,0.533,0.533,0,0,1-.43-0.48,23.744,23.744,0,0,0-1.31-2.85,0.7,0.7,0,0,1-.09-0.29c0-.42,1.12-0.69,1.33-0.69a0.48,0.48,0,0,1,.39.23,10.97,10.97,0,0,1,.8,1.53,13.468,13.468,0,0,1,.66,1.78A0.6,0.6,0,0,1,1281.23,6845.1Z" transform="translate(-996 -6808.62)"/>
  <path id="シェイプ_12" data-name="シェイプ 12" class="cls-1" d="M1000.1,6823.87c0,0.39-.06.49-0.393,0.49-0.11,0-.838-0.04-1.343-0.04H996.48c-0.395,0-.475-0.08-0.475-0.5v-14.65c0-.41.08-0.5,0.475-0.5h1.884c0.5,0,1.233-.03,1.343-0.03,0.333,0,.393.1,0.393,0.48v0.62c0,0.41-.04.49-0.378,0.49-0.2,0-.853-0.02-1.358-0.02h-0.459c-0.382,0-.444.07-0.444,0.46v11.64c0,0.41.062,0.47,0.444,0.47h0.459c0.5,0,1.153-.01,1.358-0.01,0.338,0,.378.08,0.378,0.48v0.62Zm8.3-2.86c0.81,0,2.29-.04,2.4-0.04,0.34,0,.4.1,0.4,0.49v0.79c0,0.38-.06.48-0.4,0.48-0.11,0-1.59-.03-2.4-0.03h-2.06c-0.81,0-2.29.03-2.4,0.03-0.34,0-.4-0.1-0.4-0.48v-0.31a0.811,0.811,0,0,1,.38-0.82,8.822,8.822,0,0,0,.81-0.7c2.85-2.65,4.49-4.32,4.49-5.97a1.784,1.784,0,0,0-2.01-1.84,3.109,3.109,0,0,0-2.31,1.11,0.493,0.493,0,0,1-.33.23,0.609,0.609,0,0,1-.32-0.23l-0.63-.72a0.625,0.625,0,0,1-.19-0.36,0.617,0.617,0,0,1,.22-0.37,5.287,5.287,0,0,1,3.72-1.52c2.4,0,3.75,1.51,3.75,3.43,0,2.37-1.79,4.26-4.21,6.49a0.463,0.463,0,0,0-.17.24c0,0.06.09,0.1,0.28,0.1h1.38Zm16.07-4.5c0,3.99-2.17,6.32-4.81,6.32-2.53,0-4.54-2.02-4.54-5.85,0-3.43,1.66-6.21,4.77-6.21C1022.38,6810.77,1024.47,6812.69,1024.47,6816.51Zm-7.5.52c0,2.62,1.09,4.01,2.69,4.01,1.69,0,2.96-1.73,2.96-4.46,0-2.63-1.16-3.94-2.73-3.94C1017.89,6812.64,1016.97,6814.67,1016.97,6817.03Zm15.81,3.98c0.81,0,2.29-.04,2.4-0.04,0.34,0,.4.1,0.4,0.49v0.79c0,0.38-.06.48-0.4,0.48-0.11,0-1.59-.03-2.4-0.03h-2.06c-0.8,0-2.29.03-2.4,0.03-0.33,0-.4-0.1-0.4-0.48v-0.31a0.811,0.811,0,0,1,.38-0.82,8.822,8.822,0,0,0,.81-0.7c2.85-2.65,4.49-4.32,4.49-5.97a1.784,1.784,0,0,0-2.01-1.84,3.109,3.109,0,0,0-2.31,1.11,0.493,0.493,0,0,1-.33.23,0.609,0.609,0,0,1-.32-0.23L1028,6813a0.694,0.694,0,0,1-.19-0.36,0.617,0.617,0,0,1,.22-0.37,5.287,5.287,0,0,1,3.72-1.52c2.41,0,3.75,1.51,3.75,3.43,0,2.37-1.79,4.26-4.21,6.49a0.463,0.463,0,0,0-.17.24c0,0.06.09,0.1,0.28,0.1h1.38Zm16.07-4.5c0,3.99-2.17,6.32-4.81,6.32-2.53,0-4.54-2.02-4.54-5.85,0-3.43,1.66-6.21,4.78-6.21C1046.76,6810.77,1048.85,6812.69,1048.85,6816.51Zm-7.5.52c0,2.62,1.09,4.01,2.69,4.01,1.69,0,2.96-1.73,2.96-4.46,0-2.63-1.16-3.94-2.72-3.94C1042.27,6812.64,1041.35,6814.67,1041.35,6817.03Zm19.83-3.05a0.405,0.405,0,0,0,.44.47h1.27c0.55,0,1.09-.05,1.65-0.05,0.39,0,.39.19,0.39,0.86,0,0.65-.02.82-0.39,0.82-0.56,0-1.1-.03-1.65-0.03h-1.27a0.383,0.383,0,0,0-.44.46v1.5a0.39,0.39,0,0,0,.44.47h2.62c0.66,0,1.32-.04,1.99-0.04,0.39,0,.38.2,0.38,0.84s0.01,0.84-.38.84c-0.67,0-1.33-.04-1.99-0.04h-2.62a0.39,0.39,0,0,0-.44.47v0.47c0,0.82.05,1.63,0.05,2.43,0,0.56-.21.56-0.92,0.56-0.69,0-.9,0-0.9-0.54,0-.82.05-1.63,0.05-2.45v-0.47a0.393,0.393,0,0,0-.45-0.47h-3.92c-0.66,0-1.33.04-1.99,0.04-0.4,0-.38-0.19-0.38-0.82,0-.67-0.02-0.86.38-0.86,0.5,0,1.03.05,1.55,0.04a0.381,0.381,0,0,0,.39-0.47v-1.6c0-.41-0.01-0.82-0.01-1.24a0.635,0.635,0,0,1,.77-0.75c0.38,0,.76.03,1.14,0.03h2.07a0.408,0.408,0,0,0,.45-0.47v-1.27a0.39,0.39,0,0,0-.45-0.47h-2.09a0.669,0.669,0,0,0-.66.35,16.271,16.271,0,0,1-2.17,2.77,0.954,0.954,0,0,1-.52.37,1.847,1.847,0,0,1-1.06-1.11,1.078,1.078,0,0,1,.4-0.5,11.9,11.9,0,0,0,3.24-5.1,0.244,0.244,0,0,1,.22-0.23,14.3,14.3,0,0,1,1.54.45,0.288,0.288,0,0,1,.27.23,0.3,0.3,0,0,1-.24.22,0.6,0.6,0,0,0-.4.49,1.01,1.01,0,0,0-.03.17,0.259,0.259,0,0,0,.29.25h5.74c0.65,0,1.28-.05,1.93-0.05,0.39,0,.38.22,0.38,0.87s0.01,0.85-.38.85c-0.65,0-1.28-.03-1.93-0.03h-1.92a0.387,0.387,0,0,0-.44.47v1.27Zm-4.13,2.07a0.455,0.455,0,0,0-.44.46v1.5a0.457,0.457,0,0,0,.44.47h1.96a0.453,0.453,0,0,0,.45-0.47v-1.5a0.45,0.45,0,0,0-.45-0.46h-1.96Zm18.49-3.68a0.086,0.086,0,0,0-.1.09,0.331,0.331,0,0,0,.21.15,0.664,0.664,0,0,1,.47.39,0.193,0.193,0,0,1-.22.16,0.483,0.483,0,0,0-.41.34c-0.05.08-.1,0.16-0.17,0.28a0.526,0.526,0,0,0-.12.32,0.463,0.463,0,0,0,.15.34,12.319,12.319,0,0,0,1.12,1.05,0.427,0.427,0,0,1,.19.27,1.869,1.869,0,0,1-1.01,1.07,4.391,4.391,0,0,1-1.24-1.1,0.389,0.389,0,0,0-.28-0.16,0.374,0.374,0,0,0-.29.16,23.832,23.832,0,0,1-1.69,1.79,0.73,0.73,0,0,1-.43.23,1.776,1.776,0,0,1-1.04-.95,0.876,0.876,0,0,1,.35-0.44,18.371,18.371,0,0,0,3.03-3.6,0.246,0.246,0,0,0,.05-0.17,0.213,0.213,0,0,0-.25-0.22h-0.63c-0.62,0-1.25.04-1.87,0.04-0.38,0-.38-0.19-0.38-0.81s-0.01-.83.38-0.83c0.62,0,1.25.03,1.87,0.03h2.95a0.4,0.4,0,0,0,.45-0.47,8.039,8.039,0,0,0-.07-0.96c0-.05-0.01-0.15-0.01-0.2,0-.2.14-0.23,0.3-0.23,0.27,0,1.04.08,1.34,0.12,0.15,0.01.43,0.01,0.43,0.23a0.323,0.323,0,0,1-.19.22,0.59,0.59,0,0,0-.17.55v0.29a0.37,0.37,0,0,0,.43.45h3.02c0.61,0,1.23-.03,1.86-0.03,0.4,0,.38.2,0.38,0.83s0,0.81-.38.81c-0.63,0-1.25-.04-1.86-0.04h-0.41a0.086,0.086,0,0,0-.1.09,0.254,0.254,0,0,0,.08.1,0.944,0.944,0,0,1,.6.42,0.229,0.229,0,0,1-.27.18,0.466,0.466,0,0,0-.39.32,1.982,1.982,0,0,0-.16.24,0.64,0.64,0,0,0-.13.33,0.56,0.56,0,0,0,.13.35,15.727,15.727,0,0,0,2.13,2.11,0.7,0.7,0,0,1,.29.39,2.028,2.028,0,0,1-1.05,1.01c-0.38,0-2.02-1.88-2.34-2.25a0.328,0.328,0,0,0-.27-0.15,0.368,0.368,0,0,0-.27.13c-0.48.54-.85,0.91-1.37,1.41a0.258,0.258,0,0,0-.08.13,0.125,0.125,0,0,0,.14.12c0.13,0.02.38,0.04,0.38,0.24a0.317,0.317,0,0,1-.19.23,0.431,0.431,0,0,0-.16.35,0.377,0.377,0,0,0,.43.44h3.42c0.66,0,1.31-.03,1.96-0.03,0.39,0,.38.2,0.38,0.83s0.01,0.84-.38.84c-0.65,0-1.3-.05-1.96-0.05h-3.43a0.381,0.381,0,0,0-.43.47v1.19c0,0.54.03,1.09,0.03,1.63,0,0.52-.16.55-0.82,0.55s-0.91.02-.91-0.54c0-.5.04-1.05,0.04-1.64v-1.19a0.39,0.39,0,0,0-.45-0.47h-3.37c-0.65,0-1.31.05-1.96,0.05-0.39,0-.38-0.22-0.38-0.84s0-.83.38-0.83c0.65,0,1.31.03,1.96,0.03h3.37a0.367,0.367,0,0,0,.43-0.45c0-.12-0.02-0.25-0.03-0.39a0.8,0.8,0,0,0-.21-0.42,0.64,0.64,0,0,1-.22-0.37,0.9,0.9,0,0,1,.35-0.43,17.976,17.976,0,0,0,3.35-3.76,0.3,0.3,0,0,0,.05-0.15,0.217,0.217,0,0,0-.25-0.22h-4.08Zm23.76-2.95a0.213,0.213,0,0,1,.18-0.16,3.837,3.837,0,0,1,1.42.78,0.19,0.19,0,0,1-.2.16,0.384,0.384,0,0,0-.3.15c-0.15.3-.48,0.88-0.64,1.17a0.241,0.241,0,0,0-.04.15,0.2,0.2,0,0,0,.23.22c0.57,0,1.14-.03,1.71-0.03,0.35,0,.35.18,0.35,0.7,0,0.5,0,.69-0.35.69-0.66,0-1.31-.04-1.98-0.04h-0.61c-0.05,0-.05.04-0.02,0.07a0.235,0.235,0,0,1,.05.1,0.246,0.246,0,0,1-.22.18,0.432,0.432,0,0,0-.32.21c-0.06.15-.14,0.31-0.2,0.46a0.494,0.494,0,0,0-.05.16,0.268,0.268,0,0,0,.3.25h0.41c0.65,0,1.28-.04,1.93-0.04,0.36,0,.35.22,0.35,0.67,0,0.41.01,0.66-.34,0.66-0.64,0-1.29-.04-1.94-0.04h-2.69a0.268,0.268,0,0,0-.3.32v0.14a0.268,0.268,0,0,0,.3.32h1.88c0.6,0,1.2-.04,1.82-0.04,0.37,0,.37.19,0.37,0.66s0,0.65-.37.65c-0.62,0-1.22-.03-1.82-0.03h-1.88a0.258,0.258,0,0,0-.3.3v0.15a0.265,0.265,0,0,0,.3.32h3.54c0.67,0,1.33-.04,2.01-0.04,0.37,0,.37.17,0.37,0.67s0,0.69-.35.69c-0.68,0-1.36-.03-2.03-0.03h-2.02a0.135,0.135,0,0,0-.16.13,0.156,0.156,0,0,0,.06.12,14.967,14.967,0,0,0,3.94,2.01c0.37,0.12.53,0.2,0.53,0.4a1.526,1.526,0,0,1-.89,1.11,10.08,10.08,0,0,1-1.88-.77,15.925,15.925,0,0,1-3.09-2.11,0.186,0.186,0,0,0-.16-0.07,0.214,0.214,0,0,0-.17.23v0.15c0,0.74.05,1.49,0.05,2.25,0,0.57-.18.59-0.91,0.59-0.69,0-.88-0.02-0.88-0.57,0-.76.05-1.51,0.05-2.27v-0.11c-0.02-.14-0.05-0.24-0.19-0.24a0.239,0.239,0,0,0-.14.05,17.134,17.134,0,0,1-3.66,2.37,6.345,6.345,0,0,1-1.31.51,1.561,1.561,0,0,1-.87-1.15c0-.2.2-0.27,0.55-0.39a17.643,17.643,0,0,0,3.89-1.99,0.21,0.21,0,0,0,.07-0.14,0.129,0.129,0,0,0-.15-0.11h-1.91c-0.66,0-1.35.03-2.03,0.03-0.34,0-.34-0.2-0.34-0.69s0-.67.34-0.67c0.68,0,1.37.04,2.03,0.04h3.42a0.272,0.272,0,0,0,.3-0.32v-0.14a0.261,0.261,0,0,0-.3-0.31h-1.79c-0.6,0-1.22.03-1.82,0.03-0.38,0-.36-0.19-0.36-0.65,0-.49,0-0.66.36-0.66,0.6,0,1.22.04,1.82,0.04h1.79a0.268,0.268,0,0,0,.3-0.32v-0.14a0.268,0.268,0,0,0-.3-0.32h-2.55c-0.65,0-1.3.04-1.95,0.04-0.35,0-.33-0.27-0.33-0.66,0-.45-0.02-0.67.35-0.67,0.65,0,1.28.04,1.93,0.04h0.36a0.257,0.257,0,0,0,.29-0.25,0.9,0.9,0,0,0-.03-0.16c-0.1-.21-0.19-0.41-0.3-0.63a0.567,0.567,0,0,0-.59-0.39h-0.41c-0.66,0-1.31.04-1.98,0.04-0.35,0-.35-0.19-0.35-0.69s0-.7.35-0.7c0.52,0,1.05.03,1.57,0.03h0.17a0.194,0.194,0,0,0,.22-0.2,0.254,0.254,0,0,0-.03-0.15,13.547,13.547,0,0,0-.96-1.38,0.605,0.605,0,0,1-.15-0.27,1.6,1.6,0,0,1,1.11-.65,0.494,0.494,0,0,1,.41.32c0.03,0.05.08,0.12,0.14,0.2a8.141,8.141,0,0,1,1,1.56,0.728,0.728,0,0,1-.5.43,0.1,0.1,0,0,0-.04.07,0.071,0.071,0,0,0,.08.07h0.78a0.387,0.387,0,0,0,.44-0.45v-0.52c0-.54-0.02-1.08-0.06-1.61,0-.05-0.02-0.1-0.02-0.15a0.224,0.224,0,0,1,.27-0.25c0.22,0,1.08.1,1.33,0.13,0.16,0.02.38,0.03,0.38,0.23a0.326,0.326,0,0,1-.19.26,1.229,1.229,0,0,0-.19.92v0.99a0.383,0.383,0,0,0,.44.45h0.46a0.387,0.387,0,0,0,.45-0.45v-0.96a6.456,6.456,0,0,0-.07-1.16v-0.15c0-.2.11-0.23,0.27-0.23,0.21,0,1.04.08,1.28,0.12,0.14,0.01.41,0.03,0.41,0.23a0.348,0.348,0,0,1-.19.24,0.979,0.979,0,0,0-.17.77v1.14a0.378,0.378,0,0,0,.38.45,0.268,0.268,0,0,0,.22-0.15A20.585,20.585,0,0,0,1099.3,6809.42Zm-3.27,5.22a0.58,0.58,0,0,0,.63-0.39c0.1-.2.19-0.42,0.3-0.64a0.25,0.25,0,0,0,.03-0.13,0.271,0.271,0,0,0-.3-0.27h-2.86a0.25,0.25,0,0,0-.28.25,0.4,0.4,0,0,0,.03.15c0.39,0.84.39,1.03,0.8,1.03h1.65Zm10.23,8.13c0.2,0,.85.01,1.36,0.01h0.45c0.38,0,.45-0.06.45-0.47v-11.64c0-.39-0.07-0.46-0.45-0.46h-0.45c-0.51,0-1.16.02-1.36,0.02-0.34,0-.38-0.08-0.38-0.49v-0.62c0-.38.06-0.48,0.39-0.48,0.11,0,.84.03,1.35,0.03h1.88c0.39,0,.47.09,0.47,0.5v14.65c0,0.42-.08.5-0.47,0.5h-1.88c-0.51,0-1.24.04-1.35,0.04-0.33,0-.39-0.1-0.39-0.49v-0.62C1105.88,6822.85,1105.92,6822.77,1106.26,6822.77Z" transform="translate(-996 -6808.62)"/>
</svg>
