<svg id="review-ttl-lead02-sp.svg" xmlns="http://www.w3.org/2000/svg" width="368.62" height="69.094" viewBox="0 0 368.62 69.094">
  <defs>
    <style>
      .cls-1 {
        fill: #52a5dc;
        fill-rule: evenodd;
      }
    </style>
  </defs>
  <path id="シェイプ_1" data-name="シェイプ 1" class="cls-1" d="M1168.71,379.453c0,0.5-.08.625-0.51,0.625-0.14,0-1.06-.043-1.71-0.043h-2.39c-0.51,0-.61-0.109-0.61-0.646V360.554c0-.538.1-0.646,0.61-0.646h2.39c0.65,0,1.57-.044,1.71-0.044,0.43,0,.51.13,0.51,0.626v0.8c0,0.517-.06.625-0.49,0.625-0.26,0-1.08-.023-1.73-0.023h-0.58c-0.49,0-.56.088-0.56,0.584v14.976c0,0.517.07,0.6,0.56,0.6h0.58c0.65,0,1.47-.022,1.73-0.022,0.43,0,.49.109,0.49,0.626v0.8Zm10.56-3.685c1.02,0,2.91-.044,3.06-0.044,0.42,0,.5.13,0.5,0.625v1.013c0,0.5-.08.625-0.5,0.625-0.15,0-2.04-.042-3.06-0.042h-2.62c-1.03,0-2.92.042-3.06,0.042-0.43,0-.5-0.129-0.5-0.625v-0.388a1.024,1.024,0,0,1,.48-1.056,13.412,13.412,0,0,0,1.02-.9c3.63-3.406,5.72-5.56,5.72-7.673a2.282,2.282,0,0,0-2.56-2.369,3.958,3.958,0,0,0-2.94,1.422,0.6,0.6,0,0,1-.42.3,0.753,0.753,0,0,1-.4-0.3l-0.81-.926a0.785,0.785,0,0,1-.24-0.453,0.74,0.74,0,0,1,.29-0.474,6.61,6.61,0,0,1,4.73-1.962c3.06,0,4.77,1.94,4.77,4.418,0,3.038-2.28,5.473-5.36,8.34a0.543,0.543,0,0,0-.22.3c0,0.085.12,0.129,0.36,0.129h1.76Zm20.45-5.775c0,5.129-2.76,8.123-6.13,8.123-3.22,0-5.77-2.606-5.77-7.521,0-4.416,2.11-7.993,6.08-7.993C1197.06,362.6,1199.72,365.079,1199.72,369.993Zm-9.55.667c0,3.362,1.39,5.151,3.42,5.151,2.16,0,3.77-2.22,3.77-5.732,0-3.384-1.47-5.064-3.46-5.064C1191.34,365.015,1190.17,367.622,1190.17,370.66Zm20.13,5.108c1.02,0,2.92-.044,3.06-0.044,0.42,0,.5.13,0.5,0.625v1.013c0,0.5-.08.625-0.5,0.625-0.14,0-2.04-.042-3.06-0.042h-2.62c-1.03,0-2.92.042-3.06,0.042-0.42,0-.5-0.129-0.5-0.625v-0.388a1.041,1.041,0,0,1,.48-1.056,13.54,13.54,0,0,0,1.03-.9c3.62-3.406,5.71-5.56,5.71-7.673a2.279,2.279,0,0,0-2.55-2.369,3.924,3.924,0,0,0-2.94,1.422,0.622,0.622,0,0,1-.42.3,0.732,0.732,0,0,1-.41-0.3l-0.8-.926a0.815,0.815,0,0,1-.25-0.453,0.787,0.787,0,0,1,.29-0.474,6.645,6.645,0,0,1,4.73-1.962c3.06,0,4.77,1.94,4.77,4.418,0,3.038-2.28,5.473-5.36,8.34a0.543,0.543,0,0,0-.22.3c0,0.085.12,0.129,0.37,0.129h1.75Zm20.45-5.775c0,5.129-2.76,8.123-6.12,8.123-3.22,0-5.78-2.606-5.78-7.521,0-4.416,2.11-7.993,6.08-7.993C1228.09,362.6,1230.75,365.079,1230.75,369.993Zm-9.55.667c0,3.362,1.39,5.151,3.43,5.151,2.15,0,3.76-2.22,3.76-5.732,0-3.384-1.47-5.064-3.46-5.064C1222.37,365.015,1221.2,367.622,1221.2,370.66Zm25.25-3.921a0.517,0.517,0,0,0,.56.6h1.61c0.71,0,1.39-.064,2.09-0.064,0.51,0,.51.237,0.51,1.1,0,0.84-.02,1.057-0.51,1.057-0.7,0-1.38-.044-2.09-0.044h-1.61a0.5,0.5,0,0,0-.56.6v1.917a0.5,0.5,0,0,0,.56.6h3.32c0.85,0,1.69-.044,2.54-0.044,0.5,0,.48.259,0.48,1.078,0,0.841.02,1.078-.48,1.078-0.85,0-1.69-.043-2.54-0.043h-3.32a0.5,0.5,0,0,0-.56.6v0.6c0,1.056.06,2.091,0.06,3.125,0,0.71-.26.71-1.17,0.71-0.89,0-1.15,0-1.15-.689,0-1.055.06-2.09,0.06-3.146v-0.6a0.5,0.5,0,0,0-.56-0.6h-5c-0.84,0-1.69.043-2.53,0.043-0.51,0-.49-0.237-0.49-1.056,0-.862-0.02-1.1.49-1.1,0.64,0,1.31.065,1.97,0.044a0.488,0.488,0,0,0,.5-0.6v-2.046c0-.54-0.02-1.056-0.02-1.595a0.818,0.818,0,0,1,.99-0.97c0.48,0,.97.042,1.45,0.042h2.64a0.517,0.517,0,0,0,.56-0.6V365.1a0.5,0.5,0,0,0-.56-0.6h-2.66a0.857,0.857,0,0,0-.85.452,20.98,20.98,0,0,1-2.75,3.556,1.268,1.268,0,0,1-.67.474,2.351,2.351,0,0,1-1.35-1.422,1.4,1.4,0,0,1,.51-0.646,15.2,15.2,0,0,0,4.12-6.552,0.31,0.31,0,0,1,.28-0.3,16.675,16.675,0,0,1,1.96.583,0.371,0.371,0,0,1,.34.3,0.379,0.379,0,0,1-.3.28,0.755,0.755,0,0,0-.51.626,1.574,1.574,0,0,0-.03.214,0.32,0.32,0,0,0,.36.323h7.31c0.82,0,1.63-.064,2.45-0.064,0.51,0,.49.281,0.49,1.12,0,0.819.02,1.1-.49,1.1-0.82,0-1.63-.043-2.45-0.043h-2.44a0.5,0.5,0,0,0-.56.6v1.637Zm-5.26,2.65a0.6,0.6,0,0,0-.56.6v1.917a0.582,0.582,0,0,0,.56.6h2.5a0.57,0.57,0,0,0,.56-0.6v-1.917a0.584,0.584,0,0,0-.56-0.6h-2.5Zm23.53-4.719a0.1,0.1,0,0,0-.12.109,0.421,0.421,0,0,0,.26.193,0.86,0.86,0,0,1,.6.5,0.252,0.252,0,0,1-.28.215,0.6,0.6,0,0,0-.52.431c-0.06.108-.12,0.215-0.22,0.367a0.644,0.644,0,0,0-.14.408,0.588,0.588,0,0,0,.17.432,19.552,19.552,0,0,0,1.43,1.358,0.543,0.543,0,0,1,.25.344,2.414,2.414,0,0,1-1.29,1.379,5.488,5.488,0,0,1-1.57-1.422,0.511,0.511,0,0,0-.36-0.195,0.5,0.5,0,0,0-.37.195c-0.54.647-1.55,1.745-2.15,2.305a0.922,0.922,0,0,1-.55.3,2.271,2.271,0,0,1-1.32-1.227,1.057,1.057,0,0,1,.44-0.561,23.416,23.416,0,0,0,3.86-4.633,0.325,0.325,0,0,0,.07-0.216,0.283,0.283,0,0,0-.33-0.28h-0.8c-0.79,0-1.59.042-2.38,0.042-0.48,0-.48-0.235-0.48-1.033,0-.819-0.02-1.077.48-1.077,0.79,0,1.59.043,2.38,0.043h3.76a0.512,0.512,0,0,0,.57-0.6,10.5,10.5,0,0,0-.09-1.229c0-.064-0.01-0.194-0.01-0.258a0.3,0.3,0,0,1,.38-0.3c0.34,0,1.33.108,1.71,0.152,0.18,0.021.54,0.021,0.54,0.3a0.391,0.391,0,0,1-.24.279,0.779,0.779,0,0,0-.22.711v0.366a0.478,0.478,0,0,0,.55.583h3.84c0.79,0,1.57-.043,2.38-0.043,0.5,0,.48.258,0.48,1.077,0,0.8,0,1.033-.48,1.033-0.81,0-1.59-.042-2.38-0.042h-0.52a0.1,0.1,0,0,0-.12.109,0.329,0.329,0,0,0,.1.129,1.214,1.214,0,0,1,.76.538,0.3,0.3,0,0,1-.34.237,0.583,0.583,0,0,0-.5.409l-0.21.3a0.885,0.885,0,0,0-.16.431,0.726,0.726,0,0,0,.16.452,21.605,21.605,0,0,0,2.72,2.716,0.889,0.889,0,0,1,.37.5,2.6,2.6,0,0,1-1.33,1.292c-0.49,0-2.58-2.413-2.98-2.888a0.454,0.454,0,0,0-.35-0.193,0.444,0.444,0,0,0-.34.172c-0.62.69-1.08,1.163-1.75,1.811a0.3,0.3,0,0,0-.1.171,0.163,0.163,0,0,0,.18.152c0.16,0.021.48,0.043,0.48,0.3a0.414,0.414,0,0,1-.24.3,0.563,0.563,0,0,0-.2.454,0.476,0.476,0,0,0,.55.56h4.34c0.85,0,1.67-.043,2.5-0.043,0.5,0,.48.258,0.48,1.077,0,0.8.02,1.077-.48,1.077-0.83,0-1.65-.065-2.5-0.065h-4.36a0.492,0.492,0,0,0-.55.6v1.53c0,0.689.04,1.4,0.04,2.091,0,0.667-.2.711-1.05,0.711-0.82,0-1.15.02-1.15-.69,0-.646.05-1.358,0.05-2.112v-1.53a0.5,0.5,0,0,0-.57-0.6h-4.29c-0.82,0-1.67.065-2.49,0.065-0.51,0-.49-0.28-0.49-1.077,0-.819,0-1.077.49-1.077,0.82,0,1.67.043,2.49,0.043h4.29a0.475,0.475,0,0,0,.55-0.583c0-.15-0.03-0.323-0.04-0.5a0.978,0.978,0,0,0-.27-0.537,0.873,0.873,0,0,1-.28-0.475,1.152,1.152,0,0,1,.44-0.56,22.873,22.873,0,0,0,4.27-4.827,0.366,0.366,0,0,0,.06-0.194,0.275,0.275,0,0,0-.32-0.28h-5.19Zm30.25-3.793a0.263,0.263,0,0,1,.22-0.215c0.08,0,1.81.711,1.81,1.013a0.242,0.242,0,0,1-.26.194,0.51,0.51,0,0,0-.38.193c-0.18.388-.61,1.142-0.81,1.509a0.315,0.315,0,0,0-.06.193,0.26,0.26,0,0,0,.3.281c0.73,0,1.45-.043,2.18-0.043,0.44,0,.44.237,0.44,0.906,0,0.646,0,.883-0.44.883-0.85,0-1.67-.044-2.52-0.044h-0.78c-0.06,0-.06.044-0.02,0.086a0.392,0.392,0,0,1,.06.129,0.331,0.331,0,0,1-.28.238,0.551,0.551,0,0,0-.41.258c-0.08.194-.18,0.41-0.26,0.6a0.723,0.723,0,0,0-.06.194,0.337,0.337,0,0,0,.38.323h0.53c0.82,0,1.63-.042,2.45-0.042,0.47,0,.45.279,0.45,0.861,0,0.518.02,0.841-.43,0.841-0.82,0-1.65-.044-2.47-0.044h-3.43a0.337,0.337,0,0,0-.38.41v0.172a0.337,0.337,0,0,0,.38.41h2.4c0.76,0,1.53-.044,2.31-0.044,0.47,0,.47.238,0.47,0.842s0,0.839-.47.839c-0.78,0-1.55-.043-2.31-0.043h-2.4a0.329,0.329,0,0,0-.38.388v0.195a0.336,0.336,0,0,0,.38.408h4.51c0.85,0,1.7-.043,2.56-0.043,0.46,0,.46.216,0.46,0.862s0,0.884-.44.884c-0.87,0-1.73-.043-2.58-0.043h-2.57a0.173,0.173,0,0,0-.2.172,0.184,0.184,0,0,0,.07.152,18.947,18.947,0,0,0,5.02,2.585c0.46,0.15.66,0.258,0.66,0.517a1.949,1.949,0,0,1-1.12,1.423,12.029,12.029,0,0,1-2.4-.992,19.534,19.534,0,0,1-3.93-2.715,0.25,0.25,0,0,0-.2-0.087,0.268,0.268,0,0,0-.22.3v0.194c0,0.948.06,1.918,0.06,2.887,0,0.734-.22.754-1.15,0.754-0.88,0-1.12-.02-1.12-0.731,0-.971.06-1.94,0.06-2.91v-0.15c-0.02-.173-0.06-0.3-0.25-0.3a0.307,0.307,0,0,0-.18.064,21.572,21.572,0,0,1-4.65,3.039,7.926,7.926,0,0,1-1.67.667,2.04,2.04,0,0,1-1.11-1.485c0-.26.27-0.346,0.71-0.5a22.425,22.425,0,0,0,4.95-2.564,0.235,0.235,0,0,0,.08-0.173,0.162,0.162,0,0,0-.18-0.151h-2.44c-0.84,0-1.71.043-2.57,0.043-0.45,0-.45-0.259-0.45-0.884s0-.862.45-0.862c0.86,0,1.73.043,2.57,0.043h4.35a0.35,0.35,0,0,0,.39-0.408v-0.173a0.343,0.343,0,0,0-.39-0.41h-2.27c-0.77,0-1.55.043-2.32,0.043-0.48,0-.46-0.237-0.46-0.839,0-.625,0-0.842.46-0.842,0.77,0,1.55.044,2.32,0.044h2.27a0.343,0.343,0,0,0,.39-0.41v-0.172a0.343,0.343,0,0,0-.39-0.41h-3.24c-0.82,0-1.65.044-2.48,0.044-0.44,0-.42-0.346-0.42-0.841,0-.582-0.02-0.861.44-0.861,0.83,0,1.64.042,2.46,0.042h0.46a0.329,0.329,0,0,0,.37-0.323,0.671,0.671,0,0,0-.04-0.194c-0.12-.279-0.24-0.539-0.39-0.819a0.714,0.714,0,0,0-.74-0.5h-0.52c-0.85,0-1.67.044-2.52,0.044-0.44,0-.44-0.237-0.44-0.883s0-.906.44-0.906c0.66,0,1.33.043,1.99,0.043h0.22a0.251,0.251,0,0,0,.29-0.258,0.284,0.284,0,0,0-.05-0.194,17.838,17.838,0,0,0-1.22-1.768,0.827,0.827,0,0,1-.19-0.344,2.023,2.023,0,0,1,1.41-.84,0.635,0.635,0,0,1,.53.409q0.06,0.1.18,0.258a10.826,10.826,0,0,1,1.27,2,0.965,0.965,0,0,1-.65.561,0.165,0.165,0,0,0-.04.085,0.082,0.082,0,0,0,.1.087h0.99a0.5,0.5,0,0,0,.57-0.581V362.8c0-.69-0.03-1.38-0.08-2.069,0-.065-0.02-0.129-0.02-0.194a0.286,0.286,0,0,1,.34-0.323c0.28,0,1.37.129,1.69,0.171,0.2,0.023.48,0.044,0.48,0.3a0.4,0.4,0,0,1-.24.323,1.594,1.594,0,0,0-.24,1.186v1.272a0.487,0.487,0,0,0,.56.581h0.59a0.487,0.487,0,0,0,.56-0.581v-1.229a9.268,9.268,0,0,0-.08-1.487v-0.194a0.273,0.273,0,0,1,.34-0.3c0.26,0,1.33.108,1.63,0.152,0.18,0.021.53,0.042,0.53,0.3a0.432,0.432,0,0,1-.25.3,1.245,1.245,0,0,0-.22.992v1.466a0.484,0.484,0,0,0,.49.581,0.336,0.336,0,0,0,.28-0.193A27.76,27.76,0,0,0,1294.97,360.877Zm-4.17,6.7a0.747,0.747,0,0,0,.81-0.5c0.12-.258.24-0.538,0.38-0.819a0.419,0.419,0,0,0,.04-0.172,0.341,0.341,0,0,0-.38-0.345H1288a0.321,0.321,0,0,0-.36.323,0.664,0.664,0,0,0,.04.194c0.5,1.077.5,1.315,1.03,1.315h2.09Zm13.02,10.451c0.26,0,1.08.022,1.73,0.022h0.58c0.48,0,.57-0.086.57-0.6V362.473c0-.5-0.09-0.584-0.57-0.584h-0.58c-0.65,0-1.47.023-1.73,0.023-0.43,0-.49-0.108-0.49-0.625v-0.8c0-.5.08-0.626,0.51-0.626,0.14,0,1.06.044,1.71,0.044h2.39c0.51,0,.61.108,0.61,0.646v18.835c0,0.537-.1.646-0.61,0.646h-2.39c-0.65,0-1.57.043-1.71,0.043-0.43,0-.51-0.129-0.51-0.625v-0.8C1303.33,378.139,1303.39,378.03,1303.82,378.03Z" transform="translate(-1051.69 -359.875)"/>
  <path id="シェイプ_3" data-name="シェイプ 3" class="cls-1" d="M1068.19,405.3a8.6,8.6,0,0,0,1.36-.063c0.19,0,.51-0.063.7-0.063,0.67,0,2.03,1.737,2.03,2.147a6.08,6.08,0,0,1-.7,1.233c-0.19.284-.38,0.6-0.5,0.82a45.616,45.616,0,0,1-4.13,6,0.831,0.831,0,0,0,.22,1.357,51.1,51.1,0,0,1,5.37,4.073c0.76,0.663,1.55,1.39,2.28,2.148a0.6,0.6,0,0,1,.23.442c0,0.664-1.75,2.525-2.42,2.525a1.049,1.049,0,0,1-.79-0.473,33.731,33.731,0,0,0-7.02-6.251,1.1,1.1,0,0,0-.73-0.285,1.518,1.518,0,0,0-.95.536,35.228,35.228,0,0,1-7.94,5.526,5.318,5.318,0,0,1-1.4.6c-0.67,0-2.13-2.116-2.13-2.685a0.772,0.772,0,0,1,.67-0.631c5.62-2.147,10.96-6.979,14.16-11.968a3.064,3.064,0,0,0,.54-1.074c0-.473-0.44-0.536-0.92-0.536h-6.57c-1.36,0-2.73.063-4.1,0.063-0.85,0-.79-0.474-0.79-1.925,0-1.107-.03-1.58.76-1.58,1.37,0,2.73.063,4.13,0.063h8.64Zm32.53,0.98a9.387,9.387,0,0,0,1.94-.159,1.169,1.169,0,0,1,.32-0.062c0.54,0,1.65,1.642,1.65,2.146a0.929,0.929,0,0,1-.19.474,7.511,7.511,0,0,0-.8,1.547,55.538,55.538,0,0,1-3.01,5.874,1.062,1.062,0,0,0-.22.631,1.024,1.024,0,0,0,.57.821c0.38,0.284,1.78,1.231,1.78,1.643,0,0.537-1.44,2.4-2.04,2.4a0.686,0.686,0,0,1-.47-0.253c-0.45-.378-0.86-0.694-1.31-1.074a1.1,1.1,0,0,0-.69-0.314,1.693,1.693,0,0,0-1.08.757,25.126,25.126,0,0,1-6.93,5.336,17.1,17.1,0,0,1-3.84,1.61c-0.83,0-2.29-2.02-2.29-2.462,0-.379.54-0.473,1.37-0.726a22.237,22.237,0,0,0,9.08-5.685,1.244,1.244,0,0,0,.48-0.788,0.77,0.77,0,0,0-.38-0.663c-0.73-.474-2.38-1.327-3.18-1.7a1.322,1.322,0,0,1-.95-0.7c0-.441,1.24-2.368,1.94-2.368a23.415,23.415,0,0,1,4.09,2.053,1.344,1.344,0,0,0,.61.189c0.6,0,.88-0.6,1.74-2.273a4.077,4.077,0,0,1,.19-0.442,9.752,9.752,0,0,0,.83-2.085c0-.663-0.83-0.631-1.3-0.631h-6.07a1.45,1.45,0,0,0-1.4.821,46.628,46.628,0,0,1-4.12,4.862,1.722,1.722,0,0,1-1.02.6c-0.57,0-2.64-1.327-2.64-1.864a0.9,0.9,0,0,1,.48-0.6,29.023,29.023,0,0,0,8.29-11.337,0.945,0.945,0,0,1,.57-0.789,7.3,7.3,0,0,1,1.78.758,6.233,6.233,0,0,1,1.87,1.073,0.4,0.4,0,0,1-.32.347,1.671,1.671,0,0,0-.95,1.042q-0.18.333-.51,0.853a1.783,1.783,0,0,0-.25.663,0.536,0.536,0,0,0,.57.474h5.81Zm32.06,6.315c1.46,0,3.53-.1,3.94-0.1,0.86,0,.89.253,0.89,1.99,0,1.01-.03,1.61-0.86,1.61-1.33,0-2.66-.063-3.97-0.063h-14.61c-1.3,0-2.63.063-3.97,0.063-0.82,0-.85-0.6-0.85-1.579,0-1.768.06-2.021,0.89-2.021,0.41,0,2.6.1,3.93,0.1h14.61Zm29.61-7.421c0.67,0,2.23,0,2.86-.062,0.13,0,.48-0.063.57-0.063,0.76,0,2.13,1.7,2.13,2.021s-0.29.662-.54,2.021c-1.08,6.093-3.33,10.292-8.48,13.893a29.672,29.672,0,0,1-6.09,3.221,3.36,3.36,0,0,1-1.05.284c-0.77,0-1.91-2.117-1.91-2.621a0.561,0.561,0,0,1,.57-0.506,22.384,22.384,0,0,0,7.91-4.167,14.7,14.7,0,0,0,5.21-9.22,6.483,6.483,0,0,0,.06-0.76c0-.6-0.54-0.661-1.11-0.661h-11.27c-1.34,0-2.64.063-3.97,0.063-0.99,0-.95-0.286-0.95-1.706,0-1.452-.04-1.8.85-1.8,1.37,0,2.73.062,4.1,0.062h11.11ZM1193.63,410c0.73,0,2.19,0,2.86-.063a3.563,3.563,0,0,1,.57-0.063,3.757,3.757,0,0,1,2.25,2.084,7.849,7.849,0,0,1-.41,1.294,22.34,22.34,0,0,1-1.84,4.264,26.591,26.591,0,0,1-6.57,7.451c-0.89.727-4.32,3.158-5.31,3.158-0.73,0-2.19-1.8-2.19-2.335,0-.38.79-0.664,1.11-0.823a22.788,22.788,0,0,0,9.75-8.967,8.164,8.164,0,0,0,.86-2.052c0-.757-0.86-0.7-1.37-0.7h-11.81c-1.33,0-2.67.063-4.03,0.063-0.89,0-.89-0.314-0.89-1.547,0-1.61.03-1.831,0.92-1.831,1.33,0,2.7.063,4.06,0.063h12.04Zm-2.13-6.82c1.3,0,2.92-.094,3.75-0.094,0.79,0,.86.347,0.86,1.925,0,1.074,0,1.484-.86,1.484-1.27,0-2.51-.063-3.75-0.063h-7.78c-1.24,0-2.48.063-3.72,0.063-0.88,0-.88-0.379-0.88-1.547,0-1.484.06-1.862,0.85-1.862,0.89,0,2.51.094,3.75,0.094h7.78Zm30.28,19.989c0,1.388.06,2.778,0.06,4.136,0,0.853-.41.947-1.58,0.947-1.75,0-2.07-.094-2.07-0.915,0-1.359.06-2.717,0.06-4.074v-8.588c0-.19.1-0.886-0.5-0.886a3.492,3.492,0,0,0-1.24.727c-0.96.695-6,4.041-6.83,4.041a5.333,5.333,0,0,1-2.48-2.525,0.645,0.645,0,0,1,.51-0.537,45.62,45.62,0,0,0,12.48-8.367,26.689,26.689,0,0,0,4.32-5.338,0.856,0.856,0,0,1,.51-0.473,11.737,11.737,0,0,1,2.16,1.294,2.738,2.738,0,0,1,1.24,1.137,0.37,0.37,0,0,1-.32.316,1.73,1.73,0,0,0-1.24.758,61.581,61.581,0,0,1-4.35,4.737,1.67,1.67,0,0,0-.73,1.421v12.189Zm23.55-12.758a0.953,0.953,0,0,0,.76-1.1l-0.47-2.337c-0.26-1.168-.48-2.525-0.83-3.662a2.453,2.453,0,0,1-.16-0.633c0-.347.7-0.378,1.31-0.41,0.57-.031,1.58-0.127,2.12-0.127a0.556,0.556,0,0,1,.7.474,0.829,0.829,0,0,1-.13.412,1.159,1.159,0,0,0-.12.537c0,0.41.41,2.3,0.5,2.809l0.45,2.243a0.96,0.96,0,0,0,1.11.757l7.11-1.42c0.99-.19,3.15-0.759,3.47-0.759,0.63,0,2.5,1.737,2.5,2.369a1.347,1.347,0,0,1-.5.821,55.01,55.01,0,0,0-4.42,6.063c-0.57.851-1.11,1.831-1.78,1.831-0.54,0-2.63-.854-2.63-1.484a1.674,1.674,0,0,1,.47-0.758,32.531,32.531,0,0,0,3.12-4.327,0.383,0.383,0,0,0-.39-0.347,7.079,7.079,0,0,0-.76.126l-5.49,1.106a0.942,0.942,0,0,0-.73,1.136l1.81,8.716c0.16,0.79.98,4.2,0.98,4.673a0.758,0.758,0,0,1-.47.695,15.164,15.164,0,0,1-2.32.442c-0.64,0-.73-0.631-1.02-2.305-0.12-.727-0.31-1.643-0.54-2.778l-1.81-8.78a0.959,0.959,0,0,0-1.14-.725l-3.4.694c-0.47.1-4.19,0.884-4.32,0.884a0.68,0.68,0,0,1-.6-0.536,12.728,12.728,0,0,1-.44-2.211c0-.6.25-0.631,2.53-1.041,0.61-.1,1.34-0.222,2.26-0.411Zm45.5,2.179c1.46,0,3.52-.1,3.94-0.1,0.85,0,.89.253,0.89,1.99,0,1.01-.04,1.61-0.86,1.61-1.33,0-2.67-.063-3.97-0.063h-14.61c-1.3,0-2.63.063-3.97,0.063-0.82,0-.86-0.6-0.86-1.579,0-1.768.07-2.021,0.89-2.021,0.41,0,2.61.1,3.94,0.1h14.61Zm35.21-6.821a0.389,0.389,0,0,0,.32-0.221c0.69-1.484,1.43-3,2.03-4.546,0.13-.349.19-0.569,0.41-0.569,0.07,0,2.76.947,2.76,1.421,0,0.253-.19.283-0.38,0.316a0.666,0.666,0,0,0-.57.41c-0.76,1.515-1.52,3-2.41,4.485a0.682,0.682,0,0,0-.1.377,0.728,0.728,0,0,0,.23.474c0.09,0.1.19,0.19,0.31,0.316a0.642,0.642,0,0,0,.51.221,0.591,0.591,0,0,0,.51-0.378c0.6-1.074,1.08-2.18,1.62-3.253a0.583,0.583,0,0,1,.41-0.5,9.006,9.006,0,0,1,1.62.758c0.25,0.157.51,0.253,0.61,0.316a1.147,1.147,0,0,1,.69.631,0.371,0.371,0,0,1-.41.316,0.547,0.547,0,0,0-.57.315c-1.24,2.306-2.54,4.517-3.94,6.695a0.616,0.616,0,0,0-.06.253,0.392,0.392,0,0,0,.47.378l1.02-.094a0.618,0.618,0,0,0,.6-0.6,1.264,1.264,0,0,0-.09-0.316,6.631,6.631,0,0,1-.45-1.2c0-.473,1.27-0.851,1.69-0.851,0.6,0,.82.914,1.58,3a19.983,19.983,0,0,1,.83,2.716c0,0.568-1.21.884-1.68,0.884a0.624,0.624,0,0,1-.64-0.537,0.775,0.775,0,0,0-.73-0.569c-0.09,0-.16.033-0.32,0.033a0.849,0.849,0,0,0-.82,1.01v6.22c0,1.357.06,2.715,0.06,4.074,0,1.011-.25,1.042-1.43,1.042-1.11,0-1.43-.031-1.43-0.948,0-1.39.07-2.778,0.07-4.168V417.8a0.651,0.651,0,0,0-.7-0.757h-0.13c-0.57.063-1.14,0.126-1.68,0.157a0.488,0.488,0,0,0-.35.316,0.512,0.512,0,0,1-.45.315c-0.34,0-.47-0.537-0.7-1.452-0.06-.347-0.15-0.757-0.28-1.231a1.647,1.647,0,0,1-.1-0.412c0-.347.29-0.378,0.86-0.378h0.42a1.331,1.331,0,0,0,1.26-.726c0.32-.5.64-1.011,0.93-1.515a1.237,1.237,0,0,0,.15-0.569,1.119,1.119,0,0,0-.34-0.727,36.983,36.983,0,0,0-3.02-2.746,0.622,0.622,0,0,1-.32-0.474c0-.442.89-2.179,1.4-2.179a0.726,0.726,0,0,1,.48.253A0.392,0.392,0,0,0,1326.04,405.772Zm1.11,13.105c0.48,0.094.76,0.157,0.76,0.473a0.523,0.523,0,0,1-.38.348,0.681,0.681,0,0,0-.25.567c-0.13,1.137-.83,5.148-1.05,6.253a0.779,0.779,0,0,1-.64.726c-0.25,0-1.68-.379-1.68-0.916,0-.158.13-0.662,0.16-0.852a53.153,53.153,0,0,0,1.02-6.315c0-.221-0.04-0.568.34-0.568A9.47,9.47,0,0,1,1327.15,418.877Zm7.46,5.62c-0.06,0-.12.032-0.19,0.032a2.259,2.259,0,0,1-.76.19c-0.44,0-.51-0.349-0.7-1.17-0.06-.189-0.09-0.377-0.16-0.6-0.28-1.1-.54-2.242-0.92-3.316a1.812,1.812,0,0,1-.16-0.537c0-.473,1.12-0.694,1.5-0.694a0.654,0.654,0,0,1,.66.411,36.6,36.6,0,0,1,1.21,4.041,0.193,0.193,0,0,0,.38,0c0.16-.916.25-1.831,0.35-2.778,0.03-.443,0-0.663.41-0.663,0.23,0,1.72.284,2,.347a0.978,0.978,0,0,1,.8.41,0.476,0.476,0,0,1-.35.38,0.575,0.575,0,0,0-.38.631,28.751,28.751,0,0,1-1.15,5.558,0.569,0.569,0,0,1-.57.473c-0.38,0-2.03-.253-2.03-0.822,0-.157.35-1.168,0.41-1.421A0.352,0.352,0,0,0,1334.61,424.5Zm7.08-20.967a0.721,0.721,0,0,0-.63.568c-0.57,1.106-3.43,6.189-4.57,6.189-0.51,0-2-1.1-2-1.61a1.1,1.1,0,0,1,.44-0.694,26.564,26.564,0,0,0,3.88-5.937,0.634,0.634,0,0,1,.5-0.5,5.752,5.752,0,0,1,1.53.6c0.73,0.349,1.3.6,1.3,0.917A0.533,0.533,0,0,1,1341.69,403.53Zm5.82,11.715h-0.26c-3.27.38-6.51,0.758-9.78,0.979a0.416,0.416,0,0,0-.38.285,0.551,0.551,0,0,1-.48.347c-0.35,0-.44-0.41-0.6-0.947-0.09-.316-0.63-1.927-0.63-2.148,0-.347.44-0.379,0.98-0.379a11.607,11.607,0,0,0,1.49-.064,1.124,1.124,0,0,0,1.14-.788c0.93-2.021,1.56-3.79,2.29-5.874a0.585,0.585,0,0,1,.45-0.537,24.335,24.335,0,0,1,2.44.79,0.966,0.966,0,0,1,.7.536c0,0.317-.25.317-0.48,0.38a0.411,0.411,0,0,0-.41.284c-0.64,1.421-1.21,2.811-1.81,4.232a0.76,0.76,0,0,0-.06.252,0.524,0.524,0,0,0,.54.474c0.38,0,1.9-.126,2.92-0.253a0.425,0.425,0,0,0,.44-0.41,1.385,1.385,0,0,0-.51-0.853,2.644,2.644,0,0,1-.63-1.011c0-.473,1.46-1.327,1.91-1.327a0.788,0.788,0,0,1,.57.349c0.7,0.789,1.43,1.8,2.06,2.652a20.842,20.842,0,0,1,2.06,3.379c0,0.536-1.52,1.42-1.99,1.42a0.927,0.927,0,0,1-.74-0.694c-0.09-.157-0.15-0.284-0.25-0.474A1.087,1.087,0,0,0,1347.51,415.245Zm-2.83,10.326c1.33,0,1.4-.348,1.65-2.179a0.632,0.632,0,0,1,.7-0.694c0.6,0,2.06.188,2.06,1.01a9.333,9.333,0,0,1-1.14,3.883c-0.7.98-1.78,0.947-2.86,0.947h-2.44c-1.46,0-3.15-.22-3.15-2.084,0-.473.07-0.947,0.07-1.388v-3.979c0-.695-0.04-1.357-0.1-2.02,0-.1-0.03-0.19-0.03-0.286,0-.315.22-0.347,0.48-0.347,0.44,0,2.09.1,2.57,0.126,0.19,0.033.54,0.064,0.54,0.317a0.418,0.418,0,0,1-.26.347c-0.44.316-.44,0.757-0.44,1.863v3.536c0,0.948.38,0.948,1.18,0.948h1.17Zm0.6-3.979c-0.38,0-.51-0.284-0.76-0.884a22.765,22.765,0,0,0-1.46-2.778,1.2,1.2,0,0,1-.22-0.537c0-.506,1.24-1.043,1.68-1.043a1.25,1.25,0,0,1,.92.916,16.436,16.436,0,0,1,1.59,3.189C1347.03,421.182,1345.57,421.592,1345.28,421.592Zm5.24-11.336c-0.6,0-2.82-2.874-3.23-3.474-0.45-.663-2.23-3.378-2.23-4.041,0-.537,1.52-1.262,2.13-1.262,0.51,0,.6.347,0.89,0.947a15.42,15.42,0,0,0,3.87,5.146,1.675,1.675,0,0,1,.64.821A3.039,3.039,0,0,1,1350.52,410.256Zm0.41,15.631a0.711,0.711,0,0,1-.63-0.695,31.515,31.515,0,0,0-2.13-4.894,1.448,1.448,0,0,1-.22-0.6c0-.537,1.27-1.138,1.72-1.138a0.729,0.729,0,0,1,.63.443c0.41,0.727.86,1.611,1.21,2.368a27.217,27.217,0,0,1,1.3,3.379C1352.81,425.35,1351.44,425.887,1350.93,425.887Zm14.44-13.8a0.337,0.337,0,0,0-.57-0.284c-0.76.63-4.09,3.221-4.86,3.221a3.323,3.323,0,0,1-2-2.211,1.329,1.329,0,0,1,.86-0.79,32.367,32.367,0,0,0,9.18-7.61,24.353,24.353,0,0,0,2.57-3.631,0.564,0.564,0,0,1,.51-0.441c0.41,0,2.54.536,3.08,0.663a0.652,0.652,0,0,1,.63.474,0.5,0.5,0,0,1-.38.441,0.287,0.287,0,0,0-.16.22,0.366,0.366,0,0,0,.07.159c2.82,4.136,6.92,7.073,11.27,9.535,0.63,0.348.89,0.474,0.89,0.79,0,0.57-.95,2.5-1.56,2.5-0.7,0-4.76-2.905-5.52-3.505a0.591,0.591,0,0,0-.38-0.157c-0.29,0-.32.283-0.32,0.5v0.6c0,0.727-.03,1.264-0.64,1.264-1.01,0-2.06-.064-3.08-0.064h-5.87c-1.05,0-2.06.064-3.08,0.064-0.67,0-.64-0.695-0.64-1.391v-0.346Zm1.72,14.936a0.606,0.606,0,0,0-.73.694v0.316c0,0.852-.48.821-1.72,0.821-1.2,0-1.65.031-1.65-.79,0-.127.06-1.925,0.06-2.305v-5.652c0-.631-0.06-1.263-0.06-1.864,0-1.484.89-1.768,2.22-1.768,0.77,0,1.56.064,2.36,0.064h8.92c0.79,0,1.59-.064,2.38-0.064,1.3,0,2.19.284,2.19,1.737,0,0.632-.03,1.264-0.03,1.895v5.715c0,0.758.06,1.768,0.06,2.274,0,0.821-.44.821-1.68,0.821-1.27,0-1.72,0-1.72-.79v-0.41a0.6,0.6,0,0,0-.73-0.694h-9.87Zm9.78-2.811a0.911,0.911,0,0,0,.89-0.884v-2.968a0.889,0.889,0,0,0-.89-0.884h-9.69a0.889,0.889,0,0,0-.89.884v2.968a0.911,0.911,0,0,0,.89.884h9.69Zm-4.83-19.578a0.708,0.708,0,0,0-.51.285,54.419,54.419,0,0,1-4.92,5.273,0.35,0.35,0,0,0-.12.284,0.331,0.331,0,0,0,.37.316c0.74,0.031,1.47.063,2.23,0.063h5.87c2.07,0,2.58.031,2.58-.442a1.935,1.935,0,0,0-.8-0.978c-0.13-.1-0.22-0.19-0.35-0.284a32.822,32.822,0,0,1-3.84-4.232A0.686,0.686,0,0,0,1372.04,404.635Zm38.92,5.621a0.744,0.744,0,0,0,.89-0.853c0-1.8-.03-3.6-0.03-5.4V402.93c0-.663-0.07-1.451-0.07-1.7a0.5,0.5,0,0,1,.61-0.537c0.32,0,1.9.157,2.32,0.189,0.47,0.064.85,0.064,0.85,0.442a0.644,0.644,0,0,1-.47.506c-0.32.157-.32,0.347-0.32,0.947v6.663a0.745,0.745,0,0,0,.89.82h0.09c1.08,0,2.2-.063,3.31-0.063,0.73,0,.7.411,0.7,1.327,0,0.947.03,1.357-.7,1.357-1.11,0-2.23-.1-3.34-0.063a0.732,0.732,0,0,0-.85.79c0.06,1.105.12,2.209,0.22,3.315a0.255,0.255,0,0,0,.5.094,22.8,22.8,0,0,0,1.34-2.841,0.5,0.5,0,0,1,.44-0.443,4.531,4.531,0,0,1,1.75.949c0.7,0.473.89,0.567,0.89,0.82a0.594,0.594,0,0,1-.54.411,1.088,1.088,0,0,0-.73.79,31.026,31.026,0,0,1-2.51,4.325,1.465,1.465,0,0,0-.35.947c0,0.537.79,3.285,1.24,3.285,0.6,0,.86-2.78.92-3.317a0.483,0.483,0,0,1,.6-0.5c0.48,0,1.72.316,1.72,1.167a20.652,20.652,0,0,1-.79,3.758c-0.45,1.327-.93,2.621-2.61,2.621-1.94,0-2.79-2.116-3.3-3.662a0.559,0.559,0,0,0-.45-0.379,0.608,0.608,0,0,0-.41.157c-0.57.569-3.46,3.221-4.1,3.221a2.68,2.68,0,0,1-1.68-1.768,1.441,1.441,0,0,1,.8-0.884,26.886,26.886,0,0,0,4.38-3.885,1.47,1.47,0,0,0,.41-1.01,1.757,1.757,0,0,0-.03-0.379c-0.29-2.273-.54-4.42-0.64-6.757a0.739,0.739,0,0,0-.88-0.821h-6.87c-0.88,0-1.8-.032-2.7.031a0.762,0.762,0,0,0-.85.884v9.853c0,1.451.06,2.872,0.06,4.326,0,1.01-.28,1.01-1.49,1.01-1.05,0-1.46,0-1.46-.884,0-1.484.06-2.968,0.06-4.452v-0.316a0.605,0.605,0,0,0-.6-0.727c-0.1,0-.19.032-0.25,0.032-1.24.315-2.45,0.537-3.66,0.789a0.635,0.635,0,0,0-.44.412,0.511,0.511,0,0,1-.48.41c-0.31,0-.38-0.285-0.57-0.947a18.939,18.939,0,0,1-.6-2.307c0-.377.5-0.377,1.17-0.441a0.7,0.7,0,0,0,.7-0.82V405.11a0.5,0.5,0,0,0-.57-0.569c-0.73-.031-0.76-0.221-0.76-1.484,0-1.105-.04-1.484.73-1.484,0.57,0,1.49.063,2.28,0.063h4.32c0.83,0,1.72-.063,2.29-0.063,0.79,0,.7.473,0.73,1.2,0.03,0.79.51,0.852,1.24,0.852h0.6a0.742,0.742,0,0,0,.83-0.821c-0.04-.474-0.07-0.947-0.13-1.421,0-.094-0.03-0.221-0.03-0.315,0-.349.28-0.379,0.57-0.379,0.6,0,1.75.094,2.38,0.157,0.29,0.032.86,0.032,0.86,0.38a0.589,0.589,0,0,1-.38.41,1.174,1.174,0,0,0-.35,1.168,0.729,0.729,0,0,0,.85.821c0.51,0,1.47-.031,1.88-0.031,0.57,0,.57.284,0.57,1.231s0,1.263-.57,1.263c-0.48,0-.98-0.031-1.46-0.063a0.167,0.167,0,0,0-.16.157,0.135,0.135,0,0,0,.1.127c0.15,0.063.28,0.126,0.44,0.189a1.916,1.916,0,0,1,1.21.758c0,0.285-.29.285-0.51,0.316a0.486,0.486,0,0,0-.35.253c-0.29.537-.48,1.137-0.76,1.674a0.91,0.91,0,0,0-.03.284,0.476,0.476,0,0,0,.57.473h1.52Zm-15.4-3.284a0.839,0.839,0,0,0,.89.853h0.44a0.839,0.839,0,0,0,.89-0.853v-1.61a0.9,0.9,0,0,0-.89-0.884h-0.44a0.9,0.9,0,0,0-.89.884v1.61Zm0,6a0.839,0.839,0,0,0,.89.853h0.44a0.839,0.839,0,0,0,.89-0.853v-1.7a0.839,0.839,0,0,0-.89-0.853h-0.44a0.839,0.839,0,0,0-.89.853v1.7Zm0,6.252a0.644,0.644,0,0,0,.67.757c0.06,0,.12-0.03.16-0.03l0.57-.1a0.836,0.836,0,0,0,.82-1.01V417.2a0.742,0.742,0,0,0-.89-0.853h-0.44a0.742,0.742,0,0,0-.89.853v2.021Zm5.05-9.884a0.761,0.761,0,0,0,.85.884c0.83,0.063,1.88.032,2.7,0.032h1.24a1.1,1.1,0,0,0,1.21-.726,21.867,21.867,0,0,0,.92-2.811c0-.063.03-0.125,0.03-0.188a0.515,0.515,0,0,0-.57-0.506h-2.54c-0.83,0-1.65.063-2.35,0.063-0.54,0-.54-0.284-0.57-1.01a0.447,0.447,0,0,0-.35-0.5,0.689,0.689,0,0,0-.57.821v3.946Zm9.37,12.252c0,0.443.03,0.916,0.03,1.358a1.071,1.071,0,0,1-1.3,1.169c-0.48,0-.99-0.033-1.5-0.033h-1.46a0.76,0.76,0,0,0-.92.79c-0.03.727-.03,0.727-1.46,0.727-0.86,0-1.27.031-1.27-.6,0-.57.03-1.137,0.03-1.7v-6.221c0-.474-0.03-0.948-0.03-1.421a1.067,1.067,0,0,1,1.27-1.2c0.57,0,1.15.063,1.72,0.063h1.93c0.54,0,1.08-.063,1.65-0.063a1.085,1.085,0,0,1,1.34,1.169c0,0.5-.03.978-0.03,1.452v4.515ZM1403.56,410c-0.38,0-.57-0.567-0.89-1.515a12.119,12.119,0,0,1-.51-1.484c0-.473,1.24-0.726,1.62-0.726s0.54,0.19.99,1.452a9.414,9.414,0,0,1,.41,1.422C1405.18,409.656,1404.07,410,1403.56,410Zm2,6.853a0.724,0.724,0,0,0-.76.726,0.742,0.742,0,0,0,.76.725h1.18a0.742,0.742,0,0,0,.76-0.725,0.724,0.724,0,0,0-.76-0.726h-1.18Zm0,3.315a0.732,0.732,0,0,0-.76.757v0.064a0.733,0.733,0,0,0,.76.759h1.18a0.733,0.733,0,0,0,.76-0.759v-0.064a0.732,0.732,0,0,0-.76-0.757h-1.18Zm13.34-12.093a5.074,5.074,0,0,1-1.11.315,0.753,0.753,0,0,1-.61-0.663,35.779,35.779,0,0,0-1.8-3.947,0.824,0.824,0,0,1-.13-0.41c0-.569,1.55-0.947,1.84-0.947a0.663,0.663,0,0,1,.54.315,15.744,15.744,0,0,1,1.11,2.116,18.018,18.018,0,0,1,.92,2.462A0.845,0.845,0,0,1,1418.9,408.078Z" transform="translate(-1051.69 -359.875)"/>
</svg>
