<svg id="review-ttl-lead01.svg" xmlns="http://www.w3.org/2000/svg" width="308.969" height="52.35" viewBox="0 0 308.969 52.35">
  <defs>
    <style>
      .cls-1 {
        fill: #52a5dc;
        fill-rule: evenodd;
      }
    </style>
  </defs>
  <path id="シェイプ_11" data-name="シェイプ 11" class="cls-1" d="M148.911,9083.61c0,3.3-1.717,5.12-5.674,5.12a4.607,4.607,0,0,1-.643-0.03,0.534,0.534,0,0,1-.6-0.68v-1.39c0-.51.073-0.66,0.406-0.66a1.1,1.1,0,0,1,.286.03,5.224,5.224,0,0,0,.857.05c1.717,0,2.6-.73,2.6-2.59v-7.11c0-1.4-.072-4.06-0.072-4.23,0-.5.142-0.6,0.692-0.6h1.525c0.548,0,.692.1,0.692,0.6,0,0.17-.072,2.83-0.072,4.23v7.26Zm9.779,0.96a0.8,0.8,0,0,0-1,.58c-0.333.8-.643,1.62-1.048,2.78a0.775,0.775,0,0,1-.955.67h-1.668c-0.382,0-.55-0.04-0.55-0.24a1.062,1.062,0,0,1,.145-0.41c0.738-1.69,1.262-2.89,1.763-4.08l3.41-8.18c0.429-1.03.93-2.19,1.431-3.49a0.778,0.778,0,0,1,.952-0.68h1.025a0.782,0.782,0,0,1,.956.68c0.5,1.3.976,2.46,1.4,3.47l3.434,8.15c0.524,1.26,1.048,2.47,1.789,4.13a1.06,1.06,0,0,1,.142.41c0,0.2-.168.24-0.548,0.24h-1.835a0.774,0.774,0,0,1-.955-0.67c-0.405-1.16-.715-1.98-1.049-2.78a0.786,0.786,0,0,0-1-.58h-5.84Zm0.429-2.99a1.1,1.1,0,0,0-.1.41c0,0.22.168,0.27,0.547,0.27h4.077c0.382,0,.55-0.05.55-0.27a1.118,1.118,0,0,0-.1-0.41l-2.217-5.52a0.532,0.532,0,0,0-.261-0.39,0.512,0.512,0,0,0-.263.39Zm19.655,7.02c-1.12,0-3,.05-3.17.05a0.555,0.555,0,0,1-.669-0.67c0-.17.049-2.78,0.049-4.13v-7.5c0-1.4-.072-4.06-0.072-4.23,0-.5.142-0.6,0.692-0.6h1.526c0.547,0,.692.1,0.692,0.6,0,0.17-.073,2.83-0.073,4.23v9c0,0.6.119,0.72,0.715,0.72h2.169c1.146,0,3.292-.07,3.457-0.07,0.5,0,.6.14,0.6,0.7v1.25c0,0.56-.095.7-0.6,0.7-0.165,0-2.311-.05-3.457-0.05h-1.859Zm23.656-16.26a6.108,6.108,0,0,0,1.025-.05c0.144,0,.382-0.05.526-0.05a3.006,3.006,0,0,1,1.526,1.64,4.535,4.535,0,0,1-.527.95c-0.141.21-.284,0.45-0.379,0.62a35.037,35.037,0,0,1-3.1,4.59,0.647,0.647,0,0,0-.191.46,0.655,0.655,0,0,0,.359.58,38.521,38.521,0,0,1,4.028,3.11c0.573,0.5,1.169,1.06,1.716,1.64a0.463,0.463,0,0,1,.168.34,3.434,3.434,0,0,1-1.812,1.93,0.808,0.808,0,0,1-.6-0.36,25.237,25.237,0,0,0-5.266-4.78,0.818,0.818,0,0,0-.55-0.22,1.134,1.134,0,0,0-.715.41,26.338,26.338,0,0,1-5.961,4.22,3.686,3.686,0,0,1-1.048.46c-0.5,0-1.6-1.62-1.6-2.05a0.58,0.58,0,0,1,.5-0.48,23.732,23.732,0,0,0,10.634-9.15,2.345,2.345,0,0,0,.405-0.82c0-.36-0.332-0.41-0.691-0.41h-4.934c-1.025,0-2.052.05-3.077,0.05-0.643,0-.6-0.36-0.6-1.47,0-.85-0.023-1.21.574-1.21,1.024,0,2.049.05,3.1,0.05h6.483Zm17.75,2.08a0.743,0.743,0,0,0,.715-0.63c0.049-.48.168-3.07,0.191-3.65,0-.24-0.023-0.55.31-0.55,0.144,0,2.241.41,2.481,0.48a0.374,0.374,0,0,1,.356.27,0.8,0.8,0,0,1-.261.41,1.116,1.116,0,0,0-.335,1.04c-0.047.33-.191,1.78-0.191,2.02a0.539,0.539,0,0,0,.573.56l2.288-.03c0.691,0,2.6-.09,2.623-0.09a1.9,1.9,0,0,1,1.36,1.4c0,0.24-.335,2.92-0.382,3.37-0.238,1.86-.6,5.22-1.335,6.86a3.472,3.472,0,0,1-3.1,2.1,9.364,9.364,0,0,1-1.382.09,0.75,0.75,0,0,1-.836-0.48,5.211,5.211,0,0,1-.62-1.69,0.392,0.392,0,0,1,.431-0.43c0.238,0,.785.09,1.358,0.09,1.407,0,1.908-.65,2.264-2.36a43.466,43.466,0,0,0,.716-5.77c0-.65-0.333-0.6-1.407-0.6l-2.407.02a0.825,0.825,0,0,0-.764.87,20.172,20.172,0,0,1-4.673,9.39c-0.333.36-1.763,1.88-2.192,1.88a3.159,3.159,0,0,1-1.812-1.57,0.664,0.664,0,0,1,.333-0.43,16.692,16.692,0,0,0,5.174-7.29,12.885,12.885,0,0,0,.62-2.32,0.486,0.486,0,0,0-.5-0.5l-3.362.02c-0.642,0-2.073.1-2.383,0.1-0.524,0-.6-0.39-0.6-1.33,0-1.04.047-1.25,0.573-1.25,0.785,0,1.6.02,2.383,0.02ZM248.136,9086c0,1.06.049,2.12,0.049,3.16,0,0.65-.31.72-1.193,0.72-1.312,0-1.549-.07-1.549-0.7,0-1.04.047-2.07,0.047-3.11v-6.56c0-.15.071-0.68-0.38-0.68a2.589,2.589,0,0,0-.932.56c-0.715.53-4.5,3.08-5.125,3.08a4.055,4.055,0,0,1-1.859-1.92,0.5,0.5,0,0,1,.382-0.42,34.22,34.22,0,0,0,9.369-6.39,20.319,20.319,0,0,0,3.243-4.08,0.625,0.625,0,0,1,.38-0.36,8.981,8.981,0,0,1,1.621.99,2.062,2.062,0,0,1,.929.87,0.284,0.284,0,0,1-.237.24,1.275,1.275,0,0,0-.93.58,46.99,46.99,0,0,1-3.266,3.62,1.289,1.289,0,0,0-.549,1.09V9086Zm41.408-12.48a4.256,4.256,0,0,0,.952-0.07,1.228,1.228,0,0,1,.264-0.05,3.452,3.452,0,0,1,1.74,1.86,2.218,2.218,0,0,1-.287.58c-0.142.26-.382,0.63-0.619,1.11-2.36,4.61-4.65,8.11-9.06,10.98a15.476,15.476,0,0,1-3.242,1.71,3.4,3.4,0,0,1-2.027-1.62,0.646,0.646,0,0,1,.478-0.45,21.15,21.15,0,0,0,9.224-7.72c0.382-.58,1.836-2.93,1.836-3.53,0-.31-0.4-0.34-0.739-0.34h-4.528a1.042,1.042,0,0,0-1,.66c-0.428.65-3.2,3.98-3.815,3.98-0.31,0-2.05-.92-2.05-1.45a0.446,0.446,0,0,1,.214-0.34,22.246,22.246,0,0,0,6.366-8.61,0.761,0.761,0,0,1,.383-0.58,12.048,12.048,0,0,1,1.691.75,2.459,2.459,0,0,0,.31.14,1.074,1.074,0,0,1,.715.48,0.6,0.6,0,0,1-.357.32,1.7,1.7,0,0,0-.619.79c-0.1.17-.191,0.34-0.336,0.58a0.982,0.982,0,0,0-.165.44,0.393,0.393,0,0,0,.405.38h4.268Zm4.815-.48a1.9,1.9,0,0,1-1.216,1.01,0.465,0.465,0,0,1-.31-0.26c-0.478-.73-1-1.45-1.549-2.13a0.543,0.543,0,0,1-.168-0.31,2.072,2.072,0,0,1,1.239-.89A9.578,9.578,0,0,1,294.359,9073.04Zm2.455-1.5a1.841,1.841,0,0,1-1.216.99,0.366,0.366,0,0,1-.31-0.24,23.347,23.347,0,0,0-1.572-2.12,0.53,0.53,0,0,1-.168-0.29,2.038,2.038,0,0,1,1.239-.92A9.5,9.5,0,0,1,296.814,9071.54Zm16.63,4.39c0.547,0,1.644,0,2.145-.04a2.092,2.092,0,0,1,.429-0.05,2.861,2.861,0,0,1,1.693,1.59,6.173,6.173,0,0,1-.31.99,17.071,17.071,0,0,1-1.383,3.26,20.2,20.2,0,0,1-4.934,5.69c-0.669.56-3.243,2.42-3.983,2.42a3.02,3.02,0,0,1-1.645-1.79,1.387,1.387,0,0,1,.836-0.63,17.177,17.177,0,0,0,7.317-6.85,6.059,6.059,0,0,0,.645-1.57c0-.58-0.645-0.53-1.025-0.53h-8.868c-1,0-2,.05-3.028.05-0.669,0-.669-0.24-0.669-1.18,0-1.23.024-1.4,0.692-1.4,1,0,2.027.04,3.052,0.04h9.036Zm-1.6-5.21c0.978,0,2.194-.07,2.814-0.07,0.6,0,.642.27,0.642,1.47,0,0.82,0,1.14-.642,1.14-0.955,0-1.885-.05-2.814-0.05h-5.84c-0.93,0-1.861.05-2.791,0.05-0.666,0-.666-0.29-0.666-1.19,0-1.13.047-1.42,0.643-1.42,0.668,0,1.884.07,2.814,0.07h5.84Zm30.387,6.28a4.777,4.777,0,0,1-1.265,1.66,41.507,41.507,0,0,1-12.944,9.1,1.386,1.386,0,0,0-1,.82,0.237,0.237,0,0,1-.238.15,3.28,3.28,0,0,1-.929-1.26,6.718,6.718,0,0,1-.715-1.45,0.851,0.851,0,0,1,.738-0.41c5.269-1.57,11.228-6.13,14.615-10.49a0.561,0.561,0,0,1,.405-0.27C341.373,9074.85,342.233,9076.64,342.233,9077Zm-12.3-3.99a4.3,4.3,0,0,1,1.454,1.38,2.927,2.927,0,0,1-1.573,1.86,2.542,2.542,0,0,1-.955-0.65,28.675,28.675,0,0,0-3.17-2.25,0.606,0.606,0,0,1-.382-0.45c0-.37.955-1.91,1.5-1.91A19.375,19.375,0,0,1,329.931,9073.01Zm25.808,3.38c0.475,0,2.861,1.91,3.336,2.32,0.335,0.29,1.67,1.33,1.67,1.74a2.932,2.932,0,0,1-1.6,1.66,0.83,0.83,0,0,1-.524-0.31,34.689,34.689,0,0,0-3.457-2.82,0.411,0.411,0,0,0-.238-0.1,0.321,0.321,0,0,0-.286.39v6.58c0,0.97.047,1.91,0.047,2.88,0,1.11-.024,1.25-1.477,1.25-0.955,0-1.361-.02-1.361-0.82,0-1.09.073-2.17,0.073-3.26v-13.75c0-.63-0.047-1.28-0.073-1.88,0-.13-0.023-0.34-0.023-0.44a0.286,0.286,0,0,1,.31-0.36c0.144,0,.643.07,0.81,0.1,1.074,0.14,2.05.24,2.05,0.57a0.71,0.71,0,0,1-.118.32,1.955,1.955,0,0,0-.261,1.28c0,0.36.023,0.82,0.023,1.42v3.62a0.2,0.2,0,0,0,.191.24,0.241,0.241,0,0,0,.214-0.1A1.245,1.245,0,0,1,355.739,9076.39Zm5.672-2.38a1.977,1.977,0,0,1-1.167,1.06,0.633,0.633,0,0,1-.358-0.27c-0.5-.67-1.049-1.3-1.622-1.93a0.546,0.546,0,0,1-.214-0.34,2.024,2.024,0,0,1,1.169-.96A8.943,8.943,0,0,1,361.411,9074.01Zm2.481-1.69a1.95,1.95,0,0,1-1.169,1.08,0.558,0.558,0,0,1-.333-0.29c-0.5-.65-1.1-1.32-1.645-1.9a0.679,0.679,0,0,1-.214-0.34,2.075,2.075,0,0,1,1.167-.99A9.268,9.268,0,0,1,363.892,9072.32Zm16.893,0.02a6.1,6.1,0,0,0,1.025-.05c0.145,0,.382-0.05.527-0.05a3.008,3.008,0,0,1,1.525,1.64,4.563,4.563,0,0,1-.526.95c-0.142.21-.284,0.45-0.38,0.62a35.129,35.129,0,0,1-3.1,4.59,0.647,0.647,0,0,0-.191.46,0.654,0.654,0,0,0,.358.58,38.416,38.416,0,0,1,4.028,3.11c0.573,0.5,1.17,1.06,1.717,1.64a0.467,0.467,0,0,1,.168.34,3.436,3.436,0,0,1-1.813,1.93,0.806,0.806,0,0,1-.6-0.36,25.267,25.267,0,0,0-5.267-4.78,0.816,0.816,0,0,0-.55-0.22,1.137,1.137,0,0,0-.715.41,26.294,26.294,0,0,1-5.961,4.22,3.686,3.686,0,0,1-1.048.46c-0.5,0-1.6-1.62-1.6-2.05a0.579,0.579,0,0,1,.5-0.48,23.737,23.737,0,0,0,10.634-9.15,2.363,2.363,0,0,0,.4-0.82c0-.36-0.333-0.41-0.692-0.41H374.3c-1.024,0-2.052.05-3.077,0.05-0.643,0-.6-0.36-0.6-1.47,0-.85-0.023-1.21.573-1.21,1.025,0,2.05.05,3.1,0.05h6.483Zm23.709,0.75a7.424,7.424,0,0,0,1.454-.12,0.687,0.687,0,0,1,.24-0.05,2.626,2.626,0,0,1,1.239,1.64,0.688,0.688,0,0,1-.144.36,5.58,5.58,0,0,0-.594,1.18,43.876,43.876,0,0,1-2.267,4.49,0.86,0.86,0,0,0-.165.49,0.788,0.788,0,0,0,.428.62,4.2,4.2,0,0,1,1.335,1.26,3.218,3.218,0,0,1-1.526,1.83,0.563,0.563,0,0,1-.359-0.19c-0.333-.29-0.643-0.53-0.975-0.82a0.829,0.829,0,0,0-.525-0.24,1.259,1.259,0,0,0-.81.58,18.894,18.894,0,0,1-5.2,4.07,12.827,12.827,0,0,1-2.887,1.23c-0.619,0-1.716-1.54-1.716-1.88,0-.29.405-0.36,1.025-0.55a16.7,16.7,0,0,0,6.818-4.35,0.938,0.938,0,0,0,.359-0.6,0.594,0.594,0,0,0-.287-0.51c-0.547-.36-1.787-1.01-2.383-1.3a1.018,1.018,0,0,1-.715-0.53c0-.34.93-1.81,1.454-1.81a17.593,17.593,0,0,1,3.075,1.57,1.031,1.031,0,0,0,.454.14c0.451,0,.666-0.46,1.311-1.73a2.094,2.094,0,0,1,.142-0.34,7.536,7.536,0,0,0,.62-1.6c0-.5-0.62-0.48-0.979-0.48h-4.551a1.087,1.087,0,0,0-1.051.63,35.763,35.763,0,0,1-3.1,3.72,1.276,1.276,0,0,1-.764.45c-0.429,0-1.978-1.01-1.978-1.42a0.706,0.706,0,0,1,.357-0.46,22.214,22.214,0,0,0,6.224-8.66,0.725,0.725,0,0,1,.429-0.6,5.321,5.321,0,0,1,1.334.58,4.371,4.371,0,0,1,1.407.82,0.3,0.3,0,0,1-.24.26,1.276,1.276,0,0,0-.715.8c-0.093.17-.214,0.39-0.379,0.65a1.27,1.27,0,0,0-.192.51,0.406,0.406,0,0,0,.429.36h4.363Zm12.027,3.71c0.263,0.32.811,1.19,1.051,1.57a8.764,8.764,0,0,1,1.025,1.91c0,0.51-1.431,1.11-1.717,1.11a0.568,0.568,0,0,1-.454-0.41,23.257,23.257,0,0,0-1.717-2.92,0.924,0.924,0,0,1-.189-0.44c0-.43,1.286-1.03,1.6-1.03A0.555,0.555,0,0,1,416.521,9076.8Zm11.8-.38a0.529,0.529,0,0,1,.429.43,0.556,0.556,0,0,1-.285.37,0.745,0.745,0,0,0-.309.5,18.145,18.145,0,0,1-3.269,6.76,13.63,13.63,0,0,1-6.482,4.2,4.057,4.057,0,0,1-.741.19,2.8,2.8,0,0,1-1.335-1.67,0.42,0.42,0,0,1,.382-0.43c3.075-.84,5.675-2.27,7.391-5.09a14.167,14.167,0,0,0,1.955-5.48c0.023-.22.046-0.48,0.31-0.48A16.245,16.245,0,0,1,428.322,9076.42Zm-5.959.53a9.431,9.431,0,0,1,1.072,1.98c0,0.48-1.381,1.11-1.717,1.11a0.661,0.661,0,0,1-.475-0.46,26.536,26.536,0,0,0-1.67-2.85,0.814,0.814,0,0,1-.215-0.48c0-.41,1.288-1.01,1.6-1.01a2.665,2.665,0,0,1,1.193,1.35Zm24.445-4.71c0.5,0,1.671,0,2.146-.04,0.095,0,.359-0.05.431-0.05a2.97,2.97,0,0,1,1.6,1.54c0,0.24-.214.51-0.405,1.55-0.811,4.65-2.5,7.86-6.364,10.61a22.279,22.279,0,0,1-4.577,2.47,2.579,2.579,0,0,1-.788.21c-0.573,0-1.43-1.62-1.43-2a0.422,0.422,0,0,1,.429-0.39,16.606,16.606,0,0,0,5.935-3.18,11.25,11.25,0,0,0,3.911-7.05,4.568,4.568,0,0,0,.047-0.58c0-.46-0.406-0.5-0.834-0.5h-8.463c-1,0-1.98.04-2.979,0.04-0.741,0-.716-0.21-0.716-1.3,0-1.11-.025-1.37.643-1.37,1.025,0,2.051.04,3.075,0.04h8.344Z" transform="translate(-142 -9037.62)"/>
  <path id="シェイプ_12" data-name="シェイプ 12" class="cls-1" d="M146.1,9052.87c0,0.39-.062.49-0.4,0.49-0.11,0-.838-0.04-1.343-0.04H142.48c-0.395,0-.475-0.08-0.475-0.5v-14.65c0-.42.08-0.5,0.475-0.5h1.884c0.5,0,1.233-.03,1.343-0.03,0.333,0,.4.1,0.4,0.48v0.62c0,0.41-.047.49-0.38,0.49-0.205,0-.853-0.02-1.358-0.02h-0.459c-0.382,0-.444.07-0.444,0.45v11.65c0,0.4.062,0.47,0.444,0.47h0.459c0.5,0,1.153-.02,1.358-0.02,0.333,0,.38.09,0.38,0.49v0.62Zm8.3-2.86c0.807,0,2.294-.04,2.4-0.04,0.333,0,.4.1,0.4,0.49v0.78c0,0.39-.064.49-0.4,0.49-0.11,0-1.6-.03-2.4-0.03h-2.056c-0.807,0-2.294.03-2.4,0.03-0.333,0-.395-0.1-0.395-0.49v-0.3a0.806,0.806,0,0,1,.379-0.82,8.9,8.9,0,0,0,.805-0.7c2.848-2.65,4.494-4.33,4.494-5.97a1.784,1.784,0,0,0-2.01-1.84,3.107,3.107,0,0,0-2.309,1.11,0.51,0.51,0,0,1-.331.23,0.648,0.648,0,0,1-.318-0.23l-0.633-.73a0.6,0.6,0,0,1-.19-0.35,0.585,0.585,0,0,1,.223-0.37,5.262,5.262,0,0,1,3.717-1.52c2.4,0,3.75,1.51,3.75,3.43,0,2.37-1.789,4.26-4.209,6.49a0.411,0.411,0,0,0-.174.24c0,0.06.095,0.1,0.285,0.1H154.4Zm16.07-4.5c0,3.99-2.169,6.32-4.811,6.32-2.53,0-4.54-2.03-4.54-5.85,0-3.43,1.661-6.21,4.778-6.21C168.379,9039.77,170.468,9041.69,170.468,9045.51Zm-7.5.52c0,2.62,1.092,4.01,2.689,4.01,1.694,0,2.96-1.73,2.96-4.46,0-2.63-1.156-3.94-2.722-3.94C163.885,9041.64,162.968,9043.67,162.968,9046.03Zm15.811,3.98c0.808,0,2.3-.04,2.405-0.04,0.333,0,.4.1,0.4,0.49v0.78c0,0.39-.064.49-0.4,0.49-0.11,0-1.6-.03-2.405-0.03h-2.055c-0.808,0-2.295.03-2.405,0.03-0.333,0-.395-0.1-0.395-0.49v-0.3a0.806,0.806,0,0,1,.38-0.82,9.183,9.183,0,0,0,.805-0.7c2.848-2.65,4.493-4.33,4.493-5.97a1.783,1.783,0,0,0-2.009-1.84,3.107,3.107,0,0,0-2.31,1.11,0.507,0.507,0,0,1-.331.23,0.647,0.647,0,0,1-.317-0.23l-0.633-.73a0.6,0.6,0,0,1-.19-0.35,0.581,0.581,0,0,1,.223-0.37,5.259,5.259,0,0,1,3.716-1.52c2.405,0,3.751,1.51,3.751,3.43,0,2.37-1.79,4.26-4.209,6.49a0.411,0.411,0,0,0-.174.24c0,0.06.094,0.1,0.284,0.1h1.376Zm16.07-4.5c0,3.99-2.168,6.32-4.811,6.32-2.53,0-4.539-2.03-4.539-5.85,0-3.43,1.661-6.21,4.777-6.21C192.76,9039.77,194.849,9041.69,194.849,9045.51Zm-7.5.52c0,2.62,1.092,4.01,2.689,4.01,1.694,0,2.96-1.73,2.96-4.46,0-2.63-1.155-3.94-2.722-3.94C188.267,9041.64,187.349,9043.67,187.349,9046.03Zm19.833-3.05a0.4,0.4,0,0,0,.441.47h1.266c0.554,0,1.092-.05,1.646-0.05,0.4,0,.4.19,0.4,0.86,0,0.65-.015.82-0.4,0.82-0.554,0-1.092-.04-1.646-0.04h-1.266a0.389,0.389,0,0,0-.441.47V9047a0.393,0.393,0,0,0,.441.48h2.612c0.664,0,1.328-.04,1.992-0.04,0.4,0,.382.2,0.382,0.84s0.015,0.84-.382.84c-0.664,0-1.328-.04-1.992-0.04h-2.612a0.389,0.389,0,0,0-.441.47v0.47c0,0.82.046,1.63,0.046,2.43,0,0.55-.205.55-0.917,0.55-0.695,0-.9,0-0.9-0.53,0-.82.048-1.63,0.048-2.45v-0.47a0.389,0.389,0,0,0-.443-0.47H201.09c-0.664,0-1.328.04-1.992,0.04-0.4,0-.38-0.19-0.38-0.82,0-.67-0.017-0.86.38-0.86,0.5,0,1.028.05,1.551,0.04a0.386,0.386,0,0,0,.394-0.48v-1.59c0-.41-0.015-0.82-0.015-1.24a0.638,0.638,0,0,1,.774-0.75c0.379,0,.759.03,1.141,0.03h2.071a0.4,0.4,0,0,0,.443-0.47v-1.27a0.386,0.386,0,0,0-.443-0.47h-2.089a0.672,0.672,0,0,0-.664.35,16.4,16.4,0,0,1-2.166,2.77,0.99,0.99,0,0,1-.523.37,1.833,1.833,0,0,1-1.061-1.11,1.072,1.072,0,0,1,.4-0.5,11.883,11.883,0,0,0,3.243-5.1,0.237,0.237,0,0,1,.22-0.23,14.5,14.5,0,0,1,1.535.45,0.287,0.287,0,0,1,.27.23,0.294,0.294,0,0,1-.239.22,0.59,0.59,0,0,0-.394.49,0.635,0.635,0,0,0-.031.17,0.254,0.254,0,0,0,.284.25h5.742c0.649,0,1.282-.05,1.93-0.05,0.4,0,.38.22,0.38,0.87s0.015,0.85-.38.85c-0.648,0-1.281-.03-1.93-0.03h-1.915a0.386,0.386,0,0,0-.441.47v1.27Zm-4.129,2.06a0.476,0.476,0,0,0-.444.47V9047a0.465,0.465,0,0,0,.444.48h1.961a0.454,0.454,0,0,0,.443-0.48v-1.49a0.464,0.464,0,0,0-.443-0.47h-1.961Zm18.483-3.67a0.084,0.084,0,0,0-.095.09,0.37,0.37,0,0,0,.207.15,0.686,0.686,0,0,1,.475.38,0.193,0.193,0,0,1-.223.17,0.487,0.487,0,0,0-.411.34c-0.048.08-.094,0.16-0.174,0.28a0.556,0.556,0,0,0-.11.32,0.436,0.436,0,0,0,.141.33,12.257,12.257,0,0,0,1.123,1.06,0.434,0.434,0,0,1,.192.27,1.883,1.883,0,0,1-1.013,1.07,4.388,4.388,0,0,1-1.235-1.1,0.4,0.4,0,0,0-.285-0.16,0.37,0.37,0,0,0-.284.16c-0.428.5-1.218,1.35-1.692,1.79a0.737,0.737,0,0,1-.428.23,1.768,1.768,0,0,1-1.043-.95,0.868,0.868,0,0,1,.346-0.44,18.342,18.342,0,0,0,3.038-3.6,0.286,0.286,0,0,0,.048-0.17,0.218,0.218,0,0,0-.254-0.22h-0.633c-0.615,0-1.248.04-1.866,0.04-0.379,0-.379-0.19-0.379-0.81s-0.016-.83.379-0.83c0.618,0,1.251.03,1.866,0.03h2.958a0.4,0.4,0,0,0,.444-0.47c0-.32-0.031-0.62-0.064-0.96,0-.05-0.016-0.15-0.016-0.2,0-.2.143-0.23,0.3-0.23,0.27,0,1.044.08,1.344,0.12,0.143,0.01.428,0.01,0.428,0.23a0.323,0.323,0,0,1-.19.22,0.593,0.593,0,0,0-.174.55v0.29a0.372,0.372,0,0,0,.428.45h3.02c0.617,0,1.235-.03,1.868-0.03,0.395,0,.379.2,0.379,0.83s0,0.81-.379.81c-0.633,0-1.251-.04-1.868-0.04H227.3a0.084,0.084,0,0,0-.095.09,0.308,0.308,0,0,0,.08.1,0.959,0.959,0,0,1,.6.42,0.23,0.23,0,0,1-.269.18,0.477,0.477,0,0,0-.395.32c-0.046.07-.095,0.13-0.159,0.24a0.589,0.589,0,0,0-.126.33,0.562,0.562,0,0,0,.126.35,15.954,15.954,0,0,0,2.137,2.11,0.715,0.715,0,0,1,.285.39,2.024,2.024,0,0,1-1.046,1.01c-0.379,0-2.025-1.88-2.34-2.25a0.332,0.332,0,0,0-.269-0.15,0.364,0.364,0,0,0-.269.13c-0.49.54-.854,0.91-1.377,1.41a0.256,0.256,0,0,0-.079.13,0.126,0.126,0,0,0,.143.12c0.126,0.02.38,0.04,0.38,0.24a0.317,0.317,0,0,1-.19.23,0.425,0.425,0,0,0-.159.35,0.374,0.374,0,0,0,.428.44h3.417c0.664,0,1.312-.03,1.961-0.03,0.395,0,.379.2,0.379,0.83s0.016,0.84-.379.84c-0.649,0-1.3-.05-1.961-0.05h-3.432a0.382,0.382,0,0,0-.428.47v1.19c0,0.54.031,1.09,0.031,1.63,0,0.52-.159.55-0.823,0.55s-0.9.01-.9-0.54c0-.5.033-1.05,0.033-1.64v-1.19a0.387,0.387,0,0,0-.444-0.47h-3.37c-0.649,0-1.313.05-1.961,0.05-0.4,0-.38-0.22-0.38-0.84s0-.83.38-0.83c0.648,0,1.312.03,1.961,0.03h3.37a0.367,0.367,0,0,0,.428-0.45,3.383,3.383,0,0,0-.033-0.39,0.757,0.757,0,0,0-.205-0.42,0.645,0.645,0,0,1-.22-0.37,0.888,0.888,0,0,1,.346-0.43,17.943,17.943,0,0,0,3.355-3.76,0.282,0.282,0,0,0,.046-0.15,0.216,0.216,0,0,0-.251-0.22h-4.083Zm23.768-2.95a0.2,0.2,0,0,1,.174-0.16,3.825,3.825,0,0,1,1.425.78,0.2,0.2,0,0,1-.207.16,0.388,0.388,0,0,0-.3.15c-0.141.3-.474,0.88-0.633,1.17a0.237,0.237,0,0,0-.046.15,0.2,0.2,0,0,0,.235.22c0.572,0,1.141-.04,1.71-0.04,0.348,0,.348.19,0.348,0.71,0,0.5,0,.69-0.348.69-0.664,0-1.312-.04-1.979-0.04h-0.615c-0.049,0-.049.04-0.015,0.07a0.3,0.3,0,0,1,.046.1,0.248,0.248,0,0,1-.221.18,0.426,0.426,0,0,0-.317.21c-0.062.15-.142,0.31-0.206,0.46a0.65,0.65,0,0,0-.048.16,0.27,0.27,0,0,0,.3.25h0.41c0.649,0,1.282-.04,1.93-0.04,0.364,0,.349.22,0.349,0.67,0,0.41.015,0.66-.333,0.66-0.649,0-1.3-.04-1.946-0.04H242.33a0.266,0.266,0,0,0-.3.32v0.14a0.261,0.261,0,0,0,.3.31h1.882c0.6,0,1.2-.03,1.82-0.03,0.364,0,.364.19,0.364,0.65s0,0.66-.364.66c-0.618,0-1.218-.03-1.82-0.03H242.33a0.256,0.256,0,0,0-.3.3v0.15a0.268,0.268,0,0,0,.3.32h3.543c0.666,0,1.33-.04,2.01-0.04,0.364,0,.364.17,0.364,0.67s0,0.69-.349.69c-0.679,0-1.359-.03-2.025-0.03h-2.025a0.133,0.133,0,0,0-.157.13,0.142,0.142,0,0,0,.062.12,14.86,14.86,0,0,0,3.94,2.01c0.364,0.12.523,0.2,0.523,0.4a1.527,1.527,0,0,1-.887,1.11,10.123,10.123,0,0,1-1.882-.77,15.4,15.4,0,0,1-3.086-2.12,0.189,0.189,0,0,0-.156-0.06,0.208,0.208,0,0,0-.175.23v0.15c0,0.74.047,1.49,0.047,2.25,0,0.57-.174.58-0.9,0.58-0.7,0-.885-0.01-0.885-0.56,0-.76.046-1.51,0.046-2.27v-0.11c-0.015-.14-0.046-0.24-0.189-0.24a0.272,0.272,0,0,0-.142.05,16.662,16.662,0,0,1-3.655,2.36,5.86,5.86,0,0,1-1.312.52,1.579,1.579,0,0,1-.871-1.15c0-.2.207-0.27,0.553-0.39a17.827,17.827,0,0,0,3.894-1.99,0.2,0.2,0,0,0,.061-0.14,0.124,0.124,0,0,0-.141-0.11H236.62c-0.665,0-1.346.03-2.025,0.03-0.349,0-.349-0.2-0.349-0.69s0-.67.349-0.67c0.679,0,1.36.04,2.025,0.04h3.416a0.273,0.273,0,0,0,.3-0.32v-0.14a0.259,0.259,0,0,0-.3-0.31H238.25c-0.6,0-1.22.03-1.82,0.03-0.38,0-.364-0.19-0.364-0.66s0-.65.364-0.65c0.6,0,1.217.03,1.82,0.03h1.786a0.259,0.259,0,0,0,.3-0.31v-0.14a0.266,0.266,0,0,0-.3-0.32h-2.548c-0.648,0-1.3.04-1.945,0.04-0.349,0-.331-0.27-0.331-0.66,0-.45-0.018-0.67.346-0.67,0.649,0,1.282.04,1.93,0.04h0.365a0.255,0.255,0,0,0,.284-0.25,0.566,0.566,0,0,0-.031-0.16c-0.095-.21-0.189-0.42-0.3-0.63a0.563,0.563,0,0,0-.586-0.39h-0.411c-0.664,0-1.312.04-1.976,0.04-0.349,0-.349-0.19-0.349-0.69s0-.71.349-0.71c0.52,0,1.043.04,1.566,0.04h0.172a0.2,0.2,0,0,0,.223-0.2,0.235,0.235,0,0,0-.033-0.15,13.906,13.906,0,0,0-.964-1.38,0.6,0.6,0,0,1-.144-0.27,1.589,1.589,0,0,1,1.108-.65,0.5,0.5,0,0,1,.412.32c0.031,0.05.079,0.11,0.141,0.2a8.419,8.419,0,0,1,1,1.56,0.738,0.738,0,0,1-.5.43,0.115,0.115,0,0,0-.033.07,0.068,0.068,0,0,0,.08.07h0.776a0.389,0.389,0,0,0,.443-0.45v-0.52c0-.54-0.017-1.08-0.063-1.61,0-.05-0.016-0.1-0.016-0.15a0.224,0.224,0,0,1,.269-0.25c0.221,0,1.074.1,1.328,0.13,0.159,0.02.379,0.03,0.379,0.23a0.3,0.3,0,0,1-.189.25,1.234,1.234,0,0,0-.19.93v0.99a0.383,0.383,0,0,0,.443.45h0.459a0.384,0.384,0,0,0,.444-0.45v-0.96a7.052,7.052,0,0,0-.064-1.16v-0.15c0-.2.11-0.23,0.269-0.23,0.205,0,1.043.08,1.281,0.12,0.142,0.01.411,0.03,0.411,0.23a0.317,0.317,0,0,1-.19.23,0.974,0.974,0,0,0-.174.77v1.15a0.38,0.38,0,0,0,.379.45,0.274,0.274,0,0,0,.223-0.15A21.106,21.106,0,0,0,245.3,9038.42Zm-3.274,5.22a0.585,0.585,0,0,0,.633-0.39c0.095-.2.19-0.42,0.3-0.64a0.3,0.3,0,0,0,.031-0.13,0.271,0.271,0,0,0-.3-0.27h-2.863a0.254,0.254,0,0,0-.284.25,0.533,0.533,0,0,0,.03.15c0.4,0.84.4,1.03,0.808,1.03h1.645Zm10.227,8.12c0.2,0,.853.02,1.359,0.02h0.459c0.379,0,.443-0.07.443-0.47v-11.65c0-.38-0.064-0.45-0.443-0.45h-0.459c-0.506,0-1.154.02-1.359,0.02-0.333,0-.382-0.08-0.382-0.49v-0.62c0-.38.064-0.48,0.4-0.48,0.111,0,.838.03,1.344,0.03H255.5c0.394,0,.474.08,0.474,0.5v14.65c0,0.42-.08.5-0.474,0.5h-1.884c-0.506,0-1.233.04-1.344,0.04-0.333,0-.4-0.1-0.4-0.49v-0.62C251.875,9051.85,251.924,9051.76,252.257,9051.76Z" transform="translate(-142 -9037.62)"/>
</svg>
