<svg xmlns="http://www.w3.org/2000/svg" width="416.44" height="77" viewBox="0 0 416.44 77">
  <defs>
    <style>
      .cls-1 {
        fill: #51a6da;
        fill-rule: evenodd;
      }
    </style>
  </defs>
  <path id="様々な職種に触れたうえで_進路を決定_" data-name="様々な職種に触れたうえで 進路を決定！" class="cls-1" d="M1837.91,374.21c0-.576-0.41-1.856-0.93-1.856a1.153,1.153,0,0,0-.38.192,43.218,43.218,0,0,1-5.95,3.2,0.407,0.407,0,0,0-.32.352c0,0.288,1.28,2.912,1.76,2.912a0.478,0.478,0,0,0,.38-0.448,0.839,0.839,0,0,1,.64-0.832c1.57-.928,2.82-1.664,4.26-2.688A0.913,0.913,0,0,0,1837.91,374.21Zm-1.69-3.264c0-.384-1.32-1.376-1.7-1.7a3.283,3.283,0,0,0-.29-0.192,4.172,4.172,0,0,0-1.21-.7c-0.48,0-1.28,1.632-1.28,1.952a0.343,0.343,0,0,0,.22.352,21.1,21.1,0,0,1,2.02,1.632,1.545,1.545,0,0,0,.8.512C1835.29,372.8,1836.22,371.362,1836.22,370.946Zm2.3-15.231a7.974,7.974,0,0,0-.9-1.856c-0.51-.864-0.99-1.728-1.44-1.728-0.38,0-2.33.64-2.33,1.216a1.712,1.712,0,0,0,.22.48c0.55,0.864.93,1.536,1.19,2.016,0.38,0.736.57,1.056,0.89,1.056C1836.57,356.9,1838.52,356.259,1838.52,355.715ZM1843,370.53a12.911,12.911,0,0,1-.96-1.536,1.1,1.1,0,0,1-.13-0.448,0.547,0.547,0,0,1,.61-0.48h2.72c1.12,0,2.27.064,3.39,0.064,0.74,0,.71-0.384.71-1.312,0-.9.03-1.312-0.71-1.312-1.12,0-2.24.064-3.39,0.064h-2.82a0.641,0.641,0,0,1-.76-0.736v-0.32a0.663,0.663,0,0,1,.76-0.768h1.89c1.06,0,2.08.064,3.14,0.064,0.7,0,.67-0.384.67-1.248s0.03-1.216-.7-1.216c-1.03,0-2.08.032-3.11,0.032h-1.89a0.641,0.641,0,0,1-.76-0.736v-0.256a0.641,0.641,0,0,1,.76-0.735h2.31c1.15,0,2.3.064,3.45,0.064,0.74,0,.71-0.384.71-1.312s0.03-1.312-.71-1.312c-0.99,0-1.95.064-2.94,0.064a0.442,0.442,0,0,1-.42-0.7c0.42-.7.8-1.44,1.28-2.112a0.671,0.671,0,0,1,.42-0.352c0.42-.1.67-0.128,0.67-0.416a0.906,0.906,0,0,0-.73-0.576c-0.32-.16-2.21-1.056-2.37-1.056a0.553,0.553,0,0,0-.45.512,32.875,32.875,0,0,1-2.11,4.064,1.223,1.223,0,0,1-1.28.64h-4.03c-1.12,0-2.28-.064-3.43-0.064-0.7,0-.7.32-0.7,1.28,0,0.992-.03,1.344.7,1.344,1.15,0,2.31-.064,3.43-0.064h1.53a0.644,0.644,0,0,1,.77.735v0.256a0.645,0.645,0,0,1-.77.736h-1.15c-1.06,0-2.08-.032-3.14-0.032-0.73,0-.7.352-0.7,1.216,0,0.832-.03,1.248.67,1.248,1.06,0,2.11-.064,3.17-0.064h1.15a0.655,0.655,0,0,1,.77.768v0.32a0.645,0.645,0,0,1-.77.736h-1.98c-1.12,0-2.24-.064-3.36-0.064-0.74,0-.74.352-0.74,1.312,0,0.9-.03,1.312.71,1.312,1.12,0,2.27-.064,3.39-0.064h1.85a0.764,0.764,0,0,1,.9.9v6.911c0,1.6-.03,1.952-1.28,1.952-0.26,0-.61-0.032-0.96-0.064a3.292,3.292,0,0,0-.54-0.032,0.646,0.646,0,0,0-.68.736,5.077,5.077,0,0,0,.39,1.856,1.309,1.309,0,0,0,1.21.416,6.973,6.973,0,0,0,4.1-.9,3.108,3.108,0,0,0,.96-2.56c0-.544-0.06-1.088-0.06-1.632V373.73a0.31,0.31,0,0,1,.25-0.32,0.341,0.341,0,0,1,.23.128,19.5,19.5,0,0,0,3.58,4,7.236,7.236,0,0,0,1.95,1.312,2.966,2.966,0,0,0,1.99-1.856,1.478,1.478,0,0,0-.84-0.864,24.79,24.79,0,0,1-3.04-2.368,0.9,0.9,0,0,1-.25-0.543,0.811,0.811,0,0,1,.32-0.576,19.842,19.842,0,0,0,1.82-1.568,0.708,0.708,0,0,1,.45-0.16,0.843,0.843,0,0,1,.26.032,1.82,1.82,0,0,0,.19.032,0.321,0.321,0,0,0,.32-0.32,2.018,2.018,0,0,0-.67-0.96c-0.26-.256-0.55-0.576-0.77-0.832a1.614,1.614,0,0,0-.74-0.608,0.727,0.727,0,0,0-.41.288,27.412,27.412,0,0,1-2.15,2.112A0.686,0.686,0,0,1,1843,370.53Zm-14.65-8.32a0.787,0.787,0,0,1-.1-0.384,0.707,0.707,0,0,1,.77-0.768c0.45,0,1.41.064,1.69,0.064,0.71,0,.64-0.512.64-1.567s0.07-1.536-.64-1.536c-0.13,0-1.4.064-1.63,0.064a0.77,0.77,0,0,1-.86-0.9v-2.176c0-1.056.03-1.632,0.35-1.856a0.65,0.65,0,0,0,.42-0.48c0-.384-0.52-0.384-0.77-0.416-0.48-.064-2.18-0.224-2.59-0.224-0.29,0-.55.064-0.55,0.384v0.32a13.151,13.151,0,0,1,.13,2.336v2.112a0.764,0.764,0,0,1-.9.9h-0.22c-0.9,0-1.82-.064-2.34-0.064-0.67,0-.64.448-0.64,1.568,0,1.055-.03,1.535.64,1.535,0.52,0,1.38-.128,2.18-0.1a0.631,0.631,0,0,1,.74.608c0,0.1-.04.16-0.04,0.224a41.216,41.216,0,0,1-3.93,9.6,2.449,2.449,0,0,0-.42.992,3.168,3.168,0,0,0,1.89,2.047,0.912,0.912,0,0,0,.67-0.639,32.064,32.064,0,0,0,2.11-4.832,0.148,0.148,0,0,1,.13-0.1c0.03,0,.13,0,0.13.16v6.175c0,1.472-.1,2.976-0.1,4.448,0,0.96.36,0.96,1.64,0.96,1.24,0,1.56-.032,1.56-0.96,0-1.472-.09-2.976-0.09-4.448v-7.839a0.243,0.243,0,0,1,.22-0.256,0.341,0.341,0,0,1,.23.128c0.25,0.448.89,1.7,1.34,1.7,0.51,0,1.44-1.792,1.44-2.24a1.027,1.027,0,0,0-.32-0.576A18.835,18.835,0,0,1,1828.35,362.21Zm42.3-1.5c-0.23,0-.67.032-0.67-0.384a1.09,1.09,0,0,1,.12-0.447,28.347,28.347,0,0,0,1.73-3.68,0.779,0.779,0,0,1,.64-0.64,0.622,0.622,0,0,0,.61-0.544c0-.384-0.54-0.608-1.57-1.12a7.029,7.029,0,0,0-1.89-.7,0.586,0.586,0,0,0-.57.608c-0.19.64-.71,1.92-0.99,2.56a32.192,32.192,0,0,1-5.06,8,23.97,23.97,0,0,1-5.05,4.768,0.647,0.647,0,0,0-.45.544c0,0.576,1.57,2.4,2.14,2.4,0.61,0,2.37-1.664,2.88-2.144a39.033,39.033,0,0,0,4.7-5.312,1.412,1.412,0,0,1,1.41-.736h6.91c0.42,0,1.09.032,1.09,0.576a8.028,8.028,0,0,1-1.53,2.24c-0.74.928-2.56,3.3-3.14,3.936a0.836,0.836,0,0,1-.64.448,1.015,1.015,0,0,1-.67-0.32c-0.55-.416-2.88-2.176-3.43-2.176-0.7,0-2.27,1.792-2.27,2.24a0.822,0.822,0,0,0,.45.576,36.292,36.292,0,0,1,8.64,7.839,1.644,1.644,0,0,0,.8.736,3.762,3.762,0,0,0,2.24-2.176c0-.768-2.11-2.912-2.69-3.52a0.937,0.937,0,0,1-.35-0.671,0.988,0.988,0,0,1,.29-0.64c1.76-2.048,5.98-7.68,7.68-9.056a1.131,1.131,0,0,0,.54-0.768c0-.736-1.57-2.624-2.43-2.624a3.946,3.946,0,0,0-.61.064,3.182,3.182,0,0,1-1.09.128h-7.77Zm35.52,13.311c1.6,0,1.63.352,1.63,0.992a1.493,1.493,0,0,1-1.66,1.728c-0.84,0-2.12-.512-2.12-1.5C1904.02,374.21,1905.4,374.017,1906.17,374.017Zm1.57-11.3a0.649,0.649,0,0,0-.77.7c0,0.16.03,0.288,0.03,0.448,0.1,1.248.58,5.888,0.58,6.912a0.566,0.566,0,0,1-.68.544h-0.83c-2.53,0-5.31,1.024-5.31,3.967,0,2.976,3.04,4.352,5.63,4.352,2.18,0,4.07-.8,4.45-3.136a0.7,0.7,0,0,1,.51-0.736,9.128,9.128,0,0,1,2.56,1.472,1.65,1.65,0,0,0,.83.448c0.8,0,1.99-1.824,1.99-2.336,0-.768-3.78-2.527-4.51-2.815-0.1-.032-0.23-0.1-0.32-0.128a1.264,1.264,0,0,1-1-.8c-0.16-.672-0.32-5.28-0.32-6.208,0-.672.07-1.632,0.07-1.7a0.719,0.719,0,0,0-.64-0.672A13.547,13.547,0,0,0,1907.74,362.722Zm4.89-4.927c-0.67,0-2.14,1.76-2.14,2.207a0.855,0.855,0,0,0,.41.512,18.091,18.091,0,0,1,4,4.128,1.065,1.065,0,0,0,.71.576c0.57,0,2.4-1.44,2.4-2.208C1918.01,362.178,1913.43,357.8,1912.63,357.8Zm-10.75-5.216c-0.29,0-.29.32-0.29,0.544a19.532,19.532,0,0,1-1.02,5.376,1.1,1.1,0,0,1-.96.512,28.483,28.483,0,0,1-3.3.16h-1.47a0.462,0.462,0,0,0-.57.512c0,0.319.16,1.471,0.22,1.855,0.13,0.736.26,1.024,0.8,1.024,0.74,0,3.2-.32,3.46-0.32a0.428,0.428,0,0,1,.44.416,12.443,12.443,0,0,1-.73,1.952,60.041,60.041,0,0,1-3.81,7.392,3.552,3.552,0,0,0-.58,1.152c0,0.672,2.15,1.6,2.85,1.6a0.64,0.64,0,0,0,.64-0.448,80.926,80.926,0,0,0,5.22-11.391c0.38-1.056.35-1.28,1.5-1.472,2.94-.544,3.33-0.608,3.33-1.311a16.2,16.2,0,0,0-.16-1.7c-0.07-.384-0.1-0.96-0.48-0.96a1.071,1.071,0,0,0-.32.064,15.366,15.366,0,0,1-1.83.48,0.373,0.373,0,0,1-.35-0.416,11.274,11.274,0,0,1,.35-1.44,5.586,5.586,0,0,1,.58-1.7,0.92,0.92,0,0,0,.51-0.576,0.648,0.648,0,0,0-.51-0.384C1904.89,353.347,1902.23,352.579,1901.88,352.579Zm40,19.327a0.74,0.74,0,0,1,.77.768v0.064a0.74,0.74,0,0,1-.77.768h-1.18a0.74,0.74,0,0,1-.77-0.768v-0.064a0.74,0.74,0,0,1,.77-0.768h1.18Zm0-3.36a0.731,0.731,0,0,1,.77.736,0.751,0.751,0,0,1-.77.736h-1.18a0.751,0.751,0,0,1-.77-0.736,0.731,0.731,0,0,1,.77-0.736h1.18Zm3.26,0.224c0-.48.04-0.96,0.04-1.472a1.1,1.1,0,0,0-1.35-1.184c-0.57,0-1.12.064-1.66,0.064h-1.95c-0.58,0-1.16-.064-1.73-0.064a1.08,1.08,0,0,0-1.28,1.216c0,0.48.03,0.96,0.03,1.44v6.3c0,0.576-.03,1.152-0.03,1.728,0,0.64.41,0.608,1.28,0.608,1.44,0,1.44,0,1.47-.736a0.768,0.768,0,0,1,.93-0.8h1.47c0.51,0,1.02.032,1.5,0.032a1.084,1.084,0,0,0,1.32-1.184c0-.448-0.04-0.928-0.04-1.375V368.77Zm9.76-9.887a18.434,18.434,0,0,0-.92-2.5,17.354,17.354,0,0,0-1.12-2.144,0.665,0.665,0,0,0-.55-0.32c-0.29,0-1.85.384-1.85,0.96a0.951,0.951,0,0,0,.12.416,34.815,34.815,0,0,1,1.83,4,0.738,0.738,0,0,0,.61.672,5.064,5.064,0,0,0,1.12-.32A0.849,0.849,0,0,0,1954.9,358.883ZM1930.62,368.9a0.747,0.747,0,0,1,.89-0.864h0.45a0.754,0.754,0,0,1,.9.864v1.664a0.847,0.847,0,0,1-.83,1.024l-0.58.1a1.482,1.482,0,0,1-.16.032,0.651,0.651,0,0,1-.67-0.768V368.9Zm0-6.016a0.843,0.843,0,0,1,.89-0.864h0.45a0.852,0.852,0,0,1,.9.864v1.728a0.852,0.852,0,0,1-.9.864h-0.45a0.843,0.843,0,0,1-.89-0.864v-1.728Zm0-5.983a0.91,0.91,0,0,1,.89-0.9h0.45a0.919,0.919,0,0,1,.9.9v1.632a0.852,0.852,0,0,1-.9.864h-0.45a0.843,0.843,0,0,1-.89-0.864V356.9Zm5.09,0.032a0.7,0.7,0,0,1,.57-0.832,0.453,0.453,0,0,1,.35.512c0.04,0.736.04,1.024,0.58,1.024,0.7,0,1.53-.064,2.37-0.064h2.56a0.518,0.518,0,0,1,.57.512c0,0.064-.03.128-0.03,0.192a22.421,22.421,0,0,1-.93,2.847,1.1,1.1,0,0,1-1.21.736h-1.25c-0.83,0-1.89.032-2.72-.032a0.77,0.77,0,0,1-.86-0.9v-4Zm8.89,4.927a0.487,0.487,0,0,1-.58-0.48,0.719,0.719,0,0,1,.04-0.288c0.28-.544.48-1.151,0.76-1.695a0.523,0.523,0,0,1,.36-0.256c0.22-.032.51-0.032,0.51-0.32a1.945,1.945,0,0,0-1.22-.768c-0.16-.064-0.29-0.128-0.45-0.192a0.141,0.141,0,0,1-.09-0.128,0.168,0.168,0,0,1,.16-0.16c0.48,0.032.99,0.064,1.47,0.064,0.58,0,.58-0.32.58-1.28s0-1.248-.58-1.248c-0.42,0-1.38.032-1.89,0.032a0.741,0.741,0,0,1-.86-0.832,1.2,1.2,0,0,1,.35-1.184,0.6,0.6,0,0,0,.38-0.416c0-.352-0.57-0.352-0.86-0.384-0.64-.064-1.79-0.16-2.4-0.16-0.29,0-.58.032-0.58,0.384,0,0.1.04,0.224,0.04,0.32,0.06,0.48.09,0.96,0.12,1.44a0.739,0.739,0,0,1-.83.832h-0.61c-0.73,0-1.21-.064-1.24-0.864-0.04-.736.06-1.216-0.74-1.216-0.57,0-1.47.064-2.3,0.064h-4.35c-0.8,0-1.73-.064-2.31-0.064-0.77,0-.73.384-0.73,1.5,0,1.28.03,1.472,0.76,1.5a0.51,0.51,0,0,1,.58.576v14.751a0.708,0.708,0,0,1-.7.832c-0.68.064-1.19,0.064-1.19,0.448a19.665,19.665,0,0,0,.61,2.335c0.19,0.672.26,0.96,0.58,0.96a0.522,0.522,0,0,0,.48-0.416,0.64,0.64,0,0,1,.44-0.416c1.22-.256,2.44-0.48,3.68-0.8,0.07,0,.16-0.032.26-0.032a0.612,0.612,0,0,1,.61.736v0.32c0,1.5-.07,3.008-0.07,4.512,0,0.9.42,0.9,1.48,0.9,1.21,0,1.5,0,1.5-1.024,0-1.472-.06-2.912-0.06-4.384v-9.983a0.77,0.77,0,0,1,.86-0.9c0.9-.064,1.82-0.032,2.72-0.032h6.91a0.757,0.757,0,0,1,.9.832c0.09,2.368.35,4.544,0.64,6.848a1.8,1.8,0,0,1,.03.384,1.466,1.466,0,0,1-.42,1.024,26.849,26.849,0,0,1-4.41,3.935,1.461,1.461,0,0,0-.8.9,2.714,2.714,0,0,0,1.69,1.792c0.64,0,3.55-2.688,4.13-3.264a0.607,0.607,0,0,1,.42-0.16,0.537,0.537,0,0,1,.44.384c0.52,1.568,1.38,3.712,3.33,3.712,1.7,0,2.18-1.312,2.63-2.656a21.238,21.238,0,0,0,.8-3.808c0-.863-1.25-1.183-1.73-1.183a0.49,0.49,0,0,0-.61.512c-0.06.544-.32,3.359-0.93,3.359-0.45,0-1.25-2.784-1.25-3.327a1.454,1.454,0,0,1,.36-0.96,31.563,31.563,0,0,0,2.52-4.384,1.11,1.11,0,0,1,.74-0.8,0.593,0.593,0,0,0,.54-0.416c0-.256-0.19-0.352-0.89-0.832a4.7,4.7,0,0,0-1.76-.96,0.506,0.506,0,0,0-.45.448,23.244,23.244,0,0,1-1.34,2.88,0.33,0.33,0,0,1-.26.192,0.32,0.32,0,0,1-.26-0.288c-0.09-1.12-.16-2.24-0.22-3.36a0.744,0.744,0,0,1,.86-0.8c1.12-.032,2.24.064,3.36,0.064,0.74,0,.71-0.416.71-1.376,0-.928.03-1.344-0.71-1.344-1.12,0-2.24.064-3.32,0.064h-0.1a0.754,0.754,0,0,1-.9-0.832v-6.751c0-.608,0-0.8.32-0.96a0.643,0.643,0,0,0,.48-0.512c0-.384-0.38-0.384-0.86-0.448-0.42-.032-2.02-0.192-2.34-0.192a0.494,0.494,0,0,0-.6.544c0,0.256.06,1.056,0.06,1.728v1.088c0,1.824.03,3.648,0.03,5.471a0.749,0.749,0,0,1-.89.864h-1.54Zm-4.29-1.12a9.6,9.6,0,0,0-.41-1.439c-0.45-1.28-.61-1.472-1-1.472s-1.63.256-1.63,0.736a12.285,12.285,0,0,0,.51,1.5c0.32,0.96.52,1.536,0.9,1.536C1939.19,361.6,1940.31,361.25,1940.31,360.738Zm36.32,7.808a0.716,0.716,0,0,1,.74-0.768h1.57a0.737,0.737,0,0,1,.76.768v0.448a0.72,0.72,0,0,1-.76.768h-1.57a0.7,0.7,0,0,1-.74-0.768v-0.448Zm6.75,1.216a0.72,0.72,0,0,1-.76-0.768v-0.448a0.737,0.737,0,0,1,.76-0.768h1.57a0.74,0.74,0,0,1,.77.768v0.448a0.723,0.723,0,0,1-.77.768h-1.57Zm-4.44-5.824a0.737,0.737,0,0,1,.76.768v0.32a0.737,0.737,0,0,1-.76.768h-1.57a0.716,0.716,0,0,1-.74-0.768v-0.32a0.716,0.716,0,0,1,.74-0.768h1.57Zm6.78,1.088a0.74,0.74,0,0,1-.77.768h-1.57a0.737,0.737,0,0,1-.76-0.768v-0.32a0.737,0.737,0,0,1,.76-0.768h1.57a0.74,0.74,0,0,1,.77.768v0.32Zm-2.21-7.3a0.768,0.768,0,0,1-.89-0.9v-0.448a0.842,0.842,0,0,1,.86-0.992c0.45-.064,4.38-0.672,4.45-0.672a1.2,1.2,0,0,1,.48.128,1.614,1.614,0,0,0,.35.064,0.291,0.291,0,0,0,.32-0.256,6.523,6.523,0,0,0-.93-1.76,1.627,1.627,0,0,0-.93-1.024,1.426,1.426,0,0,0-.35.064,53.893,53.893,0,0,1-12.61,1.472c-0.57,0-1.05-.032-1.05.544a4.323,4.323,0,0,0,.45,1.824,0.9,0.9,0,0,0,.96.32c0.41,0,3.87-.224,4.35-0.288a0.621,0.621,0,0,1,.73.7v0.448a0.662,0.662,0,0,1-.76.768h-2.72c-1.03,0-2.02-.064-3.04-0.064-0.74,0-.71.448-0.71,1.312,0,0.9-.03,1.279.71,1.279,1.02,0,2.04-.063,3.04-0.063h2.88a0.525,0.525,0,0,1,.6.607v0.384a0.539,0.539,0,0,1-.64.608h-1.95c-0.7,0-1.41-.064-2.11-0.064a1.167,1.167,0,0,0-1.38,1.408c0,0.64.07,1.312,0.07,1.952v3.552c0,0.64-.07,1.28-0.07,1.952a1.177,1.177,0,0,0,1.41,1.408c0.67,0,1.38-.064,2.08-0.064h1.83a0.652,0.652,0,0,1,.76.736v0.1a0.662,0.662,0,0,1-.76.768h-2.05c-1.09,0-2.18-.064-3.27-0.064-0.64,0-.6.352-0.6,1.183,0,0.864-.04,1.184.64,1.184,1.08,0,2.17-.064,3.23-0.064h2.05a0.662,0.662,0,0,1,.76.768v0.16a0.652,0.652,0,0,1-.76.736H1975c-1.09,0-2.21-.064-3.33-0.064-0.73,0-.73.352-0.73,1.344s0,1.344.73,1.344c1.12,0,2.24-.064,3.33-0.064h11.23c1.12,0,2.24.064,3.36,0.064,0.74,0,.71-0.416.71-1.344,0-.96.03-1.344-0.74-1.344-1.12,0-2.21.064-3.33,0.064h-2.85a0.641,0.641,0,0,1-.76-0.736v-0.16a0.651,0.651,0,0,1,.76-0.768h1.89c1.09,0,2.18.064,3.27,0.064,0.64,0,.64-0.352.64-1.184s0-1.183-.64-1.183c-1.09,0-2.18.064-3.27,0.064h-1.89a0.651,0.651,0,0,1-.76-0.768v-0.1a0.641,0.641,0,0,1,.76-0.736h1.86c0.7,0,1.41.064,2.11,0.064,1.06,0,1.35-.448,1.35-1.472,0-.64-0.04-1.28-0.04-1.888V365.09c0-.64.04-1.312,0.04-1.952a1.168,1.168,0,0,0-1.41-1.408c-0.67,0-1.38.064-2.05,0.064h-2.02a0.526,0.526,0,0,1-.6-0.608V360.8a0.525,0.525,0,0,1,.6-0.607h2.98c1.02,0,2.02.063,3.04,0.063,0.7,0,.7-0.383.7-1.279s0.04-1.312-.7-1.312c-1.02,0-2.02.064-3.04,0.064h-2.69Zm-14.14,10.655c0.32,0.512,1.66,2.592,2.21,2.592,0.51,0,1.4-1.568,1.4-2.048a0.977,0.977,0,0,0-.41-0.736,26.476,26.476,0,0,1-3.01-3.872,0.6,0.6,0,0,1-.13-0.32,0.482,0.482,0,0,1,.55-0.416c0.7,0,1.5.064,2.17,0.064,0.71,0,.64-0.544.64-1.6,0-1.088.07-1.6-.64-1.6-0.64,0-1.5.1-2.36,0.064a0.753,0.753,0,0,1-.9-0.863V356.9a1.06,1.06,0,0,1,.8-1.184c0.13-.032.45-0.16,0.77-0.288a10.818,10.818,0,0,1,1.18-.416,0.379,0.379,0,0,1,.19.032,2.148,2.148,0,0,0,.48.1,0.294,0.294,0,0,0,.32-0.288,6.122,6.122,0,0,0-.8-1.376,6.782,6.782,0,0,1-.38-0.576,1.788,1.788,0,0,0-.9-0.992,0.6,0.6,0,0,0-.25.1,20.984,20.984,0,0,1-7.11,2.4c-0.89.16-1.28,0.16-1.28,0.64,0,0.416.48,2.368,1.28,2.368a13.275,13.275,0,0,0,1.86-.32,0.4,0.4,0,0,1,.19-0.032,0.607,0.607,0,0,1,.64.7v1.888a0.746,0.746,0,0,1-.89.863c-0.9.032-1.8-.064-2.4-0.064-0.68,0-.64.448-0.64,1.6,0,1.12-.07,1.6.64,1.6,0.41,0,1.47-.064,2.01-0.064a0.576,0.576,0,0,1,.67.544,0.794,0.794,0,0,1-.06.256,45.7,45.7,0,0,1-3.68,8.256,2.21,2.21,0,0,0-.45.96,3.059,3.059,0,0,0,1.89,1.823,1.072,1.072,0,0,0,.77-0.7,28.645,28.645,0,0,0,1.82-3.871,0.181,0.181,0,0,1,.16-0.1,0.16,0.16,0,0,1,.16.192V375.3c0,1.472-.09,2.976-0.09,4.448,0,0.96.28,1.024,1.6,1.024s1.6-.064,1.6-1.056c0-1.472-.1-2.944-0.1-4.416v-6.751a0.276,0.276,0,0,1,.26-0.288A0.32,0.32,0,0,1,1969.37,368.386Zm40.25,2.656c-0.6,0-1.72,2.272-1.72,2.719,0,0.512,2.14,3.2,7.32,3.2,1.28,0,6.69-.48,7.59-0.96a1.255,1.255,0,0,0,.38-1.184c0-1.631-.06-2.4-0.57-2.4a2.282,2.282,0,0,0-.68.128,26.166,26.166,0,0,1-7.04,1.024,5.485,5.485,0,0,1-4.86-2.24A0.564,0.564,0,0,0,2009.62,371.042Zm0.74-13.855c-0.51,0-.67.48-0.67,2.016a1.558,1.558,0,0,0,.32,1.247c0.67,0.448,4.61.64,5.6,0.64a37.261,37.261,0,0,0,5.37-.448c0.61-.128.61-0.384,0.61-1.055a14.353,14.353,0,0,0-.13-1.728,0.713,0.713,0,0,0-.64-0.768,3.052,3.052,0,0,0-.57.1,20.98,20.98,0,0,1-4.87.64,20.531,20.531,0,0,1-4.19-.48A4.171,4.171,0,0,0,2010.36,357.187Zm-7.68-2.5a0.686,0.686,0,0,0-.48.7,13.423,13.423,0,0,1-.41,1.6,37.99,37.99,0,0,0-1.64,10.591,21.958,21.958,0,0,0,1.96,9.823c0.41,0.864.8,1.568,1.34,1.568,0.67,0,2.5-.768,2.5-1.568a3.124,3.124,0,0,0-.07-0.48c-0.03-.288-0.13-1.024-0.13-1.344,0-1.44,1.28-4.351,1.28-4.639a1.751,1.751,0,0,0-1.15-1.024,1.029,1.029,0,0,0-.67.768,2.548,2.548,0,0,1-.86,1.248c-0.74,0-.87-3.872-0.87-4.48a25.378,25.378,0,0,1,1.79-9.087,2.065,2.065,0,0,1,.99-1.376c0.32-.192.45-0.224,0.45-0.416a0.756,0.756,0,0,0-.64-0.544C2005.63,355.843,2002.94,354.691,2002.68,354.691Zm51.94,6.5a0.91,0.91,0,0,1,.89-0.9h0.58a0.847,0.847,0,0,1,.86.9v4.64a0.79,0.79,0,0,1-.86.864h-0.58a0.843,0.843,0,0,1-.89-0.864v-4.64Zm-3.01,4.64a0.793,0.793,0,0,1-.87.864h-0.51a0.843,0.843,0,0,1-.89-0.864v-4.64a0.91,0.91,0,0,1,.89-0.9h0.51a0.893,0.893,0,0,1,.87.9v4.64Zm-0.87,3.712a0.743,0.743,0,0,1,.87.864v4.7a0.86,0.86,0,0,1-.83,1.024,30.587,30.587,0,0,1-3.36.544c-1.44.192-1.83,0.288-1.83,0.576a17.1,17.1,0,0,0,.48,1.7c0.32,1.184.45,1.7,0.83,1.7a0.478,0.478,0,0,0,.42-0.32,0.74,0.74,0,0,1,.51-0.512c2.91-.64,5.86-1.248,8.74-2.016a0.962,0.962,0,0,1,.32-0.032,0.744,0.744,0,0,1,.73.64c0.1,0.352.16,0.64,0.23,0.9,0.16,0.768.22,1.056,0.93,1.056,0.51,0,1.98-.288,1.98-1.056a31.624,31.624,0,0,0-1.5-5.119c-0.74-2.08-.8-2.592-1.51-2.592-0.29,0-2.01.224-2.01,0.96a10.54,10.54,0,0,0,.6,1.7,0.751,0.751,0,0,1,.07.287,0.618,0.618,0,0,1-.51.576,2.645,2.645,0,0,0-.55.128h-0.19a0.538,0.538,0,0,1-.54-0.608V370.4a0.747,0.747,0,0,1,.89-0.864h0.64c0.67,0,1.31.032,1.95,0.032,0.96,0,1.6-.256,1.6-1.312,0-.672-0.03-1.344-0.03-1.984v-5.536c0-.672.03-1.311,0.03-1.983,0-1.088-.64-1.312-1.63-1.312-0.64,0-1.28.032-1.92,0.032h-0.64a0.757,0.757,0,0,1-.89-0.9v-1.44c0-1.248.03-1.92,0.38-2.176a0.659,0.659,0,0,0,.35-0.448,0.431,0.431,0,0,0-.48-0.384c-0.48-.032-2.46-0.256-2.85-0.256-0.32,0-.54.064-0.54,0.448,0,0.1.03,0.224,0.03,0.32a14.055,14.055,0,0,1,.1,2.336v1.6a0.754,0.754,0,0,1-.87.9h-0.54c-0.64,0-1.28-.032-1.92-0.032-0.96,0-1.6.256-1.6,1.312,0,0.672.03,1.311,0.03,1.983v6.816c0,0.608-.06,1.888-0.06,2.368,0,0.672.32,0.7,1.34,0.7,1.09,0,1.31-.032,1.38-0.512a0.559,0.559,0,0,1,.61-0.576h0.76Zm-10.75-12.831c0.23,0,.52-0.032.52,0.256a7.825,7.825,0,0,1-1.09,1.984,1.35,1.35,0,0,1-1.31.64h-0.9a0.427,0.427,0,0,1-.51-0.416,0.531,0.531,0,0,1,.13-0.288c0.32-.512.64-0.992,0.96-1.5a1.246,1.246,0,0,1,1.28-.672h0.92Zm-1.76,12.351a0.652,0.652,0,0,1-.76.736h-0.32a0.608,0.608,0,0,1-.71-0.672v-1.28a0.662,0.662,0,0,1,.77-0.7h0.26a0.663,0.663,0,0,1,.76.768v1.152Zm2.98,0.736a0.723,0.723,0,0,1-.77-0.768v-1.12a0.74,0.74,0,0,1,.77-0.768h0.42a0.737,0.737,0,0,1,.76.768v1.12a0.72,0.72,0,0,1-.76.768h-0.42Zm-0.77-6.912a0.74,0.74,0,0,1,.77-0.768h0.42a0.737,0.737,0,0,1,.76.768v1.056a0.712,0.712,0,0,1-.76.736h-0.42a0.715,0.715,0,0,1-.77-0.736v-1.056Zm-2.97-.768a0.737,0.737,0,0,1,.76.768v1.056a0.712,0.712,0,0,1-.76.736h-0.26a0.715,0.715,0,0,1-.77-0.736v-1.056a0.74,0.74,0,0,1,.77-0.768h0.26Zm4.92,13.5c0,1.376-.06,1.792-1.15,1.792-0.51,0-1.18-.064-1.69-0.064a0.546,0.546,0,0,0-.68.672c0,2.272.45,2.528,1.83,2.528,2.75,0,4.32-.416,4.32-3.552,0-.736-0.07-1.472-0.07-2.24V363.522c0-.9.07-1.792,0.07-2.72a1.058,1.058,0,0,0-1.25-1.279c-0.26,0-.48.032-0.74,0.032a0.39,0.39,0,0,1-.45-0.384,2.03,2.03,0,0,1,.36-0.7,9.761,9.761,0,0,0,1.5-2.784,1.754,1.754,0,0,0-1.76-1.536c-0.54,0-1.09.064-1.66,0.064h-0.74a0.466,0.466,0,0,1-.51-0.384,0.61,0.61,0,0,1,.42-0.416,0.642,0.642,0,0,0,.57-0.384c0-.448-1.28-0.736-2.46-1.024a4.807,4.807,0,0,0-.93-0.192c-0.22,0-.29.192-0.45,0.64a26.58,26.58,0,0,1-4.64,7.328,0.922,0.922,0,0,0-.35.575,2.57,2.57,0,0,0,1.28,1.376,1.039,1.039,0,0,1,.64.96c0,0.288.03,0.544,0.03,0.832v3.84c0,3.68-.32,7.775-1.82,11.2a2.523,2.523,0,0,0-.13.448c0,0.544,1.38,1.408,1.89,1.408a0.9,0.9,0,0,0,.67-0.7,25.2,25.2,0,0,0,1.63-6.527,0.823,0.823,0,0,1,.99-0.832h4.39a0.771,0.771,0,0,1,.89.9v2.367Zm33.86-22.782c-0.35,0-.51.1-0.51,0.448,0,0.224.03,0.608,0.03,0.992,0,1.408-.13,3.328-0.13,4.192a2.05,2.05,0,0,1-.16.96c-0.38.768-4.45,1.471-5.41,1.6-0.38.064-1.05,0.064-1.05,0.576a9.547,9.547,0,0,0,.67,2.176,1.126,1.126,0,0,0,.93.9,21.989,21.989,0,0,0,3.87-1.312,1.967,1.967,0,0,1,.58-0.16,0.421,0.421,0,0,1,.41.48c0,0.256-.06.544-0.06,0.832a3,3,0,0,1-.39,1.5c-1.47,2.656-2.97,5.28-4.7,7.808a3.4,3.4,0,0,0-.64,1.151c0,0.544,1.86,2.112,2.4,2.112a0.568,0.568,0,0,0,.42-0.384c0.32-.608,1.31-2.336,1.66-2.912a2.093,2.093,0,0,1,.77-0.959,0.366,0.366,0,0,1,.29.416c0,1.439-.2,4.991-0.2,5.279,0,0.64.58,0.64,1.35,0.64,2.36,0,2.33-.32,2.33-0.544,0-.352-0.09-2.08-0.16-3.392-0.03-.544-0.09-1.5-0.09-1.695,0-.736-0.13-4.64,0-5.056a10.474,10.474,0,0,1,1.79-2.048,31.315,31.315,0,0,1,3.49-3.1,4.8,4.8,0,0,1,2.49-1.28c0.96,0,.96,1.12.96,1.824,0,2.88-.41,5.792-0.41,8.672,0,2.015.25,5.119,2.94,5.119a8.274,8.274,0,0,0,4.51-1.856c0.35-.256,1.54-1.088,1.54-1.536,0-.512-0.93-2.911-1.47-2.911a0.912,0.912,0,0,0-.61.352c-0.58.64-1.95,2.016-2.82,2.016-0.73,0-.7-1.12-0.7-1.888,0-1.344.09-2.784,0.16-4.16,0.09-1.632.16-3.3,0.16-4.96a5.758,5.758,0,0,0-.58-3.039,3.449,3.449,0,0,0-2.75-1.408c-1.76,0-3.36,1.152-4.64,2.271-0.77.64-2.05,1.792-2.72,2.5a0.426,0.426,0,0,1-.26.16,0.268,0.268,0,0,1-.25-0.32,2.644,2.644,0,0,1,.06-0.512c0.1-.224.71-1.344,0.87-1.568a0.8,0.8,0,0,0,.19-0.352,2.284,2.284,0,0,0-1.09-1.471,0.552,0.552,0,0,1-.51-0.544c0-.448.22-2.016,0.29-2.56,0.19-1.312.16-1.408,0.57-1.76a0.713,0.713,0,0,0,.26-0.48,0.441,0.441,0,0,0-.35-0.352C2079.26,353.187,2076.6,352.835,2076.25,352.835Zm39.77,20.383c-0.51,0-1.98,1.887-1.98,2.367,0,0.672,1.06,1.472,1.57,1.824,1.79,1.184,4.73,1.44,6.85,1.44a30.6,30.6,0,0,0,4.99-.416,1.99,1.99,0,0,0,.35-1.6c0-1.28,0-2.016-.54-2.016a1.071,1.071,0,0,0-.32.064,14.475,14.475,0,0,1-4.55.64c-1.95,0-4.38-.288-5.79-1.855A0.988,0.988,0,0,0,2116.02,373.218Zm2.4-7.328c0,0.544.16,0.7,0.8,0.7,0.42,0,.8-0.032,1.22-0.032a14.371,14.371,0,0,1,5.09.8,1.71,1.71,0,0,0,.67.16,0.557,0.557,0,0,0,.58-0.416,8.16,8.16,0,0,0,.6-2.24,0.6,0.6,0,0,0-.44-0.64,22.993,22.993,0,0,0-6.44-.9C2119,363.33,2118.42,363.138,2118.42,365.89Zm-4.19-13.631c-0.32,0-.32.32-0.35,0.8a29.464,29.464,0,0,1-1.18,5.824c-0.29.48-.77,0.512-2.82,0.512-1.37,0-2.72-.128-3.01-0.128a0.459,0.459,0,0,0-.48.576,13.534,13.534,0,0,0,.26,2.335c0.19,0.608.7,0.576,1.34,0.576,1,0,2.4-.16,2.85-0.16a0.5,0.5,0,0,1,.58.48,4.425,4.425,0,0,1-.26.832c-1.25,3.392-3.65,8.96-5.66,11.839a2.422,2.422,0,0,0-.55,1.056c0,0.7,2.21,1.728,2.72,1.728,0.48,0,.74-0.448,1.16-1.216a100.093,100.093,0,0,0,5.95-14.111,1.319,1.319,0,0,1,1.31-1.248,48.408,48.408,0,0,0,5.25-1.248,0.977,0.977,0,0,0,.6-1.151c0-.48,0-2.432-0.64-2.432a1.752,1.752,0,0,0-.67.16,22.432,22.432,0,0,1-3.71,1.184,0.469,0.469,0,0,1-.48-0.48c0-.16.67-2.5,0.77-2.848a1.406,1.406,0,0,1,.73-1.12,0.475,0.475,0,0,0,.29-0.32c0-.352-0.89-0.576-1.18-0.672C2116.63,352.9,2114.52,352.259,2114.23,352.259Zm32.16,3.776c0,0.512.71,0.672,2.05,1.024a68.021,68.021,0,0,0,7.36,1.44c0.51,0,.7-0.32.86-0.96a13.234,13.234,0,0,0,.32-1.952c0-.48-0.35-0.48-0.8-0.512a33.414,33.414,0,0,1-7.99-1.6,1.2,1.2,0,0,0-.52-0.192,0.753,0.753,0,0,0-.64.608A7.627,7.627,0,0,0,2146.39,356.035Zm6.08,4a18.381,18.381,0,0,0-8.54,2.592,1.374,1.374,0,0,0-.96.992c0,0.736,1.02,3.04,1.79,3.04a1.409,1.409,0,0,0,.67-0.32c1.99-1.664,4.16-3.008,6.85-3.008a4.127,4.127,0,0,1,4.45,4.416c0,4.448-4.74,7.935-8.58,9.151a0.732,0.732,0,0,0-.64.544c0,0.512,1.31,2.688,2.27,2.688a9.519,9.519,0,0,0,2.76-1.184c4.06-2.464,7.77-6.431,7.77-11.455C2160.31,362.786,2157.02,360.034,2152.47,360.034Zm39.78,10.464c0-2.656-1.92-3.2-2.79-3.2-0.22,0-.41.032-0.64,0.032a0.321,0.321,0,0,1-.32-0.32,1.187,1.187,0,0,1,.42-0.64,40.63,40.63,0,0,1,4.45-4.32,1.222,1.222,0,0,0,.7-0.8c0-.48-1.47-2.719-2.24-2.719a2.748,2.748,0,0,0-.89.224,67.873,67.873,0,0,1-11.55,2.3c-0.36.032-.68,0.1-0.68,0.512a4.781,4.781,0,0,0,.74,1.792,1.885,1.885,0,0,1,.22.384,1,1,0,0,0,.87.736c0.54,0,4.28-.992,5.02-1.184a20.057,20.057,0,0,1,1.95-.512,0.263,0.263,0,0,1,.29.256,5.2,5.2,0,0,1-1.15,1.5c-3.43,3.808-6.72,7.744-10.37,11.359a2.181,2.181,0,0,0-.77,1.088c0,0.736,1.89,2.336,2.56,2.336a2.026,2.026,0,0,0,.9-0.832c1.41-1.824,4.48-5.887,6.08-7.263a5.1,5.1,0,0,1,2.85-1.344,0.964,0.964,0,0,1,1.05,1.152,13.747,13.747,0,0,1-.19,2.016,16.264,16.264,0,0,0-.29,2.527,3.686,3.686,0,0,0,3.94,3.68,15.885,15.885,0,0,0,5.92-1.632c0.57-.32.54-1.344,0.54-1.92,0-.352.03-2.015-0.41-2.015a2.5,2.5,0,0,0-.9.415c-1.28.8-3.2,1.92-4.74,1.92a0.919,0.919,0,0,1-1.05-1.056c0-.48.16-1.567,0.22-2.079A15.054,15.054,0,0,0,2192.25,370.5Zm-8.83-17.567c-0.36,0-.48.128-0.8,0.992a8.352,8.352,0,0,0-.48,1.632c0,0.512.7,0.64,1.82,0.992,0.22,0.064.77,0.256,1.38,0.48,1.37,0.48,3.16,1.12,3.39,1.12,0.73,0,1.18-2.56,1.18-2.72a0.656,0.656,0,0,0-.61-0.608C2188.6,354.6,2183.67,352.931,2183.42,352.931Zm26.33,5.7a14.125,14.125,0,0,0,.36,2.3c0.09,0.352.25,1.056,0.7,1.056a2.47,2.47,0,0,0,.48-0.064c2.05-.544,4.93-0.992,7.07-1.312,0.32-.032,1.79-0.288,2.02-0.288a0.416,0.416,0,0,1,.48.384,1.783,1.783,0,0,1-.55.768,14.245,14.245,0,0,0-3.52,9.184c0,6.239,4.67,7.967,10.11,7.967a0.9,0.9,0,0,0,1.03-.544,9.262,9.262,0,0,0,.48-2.624c0-.512-0.26-0.544-0.74-0.544-0.35,0-1.05.032-1.6,0.032-3.26,0-5.63-.9-5.63-4.607a11.962,11.962,0,0,1,1.54-5.632,9.675,9.675,0,0,1,5.44-4.767,15.814,15.814,0,0,1,5.31-.672c0.77-.032,1.44.032,1.44-0.672a14.341,14.341,0,0,0-.29-2.336c-0.06-.384-0.13-0.8-0.61-0.8a1.731,1.731,0,0,0-.41.032c-2.4.384-4.84,0.7-7.27,0.992-4.64.544-9.31,1.024-13.98,1.312C2210.2,357.891,2209.75,357.8,2209.75,358.627Zm24.19,1.856a2.674,2.674,0,0,0-1.63,1.215,0.75,0.75,0,0,0,.23.416,28.348,28.348,0,0,1,2.08,2.656,0.733,0.733,0,0,0,.48.416,2.643,2.643,0,0,0,1.63-1.344A13.02,13.02,0,0,0,2233.94,360.483Zm-3.87,1.759a2.716,2.716,0,0,0-1.63,1.184,0.822,0.822,0,0,0,.29.448c0.7,0.864,1.41,1.76,2.05,2.688a0.644,0.644,0,0,0,.44.384,2.612,2.612,0,0,0,1.64-1.344A12.45,12.45,0,0,0,2230.07,362.242Zm-295.58,43.841c0-.512-1.92-2.464-2.37-2.912s-2.59-2.688-3.07-2.688a3.2,3.2,0,0,0-1.98,1.76,0.932,0.932,0,0,0,.44.608,37.148,37.148,0,0,1,4.29,4.448,1.007,1.007,0,0,0,.67.48A3,3,0,0,0,1934.49,406.083Zm-4.77,8.671a0.764,0.764,0,0,1,.9.864v5.376a1.334,1.334,0,0,1-.71,1.343,22.13,22.13,0,0,1-2.94,1.792,0.939,0.939,0,0,0-.8.672,6.134,6.134,0,0,0,.67,1.7c0.64,1.28.87,1.664,1.15,1.664a0.445,0.445,0,0,0,.45-0.384,0.838,0.838,0,0,1,.45-0.768c0.93-.672,1.79-1.344,2.69-2.112a0.62,0.62,0,0,1,.48-0.16,0.658,0.658,0,0,1,.57.384,4.662,4.662,0,0,0,2.47,2.016c1.56,0.576,4.06.832,9.5,0.832h8.38c1.35,0,1.92-.192,1.92-2.208,0-.544-0.03-0.9-0.6-0.9-0.26,0-1.96.064-2.37,0.1-2.05.064-4.13,0.1-6.18,0.1-2.3,0-7.33.032-9.34-.608-2.11-.672-2.59-1.92-2.59-4v-4.608c0-.864.06-1.76,0.06-2.624,0-1.248-.67-1.536-1.79-1.536-0.64,0-1.28.064-1.92,0.064h-1.09c-0.54,0-1.09-.064-1.6-0.064-0.73,0-.73.384-0.73,1.568s0,1.568.73,1.568c0.55,0,1.06-.064,1.6-0.064h0.64Zm10.66-6.559a0.843,0.843,0,0,1,.89-0.864h2.59a0.846,0.846,0,0,1,.9.864v0.543a0.912,0.912,0,0,1-.9.9h-2.59a0.91,0.91,0,0,1-.89-0.9V408.2Zm3.48,8.959a0.774,0.774,0,0,1,.9.9v0.64a0.774,0.774,0,0,1-.9.9h-2.56a0.8,0.8,0,0,1-.92-0.9v-0.672a0.779,0.779,0,0,1,.89-0.864h2.59Zm-2.59-2.592a0.91,0.91,0,0,1-.89-0.9V413.09a0.843,0.843,0,0,1,.89-0.864h2.59a0.846,0.846,0,0,1,.9.864v0.576a0.912,0.912,0,0,1-.9.9h-2.59Zm-4.06,4c0,1.216-.1,2.4-0.1,3.583,0,1.024.39,1.024,1.67,1.024,0.99,0,1.34-.032,1.56-0.32a0.864,0.864,0,0,1,.77-0.607h9.38c1.12,0,2.24.063,3.36,0.063,0.77,0,.73-0.319.73-1.375,0-1.12.04-1.408-.73-1.408-1.12,0-2.24.064-3.36,0.064h-1.73a0.764,0.764,0,0,1-.9-0.9v-0.64a0.764,0.764,0,0,1,.9-0.9h0.45c1.15,0,2.27.064,3.42,0.064,0.71,0,.74-0.288.74-1.376,0-1.12-.03-1.376-0.77-1.376-1.15,0-2.27.1-3.39,0.1h-0.45a0.775,0.775,0,0,1-.9-0.9V413.09a0.754,0.754,0,0,1,.9-0.864h0.54c1.09,0,2.21.064,3.3,0.064,0.77,0,.77-0.288.77-1.376,0-1.056,0-1.376-.74-1.376-1.12,0-2.21.1-3.33,0.1h-0.54a0.775,0.775,0,0,1-.9-0.9V408.2a0.754,0.754,0,0,1,.9-0.864h1.28c1.12,0,2.24.064,3.36,0.064,0.77,0,.74-0.32.74-1.344,0-1.088.03-1.376-.74-1.376-1.12,0-2.24.064-3.36,0.064h-1.06a0.424,0.424,0,0,1-.48-0.416,0.8,0.8,0,0,1,.07-0.288c0.48-.672.89-1.408,1.31-2.112a0.53,0.53,0,0,1,.35-0.224c0.35-.064.67-0.064,0.67-0.384a1.1,1.1,0,0,0-.86-0.672,19.57,19.57,0,0,0-2.53-.832,0.469,0.469,0,0,0-.38.384,33.7,33.7,0,0,1-1.7,3.808,1.125,1.125,0,0,1-1.25.736h-2.56a0.5,0.5,0,0,1-.57-0.48,10.271,10.271,0,0,1,.64-1.472c0.51-1.056.61-1.216,0.96-1.312a0.514,0.514,0,0,0,.45-0.416c0-.384-0.55-0.512-1.19-0.736a14.429,14.429,0,0,0-2.05-.608,0.488,0.488,0,0,0-.38.448,29.158,29.158,0,0,1-5.44,9.151,1.324,1.324,0,0,0-.45.672,3.376,3.376,0,0,0,1.83,1.92,2.982,2.982,0,0,0,1.21-1.088,0.487,0.487,0,0,1,.29-0.128,0.327,0.327,0,0,1,.29.352v7.52Zm29.09-13.791a0.889,0.889,0,0,1,.89-0.9h1.76a0.892,0.892,0,0,1,.9.9v3.615a0.846,0.846,0,0,1-.9.864h-1.76a0.843,0.843,0,0,1-.89-0.864v-3.615Zm13.28,19.486a0.892,0.892,0,0,1-.9-0.9v-2.623a0.912,0.912,0,0,1,.9-0.9h4.54a0.926,0.926,0,0,1,.9.9v2.623a0.9,0.9,0,0,1-.9.9h-4.54Zm-2.08-15.3a18.26,18.26,0,0,0,1.63,2.272,0.994,0.994,0,0,1,.22.608,0.934,0.934,0,0,1-.35.64,27.438,27.438,0,0,1-5.22,3.488,0.316,0.316,0,0,1-.19.064,0.341,0.341,0,0,1-.32-0.384c-0.03-.416-0.06-0.672-0.57-0.672-0.42,0-1.16.064-1.7,0.064a0.775,0.775,0,0,1-.9-0.9v-1.12a0.743,0.743,0,0,1,.87-0.864h0.54c0.99,0,1.19-.48,1.19-1.376v-0.608a0.3,0.3,0,0,1,.28-0.352,0.472,0.472,0,0,1,.26.1,2.425,2.425,0,0,0,1.28.768c0.54,0,1.31-.928,1.79-1.5a1.017,1.017,0,0,1,.67-0.544A0.58,0.58,0,0,1,1977.5,408.962Zm2.11,8.128a6.2,6.2,0,0,1-.77-0.032,0.281,0.281,0,0,1-.29-0.256,0.347,0.347,0,0,1,.13-0.256c0.83-.608,1.63-1.28,2.4-1.92a0.868,0.868,0,0,1,.61-0.256,1,1,0,0,1,.64.288c0.96,0.832,1.37,1.152,2.37,1.888a0.342,0.342,0,0,1,.16.256,0.316,0.316,0,0,1-.32.288h-4.93Zm1.5-7.84q-0.81-1.008-1.53-2.111a0.638,0.638,0,0,1-.07-0.288,0.488,0.488,0,0,1,.55-0.448h2.91c0.54,0,1.02.032,1.02,0.32a14.494,14.494,0,0,1-1.79,2.5,0.662,0.662,0,0,1-.54.32A0.672,0.672,0,0,1,1981.11,409.25Zm3.27,2.144c0.86-.992,3.9-4.735,3.9-5.919a2.3,2.3,0,0,0-2.05-1.92c-0.77,0-1.57.032-2.37,0.032h-2.91a0.5,0.5,0,0,1-.57-0.48,1.812,1.812,0,0,1,.25-0.672,0.929,0.929,0,0,1,.67-0.768,0.52,0.52,0,0,0,.42-0.384,0.528,0.528,0,0,0-.38-0.384c-0.45-.128-2.56-0.736-2.88-0.736a0.551,0.551,0,0,0-.45.544,23.454,23.454,0,0,1-4.74,7.3,0.467,0.467,0,0,1-.29.128,0.391,0.391,0,0,1-.32-0.384v-3.456c0-.672.04-1.344,0.04-2.016a1.071,1.071,0,0,0-1.22-1.312c-0.58,0-1.15.032-1.73,0.032h-3.45c-0.58,0-1.15-.032-1.73-0.032a1.059,1.059,0,0,0-1.22,1.28c0,0.7.04,1.376,0.04,2.048v4.543c0,0.672-.04,1.376-0.04,2.048a1.068,1.068,0,0,0,1.25,1.28c0.58,0,1.12-.032,1.7-0.032h0.25a0.764,0.764,0,0,1,.9.9v9.791a0.646,0.646,0,0,1-.54.768,2.261,2.261,0,0,1-.45.1,0.622,0.622,0,0,1-.58-0.736V416c0-.8.03-1.12,0.29-1.28a0.561,0.561,0,0,0,.38-0.384,0.415,0.415,0,0,0-.44-0.352c-0.32-.032-2.05-0.192-2.34-0.192a0.383,0.383,0,0,0-.48.384,0.845,0.845,0,0,0,.03.256,14.94,14.94,0,0,1,.1,2.144v7.231a0.624,0.624,0,0,1-.58.7c-0.29.064-.93,0.1-0.93,0.48a12.615,12.615,0,0,0,.61,1.888c0.29,0.8.39,1.184,0.74,1.184a0.407,0.407,0,0,0,.38-0.32,0.969,0.969,0,0,1,.96-0.576c2.63-.672,5.86-1.632,8.38-2.528a1.067,1.067,0,0,0,.84-1.344c0-.448-0.04-1.631-0.64-1.631-0.2,0-1.89.639-2.24,0.735a0.775,0.775,0,0,1-.26.064,0.6,0.6,0,0,1-.58-0.672v-3.135a0.776,0.776,0,0,1,.9-0.864,9.337,9.337,0,0,1,1.34.032,1.17,1.17,0,0,1,.96.512,1.6,1.6,0,0,0,1.03.8,1.415,1.415,0,0,0,.61-0.192,0.731,0.731,0,0,1,.28-0.064,0.489,0.489,0,0,1,.48.544c0,0.32.04,0.64,0.04,0.992v5.5c0,0.736-.07,1.472-0.07,2.208,0,0.672.45,0.672,1.6,0.672,1.38,0,1.51-.032,1.47-0.992a0.638,0.638,0,0,1,.74-0.736h4.74a0.61,0.61,0,0,1,.73.7v0.32c0,0.7.32,0.7,1.57,0.7,1.12,0,1.54,0,1.54-.7,0-.512-0.07-1.44-0.07-2.176v-5.5a8.315,8.315,0,0,1,.03-0.864,0.5,0.5,0,0,1,.52-0.544,0.931,0.931,0,0,1,.28.032,1.014,1.014,0,0,0,.29.064c0.58,0,1.63-1.76,1.63-2.272a0.834,0.834,0,0,0-.6-0.608,30.053,30.053,0,0,1-5.7-3.68,0.72,0.72,0,0,1-.32-0.576A0.753,0.753,0,0,1,1984.38,411.394Zm25.47-11.263c-0.32,0-.39.32-0.45,0.672a17.152,17.152,0,0,1-1.73,4.128,2.821,2.821,0,0,1-1.98.416h-0.93c-0.93,0-1.76-.064-2.3-0.064-0.8,0-.93.192-0.93,1.472,0,1.631.13,1.791,0.83,1.791,0.99,0,1.73-.1,2.24-0.1,0.45,0,.71.1,0.71,0.384,0,0.608-4.64,7.04-5.38,7.84a1.347,1.347,0,0,0-.42.7c0,0.576,2.15,1.856,2.72,1.856a0.52,0.52,0,0,0,.45-0.32,20.788,20.788,0,0,1,2.69-3.744,10.752,10.752,0,0,1,5.98-2.816,1.331,1.331,0,0,1,1.41,1.088,4.686,4.686,0,0,1,.16.9,0.823,0.823,0,0,1-.58.736c-0.67.32-1.34,0.672-1.98,1.056-2.21,1.312-4.54,2.88-4.54,5.76a4.849,4.849,0,0,0,3.2,4.575,11.824,11.824,0,0,0,5.05.832,42.524,42.524,0,0,0,6.15-.416c0.7-.16.73-0.416,0.73-1.376,0-1.824-.22-2.176-0.64-2.176a3.962,3.962,0,0,0-.64.064,23.406,23.406,0,0,1-5.95.8c-1.54,0-4.64-.192-4.64-2.335,0-1.984,3.3-3.392,3.46-3.392a0.441,0.441,0,0,1,.41.544c0,0.672-.06,1.376-0.06,2.08,0,0.832.57,0.9,1.95,0.9,1.22,0,1.38-.128,1.38-1.28,0-.992-0.04-1.952-0.04-2.944v-0.416a0.985,0.985,0,0,1,.84-1.056c1.24-.544,2.49-1.088,3.77-1.568,0.16-.064.32-0.1,0.45-0.16,0.61-.192.96-0.32,0.96-0.7,0-.544-0.77-3.008-1.38-3.008a2.743,2.743,0,0,0-.83.32,28.573,28.573,0,0,1-3.74,1.824,0.527,0.527,0,0,1-.48-0.544,3.266,3.266,0,0,0-3.65-2.88,8.888,8.888,0,0,0-3.49.832,1.218,1.218,0,0,1-.57.192,0.25,0.25,0,0,1-.26-0.224,10.427,10.427,0,0,1,1.09-1.855,1.129,1.129,0,0,1,.96-0.512c2.01-.224,4.03-0.576,6.05-0.992,0.67-.128,1.69-0.256,1.69-0.8a10.867,10.867,0,0,0-.25-1.728,0.949,0.949,0,0,0-.8-0.96,2.376,2.376,0,0,0-.8.192,23.449,23.449,0,0,1-3.72.9,0.31,0.31,0,0,1-.35-0.32,2.271,2.271,0,0,1,.32-0.736,1.774,1.774,0,0,1,1.06-1.088,0.515,0.515,0,0,0,.38-0.384C2013.43,401.6,2010.14,400.131,2009.85,400.131Zm30.78,17.023c0-.512-1.82-1.76-2.17-1.76-0.29,0-.35.128-0.61,0.672a51.041,51.041,0,0,1-5.31,8.9,1.519,1.519,0,0,0-.39.7,1.838,1.838,0,0,0,.74.9,9.509,9.509,0,0,0,2.05,1.536,0.414,0.414,0,0,0,.35-0.48c0-.1-0.03-0.192-0.03-0.288v-0.256a1.865,1.865,0,0,1,.38-0.9,80.091,80.091,0,0,0,4.61-8.031A4.489,4.489,0,0,0,2040.63,417.154ZM2040.44,404a0.686,0.686,0,0,0-.32-0.512c-0.45-.416-1.44-1.152-1.98-1.536a10.967,10.967,0,0,0-2.66-1.568c-0.61,0-1.66,1.728-1.66,2.08a1.016,1.016,0,0,0,.61.672c1.18,0.8,2.24,1.536,3.39,2.4a1.9,1.9,0,0,0,.89.512C2039.26,406.051,2040.44,404.515,2040.44,404Zm-6.59,3.264c-0.54,0-1.66,1.663-1.66,2.079a1,1,0,0,0,.6.64,41.257,41.257,0,0,1,3.81,2.784,1.083,1.083,0,0,0,.64.352c0.55,0,1.7-1.6,1.7-2.08,0-.416-0.93-1.12-1.47-1.5a3.283,3.283,0,0,1-.29-0.192A19.264,19.264,0,0,0,2033.85,407.267Zm17.92,6.207a0.706,0.706,0,0,1-.83-0.832v-3.648a0.746,0.746,0,0,1,.89-0.863h1.92a0.913,0.913,0,0,1,.96,1.151v3.3a0.748,0.748,0,0,1-.86.9h-2.08Zm-1.57,6.144a22,22,0,0,0,4.74,6.239c0.6,0.576,3.16,2.752,3.87,2.752a3.1,3.1,0,0,0,2.14-2.112,1.342,1.342,0,0,0-.77-0.8,22.912,22.912,0,0,1-8.16-8.511,0.566,0.566,0,0,1-.09-0.32,0.5,0.5,0,0,1,.57-0.448h3.65c1.19,0,2.4.064,3.59,0.064,0.83,0,.8-0.416.8-1.536,0-1.184.03-1.536-.8-1.536-0.36,0-.71,0-1.03.032a0.748,0.748,0,0,1-.86-0.864v-3.424c0-.768.03-1.567,0.03-2.335,0-1.12-.22-1.7-1.47-1.7-0.77,0-1.54.032-2.31,0.032h-2.27a0.757,0.757,0,0,1-.89-0.9v-1.44c0-1.056.03-1.344,0.44-1.6a0.577,0.577,0,0,0,.42-0.448,0.474,0.474,0,0,0-.51-0.448c-0.51-.064-2.59-0.192-3.11-0.192-0.38,0-.64.1-0.64,0.512a0.881,0.881,0,0,0,.04.32c0.06,0.736.09,1.344,0.09,2.048v1.248a0.771,0.771,0,0,1-.89.9h-1.99c-0.93,0-1.85-.064-2.53-0.064-0.64,0-.6.352-0.6,1.536,0,1.152-.04,1.568.57,1.568s1.67-.064,2.56-0.064h1.99a0.76,0.76,0,0,1,.89.863v2.432c0,0.416-.03.8-0.03,1.216a0.81,0.81,0,0,1-.96.832h-1.7c-1.18,0-2.4-.064-3.58-0.064-0.83,0-.8.384-0.8,1.536,0,1.12-.03,1.536.8,1.536,1.18,0,2.4-.064,3.58-0.064h1.32a0.576,0.576,0,0,1,.7.576,0.749,0.749,0,0,1-.03.256,14.99,14.99,0,0,1-7.07,8.191,1.188,1.188,0,0,0-.83.832,3.437,3.437,0,0,0,1.98,2.3,1.629,1.629,0,0,0,.83-0.384,18.8,18.8,0,0,0,7.58-8.575,0.493,0.493,0,0,1,.39-0.256A0.477,0.477,0,0,1,2050.2,419.618Zm33.02-16.671a1.947,1.947,0,0,1,.36-1.7,0.729,0.729,0,0,0,.41-0.48c0-.416-0.64-0.416-0.93-0.448-0.73-.064-2.04-0.192-2.75-0.192-0.32,0-.61.064-0.61,0.448,0,0.1.04,0.224,0.04,0.32a16.72,16.72,0,0,1,.12,1.728v0.32a0.757,0.757,0,0,1-.89.9h-5.15c-1.22,0-2.43-.032-3.68-0.032-0.9,0-1.83.224-1.83,1.312,0,0.32.04,0.9,0.04,1.728v1.215c0,0.416-.07.96-0.07,1.376,0,0.768.58,0.7,1.7,0.7s1.73,0.064,1.73-.7c0-.352-0.1-0.927-0.1-1.376v-0.543a0.774,0.774,0,0,1,.9-0.9h18.11a0.757,0.757,0,0,1,.89.9V408c0,0.447-.06,1.023-0.06,1.375,0,0.768.61,0.7,1.69,0.7,1.28,0,1.8.032,1.8-.736,0-.352-0.1-0.96-0.1-1.343v-1.152c0-.7.06-1.312,0.06-1.76,0-1.088-.99-1.312-1.88-1.312-1.22,0-2.44.064-3.65,0.064h-5.25A0.774,0.774,0,0,1,2083.22,402.947Zm-8.92,21.758c3.32,3.68,8.57,3.392,13.08,3.392h3.2c1.06,0,2.12,0,3.17-.032a2.408,2.408,0,0,0,1.28-.224,3.078,3.078,0,0,0,.77-2.24,0.727,0.727,0,0,0-.67-0.9,5.884,5.884,0,0,0-.77.032c-1.95.192-4.22,0.256-6.18,0.256-1.37,0-2.75.032-4.12-.064a0.779,0.779,0,0,1-.84-0.928v-3.1a0.764,0.764,0,0,1,.9-0.9h2.05c1.02,0,2.01.064,3.04,0.064,0.83,0,.8-0.416.8-1.536,0-1.152.03-1.568-.8-1.568-1.03,0-2.02.064-3.04,0.064h-2.05a0.754,0.754,0,0,1-.9-0.864v-2.08a0.764,0.764,0,0,1,.9-0.9h2.5c1.15,0,2.27.064,3.42,0.064,0.8,0,.8-0.352.8-1.536,0-1.12,0-1.536-.8-1.536-1.15,0-2.27.064-3.42,0.064h-10.05c-1.15,0-2.27-.064-3.42-0.064-0.84,0-.8.448-0.8,1.536,0,1.12,0,1.536.8,1.536,1.15,0,2.3-.064,3.42-0.064h2.37a0.757,0.757,0,0,1,.89.9v9.439a0.6,0.6,0,0,1-.57.672c-0.07,0-.16-0.032-0.26-0.032a6.522,6.522,0,0,1-3.42-2.783,1.388,1.388,0,0,1-.32-0.864,1.922,1.922,0,0,1,.09-0.576c0.26-.928.35-1.568,0.45-2.016,0.16-.832.19-0.992,0.67-1.216a0.569,0.569,0,0,0,.39-0.416c0-.384-0.52-0.48-1.44-0.672-0.39-.064-1.89-0.384-2.21-0.384-0.51,0-.51.448-0.54,0.832a19.172,19.172,0,0,1-4.16,10.079,1.267,1.267,0,0,0-.36.672c0,0.736,1.92,1.5,2.53,1.5a1.25,1.25,0,0,0,.87-0.64c0.67-.928,1.24-1.888,1.82-2.88a0.54,0.54,0,0,1,.48-0.32A0.622,0.622,0,0,1,2074.3,424.705Zm43.04-5.023c0.8,0,.96-0.16.99-0.96l0.19-7.9c0.06-2.112.29-6.4,0.29-7.039,0-.544-0.19-0.672-0.9-0.672h-2.24c-0.7,0-.89.128-0.89,0.672,0,0.64.22,4.927,0.28,6.847l0.23,8.1c0.03,0.8.19,0.96,0.99,0.96h1.06Zm-0.42,2.5a2.388,2.388,0,0,0-2.46,2.56,2.07,2.07,0,0,0,2.2,2.112,2.357,2.357,0,0,0,2.5-2.464A2.143,2.143,0,0,0,2116.92,422.177Z" transform="translate(-1820.28 -351.813)"/>
</svg>
