<svg xmlns="http://www.w3.org/2000/svg" width="325.971" height="57.78" viewBox="0 0 325.971 57.78">
  <defs>
    <style>
      .cls-1 {
        fill: #4da5dc;
        fill-rule: evenodd;
      }
    </style>
  </defs>
  <path id="大学生活を楽しみ3年生から_M-CAP参加" data-name="大学生活を楽しみ3年生から M-CAP参加" class="cls-1" d="M1004.92,6393.36c-1.15,4.44-4.17,7.3-8.23,9.17a1.188,1.188,0,0,1-.168.07,0.72,0.72,0,0,0-.528.55c0,0.39.624,2,1.224,2a2.131,2.131,0,0,0,.84-0.29,0.308,0.308,0,0,0,.12-0.05,17.273,17.273,0,0,0,8.372-8.67,0.394,0.394,0,0,1,.27-0.19,0.259,0.259,0,0,1,.24.17,19.419,19.419,0,0,0,6.34,7.66,9.636,9.636,0,0,0,2.35,1.37c0.55,0,1.41-1.32,1.41-1.83a0.629,0.629,0,0,0-.45-0.55,17.682,17.682,0,0,1-8.26-9.43c0-.08-0.02-0.12-0.02-0.22a0.414,0.414,0,0,1,.48-0.38h5.16c0.93,0,1.87.04,2.81,0.04,0.62,0,.57-0.28.57-1.24,0-.94.05-1.28-0.55-1.28-0.96,0-1.9.08-2.83,0.08h-5.4a0.567,0.567,0,0,1-.65-0.63c0.07-1.49.02-2.95,0.07-4.41a0.742,0.742,0,0,1,.36-0.75,0.334,0.334,0,0,0,.19-0.26,0.417,0.417,0,0,0-.45-0.31c-0.44-.05-1.85-0.17-2.26-0.17-0.26,0-.53.05-0.53,0.38a0.342,0.342,0,0,0,.03.17,18.644,18.644,0,0,1,.07,2.06v1.01c0,0.75-.03,1.51-0.07,2.26a0.6,0.6,0,0,1-.7.65h-5.352c-0.936,0-1.872-.08-2.808-0.08-0.6,0-.576.32-0.576,1.28,0,0.93-.024,1.24.576,1.24,0.936,0,1.872-.04,2.808-0.04h5.012a0.449,0.449,0,0,1,.53.45v0.17Zm29.47-6.36a4.723,4.723,0,0,0-.64-1.32,1.732,1.732,0,0,1-.15-0.22c-0.65-.98-1.01-1.63-1.46-1.63-0.43,0-1.63.55-1.63,1.06a0.73,0.73,0,0,0,.19.43,23.643,23.643,0,0,1,1.51,2.4,0.613,0.613,0,0,0,.53.41C1033.15,6388.13,1034.39,6387.5,1034.39,6387Zm5.24,1.42a0.3,0.3,0,0,1-.29-0.29,0.323,0.323,0,0,1,.07-0.22,21.158,21.158,0,0,0,1.3-1.94,0.621,0.621,0,0,1,.48-0.34,0.39,0.39,0,0,0,.41-0.29,0.492,0.492,0,0,0-.39-0.38,11.22,11.22,0,0,0-2.04-.77,0.405,0.405,0,0,0-.33.31,22.6,22.6,0,0,1-2.31,3.48,1.08,1.08,0,0,1-1.03.44h-7.37a0.121,0.121,0,0,1-.14-0.12,0.168,0.168,0,0,1,.07-0.15,1.249,1.249,0,0,0,.72-0.79,5.267,5.267,0,0,0-.87-1.58c-0.69-1.01-.98-1.4-1.36-1.4-0.46,0-1.66.6-1.66,1.06a0.738,0.738,0,0,0,.19.43,21.081,21.081,0,0,1,1.37,2.02,0.8,0.8,0,0,1,.05.21,0.338,0.338,0,0,1-.36.32c-0.46-.03-0.91-0.03-1.39-0.03-0.7,0-1.28.1-1.28,0.96,0,0.48.03,0.99,0.03,1.51v0.89c0,0.36-.05.77-0.05,1.11,0,0.62.31,0.62,1.22,0.62,0.87,0,1.25,0,1.25-.6,0-.36-0.05-0.74-0.05-1.13v-0.67a0.575,0.575,0,0,1,.68-0.67h13.29a0.582,0.582,0,0,1,.68.67v0.67c0,0.39-.08.75-0.08,1.13,0,0.6.39,0.6,1.28,0.6,0.91,0,1.24,0,1.24-.6,0-.38-0.07-0.77-0.07-1.13v-0.89c0-.55.05-1.05,0.05-1.53,0-.84-0.6-0.94-1.3-0.94C1040.97,6388.39,1040.3,6388.42,1039.63,6388.42Zm0.29,11.11c0.96,0,1.94.05,2.9,0.05,0.55,0,.53-0.27.53-1.08s0.02-1.11-.53-1.11c-0.96,0-1.94.07-2.9,0.07h-5.24a0.146,0.146,0,0,1-.14-0.09,0.2,0.2,0,0,1,.09-0.15c0.75-.5,4.28-3,4.28-3.79a1.721,1.721,0,0,0-.51-0.89,1.068,1.068,0,0,0-.98-0.5c-0.67,0-1.32.05-1.99,0.05h-5.19c-0.81,0-1.63-.07-2.47-0.07-0.58,0-.58.24-0.58,1.08,0,0.79,0,1.08.56,1.08,0.84,0,1.68-.08,2.49-0.08h4.2c0.27,0,.6-0.02.6,0.17a5.779,5.779,0,0,1-1.29,1.2,1.126,1.126,0,0,1-.77.24h-0.12c-0.15,0-.29-0.02-0.46-0.02a0.33,0.33,0,0,0-.41.33c0,0.1.05,0.6,0.08,0.8a0.562,0.562,0,0,1-.65.64h-4.92c-0.99,0-1.95-.07-2.91-0.07-0.55,0-.55.29-0.55,1.11,0,0.84,0,1.08.55,1.08,0.99,0,1.95-.05,2.91-0.05h4.92a0.568,0.568,0,0,1,.67.67v1.01c0,1.34.02,1.7-1.58,1.7-0.46,0-.92-0.05-1.25-0.05a0.552,0.552,0,0,0-.63.65,3.138,3.138,0,0,0,.29,1.32,1.383,1.383,0,0,0,1.35.39c1,0,2.73,0,3.57-.65a2.144,2.144,0,0,0,.72-1.73c0-.58-0.05-1.15-0.05-1.73v-0.91a0.582,0.582,0,0,1,.68-0.67h4.73Zm15.14-11.02a0.412,0.412,0,0,1-.51-0.41,0.422,0.422,0,0,1,.03-0.19c0.12-.38.21-0.72,0.29-0.96,0.21-.79.26-0.96,0.64-1.15a0.57,0.57,0,0,0,.44-0.43c0-.29-0.41-0.34-1.56-0.65-0.22-.05-1.01-0.26-1.18-0.26-0.31,0-.34.36-0.38,0.62a19.9,19.9,0,0,1-3.7,8.33,1.259,1.259,0,0,0-.36.62c0,0.53,1.39,1.13,1.82,1.13,0.7,0,2.26-3.05,2.6-3.7a0.858,0.858,0,0,1,.91-0.55h3.5a0.568,0.568,0,0,1,.67.67v2.57a0.568,0.568,0,0,1-.67.67h-2.97c-0.96,0-1.9-.07-2.86-0.07-0.67,0-.65.31-0.65,1.23s-0.02,1.24.65,1.24c0.96,0,1.9-.07,2.86-0.07h2.97a0.571,0.571,0,0,1,.67.68v3.47a0.562,0.562,0,0,1-.67.65h-5.06c-0.99,0-1.99-.05-3-0.05-0.63,0-.6.29-0.6,1.25,0,0.94-.03,1.25.6,1.25,1.01,0,2.01-.05,3-0.05h14.02c1,0,1.99.05,3,.05,0.62,0,.6-0.31.6-1.25s0.04-1.25-.6-1.25c-1.01,0-2.02.05-3,.05h-4.97a0.575,0.575,0,0,1-.68-0.65v-3.47a0.585,0.585,0,0,1,.68-0.68h3.05c0.96,0,1.92.07,2.88,0.07,0.64,0,.62-0.33.62-1.24,0-.89.02-1.23-0.62-1.23-0.96,0-1.92.07-2.88,0.07h-3.05a0.582,0.582,0,0,1-.68-0.67v-2.57a0.582,0.582,0,0,1,.68-0.67h4.08c0.98,0,1.97.05,2.95,0.05,0.62,0,.58-0.31.58-1.25s0.04-1.25-.58-1.25c-0.98,0-1.97.05-2.95,0.05h-4.08a0.575,0.575,0,0,1-.68-0.65v-1.8a2.04,2.04,0,0,1,.29-1.51,0.48,0.48,0,0,0,.31-0.36c0-.29-0.4-0.31-0.62-0.33-0.38-.05-1.94-0.2-2.28-0.2-0.24,0-.46.05-0.46,0.34,0,0.07.03,0.17,0.03,0.24,0.05,0.53.09,1.18,0.09,1.8v1.82a0.562,0.562,0,0,1-.67.65h-2.54Zm26.61,8.02a3.155,3.155,0,0,0-1.65-1.32c-0.19,0-.24.12-0.43,0.5a36.539,36.539,0,0,1-3.99,6.68,1.167,1.167,0,0,0-.29.52,1.407,1.407,0,0,0,.56.68,7.288,7.288,0,0,0,1.53,1.15,0.313,0.313,0,0,0,.27-0.36c0-.08-0.03-0.15-0.03-0.22v-0.19a1.391,1.391,0,0,1,.29-0.67,62.2,62.2,0,0,0,3.46-6.03A3.2,3.2,0,0,0,1081.67,6396.53Zm-5.11-7.42a2.758,2.758,0,0,0-1.22,1.56,0.763,0.763,0,0,0,.45.48,29.956,29.956,0,0,1,2.86,2.09,0.792,0.792,0,0,0,.48.26,2.5,2.5,0,0,0,1.27-1.56,2.682,2.682,0,0,0-1.1-1.12A14.084,14.084,0,0,0,1076.56,6389.11Zm4.97-2.45a0.529,0.529,0,0,0-.24-0.38c-0.34-.31-1.08-0.86-1.49-1.15a8.08,8.08,0,0,0-1.99-1.18c-0.46,0-1.25,1.32-1.25,1.54a0.694,0.694,0,0,0,.46.53c0.86,0.57,1.73,1.15,2.54,1.8a1.549,1.549,0,0,0,.65.38A2.422,2.422,0,0,0,1081.53,6386.66Zm5.18,14.98a0.641,0.641,0,0,1-.67-0.65v-2.66a0.683,0.683,0,0,1,.67-0.67H1092a0.67,0.67,0,0,1,.67.67v2.66a0.653,0.653,0,0,1-.67.65h-5.29Zm5.91,2.79c-0.02.72,0.05,0.72,1.25,0.72,0.93,0,1.25.02,1.25-.49,0-.33-0.05-1.07-0.05-1.67v-5.21c0-.56.02-1.01,0.02-1.44,0-.87-0.84-0.94-1.51-0.94-0.6,0-1.22.05-1.82,0.05h-0.48a0.6,0.6,0,0,1-.68-0.67v-1.68a0.568,0.568,0,0,1,.68-0.65h2.3c0.84,0,1.68.05,2.52,0.05,0.62,0,.6-0.34.6-1.18s0.02-1.15-.6-1.15c-0.84,0-1.68.05-2.52,0.05h-2.3a0.581,0.581,0,0,1-.68-0.68v-1.92a0.671,0.671,0,0,1,.63-0.79,27.813,27.813,0,0,0,2.95-.77,3.631,3.631,0,0,1,.58-0.16,0.959,0.959,0,0,1,.28.07,1.532,1.532,0,0,0,.32.05,0.3,0.3,0,0,0,.31-0.22,6,6,0,0,0-1.78-2.09,1.145,1.145,0,0,0-.41.12,32.453,32.453,0,0,1-9.53,1.75c-0.69.03-.96,0.05-0.96,0.51a3.681,3.681,0,0,0,.34,1.34,0.573,0.573,0,0,0,.62.36c0.63,0,2.91-.26,3.6-0.36a0.526,0.526,0,0,1,.63.6v1.51a0.575,0.575,0,0,1-.67.68h-2.24c-0.86,0-1.7-.05-2.54-0.05-0.6,0-.58.31-0.58,1.15s-0.02,1.18.58,1.18c0.84,0,1.68-.05,2.54-0.05h2.24a0.562,0.562,0,0,1,.67.65v1.68a0.578,0.578,0,0,1-.67.67h-0.63c-0.62,0-1.22-.05-1.85-0.05-0.67,0-1.51.07-1.51,0.96,0,0.48.05,0.94,0.05,1.42v5.16c0,0.52-.05,1.25-0.05,1.68,0,0.5.34,0.48,1.3,0.48,1.2,0,1.29-.03,1.27-0.67a0.466,0.466,0,0,1,.55-0.53h5.43A0.466,0.466,0,0,1,1092.62,6404.43Zm18.77-20.67c-0.24,0-.29.24-0.34,0.5a13.172,13.172,0,0,1-1.3,3.1,2.085,2.085,0,0,1-1.48.31h-0.7c-0.7,0-1.32-.05-1.73-0.05-0.6,0-.69.15-0.69,1.11,0,1.22.09,1.34,0.62,1.34,0.74,0,1.3-.07,1.68-0.07,0.34,0,.53.07,0.53,0.29,0,0.45-3.48,5.28-4.03,5.88a0.98,0.98,0,0,0-.32.53c0,0.43,1.61,1.39,2.04,1.39a0.4,0.4,0,0,0,.34-0.24,15.308,15.308,0,0,1,2.02-2.81,8.031,8.031,0,0,1,4.48-2.11,1,1,0,0,1,1.06.81,3.237,3.237,0,0,1,.12.68,0.619,0.619,0,0,1-.43.55,16.293,16.293,0,0,0-1.49.79c-1.66.98-3.41,2.16-3.41,4.32a3.652,3.652,0,0,0,2.4,3.43,8.933,8.933,0,0,0,3.79.63,32.635,32.635,0,0,0,4.61-.31c0.53-.13.56-0.32,0.56-1.04,0-1.36-.17-1.63-0.48-1.63a3.373,3.373,0,0,0-.48.05,17.762,17.762,0,0,1-4.47.6c-1.15,0-3.48-.15-3.48-1.75,0-1.49,2.47-2.55,2.59-2.55a0.332,0.332,0,0,1,.31.41c0,0.51-.04,1.03-0.04,1.56,0,0.62.43,0.67,1.46,0.67,0.91,0,1.03-.09,1.03-0.96,0-.74-0.02-1.46-0.02-2.21v-0.31a0.734,0.734,0,0,1,.62-0.79c0.94-.41,1.88-0.82,2.84-1.18a2.089,2.089,0,0,0,.33-0.12c0.46-.14.72-0.24,0.72-0.52,0-.41-0.57-2.26-1.03-2.26a1.95,1.95,0,0,0-.62.24,21.151,21.151,0,0,1-2.81,1.37,0.4,0.4,0,0,1-.36-0.41,2.454,2.454,0,0,0-2.74-2.16,6.662,6.662,0,0,0-2.62.62,0.825,0.825,0,0,1-.43.15,0.186,0.186,0,0,1-.19-0.17,7.3,7.3,0,0,1,.82-1.39,0.844,0.844,0,0,1,.72-0.39c1.51-.16,3.02-0.43,4.53-0.74,0.51-.1,1.28-0.19,1.28-0.6a7.038,7.038,0,0,0-.2-1.3,0.708,0.708,0,0,0-.6-0.72,1.957,1.957,0,0,0-.6.15,17,17,0,0,1-2.78.67,0.234,0.234,0,0,1-.27-0.24,1.677,1.677,0,0,1,.24-0.55,1.361,1.361,0,0,1,.8-0.82,0.377,0.377,0,0,0,.28-0.29C1114.07,6384.86,1111.6,6383.76,1111.39,6383.76Zm37.99,10.15a0.5,0.5,0,0,0-.19-0.36c-0.34-.33-1.42-1.2-1.8-1.51a11.464,11.464,0,0,0-2.31-1.58,2.235,2.235,0,0,0-1.32,1.46,0.69,0.69,0,0,0,.39.48,32.5,32.5,0,0,1,3.26,2.62,1.2,1.2,0,0,0,.55.36A2.426,2.426,0,0,0,1149.38,6393.91Zm-15.46-1.97a2.606,2.606,0,0,0-1.22-1.48,0.6,0.6,0,0,0-.39.21,27.839,27.839,0,0,1-3.86,2.57,0.5,0.5,0,0,0-.36.36,5.6,5.6,0,0,0,1.51,1.99,0.34,0.34,0,0,0,.29-0.38c0.02-.19.07-0.22,0.41-0.43,1.1-.75,2.21-1.52,3.26-2.36A0.685,0.685,0,0,0,1133.92,6391.94Zm15.53-5.66a4.4,4.4,0,0,0-1.17-1.15,2.863,2.863,0,0,0-.82-0.53,0.7,0.7,0,0,0-.36.26,19,19,0,0,1-2.78,2.6,0.955,0.955,0,0,0-.51.55,2.429,2.429,0,0,0,1.42,1.37c0.55,0,2.78-2.12,3.26-2.6a0.733,0.733,0,0,1,.39-0.26h0.21A0.294,0.294,0,0,0,1149.45,6386.28Zm-15.89,1.7a3.406,3.406,0,0,0-1.17-1.34c-0.34-.31-1.66-1.46-2-1.73a0.78,0.78,0,0,0-.4-0.21,2.283,2.283,0,0,0-1.42,1.36,0.685,0.685,0,0,0,.36.48c0.91,0.77,1.82,1.56,2.69,2.43a0.87,0.87,0,0,0,.57.36A2.212,2.212,0,0,0,1133.56,6387.98Zm7.23,3.08a0.552,0.552,0,0,1,.57.57v0.34a0.552,0.552,0,0,1-.57.57h-3.87a0.552,0.552,0,0,1-.57-0.57v-0.34a0.552,0.552,0,0,1,.57-0.57h3.87Zm-3.87-1.78a0.554,0.554,0,0,1-.57-0.58v-0.31a0.552,0.552,0,0,1,.57-0.57h3.87a0.552,0.552,0,0,1,.57.57v0.31a0.554,0.554,0,0,1-.57.58h-3.87Zm0.99-5.45a14.332,14.332,0,0,1-.68,1.51,0.843,0.843,0,0,1-.93.53c-0.41,0-.84-0.02-1.25-0.02a0.773,0.773,0,0,0-.91.91c0,0.48.02,0.98,0.02,1.46v4.4c0,0.4-.02,1.15-0.02,1.51,0,0.65.45,0.62,1.15,0.62a1.792,1.792,0,0,0,.94-0.14,0.42,0.42,0,0,1,.28-0.12h4.68a0.577,0.577,0,0,1,.32.14,2.259,2.259,0,0,0,.91.12c0.7,0,1.15.03,1.15-.62,0-.51-0.02-1.01-0.02-1.51v-4.4c0-.5.02-1,0.02-1.51a0.767,0.767,0,0,0-.91-0.86c-0.48,0-.96.02-1.44,0.02h-1.08a0.328,0.328,0,0,1-.39-0.31,0.458,0.458,0,0,1,.08-0.24c0.07-.1.12-0.22,0.21-0.34a0.554,0.554,0,0,1,.39-0.26c0.16-.05.45-0.07,0.45-0.29,0-.33-1.17-0.57-1.7-0.72a7.48,7.48,0,0,0-.96-0.24C1137.98,6383.47,1137.95,6383.64,1137.91,6383.83Zm2.59,15.99a29.5,29.5,0,0,0,5.59,3.88,9.592,9.592,0,0,0,2.07.96,2.352,2.352,0,0,0,1.36-1.65,0.883,0.883,0,0,0-.67-0.53,28.1,28.1,0,0,1-6.07-3.45,0.417,0.417,0,0,1-.1-0.2,0.227,0.227,0,0,1,.27-0.21h3c0.96,0,1.89.04,2.85,0.04,0.58,0,.56-0.26.56-1.08,0-.84.02-1.1-0.56-1.1-0.96,0-1.89.05-2.85,0.05h-5.26a0.549,0.549,0,0,1-.65-0.46,0.583,0.583,0,0,1,.24-0.45,0.459,0.459,0,0,0,.27-0.32c0-.28-0.36-0.28-0.63-0.33-0.43-.05-1.58-0.15-1.97-0.15a0.347,0.347,0,0,0-.43.34c0,0.1.05,0.5,0.07,0.74a0.545,0.545,0,0,1-.64.63h-5.31c-0.96,0-1.89-.05-2.85-0.05-0.58,0-.56.24-0.56,1.1,0,0.82-.02,1.08.56,1.08,0.96,0,1.89-.04,2.85-0.04h2.93a0.286,0.286,0,0,1,.29.21,0.27,0.27,0,0,1-.1.22,23.266,23.266,0,0,1-6.02,3.36,0.891,0.891,0,0,0-.72.55c0,0.41.74,1.66,1.25,1.66a9.53,9.53,0,0,0,2.18-.87,23.082,23.082,0,0,0,5.71-3.89,0.536,0.536,0,0,1,.19-0.07,0.277,0.277,0,0,1,.27.29v2.14c0,0.79-.07,1.58-0.07,2.28,0,0.74.36,0.72,1.27,0.72,0.96,0,1.25.02,1.25-.75,0-.74-0.05-1.48-0.05-2.25v-2.19a0.28,0.28,0,0,1,.24-0.31A0.429,0.429,0,0,1,1140.5,6399.82Zm19.89-14.33c-0.33,0-.36.24-0.36,0.6v0.26c0,0.99-.21,3.29-0.28,4.39-0.15,1.9-.22,3.8-0.22,5.69,0,1.75.12,4.08,1.2,5.52a5.273,5.273,0,0,0,4.22,1.85,8.42,8.42,0,0,0,7.3-4.58,8.919,8.919,0,0,0,.99-2.81,3.1,3.1,0,0,0-2-1.95c-0.36,0-.4.41-0.48,0.8a7.635,7.635,0,0,1-1.46,3.55,6.1,6.1,0,0,1-4.51,2.33c-2.6,0-2.55-2.91-2.55-4.78,0-1.37.22-8.98,1.06-9.6a0.531,0.531,0,0,0,.29-0.36,0.512,0.512,0,0,0-.48-0.34A21,21,0,0,0,1160.39,6385.49Zm27.22,10.41a6.67,6.67,0,0,1-.58,1.3c-0.31.55-.98,1.83-1.7,1.83a0.666,0.666,0,0,1-.62-0.77c0-1.52,1.96-2.62,2.64-2.62A0.245,0.245,0,0,1,1187.61,6395.9Zm5.09-10.44a1.6,1.6,0,0,0-.75.29,22.363,22.363,0,0,1-5.52,1.68c-0.43.07-.79,0.07-0.79,0.39s0.7,2.23,1.44,2.23a3.392,3.392,0,0,0,.94-0.29c0.79-.31,2.73-1.06,2.81-1.06a0.247,0.247,0,0,1,.26.24,0.667,0.667,0,0,1-.12.34c-0.55,1.08-1.06,2.18-1.58,3.26a0.818,0.818,0,0,1-.75.6,12.581,12.581,0,0,0-1.39.22c-2.3.53-4.68,2.45-4.68,4.97a2.927,2.927,0,0,0,2.86,3.07,3.221,3.221,0,0,0,2.71-1.63,40.459,40.459,0,0,0,1.92-3.58,0.733,0.733,0,0,1,.69-0.5,11.929,11.929,0,0,1,2.31.6c0.89,0.31,1.27.48,1.27,0.91a10.339,10.339,0,0,1-4.37,4.78,0.769,0.769,0,0,0-.45.45c0,0.46,1.63,1.49,1.99,1.49a7.5,7.5,0,0,0,1.82-1.27,16.076,16.076,0,0,0,3.12-4.03,0.635,0.635,0,0,1,.51-0.41,6.381,6.381,0,0,1,1.94,1.25,1.778,1.778,0,0,0,.72.5c0.48,0,1.68-1.87,1.68-2.33a0.7,0.7,0,0,0-.53-0.53c-0.33-.16-1.75-0.93-2.23-1.17a0.83,0.83,0,0,1-.55-0.75,1.715,1.715,0,0,1,.1-0.48c0.19-.74.38-1.51,0.52-2.28a2.413,2.413,0,0,1,.17-0.62,1.028,1.028,0,0,0,.39-0.53,0.428,0.428,0,0,0-.44-0.31c-0.28-.07-2.23-0.48-2.42-0.48a0.373,0.373,0,0,0-.36.46c0,0.12.02,0.24,0.02,0.36a15.536,15.536,0,0,1-.33,2.52,0.55,0.55,0,0,1-.55.52,1.088,1.088,0,0,1-.41-0.12c-0.44-.16-1.23-0.45-1.66-0.55-0.84-.21-1.32-0.24-1.32-0.67a1,1,0,0,1,.14-0.41c0.65-1.27,1.83-3.81,2.79-4.73a0.61,0.61,0,0,0,.24-0.4A4.174,4.174,0,0,0,1192.7,6385.46Zm23.59,8.57a3.885,3.885,0,0,0,2.02-3.57c0-2.16-1.61-4.16-5.55-4.16a10.375,10.375,0,0,0-4.75,1.13,0.612,0.612,0,0,0-.48.51,1.391,1.391,0,0,0,.14.48l0.53,1.1a0.593,0.593,0,0,0,.43.48,0.921,0.921,0,0,0,.48-0.22,6.331,6.331,0,0,1,3.36-.93c1.85,0,3.03.81,3.03,2.11,0,1.32-1.08,2.35-3.99,2.35-0.45,0-1.1-.02-1.36-0.02-0.63,0-.72.09-0.72,0.72v1.08c0,0.6.09,0.69,0.72,0.69,0.24,0,1.08-.02,1.6-0.02,3.1,0,4.49.84,4.49,2.5,0,1.51-1.41,2.97-4.25,2.97a7.325,7.325,0,0,1-3.72-.93,1.262,1.262,0,0,0-.45-0.2,0.556,0.556,0,0,0-.41.51l-0.41,1.18a1.069,1.069,0,0,0-.09.43,0.629,0.629,0,0,0,.5.55,11.31,11.31,0,0,0,4.49.86c5.23,0,7.2-2.66,7.2-5.33a3.762,3.762,0,0,0-2.76-3.79,0.442,0.442,0,0,1-.36-0.21A0.5,0.5,0,0,1,1216.29,6394.03Zm17.71-.14a0.664,0.664,0,0,1,.67.67v2.14a0.652,0.652,0,0,1-.67.67h-2.97a0.679,0.679,0,0,1-.68-0.67v-2.14a0.692,0.692,0,0,1,.68-0.67H1234Zm3.29-4.78a0.568,0.568,0,0,1,.67-0.67h2.91c0.98,0,1.94.05,2.93,0.05,0.6,0,.57-0.31.57-1.23s0.03-1.24-.57-1.24c-0.99,0-1.95.07-2.93,0.07h-8.72a0.379,0.379,0,0,1-.43-0.36,0.93,0.93,0,0,1,.05-0.24,0.836,0.836,0,0,1,.6-0.7,0.446,0.446,0,0,0,.36-0.31,0.44,0.44,0,0,0-.41-0.34,21.171,21.171,0,0,0-2.33-.64,0.352,0.352,0,0,0-.33.33,16.807,16.807,0,0,1-4.92,7.3,1.54,1.54,0,0,0-.6.72,2.7,2.7,0,0,0,1.61,1.58,1.435,1.435,0,0,0,.79-0.53,24.03,24.03,0,0,0,3.29-3.96,1.024,1.024,0,0,1,1-.5H1234a0.568,0.568,0,0,1,.67.67v1.83a0.6,0.6,0,0,1-.67.67h-3.14c-0.58,0-1.15-.05-1.73-0.05a0.947,0.947,0,0,0-1.18,1.08c0,0.6.03,1.18,0.03,1.78v2.28a0.558,0.558,0,0,1-.6.67c-0.79.02-1.59-.05-2.35-0.05-0.6,0-.58.26-0.58,1.22,0,0.92-.02,1.18.58,1.18,1,0,2.01-.05,3.02-0.05H1234a0.568,0.568,0,0,1,.67.67v0.68c0,1.17-.07,2.33-0.07,3.5,0,0.77.31,0.77,1.37,0.77,1.08,0,1.39,0,1.39-.79,0-1.15-.07-2.31-0.07-3.48v-0.68a0.568,0.568,0,0,1,.67-0.67h3.96c1.01,0,2.02.05,3.03,0.05,0.6,0,.57-0.26.57-1.2,0-.91.03-1.2-0.57-1.2-1.01,0-2.02.05-3.03,0.05h-3.96a0.568,0.568,0,0,1-.67-0.67v-2.14a0.568,0.568,0,0,1,.67-0.67h1.92c0.84,0,1.66.05,2.5,0.05,0.58,0,.6-0.24.6-1.18,0-.96,0-1.22-0.6-1.22-0.84,0-1.66.07-2.5,0.07h-1.92a0.6,0.6,0,0,1-.67-0.67v-1.83Zm19.54-.6a0.412,0.412,0,0,1-.51-0.41,0.422,0.422,0,0,1,.03-0.19c0.12-.38.21-0.72,0.28-0.96,0.22-.79.27-0.96,0.65-1.15a0.558,0.558,0,0,0,.43-0.43c0-.29-0.4-0.34-1.56-0.65a11.927,11.927,0,0,0-1.17-.26c-0.31,0-.34.36-0.39,0.62a19.758,19.758,0,0,1-3.69,8.33,1.259,1.259,0,0,0-.36.62c0,0.53,1.39,1.13,1.82,1.13,0.7,0,2.26-3.05,2.59-3.7a0.87,0.87,0,0,1,.92-0.55h3.5a0.568,0.568,0,0,1,.67.67v2.57a0.568,0.568,0,0,1-.67.67h-2.98c-0.96,0-1.89-.07-2.85-0.07-0.67,0-.65.31-0.65,1.23s-0.02,1.24.65,1.24c0.96,0,1.89-.07,2.85-0.07h2.98a0.571,0.571,0,0,1,.67.68v3.47a0.562,0.562,0,0,1-.67.65h-5.06c-0.99,0-2-.05-3-0.05-0.63,0-.6.29-0.6,1.25,0,0.94-.03,1.25.6,1.25,1,0,2.01-.05,3-0.05h14.01c1.01,0,2,.05,3,0.05,0.63,0,.6-0.31.6-1.25s0.05-1.25-.6-1.25c-1,0-2.01.05-3,.05h-4.97a0.572,0.572,0,0,1-.67-0.65v-3.47a0.582,0.582,0,0,1,.67-0.68h3.05c0.96,0,1.92.07,2.88,0.07,0.65,0,.63-0.33.63-1.24,0-.89.02-1.23-0.63-1.23-0.96,0-1.92.07-2.88,0.07h-3.05a0.578,0.578,0,0,1-.67-0.67v-2.57a0.578,0.578,0,0,1,.67-0.67h4.09c0.98,0,1.96.05,2.95,0.05,0.62,0,.57-0.31.57-1.25s0.05-1.25-.57-1.25c-0.99,0-1.97.05-2.95,0.05h-4.09a0.572,0.572,0,0,1-.67-0.65v-1.8a2.04,2.04,0,0,1,.29-1.51,0.48,0.48,0,0,0,.31-0.36c0-.29-0.41-0.31-0.62-0.33-0.39-.05-1.95-0.2-2.28-0.2-0.24,0-.46.05-0.46,0.34,0,0.07.03,0.17,0.03,0.24,0.04,0.53.09,1.18,0.09,1.8v1.82a0.562,0.562,0,0,1-.67.65h-2.54Zm36.98-1.17c-0.43,0-1.82.84-1.82,1.27a0.652,0.652,0,0,0,.21.41,16.621,16.621,0,0,1,3.22,5.13,0.72,0.72,0,0,0,.55.55c0.48,0,1.99-.88,1.99-1.41C1297.96,6392.69,1294.7,6387.34,1293.81,6387.34Zm-8.71-2.38c-0.27,0-.27.29-0.27,0.48,0,0.29.03,0.55,0.03,0.82a22.714,22.714,0,0,1-.24,3.09,0.759,0.759,0,0,1-.79.72,36.386,36.386,0,0,1-3.99.75c-0.31.02-.72,0.02-0.72,0.38,0,0.12.41,2.47,1.01,2.47a1.875,1.875,0,0,0,.5-0.14,19.286,19.286,0,0,1,2.74-.84,0.289,0.289,0,0,1,.31.31,13.08,13.08,0,0,1-.6,1.8,19.646,19.646,0,0,1-4.27,6.7,0.9,0.9,0,0,0-.34.55c0,0.55,1.54,1.46,1.95,1.46a0.65,0.65,0,0,0,.43-0.24,29.432,29.432,0,0,0,5.45-10.58c0.17-.67.41-0.87,1.77-0.87,1.44,0,1.52.99,1.52,2.19a14.376,14.376,0,0,1-1.06,5.42,2.3,2.3,0,0,1-2.5,1.47c-0.48,0-.88-0.07-1.12-0.07a0.322,0.322,0,0,0-.32.4,5.284,5.284,0,0,0,.41,1.71,1.027,1.027,0,0,0,1.11.57,4.9,4.9,0,0,0,4.53-2.59c1.06-1.92,1.44-5.16,1.44-7.37a3.845,3.845,0,0,0-1.46-3.48,4.731,4.731,0,0,0-2.74-.55c-0.09,0-.19.02-0.29,0.02a0.477,0.477,0,0,1-.52-0.5,1.171,1.171,0,0,1,.04-0.26c0.08-.41.12-0.75,0.17-1.04a2.038,2.038,0,0,1,.65-1.56,0.336,0.336,0,0,0,.19-0.28,0.646,0.646,0,0,0-.6-0.39C1287.16,6385.42,1285.34,6384.96,1285.1,6384.96Zm24.05,3.86c-0.39,0-.41.36-0.41,1.06,0,0.17-.03.34-0.03,0.53a38.366,38.366,0,0,1-.57,5.23c-0.15.79-.34,1.58-0.55,2.35a3.321,3.321,0,0,0-.24.84c0,0.7,1.6.94,1.82,0.94a0.971,0.971,0,0,0,.72-0.51c1.51-1.89,4.06-4,6.58-4a2.6,2.6,0,0,1,2.88,2.54c0,2.04-1.78,2.79-3.48,3.22a16.493,16.493,0,0,1-3.2.48c-0.31.02-.6,0.04-0.6,0.43a4.929,4.929,0,0,0,.41,1.56,0.85,0.85,0,0,0,.89.67,15.758,15.758,0,0,0,3.12-.65c2.91-.86,5.45-2.3,5.45-5.71a4.917,4.917,0,0,0-5.23-4.99c-2.28,0-3.72.96-5.5,2.21a0.549,0.549,0,0,1-.31.14,0.251,0.251,0,0,1-.24-0.29,4.293,4.293,0,0,1,.07-0.5c0.24-1.11.38-2.23,0.58-3.34a1.074,1.074,0,0,1,.5-0.93,0.314,0.314,0,0,0,.22-0.27,0.543,0.543,0,0,0-.44-0.33A16.006,16.006,0,0,0,1309.15,6388.82Zm1.53-2.76a0.792,0.792,0,0,0,.55.53,19.362,19.362,0,0,1,3.03,2.04,1.65,1.65,0,0,0,.77.48c0.5,0,1.48-1.46,1.48-1.89,0-.41-1.39-1.18-1.75-1.4a16.757,16.757,0,0,0-2.73-1.51C1311.45,6384.31,1310.68,6385.75,1310.68,6386.06ZM999.45,6428.3c0-.24.072-0.38,0.168-0.38a0.449,0.449,0,0,1,.312.22l4.75,5.92a0.632,0.632,0,0,0,.48.29,0.663,0.663,0,0,0,.51-0.29l4.8-5.92a0.439,0.439,0,0,1,.31-0.22c0.1,0,.17.14,0.17,0.38l0.12,6.17c0.05,1.3,0,3.58,0,4.28,0,0.6.12,0.71,0.72,0.71h1.46c0.6,0,.67-0.07.67-0.71,0-.36-0.12-3.17-0.14-4.45l-0.12-7.17c-0.02-1.71,0-3.58,0-3.94,0-.6-0.12-0.72-0.72-0.72h-0.79a1.147,1.147,0,0,0-1.15.58c-0.7.93-1.42,1.87-2.12,2.73l-3.19,4.06a0.758,0.758,0,0,1-.46.36,0.7,0.7,0,0,1-.45-0.36l-3.27-4.13c-0.69-.86-1.39-1.75-2.06-2.66a1.153,1.153,0,0,0-1.152-.58h-0.792c-0.6,0-.7.12-0.7,0.72,0,0.48,0,2.74-.024,3.94l-0.12,7.17c-0.024,1.73-.168,4.35-0.168,4.69,0,0.36.168,0.47,0.7,0.47h1.44c0.6,0,.72-0.11.72-0.71,0-.56-0.024-3.46,0-4.3Zm24.84,5.98c0.74,0,1.75.02,2.06,0.02,0.51,0,.58-0.14.58-0.69v-1.13c0-.55-0.07-0.7-0.58-0.7-0.31,0-1.32.03-2.06,0.03h-2.04c-0.77,0-1.87-.03-2.18-0.03-0.51,0-.58.15-0.58,0.7v1.13c0,0.55.07,0.69,0.58,0.69,0.31,0,1.41-.02,2.18-0.02h2.04Zm20.26,3.6-0.46-1.15c-0.14-.36-0.24-0.51-0.43-0.51a1.1,1.1,0,0,0-.48.17,6.2,6.2,0,0,1-2.79.6c-3.43,0-5.56-2.3-5.56-5.69s2.04-6.19,6.02-6.19a6.6,6.6,0,0,1,2.57.55,1.206,1.206,0,0,0,.48.15c0.19,0,.26-0.15.41-0.51l0.52-1.44a1.207,1.207,0,0,0,.12-0.45,0.586,0.586,0,0,0-.52-0.48,9.42,9.42,0,0,0-3.46-.6c-6,0-9.05,4.03-9.05,9.05,0,4.92,3.19,8.23,8.16,8.23a10.417,10.417,0,0,0,4.06-.77,0.661,0.661,0,0,0,.53-0.5A1.487,1.487,0,0,0,1044.55,6437.88Zm15.36-2.42c0.64,0,.79.04,1,0.57,0.34,0.79.65,1.61,1.06,2.76a0.781,0.781,0,0,0,.96.67h1.85c0.38,0,.55-0.04.55-0.24a1.108,1.108,0,0,0-.14-0.4c-0.75-1.66-1.28-2.86-1.8-4.11l-3.46-8.11c-0.43-1.01-.91-2.16-1.42-3.46a0.778,0.778,0,0,0-.96-0.67h-1.03a0.787,0.787,0,0,0-.96.67c-0.5,1.3-1.01,2.45-1.44,3.48l-3.43,8.14c-0.5,1.18-1.03,2.38-1.78,4.06a1.108,1.108,0,0,0-.14.4c0,0.2.17,0.24,0.55,0.24H1051a0.772,0.772,0,0,0,.96-0.67c0.41-1.15.72-1.97,1.06-2.76,0.21-.53.38-0.57,1.01-0.57h5.88Zm-3.2-8.48a0.527,0.527,0,0,1,.27-0.38,0.5,0.5,0,0,1,.26.38l2.23,5.5a0.96,0.96,0,0,1,.1.41c0,0.21-.17.26-0.55,0.26h-4.11c-0.38,0-.55-0.05-0.55-0.26a1.139,1.139,0,0,1,.1-0.41Zm15.58,12.48c0.55,0,.7-0.09.7-0.6,0-.16-0.08-2.8-0.08-4.2v-0.55c0-.6.12-0.72,0.72-0.72h1.9c4.44,0,6.38-2.52,6.38-5.95,0-3.38-2.06-4.97-5.47-4.97h-2.45c-1.12,0-3.02-.05-3.19-0.05-0.53,0-.67.2-0.67,0.77,0.02,1.37.05,2.86,0.05,4.03v7.44c0,1.4-.08,4.04-0.08,4.2,0,0.51.15,0.6,0.7,0.6h1.49Zm0.62-13.8c0-.6.12-0.72,0.72-0.72h2.31c1.77,0,3.14.68,3.14,2.76,0,2.38-1.56,3.32-3.55,3.32h-1.9c-0.6,0-.72-0.12-0.72-0.72v-4.64Zm29.6,8.79a1.756,1.756,0,0,0-.68-0.7,6.4,6.4,0,0,0-.5-0.41,1.889,1.889,0,0,0-.77-0.45,0.669,0.669,0,0,0-.31.09,27.987,27.987,0,0,1-9.82,3.77c-0.5.12-.91,0.12-0.91,0.53a1.408,1.408,0,0,0,.94,1.13,12.554,12.554,0,0,0,1.53-.26,38.873,38.873,0,0,0,9.17-3.27,1.638,1.638,0,0,1,.63-0.22c0.12,0,.24.03,0.33,0.03A0.335,0.335,0,0,0,1102.51,6434.45Zm-2.76-3a1.445,1.445,0,0,0-.65-0.65l-0.29-.22a3.19,3.19,0,0,0-.94-0.62,1.136,1.136,0,0,0-.48.31,22.907,22.907,0,0,1-6.93,3.87,0.965,0.965,0,0,0-.82.57,1.423,1.423,0,0,0,.94,1.08,4.8,4.8,0,0,0,1.08-.31,28.462,28.462,0,0,0,6.98-3.53,1.035,1.035,0,0,1,.58-0.24C1099.39,6431.71,1099.75,6431.71,1099.75,6431.45Zm6.09,5.88a1.855,1.855,0,0,0-.69-0.84c-0.17-.14-0.32-0.31-0.48-0.46a1.67,1.67,0,0,0-.72-0.5,0.884,0.884,0,0,0-.44.17c-3.96,2.45-9.14,3.48-13.75,3.67-0.41.02-1.1-.05-1.1,0.48a2.1,2.1,0,0,0,.29.84,0.774,0.774,0,0,0,.76.55c0.41,0,1.4-.07,1.88-0.12a35.665,35.665,0,0,0,12.72-3.33,1.406,1.406,0,0,1,.72-0.24c0.14,0,.26.02,0.4,0.02A0.358,0.358,0,0,0,1105.84,6437.33Zm-7.7-8.35a1.063,1.063,0,0,1,1.05.45,22.176,22.176,0,0,0,4.56,3.75,14.37,14.37,0,0,0,3.1,1.53,2.654,2.654,0,0,0,1.27-1.7,0.631,0.631,0,0,0-.45-0.43,21.243,21.243,0,0,1-5.57-3.2,0.257,0.257,0,0,1-.1-0.19,0.227,0.227,0,0,1,.27-0.21h1.65c1.13,0,2.28.04,3.41,0.04,0.7,0,.7-0.21.7-1.1s0.02-1.1-.7-1.1c-1.13,0-2.28.04-3.41,0.04h-5.35a0.36,0.36,0,0,1-.41-0.36,0.8,0.8,0,0,1,.05-0.21,1.013,1.013,0,0,1,.53-0.63,0.469,0.469,0,0,0,.41-0.31,0.538,0.538,0,0,0-.48-0.31,0.067,0.067,0,0,1-.05-0.07c0-.03.02-0.03,0.05-0.05,1.34-.05,2.68-0.12,4.05-0.19a0.931,0.931,0,0,1,.94.45,4.9,4.9,0,0,1,.26.44c0.29,0.48.36,0.6,0.58,0.6,0.36,0,1.65-.6,1.65-0.99,0-.65-2.56-3.84-3.09-4.49a0.994,0.994,0,0,0-.65-0.52c-0.31,0-1.63.57-1.63,0.91a2.291,2.291,0,0,0,.62.91c0.07,0.1.17,0.19,0.24,0.29a0.4,0.4,0,0,1,.1.24,0.316,0.316,0,0,1-.36.29c-1.83.12-3.63,0.14-5.45,0.19a0.308,0.308,0,0,1-.36-0.29,1.109,1.109,0,0,1,.07-0.22c0.27-.38.82-1.15,1.03-1.51a0.812,0.812,0,0,1,.53-0.33,0.348,0.348,0,0,0,.36-0.29c0-.43-2.64-0.96-2.71-0.96a0.394,0.394,0,0,0-.34.36c-0.14.33-1.17,2.37-1.41,2.81a0.9,0.9,0,0,1-.91.52c-0.82.03-1.66,0.03-2.48,0.03h-0.72c-0.36,0-.52.02-0.52,0.29a5.431,5.431,0,0,0,.24,1.05c0.26,0.94.33,1.23,0.6,1.23a0.419,0.419,0,0,0,.31-0.22,0.411,0.411,0,0,1,.31-0.24c1.85-.05,3.72-0.12,5.57-0.22a0.4,0.4,0,0,1,.43.36,0.808,0.808,0,0,1-.07.22c-0.15.24-.29,0.5-0.43,0.74a1.015,1.015,0,0,1-1.01.48h-3.48c-1.15,0-2.28-.04-3.41-0.04-0.72,0-.7.21-0.7,1.1,0,0.86-.02,1.1.67,1.1,1.16,0,2.29-.04,3.44-0.04h1.58a0.227,0.227,0,0,1,.27.21,0.275,0.275,0,0,1-.1.19,16.344,16.344,0,0,1-5.35,2.81c-0.46.15-.75,0.24-0.75,0.48,0,0.34.65,1.68,1.13,1.68a5.309,5.309,0,0,0,1.08-.33,20.6,20.6,0,0,0,7.08-4.61,1.208,1.208,0,0,1,1.08-.43h1.18Zm30.26,7.24a0.63,0.63,0,0,1-.65-0.67v-10.27a0.594,0.594,0,0,1,.65-0.65h2.21a0.635,0.635,0,0,1,.67.65v10.27a0.677,0.677,0,0,1-.67.67h-2.21Zm2.83,3.51c0,0.62.24,0.62,1.2,0.62,0.94,0,1.23.03,1.23-.64,0-.94-0.05-1.9-0.05-2.84v-11.13c0-.8.05-1.44,0.05-1.97,0-1.03-.19-1.49-1.37-1.49-0.5,0-1.03.02-1.54,0.02h-2.47c-0.5,0-1.03-.02-1.56-0.02a1.081,1.081,0,0,0-1.32,1.25c0,0.74.03,1.46,0.03,2.21v11.11c0,0.96-.05,1.92-0.05,2.86,0,0.64.29,0.64,1.2,0.64,0.96,0,1.22,0,1.22-.64,0-.22-0.02-0.41-0.02-0.63a0.549,0.549,0,0,1,.65-0.62h2.16a0.538,0.538,0,0,1,.64.62v0.65Zm-10.87-12.96a0.961,0.961,0,0,1,.96.29,5.15,5.15,0,0,1,.1,1.36c0,1.42-.1,3.46-0.12,3.99-0.05,1.1-.27,4.7-0.75,5.54a1.357,1.357,0,0,1-1.24.56,4.3,4.3,0,0,1-.82-0.08c-0.12,0-.26-0.02-0.36-0.02-0.48,0-.55.29-0.55,0.7a5.4,5.4,0,0,0,.21,1.51c0.17,0.43.75,0.43,1.52,0.43,2.11,0,3.28-.46,3.76-2.66,0.63-2.98.77-9.01,0.77-12.2,0-1.13-.31-1.8-1.73-1.8-0.76,0-1.56.05-2.35,0.05h-0.41a0.559,0.559,0,0,1-.64-0.67v-2.04c0-.84.02-1.11,0.31-1.27a0.484,0.484,0,0,0,.31-0.39c0-.26-0.29-0.29-0.48-0.31-0.38-.05-1.8-0.14-2.16-0.14-0.29,0-.46.07-0.46,0.38v0.24a13.858,13.858,0,0,1,.08,1.8v1.73a0.573,0.573,0,0,1-.63.67c-0.57-.02-1.17-0.07-1.77-0.07-0.58,0-.56.33-0.56,1.25,0,0.88-.02,1.2.58,1.2,0.31,0,1.34-.03,1.7-0.05a0.525,0.525,0,0,1,.6.62c-0.24,3.94-1,8.28-3.17,11.64a1.133,1.133,0,0,0-.21.51,2.349,2.349,0,0,0,1.63,1.46c0.53,0,1.3-1.75,1.49-2.18a32.186,32.186,0,0,0,2.66-11.43,0.585,0.585,0,0,1,.7-0.62h1.03Z" transform="translate(-995.969 -6383.47)"/>
</svg>
