<svg id="review-ttl-lead01.svg" xmlns="http://www.w3.org/2000/svg" width="308.969" height="52.35" viewBox="0 0 308.969 52.35">
  <defs>
    <style>
      .cls-1 {
        fill: #52a5dc;
        fill-rule: evenodd;
      }
    </style>
  </defs>
  <path id="シェイプ_11" data-name="シェイプ 11" class="cls-1" d="M146.911,6854.61c0,3.3-1.717,5.12-5.674,5.12a4.607,4.607,0,0,1-.643-0.03c-0.5-.07-0.6-0.17-0.6-0.67v-1.4c0-.51.073-0.66,0.406-0.66a1.1,1.1,0,0,1,.286.03,5.224,5.224,0,0,0,.857.05c1.717,0,2.6-.73,2.6-2.59v-7.11c0-1.4-.072-4.06-0.072-4.23,0-.5.142-0.6,0.692-0.6h1.526c0.547,0,.691.1,0.691,0.6,0,0.17-.072,2.83-0.072,4.23v7.26Zm9.779,0.97a0.793,0.793,0,0,0-1,.57c-0.333.8-.643,1.62-1.048,2.78a0.774,0.774,0,0,1-.955.67h-1.668c-0.382,0-.55-0.04-0.55-0.24a1.118,1.118,0,0,1,.145-0.41c0.738-1.69,1.263-2.89,1.763-4.07l3.411-8.19c0.428-1.03.929-2.19,1.43-3.49a0.778,0.778,0,0,1,.952-0.68h1.026a0.782,0.782,0,0,1,.955.68c0.5,1.3.976,2.46,1.4,3.47l3.434,8.16c0.524,1.25,1.048,2.46,1.789,4.12a1.115,1.115,0,0,1,.142.41c0,0.2-.168.24-0.547,0.24h-1.836a0.774,0.774,0,0,1-.955-0.67c-0.405-1.16-.715-1.98-1.049-2.78-0.214-.53-0.358-0.57-1-0.57h-5.84Zm0.429-3a1.118,1.118,0,0,0-.1.41c0,0.22.168,0.27,0.548,0.27h4.076c0.382,0,.55-0.05.55-0.27a1.1,1.1,0,0,0-.1-0.41l-2.217-5.52a0.532,0.532,0,0,0-.261-0.39,0.512,0.512,0,0,0-.263.39Zm19.655,7.02c-1.12,0-3,.05-3.17.05a0.555,0.555,0,0,1-.669-0.67c0-.17.049-2.78,0.049-4.13v-7.5c0-1.4-.072-4.06-0.072-4.23,0-.5.142-0.6,0.692-0.6h1.526c0.547,0,.692.1,0.692,0.6,0,0.17-.073,2.83-0.073,4.23v9c0,0.6.119,0.72,0.716,0.72h2.168c1.147,0,3.292-.07,3.457-0.07,0.5,0,.6.14,0.6,0.7v1.25c0,0.56-.095.7-0.6,0.7-0.165,0-2.31-.05-3.457-0.05h-1.859Zm23.656-16.26a6.108,6.108,0,0,0,1.025-.05c0.144,0,.382-0.05.526-0.05a2.991,2.991,0,0,1,1.526,1.65,4.839,4.839,0,0,1-.527.94c-0.141.21-.284,0.46-0.379,0.62a35.037,35.037,0,0,1-3.1,4.59,0.649,0.649,0,0,0,.168,1.04,38.521,38.521,0,0,1,4.028,3.11c0.573,0.51,1.169,1.06,1.717,1.64a0.466,0.466,0,0,1,.167.34,3.4,3.4,0,0,1-1.812,1.93,0.8,0.8,0,0,1-.6-0.36,25.267,25.267,0,0,0-5.267-4.78,0.818,0.818,0,0,0-.55-0.22,1.134,1.134,0,0,0-.715.41,26.294,26.294,0,0,1-5.961,4.22,3.686,3.686,0,0,1-1.048.46c-0.5,0-1.6-1.61-1.6-2.05a0.579,0.579,0,0,1,.5-0.48,23.671,23.671,0,0,0,10.634-9.15,2.348,2.348,0,0,0,.406-0.82c0-.36-0.333-0.41-0.692-0.41h-4.934c-1.025,0-2.052.05-3.077,0.05-0.643,0-.6-0.36-0.6-1.47,0-.85-0.024-1.21.573-1.21,1.024,0,2.049.05,3.1,0.05h6.483Zm17.75,2.08a0.743,0.743,0,0,0,.715-0.63c0.049-.48.168-3.07,0.191-3.64,0-.25-0.023-0.56.31-0.56,0.145,0,2.241.41,2.481,0.48a0.374,0.374,0,0,1,.356.27,0.8,0.8,0,0,1-.261.41,1.116,1.116,0,0,0-.335,1.04c-0.047.33-.191,1.78-0.191,2.02a0.539,0.539,0,0,0,.573.56l2.288-.03c0.691,0,2.6-.09,2.623-0.09a1.9,1.9,0,0,1,1.36,1.4c0,0.24-.335,2.92-0.382,3.37-0.238,1.86-.6,5.22-1.335,6.86a3.472,3.472,0,0,1-3.1,2.1,9.364,9.364,0,0,1-1.382.09,0.75,0.75,0,0,1-.836-0.48,5.235,5.235,0,0,1-.62-1.69,0.392,0.392,0,0,1,.431-0.43c0.238,0,.785.09,1.358,0.09,1.407,0,1.908-.65,2.265-2.36a43.629,43.629,0,0,0,.715-5.77c0-.65-0.333-0.6-1.407-0.6l-2.407.02a0.825,0.825,0,0,0-.764.87,20.18,20.18,0,0,1-4.672,9.39c-0.334.36-1.764,1.88-2.193,1.88a3.159,3.159,0,0,1-1.812-1.57,0.664,0.664,0,0,1,.333-0.43,16.692,16.692,0,0,0,5.174-7.29,12.885,12.885,0,0,0,.62-2.32,0.492,0.492,0,0,0-.5-0.5l-3.362.02c-0.642,0-2.073.1-2.382,0.1-0.525,0-.6-0.39-0.6-1.33,0-1.04.047-1.25,0.573-1.25,0.785,0,1.6.02,2.383,0.02ZM246.136,6857c0,1.06.049,2.12,0.049,3.16,0,0.65-.31.72-1.193,0.72-1.312,0-1.549-.07-1.549-0.7,0-1.03.047-2.07,0.047-3.11v-6.56c0-.15.072-0.68-0.38-0.68a2.589,2.589,0,0,0-.932.56c-0.715.53-4.5,3.08-5.125,3.08a4.055,4.055,0,0,1-1.859-1.92,0.473,0.473,0,0,1,.382-0.41,34.476,34.476,0,0,0,9.369-6.4,20.319,20.319,0,0,0,3.243-4.08,0.625,0.625,0,0,1,.38-0.36,8.945,8.945,0,0,1,1.621.99,2.062,2.062,0,0,1,.929.87,0.284,0.284,0,0,1-.237.24,1.3,1.3,0,0,0-.93.58,46.99,46.99,0,0,1-3.266,3.62,1.289,1.289,0,0,0-.549,1.09V6857Zm41.408-12.48a4.256,4.256,0,0,0,.952-0.07,1.228,1.228,0,0,1,.264-0.05,3.452,3.452,0,0,1,1.74,1.86,2.218,2.218,0,0,1-.287.58c-0.142.26-.382,0.63-0.619,1.11-2.36,4.61-4.65,8.11-9.06,10.98a15.476,15.476,0,0,1-3.242,1.71,3.42,3.42,0,0,1-2.027-1.61,0.642,0.642,0,0,1,.478-0.46,21.15,21.15,0,0,0,9.224-7.72c0.382-.58,1.836-2.93,1.836-3.53,0-.31-0.4-0.34-0.738-0.34h-4.529a1.042,1.042,0,0,0-1,.66c-0.428.65-3.2,3.98-3.815,3.98-0.31,0-2.05-.92-2.05-1.45a0.446,0.446,0,0,1,.214-0.34,22.246,22.246,0,0,0,6.366-8.61,0.784,0.784,0,0,1,.383-0.58,12.048,12.048,0,0,1,1.691.75,2.459,2.459,0,0,0,.31.14,1.074,1.074,0,0,1,.715.48,0.576,0.576,0,0,1-.357.32,1.7,1.7,0,0,0-.619.79c-0.1.17-.191,0.34-0.336,0.58a0.982,0.982,0,0,0-.165.44,0.393,0.393,0,0,0,.405.38h4.268Zm4.815-.48a1.9,1.9,0,0,1-1.216,1.01,0.467,0.467,0,0,1-.31-0.26c-0.478-.73-1-1.45-1.549-2.13a0.548,0.548,0,0,1-.168-0.31,2.072,2.072,0,0,1,1.239-.89A9.735,9.735,0,0,1,292.359,6844.04Zm2.455-1.49a1.855,1.855,0,0,1-1.216.98,0.366,0.366,0,0,1-.31-0.24,23.347,23.347,0,0,0-1.572-2.12,0.5,0.5,0,0,1-.168-0.29,2.038,2.038,0,0,1,1.239-.92A9.4,9.4,0,0,1,294.814,6842.55Zm16.63,4.39c0.547,0,1.644,0,2.145-.05a2.092,2.092,0,0,1,.429-0.05,2.861,2.861,0,0,1,1.693,1.59,6.173,6.173,0,0,1-.31.99,17.071,17.071,0,0,1-1.383,3.26,20.066,20.066,0,0,1-4.934,5.69c-0.669.56-3.243,2.42-3.983,2.42a3.02,3.02,0,0,1-1.645-1.79,1.387,1.387,0,0,1,.836-0.63,17.177,17.177,0,0,0,7.317-6.85,6.059,6.059,0,0,0,.645-1.57c0-.58-0.645-0.53-1.025-0.53h-8.868c-1,0-2,.05-3.028.05-0.669,0-.669-0.24-0.669-1.18,0-1.23.024-1.4,0.692-1.4,1,0,2.027.05,3.052,0.05h9.036Zm-1.6-5.22c0.978,0,2.194-.07,2.814-0.07,0.6,0,.642.27,0.642,1.47,0,0.82,0,1.14-.642,1.14-0.955,0-1.885-.05-2.814-0.05h-5.84c-0.93,0-1.861.05-2.791,0.05-0.666,0-.666-0.29-0.666-1.19,0-1.13.047-1.42,0.643-1.42,0.669,0,1.884.07,2.814,0.07h5.84Zm30.387,6.28a4.777,4.777,0,0,1-1.265,1.66,41.343,41.343,0,0,1-12.944,9.1,1.408,1.408,0,0,0-1,.82,0.237,0.237,0,0,1-.238.15,3.28,3.28,0,0,1-.929-1.26,6.718,6.718,0,0,1-.715-1.45,0.851,0.851,0,0,1,.738-0.41c5.269-1.57,11.228-6.13,14.615-10.49a0.593,0.593,0,0,1,.405-0.27C339.374,6845.85,340.233,6847.64,340.233,6848Zm-12.3-3.98a4.186,4.186,0,0,1,1.454,1.37,2.924,2.924,0,0,1-1.573,1.86,2.542,2.542,0,0,1-.955-0.65,31.6,31.6,0,0,0-3.17-2.25,0.606,0.606,0,0,1-.382-0.45c0-.37.955-1.91,1.5-1.91A18.813,18.813,0,0,1,327.931,6844.02Zm25.808,3.38c0.475,0,2.861,1.9,3.336,2.31,0.335,0.29,1.67,1.33,1.67,1.74a2.932,2.932,0,0,1-1.6,1.66,0.83,0.83,0,0,1-.524-0.31,34.689,34.689,0,0,0-3.457-2.82,0.411,0.411,0,0,0-.238-0.1,0.321,0.321,0,0,0-.286.39v6.58c0,0.97.047,1.91,0.047,2.88,0,1.11-.024,1.25-1.477,1.25-0.955,0-1.361-.02-1.361-0.82,0-1.09.073-2.17,0.073-3.26v-13.75c0-.63-0.047-1.28-0.073-1.88,0-.12-0.023-0.34-0.023-0.44a0.286,0.286,0,0,1,.31-0.36c0.144,0,.643.07,0.811,0.1,1.074,0.14,2.049.24,2.049,0.58a0.715,0.715,0,0,1-.118.31,1.955,1.955,0,0,0-.261,1.28c0,0.36.023,0.82,0.023,1.42v3.62a0.2,0.2,0,0,0,.191.24,0.241,0.241,0,0,0,.214-0.1A1.227,1.227,0,0,1,353.739,6847.4Zm5.672-2.39a1.977,1.977,0,0,1-1.167,1.06,0.633,0.633,0,0,1-.358-0.27c-0.5-.67-1.049-1.3-1.622-1.93a0.551,0.551,0,0,1-.214-0.34,2.024,2.024,0,0,1,1.169-.96A8.943,8.943,0,0,1,359.411,6845.01Zm2.481-1.69a1.95,1.95,0,0,1-1.169,1.08,0.558,0.558,0,0,1-.333-0.29c-0.5-.65-1.1-1.32-1.645-1.9a0.679,0.679,0,0,1-.214-0.34,2.075,2.075,0,0,1,1.167-.99A9.268,9.268,0,0,1,361.892,6843.32Zm16.893,0.02a6.1,6.1,0,0,0,1.025-.05c0.145,0,.382-0.05.527-0.05a2.993,2.993,0,0,1,1.525,1.65,4.871,4.871,0,0,1-.526.94c-0.142.21-.284,0.46-0.38,0.62a35.129,35.129,0,0,1-3.1,4.59,0.647,0.647,0,0,0-.191.46,0.654,0.654,0,0,0,.358.58,38.416,38.416,0,0,1,4.028,3.11c0.573,0.51,1.17,1.06,1.717,1.64a0.467,0.467,0,0,1,.168.34,3.406,3.406,0,0,1-1.813,1.93,0.806,0.806,0,0,1-.6-0.36,25.267,25.267,0,0,0-5.267-4.78,0.816,0.816,0,0,0-.55-0.22,1.137,1.137,0,0,0-.715.41,26.294,26.294,0,0,1-5.961,4.22,3.686,3.686,0,0,1-1.048.46c-0.5,0-1.6-1.61-1.6-2.05a0.579,0.579,0,0,1,.5-0.48,23.677,23.677,0,0,0,10.634-9.15,2.345,2.345,0,0,0,.4-0.82c0-.36-0.333-0.41-0.692-0.41H372.3c-1.025,0-2.053.05-3.078,0.05-0.643,0-.6-0.36-0.6-1.47,0-.85-0.023-1.21.573-1.21,1.025,0,2.05.05,3.1,0.05h6.482Zm23.709,0.75a7.424,7.424,0,0,0,1.454-.12,0.687,0.687,0,0,1,.24-0.05,2.626,2.626,0,0,1,1.239,1.64,0.657,0.657,0,0,1-.144.36,5.58,5.58,0,0,0-.594,1.18,42.873,42.873,0,0,1-2.267,4.49,0.86,0.86,0,0,0-.165.49,0.773,0.773,0,0,0,.428.62,4.2,4.2,0,0,1,1.335,1.26,3.218,3.218,0,0,1-1.526,1.83,0.521,0.521,0,0,1-.359-0.19c-0.333-.29-0.642-0.53-0.975-0.82a0.829,0.829,0,0,0-.525-0.24,1.294,1.294,0,0,0-.81.58,18.894,18.894,0,0,1-5.2,4.07,12.872,12.872,0,0,1-2.886,1.24c-0.62,0-1.717-1.55-1.717-1.89,0-.29.405-0.36,1.025-0.55a16.59,16.59,0,0,0,6.818-4.35,0.938,0.938,0,0,0,.359-0.6,0.565,0.565,0,0,0-.287-0.5,26.321,26.321,0,0,0-2.383-1.31,0.968,0.968,0,0,1-.715-0.53c0-.34.93-1.81,1.454-1.81a17.593,17.593,0,0,1,3.075,1.57,1.031,1.031,0,0,0,.454.14c0.452,0,.666-0.45,1.311-1.73a2.094,2.094,0,0,1,.142-0.34,7.7,7.7,0,0,0,.62-1.59c0-.51-0.62-0.49-0.978-0.49h-4.552a1.087,1.087,0,0,0-1.051.63,35.763,35.763,0,0,1-3.1,3.72,1.288,1.288,0,0,1-.764.46c-0.429,0-1.978-1.02-1.978-1.43a0.706,0.706,0,0,1,.357-0.46,22.214,22.214,0,0,0,6.224-8.66,0.725,0.725,0,0,1,.429-0.6,5.321,5.321,0,0,1,1.334.58,4.371,4.371,0,0,1,1.407.82,0.305,0.305,0,0,1-.239.26,1.274,1.274,0,0,0-.716.8c-0.093.17-.214,0.39-0.379,0.65a1.326,1.326,0,0,0-.191.51,0.4,0.4,0,0,0,.428.36h4.363Zm12.027,3.72c0.263,0.31.811,1.18,1.051,1.56a9,9,0,0,1,1.025,1.91c0,0.51-1.431,1.11-1.717,1.11a0.568,0.568,0,0,1-.454-0.41,23.993,23.993,0,0,0-1.717-2.92,0.932,0.932,0,0,1-.189-0.43c0-.44,1.286-1.04,1.6-1.04A0.533,0.533,0,0,1,414.521,6847.81Zm11.8-.39a0.529,0.529,0,0,1,.429.43,0.556,0.556,0,0,1-.285.37,0.745,0.745,0,0,0-.309.5,18.145,18.145,0,0,1-3.269,6.76,13.63,13.63,0,0,1-6.482,4.2,4.036,4.036,0,0,1-.741.19,2.8,2.8,0,0,1-1.335-1.67,0.42,0.42,0,0,1,.382-0.43c3.075-.84,5.675-2.27,7.391-5.09a14.167,14.167,0,0,0,1.955-5.48c0.023-.22.046-0.48,0.31-0.48A16.184,16.184,0,0,1,426.322,6847.42Zm-5.959.53a9.431,9.431,0,0,1,1.072,1.98c0,0.48-1.381,1.11-1.717,1.11a0.663,0.663,0,0,1-.475-0.46,26.536,26.536,0,0,0-1.67-2.85,0.814,0.814,0,0,1-.215-0.48c0-.41,1.289-1.01,1.6-1.01a2.665,2.665,0,0,1,1.193,1.35Zm24.445-4.71c0.5,0,1.671,0,2.146-.04,0.095,0,.359-0.05.431-0.05a2.97,2.97,0,0,1,1.6,1.54c0,0.24-.214.51-0.405,1.55-0.811,4.65-2.5,7.86-6.364,10.61a22.279,22.279,0,0,1-4.577,2.47,2.579,2.579,0,0,1-.788.21c-0.573,0-1.43-1.62-1.43-2a0.422,0.422,0,0,1,.429-0.39,16.606,16.606,0,0,0,5.935-3.18,11.245,11.245,0,0,0,3.911-7.05,4.568,4.568,0,0,0,.047-0.58c0-.46-0.4-0.5-0.834-0.5h-8.463c-1,0-1.98.04-2.979,0.04-0.741,0-.715-0.21-0.715-1.3,0-1.11-.026-1.37.643-1.37,1.025,0,2.05.04,3.074,0.04h8.344Z" transform="translate(-140 -6808.62)"/>
  <path id="シェイプ_12" data-name="シェイプ 12" class="cls-1" d="M144.1,6823.87c0,0.39-.062.49-0.4,0.49-0.11,0-.838-0.04-1.343-0.04H140.48c-0.395,0-.475-0.08-0.475-0.5v-14.65c0-.41.08-0.5,0.475-0.5h1.884c0.5,0,1.233-.03,1.343-0.03,0.333,0,.4.1,0.4,0.48v0.62c0,0.41-.046.49-0.38,0.49-0.205,0-.853-0.02-1.358-0.02h-0.459c-0.382,0-.444.07-0.444,0.46v11.64c0,0.41.062,0.47,0.444,0.47h0.459c0.5,0,1.153-.01,1.358-0.01,0.334,0,.38.08,0.38,0.48v0.62Zm8.3-2.86c0.807,0,2.294-.04,2.4-0.04,0.334,0,.4.1,0.4,0.49v0.79c0,0.38-.064.48-0.4,0.48-0.11,0-1.6-.03-2.4-0.03h-2.056c-0.807,0-2.294.03-2.4,0.03-0.333,0-.395-0.1-0.395-0.48v-0.31a0.806,0.806,0,0,1,.379-0.82,9.051,9.051,0,0,0,.806-0.7c2.847-2.65,4.493-4.32,4.493-5.97a1.784,1.784,0,0,0-2.01-1.84,3.107,3.107,0,0,0-2.309,1.11,0.507,0.507,0,0,1-.331.23,0.589,0.589,0,0,1-.318-0.23l-0.633-.72a0.658,0.658,0,0,1-.19-0.36,0.61,0.61,0,0,1,.223-0.37,5.262,5.262,0,0,1,3.717-1.52c2.4,0,3.75,1.51,3.75,3.43,0,2.37-1.789,4.26-4.209,6.49a0.448,0.448,0,0,0-.174.24c0,0.06.095,0.1,0.285,0.1H152.4Zm16.07-4.5c0,3.99-2.168,6.32-4.811,6.32-2.53,0-4.54-2.02-4.54-5.85,0-3.43,1.661-6.21,4.778-6.21C166.379,6810.77,168.468,6812.69,168.468,6816.51Zm-7.5.52c0,2.62,1.092,4.01,2.689,4.01,1.694,0,2.96-1.73,2.96-4.46,0-2.63-1.156-3.94-2.722-3.94C161.886,6812.64,160.968,6814.67,160.968,6817.03Zm15.811,3.98c0.808,0,2.3-.04,2.405-0.04,0.333,0,.4.1,0.4,0.49v0.79c0,0.38-.064.48-0.4,0.48-0.11,0-1.6-.03-2.405-0.03h-2.055c-0.808,0-2.295.03-2.405,0.03-0.333,0-.395-0.1-0.395-0.48v-0.31a0.806,0.806,0,0,1,.38-0.82,9.183,9.183,0,0,0,.805-0.7c2.848-2.65,4.493-4.32,4.493-5.97a1.783,1.783,0,0,0-2.009-1.84,3.107,3.107,0,0,0-2.31,1.11,0.507,0.507,0,0,1-.331.23,0.584,0.584,0,0,1-.317-0.23L172,6813a0.651,0.651,0,0,1-.19-0.36,0.6,0.6,0,0,1,.223-0.37,5.26,5.26,0,0,1,3.717-1.52c2.4,0,3.75,1.51,3.75,3.43,0,2.37-1.789,4.26-4.209,6.49a0.442,0.442,0,0,0-.174.24c0,0.06.094,0.1,0.284,0.1h1.376Zm16.07-4.5c0,3.99-2.168,6.32-4.811,6.32-2.53,0-4.539-2.02-4.539-5.85,0-3.43,1.661-6.21,4.778-6.21C190.76,6810.77,192.849,6812.69,192.849,6816.51Zm-7.5.52c0,2.62,1.092,4.01,2.689,4.01,1.694,0,2.96-1.73,2.96-4.46,0-2.63-1.155-3.94-2.721-3.94C186.267,6812.64,185.349,6814.67,185.349,6817.03Zm19.833-3.05a0.4,0.4,0,0,0,.441.47h1.267c0.553,0,1.092-.05,1.645-0.05,0.4,0,.4.19,0.4,0.86,0,0.65-.015.82-0.4,0.82-0.553,0-1.092-.03-1.645-0.03h-1.267a0.382,0.382,0,0,0-.441.46v1.5a0.389,0.389,0,0,0,.441.47h2.612c0.664,0,1.328-.04,1.992-0.04,0.4,0,.382.2,0.382,0.84s0.015,0.84-.382.84c-0.664,0-1.328-.04-1.992-0.04h-2.612a0.389,0.389,0,0,0-.441.47v0.47c0,0.82.046,1.63,0.046,2.43,0,0.56-.205.56-0.917,0.56-0.695,0-.9,0-0.9-0.54,0-.82.048-1.63,0.048-2.45v-0.47a0.389,0.389,0,0,0-.443-0.47H199.09c-0.664,0-1.328.04-1.992,0.04-0.4,0-.38-0.19-0.38-0.82,0-.67-0.017-0.86.38-0.86,0.5,0,1.028.05,1.551,0.04a0.382,0.382,0,0,0,.394-0.47v-1.6c0-.41-0.015-0.82-0.015-1.24a0.638,0.638,0,0,1,.774-0.75c0.38,0,.759.03,1.141,0.03h2.071a0.4,0.4,0,0,0,.443-0.47v-1.27a0.386,0.386,0,0,0-.443-0.47h-2.089a0.673,0.673,0,0,0-.664.35,16.4,16.4,0,0,1-2.166,2.77,0.99,0.99,0,0,1-.523.37,1.833,1.833,0,0,1-1.061-1.11,1.072,1.072,0,0,1,.4-0.5,11.883,11.883,0,0,0,3.243-5.1,0.238,0.238,0,0,1,.22-0.23,14.434,14.434,0,0,1,1.535.45,0.287,0.287,0,0,1,.27.23,0.294,0.294,0,0,1-.239.22,0.59,0.59,0,0,0-.394.49,0.635,0.635,0,0,0-.031.17,0.254,0.254,0,0,0,.284.25h5.742c0.649,0,1.282-.05,1.93-0.05,0.4,0,.38.22,0.38,0.87s0.015,0.85-.38.85c-0.648,0-1.281-.03-1.93-0.03h-1.915a0.386,0.386,0,0,0-.441.47v1.27Zm-4.129,2.07a0.46,0.46,0,0,0-.444.46v1.5a0.462,0.462,0,0,0,.444.47h1.961a0.452,0.452,0,0,0,.443-0.47v-1.5a0.449,0.449,0,0,0-.443-0.46h-1.961Zm18.483-3.68a0.084,0.084,0,0,0-.095.09,0.33,0.33,0,0,0,.207.15,0.67,0.67,0,0,1,.475.39,0.193,0.193,0,0,1-.223.16,0.488,0.488,0,0,0-.411.34c-0.048.08-.094,0.16-0.174,0.28a0.556,0.556,0,0,0-.11.32,0.474,0.474,0,0,0,.141.34,13.666,13.666,0,0,0,1.123,1.05,0.434,0.434,0,0,1,.192.27,1.883,1.883,0,0,1-1.013,1.07,4.388,4.388,0,0,1-1.235-1.1,0.4,0.4,0,0,0-.284-0.16,0.37,0.37,0,0,0-.285.16c-0.428.5-1.218,1.35-1.692,1.79a0.737,0.737,0,0,1-.428.23,1.768,1.768,0,0,1-1.043-.95,0.868,0.868,0,0,1,.346-0.44,18.342,18.342,0,0,0,3.038-3.6,0.286,0.286,0,0,0,.048-0.17,0.218,0.218,0,0,0-.254-0.22h-0.633c-0.615,0-1.248.04-1.866,0.04-0.379,0-.379-0.19-0.379-0.81s-0.016-.83.379-0.83c0.618,0,1.251.03,1.866,0.03h2.958a0.4,0.4,0,0,0,.444-0.47c0-.32-0.031-0.62-0.064-0.96,0-.05-0.016-0.15-0.016-0.2,0-.2.144-0.23,0.3-0.23,0.269,0,1.043.08,1.343,0.12,0.143,0.01.428,0.01,0.428,0.23a0.323,0.323,0,0,1-.19.22,0.593,0.593,0,0,0-.174.55v0.29a0.372,0.372,0,0,0,.428.45h3.02c0.617,0,1.235-.03,1.868-0.03,0.395,0,.379.2,0.379,0.83s0,0.81-.379.81c-0.633,0-1.251-.04-1.868-0.04H225.3a0.084,0.084,0,0,0-.095.09,0.308,0.308,0,0,0,.08.1,0.959,0.959,0,0,1,.6.42,0.23,0.23,0,0,1-.269.18,0.477,0.477,0,0,0-.395.32c-0.046.07-.095,0.13-0.159,0.24a0.619,0.619,0,0,0-.126.33,0.562,0.562,0,0,0,.126.35,15.954,15.954,0,0,0,2.137,2.11,0.715,0.715,0,0,1,.285.39,2.024,2.024,0,0,1-1.046,1.01c-0.379,0-2.025-1.88-2.34-2.25a0.332,0.332,0,0,0-.269-0.15,0.364,0.364,0,0,0-.269.13c-0.49.54-.854,0.91-1.377,1.41a0.256,0.256,0,0,0-.079.13,0.126,0.126,0,0,0,.144.12c0.125,0.02.379,0.04,0.379,0.24a0.317,0.317,0,0,1-.19.23,0.425,0.425,0,0,0-.159.35,0.374,0.374,0,0,0,.428.44h3.417c0.664,0,1.312-.03,1.961-0.03,0.395,0,.379.2,0.379,0.83s0.016,0.84-.379.84c-0.649,0-1.3-.05-1.961-0.05h-3.432a0.382,0.382,0,0,0-.428.47v1.19c0,0.54.031,1.09,0.031,1.63,0,0.52-.159.55-0.823,0.55s-0.9.02-.9-0.54c0-.5.033-1.05,0.033-1.64v-1.19a0.387,0.387,0,0,0-.443-0.47h-3.371c-0.649,0-1.313.05-1.961,0.05-0.4,0-.38-0.22-0.38-0.84s0-.83.38-0.83c0.648,0,1.312.03,1.961,0.03h3.371a0.367,0.367,0,0,0,.427-0.45,3.578,3.578,0,0,0-.033-0.39,0.75,0.75,0,0,0-.205-0.42,0.645,0.645,0,0,1-.22-0.37,0.888,0.888,0,0,1,.346-0.43,17.915,17.915,0,0,0,3.355-3.76,0.282,0.282,0,0,0,.046-0.15,0.215,0.215,0,0,0-.251-0.22h-4.083Zm23.768-2.95a0.2,0.2,0,0,1,.174-0.16,3.825,3.825,0,0,1,1.425.78,0.2,0.2,0,0,1-.207.16,0.388,0.388,0,0,0-.3.15c-0.141.3-.474,0.88-0.633,1.17a0.237,0.237,0,0,0-.046.15,0.2,0.2,0,0,0,.236.22c0.571,0,1.14-.03,1.709-0.03,0.349,0,.349.18,0.349,0.7,0,0.5,0,.69-0.349.69-0.664,0-1.312-.04-1.978-0.04h-0.616c-0.049,0-.049.04-0.015,0.07a0.3,0.3,0,0,1,.046.1,0.248,0.248,0,0,1-.221.18,0.428,0.428,0,0,0-.317.21c-0.062.15-.142,0.31-0.205,0.46a0.613,0.613,0,0,0-.049.16,0.27,0.27,0,0,0,.3.25h0.41c0.649,0,1.282-.04,1.931-0.04,0.363,0,.348.22,0.348,0.67,0,0.41.015,0.66-.333,0.66-0.649,0-1.3-.04-1.946-0.04h-2.688a0.266,0.266,0,0,0-.3.32v0.14a0.268,0.268,0,0,0,.3.32h1.881c0.6,0,1.2-.04,1.82-0.04,0.364,0,.364.19,0.364,0.66s0,0.65-.364.65c-0.618,0-1.218-.03-1.82-0.03h-1.881a0.256,0.256,0,0,0-.3.3v0.15a0.264,0.264,0,0,0,.3.32h3.542c0.666,0,1.33-.04,2.01-0.04,0.364,0,.364.17,0.364,0.67s0,0.69-.349.69c-0.679,0-1.359-.03-2.025-0.03h-2.025a0.133,0.133,0,0,0-.157.13,0.142,0.142,0,0,0,.062.12,14.86,14.86,0,0,0,3.94,2.01c0.364,0.12.523,0.2,0.523,0.4a1.527,1.527,0,0,1-.887,1.11,10.123,10.123,0,0,1-1.882-.77,15.806,15.806,0,0,1-3.086-2.11,0.2,0.2,0,0,0-.156-0.07,0.206,0.206,0,0,0-.174.23v0.15c0,0.74.046,1.49,0.046,2.25,0,0.57-.174.59-0.9,0.59-0.7,0-.885-0.02-0.885-0.57,0-.76.046-1.51,0.046-2.27v-0.11c-0.015-.14-0.046-0.24-0.189-0.24a0.266,0.266,0,0,0-.141.05,17.107,17.107,0,0,1-3.656,2.37,6.293,6.293,0,0,1-1.312.51,1.579,1.579,0,0,1-.871-1.15c0-.2.207-0.27,0.553-0.39a17.827,17.827,0,0,0,3.894-1.99,0.2,0.2,0,0,0,.061-0.14,0.124,0.124,0,0,0-.141-0.11H234.62c-0.664,0-1.346.03-2.025,0.03-0.349,0-.349-0.2-0.349-0.69s0-.67.349-0.67c0.679,0,1.361.04,2.025,0.04h3.417a0.269,0.269,0,0,0,.3-0.32v-0.14a0.259,0.259,0,0,0-.3-0.31H236.25c-0.6,0-1.22.03-1.82,0.03-0.38,0-.364-0.19-0.364-0.65,0-.49,0-0.66.364-0.66,0.6,0,1.217.04,1.82,0.04h1.787a0.266,0.266,0,0,0,.3-0.32v-0.14a0.266,0.266,0,0,0-.3-0.32h-2.548c-0.649,0-1.3.04-1.946,0.04-0.349,0-.331-0.27-0.331-0.66,0-.45-0.018-0.67.346-0.67,0.649,0,1.282.04,1.931,0.04h0.364a0.255,0.255,0,0,0,.284-0.25,0.566,0.566,0,0,0-.031-0.16c-0.095-.21-0.189-0.41-0.3-0.63a0.563,0.563,0,0,0-.586-0.39h-0.411c-0.664,0-1.312.04-1.976,0.04-0.349,0-.349-0.19-0.349-0.69s0-.7.349-0.7c0.52,0,1.043.03,1.566,0.03h0.172a0.2,0.2,0,0,0,.223-0.2,0.235,0.235,0,0,0-.033-0.15,13.906,13.906,0,0,0-.964-1.38,0.6,0.6,0,0,1-.144-0.27,1.589,1.589,0,0,1,1.108-.65,0.5,0.5,0,0,1,.412.32c0.031,0.05.08,0.12,0.141,0.2a8.368,8.368,0,0,1,1,1.56,0.738,0.738,0,0,1-.5.43,0.115,0.115,0,0,0-.033.07,0.068,0.068,0,0,0,.08.07h0.776a0.389,0.389,0,0,0,.443-0.45v-0.52c0-.54-0.017-1.08-0.063-1.61,0-.05-0.016-0.1-0.016-0.15a0.224,0.224,0,0,1,.269-0.25c0.221,0,1.074.1,1.328,0.13,0.159,0.02.379,0.03,0.379,0.23a0.329,0.329,0,0,1-.189.26,1.206,1.206,0,0,0-.19.92v0.99a0.383,0.383,0,0,0,.444.45h0.458a0.384,0.384,0,0,0,.444-0.45v-0.96a7.052,7.052,0,0,0-.064-1.16v-0.15c0-.2.11-0.23,0.269-0.23,0.205,0,1.043.08,1.281,0.12,0.142,0.01.411,0.03,0.411,0.23a0.348,0.348,0,0,1-.19.24,0.949,0.949,0,0,0-.174.77v1.14a0.38,0.38,0,0,0,.379.45,0.274,0.274,0,0,0,.223-0.15A21.106,21.106,0,0,0,243.3,6809.42Zm-3.273,5.22a0.584,0.584,0,0,0,.632-0.39c0.095-.2.19-0.42,0.3-0.64a0.3,0.3,0,0,0,.031-0.13,0.271,0.271,0,0,0-.3-0.27h-2.863a0.254,0.254,0,0,0-.284.25,0.533,0.533,0,0,0,.03.15c0.4,0.84.4,1.03,0.808,1.03h1.646Zm10.226,8.13c0.2,0,.854.01,1.359,0.01h0.459c0.379,0,.443-0.06.443-0.47v-11.64c0-.39-0.064-0.46-0.443-0.46h-0.459c-0.505,0-1.154.02-1.359,0.02-0.333,0-.382-0.08-0.382-0.49v-0.62c0-.38.064-0.48,0.4-0.48,0.111,0,.839.03,1.344,0.03H253.5c0.394,0,.474.09,0.474,0.5v14.65c0,0.42-.08.5-0.474,0.5h-1.884c-0.505,0-1.233.04-1.344,0.04-0.333,0-.4-0.1-0.4-0.49v-0.62C249.875,6822.85,249.924,6822.77,250.257,6822.77Z" transform="translate(-140 -6808.62)"/>
</svg>
