<svg xmlns="http://www.w3.org/2000/svg" width="115.281" height="21.85" viewBox="0 0 115.281 21.85">
  <defs>
    <style>
      .cls-1 {
        fill: #4da5dc;
        fill-rule: evenodd;
      }
    </style>
  </defs>
  <path id="review-ttl-title01.svg" class="cls-1" d="M696.991,8686.13l-5.744-16.2a1.22,1.22,0,0,0-1.458-1.09H688.33c-0.881,0-1.033.21-.76,1.09l7.233,19.12a1.247,1.247,0,0,0,1.489,1.06h1.368a1.306,1.306,0,0,0,1.519-1.06l7.354-19.15c0.335-.85.183-1.06-0.729-1.06h-1.459a1.234,1.234,0,0,0-1.458,1.09Zm39.291-6.66c0-6.68-4.163-10.9-10.91-10.9s-10.879,4.25-10.879,10.9c0,6.69,4.133,10.94,10.879,10.94S736.282,8686.13,736.282,8679.47Zm-18.234,0c0-4.65,2.553-7.87,7.324-7.87s7.354,3.22,7.354,7.87c0,4.75-2.583,7.91-7.354,7.91S718.048,8684.25,718.048,8679.47Zm28.26,9.52c0,0.91.243,1.12,1.155,1.12h1.124c0.912,0,1.125-.21,1.125-1.12v-19c0-.91-0.213-1.15-1.125-1.15h-1.124a0.929,0.929,0,0,0-1.155,1.15v19Zm24.523,1.42a10.925,10.925,0,0,0,7.81-2.73c0.3-.27.668-0.7-0.122-1.37l-0.82-.7c-0.608-.54-0.882-0.45-1.611.06a8.115,8.115,0,0,1-5.166,1.67c-4.437,0-7.628-2.79-7.628-7.9,0-4.86,2.918-7.81,7.446-7.81a7.394,7.394,0,0,1,5.166,1.89,1.084,1.084,0,0,0,1.61-.09l0.76-.58a0.941,0.941,0,0,0,.122-1.61c-1.672-1.64-4.012-2.67-7.6-2.67-6.685,0-11,3.91-11,11C759.8,8686.5,763.963,8690.41,770.831,8690.41Zm17.775-1.42c0,0.91.243,1.12,1.155,1.12h11.852c0.881,0,1.124-.21,1.124-1.12v-0.79c0-.92-0.243-1.13-1.124-1.13h-9.6v-6.26h7.233a0.929,0.929,0,0,0,1.155-1.15v-0.76c0-.92-0.243-1.13-1.155-1.13h-7.233v-5.89h9.269c0.882,0,1.125-.22,1.125-1.13v-0.76c0-.91-0.243-1.15-1.125-1.15H789.761a0.929,0.929,0,0,0-1.155,1.15v19Z" transform="translate(-687.469 -8668.56)"/>
</svg>
