<svg id="review-ttl-lead01-sp.svg" xmlns="http://www.w3.org/2000/svg" width="417.719" height="70.437" viewBox="0 0 417.719 70.437">
  <defs>
    <style>
      .cls-1 {
        fill: #52a5dc;
        fill-rule: evenodd;
      }
    </style>
  </defs>
  <path id="シェイプ_2" data-name="シェイプ 2" class="cls-1" d="M225.981,421.6c0,4.521-2.321,7-7.672,7a7.427,7.427,0,0,1-.869-0.034,0.725,0.725,0,0,1-.806-0.924v-1.913c0-.694.1-0.892,0.548-0.892a1.769,1.769,0,0,1,.387.034,7.226,7.226,0,0,0,1.159.066c2.321,0,3.515-.992,3.515-3.533v-9.735c0-1.914-.1-5.545-0.1-5.775,0-.693.192-0.825,0.935-0.825h2.063c0.74,0,.935.132,0.935,0.825,0,0.23-.1,3.861-0.1,5.775V421.6Zm13.22,1.321a1.076,1.076,0,0,0-1.354.792c-0.45,1.09-.869,2.212-1.417,3.795a1.055,1.055,0,0,1-1.291.924h-2.255c-0.517,0-.744-0.066-0.744-0.329a1.443,1.443,0,0,1,.2-0.561c1-2.311,1.707-3.962,2.384-5.579l4.61-11.187c0.58-1.419,1.257-3,1.934-4.784a1.05,1.05,0,0,1,1.288-.925h1.385a1.055,1.055,0,0,1,1.292.925c0.674,1.781,1.319,3.365,1.9,4.752L251.77,421.9c0.708,1.717,1.417,3.367,2.418,5.645a1.4,1.4,0,0,1,.192.561c0,0.263-.226.329-0.74,0.329h-2.481a1.053,1.053,0,0,1-1.291-.924c-0.548-1.583-.967-2.7-1.418-3.795-0.289-.726-0.484-0.792-1.354-0.792h-7.9Zm0.58-4.092a1.49,1.49,0,0,0-.13.561c0,0.3.227,0.363,0.74,0.363H245.9c0.516,0,.743-0.066.743-0.363a1.5,1.5,0,0,0-.129-0.561l-3-7.558a0.706,0.706,0,0,0-.353-0.527,0.7,0.7,0,0,0-.356.527Zm26.573,9.6c-1.515,0-4.063.066-4.286,0.066a0.757,0.757,0,0,1-.9-0.924c0-.23.066-3.8,0.066-5.643V411.665c0-1.914-.1-5.545-0.1-5.775,0-.693.191-0.825,0.935-0.825h2.062c0.74,0,.936.132,0.936,0.825,0,0.23-.1,3.861-0.1,5.775v12.31c0,0.826.161,0.99,0.967,0.99h2.932c1.549,0,4.45-.1,4.673-0.1,0.678,0,.807.2,0.807,0.956v1.717c0,0.757-.129.956-0.807,0.956-0.223,0-3.124-.066-4.673-0.066h-2.513Zm31.98-22.243a8.326,8.326,0,0,0,1.386-.067c0.195,0,.516-0.066.712-0.066,0.674,0,2.062,1.816,2.062,2.245a6.4,6.4,0,0,1-.711,1.288c-0.192.3-.384,0.627-0.513,0.858a48.218,48.218,0,0,1-4.192,6.27,0.913,0.913,0,0,0-.258.627,0.887,0.887,0,0,0,.485.792,51.7,51.7,0,0,1,5.444,4.256c0.775,0.693,1.582,1.453,2.322,2.245a0.636,0.636,0,0,1,.226.462c0,0.694-1.773,2.639-2.45,2.639a1.076,1.076,0,0,1-.806-0.5,34.669,34.669,0,0,0-7.12-6.532,1.127,1.127,0,0,0-.744-0.3,1.544,1.544,0,0,0-.967.561,35.761,35.761,0,0,1-8.058,5.776,5.309,5.309,0,0,1-1.417.627c-0.678,0-2.161-2.211-2.161-2.805a0.8,0.8,0,0,1,.677-0.66c5.707-2.244,11.12-7.294,14.376-12.508a3.276,3.276,0,0,0,.548-1.122c0-.5-0.45-0.561-0.935-0.561h-6.67c-1.386,0-2.774.066-4.16,0.066-0.869,0-.806-0.5-0.806-2.013,0-1.156-.032-1.651.774-1.651,1.386,0,2.772.067,4.192,0.067h8.764Zm24,2.839a1,1,0,0,0,.966-0.859c0.066-.66.227-4.191,0.259-4.982,0-.331-0.032-0.76.419-0.76,0.195,0,3.029.561,3.353,0.66a0.494,0.494,0,0,1,.482.363,1.055,1.055,0,0,1-.353.561c-0.387.364-.355,0.4-0.453,1.42-0.063.461-.258,2.441-0.258,2.771a0.729,0.729,0,0,0,.775.76l3.092-.034c0.935,0,3.515-.132,3.546-0.132A2.606,2.606,0,0,1,336,410.709c0,0.329-.453,3.992-0.516,4.619-0.322,2.541-.807,7.128-1.805,9.373-0.872,1.947-2.192,2.574-4.191,2.871a12.255,12.255,0,0,1-1.868.132,1.019,1.019,0,0,1-1.13-.659,7.146,7.146,0,0,1-.838-2.311,0.535,0.535,0,0,1,.583-0.594c0.321,0,1.061.132,1.835,0.132,1.9,0,2.58-.89,3.061-3.235a60.289,60.289,0,0,0,.967-7.887c0-.89-0.45-0.824-1.9-0.824l-3.253.033a1.121,1.121,0,0,0-1.033,1.188,27.688,27.688,0,0,1-6.317,12.837c-0.451.5-2.384,2.574-2.964,2.574-0.614,0-2.45-1.55-2.45-2.145a0.91,0.91,0,0,1,.45-0.593,22.777,22.777,0,0,0,7-9.968,17.694,17.694,0,0,0,.838-3.168,0.67,0.67,0,0,0-.677-0.693l-4.545.034c-0.869,0-2.8.132-3.221,0.132-0.709,0-.807-0.529-0.807-1.815,0-1.419.063-1.716,0.775-1.716,1.061,0,2.157.032,3.222,0.032Zm37.793,15.841c0,1.451.067,2.9,0.067,4.322,0,0.892-.419.99-1.613,0.99-1.773,0-2.094-.1-2.094-0.956,0-1.421.063-2.839,0.063-4.258v-8.976c0-.2.1-0.925-0.513-0.925a3.569,3.569,0,0,0-1.26.759c-0.967.727-6.091,4.224-6.928,4.224a5.492,5.492,0,0,1-2.513-2.639,0.659,0.659,0,0,1,.516-0.561,46.377,46.377,0,0,0,12.666-8.745,27.888,27.888,0,0,0,4.384-5.578,0.854,0.854,0,0,1,.513-0.5,11.826,11.826,0,0,1,2.192,1.352,2.811,2.811,0,0,1,1.257,1.189,0.38,0.38,0,0,1-.321.33,1.739,1.739,0,0,0-1.257.792,64.009,64.009,0,0,1-4.415,4.951,1.77,1.77,0,0,0-.744,1.485v12.739ZM416.106,407.8a5.517,5.517,0,0,0,1.288-.1,1.36,1.36,0,0,1,.356-0.066c0.709,0,2.353,2.014,2.353,2.541a3.2,3.2,0,0,1-.388.792c-0.192.363-.516,0.858-0.837,1.519-3.191,6.3-6.286,11.087-12.248,15.015-0.708.463-3.706,2.343-4.383,2.343-0.74,0-2.74-1.618-2.74-2.211a0.9,0.9,0,0,1,.645-0.627,28.587,28.587,0,0,0,12.471-10.56c0.517-.792,2.482-3.994,2.482-4.818,0-.429-0.548-0.463-1-0.463h-6.123a1.406,1.406,0,0,0-1.354.892c-0.579.89-4.32,5.445-5.158,5.445-0.419,0-2.772-1.255-2.772-1.98a0.613,0.613,0,0,1,.29-0.463,30.338,30.338,0,0,0,8.607-11.781,1.061,1.061,0,0,1,.517-0.792,16.824,16.824,0,0,1,2.286,1.023,3.678,3.678,0,0,0,.419.2,1.427,1.427,0,0,1,.967.661,0.807,0.807,0,0,1-.482.429,2.3,2.3,0,0,0-.838,1.088c-0.129.23-.258,0.463-0.453,0.792a1.36,1.36,0,0,0-.224.594,0.544,0.544,0,0,0,.548.528h5.769Zm6.51-.66a2.574,2.574,0,0,1-1.644,1.387,0.644,0.644,0,0,1-.419-0.364c-0.646-.99-1.354-1.98-2.094-2.9a0.791,0.791,0,0,1-.227-0.429,2.808,2.808,0,0,1,1.675-1.22C420.263,403.614,422.616,406.782,422.616,407.144Zm3.319-2.045a2.523,2.523,0,0,1-1.644,1.352,0.5,0.5,0,0,1-.419-0.331,31.662,31.662,0,0,0-2.125-2.9,0.7,0.7,0,0,1-.227-0.4,2.735,2.735,0,0,1,1.675-1.253A12.906,12.906,0,0,1,425.935,405.1Zm22.482,6c0.741,0,2.224,0,2.9-.066a3.579,3.579,0,0,1,.579-0.066,3.879,3.879,0,0,1,2.29,2.178,8.626,8.626,0,0,1-.419,1.353,23.261,23.261,0,0,1-1.871,4.456,27.418,27.418,0,0,1-6.67,7.788c-0.9.759-4.383,3.3-5.385,3.3-0.74,0-2.223-1.882-2.223-2.441,0-.4.806-0.693,1.13-0.859a23.4,23.4,0,0,0,9.892-9.373,8.514,8.514,0,0,0,.873-2.144c0-.792-0.873-0.727-1.386-0.727H436.139c-1.354,0-2.709.066-4.094,0.066-0.9,0-.9-0.329-0.9-1.617,0-1.683.031-1.914,0.935-1.914,1.354,0,2.74.066,4.126,0.066h12.215Zm-2.16-7.128c1.323,0,2.967-.1,3.8-0.1,0.807,0,.87.363,0.87,2.012,0,1.122,0,1.551-.87,1.551-1.291,0-2.547-.066-3.8-0.066h-7.895c-1.257,0-2.516.066-3.773,0.066-0.9,0-.9-0.4-0.9-1.617,0-1.551.063-1.946,0.869-1.946,0.9,0,2.547.1,3.8,0.1h7.895Zm41.082,8.581c0,0.561-1.291,1.847-1.71,2.276a55.991,55.991,0,0,1-17.5,12.442c-1.064.527-1.095,0.561-1.354,1.122a0.319,0.319,0,0,1-.321.2c-0.355,0-1.033-1.321-1.256-1.717a9.192,9.192,0,0,1-.967-1.98c0-.363.579-0.429,1-0.561,7.124-2.145,15.18-8.382,19.759-14.356a0.791,0.791,0,0,1,.547-0.363C486.177,409.619,487.339,412.062,487.339,412.557Zm-16.631-5.447c0.419,0.3,1.965,1.387,1.965,1.882,0,0.759-1.515,2.541-2.126,2.541a3.449,3.449,0,0,1-1.291-.89,40.08,40.08,0,0,0-4.286-3.07,0.827,0.827,0,0,1-.517-0.627c0-.5,1.292-2.607,2.032-2.607C467,404.339,470.094,406.649,470.708,407.11Zm34.89,4.621c0.643,0,3.868,2.607,4.51,3.168,0.453,0.4,2.258,1.816,2.258,2.377s-1.515,2.277-2.16,2.277a1.158,1.158,0,0,1-.709-0.429,48.212,48.212,0,0,0-4.674-3.862,0.559,0.559,0,0,0-.321-0.132,0.438,0.438,0,0,0-.387.529v9.009c0,1.321.063,2.607,0.063,3.928,0,1.517-.032,1.715-2,1.715-1.291,0-1.839-.033-1.839-1.122,0-1.485.1-2.969,0.1-4.455v-18.81c0-.859-0.063-1.749-0.1-2.575,0-.164-0.031-0.463-0.031-0.593,0-.331.1-0.495,0.418-0.495,0.2,0,.87.1,1.1,0.13,1.451,0.2,2.771.331,2.771,0.794a0.972,0.972,0,0,1-.161.429,2.7,2.7,0,0,0-.352,1.749c0,0.5.031,1.122,0.031,1.946v4.951a0.277,0.277,0,0,0,.258.329,0.345,0.345,0,0,0,.29-0.132A1.67,1.67,0,0,1,505.6,411.731Zm7.669-3.266a2.66,2.66,0,0,1-1.578,1.451,0.869,0.869,0,0,1-.485-0.363,33.213,33.213,0,0,0-2.192-2.639,0.755,0.755,0,0,1-.29-0.463,2.753,2.753,0,0,1,1.581-1.32A12.2,12.2,0,0,1,513.267,408.465Zm3.353-2.311a2.633,2.633,0,0,1-1.58,1.485,0.772,0.772,0,0,1-.451-0.4c-0.677-.89-1.483-1.814-2.223-2.607a0.922,0.922,0,0,1-.29-0.461,2.814,2.814,0,0,1,1.578-1.355A12.754,12.754,0,0,1,516.62,406.154Zm22.839,0.033a8.339,8.339,0,0,0,1.386-.067c0.195,0,.516-0.066.711-0.066,0.674,0,2.063,1.816,2.063,2.245a6.423,6.423,0,0,1-.712,1.288c-0.192.3-.384,0.627-0.513,0.858a48.016,48.016,0,0,1-4.192,6.27,0.918,0.918,0,0,0-.258.627,0.887,0.887,0,0,0,.485.792,51.712,51.712,0,0,1,5.445,4.256c0.775,0.693,1.581,1.453,2.321,2.245a0.637,0.637,0,0,1,.227.462c0,0.694-1.773,2.639-2.45,2.639a1.075,1.075,0,0,1-.806-0.5,34.649,34.649,0,0,0-7.121-6.532,1.123,1.123,0,0,0-.743-0.3,1.541,1.541,0,0,0-.967.561,35.767,35.767,0,0,1-8.059,5.776,5.3,5.3,0,0,1-1.417.627c-0.677,0-2.16-2.211-2.16-2.805a0.8,0.8,0,0,1,.677-0.66c5.706-2.244,11.12-7.294,14.376-12.508a3.276,3.276,0,0,0,.548-1.122c0-.5-0.45-0.561-0.935-0.561h-6.671c-1.385,0-2.774.066-4.16,0.066-0.869,0-.806-0.5-0.806-2.013,0-1.156-.031-1.651.775-1.651,1.386,0,2.771.067,4.191,0.067h8.765Zm32.053,1.023a9.23,9.23,0,0,0,1.965-.166,1.171,1.171,0,0,1,.324-0.064c0.548,0,1.676,1.715,1.676,2.243a0.934,0.934,0,0,1-.2.5,7.545,7.545,0,0,0-.8,1.617,60.66,60.66,0,0,1-3.065,6.139,1.151,1.151,0,0,0-.224.66,1.084,1.084,0,0,0,.58.858c0.387,0.3,1.805,1.286,1.805,1.717,0,0.561-1.452,2.507-2.063,2.507a0.724,0.724,0,0,1-.485-0.265c-0.451-.4-0.869-0.725-1.32-1.122A1.114,1.114,0,0,0,569,421.5a1.737,1.737,0,0,0-1.1.792,25.7,25.7,0,0,1-7.026,5.577,17.257,17.257,0,0,1-3.9,1.683c-0.838,0-2.321-2.112-2.321-2.573,0-.4.548-0.5,1.386-0.759a22.464,22.464,0,0,0,9.217-5.942,1.287,1.287,0,0,0,.485-0.824,0.8,0.8,0,0,0-.387-0.693c-0.74-.5-2.416-1.387-3.222-1.782a1.351,1.351,0,0,1-.967-0.727c0-.461,1.257-2.475,1.966-2.475a23.678,23.678,0,0,1,4.157,2.146,1.352,1.352,0,0,0,.614.2c0.611,0,.9-0.627,1.773-2.375a3.392,3.392,0,0,1,.192-0.463,10.5,10.5,0,0,0,.837-2.178c0-.693-0.837-0.659-1.322-0.659h-6.154a1.455,1.455,0,0,0-1.42.858,48.062,48.062,0,0,1-4.189,5.081,1.712,1.712,0,0,1-1.032.628c-0.58,0-2.674-1.387-2.674-1.948a0.935,0.935,0,0,1,.482-0.626,30.36,30.36,0,0,0,8.414-11.848,0.992,0.992,0,0,1,.58-0.824,7.23,7.23,0,0,1,1.8.791c0.29,0.133,1.9.858,1.9,1.123a0.415,0.415,0,0,1-.325.362,1.709,1.709,0,0,0-.967,1.089c-0.126.232-.289,0.529-0.513,0.891a1.8,1.8,0,0,0-.258.693,0.546,0.546,0,0,0,.579.5h5.9Zm16.259,5.083c0.356,0.428,1.1,1.616,1.421,2.145a12.094,12.094,0,0,1,1.385,2.607c0,0.692-1.933,1.518-2.321,1.518a0.767,0.767,0,0,1-.614-0.561,32.49,32.49,0,0,0-2.321-3.994,1.26,1.26,0,0,1-.255-0.593c0-.594,1.738-1.419,2.157-1.419A0.71,0.71,0,0,1,587.771,412.293Zm15.954-.528a0.726,0.726,0,0,1,.58.594,0.737,0.737,0,0,1-.385.5,1.055,1.055,0,0,0-.418.693,24.874,24.874,0,0,1-4.419,9.24,18.356,18.356,0,0,1-8.764,5.743,5.623,5.623,0,0,1-1,.262c-0.611,0-1.8-1.813-1.8-2.276a0.573,0.573,0,0,1,.517-0.593c4.157-1.156,7.671-3.1,9.992-6.964a19.468,19.468,0,0,0,2.642-7.492c0.032-.3.063-0.659,0.419-0.659A21.381,21.381,0,0,1,603.725,411.765Zm-8.056.726a13.074,13.074,0,0,1,1.449,2.705c0,0.661-1.867,1.519-2.321,1.519a0.89,0.89,0,0,1-.642-0.627,35.687,35.687,0,0,0-2.258-3.894,1.128,1.128,0,0,1-.29-0.661c0-.561,1.742-1.385,2.16-1.385,0.451,0,1.065.924,1.613,1.848Zm33.049-6.437c0.677,0,2.258,0,2.9-.064,0.129,0,.485-0.066.583-0.066,0.771,0,2.157,1.781,2.157,2.112s-0.29.692-.548,2.112c-1.1,6.369-3.382,10.757-8.6,14.52a29.821,29.821,0,0,1-6.188,3.367,3.288,3.288,0,0,1-1.064.3c-0.775,0-1.934-2.212-1.934-2.739a0.573,0.573,0,0,1,.579-0.529,22.448,22.448,0,0,0,8.025-4.354,15.444,15.444,0,0,0,5.287-9.637,6.619,6.619,0,0,0,.063-0.793c0-.626-0.548-0.692-1.127-0.692H617.406c-1.354,0-2.677.066-4.028,0.066-1,0-.967-0.3-0.967-1.783,0-1.517-.035-1.88.869-1.88,1.386,0,2.772.064,4.157,0.064h11.281Z" transform="translate(-216.625 -359.875)"/>
  <path id="シェイプ_1" data-name="シェイプ 1" class="cls-1" d="M357.706,379.453c0,0.5-.079.625-0.5,0.625-0.14,0-1.067-.043-1.71-0.043h-2.4c-0.5,0-.6-0.109-0.6-0.646V360.554c0-.538.1-0.646,0.6-0.646h2.4c0.643,0,1.57-.044,1.71-0.044,0.424,0,.5.13,0.5,0.626v0.8c0,0.517-.059.625-0.483,0.625-0.261,0-1.087-.023-1.73-0.023h-0.584c-0.485,0-.564.088-0.564,0.584v14.976c0,0.517.079,0.6,0.564,0.6h0.584c0.643,0,1.469-.022,1.73-0.022,0.424,0,.483.109,0.483,0.626v0.8Zm10.559-3.685c1.028,0,2.92-.044,3.06-0.044,0.424,0,.506.13,0.506,0.625v1.013c0,0.5-.082.625-0.506,0.625-0.14,0-2.032-.042-3.06-0.042h-2.617c-1.027,0-2.919.042-3.06,0.042-0.424,0-.5-0.129-0.5-0.625v-0.388a1.037,1.037,0,0,1,.482-1.056,12.922,12.922,0,0,0,1.025-.9c3.625-3.406,5.719-5.56,5.719-7.673a2.283,2.283,0,0,0-2.557-2.369,3.936,3.936,0,0,0-2.94,1.422,0.621,0.621,0,0,1-.421.3,0.761,0.761,0,0,1-.4-0.3l-0.806-.926a0.791,0.791,0,0,1-.242-0.453,0.758,0.758,0,0,1,.284-0.474,6.64,6.64,0,0,1,4.731-1.962c3.06,0,4.772,1.94,4.772,4.418,0,3.038-2.276,5.473-5.356,8.34a0.551,0.551,0,0,0-.222.3c0,0.085.121,0.129,0.362,0.129h1.752Zm20.453-5.775c0,5.129-2.76,8.123-6.123,8.123-3.22,0-5.778-2.606-5.778-7.521,0-4.416,2.114-7.993,6.081-7.993C386.059,362.6,388.718,365.079,388.718,369.993Zm-9.546.667c0,3.362,1.39,5.151,3.423,5.151,2.156,0,3.768-2.22,3.768-5.732,0-3.384-1.471-5.064-3.465-5.064C380.34,365.015,379.172,367.622,379.172,370.66Zm20.125,5.108c1.028,0,2.92-.044,3.06-0.044,0.424,0,.506.13,0.506,0.625v1.013c0,0.5-.082.625-0.506,0.625-0.14,0-2.032-.042-3.06-0.042h-2.616c-1.028,0-2.921.042-3.061,0.042-0.424,0-.5-0.129-0.5-0.625v-0.388a1.036,1.036,0,0,1,.483-1.056,13.089,13.089,0,0,0,1.024-.9c3.625-3.406,5.719-5.56,5.719-7.673a2.283,2.283,0,0,0-2.557-2.369,3.936,3.936,0,0,0-2.94,1.422,0.619,0.619,0,0,1-.421.3,0.761,0.761,0,0,1-.4-0.3l-0.806-.926a0.791,0.791,0,0,1-.242-0.453,0.758,0.758,0,0,1,.284-0.474,6.64,6.64,0,0,1,4.731-1.962c3.06,0,4.773,1.94,4.773,4.418,0,3.038-2.277,5.473-5.357,8.34a0.551,0.551,0,0,0-.222.3c0,0.085.121,0.129,0.362,0.129H399.3Zm20.453-5.775c0,5.129-2.76,8.123-6.123,8.123-3.22,0-5.778-2.606-5.778-7.521,0-4.416,2.114-7.993,6.081-7.993C417.092,362.6,419.75,365.079,419.75,369.993Zm-9.545.667c0,3.362,1.389,5.151,3.422,5.151,2.156,0,3.768-2.22,3.768-5.732,0-3.384-1.471-5.064-3.465-5.064C411.372,365.015,410.205,367.622,410.205,370.66Zm25.242-3.921a0.517,0.517,0,0,0,.562.6h1.612c0.7,0,1.389-.064,2.094-0.064,0.5,0,.5.237,0.5,1.1,0,0.84-.019,1.057-0.5,1.057-0.7,0-1.39-.044-2.094-0.044h-1.612a0.5,0.5,0,0,0-.562.6v1.917a0.5,0.5,0,0,0,.562.6h3.324c0.845,0,1.69-.044,2.535-0.044,0.506,0,.486.259,0.486,1.078,0,0.841.02,1.078-.486,1.078-0.845,0-1.69-.043-2.535-0.043h-3.324a0.5,0.5,0,0,0-.562.6v0.6c0,1.056.059,2.091,0.059,3.125,0,0.71-.261.71-1.168,0.71-0.884,0-1.148,0-1.148-.689,0-1.055.062-2.09,0.062-3.146v-0.6a0.5,0.5,0,0,0-.564-0.6h-5c-0.845,0-1.69.043-2.535,0.043-0.506,0-.483-0.237-0.483-1.056,0-.862-0.023-1.1.483-1.1,0.643,0,1.308.065,1.974,0.044a0.488,0.488,0,0,0,.5-0.6v-2.046c0-.54-0.02-1.056-0.02-1.595a0.817,0.817,0,0,1,.986-0.97c0.483,0,.965.042,1.451,0.042h2.637a0.518,0.518,0,0,0,.564-0.6V365.1a0.5,0.5,0,0,0-.564-0.6h-2.659a0.843,0.843,0,0,0-.845.452,21.069,21.069,0,0,1-2.757,3.556,1.226,1.226,0,0,1-.666.474,2.349,2.349,0,0,1-1.35-1.422,1.393,1.393,0,0,1,.5-0.646,15.245,15.245,0,0,0,4.127-6.552,0.31,0.31,0,0,1,.281-0.3,17.241,17.241,0,0,1,1.954.583,0.374,0.374,0,0,1,.343.3,0.383,0.383,0,0,1-.3.28,0.737,0.737,0,0,0-.5.626,0.805,0.805,0,0,0-.039.214,0.32,0.32,0,0,0,.362.323h7.308c0.825,0,1.631-.064,2.457-0.064,0.5,0,.483.281,0.483,1.12,0,0.819.019,1.1-.483,1.1-0.826,0-1.632-.043-2.457-0.043h-2.437a0.5,0.5,0,0,0-.562.6v1.637Zm-5.255,2.65a0.6,0.6,0,0,0-.565.6v1.917a0.584,0.584,0,0,0,.565.6h2.5a0.571,0.571,0,0,0,.564-0.6v-1.917a0.585,0.585,0,0,0-.564-0.6h-2.5Zm23.524-4.719a0.1,0.1,0,0,0-.12.109,0.424,0.424,0,0,0,.263.193,0.867,0.867,0,0,1,.6.5,0.255,0.255,0,0,1-.283.215,0.6,0.6,0,0,0-.523.431c-0.061.108-.12,0.215-0.221,0.367a0.7,0.7,0,0,0-.141.408,0.593,0.593,0,0,0,.18.432,17.7,17.7,0,0,0,1.429,1.358,0.566,0.566,0,0,1,.244.344,2.412,2.412,0,0,1-1.289,1.379,5.5,5.5,0,0,1-1.572-1.422,0.515,0.515,0,0,0-.362-0.195,0.481,0.481,0,0,0-.362.195c-0.545.647-1.55,1.745-2.153,2.305a0.941,0.941,0,0,1-.545.3,2.28,2.28,0,0,1-1.328-1.227,1.054,1.054,0,0,1,.441-0.561,23.653,23.653,0,0,0,3.866-4.633,0.368,0.368,0,0,0,.061-0.216,0.277,0.277,0,0,0-.323-0.28h-0.805c-0.784,0-1.589.042-2.375,0.042-0.483,0-.483-0.235-0.483-1.033,0-.819-0.02-1.077.483-1.077,0.786,0,1.591.043,2.375,0.043h3.765a0.51,0.51,0,0,0,.564-0.6c0-.41-0.039-0.8-0.081-1.229,0-.064-0.02-0.194-0.02-0.258a0.3,0.3,0,0,1,.385-0.3c0.342,0,1.328.108,1.71,0.152,0.182,0.021.544,0.021,0.544,0.3a0.393,0.393,0,0,1-.241.279,0.772,0.772,0,0,0-.222.711v0.366a0.476,0.476,0,0,0,.545.583h3.843c0.786,0,1.572-.043,2.378-0.043,0.5,0,.483.258,0.483,1.077,0,0.8,0,1.033-.483,1.033-0.806,0-1.592-.042-2.378-0.042h-0.522a0.1,0.1,0,0,0-.121.109,0.34,0.34,0,0,0,.1.129,1.22,1.22,0,0,1,.764.538,0.3,0.3,0,0,1-.343.237,0.587,0.587,0,0,0-.5.409c-0.059.087-.121,0.172-0.2,0.3a0.8,0.8,0,0,0-.16.431,0.72,0.72,0,0,0,.16.452,20.773,20.773,0,0,0,2.72,2.716,0.871,0.871,0,0,1,.362.5,2.589,2.589,0,0,1-1.33,1.292c-0.483,0-2.578-2.413-2.979-2.888a0.443,0.443,0,0,0-.343-0.193,0.45,0.45,0,0,0-.342.172c-0.624.69-1.087,1.163-1.752,1.811a0.305,0.305,0,0,0-.1.171,0.164,0.164,0,0,0,.182.152c0.16,0.021.483,0.043,0.483,0.3a0.416,0.416,0,0,1-.241.3,0.557,0.557,0,0,0-.2.454,0.476,0.476,0,0,0,.545.56h4.349c0.845,0,1.671-.043,2.5-0.043,0.5,0,.483.258,0.483,1.077,0,0.8.02,1.077-.483,1.077-0.825,0-1.651-.065-2.5-0.065h-4.368a0.491,0.491,0,0,0-.545.6v1.53c0,0.689.039,1.4,0.039,2.091,0,0.667-.2.711-1.047,0.711-0.825,0-1.148.02-1.148-.69,0-.646.042-1.358,0.042-2.112v-1.53a0.5,0.5,0,0,0-.564-0.6h-4.29c-0.826,0-1.671.065-2.5,0.065-0.5,0-.483-0.28-0.483-1.077,0-.819,0-1.077.483-1.077,0.825,0,1.67.043,2.5,0.043h4.29a0.471,0.471,0,0,0,.544-0.583,4.589,4.589,0,0,0-.042-0.5,0.964,0.964,0,0,0-.261-0.537,0.868,0.868,0,0,1-.281-0.475,1.154,1.154,0,0,1,.441-0.56,23.041,23.041,0,0,0,4.27-4.827,0.374,0.374,0,0,0,.059-0.194,0.275,0.275,0,0,0-.32-0.28h-5.2Zm30.252-3.793a0.266,0.266,0,0,1,.222-0.215c0.081,0,1.813.711,1.813,1.013a0.244,0.244,0,0,1-.263.194,0.514,0.514,0,0,0-.382.193c-0.18.388-.6,1.142-0.806,1.509a0.314,0.314,0,0,0-.059.193,0.26,0.26,0,0,0,.3.281c0.727,0,1.452-.043,2.176-0.043,0.444,0,.444.237,0.444,0.906,0,0.646,0,.883-0.444.883-0.845,0-1.67-.044-2.518-0.044h-0.783c-0.062,0-.062.044-0.02,0.086a0.389,0.389,0,0,1,.059.129,0.331,0.331,0,0,1-.281.238,0.556,0.556,0,0,0-.4.258c-0.079.194-.18,0.41-0.261,0.6a0.729,0.729,0,0,0-.062.194,0.34,0.34,0,0,0,.385.323h0.522c0.825,0,1.631-.042,2.456-0.042,0.464,0,.444.279,0.444,0.861,0,0.518.02,0.841-.424,0.841-0.825,0-1.651-.044-2.476-0.044h-3.423a0.337,0.337,0,0,0-.381.41v0.172a0.337,0.337,0,0,0,.381.41h2.395c0.767,0,1.53-.044,2.316-0.044,0.464,0,.464.238,0.464,0.842s0,0.839-.464.839c-0.786,0-1.549-.043-2.316-0.043h-2.395a0.329,0.329,0,0,0-.381.388v0.195a0.337,0.337,0,0,0,.381.408h4.509c0.848,0,1.693-.043,2.558-0.043,0.463,0,.463.216,0.463,0.862s0,0.884-.443.884c-0.865,0-1.73-.043-2.578-0.043h-2.577a0.173,0.173,0,0,0-.2.172,0.169,0.169,0,0,0,.078.152,18.782,18.782,0,0,0,5.015,2.585c0.463,0.15.665,0.258,0.665,0.517a1.948,1.948,0,0,1-1.129,1.423,12.206,12.206,0,0,1-2.394-.992,19.5,19.5,0,0,1-3.929-2.715,0.247,0.247,0,0,0-.2-0.087,0.266,0.266,0,0,0-.221.3v0.194c0,0.948.059,1.918,0.059,2.887,0,0.734-.222.754-1.149,0.754-0.884,0-1.126-.02-1.126-0.731,0-.971.059-1.94,0.059-2.91v-0.15c-0.019-.173-0.059-0.3-0.241-0.3a0.307,0.307,0,0,0-.18.064,21.561,21.561,0,0,1-4.652,3.039,8.011,8.011,0,0,1-1.67.667,2.031,2.031,0,0,1-1.11-1.485c0-.26.264-0.346,0.705-0.5a22.423,22.423,0,0,0,4.956-2.564,0.237,0.237,0,0,0,.078-0.173,0.163,0.163,0,0,0-.18-0.151h-2.436c-0.846,0-1.713.043-2.578,0.043-0.443,0-.443-0.259-0.443-0.884s0-.862.443-0.862c0.865,0,1.732.043,2.578,0.043h4.349a0.344,0.344,0,0,0,.381-0.408v-0.173a0.337,0.337,0,0,0-.381-0.41h-2.275c-0.766,0-1.552.043-2.316,0.043-0.483,0-.463-0.237-0.463-0.839,0-.625,0-0.842.463-0.842,0.764,0,1.55.044,2.316,0.044h2.275a0.337,0.337,0,0,0,.381-0.41v-0.172a0.337,0.337,0,0,0-.381-0.41h-3.243c-0.826,0-1.651.044-2.477,0.044-0.443,0-.421-0.346-0.421-0.841,0-.582-0.022-0.861.441-0.861,0.825,0,1.631.042,2.457,0.042h0.463a0.326,0.326,0,0,0,.362-0.323,0.7,0.7,0,0,0-.039-0.194c-0.121-.279-0.242-0.539-0.382-0.819a0.721,0.721,0,0,0-.747-0.5h-0.522c-0.845,0-1.671.044-2.516,0.044-0.443,0-.443-0.237-0.443-0.883s0-.906.443-0.906c0.663,0,1.328.043,1.994,0.043h0.219a0.249,0.249,0,0,0,.283-0.258,0.326,0.326,0,0,0-.042-0.194,17.56,17.56,0,0,0-1.227-1.768,0.788,0.788,0,0,1-.182-0.344,2.017,2.017,0,0,1,1.409-.84,0.641,0.641,0,0,1,.525.409c0.039,0.064.1,0.15,0.18,0.258a10.714,10.714,0,0,1,1.269,2,0.971,0.971,0,0,1-.643.561,0.115,0.115,0,0,0-.042.085,0.084,0.084,0,0,0,.1.087h0.988a0.5,0.5,0,0,0,.565-0.581V362.8c0-.69-0.023-1.38-0.082-2.069,0-.065-0.02-0.129-0.02-0.194a0.287,0.287,0,0,1,.343-0.323c0.281,0,1.367.129,1.69,0.171,0.2,0.023.483,0.044,0.483,0.3a0.4,0.4,0,0,1-.241.323,1.583,1.583,0,0,0-.242,1.186v1.272a0.488,0.488,0,0,0,.565.581h0.583a0.489,0.489,0,0,0,.565-0.581v-1.229a9.045,9.045,0,0,0-.082-1.487v-0.194a0.274,0.274,0,0,1,.343-0.3c0.261,0,1.328.108,1.631,0.152,0.18,0.021.522,0.042,0.522,0.3a0.416,0.416,0,0,1-.241.3,1.244,1.244,0,0,0-.222.992v1.466a0.483,0.483,0,0,0,.483.581,0.341,0.341,0,0,0,.284-0.193A27.222,27.222,0,0,0,483.968,360.877Zm-4.166,6.7a0.742,0.742,0,0,0,.805-0.5c0.121-.258.242-0.538,0.382-0.819a0.42,0.42,0,0,0,.039-0.172,0.341,0.341,0,0,0-.381-0.345H477a0.321,0.321,0,0,0-.362.323,0.7,0.7,0,0,0,.039.194c0.5,1.077.5,1.315,1.028,1.315h2.1Zm13.015,10.451c0.261,0,1.087.022,1.73,0.022h0.584c0.483,0,.564-0.086.564-0.6V362.473c0-.5-0.081-0.584-0.564-0.584h-0.584c-0.643,0-1.469.023-1.73,0.023-0.424,0-.485-0.108-0.485-0.625v-0.8c0-.5.081-0.626,0.5-0.626,0.141,0,1.067.044,1.71,0.044h2.4c0.5,0,.6.108,0.6,0.646v18.835c0,0.537-.1.646-0.6,0.646h-2.4c-0.643,0-1.569.043-1.71,0.043-0.424,0-.5-0.129-0.5-0.625v-0.8C492.332,378.139,492.393,378.03,492.817,378.03Z" transform="translate(-216.625 -359.875)"/>
</svg>
