<svg id="review-ttl-lead04.svg" xmlns="http://www.w3.org/2000/svg" width="359" height="51.32" viewBox="0 0 359 51.32">
  <defs>
    <style>
      .cls-1 {
        fill: #52a5dc;
        fill-rule: evenodd;
      }
    </style>
  </defs>
  <path id="シェイプ_12" data-name="シェイプ 12" class="cls-1" d="M1539.1,6823.87c0,0.39-.06.49-0.39,0.49-0.11,0-.84-0.04-1.35-0.04h-1.88c-0.4,0-.47-0.08-0.47-0.5v-14.65c0-.41.07-0.5,0.47-0.5h1.88c0.51,0,1.24-.03,1.35-0.03,0.33,0,.39.1,0.39,0.48v0.62c0,0.41-.04.49-0.38,0.49-0.2,0-.85-0.02-1.36-0.02h-0.46c-0.38,0-.44.07-0.44,0.46v11.64c0,0.41.06,0.47,0.44,0.47h0.46c0.51,0,1.16-.01,1.36-0.01,0.34,0,.38.08,0.38,0.48v0.62Zm8.3-2.86c0.81,0,2.29-.04,2.4-0.04,0.34,0,.4.1,0.4,0.49v0.79c0,0.38-.06.48-0.4,0.48-0.11,0-1.59-.03-2.4-0.03h-2.06c-0.81,0-2.29.03-2.4,0.03-0.34,0-.4-0.1-0.4-0.48v-0.31a0.811,0.811,0,0,1,.38-0.82,8.822,8.822,0,0,0,.81-0.7c2.85-2.65,4.49-4.32,4.49-5.97a1.784,1.784,0,0,0-2.01-1.84,3.109,3.109,0,0,0-2.31,1.11,0.493,0.493,0,0,1-.33.23,0.609,0.609,0,0,1-.32-0.23l-0.63-.72a0.625,0.625,0,0,1-.19-0.36,0.617,0.617,0,0,1,.22-0.37,5.287,5.287,0,0,1,3.72-1.52c2.4,0,3.75,1.51,3.75,3.43,0,2.37-1.79,4.26-4.21,6.49a0.463,0.463,0,0,0-.17.24c0,0.06.09,0.1,0.28,0.1h1.38Zm16.07-4.5c0,3.99-2.17,6.32-4.81,6.32-2.53,0-4.54-2.02-4.54-5.85,0-3.43,1.66-6.21,4.77-6.21C1561.38,6810.77,1563.47,6812.69,1563.47,6816.51Zm-7.5.52c0,2.62,1.09,4.01,2.69,4.01,1.69,0,2.96-1.73,2.96-4.46,0-2.63-1.16-3.94-2.73-3.94C1556.89,6812.64,1555.97,6814.67,1555.97,6817.03Zm15.81,3.98c0.81,0,2.29-.04,2.4-0.04,0.34,0,.4.1,0.4,0.49v0.79c0,0.38-.06.48-0.4,0.48-0.11,0-1.59-.03-2.4-0.03h-2.06c-0.8,0-2.29.03-2.4,0.03-0.33,0-.4-0.1-0.4-0.48v-0.31a0.811,0.811,0,0,1,.38-0.82,8.822,8.822,0,0,0,.81-0.7c2.85-2.65,4.49-4.32,4.49-5.97a1.784,1.784,0,0,0-2.01-1.84,3.109,3.109,0,0,0-2.31,1.11,0.493,0.493,0,0,1-.33.23,0.609,0.609,0,0,1-.32-0.23L1567,6813a0.694,0.694,0,0,1-.19-0.36,0.617,0.617,0,0,1,.22-0.37,5.287,5.287,0,0,1,3.72-1.52c2.41,0,3.75,1.51,3.75,3.43,0,2.37-1.79,4.26-4.21,6.49a0.463,0.463,0,0,0-.17.24c0,0.06.09,0.1,0.28,0.1h1.38Zm16.07-4.5c0,3.99-2.17,6.32-4.81,6.32-2.53,0-4.54-2.02-4.54-5.85,0-3.43,1.66-6.21,4.78-6.21C1585.76,6810.77,1587.85,6812.69,1587.85,6816.51Zm-7.5.52c0,2.62,1.09,4.01,2.69,4.01,1.69,0,2.96-1.73,2.96-4.46,0-2.63-1.16-3.94-2.72-3.94C1581.27,6812.64,1580.35,6814.67,1580.35,6817.03Zm19.83-3.05a0.405,0.405,0,0,0,.44.47h1.27c0.55,0,1.09-.05,1.65-0.05,0.39,0,.39.19,0.39,0.86,0,0.65-.02.82-0.39,0.82-0.56,0-1.1-.03-1.65-0.03h-1.27a0.383,0.383,0,0,0-.44.46v1.5a0.39,0.39,0,0,0,.44.47h2.62c0.66,0,1.32-.04,1.99-0.04,0.39,0,.38.2,0.38,0.84s0.01,0.84-.38.84c-0.67,0-1.33-.04-1.99-0.04h-2.62a0.39,0.39,0,0,0-.44.47v0.47c0,0.82.05,1.63,0.05,2.43,0,0.56-.21.56-0.92,0.56-0.69,0-.9,0-0.9-0.54,0-.82.05-1.63,0.05-2.45v-0.47a0.393,0.393,0,0,0-.45-0.47h-3.92c-0.66,0-1.33.04-1.99,0.04-0.4,0-.38-0.19-0.38-0.82,0-.67-0.02-0.86.38-0.86,0.5,0,1.03.05,1.55,0.04a0.381,0.381,0,0,0,.39-0.47v-1.6c0-.41-0.01-0.82-0.01-1.24a0.635,0.635,0,0,1,.77-0.75c0.38,0,.76.03,1.14,0.03h2.07a0.408,0.408,0,0,0,.45-0.47v-1.27a0.39,0.39,0,0,0-.45-0.47h-2.09a0.669,0.669,0,0,0-.66.35,16.271,16.271,0,0,1-2.17,2.77,0.954,0.954,0,0,1-.52.37,1.847,1.847,0,0,1-1.06-1.11,1.078,1.078,0,0,1,.4-0.5,11.9,11.9,0,0,0,3.24-5.1,0.244,0.244,0,0,1,.22-0.23,14.3,14.3,0,0,1,1.54.45,0.288,0.288,0,0,1,.27.23,0.3,0.3,0,0,1-.24.22,0.6,0.6,0,0,0-.4.49,1.01,1.01,0,0,0-.03.17,0.259,0.259,0,0,0,.29.25h5.74c0.65,0,1.28-.05,1.93-0.05,0.39,0,.38.22,0.38,0.87s0.01,0.85-.38.85c-0.65,0-1.28-.03-1.93-0.03h-1.92a0.387,0.387,0,0,0-.44.47v1.27Zm-4.13,2.07a0.455,0.455,0,0,0-.44.46v1.5a0.457,0.457,0,0,0,.44.47h1.96a0.453,0.453,0,0,0,.45-0.47v-1.5a0.45,0.45,0,0,0-.45-0.46h-1.96Zm18.49-3.68a0.086,0.086,0,0,0-.1.09,0.331,0.331,0,0,0,.21.15,0.664,0.664,0,0,1,.47.39,0.193,0.193,0,0,1-.22.16,0.483,0.483,0,0,0-.41.34c-0.05.08-.1,0.16-0.17,0.28a0.526,0.526,0,0,0-.12.32,0.463,0.463,0,0,0,.15.34,12.319,12.319,0,0,0,1.12,1.05,0.427,0.427,0,0,1,.19.27,1.869,1.869,0,0,1-1.01,1.07,4.391,4.391,0,0,1-1.24-1.1,0.389,0.389,0,0,0-.28-0.16,0.374,0.374,0,0,0-.29.16,23.832,23.832,0,0,1-1.69,1.79,0.73,0.73,0,0,1-.43.23,1.776,1.776,0,0,1-1.04-.95,0.876,0.876,0,0,1,.35-0.44,18.371,18.371,0,0,0,3.03-3.6,0.246,0.246,0,0,0,.05-0.17,0.213,0.213,0,0,0-.25-0.22h-0.63c-0.62,0-1.25.04-1.87,0.04-0.38,0-.38-0.19-0.38-0.81s-0.01-.83.38-0.83c0.62,0,1.25.03,1.87,0.03h2.95a0.4,0.4,0,0,0,.45-0.47,8.039,8.039,0,0,0-.07-0.96c0-.05-0.01-0.15-0.01-0.2,0-.2.14-0.23,0.3-0.23,0.27,0,1.04.08,1.34,0.12,0.15,0.01.43,0.01,0.43,0.23a0.323,0.323,0,0,1-.19.22,0.59,0.59,0,0,0-.17.55v0.29a0.37,0.37,0,0,0,.43.45h3.02c0.61,0,1.23-.03,1.86-0.03,0.4,0,.38.2,0.38,0.83s0,0.81-.38.81c-0.63,0-1.25-.04-1.86-0.04h-0.41a0.086,0.086,0,0,0-.1.09,0.254,0.254,0,0,0,.08.1,0.944,0.944,0,0,1,.6.42,0.229,0.229,0,0,1-.27.18,0.466,0.466,0,0,0-.39.32,1.982,1.982,0,0,0-.16.24,0.64,0.64,0,0,0-.13.33,0.56,0.56,0,0,0,.13.35,15.727,15.727,0,0,0,2.13,2.11,0.7,0.7,0,0,1,.29.39,2.028,2.028,0,0,1-1.05,1.01c-0.38,0-2.02-1.88-2.34-2.25a0.328,0.328,0,0,0-.27-0.15,0.368,0.368,0,0,0-.27.13c-0.48.54-.85,0.91-1.37,1.41a0.258,0.258,0,0,0-.08.13,0.125,0.125,0,0,0,.14.12c0.13,0.02.38,0.04,0.38,0.24a0.317,0.317,0,0,1-.19.23,0.431,0.431,0,0,0-.16.35,0.377,0.377,0,0,0,.43.44h3.42c0.66,0,1.31-.03,1.96-0.03,0.39,0,.38.2,0.38,0.83s0.01,0.84-.38.84c-0.65,0-1.3-.05-1.96-0.05h-3.43a0.381,0.381,0,0,0-.43.47v1.19c0,0.54.03,1.09,0.03,1.63,0,0.52-.16.55-0.82,0.55s-0.91.02-.91-0.54c0-.5.04-1.05,0.04-1.64v-1.19a0.39,0.39,0,0,0-.45-0.47h-3.37c-0.65,0-1.31.05-1.96,0.05-0.39,0-.38-0.22-0.38-0.84s0-.83.38-0.83c0.65,0,1.31.03,1.96,0.03h3.37a0.367,0.367,0,0,0,.43-0.45c0-.12-0.02-0.25-0.03-0.39a0.8,0.8,0,0,0-.21-0.42,0.64,0.64,0,0,1-.22-0.37,0.9,0.9,0,0,1,.35-0.43,17.976,17.976,0,0,0,3.35-3.76,0.3,0.3,0,0,0,.05-0.15,0.217,0.217,0,0,0-.25-0.22h-4.08Zm23.76-2.95a0.213,0.213,0,0,1,.18-0.16,3.837,3.837,0,0,1,1.42.78,0.19,0.19,0,0,1-.2.16,0.384,0.384,0,0,0-.3.15c-0.15.3-.48,0.88-0.64,1.17a0.241,0.241,0,0,0-.04.15,0.2,0.2,0,0,0,.23.22c0.57,0,1.14-.03,1.71-0.03,0.35,0,.35.18,0.35,0.7,0,0.5,0,.69-0.35.69-0.66,0-1.31-.04-1.98-0.04h-0.61c-0.05,0-.05.04-0.02,0.07a0.235,0.235,0,0,1,.05.1,0.246,0.246,0,0,1-.22.18,0.432,0.432,0,0,0-.32.21c-0.06.15-.14,0.31-0.2,0.46a0.494,0.494,0,0,0-.05.16,0.268,0.268,0,0,0,.3.25h0.41c0.65,0,1.28-.04,1.93-0.04,0.36,0,.35.22,0.35,0.67,0,0.41.01,0.66-.34,0.66-0.64,0-1.29-.04-1.94-0.04h-2.69a0.268,0.268,0,0,0-.3.32v0.14a0.268,0.268,0,0,0,.3.32h1.88c0.6,0,1.2-.04,1.82-0.04,0.37,0,.37.19,0.37,0.66s0,0.65-.37.65c-0.62,0-1.22-.03-1.82-0.03h-1.88a0.258,0.258,0,0,0-.3.3v0.15a0.265,0.265,0,0,0,.3.32h3.54c0.67,0,1.33-.04,2.01-0.04,0.37,0,.37.17,0.37,0.67s0,0.69-.35.69c-0.68,0-1.36-.03-2.03-0.03h-2.02a0.135,0.135,0,0,0-.16.13,0.156,0.156,0,0,0,.06.12,14.967,14.967,0,0,0,3.94,2.01c0.37,0.12.53,0.2,0.53,0.4a1.526,1.526,0,0,1-.89,1.11,10.08,10.08,0,0,1-1.88-.77,15.925,15.925,0,0,1-3.09-2.11,0.186,0.186,0,0,0-.16-0.07,0.214,0.214,0,0,0-.17.23v0.15c0,0.74.05,1.49,0.05,2.25,0,0.57-.18.59-0.91,0.59-0.69,0-.88-0.02-0.88-0.57,0-.76.05-1.51,0.05-2.27v-0.11c-0.02-.14-0.05-0.24-0.19-0.24a0.239,0.239,0,0,0-.14.05,17.134,17.134,0,0,1-3.66,2.37,6.345,6.345,0,0,1-1.31.51,1.561,1.561,0,0,1-.87-1.15c0-.2.2-0.27,0.55-0.39a17.643,17.643,0,0,0,3.89-1.99,0.21,0.21,0,0,0,.07-0.14,0.129,0.129,0,0,0-.15-0.11h-1.91c-0.66,0-1.35.03-2.03,0.03-0.34,0-.34-0.2-0.34-0.69s0-.67.34-0.67c0.68,0,1.37.04,2.03,0.04h3.42a0.272,0.272,0,0,0,.3-0.32v-0.14a0.261,0.261,0,0,0-.3-0.31h-1.79c-0.6,0-1.22.03-1.82,0.03-0.38,0-.36-0.19-0.36-0.65,0-.49,0-0.66.36-0.66,0.6,0,1.22.04,1.82,0.04h1.79a0.268,0.268,0,0,0,.3-0.32v-0.14a0.268,0.268,0,0,0-.3-0.32h-2.55c-0.65,0-1.3.04-1.95,0.04-0.35,0-.33-0.27-0.33-0.66,0-.45-0.02-0.67.35-0.67,0.65,0,1.28.04,1.93,0.04h0.36a0.257,0.257,0,0,0,.29-0.25,0.9,0.9,0,0,0-.03-0.16c-0.1-.21-0.19-0.41-0.3-0.63a0.567,0.567,0,0,0-.59-0.39h-0.41c-0.66,0-1.31.04-1.98,0.04-0.35,0-.35-0.19-0.35-0.69s0-.7.35-0.7c0.52,0,1.05.03,1.57,0.03h0.17a0.194,0.194,0,0,0,.22-0.2,0.254,0.254,0,0,0-.03-0.15,13.547,13.547,0,0,0-.96-1.38,0.605,0.605,0,0,1-.15-0.27,1.6,1.6,0,0,1,1.11-.65,0.494,0.494,0,0,1,.41.32c0.03,0.05.08,0.12,0.14,0.2a8.141,8.141,0,0,1,1,1.56,0.728,0.728,0,0,1-.5.43,0.1,0.1,0,0,0-.04.07,0.071,0.071,0,0,0,.08.07h0.78a0.387,0.387,0,0,0,.44-0.45v-0.52c0-.54-0.02-1.08-0.06-1.61,0-.05-0.02-0.1-0.02-0.15a0.224,0.224,0,0,1,.27-0.25c0.22,0,1.08.1,1.33,0.13,0.16,0.02.38,0.03,0.38,0.23a0.326,0.326,0,0,1-.19.26,1.229,1.229,0,0,0-.19.92v0.99a0.383,0.383,0,0,0,.44.45h0.46a0.387,0.387,0,0,0,.45-0.45v-0.96a6.456,6.456,0,0,0-.07-1.16v-0.15c0-.2.11-0.23,0.27-0.23,0.21,0,1.04.08,1.28,0.12,0.14,0.01.41,0.03,0.41,0.23a0.348,0.348,0,0,1-.19.24,0.979,0.979,0,0,0-.17.77v1.14a0.378,0.378,0,0,0,.38.45,0.268,0.268,0,0,0,.22-0.15A20.585,20.585,0,0,0,1638.3,6809.42Zm-3.27,5.22a0.58,0.58,0,0,0,.63-0.39c0.1-.2.19-0.42,0.3-0.64a0.25,0.25,0,0,0,.03-0.13,0.271,0.271,0,0,0-.3-0.27h-2.86a0.25,0.25,0,0,0-.28.25,0.4,0.4,0,0,0,.03.15c0.39,0.84.39,1.03,0.8,1.03h1.65Zm10.23,8.13c0.2,0,.85.01,1.36,0.01h0.45c0.38,0,.45-0.06.45-0.47v-11.64c0-.39-0.07-0.46-0.45-0.46h-0.45c-0.51,0-1.16.02-1.36,0.02-0.34,0-.38-0.08-0.38-0.49v-0.62c0-.38.06-0.48,0.39-0.48,0.11,0,.84.03,1.35,0.03h1.88c0.39,0,.47.09,0.47,0.5v14.65c0,0.42-.08.5-0.47,0.5h-1.88c-0.51,0-1.24.04-1.35,0.04-0.33,0-.39-0.1-0.39-0.49v-0.62C1644.88,6822.85,1644.92,6822.77,1645.26,6822.77Z" transform="translate(-1535 -6808.62)"/>
  <path id="シェイプ_15" data-name="シェイプ 15" class="cls-1" d="M1546.72,6843.02c0.48,0,1.61,0,2.06-.04,0.09,0,.35-0.05.42-0.05a2.786,2.786,0,0,1,1.53,1.44c0,0.22-.21.47-0.39,1.43-0.78,4.33-2.4,7.32-6.11,9.87a21.391,21.391,0,0,1-4.4,2.29,2.393,2.393,0,0,1-.75.2c-0.55,0-1.38-1.5-1.38-1.86a0.4,0.4,0,0,1,.41-0.36,16,16,0,0,0,5.7-2.96,10.337,10.337,0,0,0,3.76-6.55,4.708,4.708,0,0,0,.05-0.54c0-.42-0.39-0.47-0.81-0.47h-8.12c-0.97,0-1.91.05-2.86,0.05-0.72,0-.69-0.2-0.69-1.21,0-1.03-.03-1.28.62-1.28,0.98,0,1.96.04,2.95,0.04h8.01Zm8.83,3.46a26.164,26.164,0,0,1,3.21,1.75c0.75,0.47,1.44.8,1.44,1.14a2.884,2.884,0,0,1-1.4,1.71,1.126,1.126,0,0,1-.5-0.25,38.107,38.107,0,0,0-3.71-2.29,0.461,0.461,0,0,1-.34-0.36C1554.25,6847.82,1555.09,6846.48,1555.55,6846.48Zm15.13-.12a7.569,7.569,0,0,1-.5,1.42,19.215,19.215,0,0,1-4.01,5.83,22.506,22.506,0,0,1-7.83,4.55,1.248,1.248,0,0,0-.75.47,0.576,0.576,0,0,1-.35.32,0.88,0.88,0,0,1-.48-0.59c-0.3-.6-0.57-1.21-0.84-1.81a0.446,0.446,0,0,1-.05-0.18,0.462,0.462,0,0,1,.44-0.27c0.71-.18,2.01-0.65,2.72-0.92a15.862,15.862,0,0,0,5.7-3.52,16.513,16.513,0,0,0,3.85-6.3,0.552,0.552,0,0,1,.46-0.5A3.161,3.161,0,0,1,1570.68,6846.36Zm-9.43-2.98a3.922,3.922,0,0,1,1.42,1.24,2.7,2.7,0,0,1-1.4,1.63,1.464,1.464,0,0,1-.55-0.29,32.346,32.346,0,0,0-3.34-2.35,0.717,0.717,0,0,1-.41-0.43,2.879,2.879,0,0,1,1.4-1.57A18.1,18.1,0,0,1,1561.25,6843.38Zm4.81-2.17a7.789,7.789,0,0,1,1.46,1.03,3.275,3.275,0,0,1,.92.94,1.766,1.766,0,0,1-1.01,1.12,1.9,1.9,0,0,1-.55-0.42c-0.52-.5-1.07-0.92-1.62-1.37a0.425,0.425,0,0,1-.21-0.27A1.956,1.956,0,0,1,1566.06,6841.21Zm2.04-1.93a8.467,8.467,0,0,1,2.4,1.97,1.766,1.766,0,0,1-1.01,1.12,0.468,0.468,0,0,1-.29-0.18,23.372,23.372,0,0,0-1.86-1.57,0.572,0.572,0,0,1-.25-0.31A2.028,2.028,0,0,1,1568.1,6839.28Zm11.78,7.6c0.45,0,2.74,1.77,3.2,2.15,0.32,0.27,1.6,1.24,1.6,1.62a2.771,2.771,0,0,1-1.53,1.55,0.826,0.826,0,0,1-.51-0.3,32.689,32.689,0,0,0-3.32-2.62,0.4,0.4,0,0,0-.22-0.09,0.3,0.3,0,0,0-.28.36v6.12c0,0.9.05,1.78,0.05,2.67,0,1.03-.03,1.17-1.42,1.17-0.92,0-1.31-.02-1.31-0.76,0-1.01.07-2.02,0.07-3.03v-12.79c0-.58-0.04-1.18-0.07-1.75,0-.11-0.02-0.31-0.02-0.4a0.275,0.275,0,0,1,.3-0.34c0.13,0,.62.07,0.77,0.09,1.04,0.14,1.97.23,1.97,0.54a0.569,0.569,0,0,1-.11.29,1.771,1.771,0,0,0-.25,1.19c0,0.34.02,0.77,0.02,1.33v3.36a0.19,0.19,0,0,0,.18.22,0.243,0.243,0,0,0,.21-0.09A1.207,1.207,0,0,1,1579.88,6846.88Zm5.44-2.22a1.861,1.861,0,0,1-1.12.99,0.6,0.6,0,0,1-.34-0.25,21.964,21.964,0,0,0-1.56-1.79,0.571,0.571,0,0,1-.21-0.32,1.933,1.933,0,0,1,1.13-.9A8.472,8.472,0,0,1,1585.32,6844.66Zm2.39-1.57a1.857,1.857,0,0,1-1.13,1.01,0.564,0.564,0,0,1-.32-0.27c-0.48-.6-1.05-1.23-1.58-1.77a0.608,0.608,0,0,1-.2-0.31,1.991,1.991,0,0,1,1.12-.93A8.817,8.817,0,0,1,1587.71,6843.09Zm6.35,5.76c0,1.01.04,2.05,0.04,3.05,0,0.7-.2.79-1.28,0.79s-1.37-.07-1.37-0.67c0-1.06.06-2.09,0.06-3.14v-4.74c0-.6-0.04-1.18-0.06-1.77,0-.13-0.03-0.27-0.03-0.4a0.179,0.179,0,0,1,.21-0.22c0.23,0,1.65.2,1.97,0.24,0.48,0.09.8,0.09,0.8,0.29a0.565,0.565,0,0,1-.11.25,2,2,0,0,0-.26,1.3c0,0.34.03,0.74,0.03,1.26v3.76Zm8.97-.87a33.293,33.293,0,0,1-.25,4.78,7.589,7.589,0,0,1-2.79,5.2,10.773,10.773,0,0,1-2.52,1.57,3.933,3.933,0,0,1-1.93-1.52,0.987,0.987,0,0,1,.62-0.47c2.25-1.15,3.69-2.43,4.08-4.96a27.448,27.448,0,0,0,.27-4.33v-4.87a13.475,13.475,0,0,0-.06-1.55,1.583,1.583,0,0,1-.05-0.38c0-.18.09-0.22,0.27-0.22a20.236,20.236,0,0,1,2.27.22c0.18,0.05.46,0.07,0.46,0.27a0.456,0.456,0,0,1-.21.32,1.785,1.785,0,0,0-.16.96v4.98Zm17.24,0.31c0.97,0,2.34-.06,2.62-0.06,0.57,0,.59.18,0.59,1.41,0,0.72-.02,1.14-0.57,1.14-0.89,0-1.78-.04-2.64-0.04h-9.73c-0.87,0-1.75.04-2.64,0.04-0.55,0-.57-0.42-0.57-1.12,0-1.25.04-1.43,0.59-1.43,0.27,0,1.73.06,2.62,0.06h9.73Zm16.44-6.05a1.01,1.01,0,0,1,.6.45,0.383,0.383,0,0,1-.28.27c-0.5.22-.62,0.56-1.21,1.66-1.38,2.58-2.61,5.22-3.96,7.82a1.813,1.813,0,0,0-.21.59,0.4,0.4,0,0,0,.41.4,5.377,5.377,0,0,0,.69-0.07c1.99-.2,3.96-0.4,5.93-0.65,0.25-.02.64-0.04,0.64-0.38,0-.4-1.74-1.88-2.13-2.22a1,1,0,0,1-.41-0.56,2.81,2.81,0,0,1,1.53-1.44c0.58,0,3.3,2.97,3.8,3.53,0.42,0.49,2.43,2.91,2.43,3.41a2.553,2.553,0,0,1-1.78,1.45,0.834,0.834,0,0,1-.58-0.56c-0.59-.94-0.77-1.32-1.26-1.32-0.06,0-11.35,1.37-12.64,1.52-0.77.09-.77,0.05-1.02,0.39a0.361,0.361,0,0,1-.28.17c-0.27,0-.43-0.67-0.62-1.52a5.392,5.392,0,0,0-.18-0.83,1.863,1.863,0,0,1-.07-0.34c0-.24.21-0.27,0.5-0.27H1627c1.56,0,1.63-.09,1.97-0.71,0.85-1.57,4.88-9.76,5.31-11.15a0.513,0.513,0,0,1,.39-0.45A12.693,12.693,0,0,1,1636.71,6842.24Zm23.19,1.64c1,0,1.99-.05,2.99-0.05,0.46,0,.6.14,0.6,0.96v0.54c0,0.7-.07.94-0.71,0.94-0.94,0-1.88-.04-2.84-0.04h-1.83a0.668,0.668,0,0,0-.69.67v6.28a0.665,0.665,0,0,0,.69.65h3.57c0.94,0,2.2-.04,2.89-0.04,0.57,0,.59.2,0.59,1.3,0,0.72,0,1.17-.64,1.17-0.69,0-1.85-.07-2.84-0.07H1650.6c-0.99,0-2.15.07-2.84,0.07-0.64,0-.64-0.43-0.64-1.19,0-1.08.02-1.28,0.59-1.28,0.69,0,1.93.04,2.89,0.04h3.57a0.665,0.665,0,0,0,.69-0.65v-6.28a0.668,0.668,0,0,0-.69-0.67h-1.83c-0.96,0-1.9.04-2.84,0.04-0.64,0-.71-0.24-0.71-0.91v-0.54c0-.85.14-0.99,0.6-0.99,0.98,0,1.99.05,2.97,0.05h7.54Zm22.77-.7a17.1,17.1,0,0,0,2.38-.11,1.322,1.322,0,0,1,.29-0.02,1.288,1.288,0,0,1,.85.58,2.783,2.783,0,0,1,.85,1.3,1.031,1.031,0,0,1-.5.61c-0.14.11-1.86,1.86-2.13,2.15-0.8.81-2,1.95-2.84,2.69a0.928,0.928,0,0,1-.55.31,2.959,2.959,0,0,1-1.67-1.36,1.487,1.487,0,0,1,.57-0.68c0.41-.36,2.95-2.55,2.95-2.87s-0.5-.27-0.71-0.27h-9.82c-1.05,0-2.08.07-3.11,0.07-0.6,0-.62-0.25-0.62-1.14v-0.45c0-.59.05-0.85,0.57-0.85,1.05,0,2.11.04,3.16,0.04h10.33Zm-4.01,3.59c0.16,0.02.48,0.02,0.48,0.27a0.315,0.315,0,0,1-.14.22,3.947,3.947,0,0,0-.45,1.62c-0.67,4.1-2.09,6.95-5.5,9.53a1.643,1.643,0,0,1-.76.4,3.664,3.664,0,0,1-1.87-1.57,0.844,0.844,0,0,1,.55-0.49,10.656,10.656,0,0,0,4.78-6.53,11.814,11.814,0,0,0,.37-3.34c0-.18,0-0.29.23-0.29C1676.64,6846.59,1678.32,6846.72,1678.66,6846.77Zm24.46-.32c0.53,0,1.58,0,2.06-.04a3.006,3.006,0,0,1,.42-0.05,2.693,2.693,0,0,1,1.62,1.49,5.916,5.916,0,0,1-.29.91,15.941,15.941,0,0,1-1.33,3.03,19.028,19.028,0,0,1-4.74,5.3c-0.64.51-3.12,2.24-3.83,2.24a2.859,2.859,0,0,1-1.58-1.66,1.3,1.3,0,0,1,.81-0.58,16.39,16.39,0,0,0,7.02-6.37,5.87,5.87,0,0,0,.62-1.46c0-.54-0.62-0.5-0.98-0.5h-8.52c-0.96,0-1.92.05-2.91,0.05-0.64,0-.64-0.22-0.64-1.1,0-1.14.02-1.3,0.66-1.3,0.97,0,1.95.04,2.94,0.04h8.67Zm-1.53-4.84c0.94,0,2.11-.07,2.7-0.07,0.57,0,.62.25,0.62,1.37,0,0.76,0,1.06-.62,1.06-0.92,0-1.81-.05-2.7-0.05h-5.61c-0.89,0-1.79.05-2.68,0.05-0.64,0-.64-0.27-0.64-1.1,0-1.06.05-1.33,0.62-1.33,0.64,0,1.81.07,2.7,0.07h5.61Zm19.54,14.2c0,0.98.05,1.97,0.05,2.94,0,0.6-.3.67-1.15,0.67-1.26,0-1.48-.07-1.48-0.65,0-.97.04-1.93,0.04-2.9v-6.1c0-.13.07-0.62-0.36-0.62a2.709,2.709,0,0,0-.9.51c-0.68.5-4.32,2.87-4.92,2.87a3.792,3.792,0,0,1-1.79-1.79,0.446,0.446,0,0,1,.37-0.38,33.066,33.066,0,0,0,9-5.95,18.75,18.75,0,0,0,3.11-3.79,0.6,0.6,0,0,1,.37-0.33,8.518,8.518,0,0,1,1.56.92,1.955,1.955,0,0,1,.89.8,0.276,0.276,0,0,1-.23.23,1.2,1.2,0,0,0-.89.54,45.372,45.372,0,0,1-3.14,3.36,1.2,1.2,0,0,0-.53,1.01v8.66Zm25.36-8.37a4.584,4.584,0,0,1-1.21,1.55,39.995,39.995,0,0,1-12.44,8.46,1.336,1.336,0,0,0-.96.76,0.219,0.219,0,0,1-.23.13,3.047,3.047,0,0,1-.89-1.16,6.394,6.394,0,0,1-.69-1.35,0.811,0.811,0,0,1,.71-0.38c5.06-1.46,10.79-5.7,14.04-9.76a0.561,0.561,0,0,1,.39-0.24C1745.67,6845.45,1746.49,6847.11,1746.49,6847.44Zm-11.81-3.7a4.022,4.022,0,0,1,1.39,1.28,2.734,2.734,0,0,1-1.51,1.73,2.517,2.517,0,0,1-.92-0.61,28.386,28.386,0,0,0-3.04-2.08,0.6,0.6,0,0,1-.37-0.43c0-.34.92-1.77,1.45-1.77A18.97,18.97,0,0,1,1734.68,6843.74Zm24.34-.42c0.39,0,1.31,0,1.65-.05a4.379,4.379,0,0,1,.51-0.04,2.771,2.771,0,0,1,1.46,1.5,1.942,1.942,0,0,1-.37.65c-0.32.45-.68,1.1-0.98,1.59a33.577,33.577,0,0,1-2.5,3.48,0.632,0.632,0,0,0-.2.45,0.593,0.593,0,0,0,.34.51,35.392,35.392,0,0,1,3.87,2.89c0.57,0.5,1.12.99,1.65,1.51a0.5,0.5,0,0,1,.18.33,3.155,3.155,0,0,1-1.76,1.82,0.758,0.758,0,0,1-.55-0.36,26.208,26.208,0,0,0-5.08-4.44,0.9,0.9,0,0,0-.51-0.2,1.361,1.361,0,0,0-.84.54,24,24,0,0,1-5.71,3.86,3.434,3.434,0,0,1-.89.33,3.3,3.3,0,0,1-1.51-1.88,0.64,0.64,0,0,1,.53-0.5,22.625,22.625,0,0,0,10.23-8.59,1.339,1.339,0,0,0,.3-0.65c0-.33-0.39-0.38-0.73-0.38h-4.67c-0.99,0-1.97.05-2.94,0.05-0.61,0-.57-0.41-0.57-1.28,0-.81-0.04-1.21.53-1.21,0.98,0,1.99.07,2.98,0.07h5.58Zm6.09,0a1.79,1.79,0,0,1-1.09,1.03,1.226,1.226,0,0,1-.51-0.45c-0.46-.54-0.96-1.06-1.46-1.55a0.463,0.463,0,0,1-.21-0.31,1.988,1.988,0,0,1,1.12-.92A8.5,8.5,0,0,1,1765.11,6843.32Zm2.27-1.53a1.754,1.754,0,0,1-1.1,1.01,0.514,0.514,0,0,1-.3-0.23c-0.5-.6-1.07-1.18-1.64-1.75a0.486,0.486,0,0,1-.21-0.31,1.967,1.967,0,0,1,1.1-.94A8.428,8.428,0,0,1,1767.38,6841.79Zm18.7,2.33a0.267,0.267,0,0,0-.32-0.24h-3.27a0.529,0.529,0,0,0-.64.6v0.38c0,0.29.04,0.7,0.04,0.92,0,0.49-.46.45-1.19,0.45-0.8,0-1.19.02-1.19-.47,0-.22.05-0.61,0.05-0.9v-1.07c0-.47-0.05-0.88-0.05-1.1,0-.77.62-0.9,1.74-0.9,0.57,0,1.26.04,2.06,0.04h3.92a0.533,0.533,0,0,0,.62-0.6,8.91,8.91,0,0,0-.07-1.03,0.608,0.608,0,0,1-.03-0.23c0-.27.23-0.29,0.44-0.29,0.46,0,1.47.09,1.95,0.14,0.18,0.02.64,0.02,0.64,0.29a0.464,0.464,0,0,1-.28.31,0.985,0.985,0,0,0-.27.83,0.537,0.537,0,0,0,.64.58h3.94c0.8,0,1.62-.02,2.42-0.02,0.6,0,1.38.07,1.38,0.85,0,0.18-.02.68-0.02,1.13v1.16c0,0.18.02,0.45,0.02,0.63a1.142,1.142,0,0,1,.02.27c0,0.51-.41.47-1.19,0.47-0.73,0-1.19.04-1.19-.45,0-.27.04-0.63,0.04-0.92v-0.47a0.529,0.529,0,0,0-.64-0.6h-7.09c-0.1,0-.1.04-0.1,0.06a0.074,0.074,0,0,0,.07.07,0.853,0.853,0,0,1,.67.43,0.383,0.383,0,0,1-.37.24,0.578,0.578,0,0,0-.48.25,0.25,0.25,0,0,0-.04.13,0.174,0.174,0,0,0,.2.16h2.22c0.66,0,1.33-.02,1.99-0.02a1.817,1.817,0,0,1,1.56,1.43c0,0.57-2.45,2.67-2.98,3.12a0.4,0.4,0,0,0-.18.32,0.366,0.366,0,0,0,.23.33,28.334,28.334,0,0,0,6.78,2.58,0.942,0.942,0,0,1,.94.56c0,0.29-.53,1.53-1.1,1.53a20.64,20.64,0,0,1-2.89-.86,0.592,0.592,0,0,0-.2-0.04,0.406,0.406,0,0,0-.39.45v3.52c0,0.4.04,0.92,0.04,1.28,0,0.45-.3.45-1.12,0.45-0.8,0-1.12.02-1.12-.43v-0.11a0.35,0.35,0,0,0-.41-0.4h-5.73a0.364,0.364,0,0,0-.43.4,0.412,0.412,0,0,1,.02.09c0,0.45-.37.42-1.19,0.42s-1.14,0-1.14-.44c0-.25.04-0.88,0.04-1.28v-3.48a0.387,0.387,0,0,0-.39-0.4,0.68,0.68,0,0,0-.2.02,19.72,19.72,0,0,1-2.8.83c-0.59,0-1.17-1.19-1.17-1.57,0-.36.48-0.43,1.2-0.61a29.319,29.319,0,0,0,6.7-2.55,0.427,0.427,0,0,0,.26-0.36,0.559,0.559,0,0,0-.19-0.34,13.293,13.293,0,0,1-1.3-1.3,0.709,0.709,0,0,0-.48-0.25,0.839,0.839,0,0,0-.39.14c-0.55.4-3.07,2.11-3.6,2.11a2.346,2.346,0,0,1-1.19-1.44,0.964,0.964,0,0,1,.64-0.56,17.409,17.409,0,0,0,5.47-4.04A0.272,0.272,0,0,0,1786.08,6844.12Zm5.61,12.9a0.649,0.649,0,0,0,.64-0.63v-0.85a0.649,0.649,0,0,0-.64-0.63h-5.38a0.606,0.606,0,0,0-.62.63v0.85a0.606,0.606,0,0,0,.62.63h5.38Zm-2.61-5.56a0.88,0.88,0,0,0-.48.15,25.737,25.737,0,0,1-2.36,1.28,0.162,0.162,0,0,0-.09.14,0.146,0.146,0,0,0,.16.13h5.57a0.159,0.159,0,0,0,.13-0.13,0.146,0.146,0,0,0-.09-0.14c-0.85-.4-1.53-0.78-2.33-1.25A1.046,1.046,0,0,0,1789.08,6851.46Zm-0.04-2.7a0.689,0.689,0,0,0,.46-0.2,7.467,7.467,0,0,0,1.55-1.43,0.708,0.708,0,0,0-.68-0.16h-2.87a0.265,0.265,0,0,0-.2.47,10.983,10.983,0,0,0,1.23,1.12A0.794,0.794,0,0,0,1789.04,6848.76Zm25.42,4.54h3.05c0.87,0,1.74-.05,2.61-0.05,0.55,0,.53.29,0.53,0.99s0.02,0.98-.53.98c-0.87,0-1.74-.04-2.61-0.04h-3.07a0.535,0.535,0,0,0-.62.63v0.74a0.546,0.546,0,0,0,.62.63h4.97c0.92,0,1.83-.07,2.77-0.07,0.53,0,.53.25,0.53,1.01,0,0.74,0,.99-0.51.99-0.93,0-1.85-.05-2.79-0.05h-13.62c-0.94,0-1.86.05-2.8,0.05-0.5,0-.5-0.25-0.5-0.99,0-.79,0-1.01.53-1.01,0.93,0,1.85.07,2.77,0.07h4.97a0.539,0.539,0,0,0,.61-0.63v-0.74a0.529,0.529,0,0,0-.61-0.63h-3.03c-0.87,0-1.74.04-2.61,0.04-0.55,0-.52-0.26-0.52-0.98s0-.99.52-0.99c0.87,0,1.74.05,2.61,0.05h3.03a0.512,0.512,0,0,0,.61-0.61,5.52,5.52,0,0,0-.06-0.81,0.443,0.443,0,0,1-.03-0.2c0-.27.18-0.31,0.41-0.31,0.32,0,1.74.13,2.13,0.18,0.19,0.02.53,0.04,0.53,0.29a0.461,0.461,0,0,1-.27.33,0.57,0.57,0,0,0-.23.54A0.506,0.506,0,0,0,1814.46,6853.3Zm0.05-11.55h3.87c0.85,0,1.69-.03,2.54-0.03a1.057,1.057,0,0,1,1.31.83c0,0.25-.05.63-0.05,1.08v0.9c0,0.13.05,0.44,0.05,0.6,0,0.07.02,0.18,0.02,0.25,0,0.49-.41.47-1.21,0.47-0.78,0-1.26.02-1.26-.45a1.229,1.229,0,0,1,.02-0.27c0-.16.02-0.47,0.02-0.6v-0.25a0.545,0.545,0,0,0-.64-0.63H1806.2a0.545,0.545,0,0,0-.64.63v0.16c0,0.22.04,0.67,0.04,0.85,0,0.49-.43.45-1.26,0.45-0.78,0-1.21.04-1.21-.45,0-.23.05-0.61,0.05-0.85v-0.81c0-.52-0.05-0.83-0.05-1.06,0-.74.73-0.85,1.33-0.85,0.85,0,1.69.03,2.54,0.03h3.78a0.551,0.551,0,0,0,.64-0.57,8.242,8.242,0,0,0-.09-1.01c0-.06-0.02-0.13-0.02-0.2,0-.27.25-0.27,0.45-0.27,0.46,0,1.74.09,2.22,0.14,0.16,0.02.46,0.04,0.46,0.27a0.477,0.477,0,0,1-.3.29,0.835,0.835,0,0,0-.25.76A0.53,0.53,0,0,0,1814.51,6841.75Zm2.52,9.08c-3.41.25-7.31,0.42-11.59,0.63a0.436,0.436,0,0,0-.36.31,0.35,0.35,0,0,1-.28.22c-0.18,0-.3-0.15-0.46-0.78-0.06-.22-0.36-1.32-0.36-1.5,0-.27.27-0.29,0.5-0.29h0.85c0.73,0,1.46-.03,2.2-0.05a0.9,0.9,0,0,0,.91-0.49c0.32-.5.62-1.03,0.89-1.55a0.325,0.325,0,0,0,.07-0.2,0.362,0.362,0,0,0-.41-0.34h-0.09c-0.87,0-1.74.05-2.61,0.05-0.5,0-.5-0.27-0.5-0.9,0-.67,0-0.94.5-0.94,0.87,0,1.74.04,2.61,0.04h7.56c0.87,0,1.74-.04,2.61-0.04,0.52,0,.5.27,0.5,0.92s0.02,0.92-.5.92h-0.74a0.193,0.193,0,0,0-.23.18,0.225,0.225,0,0,0,.1.18c0.52,0.47,3.77,3.36,3.77,3.81a1.978,1.978,0,0,1-1.55,1.21,1.207,1.207,0,0,1-.71-0.58c-0.14-.14-0.28-0.32-0.46-0.5a1.051,1.051,0,0,0-.85-0.4C1818.2,6850.74,1817.65,6850.78,1817.03,6850.83Zm-4.58-3.66a0.327,0.327,0,0,1-.34.25,0.652,0.652,0,0,0-.44.34c-0.21.33-.36,0.69-0.57,1.03a0.257,0.257,0,0,0-.07.18,0.313,0.313,0,0,0,.34.31c1.7-.02,3.39-0.16,5.06-0.22a0.263,0.263,0,0,0,.26-0.25,0.321,0.321,0,0,0-.1-0.2,2.131,2.131,0,0,1-.89-0.9,1.16,1.16,0,0,1,.62-0.67,0.309,0.309,0,0,0,.07-0.14,0.184,0.184,0,0,0-.16-0.11h-3.96c-0.07.02-.09,0.07-0.03,0.11A0.347,0.347,0,0,1,1812.45,6847.17Zm25.09,7.13a0.226,0.226,0,0,0-.23.27v1.28c0,1.12.04,2.22,0.04,3.32,0,0.7-.25.72-1.23,0.72s-1.24-.02-1.24-0.72c0-1.1.07-2.2,0.07-3.32v-1.23a0.249,0.249,0,0,0-.23-0.27,0.333,0.333,0,0,0-.21.09,22.869,22.869,0,0,1-6.22,4.4c-0.05.02-.07,0.04-0.12,0.06a2.806,2.806,0,0,1-.85.32,2.259,2.259,0,0,1-1.33-1.62,1.1,1.1,0,0,1,.69-0.54,20.879,20.879,0,0,0,6.12-3.83,0.5,0.5,0,0,0,.09-0.2,0.252,0.252,0,0,0-.3-0.23h-2.52c-0.89,0-1.78.05-2.65,0.05-0.56,0-.53-0.25-0.53-0.99s0-.96.53-0.96c0.7,0,1.41.06,2.15,0.04a0.522,0.522,0,0,0,.59-0.63v-0.27a0.535,0.535,0,0,0-.64-0.62h-0.18c-0.94,0-1.86.04-2.8,0.04-0.5,0-.5-0.25-0.5-0.99,0-.76,0-1.01.53-1.01,0.91,0,1.85.07,2.77,0.07h0.18a0.545,0.545,0,0,0,.64-0.63v-0.33a0.532,0.532,0,0,0-.64-0.61c-0.46,0-1.07.02-1.51,0.02-0.53,0-.53-0.24-0.53-0.96,0-.74,0-0.96.53-0.96,0.87,0,1.74.04,2.59,0.04h3.71a0.542,0.542,0,0,0,.64-0.63v-0.27a0.506,0.506,0,0,0-.62-0.58c-1.28.07-3.09,0.2-4.35,0.2h-0.62a0.742,0.742,0,0,1-.8-0.65,1.848,1.848,0,0,1-.14-0.72c0-.51.39-0.47,1.06-0.49,3.02-.07,9.15-0.34,11.86-1.3a0.7,0.7,0,0,1,.18-0.05,1.583,1.583,0,0,1,.73.63,3.736,3.736,0,0,1,1.01,1.28,0.283,0.283,0,0,1-.28.23,1.353,1.353,0,0,1-.41-0.12,1.447,1.447,0,0,0-.3-0.04c-0.89.16-1.99,0.36-2.65,0.47-0.55.09-1.12,0.13-1.69,0.22a0.6,0.6,0,0,0-.62.7v0.49a0.538,0.538,0,0,0,.64.63h3.75c0.87,0,1.74-.04,2.61-0.04,0.53,0,.51.26,0.51,0.96s0.02,0.96-.51.96c-0.57,0-1.12-.02-1.67-0.02a0.519,0.519,0,0,0-.62.61v0.33a0.549,0.549,0,0,0,.64.63h0.28c0.91,0,1.85-.07,2.77-0.07,0.53,0,.5.3,0.5,1.01s0.03,0.99-.5.99c-0.92,0-1.86-.04-2.77-0.04h-0.28a0.539,0.539,0,0,0-.64.62v0.27a0.525,0.525,0,0,0,.6.63c0.73,0.02,1.46-.04,2.2-0.04,0.52,0,.52.24,0.52,0.96,0,0.74,0,.99-0.52.99-0.9,0-1.77-.05-2.66-0.05h-2.52a0.231,0.231,0,0,0-.27.23,0.213,0.213,0,0,0,.09.18,24.236,24.236,0,0,0,6.3,4.03,0.517,0.517,0,0,1,.45.43,2.2,2.2,0,0,1-1.28,1.59,13.93,13.93,0,0,1-2.61-1.28,23.632,23.632,0,0,1-4.6-3.61A0.312,0.312,0,0,0,1837.54,6854.3Zm-4.54-8.36a0.636,0.636,0,0,0-.64.63v0.33a0.6,0.6,0,0,0,.64.63h1.31a0.642,0.642,0,0,0,.64-0.63v-0.33a0.649,0.649,0,0,0-.64-0.63H1833Zm0,3.48a0.615,0.615,0,0,0-.64.62v0.27a0.606,0.606,0,0,0,.64.63h1.31a0.649,0.649,0,0,0,.64-0.63v-0.27a0.627,0.627,0,0,0-.64-0.62H1833Zm4.95-3.48a0.63,0.63,0,0,0-.64.63v0.33a0.6,0.6,0,0,0,.64.63h1.23a0.651,0.651,0,0,0,.65-0.63v-0.33a0.658,0.658,0,0,0-.65-0.63h-1.23Zm0,3.48a0.61,0.61,0,0,0-.64.62v0.27a0.606,0.606,0,0,0,.64.63h1.23a0.658,0.658,0,0,0,.65-0.63v-0.27a0.636,0.636,0,0,0-.65-0.62h-1.23Zm20.18,1.88a0.862,0.862,0,0,1-.53.49,1.779,1.779,0,0,1-1.35-.85,0.85,0.85,0,0,1,.28-0.45,3.965,3.965,0,0,0,.75-1.25c0-.25-0.32-0.23-0.48-0.23h-0.29a0.459,0.459,0,0,0-.53.54v6.68c0,0.45.02,0.9,0.02,1.35,0,1.97-1.6,2.17-3.25,2.17-0.46,0-1.14.09-1.14-1.63,0-.29.07-0.52,0.41-0.52,0.25,0,.57.05,0.89,0.05,1.08,0,1.03-.36,1.03-1.35v-3.92c0-.09-0.02-0.16-0.11-0.16a0.145,0.145,0,0,0-.14.09,15.932,15.932,0,0,1-2.27,3.72,1.348,1.348,0,0,1-.62.54,2.251,2.251,0,0,1-1.3-1.3,0.557,0.557,0,0,1,.23-0.36,18.913,18.913,0,0,0,3.41-5.34,0.534,0.534,0,0,0,.05-0.18,0.384,0.384,0,0,0-.44-0.38h-0.57c-0.64,0-1.26.05-1.88,0.05-0.46,0-.48-0.23-0.48-0.97,0-.76.02-0.96,0.48-0.96,0.62,0,1.24.02,1.88,0.02h2.01a0.274,0.274,0,0,0,.32-0.25,0.308,0.308,0,0,0-.09-0.2,15.787,15.787,0,0,0-2.11-2.06,1,1,0,0,1-.38-0.52,2.244,2.244,0,0,1,1.39-1.14,1.264,1.264,0,0,1,.78.49,1.281,1.281,0,0,0,.62.38,0.727,0.727,0,0,0,.43-0.18,5.107,5.107,0,0,0,1.17-1.21c0-.2-0.34-0.18-0.48-0.18h-2.88c-0.71,0-1.54.05-2.02,0.05-0.5,0-.5-0.2-0.5-0.97,0-.74,0-0.96.5-0.96,0.67,0,1.35.04,2.02,0.04h3.84c0.41,0,.83-0.02,1.24-0.02a0.937,0.937,0,0,1,.89.43,1.86,1.86,0,0,1,.58,1.01c0,0.6-2.57,2.62-3.12,3.05a0.51,0.51,0,0,0-.25.42,0.617,0.617,0,0,0,.16.38,2.4,2.4,0,0,1,.55.77,0.635,0.635,0,0,1-.25.42,0.131,0.131,0,0,0-.07.12c0,0.11.09,0.13,0.18,0.13,0.21,0,1.26-.02,1.4-0.02a1.794,1.794,0,0,1,1.49,1.03,0.308,0.308,0,0,0,.25.29h0.09a15.043,15.043,0,0,0,2.61-1.28,0.469,0.469,0,0,0,.28-0.4,0.5,0.5,0,0,0-.17-0.38,10.772,10.772,0,0,1-.8-1.08,0.447,0.447,0,0,0-.36-0.22,0.474,0.474,0,0,0-.35.15,2.631,2.631,0,0,1-1.19,1.01,2.228,2.228,0,0,1-1.35-1.21,0.5,0.5,0,0,1,.21-0.31A13.8,13.8,0,0,0,1862,6840a0.417,0.417,0,0,1,.32-0.34,6.9,6.9,0,0,1,.8.22c0.58,0.16,1.45.38,1.45,0.65a0.443,0.443,0,0,1-.44.27,0.471,0.471,0,0,0-.36.38,0.387,0.387,0,0,0-.05.23,0.368,0.368,0,0,0,.41.34h2.98c0.82,0,1.62-.05,2.42-0.05,0.51,0,.51.18,0.51,0.96s-0.03.97-.51,0.97-1.21-.02-1.71-0.05a0.109,0.109,0,0,0-.09.12,0.107,0.107,0,0,0,.06.09,1.058,1.058,0,0,1,.74.49,0.3,0.3,0,0,1-.32.22,0.611,0.611,0,0,0-.51.38,13.548,13.548,0,0,1-1.14,1.48,0.614,0.614,0,0,0-.16.36,0.493,0.493,0,0,0,.25.41,15.534,15.534,0,0,0,2.88,1.37,0.711,0.711,0,0,1,.6.42c0,0.43-.66,1.71-1.15,1.71a2.285,2.285,0,0,1-.64-0.21,15.881,15.881,0,0,1-3.34-1.86,0.8,0.8,0,0,0-.43-0.15,0.753,0.753,0,0,0-.49.15c-0.64.45-3.27,2.02-3.98,2.02a1.059,1.059,0,0,1-.71-0.74,0.223,0.223,0,0,0-.2-0.16,0.217,0.217,0,0,0-.21.14C1858.93,6849.93,1858.22,6851.14,1858.13,6851.3Zm6.57,2.26a0.71,0.71,0,0,0-.8.54,9.93,9.93,0,0,1-2.82,4.35,4.636,4.636,0,0,1-1.8,1.24,2.263,2.263,0,0,1-1.47-1.48,0.6,0.6,0,0,1,.41-0.41,8,8,0,0,0,3.42-3.67,0.779,0.779,0,0,0,.04-0.21,0.405,0.405,0,0,0-.46-0.36c-0.2,0-1.49.05-1.69,0.05-0.51,0-.48-0.25-0.48-0.99,0-.83-0.03-1.01.52-1.01,0.69,0,1.38.07,2.04,0.05a0.593,0.593,0,0,0,.69-0.58c0-.21.02-0.39,0.02-0.52,0-.63,0-0.79.34-0.79a18.766,18.766,0,0,1,1.93.23,0.45,0.45,0,0,1,.46.24,0.535,0.535,0,0,1-.35.32,0.343,0.343,0,0,0-.2.34v0.15a0.51,0.51,0,0,0,.57.61h0.32c0.89,0,1.6-.05,2.15-0.05,1.08,0,1.51.16,1.51,1.1a26.279,26.279,0,0,1-.8,5.38c-0.5,1.64-1.76,1.73-3.29,1.73-0.94,0-1.33.05-1.33-1.55,0-.31,0-0.65.39-0.65a1.423,1.423,0,0,1,.34.03c0.25,0.02.5,0.04,0.78,0.04a0.9,0.9,0,0,0,1.12-.76,15.827,15.827,0,0,0,.44-2.87c0-.54-0.3-0.5-1.15-0.5h-0.85Zm1.17-9.66a0.373,0.373,0,0,0-.41-0.32h-1.74c-0.21.03-.39,0.07-0.39,0.32a0.325,0.325,0,0,0,.07.2,5.79,5.79,0,0,0,.8,1.03,0.508,0.508,0,0,0,.43.2,0.529,0.529,0,0,0,.42-0.2,6.78,6.78,0,0,0,.75-1.01A0.381,0.381,0,0,0,1865.87,6843.9Zm21.38,2.73a0.529,0.529,0,0,0,.64-0.6c0-1.28-.02-2.56-0.02-3.84v-0.76c0-.47-0.05-1.03-0.05-1.21a0.355,0.355,0,0,1,.44-0.38c0.22,0,1.37.11,1.67,0.13,0.34,0.05.61,0.05,0.61,0.32a0.461,0.461,0,0,1-.34.36c-0.23.11-.23,0.24-0.23,0.67v4.73a0.53,0.53,0,0,0,.64.58h0.07c0.78,0,1.58-.04,2.38-0.04,0.53,0,.51.29,0.51,0.94,0,0.67.02,0.97-.51,0.97-0.8,0-1.6-.07-2.4-0.05a0.53,0.53,0,0,0-.62.56c0.05,0.79.09,1.57,0.16,2.36a0.214,0.214,0,0,0,.18.2,0.247,0.247,0,0,0,.19-0.14,18.511,18.511,0,0,0,.96-2.01,0.361,0.361,0,0,1,.32-0.32,3.311,3.311,0,0,1,1.26.67,1.007,1.007,0,0,1,.64.59,0.43,0.43,0,0,1-.39.29,0.76,0.76,0,0,0-.52.56,22.3,22.3,0,0,1-1.81,3.07,1,1,0,0,0-.26.68c0,0.38.57,2.33,0.9,2.33,0.43,0,.61-1.98.66-2.36a0.351,0.351,0,0,1,.44-0.36,1.2,1.2,0,0,1,1.23.83,14.486,14.486,0,0,1-.57,2.67c-0.32.95-.66,1.86-1.88,1.86-1.4,0-2.01-1.5-2.38-2.6a0.4,0.4,0,0,0-.32-0.27,0.431,0.431,0,0,0-.3.12c-0.41.4-2.49,2.28-2.95,2.28a1.911,1.911,0,0,1-1.21-1.25,1.01,1.01,0,0,1,.57-0.63,19.189,19.189,0,0,0,3.16-2.76,1.021,1.021,0,0,0,.29-0.72,1.371,1.371,0,0,0-.02-0.27c-0.2-1.61-.39-3.14-0.46-4.8a0.53,0.53,0,0,0-.64-0.58h-4.94c-0.64,0-1.31-.02-1.95.02a0.558,0.558,0,0,0-.62.63v7c0,1.03.05,2.04,0.05,3.07,0,0.72-.21.72-1.08,0.72-0.75,0-1.05,0-1.05-.63,0-1.05.05-2.11,0.05-3.16v-0.23a0.431,0.431,0,0,0-.44-0.51c-0.07,0-.14.02-0.18,0.02-0.9.23-1.77,0.38-2.64,0.56a0.491,0.491,0,0,0-.32.29,0.362,0.362,0,0,1-.34.3c-0.23,0-.28-0.21-0.41-0.68a12.415,12.415,0,0,1-.44-1.64c0-.26.37-0.26,0.85-0.31a0.5,0.5,0,0,0,.5-0.58v-10.34a0.365,0.365,0,0,0-.41-0.41c-0.52-.02-0.55-0.15-0.55-1.05,0-.78-0.02-1.05.53-1.05,0.41,0,1.08.04,1.65,0.04h3.11c0.6,0,1.24-.04,1.65-0.04,0.57,0,.5.33,0.53,0.85,0.02,0.56.36,0.6,0.89,0.6h0.43a0.524,0.524,0,0,0,.6-0.58c-0.02-.34-0.05-0.67-0.09-1.01,0-.07-0.03-0.16-0.03-0.22,0-.25.21-0.27,0.42-0.27,0.43,0,1.26.07,1.71,0.11,0.21,0.02.62,0.02,0.62,0.27a0.414,0.414,0,0,1-.27.29,0.831,0.831,0,0,0-.25.83,0.516,0.516,0,0,0,.61.58c0.37,0,1.06-.02,1.35-0.02,0.42,0,.42.2,0.42,0.88s0,0.89-.42.89c-0.34,0-.7-0.02-1.05-0.04a0.111,0.111,0,0,0-.11.11,0.089,0.089,0,0,0,.07.09c0.11,0.05.2,0.09,0.32,0.14a1.367,1.367,0,0,1,.87.53c0,0.21-.21.21-0.37,0.23a0.342,0.342,0,0,0-.25.18c-0.21.38-.35,0.8-0.55,1.19a0.648,0.648,0,0,0-.02.2,0.341,0.341,0,0,0,.41.33h1.1Zm-11.11-2.33a0.607,0.607,0,0,0,.64.61h0.33a0.612,0.612,0,0,0,.64-0.61v-1.14a0.656,0.656,0,0,0-.64-0.63h-0.33a0.649,0.649,0,0,0-.64.63v1.14Zm0,4.26a0.607,0.607,0,0,0,.64.61h0.33a0.612,0.612,0,0,0,.64-0.61v-1.21a0.6,0.6,0,0,0-.64-0.6h-0.33a0.6,0.6,0,0,0-.64.6v1.21Zm0,4.44a0.46,0.46,0,0,0,.48.54,0.968,0.968,0,0,0,.12-0.02l0.41-.07a0.6,0.6,0,0,0,.6-0.72v-1.16a0.536,0.536,0,0,0-.64-0.61h-0.33a0.536,0.536,0,0,0-.64.61V6853Zm3.64-7.02a0.55,0.55,0,0,0,.62.63c0.6,0.05,1.35.02,1.95,0.02h0.89a0.794,0.794,0,0,0,.87-0.51,14.624,14.624,0,0,0,.66-2c0-.04.03-0.09,0.03-0.13a0.372,0.372,0,0,0-.41-0.36h-1.84c-0.59,0-1.19.04-1.69,0.04-0.39,0-.39-0.2-0.41-0.71a0.326,0.326,0,0,0-.26-0.36,0.493,0.493,0,0,0-.41.58v2.8Zm6.76,8.71c0,0.31.02,0.65,0.02,0.96a0.766,0.766,0,0,1-.94.83c-0.34,0-.71-0.02-1.07-0.02h-1.06a0.54,0.54,0,0,0-.66.56c-0.02.52-.02,0.52-1.06,0.52-0.61,0-.91.02-0.91-0.43,0-.41.02-0.81,0.02-1.21v-4.42c0-.34-0.02-0.67-0.02-1.01a0.761,0.761,0,0,1,.91-0.85c0.42,0,.83.04,1.24,0.04h1.4c0.39,0,.78-0.04,1.19-0.04a0.773,0.773,0,0,1,.96.83c0,0.36-.02.69-0.02,1.03v3.21Zm-4.63-8.24c-0.27,0-.41-0.4-0.64-1.07a8.145,8.145,0,0,1-.37-1.06c0-.33.9-0.51,1.17-0.51s0.39,0.13.71,1.03a6.033,6.033,0,0,1,.3,1.01A1.261,1.261,0,0,1,1881.91,6846.45Zm1.44,4.87a0.509,0.509,0,0,0-.54.52,0.519,0.519,0,0,0,.54.51h0.85a0.528,0.528,0,0,0,.55-0.51,0.518,0.518,0,0,0-.55-0.52h-0.85Zm0,2.36a0.512,0.512,0,0,0-.54.53v0.05a0.52,0.52,0,0,0,.54.54h0.85a0.528,0.528,0,0,0,.55-0.54v-0.05a0.52,0.52,0,0,0-.55-0.53h-0.85Zm9.62-8.59a3.8,3.8,0,0,1-.8.22,0.542,0.542,0,0,1-.44-0.47,24.6,24.6,0,0,0-1.3-2.8,0.583,0.583,0,0,1-.09-0.29c0-.41,1.12-0.68,1.33-0.68a0.48,0.48,0,0,1,.39.23,14,14,0,0,1,.8,1.5,13.134,13.134,0,0,1,.66,1.75A0.616,0.616,0,0,1,1892.97,6845.09Z" transform="translate(-1535 -6808.62)"/>
</svg>
