<svg xmlns="http://www.w3.org/2000/svg" width="302.531" height="57.62" viewBox="0 0 302.531 57.62">
  <defs>
    <style>
      .cls-1 {
        fill: #4da5dc;
        fill-rule: evenodd;
      }
    </style>
  </defs>
  <path id="エアライン業界の_多くの職種の魅力を発見_" data-name="エアライン業界の 多くの職種の魅力を発見！" class="cls-1" d="M575.834,6388.1c-1.032,0-2.088-.04-3.12-0.04-0.48,0-.624.14-0.624,1.05v0.58c0,0.72.072,0.98,0.744,0.98,0.984,0,1.968-.05,2.976-0.05h1.921a0.712,0.712,0,0,1,.72.72v6.72a0.7,0.7,0,0,1-.72.7h-3.745c-1.008,0-2.3-.05-3.024-0.05-0.6,0-.624.22-0.624,1.37,0,0.82,0,1.27.672,1.27,0.72,0,1.944-.07,2.976-0.07H585.6c1.032,0,2.256.07,2.976,0.07,0.673,0,.673-0.48.673-1.25,0-1.17-.024-1.39-0.624-1.39-0.721,0-2.041.05-3.025,0.05h-3.744a0.7,0.7,0,0,1-.72-0.7v-6.72a0.712,0.712,0,0,1,.72-0.72h1.92c1.008,0,1.992.05,2.976,0.05,0.672,0,.744-0.26.744-1.01v-0.57c0-.89-0.144-1.03-0.624-1.03-1.056,0-2.088.04-3.144,0.04h-7.9Zm28.945,2.91c-0.24,0-.24.12-0.24,0.31a12.916,12.916,0,0,1-.384,3.58,11.362,11.362,0,0,1-5.017,6.98,0.9,0.9,0,0,0-.576.53,3.881,3.881,0,0,0,1.968,1.68,1.75,1.75,0,0,0,.792-0.43c3.577-2.76,5.065-5.81,5.761-10.2a4.086,4.086,0,0,1,.48-1.73,0.375,0.375,0,0,0,.144-0.24c0-.27-0.336-0.27-0.5-0.29C606.843,6391.15,605.091,6391.01,604.779,6391.01Zm-4.2-3.65c-1.1,0-2.208-.05-3.312-0.05-0.552,0-.6.29-0.6,0.91v0.48c0,0.96.024,1.23,0.648,1.23,1.08,0,2.16-.07,3.264-0.07h10.3c0.216,0,.744-0.05.744,0.28s-2.664,2.69-3.1,3.08a1.552,1.552,0,0,0-.6.72,3.155,3.155,0,0,0,1.752,1.46,0.93,0.93,0,0,0,.576-0.34c0.888-.79,2.136-2.01,2.976-2.88,0.288-.31,2.089-2.18,2.233-2.3a1.055,1.055,0,0,0,.528-0.65,3,3,0,0,0-.889-1.39,1.371,1.371,0,0,0-.888-0.62,1.515,1.515,0,0,0-.312.02,17.222,17.222,0,0,1-2.5.12H600.578Zm27.288,3.5c-1.032,0-2.064-.04-3.072-0.04-0.672,0-.7.16-0.7,1.39,0,0.93,0,1.17.672,1.17,1.032,0,2.04-.04,3.048-0.04h8.929c0.384,0,1.032-.05,1.032.52a6.009,6.009,0,0,1-.648,1.56,17.3,17.3,0,0,1-7.368,6.82,1.384,1.384,0,0,0-.841.62,3.011,3.011,0,0,0,1.657,1.78c0.744,0,3.336-1.85,4.008-2.4a20.076,20.076,0,0,0,4.968-5.66,16.75,16.75,0,0,0,1.392-3.24,6.145,6.145,0,0,0,.313-0.99,2.859,2.859,0,0,0-1.705-1.58,2.121,2.121,0,0,0-.432.05c-0.5.04-1.608,0.04-2.16,0.04h-9.1Zm1.608-5.18c-0.936,0-2.16-.07-2.832-0.07-0.6,0-.648.29-0.648,1.41,0,0.89,0,1.18.672,1.18,0.936,0,1.872-.05,2.808-0.05h5.881c0.936,0,1.872.05,2.832,0.05,0.648,0,.648-0.31.648-1.13,0-1.2-.048-1.46-0.648-1.46-0.624,0-1.848.07-2.832,0.07h-5.881Zm31.489,5.93a1.281,1.281,0,0,1,.552-1.08,46.77,46.77,0,0,0,3.288-3.6,1.315,1.315,0,0,1,.936-0.58,0.276,0.276,0,0,0,.24-0.24,2.059,2.059,0,0,0-.936-0.86,9.029,9.029,0,0,0-1.632-.99,0.631,0.631,0,0,0-.384.36,20.2,20.2,0,0,1-3.264,4.06,34.571,34.571,0,0,1-9.433,6.36,0.485,0.485,0,0,0-.384.41,4.067,4.067,0,0,0,1.872,1.92c0.624,0,4.441-2.55,5.161-3.07a2.613,2.613,0,0,1,.936-0.56c0.456,0,.384.53,0.384,0.68v6.52c0,1.04-.048,2.07-0.048,3.1,0,0.62.24,0.7,1.56,0.7,0.888,0,1.2-.08,1.2-0.72,0-1.03-.048-2.09-0.048-3.15v-9.26Zm31.072-1.83a0.6,0.6,0,0,0-.408.27c-3.408,4.34-9.408,8.88-14.713,10.44a0.84,0.84,0,0,0-.744.41,6.726,6.726,0,0,0,.72,1.44,3.268,3.268,0,0,0,.936,1.25,0.24,0.24,0,0,0,.24-0.15,1.387,1.387,0,0,1,1.008-.81,41.972,41.972,0,0,0,13.034-9.05,4.882,4.882,0,0,0,1.272-1.66C693.38,6391.56,692.515,6389.78,692.035,6389.78Zm-14.185-3.84c-0.552,0-1.512,1.54-1.512,1.9a0.6,0.6,0,0,0,.384.46,28.81,28.81,0,0,1,3.192,2.23,2.554,2.554,0,0,0,.961.65,2.937,2.937,0,0,0,1.584-1.85c0-.36-1.152-1.15-1.464-1.37A18.884,18.884,0,0,0,677.85,6385.94Zm30.673,5.93c-0.624,0-.624-0.26-1.224-1.46a0.727,0.727,0,0,1-.049-0.22,0.381,0.381,0,0,1,.433-0.36h4.344a0.406,0.406,0,0,1,.456.39,0.459,0.459,0,0,1-.048.19c-0.168.31-.312,0.62-0.456,0.91a0.884,0.884,0,0,1-.96.55h-2.5Zm5.592-4.15a0.434,0.434,0,0,1-.336.22,0.557,0.557,0,0,1-.576-0.65v-1.63a1.322,1.322,0,0,1,.264-1.11,0.473,0.473,0,0,0,.288-0.33c0-.29-0.408-0.32-0.624-0.34-0.36-.05-1.632-0.17-1.944-0.17-0.24,0-.408.05-0.408,0.34v0.21a9.692,9.692,0,0,1,.1,1.66v1.37a0.566,0.566,0,0,1-.672.65h-0.7a0.566,0.566,0,0,1-.672-0.65v-1.42a1.688,1.688,0,0,1,.288-1.32,0.443,0.443,0,0,0,.288-0.36c0-.29-0.336-0.31-0.576-0.33-0.384-.05-1.681-0.2-2.017-0.2a0.337,0.337,0,0,0-.408.36c0,0.08.024,0.15,0.024,0.22,0.072,0.77.1,1.54,0.1,2.3v0.75a0.575,0.575,0,0,1-.672.65h-1.176a0.1,0.1,0,0,1-.12-0.1,0.141,0.141,0,0,1,.048-0.1,1.115,1.115,0,0,0,.768-0.62,11.688,11.688,0,0,0-1.512-2.23c-0.1-.12-0.168-0.22-0.216-0.29a0.759,0.759,0,0,0-.624-0.46c-0.432,0-1.68.58-1.68,0.94a0.837,0.837,0,0,0,.216.38,21.476,21.476,0,0,1,1.464,1.97,0.369,0.369,0,0,1,.048.22,0.3,0.3,0,0,1-.336.29h-0.264c-0.792,0-1.584-.05-2.376-0.05-0.528,0-.528.29-0.528,1.01s0,0.98.528,0.98c1.008,0,1.992-.05,3-0.05h0.624a0.867,0.867,0,0,1,.888.55c0.168,0.32.312,0.6,0.456,0.92a0.665,0.665,0,0,1,.048.21,0.385,0.385,0,0,1-.432.36H704.13c-0.984,0-1.944-.05-2.928-0.05-0.552,0-.528.32-0.528,0.96,0,0.56-.024.94,0.5,0.94,0.984,0,1.968-.05,2.952-0.05H708a0.39,0.39,0,0,1,.456.46v0.19a0.39,0.39,0,0,1-.456.46h-2.713c-0.912,0-1.848-.05-2.76-0.05-0.552,0-.552.24-0.552,0.93s-0.024.94,0.552,0.94c0.912,0,1.848-.05,2.76-0.05H708a0.39,0.39,0,0,1,.456.46v0.19a0.4,0.4,0,0,1-.456.46H702.81c-1.008,0-2.04-.05-3.072-0.05-0.528,0-.528.26-0.528,0.96s0,0.98.528,0.98c1.032,0,2.064-.05,3.072-0.05h2.9a0.193,0.193,0,0,1,.216.17,0.227,0.227,0,0,1-.1.19,26.907,26.907,0,0,1-5.9,2.86c-0.528.17-.84,0.27-0.84,0.55a2.292,2.292,0,0,0,1.32,1.66,10.232,10.232,0,0,0,1.992-.74,26.1,26.1,0,0,0,5.545-3.39,0.369,0.369,0,0,1,.216-0.07,0.288,0.288,0,0,1,.288.33v0.17c0,1.08-.072,2.16-0.072,3.24,0,0.79.288,0.82,1.344,0.82,1.1,0,1.368-.03,1.368-0.84,0-1.08-.072-2.16-0.072-3.22v-0.21a0.3,0.3,0,0,1,.264-0.34,0.287,0.287,0,0,1,.24.1,23.288,23.288,0,0,0,4.68,3.02,15.219,15.219,0,0,0,2.856,1.11,2.2,2.2,0,0,0,1.345-1.59c0-.29-0.24-0.41-0.792-0.57a23.114,23.114,0,0,1-5.977-2.89,0.165,0.165,0,0,1-.1-0.16,0.205,0.205,0,0,1,.24-0.2h3.072c1.008,0,2.041.05,3.073,0.05,0.528,0,.528-0.26.528-0.98s0-.96-0.552-0.96c-1.033,0-2.041.05-3.049,0.05h-5.376a0.392,0.392,0,0,1-.456-0.46v-0.22a0.38,0.38,0,0,1,.456-0.43h2.856c0.912,0,1.824.05,2.76,0.05,0.552,0,.552-0.26.552-0.94s0-.93-0.552-0.93c-0.936,0-1.848.05-2.76,0.05h-2.856a0.392,0.392,0,0,1-.456-0.46v-0.19a0.39,0.39,0,0,1,.456-0.46h4.08c0.984,0,1.968.05,2.952,0.05,0.529,0,.5-0.36.5-0.94,0-.64.024-0.96-0.529-0.96-0.984,0-1.944.05-2.928,0.05h-0.624a0.39,0.39,0,0,1-.456-0.36,0.727,0.727,0,0,1,.072-0.21c0.1-.22.216-0.46,0.312-0.68a0.656,0.656,0,0,1,.48-0.28,0.4,0.4,0,0,0,.336-0.27,0.39,0.39,0,0,0-.072-0.14c-0.048-.05-0.048-0.1.024-0.1h0.936c1.008,0,1.992.05,3,.05,0.528,0,.528-0.26.528-0.98,0-.75,0-1.01-0.528-1.01-0.864,0-1.729.05-2.593,0.05a0.309,0.309,0,0,1-.36-0.32,0.326,0.326,0,0,1,.072-0.21c0.24-.41.744-1.25,0.96-1.68a0.639,0.639,0,0,1,.456-0.22c0.048,0,.312-0.02.312-0.21,0-.34-2.064-1.13-2.16-1.13a0.305,0.305,0,0,0-.264.24A30.193,30.193,0,0,1,714.115,6387.72Zm20.928-.43a0.635,0.635,0,0,1-.648.67h-3.6a0.685,0.685,0,0,1-.672-0.67v-0.31a0.694,0.694,0,0,1,.672-0.68h3.6a0.643,0.643,0,0,1,.648.68v0.31Zm0,3.45a0.643,0.643,0,0,1-.648.68h-3.6a0.694,0.694,0,0,1-.672-0.68v-0.31a0.685,0.685,0,0,1,.672-0.67h3.6a0.635,0.635,0,0,1,.648.67v0.31Zm2.4-.31a0.685,0.685,0,0,1,.672-0.67h3.624a0.635,0.635,0,0,1,.648.67v0.31a0.643,0.643,0,0,1-.648.68h-3.624a0.694,0.694,0,0,1-.672-0.68v-0.31Zm0.672-2.47a0.685,0.685,0,0,1-.672-0.67v-0.31a0.694,0.694,0,0,1,.672-0.68h3.624a0.643,0.643,0,0,1,.648.68v0.31a0.635,0.635,0,0,1-.648.67h-3.624Zm-4.657,8.23a19.135,19.135,0,0,0,2.257-2.04,0.66,0.66,0,0,1,.456-0.24,0.685,0.685,0,0,1,.432.22,24.1,24.1,0,0,0,2.688,2.23,0.124,0.124,0,0,1-.1.22h-0.312c-0.216,0-.432.04-0.432,0.31,0,0.07.024,0.14,0.024,0.21a12.719,12.719,0,0,1,.072,1.35v3.84c0,0.74-.048,1.49-0.048,2.21s0.336,0.69,1.272.69,1.248,0.03,1.248-.69c0-.75-0.048-1.47-0.048-2.21v-4.13a0.372,0.372,0,0,1,.36-0.38,0.611,0.611,0,0,1,.288.07,22.139,22.139,0,0,0,4.177,1.8c0.528,0,1.176-1.27,1.176-1.75,0-.32-0.336-0.39-0.744-0.53a20.7,20.7,0,0,1-6.865-3.58,0.209,0.209,0,0,1-.12-0.19,0.28,0.28,0,0,1,.288-0.22h2.376a0.911,0.911,0,0,1,.528.41,1.718,1.718,0,0,0,1.2.17c0.984,0,1.225-.02,1.225-0.58s-0.049-1.17-.049-1.75v-4.75c0-.5.024-1.01,0.024-1.54,0-.88-0.5-1.05-1.536-1.05-0.5,0-1.128.05-1.9,0.05H731.13c-0.768,0-1.416-.05-1.9-0.05-1.08,0-1.56.17-1.56,1.08,0,0.5.048,1.01,0.048,1.51v4.75c0,0.58-.072,1.18-0.072,1.75s0.264,0.58,1.248.58h0.264a1.579,1.579,0,0,0,.912-0.17,0.911,0.911,0,0,1,.528-0.41h2.28a0.306,0.306,0,0,1,.312.24,0.284,0.284,0,0,1-.12.22,19.8,19.8,0,0,1-6.7,3.62c-0.528.2-.888,0.27-0.888,0.58,0,0.46.6,1.7,1.128,1.7,0.768,0,3.816-1.6,4.632-2.06a0.906,0.906,0,0,1,.216-0.07c0.264,0,.312.19,0.336,0.41a4.838,4.838,0,0,1-4.008,4.87,0.625,0.625,0,0,0-.648.5c0,0.44.624,1.68,1.224,1.68a7.186,7.186,0,0,0,2.424-.93c2.448-1.42,3.337-3.8,3.385-6.53a0.427,0.427,0,0,1,.24-0.34,0.405,0.405,0,0,0,.312-0.31c0-.24-0.336-0.26-1.128-0.34a0.232,0.232,0,0,1-.241-0.21A0.353,0.353,0,0,1,733.458,6396.19Zm27.529-6.98a0.377,0.377,0,0,1,.384.43,24.408,24.408,0,0,1-.768,4.68c-0.672,2.45-2.017,5.18-3.217,5.18-1.224,0-1.536-2.23-1.536-3.12a7.435,7.435,0,0,1,4.321-6.91A2.866,2.866,0,0,1,760.987,6389.21Zm2.3-2.81a9.885,9.885,0,0,0-9.961,10.08,7.543,7.543,0,0,0,.744,3.41,3.876,3.876,0,0,0,3.264,2.28,4.3,4.3,0,0,0,3.169-1.85c2.3-2.76,3.144-7.03,3.408-10.54,0.024-.4.024-0.93,0.576-0.93a4.292,4.292,0,0,1,.912.21,5.831,5.831,0,0,1,3.84,5.74c0,3.43-2.472,5.5-5.616,6.24-0.24.05-.6,0.1-0.6,0.34,0,0.52.984,2.01,1.608,2.01a9.276,9.276,0,0,0,2.616-.96,8.617,8.617,0,0,0,4.681-7.75,8.1,8.1,0,0,0-2.425-5.9A8.539,8.539,0,0,0,763.291,6386.4Zm-184.576,50.93a33.957,33.957,0,0,1-7.609,1.49c-1.1.09-1.392,0.09-1.392,0.62,0,0.41.288,1.73,1.224,1.73,0.192,0,.48-0.05.7-0.07a32.045,32.045,0,0,0,12.025-3.46,20.7,20.7,0,0,0,5.785-4.42,2.508,2.508,0,0,0,.648-1.05,2.161,2.161,0,0,0-.48-0.89,1.328,1.328,0,0,0-1.225-.5c-0.816,0-1.632.02-2.448,0.02h-2.784a0.236,0.236,0,0,1-.264-0.22,2.045,2.045,0,0,1,.648-0.74,0.952,0.952,0,0,1,.744-0.38,0.383,0.383,0,0,0,.384-0.27,0.83,0.83,0,0,0-.744-0.53,14.243,14.243,0,0,0-1.68-.52,0.581,0.581,0,0,0-.456.28c-2.4,2.74-6.865,4.54-10.345,5.43a0.6,0.6,0,0,0-.624.53,1.85,1.85,0,0,0,1.272,1.56,3.754,3.754,0,0,0,.96-0.24,33.247,33.247,0,0,0,6.1-2.62,1.8,1.8,0,0,1,1.152-.29h4.968c0.5,0,.792.03,0.792,0.24,0,0.65-3.36,2.59-4.008,2.91a0.829,0.829,0,0,1-.408.12,0.751,0.751,0,0,1-.552-0.31c-0.384-.46-0.912-1.04-1.32-1.47a1.2,1.2,0,0,0-.672-0.43c-0.36,0-1.536.6-1.536,1.01a5.416,5.416,0,0,0,.888,1.2c0.168,0.21.336,0.4,0.48,0.57a0.514,0.514,0,0,1,.12.32A0.407,0.407,0,0,1,578.715,6437.33Zm0.336-10.8c-0.288-.34-1.512-1.78-1.9-1.78a2.346,2.346,0,0,0-1.608,1.03,2.652,2.652,0,0,0,.744.99,1.947,1.947,0,0,1,.721.96,0.41,0.41,0,0,1-.313.38,39.378,39.378,0,0,1-6.336,1.56c-0.576.1-.912,0.15-0.912,0.6,0,0.39.336,1.63,1.1,1.63a8.8,8.8,0,0,0,1.008-.16,39.571,39.571,0,0,0,11.089-3.94,23.759,23.759,0,0,0,4.872-3.5,1.29,1.29,0,0,0-1.008-2.36c-0.72,0-1.44.03-2.16,0.03h-3.792a0.249,0.249,0,0,1-.288-0.22,1.161,1.161,0,0,1,.432-0.53,1.222,1.222,0,0,1,.768-0.43,0.369,0.369,0,0,0,.408-0.29c0-.31-0.5-0.4-1.032-0.6a10.871,10.871,0,0,0-1.464-.45,0.849,0.849,0,0,0-.552.41,19.287,19.287,0,0,1-7.9,4.84c-0.6.2-1.032,0.29-1.032,0.68a1.861,1.861,0,0,0,1.2,1.53c1.032,0,4.8-2.11,5.808-2.73a1.7,1.7,0,0,1,1.081-.27h5.136a0.9,0.9,0,0,1,.792.19c0,0.6-3.312,2.36-3.936,2.64a0.573,0.573,0,0,1-.36.1A0.729,0.729,0,0,1,579.051,6426.53Zm30.648-4.56a3.948,3.948,0,0,0-1.272-1.08,0.6,0.6,0,0,0-.36.29,32.272,32.272,0,0,1-4.489,4.24,24.042,24.042,0,0,0-3.1,2.81,2.737,2.737,0,0,0-.528,1.66,3.642,3.642,0,0,0,1.152,2.54c1.176,1.39,2.5,2.69,3.793,3.99,0.984,1,1.992,2.01,2.9,3.09a1.418,1.418,0,0,0,.744.63,3.4,3.4,0,0,0,2.04-1.95c0-.48-1.656-1.82-2.064-2.18-1.488-1.32-2.976-2.67-4.344-4.13a3.937,3.937,0,0,1-1.2-1.9,2.509,2.509,0,0,1,.985-1.36c1.248-1.2,2.616-2.31,3.96-3.41,0.6-.48,1.2-0.94,1.8-1.37a1.1,1.1,0,0,1,.648-0.29c0.168,0,.5.03,0.5-0.21A5.383,5.383,0,0,0,609.7,6421.97Zm21.288,3.24a0.377,0.377,0,0,1,.384.43,24.408,24.408,0,0,1-.768,4.68c-0.672,2.45-2.017,5.18-3.217,5.18-1.224,0-1.536-2.23-1.536-3.12a7.435,7.435,0,0,1,4.32-6.91A2.882,2.882,0,0,1,630.987,6425.21Zm2.3-2.81a9.885,9.885,0,0,0-9.961,10.08,7.543,7.543,0,0,0,.744,3.41,3.876,3.876,0,0,0,3.264,2.28,4.3,4.3,0,0,0,3.169-1.85c2.3-2.76,3.144-7.03,3.408-10.54,0.024-.4.024-0.93,0.576-0.93a4.292,4.292,0,0,1,.912.21,5.831,5.831,0,0,1,3.84,5.74c0,3.43-2.472,5.5-5.616,6.24-0.24.05-.6,0.1-0.6,0.34,0,0.53.984,2.01,1.608,2.01a9.276,9.276,0,0,0,2.616-.96,8.617,8.617,0,0,0,4.681-7.75,8.1,8.1,0,0,0-2.425-5.9A8.539,8.539,0,0,0,633.291,6422.4Zm26.52,12.19a0.556,0.556,0,0,1,.576.58v0.05a0.553,0.553,0,0,1-.576.57h-0.888a0.553,0.553,0,0,1-.576-0.57v-0.05a0.556,0.556,0,0,1,.576-0.58h0.888Zm0-2.52a0.551,0.551,0,0,1,.576.55,0.565,0.565,0,0,1-.576.56h-0.888a0.565,0.565,0,0,1-.576-0.56,0.551,0.551,0,0,1,.576-0.55h0.888Zm2.448,0.17c0-.36.024-0.72,0.024-1.1a0.819,0.819,0,0,0-1.008-.89c-0.432,0-.84.05-1.248,0.05h-1.464c-0.432,0-.864-0.05-1.3-0.05a0.809,0.809,0,0,0-.961.91c0,0.36.024,0.72,0.024,1.08v4.73c0,0.43-.024.86-0.024,1.29,0,0.49.312,0.46,0.961,0.46,1.08,0,1.08,0,1.1-.55a0.577,0.577,0,0,1,.7-0.6h1.1c0.384,0,.768.02,1.128,0.02a0.809,0.809,0,0,0,.984-0.89c0-.33-0.024-0.69-0.024-1.03v-3.43Zm7.321-7.42a13.969,13.969,0,0,0-.7-1.87,12.932,12.932,0,0,0-.841-1.61,0.5,0.5,0,0,0-.408-0.24c-0.216,0-1.392.29-1.392,0.72a0.729,0.729,0,0,0,.1.32,25.647,25.647,0,0,1,1.369,3,0.563,0.563,0,0,0,.456.5,3.791,3.791,0,0,0,.84-0.24A0.643,0.643,0,0,0,669.58,6424.82Zm-18.218,7.52a0.563,0.563,0,0,1,.672-0.65h0.336a0.563,0.563,0,0,1,.672.65v1.25a0.633,0.633,0,0,1-.624.76l-0.432.07a0.86,0.86,0,0,1-.12.03,0.49,0.49,0,0,1-.5-0.58v-1.53Zm0-4.52a0.634,0.634,0,0,1,.672-0.64h0.336a0.634,0.634,0,0,1,.672.64v1.3a0.637,0.637,0,0,1-.672.65h-0.336a0.637,0.637,0,0,1-.672-0.65v-1.3Zm0-4.48a0.694,0.694,0,0,1,.672-0.68h0.336a0.694,0.694,0,0,1,.672.68v1.22a0.637,0.637,0,0,1-.672.65h-0.336a0.637,0.637,0,0,1-.672-0.65v-1.22Zm3.816,0.02a0.519,0.519,0,0,1,.432-0.62,0.336,0.336,0,0,1,.264.38c0.024,0.55.024,0.77,0.432,0.77,0.529,0,1.153-.05,1.777-0.05H660a0.389,0.389,0,0,1,.432.38c0,0.05-.024.1-0.024,0.15a17.191,17.191,0,0,1-.7,2.13,0.825,0.825,0,0,1-.912.56h-0.936c-0.624,0-1.416.02-2.041-.03a0.576,0.576,0,0,1-.648-0.67v-3Zm6.673,3.7a0.364,0.364,0,0,1-.432-0.36,0.659,0.659,0,0,1,.024-0.22c0.216-.41.36-0.86,0.576-1.27a0.349,0.349,0,0,1,.264-0.19c0.168-.03.384-0.03,0.384-0.24a1.409,1.409,0,0,0-.912-0.58c-0.12-.05-0.216-0.1-0.336-0.14a0.111,0.111,0,0,1-.072-0.1,0.127,0.127,0,0,1,.12-0.12c0.36,0.02.744,0.05,1.1,0.05,0.432,0,.432-0.24.432-0.96s0-.94-0.432-0.94c-0.312,0-1.032.03-1.416,0.03a0.561,0.561,0,0,1-.648-0.63,0.908,0.908,0,0,1,.264-0.89,0.433,0.433,0,0,0,.288-0.31c0-.26-0.432-0.26-0.648-0.29-0.48-.04-1.344-0.12-1.8-0.12-0.216,0-.432.03-0.432,0.29,0,0.07.024,0.17,0.024,0.24,0.048,0.36.072,0.72,0.1,1.08a0.563,0.563,0,0,1-.624.63h-0.456c-0.552,0-.913-0.05-0.936-0.65-0.024-.55.047-0.91-0.553-0.91-0.432,0-1.1.04-1.728,0.04h-3.264c-0.6,0-1.3-.04-1.728-0.04-0.576,0-.552.28-0.552,1.12,0,0.96.024,1.11,0.576,1.13a0.386,0.386,0,0,1,.432.43v11.07a0.527,0.527,0,0,1-.528.62c-0.5.05-.888,0.05-0.888,0.34a14.8,14.8,0,0,0,.456,1.75c0.144,0.5.192,0.72,0.432,0.72a0.379,0.379,0,0,0,.36-0.31,0.478,0.478,0,0,1,.336-0.31c0.912-.2,1.824-0.36,2.76-0.6,0.048,0,.12-0.03.192-0.03a0.462,0.462,0,0,1,.456.56v0.24c0,1.12-.048,2.25-0.048,3.38,0,0.67.312,0.67,1.1,0.67,0.912,0,1.128,0,1.128-.77,0-1.1-.048-2.18-0.048-3.28v-7.49a0.587,0.587,0,0,1,.648-0.68c0.672-.04,1.369-0.02,2.041-0.02h5.184a0.564,0.564,0,0,1,.672.62c0.072,1.78.264,3.41,0.48,5.14a1.311,1.311,0,0,1,.024.29,1.108,1.108,0,0,1-.312.77,20.433,20.433,0,0,1-3.312,2.95,1.081,1.081,0,0,0-.6.67,2.048,2.048,0,0,0,1.272,1.35c0.48,0,2.664-2.02,3.1-2.45a0.422,0.422,0,0,1,.312-0.12,0.4,0.4,0,0,1,.336.29c0.384,1.17,1.032,2.78,2.5,2.78,1.273,0,1.633-.98,1.969-1.99a15.518,15.518,0,0,0,.6-2.86c0-.65-0.936-0.89-1.3-0.89a0.372,0.372,0,0,0-.457.39c-0.047.41-.239,2.52-0.7,2.52-0.336,0-.936-2.09-0.936-2.5a1.112,1.112,0,0,1,.264-0.72,23.435,23.435,0,0,0,1.9-3.29,0.833,0.833,0,0,1,.552-0.6,0.449,0.449,0,0,0,.408-0.31,1.052,1.052,0,0,0-.672-0.62,3.362,3.362,0,0,0-1.321-.72,0.38,0.38,0,0,0-.336.33,17.534,17.534,0,0,1-1.008,2.16,0.249,0.249,0,0,1-.192.15,0.232,0.232,0,0,1-.192-0.22c-0.072-.84-0.12-1.68-0.168-2.52a0.558,0.558,0,0,1,.648-0.6c0.84-.02,1.681.05,2.521,0.05,0.552,0,.528-0.31.528-1.03,0-.7.024-1.01-0.528-1.01-0.84,0-1.681.05-2.5,0.05h-0.072a0.567,0.567,0,0,1-.672-0.63v-5.06c0-.46,0-0.6.24-0.72a0.5,0.5,0,0,0,.36-0.39c0-.28-0.288-0.28-0.648-0.33-0.312-.03-1.512-0.15-1.752-0.15a0.376,0.376,0,0,0-.456.41c0,0.19.048,0.79,0.048,1.3v0.81c0,1.37.024,2.74,0.024,4.11a0.564,0.564,0,0,1-.672.65h-1.152Zm-3.216-.84a6.354,6.354,0,0,0-.312-1.08c-0.336-.96-0.456-1.11-0.744-1.11s-1.224.19-1.224,0.55a8.512,8.512,0,0,0,.384,1.13c0.24,0.72.384,1.15,0.672,1.15C657.8,6426.86,658.635,6426.6,658.635,6426.22Zm27.24,5.85a0.534,0.534,0,0,1,.552-0.57H687.6a0.553,0.553,0,0,1,.576.57v0.34a0.537,0.537,0,0,1-.576.57h-1.176a0.519,0.519,0,0,1-.552-0.57v-0.34Zm5.064,0.91a0.537,0.537,0,0,1-.576-0.57v-0.34a0.553,0.553,0,0,1,.576-0.57h1.176a0.553,0.553,0,0,1,.576.57v0.34a0.537,0.537,0,0,1-.576.57h-1.176Zm-3.336-4.36a0.553,0.553,0,0,1,.576.57v0.24a0.556,0.556,0,0,1-.576.58h-1.176a0.537,0.537,0,0,1-.552-0.58v-0.24a0.534,0.534,0,0,1,.552-0.57H687.6Zm5.088,0.81a0.556,0.556,0,0,1-.576.58h-1.176a0.556,0.556,0,0,1-.576-0.58v-0.24a0.553,0.553,0,0,1,.576-0.57h1.176a0.553,0.553,0,0,1,.576.57v0.24Zm-1.656-5.47a0.58,0.58,0,0,1-.672-0.67v-0.34a0.629,0.629,0,0,1,.648-0.74c0.336-.05,3.289-0.51,3.336-0.51a0.867,0.867,0,0,1,.361.1,1.579,1.579,0,0,0,.264.05,0.217,0.217,0,0,0,.24-0.19,4.866,4.866,0,0,0-.7-1.32,1.237,1.237,0,0,0-.7-0.77,0.822,0.822,0,0,0-.264.05,40.627,40.627,0,0,1-9.456,1.1c-0.432,0-.792-0.02-0.792.41a3.341,3.341,0,0,0,.336,1.37,0.693,0.693,0,0,0,.72.24c0.312,0,2.9-.17,3.264-0.22a0.47,0.47,0,0,1,.552.53v0.33a0.5,0.5,0,0,1-.576.58h-2.04c-0.768,0-1.512-.05-2.28-0.05-0.553,0-.529.34-0.529,0.99,0,0.67-.024.96,0.529,0.96,0.768,0,1.536-.05,2.28-0.05h2.16a0.394,0.394,0,0,1,.456.45v0.29a0.408,0.408,0,0,1-.48.46h-1.464c-0.528,0-1.056-.05-1.584-0.05a0.875,0.875,0,0,0-1.032,1.06c0,0.48.048,0.98,0.048,1.46v2.66c0,0.48-.048.96-0.048,1.47a0.876,0.876,0,0,0,1.056,1.05c0.5,0,1.032-.04,1.56-0.04H687.6a0.493,0.493,0,0,1,.576.55v0.07a0.5,0.5,0,0,1-.576.58h-1.536c-0.816,0-1.632-.05-2.448-0.05-0.481,0-.456.26-0.456,0.89s-0.025.89,0.48,0.89c0.816,0,1.632-.05,2.424-0.05H687.6a0.5,0.5,0,0,1,.576.57v0.12a0.5,0.5,0,0,1-.576.56h-2.952c-0.816,0-1.656-.05-2.5-0.05-0.552,0-.552.26-0.552,1.01s0,1,.552,1c0.841,0,1.681-.05,2.5-0.05h8.424c0.84,0,1.681.05,2.521,0.05,0.552,0,.528-0.31.528-1,0-.72.024-1.01-0.552-1.01-0.84,0-1.657.05-2.5,0.05h-2.136a0.487,0.487,0,0,1-.576-0.56v-0.12a0.487,0.487,0,0,1,.576-0.57h1.416c0.816,0,1.632.05,2.449,0.05,0.48,0,.48-0.27.48-0.89s0-.89-0.48-0.89c-0.817,0-1.633.05-2.449,0.05h-1.416a0.494,0.494,0,0,1-.576-0.58v-0.07a0.484,0.484,0,0,1,.576-0.55h1.392c0.528,0,1.056.04,1.584,0.04a0.879,0.879,0,0,0,1.009-1.1c0-.48-0.024-0.96-0.024-1.42v-2.66c0-.48.024-0.98,0.024-1.46a0.875,0.875,0,0,0-1.057-1.06c-0.5,0-1.032.05-1.536,0.05h-1.512a0.4,0.4,0,0,1-.456-0.46v-0.29a0.394,0.394,0,0,1,.456-0.45h2.232c0.768,0,1.512.05,2.281,0.05,0.528,0,.528-0.29.528-0.96s0.024-.99-0.528-0.99c-0.769,0-1.513.05-2.281,0.05h-2.016Zm-10.609,7.99c0.24,0.39,1.248,1.95,1.656,1.95a2.329,2.329,0,0,0,1.056-1.54,0.716,0.716,0,0,0-.312-0.55,20.1,20.1,0,0,1-2.256-2.91,0.41,0.41,0,0,1-.1-0.24,0.362,0.362,0,0,1,.408-0.31c0.528,0,1.128.05,1.633,0.05,0.527,0,.48-0.41.48-1.2,0-.82.047-1.2-0.48-1.2-0.481,0-1.129.07-1.777,0.05a0.563,0.563,0,0,1-.672-0.65v-2.06a0.794,0.794,0,0,1,.6-0.89c0.1-.03.336-0.12,0.576-0.22a9.314,9.314,0,0,1,.888-0.31,0.359,0.359,0,0,1,.144.02,1.319,1.319,0,0,0,.36.08,0.227,0.227,0,0,0,.241-0.22,4.586,4.586,0,0,0-.6-1.03c-0.12-.17-0.216-0.31-0.288-0.43a1.361,1.361,0,0,0-.672-0.75,0.519,0.519,0,0,0-.192.07,15.693,15.693,0,0,1-5.328,1.8c-0.672.12-.96,0.12-0.96,0.48,0,0.32.36,1.78,0.96,1.78a10.256,10.256,0,0,0,1.392-.24,0.359,0.359,0,0,1,.144-0.02,0.452,0.452,0,0,1,.48.52v1.42a0.563,0.563,0,0,1-.672.65c-0.672.02-1.344-.05-1.8-0.05-0.5,0-.48.34-0.48,1.2,0,0.84-.048,1.2.48,1.2,0.312,0,1.1-.05,1.512-0.05a0.438,0.438,0,0,1,.5.41,0.554,0.554,0,0,1-.048.19,34.511,34.511,0,0,1-2.76,6.2,1.608,1.608,0,0,0-.336.71,2.269,2.269,0,0,0,1.416,1.37,0.792,0.792,0,0,0,.576-0.53,20.881,20.881,0,0,0,1.368-2.9,0.132,0.132,0,0,1,.12-0.07,0.121,0.121,0,0,1,.12.14v3.27c0,1.1-.072,2.23-0.072,3.33,0,0.72.216,0.77,1.2,0.77s1.2-.05,1.2-0.79c0-1.1-.072-2.21-0.072-3.31v-5.07a0.209,0.209,0,0,1,.192-0.21A0.229,0.229,0,0,1,680.426,6431.95Zm29.761-6.74a0.377,0.377,0,0,1,.384.43,24.408,24.408,0,0,1-.768,4.68c-0.672,2.45-2.017,5.18-3.217,5.18-1.224,0-1.536-2.23-1.536-3.12a7.435,7.435,0,0,1,4.32-6.91A2.872,2.872,0,0,1,710.187,6425.21Zm2.3-2.81a9.885,9.885,0,0,0-9.961,10.08,7.543,7.543,0,0,0,.744,3.41,3.876,3.876,0,0,0,3.264,2.28,4.3,4.3,0,0,0,3.169-1.85c2.3-2.76,3.144-7.03,3.408-10.54,0.024-.4.024-0.93,0.576-0.93a4.292,4.292,0,0,1,.912.21,5.831,5.831,0,0,1,3.84,5.74c0,3.43-2.472,5.5-5.616,6.24-0.24.05-.6,0.1-0.6,0.34,0,0.53.984,2.01,1.608,2.01a9.276,9.276,0,0,0,2.616-.96,8.617,8.617,0,0,0,4.681-7.75,8.1,8.1,0,0,0-2.425-5.9A8.539,8.539,0,0,0,712.491,6422.4Zm17.039,9.62c-0.36,0-.336.34-0.336,0.58a16.6,16.6,0,0,1-1.368,6.46,10.371,10.371,0,0,0-.528,1.29c0,0.48,1.176.94,1.584,0.94a1.006,1.006,0,0,0,.672-0.79,22.637,22.637,0,0,0,1.632-7.01c0.024-.48,0-0.48.312-0.7a0.445,0.445,0,0,0,.168-0.29c0-.28-0.552-0.28-0.984-0.33C730.514,6432.14,729.626,6432.02,729.53,6432.02Zm2.328-3.14a0.624,0.624,0,0,1-.672.65h-0.312a0.637,0.637,0,0,1-.672-0.65v-0.36a0.685,0.685,0,0,1,.672-0.67h0.312a0.669,0.669,0,0,1,.672.67v0.36Zm2.184,0.65a0.594,0.594,0,0,1-.648-0.65v-0.36a0.635,0.635,0,0,1,.648-0.67h0.384a0.685,0.685,0,0,1,.672.67v0.36a0.637,0.637,0,0,1-.672.65h-0.384Zm-0.648-4.47a0.624,0.624,0,0,1,.648-0.67h0.384a0.672,0.672,0,0,1,.672.67v0.29a0.678,0.678,0,0,1-.672.67h-0.384a0.629,0.629,0,0,1-.648-0.67v-0.29Zm-2.208-.67a0.657,0.657,0,0,1,.672.67v0.29a0.663,0.663,0,0,1-.672.67h-0.312a0.678,0.678,0,0,1-.672-0.67v-0.29a0.672,0.672,0,0,1,.672-0.67h0.312Zm-1.176-1.97c-0.264,0-.5-0.02-0.768-0.02a0.8,0.8,0,0,0-.96.96c0,0.53.024,1.08,0.024,1.61v3.98c0,0.55-.024,1.08-0.024,1.63a0.8,0.8,0,0,0,.96.94c0.528,0,1.032-.05,1.536-0.05h0.456a0.58,0.58,0,0,1,.672.67v5.05c0,0.45-.024.91-0.024,1.36,0,2.31,1.368,2.38,3.288,2.38h9.241c1.32,0,3.073.05,3.937-1.2a4.628,4.628,0,0,0,.768-2.31,0.613,0.613,0,0,0-.6-0.67,5.1,5.1,0,0,0-1.176-.16,0.563,0.563,0,0,0-.7.62c-0.192,1.05-.288,1.46-2.448,1.46h-8.617c-1.464,0-1.584-.21-1.584-1.41v-0.34c0.024-.05.024-0.12,0.1-0.12a0.078,0.078,0,0,1,.072.07c0.144,0.43.192,0.72,0.408,0.72a0.213,0.213,0,0,0,.216-0.12,0.4,0.4,0,0,1,.336-0.28l1.753-.37h0.1a0.259,0.259,0,0,1,.24.22c0.072,0.36.072,0.55,0.384,0.55a0.846,0.846,0,0,0,.888-0.53,10.679,10.679,0,0,0-.216-1.07,0.272,0.272,0,0,1,.264-0.32,0.413,0.413,0,0,1,.144.05,1.141,1.141,0,0,0,.48.14,0.833,0.833,0,0,0,.5-0.38,14.962,14.962,0,0,0,2.112-3.91,0.176,0.176,0,0,1,.12-0.07c0.1,0,.12.04,0.12,0.14v1.95c0,1.07-.048,2.18-0.048,3.26,0,0.65.264,0.67,1.128,0.67,0.888,0,1.152-.02,1.152-0.65,0-1.1-.048-2.21-0.048-3.28v-2.05a0.153,0.153,0,0,1,.144-0.16,0.185,0.185,0,0,1,.144.09,20.089,20.089,0,0,0,2.16,3.6,2.245,2.245,0,0,0,.889.84,2.328,2.328,0,0,0,1.536-1.17,1.048,1.048,0,0,0-.336-0.53,27.854,27.854,0,0,1-3.049-4.3,0.665,0.665,0,0,1-.048-0.21,0.337,0.337,0,0,1,.408-0.34c0.744,0,1.464.05,2.209,0.05,0.6,0,.6-0.29.6-1.13,0-.82.024-1.1-0.624-1.1-0.864,0-1.729.04-2.593,0.04h-0.768a0.569,0.569,0,0,1-.672-0.67v-0.96a0.569,0.569,0,0,1,.672-0.67h0.144c0.816,0,1.608.05,2.425,0.05,0.648,0,.6-0.34.6-1.13,0-.82.024-1.13-0.6-1.13-0.817,0-1.609.05-2.425,0.05h-0.144a0.547,0.547,0,0,1-.672-0.6v-0.7a1.229,1.229,0,0,1,.264-1.1,0.4,0.4,0,0,0,.264-0.34,0.332,0.332,0,0,0-.384-0.26c-0.216-.02-1.752-0.12-1.944-0.12-0.216,0-.48,0-0.48.29,0,0.07.024,0.14,0.024,0.24a17.116,17.116,0,0,1,.072,1.92,0.569,0.569,0,0,1-.672.67c-0.792.02-1.584-.05-2.376-0.05-0.648,0-.624.31-0.624,1.13,0,0.77-.024,1.13.6,1.13,0.792,0,1.608-.07,2.4-0.05a0.569,0.569,0,0,1,.672.67v0.96a0.569,0.569,0,0,1-.672.67h-0.48c-0.864,0-1.728-.04-2.592-0.04-0.624,0-.6.28-0.6,1.1,0,0.77-.024,1.13.552,1.13,0.72,0,1.416-.07,2.136-0.05a0.352,0.352,0,0,1,.408.34,0.438,0.438,0,0,1-.072.24,22.608,22.608,0,0,1-2.76,4.22c0,0.03-.024.03-0.048,0.03a0.153,0.153,0,0,1-.12-0.05,0.353,0.353,0,0,0-.336-0.12,0.906,0.906,0,0,0-.864.38,5.942,5.942,0,0,0,.216.72v0.14a0.338,0.338,0,0,1-.312.34c-0.072,0-.12.02-0.192,0.02h-0.1a0.266,0.266,0,0,1-.264-0.26,0.13,0.13,0,0,1,.024-0.1c0.336-1.53.288-1.51,0.432-2.2a0.435,0.435,0,0,1,.312-0.36,0.218,0.218,0,0,0,.192-0.22,0.5,0.5,0,0,0-.456-0.29c-0.192-.02-0.864-0.19-0.985-0.19-0.24,0-.24.14-0.264,0.29a24.711,24.711,0,0,1-.552,3.29,0.3,0.3,0,0,1-.288.26h-0.192a0.1,0.1,0,0,1-.144-0.09v-3.61a0.591,0.591,0,0,1,.648-0.67c0.48,0.03.96,0.05,1.44,0.05a0.808,0.808,0,0,0,.961-0.96c0-.55-0.048-1.08-0.048-1.61v-3.98c0-.53.048-1.08,0.048-1.61a0.817,0.817,0,0,0-.984-0.96c-0.529,0-1.033.05-1.537,0.05h-0.96a0.41,0.41,0,0,1-.456-0.39,0.665,0.665,0,0,1,.048-0.21c0.072-.19.216-0.63,0.288-0.79a0.492,0.492,0,0,1,.36-0.29,0.406,0.406,0,0,0,.36-0.34,0.711,0.711,0,0,0-.672-0.38c-0.312-.07-1.56-0.34-1.776-0.34a0.362,0.362,0,0,0-.312.41c-0.168.58-.312,1.18-0.528,1.73A0.755,0.755,0,0,1,730.01,6422.42Zm34.945-.26a1.294,1.294,0,0,1,.288-1.2,0.567,0.567,0,0,0,.408-0.41,0.361,0.361,0,0,0-.36-0.33c-0.312-.05-2.136-0.17-2.448-0.17-0.24,0-.552,0-0.552.41,0,0.09.023,0.16,0.023,0.26a22,22,0,0,1,.073,2.52v0.74a0.583,0.583,0,0,1-.673.68h-3.048c-0.936,0-1.872-.08-2.808-0.08-0.6,0-.576.32-0.576,1.23s-0.024,1.25.576,1.25c0.936,0,1.872-.08,2.808-0.08h2.976a0.543,0.543,0,0,1,.625.65,12.7,12.7,0,0,1-.817,3.99,13.174,13.174,0,0,1-6.072,6.72,1.262,1.262,0,0,0-.816.69,2.415,2.415,0,0,0,1.608,1.78,13.5,13.5,0,0,0,2.88-1.85c4.009-3.17,5.233-6.34,5.761-11.33a0.625,0.625,0,0,1,.744-0.65h4.272c1.32,0,1.584-.02,1.584.84a57.705,57.705,0,0,1-.672,9c-0.336,1.28-.984,1.42-2.16,1.42-0.72,0-1.392-.12-1.944-0.12-0.528,0-.552.36-0.552,0.87,0,1.89.336,1.84,2.3,1.84,1.872,0,3.7-.17,4.44-2.18,0.937-2.52,1.033-9.67,1.033-12.63,0-1.12-.456-1.44-1.561-1.44-0.888,0-1.776.08-2.664,0.08h-4.008a0.583,0.583,0,0,1-.672-0.68v-1.82Zm25.032-2.4c-0.24,0-.288.24-0.336,0.5a13.124,13.124,0,0,1-1.3,3.1,2.111,2.111,0,0,1-1.488.31h-0.7c-0.7,0-1.32-.05-1.728-0.05-0.6,0-.7.15-0.7,1.11,0,1.22.1,1.34,0.624,1.34,0.744,0,1.3-.07,1.68-0.07,0.336,0,.528.07,0.528,0.29,0,0.45-3.48,5.28-4.032,5.88a0.967,0.967,0,0,0-.312.53c0,0.43,1.608,1.39,2.04,1.39a0.4,0.4,0,0,0,.336-0.24,15.676,15.676,0,0,1,2.016-2.81,8.063,8.063,0,0,1,4.489-2.11,1,1,0,0,1,1.056.81,3.371,3.371,0,0,1,.12.68,0.621,0.621,0,0,1-.432.55c-0.5.24-1.008,0.5-1.488,0.79-1.656.98-3.409,2.16-3.409,4.32a3.646,3.646,0,0,0,2.4,3.43,8.927,8.927,0,0,0,3.792.63,31.256,31.256,0,0,0,4.608-.32c0.528-.11.552-0.31,0.552-1.03,0-1.37-.168-1.63-0.48-1.63a3.469,3.469,0,0,0-.48.05,17.728,17.728,0,0,1-4.464.6c-1.152,0-3.48-.15-3.48-1.75,0-1.49,2.472-2.55,2.592-2.55a0.333,0.333,0,0,1,.312.41c0,0.5-.048,1.03-0.048,1.56,0,0.62.432,0.67,1.464,0.67,0.912,0,1.032-.09,1.032-0.96,0-.74-0.024-1.46-0.024-2.21v-0.31a0.735,0.735,0,0,1,.624-0.79c0.936-.41,1.872-0.82,2.832-1.18a2.425,2.425,0,0,0,.336-0.12c0.456-.14.72-0.24,0.72-0.52,0-.41-0.576-2.26-1.032-2.26a2.029,2.029,0,0,0-.624.24,20.9,20.9,0,0,1-2.808,1.37,0.4,0.4,0,0,1-.36-0.41,2.448,2.448,0,0,0-2.736-2.16,6.635,6.635,0,0,0-2.616.62,0.851,0.851,0,0,1-.433.15,0.184,0.184,0,0,1-.192-0.17,7.609,7.609,0,0,1,.817-1.39,0.852,0.852,0,0,1,.72-0.39c1.512-.16,3.024-0.43,4.536-0.74,0.5-.1,1.272-0.19,1.272-0.6a7.777,7.777,0,0,0-.192-1.3,0.711,0.711,0,0,0-.6-0.72,1.889,1.889,0,0,0-.6.15,17.143,17.143,0,0,1-2.784.67,0.232,0.232,0,0,1-.264-0.24,1.636,1.636,0,0,1,.24-0.55,1.347,1.347,0,0,1,.792-0.82,0.387,0.387,0,0,0,.288-0.29C792.675,6420.86,790.2,6419.76,789.987,6419.76Zm28.128,10.2a0.562,0.562,0,0,1,.648.67v1.18a0.562,0.562,0,0,1-.648.67h-1.44a0.58,0.58,0,0,1-.672-0.67v-1.18a0.578,0.578,0,0,1,.672-0.67h1.44Zm-8.185-2.23a22.668,22.668,0,0,1-2.712,2.04,0.534,0.534,0,0,0-.36.43,2.322,2.322,0,0,0,1.368,1.58c0.6,0,2.976-2.16,3.528-2.64a0.273,0.273,0,0,1,.192-0.09,0.243,0.243,0,0,1,.216.26c0,0.41.048,0.7,0.576,0.7h0.336a0.539,0.539,0,0,1,.624.65v1.15a0.578,0.578,0,0,1-.672.67h-0.984c-0.912,0-1.824-.07-2.736-0.07-0.6,0-.6.26-0.6,1.18,0,0.86-.024,1.17.576,1.17,0.912,0,1.848-.07,2.76-0.07h0.552a0.42,0.42,0,0,1,.48.38,0.568,0.568,0,0,1-.048.22,6.847,6.847,0,0,1-4.512,3.57,0.409,0.409,0,0,0-.408.39c0,0.38.768,1.73,1.32,1.73a2.335,2.335,0,0,0,.816-0.22,8.9,8.9,0,0,0,5.281-5.45,0.718,0.718,0,0,1,.84-0.62h1.752a0.569,0.569,0,0,1,.648.67v3.1c0,2.04.936,2.35,2.784,2.35h2.928a2.406,2.406,0,0,0,2.425-1.13,6.849,6.849,0,0,0,.792-2.42c0-.58-1.369-0.84-1.729-0.84a0.477,0.477,0,0,0-.5.5c-0.336,1.59-.744,1.68-1.56,1.68h-1.7c-0.936,0-1.032-.19-1.032-1.08v-2.16a0.569,0.569,0,0,1,.672-0.67h1.032c0.912,0,1.824.07,2.736,0.07,0.6,0,.576-0.29.576-1.17s0.024-1.18-.576-1.18c-0.912,0-1.824.07-2.736,0.07h-1.032a0.569,0.569,0,0,1-.672-0.67v-1.15a0.547,0.547,0,0,1,.648-0.65h0.456c0.6,0,.6-0.29.624-0.82a0.237,0.237,0,0,1,.216-0.24,0.377,0.377,0,0,1,.192.07c0.5,0.46,2.616,2.26,3.192,2.26,0.529,0,1.417-1.37,1.417-1.73a0.981,0.981,0,0,0-.624-0.6,16.524,16.524,0,0,1-2.041-1.39,0.536,0.536,0,0,1-.24-0.43,0.577,0.577,0,0,1,.216-0.41c0.624-.58,1.2-1.18,1.777-1.8a0.3,0.3,0,0,1,.24-0.12c0.216,0,.576.05,0.576-0.26a1.18,1.18,0,0,0-.576-0.63c-0.12-.09-0.264-0.19-0.384-0.29a3.371,3.371,0,0,0-.913-0.62,0.519,0.519,0,0,0-.36.31,18.919,18.919,0,0,1-1.9,2.02,0.538,0.538,0,0,1-.384.19,0.421,0.421,0,0,1-.36-0.19c-0.216-.22-0.384-0.43-0.576-0.65a0.537,0.537,0,0,1-.144-0.36,0.652,0.652,0,0,1,.192-0.41c0.624-.62.984-0.98,1.584-1.63a0.547,0.547,0,0,1,.264-0.14c0.264,0,.7.07,0.7-0.27a1.172,1.172,0,0,0-.5-0.55c-0.12-.1-0.264-0.22-0.384-0.31a4.491,4.491,0,0,0-1.032-.67,0.623,0.623,0,0,0-.408.33,12.986,12.986,0,0,1-1.32,1.47,0.538,0.538,0,0,1-.384.19,0.563,0.563,0,0,1-.432-0.29c-0.216-.36-0.384-0.67-0.5-0.91-0.384-.7-0.5-0.89-0.816-0.89-0.384,0-1.56.53-1.56,1.03a1.459,1.459,0,0,0,.24.6,26.261,26.261,0,0,0,3.6,5.28,0.438,0.438,0,0,1,.1.24,0.289,0.289,0,0,1-.312.27c-0.456.02-.912,0.02-1.368,0.02h-4.7c-0.431,0-.84,0-1.272-0.02a0.295,0.295,0,0,1-.24-0.51c0.84-1.01,3.121-3.93,3.121-5.21a1.425,1.425,0,0,0-.552-0.96,1.851,1.851,0,0,0-1.128-.24c-0.36,0-.817.03-1.393,0.03h-1.872c-0.816,0-1.632-.05-2.448-0.05-0.576,0-.552.26-0.552,1.1,0,0.82-.024,1.08.552,1.08,0.816,0,1.632-.04,2.448-0.04h1.056c0.384,0,.648.02,0.648,0.33a6.951,6.951,0,0,1-1.272,2.11,0.64,0.64,0,0,1-.48.27,0.7,0.7,0,0,1-.408-0.15,13.492,13.492,0,0,0-2.424-1.46,1.87,1.87,0,0,0-1.128,1.34,1.756,1.756,0,0,0,.936.82c0.312,0.22.72,0.48,1.152,0.79a0.608,0.608,0,0,1,.24.43A0.537,0.537,0,0,1,809.93,6427.73Zm32.809,6.91a0.532,0.532,0,0,0,.48-0.34c0-.33-1.008-0.62-1.32-0.74a4.968,4.968,0,0,0-1.249-.38c-0.264,0-.288.24-0.336,0.57-0.552,3.03-3.192,4.35-6,4.76-0.672.09-.984,0.11-0.984,0.52,0,0.34.336,1.9,1.128,1.9a12.37,12.37,0,0,0,3.384-.94,7.634,7.634,0,0,0,4.633-5.04A0.4,0.4,0,0,1,842.739,6434.64Zm-3.985-4.68a0.685,0.685,0,0,1,.672-0.67h8.785a0.685,0.685,0,0,1,.672.67v0.29a0.637,0.637,0,0,1-.672.65h-8.785a0.637,0.637,0,0,1-.672-0.65v-0.29Zm0-3.5a0.556,0.556,0,0,1,.576-0.58h8.977a0.556,0.556,0,0,1,.576.58v0.36a0.553,0.553,0,0,1-.576.57H839.33a0.553,0.553,0,0,1-.576-0.57v-0.36Zm0.576-2.43a0.553,0.553,0,0,1-.576-0.57v-0.34a0.556,0.556,0,0,1,.576-0.58h8.977a0.556,0.556,0,0,1,.576.58v0.34a0.553,0.553,0,0,1-.576.57H839.33Zm9.529,9.31c0.072,0.34.336,0.36,1.248,0.36,0.96,0,1.248,0,1.248-.57,0-.67-0.048-1.35-0.048-2.04v-7.83c0-.69.048-1.24,0.048-1.68,0-.91-0.168-1.27-1.176-1.27-0.672,0-1.344.05-2.04,0.05H839.5c-0.672,0-1.368-.05-2.04-0.05a0.93,0.93,0,0,0-1.152,1.06c0,0.65.048,1.27,0.048,1.89v7.85c0,0.67-.048,1.37-0.048,2.04,0,0.58.264,0.55,1.248,0.55,0.936,0,1.152,0,1.248-.33a0.4,0.4,0,0,1,.384-0.39h4.7a0.576,0.576,0,0,1,.672.68v3.79c0,0.43-.024.89-0.024,1.34,0,1.49.888,1.87,2.232,1.87H850.4c0.912,0,2.089.03,2.712-.71a8.205,8.205,0,0,0,1.249-3.85c0-.79-1.345-1-1.705-1a0.456,0.456,0,0,0-.528.43c-0.312,2.59-.552,2.83-2.16,2.83h-1.752c-0.984,0-1.2-.12-1.2-1.15v-3.55a0.569,0.569,0,0,1,.648-0.68h0.792A0.425,0.425,0,0,1,848.859,6433.34Zm21.744,1.08c0.6,0,.72-0.12.744-0.72l0.144-5.92c0.048-1.59.216-4.8,0.216-5.28,0-.41-0.144-0.51-0.672-0.51h-1.68c-0.528,0-.672.1-0.672,0.51,0,0.48.168,3.69,0.216,5.13l0.168,6.07c0.024,0.6.144,0.72,0.744,0.72H870.6Zm-0.312,1.88a1.792,1.792,0,0,0-1.848,1.92,1.558,1.558,0,0,0,1.656,1.58,1.767,1.767,0,0,0,1.872-1.85A1.6,1.6,0,0,0,870.291,6436.3Z" transform="translate(-569.438 -6383.66)"/>
</svg>
