<svg id="review-ttl-title01.svg" xmlns="http://www.w3.org/2000/svg" width="271" height="22.03" viewBox="0 0 271 22.03">
  <defs>
    <style>
      .cls-1 {
        fill: #52a5dc;
        fill-rule: evenodd;
      }
    </style>
  </defs>
  <path id="内定者の声" class="cls-1" d="M620.021,6025.62a12.824,12.824,0,0,0,3.4,4.26,5.224,5.224,0,0,0,1.558,1.02,2.861,2.861,0,0,0,1.582-1.74,0.706,0.706,0,0,0-.384-0.47,13.3,13.3,0,0,1-3.595-3.45,11.73,11.73,0,0,1-1.725-3.99,0.465,0.465,0,0,1,.477-0.46h4.843a0.575,0.575,0,0,1,.671.68v10.6c0,0.78.048,1.34-.91,1.34a6.958,6.958,0,0,1-.911-0.08c-0.183-.02-0.367-0.04-0.551-0.05a0.6,0.6,0,0,0-.544.64,0.578,0.578,0,0,0,.016.1c0,1.87.552,1.87,1.63,1.87,3.069,0,3.836-.63,3.836-2.75,0-.56-0.048-1.14-0.048-1.72v-9.93c0-.68.048-1.38,0.048-2.06,0-.95-0.5-1.1-1.318-1.1-0.7,0-1.415.05-2.11,0.05h-4.362a0.583,0.583,0,0,1-.671-0.68v-1.63a1.057,1.057,0,0,1,.335-1.11,0.436,0.436,0,0,0,.288-0.35,0.368,0.368,0,0,0-.408-0.31c-0.383-.05-1.989-0.17-2.372-0.17a0.367,0.367,0,0,0-.446.27,0.349,0.349,0,0,0-.01.12c0,0.16.024,0.41,0.024,0.51a9.793,9.793,0,0,1,.048,1.21v1.46a0.584,0.584,0,0,1-.462.68,0.491,0.491,0,0,1-.209,0h-4.315c-0.7,0-1.414-.05-2.109-0.05-0.839,0-1.3.17-1.3,1.13,0,0.67.048,1.38,0.048,2.06v10.68c0,1.04-.072,2.07-0.072,3.08,0,0.69.311,0.71,1.342,0.71,1.055,0,1.3-.02,1.3-0.75,0-1.01-.048-2.03-0.048-3.04v-10.73a0.582,0.582,0,0,1,.445-0.68,0.855,0.855,0,0,1,.226,0h4.387a0.5,0.5,0,0,1,.568.41,0.433,0.433,0,0,1,.007.08v0.14a9.994,9.994,0,0,1-4.793,7.37,0.842,0.842,0,0,0-.575.63,2.622,2.622,0,0,0,1.558,1.83c0.767,0,3.955-3.11,5.082-5.63a0.334,0.334,0,0,1,.263-0.19A0.274,0.274,0,0,1,620.021,6025.62Zm27.662-9.3a1.512,1.512,0,0,1,.263-1.29,0.551,0.551,0,0,0,.312-0.36c0-.32-0.48-0.32-0.7-0.35-0.552-.05-1.534-0.14-2.062-0.14-0.239,0-.455.05-0.455,0.34,0,0.07.024,0.17,0.024,0.25a11.849,11.849,0,0,1,.1,1.3v0.25a0.582,0.582,0,0,1-.445.68,0.855,0.855,0,0,1-.226,0h-3.86c-0.911,0-1.821-.03-2.756-0.03a1.1,1.1,0,0,0-1.366,1c0,0.24.024,0.69,0.024,1.31v0.93c0,0.31-.048.73-0.048,1.04,0,0.59.431,0.54,1.27,0.54s1.3,0.05,1.3-.54c0-.26-0.071-0.7-0.071-1.04v-0.42a0.586,0.586,0,0,1,.467-0.68,0.7,0.7,0,0,1,.2,0h13.566a0.577,0.577,0,0,1,.671.68v0.37c0,0.34-.048.78-0.048,1.05,0,0.58.455,0.53,1.271,0.53,0.959,0,1.342.03,1.342-.56,0-.26-0.072-0.73-0.072-1.02v-0.88c0-.53.048-0.99,0.048-1.33,0-.83-0.743-0.99-1.414-0.99-0.911,0-1.822.04-2.733,0.04h-3.93a0.583,0.583,0,0,1-.678-0.47,0.55,0.55,0,0,1,0-.21h0Zm-6.691,16.53c2.5,2.79,6.424,2.58,9.8,2.58h2.4c0.791,0,1.582,0,2.374-.03a1.857,1.857,0,0,0,.958-0.16,2.39,2.39,0,0,0,.576-1.71,0.557,0.557,0,0,0-.4-0.67,0.314,0.314,0,0,0-.1-0.01,2.77,2.77,0,0,0-.575.03c-1.463.14-3.165,0.19-4.627,0.19-1.03,0-2.061.02-3.1-.05a0.581,0.581,0,0,1-.634-0.53,0.547,0.547,0,0,1,.011-0.18v-2.35a0.587,0.587,0,0,1,.449-0.69,0.825,0.825,0,0,1,.222,0h1.534c0.767,0,1.509.05,2.276,0.05,0.624,0,.6-0.31.6-1.16,0-.87.024-1.2-0.6-1.2-0.767,0-1.509.05-2.276,0.05h-1.534a0.559,0.559,0,0,1-.668-0.44,0.578,0.578,0,0,1,0-.22v-1.58a0.582,0.582,0,0,1,.444-0.68,0.863,0.863,0,0,1,.227,0h1.869c0.863,0,1.7.06,2.565,0.06,0.6,0,.6-0.27.6-1.17,0-.85,0-1.16-0.6-1.16-0.863,0-1.7.04-2.565,0.04h-7.526c-0.863,0-1.7-.04-2.565-0.04-0.623,0-.6.33-0.6,1.16,0,0.85,0,1.17.6,1.17,0.863,0,1.726-.06,2.565-0.06h1.774a0.574,0.574,0,0,1,.671.45,0.593,0.593,0,0,1,0,.23v7.18a0.458,0.458,0,0,1-.392.51h-0.039c-0.048,0-.12-0.03-0.192-0.03a4.869,4.869,0,0,1-2.565-2.11,1.08,1.08,0,0,1-.24-0.65,1.362,1.362,0,0,1,.072-0.44c0.192-.71.263-1.2,0.335-1.54a0.917,0.917,0,0,1,.5-0.92,0.442,0.442,0,0,0,.287-0.32c0-.29-0.383-0.36-1.078-0.5-0.288-.05-1.414-0.3-1.654-0.3-0.383,0-.383.34-0.407,0.63a14.58,14.58,0,0,1-3.116,7.66,0.982,0.982,0,0,0-.264.52c0,0.55,1.438,1.14,1.9,1.14a0.941,0.941,0,0,0,.647-0.5,23.83,23.83,0,0,0,1.366-2.18,0.418,0.418,0,0,1,.359-0.25,0.494,0.494,0,0,1,.335.18h0Zm29.648-1a0.674,0.674,0,0,1,.671-0.67h6.423a0.622,0.622,0,0,1,.648.61c0,0.02,0,.04,0,0.06v0.32a0.641,0.641,0,0,1-.586.68h-6.488a0.69,0.69,0,0,1-.671-0.68v-0.32h0Zm0.671-2.58a0.676,0.676,0,0,1-.671-0.68v-0.24a0.674,0.674,0,0,1,.671-0.68h6.423a0.632,0.632,0,0,1,.648.61,0.545,0.545,0,0,1,0,.07v0.24a0.635,0.635,0,0,1-.586.68h-6.484Zm7.933-8.43a25.816,25.816,0,0,0,2.612-3.26,0.783,0.783,0,0,1,.768-0.48,0.306,0.306,0,0,0,.336-0.27h0a1.958,1.958,0,0,0-1.031-.83c-0.049-.02-0.12-0.07-0.216-0.12a4.724,4.724,0,0,0-1.127-.56,0.419,0.419,0,0,0-.336.32,21.675,21.675,0,0,1-4.17,5.28,1.222,1.222,0,0,1-1.1.38h-0.623a0.559,0.559,0,0,1-.668-0.44,0.6,0.6,0,0,1,0-.22v-1.01a0.587,0.587,0,0,1,.45-0.69,0.825,0.825,0,0,1,.222,0c0.886-.02,1.773.05,2.684,0.05,0.575,0,.551-0.29.551-1.16,0-.93.024-1.17-0.575-1.17-0.887,0-1.774.07-2.66,0.05a0.555,0.555,0,0,1-.662-0.43,0.641,0.641,0,0,1-.01-0.18,1.109,1.109,0,0,1,.288-1.14,0.508,0.508,0,0,0,.312-0.37c0-.29-0.36-0.32-0.576-0.34-0.431-.05-1.9-0.19-2.276-0.19a0.351,0.351,0,0,0-.424.27,0.392,0.392,0,0,0-.008.09,0.885,0.885,0,0,0,.024.25,13.288,13.288,0,0,1,.072,1.38,0.575,0.575,0,0,1-.484.66,0.587,0.587,0,0,1-.187,0h-1.391c-0.959,0-1.9-.05-2.828-0.05-0.6,0-.575.26-0.575,1.17s-0.024,1.16.575,1.16c0.935,0,1.869-.05,2.828-0.05h1.391a0.577,0.577,0,0,1,.672.46,0.612,0.612,0,0,1,0,.23v1.01a0.565,0.565,0,0,1-.454.66,0.4,0.4,0,0,1-.217,0H666.4c-0.935,0-1.87-.05-2.8-0.05-0.575,0-.575.27-0.575,1.2,0,0.87,0,1.14.575,1.14,0.935,0,1.87-.05,2.8-0.05h5.465a0.25,0.25,0,0,1,.263.24c0,0.01,0,.02,0,0.02a0.355,0.355,0,0,1-.168.3c-1.079.63-1.318,0.83-2.542,1.46a35.48,35.48,0,0,1-5.943,2.43,0.67,0.67,0,0,0-.6.46c0,0.21.528,1.85,1.079,1.85a28.087,28.087,0,0,0,3.643-1.43,0.538,0.538,0,0,1,.216-0.05,0.421,0.421,0,0,1,.383.45v4.17c0,0.62-.048,1.23-0.048,1.87,0,0.58.24,0.63,0.839,0.63h0.431c1.055,0,1.248.05,1.272-.68a0.4,0.4,0,0,1,.342-0.44H677.9a0.4,0.4,0,0,1,.452.35,0.34,0.34,0,0,1,0,.09c0.024,0.73.24,0.68,1.246,0.68,0.983,0,1.3.05,1.3-.66,0-.63-0.047-1.24-0.047-1.84v-4.74c0-.66.024-1.22,0.024-1.66,0-.88-0.12-1.33-0.959-1.33-0.623,0-1.246.04-1.87,0.04h-3.714a0.294,0.294,0,0,1-.352-0.21,0.411,0.411,0,0,1-.008-0.06,0.488,0.488,0,0,1,.24-0.29c0.6-.41,1.174-0.82,1.749-1.29a1.431,1.431,0,0,1,1.1-.36H680.8c0.935,0,1.87.05,2.8,0.05,0.575,0,.551-0.27.551-1.16s0.024-1.18-.551-1.18c-0.935,0-1.87.05-2.8,0.05h-1.343a0.274,0.274,0,0,1-.31-0.23,0.016,0.016,0,0,0,0-.01,0.383,0.383,0,0,1,.1-0.22h0Zm19.1-1.14a0.376,0.376,0,0,1,.387.37,0.454,0.454,0,0,1,0,.07,25.083,25.083,0,0,1-.767,4.74c-0.671,2.48-2.015,5.24-3.213,5.24-1.222,0-1.534-2.26-1.534-3.16a7.555,7.555,0,0,1,4.315-7,2.909,2.909,0,0,1,.814-0.26h0Zm2.3-2.85a9.948,9.948,0,0,0-9.949,9.94c0,0.09,0,.18,0,0.27a7.744,7.744,0,0,0,.743,3.46,3.87,3.87,0,0,0,3.259,2.31,4.287,4.287,0,0,0,3.165-1.88c2.3-2.79,3.139-7.12,3.4-10.67,0.024-.41.024-0.95,0.575-0.95a4.091,4.091,0,0,1,.911.22,5.9,5.9,0,0,1,3.835,5.81c0,3.48-2.469,5.57-5.608,6.32-0.24.05-.6,0.1-0.6,0.35,0,0.53.983,2.03,1.606,2.03a9.091,9.091,0,0,0,2.613-.97,8.749,8.749,0,0,0,4.674-7.85,8.288,8.288,0,0,0-2.422-5.98,8.464,8.464,0,0,0-6.2-2.41h0Zm27.662,10.7a0.674,0.674,0,0,1-.671-0.68v-0.85a0.676,0.676,0,0,1,.659-0.68h2.768a0.675,0.675,0,0,1,.671.67v0.86a0.674,0.674,0,0,1-.671.68H728.3Zm-3.068-.68a0.663,0.663,0,0,1-.643.68h-2.5a0.658,0.658,0,0,1-.671-0.65v-0.88a0.659,0.659,0,0,1,.631-0.68h2.51a0.66,0.66,0,0,1,.671.64v0.89Zm6.447,2.97c0.072,0.36.407,0.33,1.27,0.33,0.959,0,1.271.03,1.271-.5,0-.64-0.072-1.25-0.072-1.88v-2.08c0-.52.047-1.06,0.047-1.56,0-.85-0.6-0.98-1.3-0.98s-1.414.05-2.109,0.05h-8.506c-0.7,0-1.39-.05-2.061-0.05-0.7,0-1.3.11-1.3,0.98,0,0.5.048,1.02,0.048,1.63v1.55a7.9,7.9,0,0,1-3,6.52,0.924,0.924,0,0,0-.432.49,2.769,2.769,0,0,0,1.51,1.6,5.548,5.548,0,0,0,1.8-1.41,9.231,9.231,0,0,0,2.277-4.31,0.672,0.672,0,0,1,.717-0.63,0.192,0.192,0,0,1,.074.01h9.486a0.241,0.241,0,0,1,.271.21c0,0.01,0,.02,0,0.03h0Zm-6.567-10.45a0.5,0.5,0,0,1-.4.56,0.505,0.505,0,0,1-.173-0.01h-3.813c-0.863,0-1.725-.05-2.612-0.05-0.551,0-.527.27-0.527,1.1,0,0.8-.024,1.04.527,1.04,0.863,0,1.749-.05,2.612-0.05H731.97c0.886,0,1.749.05,2.637,0.05,0.527,0,.5-0.21.5-1.06,0-.81.024-1.08-0.5-1.08-0.888,0-1.751.05-2.637,0.05h-3.787a0.476,0.476,0,0,1-.571-0.38,0.467,0.467,0,0,1,0-.17v-0.37a0.507,0.507,0,0,1,.39-0.59,0.574,0.574,0,0,1,.185,0h5.437c0.911,0,1.847.07,2.781,0.07,0.6,0,.552-0.26.552-1.11,0-.83.024-1.04-0.552-1.04-0.934,0-1.846.02-2.781,0.02h-5.344a0.566,0.566,0,0,1-.668-0.44,0.582,0.582,0,0,1,0-.22,0.8,0.8,0,0,1,.311-0.78,0.449,0.449,0,0,0,.36-0.34c0-.29-0.408-0.32-0.6-0.34-0.36-.02-1.942-0.17-2.229-0.17-0.216,0-.456.03-0.456,0.29,0,0.05.024,0.15,0.024,0.23,0.024,0.31.072,0.82,0.072,1.16a0.551,0.551,0,0,1-.457.62,1.2,1.2,0,0,1-.19-0.01h-5.3c-0.935,0-1.87-.02-2.8-0.02-0.551,0-.551.19-0.551,1.06,0,0.85-.024,1.1.575,1.1,0.935,0,1.846-.08,2.781-0.08h5.392a0.508,0.508,0,0,1,.575.59v0.37h0Z" transform="translate(-610 -6013.97)"/>
  <path id="_2020年卒" data-name="2020年卒" class="cls-1" d="M865.033,6019.68a0.279,0.279,0,0,0-.188-0.42,3,3,0,0,0-.625-0.08c-1-.01-2.01,0-3.014.04a0.619,0.619,0,0,1-.787-0.73c0.009-.12-0.006-0.23-0.008-0.35-0.016-1.38,0-1.36,1.384-1.32,2.037,0.04,4.076.02,6.114,0.05a0.889,0.889,0,0,0,1.05-1.09c-0.066-1.75-.041-1.75,1.765-1.52,0.335,0.05.669,0.1,1.064,0.17a0.278,0.278,0,0,1,.171.45,0.6,0.6,0,0,0-.142.24,2.661,2.661,0,0,0-.132,1.3,1.268,1.268,0,0,0,.991.42c2.181,0.02,4.362-.02,6.543-0.05,0.888-.02,1.024.12,1.034,1.14,0.011,1.16-.084,1.28-0.964,1.28-0.769-.01-1.537,0-2.366,0a0.278,0.278,0,0,0-.18.49l0.106,0.09a0.275,0.275,0,0,1-.068.46l-0.262.13a1.147,1.147,0,0,0-.339,1.99c0.872,0.88,1.792,1.7,2.693,2.55,0.4,0.37.9,0.68,0.342,1.33-0.8.94-1.342,1.16-2,.58a30.27,30.27,0,0,1-2.588-2.53c-0.532-.58-0.912-0.65-1.448-0.03-0.463.54-.983,1.03-1.508,1.55a0.282,0.282,0,0,0,.055.44c0.116,0.07.221,0.13,0.32,0.19a0.729,0.729,0,0,1,.02.22c-0.091.26-.186,0.52-0.281,0.79a0.282,0.282,0,0,0,.176.36,3.385,3.385,0,0,0,.918.21c2.354,0.01,4.708,0,7.061-.06A0.847,0.847,0,0,1,881,6029c-0.025,1.51.015,1.48-1.533,1.45-2.3-.04-4.593-0.01-6.889-0.03a0.881,0.881,0,0,0-1.042,1.03c0.03,1.13.03,2.25,0.084,3.37,0.038,0.78-.207,1.22-1.053,1.14a5.892,5.892,0,0,0-.84-0.02,0.7,0.7,0,0,1-.839-0.85c0.026-1.21.007-2.42,0.049-3.63a0.856,0.856,0,0,0-1.008-1.04c-2.411.03-4.822,0.02-7.233,0.06-1.02.01-1.1-.03-1.11-1.02-0.02-1.45.016-1.48,1.108-1.47,2.325,0.02,4.651.05,6.976,0.04a1.573,1.573,0,0,0,1.117-.34,1.794,1.794,0,0,0-.261-1.34c-0.443-.59-0.18-0.88.222-1.29,1.567-1.6,3.107-3.22,4.646-4.84a3.688,3.688,0,0,0,.361-0.5,0.28,0.28,0,0,0-.232-0.43h-5.257a0.282,0.282,0,0,0-.174.5l0.011,0.01a0.28,0.28,0,0,1-.058.47c-0.086.04-.16,0.08-0.232,0.12a1.173,1.173,0,0,0-.254,2.07c0.316,0.29.622,0.6,0.961,0.86,0.559,0.44.8,0.85,0.212,1.48-0.828.9-1.234,1.03-1.94,0.45-0.286-.24-0.543-0.52-0.8-0.78-0.785-.81-0.77-0.8-1.578.04a27.725,27.725,0,0,1-2.105,2.04,1.248,1.248,0,0,1-1.046.29,4.315,4.315,0,0,1-1.264-1.22,1.8,1.8,0,0,1,.509-0.79c1.394-1.57,2.807-3.11,4.2-4.67A3.768,3.768,0,0,0,865.033,6019.68Zm-22.982-4.88c-0.542.61-.883,1-1.381,1.56a7.69,7.69,0,0,0,1.133.19c3.587-.01,7.175-0.01,10.763-0.06,0.783-.01,1.139.22,1.038,1.03a2.736,2.736,0,0,0,0,.6c0.073,0.73-.261.96-0.961,0.94-1.663-.05-3.329-0.05-4.993-0.06-1,0-1.122.14-1.132,1.16-0.019,1.94-.019,1.94,1.89,1.94,1,0,2.01.01,3.014-.02a0.65,0.65,0,0,1,.793.75c0,0.29-.01.58,0,0.86a0.743,0.743,0,0,1-.939.88c-1.262-.05-2.526-0.02-3.789-0.05a0.827,0.827,0,0,0-.98.98c0.041,2.6-.336,2.47,2.369,2.44,1.606-.01,3.214-0.03,4.818-0.11a0.861,0.861,0,0,1,1.087,1.03c-0.011.2-.006,0.4,0,0.6a0.81,0.81,0,0,1-.984.95c-2.066-.06-4.134-0.01-6.2-0.06a0.869,0.869,0,0,0-1.037,1.12c0.057,1.17,0,2.02,0,3.54,0,0.98-.627.95-1.308,0.98-1.508-.03-1.508-0.03-1.508-1.84,0.023-.89-0.007-1.78.04-2.67a0.912,0.912,0,0,0-1.1-1.13c-2.7.04-5.4,0.03-8.094,0.04-1.077,0-1.174-.12-1.136-1.46,0.028-1,.189-1.16,1.2-1.07,2.891,0.27,2.362-.05,2.395-2.24,0.011-.75-0.028-1.5-0.03-2.25,0-1.04.219-1.28,1.254-1.28,1.492-.01,2.985-0.01,4.477.02a0.868,0.868,0,0,0,1.036-1.02c0.032-2.09.045-2-2.038-2.12a3.463,3.463,0,0,0-3.647,1.75,15.911,15.911,0,0,1-2.5,2.84c-0.7.72-1.112,0.59-1.991-.32a0.919,0.919,0,0,1,.121-1.57,16.347,16.347,0,0,0,4.836-7.01,0.8,0.8,0,0,1,1.238-.57C840.505,6014.35,841.228,6014.54,842.051,6014.8Zm-0.326,9.72c-2.335-.05-2.244.01-2.222,2.37,0,0.03,0,.06,0,0.09a0.9,0.9,0,0,0,.972.96c0.657,0.01,1.314.01,1.97,0.01,1.119-.01,1.327-0.22,1.327-1.38C843.774,6024.57,844.039,6024.48,841.725,6024.52Zm-51.48.71a10.129,10.129,0,0,1-2.306,6.81,6.741,6.741,0,0,1-11.441-2.27,11.661,11.661,0,0,1,.372-8.83c1.431-3.17,4.075-4.51,7.661-4.03a6.907,6.907,0,0,1,5.452,5.84C790.118,6023.57,790.16,6024.41,790.245,6025.23Zm-3.021.77a9.239,9.239,0,0,0-.342-3.42,3.835,3.835,0,0,0-7.294-.52,9.057,9.057,0,0,0-.478,6.3,3.806,3.806,0,0,0,3.178,3.21,3.712,3.712,0,0,0,4.068-2.38A9.711,9.711,0,0,0,787.224,6026Zm24.965-.16a10.318,10.318,0,0,1,2.194-6.76,6.823,6.823,0,0,1,11.311,1.64,11.114,11.114,0,0,1-.394,9.9,6.8,6.8,0,0,1-12.79-2.05C812.34,6027.67,812.293,6026.75,812.189,6025.84Zm2.97,1.09a14.245,14.245,0,0,0,.784,2.6,3.573,3.573,0,0,0,6,.82c1.74-1.9,2.251-5.78,1.106-8.3a3.654,3.654,0,0,0-3.346-2.41,3.759,3.759,0,0,0-3.663,2.23A10.117,10.117,0,0,0,815.159,6026.93Zm-14.979,4.62c1.77,0,3.541-.01,5.31.02a1.765,1.765,0,0,1,1.115.29,7.184,7.184,0,0,1-.041,2.12,1.825,1.825,0,0,1-.937.2c-3.126.01-6.253,0.02-9.379-.01a2.011,2.011,0,0,1-1.17-.36,3.274,3.274,0,0,1,.313-1.84,9.789,9.789,0,0,1,1.6-1.42c1.715-1.65,3.45-3.29,5.081-5.02a6.692,6.692,0,0,0,1.319-2.29,2.659,2.659,0,0,0-2.97-3.67,4.64,4.64,0,0,0-3.052,1.41,0.887,0.887,0,0,1-1.551-.07c-1.325-1.48-1.365-1.56.29-2.69a7.991,7.991,0,0,1,7.3-1.03c2.773,0.93,3.9,3.79,2.814,6.81a11.975,11.975,0,0,1-2.992,4.37c-1.029,1.02-2.1,2-3.158,3C800.109,6031.43,800.145,6031.49,800.18,6031.55Zm-35.85,0c1.83,0,3.662.04,5.491-.01,0.878-.03,1.223.26,1.1,1.13a3.67,3.67,0,0,0,0,.77,0.605,0.605,0,0,1-.7.74c-3.442,0-6.884.01-10.326-.01a0.844,0.844,0,0,1-.65-0.39,1.948,1.948,0,0,1,.444-1.99c1.341-1.12,2.7-2.24,3.939-3.47,1.2-1.19,2.285-2.49,3.364-3.79a4.067,4.067,0,0,0,.648-1.39,2.68,2.68,0,0,0-2.958-3.58,5.04,5.04,0,0,0-3.08,1.36c-0.8.75-.9,0.72-1.658-0.1-1.251-1.35-1.268-1.45.252-2.52a8.024,8.024,0,0,1,7.363-1.13c2.737,0.87,3.923,3.72,2.9,6.7a11.639,11.639,0,0,1-2.945,4.4c-0.87.88-1.786,1.71-2.694,2.54a5.636,5.636,0,0,1-.7.47Z" transform="translate(-610 -6013.97)"/>
</svg>
