<svg id="review-ttl-lead03-sp.svg" xmlns="http://www.w3.org/2000/svg" width="371.82" height="69.469" viewBox="0 0 371.82 69.469">
  <defs>
    <style>
      .cls-1 {
        fill: #52a5dc;
        fill-rule: evenodd;
      }
    </style>
  </defs>
  <path id="シェイプ_4" data-name="シェイプ 4" class="cls-1" d="M1853.72,425.522h-9.06a0.593,0.593,0,0,0-.68.7v0.305c0,0.853-.3.853-1.7,0.853-1.28,0-1.69,0-1.69-.823,0-1.28.09-2.558,0.09-3.807V407.434c0-.975-0.06-1.919-0.06-2.894,0-1.218.47-1.583,1.63-1.583,0.86,0,1.73.061,2.62,0.061h8.67c0.87,0,1.73-.061,2.59-0.061,1.13,0,1.64.3,1.64,1.553,0,0.975-.06,1.949-0.06,2.924v15.257c0,1.278.09,2.526,0.09,3.806,0,0.852-.36.823-1.7,0.823s-1.69,0-1.69-.823a0.855,0.855,0,0,1,.03-0.274A0.632,0.632,0,0,0,1853.72,425.522Zm-0.06-12.973a0.865,0.865,0,0,0,.84-0.853v-4.872a0.865,0.865,0,0,0-.84-0.853h-8.94a0.857,0.857,0,0,0-.83.853V411.7a0.857,0.857,0,0,0,.83.853h8.94Zm-9.77,9.107a0.856,0.856,0,0,0,.83.852h8.94a0.864,0.864,0,0,0,.84-0.852V416.3a0.865,0.865,0,0,0-.84-0.852h-8.94a0.856,0.856,0,0,0-.83.852v5.361Zm36.06-9.015a0.212,0.212,0,0,0-.18.244v6.09a0.706,0.706,0,0,0,.8.852h0.42c0.92,0,1.84-.061,2.76-0.061,0.84,0,.78.4,0.78,1.524,0,1.035.06,1.492-.75,1.492-0.92,0-1.87-.061-2.79-0.061h-0.42a0.685,0.685,0,0,0-.8.791c-0.03,1.219.06,2.437,0.06,3.686,0,0.943-.33.974-1.64,0.974s-1.63-.031-1.63-0.974c0-1.249.09-2.467,0.06-3.686a0.7,0.7,0,0,0-.83-0.791h-0.36c-0.95,0-1.87.061-2.79,0.061-0.8,0-.75-0.457-0.75-1.492,0-1.1-.05-1.524.75-1.524,0.92,0,1.84.061,2.79,0.061h0.36a0.715,0.715,0,0,0,.83-0.852v-6.212a0.185,0.185,0,0,0-.18-0.214,0.2,0.2,0,0,0-.18.122,37.241,37.241,0,0,1-8.35,10.751,2.085,2.085,0,0,1-1.07.639,3.306,3.306,0,0,1-1.96-2.041,1.276,1.276,0,0,1,.62-0.791,32.029,32.029,0,0,0,8.86-10.568,0.894,0.894,0,0,0,.06-0.274,0.476,0.476,0,0,0-.53-0.457h-4.37c-1.16,0-2.32.061-3.48,0.061-0.74,0-.71-0.366-0.71-1.461,0-1.157-.03-1.523.71-1.523,1.16,0,2.32.092,3.48,0.092h6.27a0.727,0.727,0,0,0,.83-0.854v-2.5a16.667,16.667,0,0,0-.09-2.193,0.858,0.858,0,0,1-.03-0.274c0-.366.24-0.427,0.54-0.427,0.47,0,2.26.122,2.82,0.183,0.21,0.031.62,0.061,0.62,0.366a0.658,0.658,0,0,1-.38.486,2.553,2.553,0,0,0-.33,1.8v2.557a0.741,0.741,0,0,0,.8.854h6.33c1.16,0,2.32-.092,3.48-0.092,0.74,0,.71.366,0.71,1.492,0,1.158.03,1.492-.71,1.492-1.16,0-2.32-.061-3.48-0.061h-4.54a0.474,0.474,0,0,0-.51.427,0.907,0.907,0,0,0,.06.274,34.155,34.155,0,0,0,8.89,10.232,1.278,1.278,0,0,1,.74.852c0,0.7-1.13,2.163-1.84,2.163-0.66,0-3.21-2.62-3.78-3.228a40.092,40.092,0,0,1-5.76-7.887A0.3,0.3,0,0,0,1879.95,412.641Zm23.88,4.446a0.491,0.491,0,0,1-.33.366c-0.38.273-.35,0.7-0.35,1.705v1c0,0.7.06,1.432,0.06,2.131,0,0.61-.21.64-1.04,0.64s-1.04-.03-1.04-0.64c0-.7.03-1.431,0.03-2.131v-2.01c0-.793-0.03-1.34-0.39-1.34a0.814,0.814,0,0,0-.63.852,27.9,27.9,0,0,1-2.07,9.35c-0.27.608-.42,0.823-0.72,0.823-0.5,0-1.96-.672-1.96-1.28a1.778,1.778,0,0,1,.18-0.518,25.889,25.889,0,0,0,2.02-8.192,0.372,0.372,0,0,0-.3-0.456,0.445,0.445,0,0,0-.21.061,0.984,0.984,0,0,0-.26.305,0.532,0.532,0,0,1-.39.273c-0.32,0-.39-0.456-0.56-1.309-0.06-.305-0.3-1.584-0.3-1.827,0-.336.21-0.336,0.89-0.4a2.921,2.921,0,0,0,.48-0.03,0.811,0.811,0,0,0,.8-0.945v-5.937c0-.792-0.03-1.554-0.03-2.345a1.025,1.025,0,0,1,1.22-1.219c0.27,0,.56.032,0.83,0.032a0.892,0.892,0,0,0,1.01-.7,20.122,20.122,0,0,0,.59-2.437c0.03-.243.06-0.487,0.36-0.487,0.33,0,2.23.548,2.71,0.67a0.729,0.729,0,0,1,.65.457,0.55,0.55,0,0,1-.51.456,0.688,0.688,0,0,0-.56.457c-0.09.214-.24,0.64-0.33,0.884a0.716,0.716,0,0,0-.06.244,0.466,0.466,0,0,0,.51.486c0.56,0,1.1-.061,1.63-0.061a1.026,1.026,0,0,1,1.19,1.249c0,0.761-.03,1.553-0.03,2.315v4.506a0.486,0.486,0,0,0,.51.549h0.24a2.023,2.023,0,0,1,.59-0.153c0.56,0,.56,1.189.56,1.584,0,1.036-.32,1.036-1.33,1.31a0.867,0.867,0,0,0-.57.944v6c0,0.731.06,1.431,0.06,2.162,0,3.075-2.02,3.412-4.55,3.412-0.89,0-1.51-.061-1.51-2.255,0-.456.12-0.791,0.62-0.791,0.48,0,1.13.091,1.67,0.091,1.28,0,1.22-.762,1.22-1.857V416.9a0.6,0.6,0,0,0-.6-0.7,0.381,0.381,0,0,0-.18.03c-0.29.031-.56,0.092-0.86,0.152a0.168,0.168,0,1,0,0,.336C1903.44,416.783,1903.83,416.783,1903.83,417.087Zm0.6-9.562a0.719,0.719,0,0,0-.84-0.853h-2.52a0.719,0.719,0,0,0-.84.853v5.663a0.642,0.642,0,0,0,.63.762h0.18c0.86-.151,1.75-0.244,2.61-0.427a0.855,0.855,0,0,0,.78-1v-4.994Zm-2.17,5.207c-0.36,0-.45-0.426-0.69-1.4-0.15-.61-0.32-1.432-0.68-2.5a2.158,2.158,0,0,1-.09-0.426c0-.549,1.25-0.7,1.28-0.7,0.5,0,.65.791,1.04,2.192a21.1,21.1,0,0,1,.5,2.1C1903.62,412.58,1902.37,412.732,1902.26,412.732Zm11.32,0.427a0.716,0.716,0,0,0-.83.852v2.528a19.353,19.353,0,0,1-1.85,8.678c-0.29.61-1.39,2.682-2.05,2.682-0.53,0-1.9-1.006-1.9-1.615a0.908,0.908,0,0,1,.21-0.457c2.02-2.527,2.79-6.151,2.79-9.38v-2.892c0-.731-0.06-1.432-0.06-2.132,0-.914.42-1.127,1.28-1.127,0.6,0,1.22.03,1.82,0.03h1.98c0.69,0,1.37-.03,2.06-0.03,0.83,0,1.24.183,1.24,1.127,0,0.73-.03,1.431-0.03,2.161v9.806c0,0.853,0,1.128.63,1.128h0.41c0.81,0,.87-1.614.99-2.8,0.02-.457.06-0.638,0.56-0.638,0.62,0,1.93.3,1.93,1.065a19.215,19.215,0,0,1-.83,3.807,1.982,1.982,0,0,1-2.26,1.461h-2.02c-1.81,0-2.2-.761-2.2-2.5,0-.762.03-1.553,0.03-2.345v-8.558a0.716,0.716,0,0,0-.83-0.852h-1.07Zm2.56-9.045a0.7,0.7,0,0,0,.8.853h1.66c0.95,0,1.9-.061,2.8-0.061,0.59,0,.56.4,0.56,1.461,0,1.1.03,1.492-.56,1.492-0.9,0-1.85-.091-2.8-0.091h-7.19c-0.95,0-1.93.091-2.77,0.091-0.62,0-.59-0.4-0.59-1.461,0-1.127-.03-1.492.59-1.492,0.84,0,1.82.061,2.77,0.061h0.95a0.716,0.716,0,0,0,.83-0.853V403.14a10.672,10.672,0,0,0-.09-1.707,1.146,1.146,0,0,1-.03-0.3,0.457,0.457,0,0,1,.57-0.427c0.5,0,1.87.152,2.44,0.213,0.32,0.031.86,0.031,0.86,0.427a0.619,0.619,0,0,1-.45.457,1.18,1.18,0,0,0-.35,1.187v1.127Zm25.45,19.369a0.7,0.7,0,0,0,.83.821h6.39c1.19,0,2.41-.061,3.6-0.061,0.68,0,.65.366,0.65,1.431s0.03,1.431-.65,1.431c-1.19,0-2.41-.059-3.6-0.059h-17.59c-1.22,0-2.41.059-3.63,0.059-0.68,0-.65-0.364-0.65-1.431s-0.03-1.431.65-1.431c1.22,0,2.41.061,3.63,0.061h6.39a0.7,0.7,0,0,0,.83-0.821V420.1a0.715,0.715,0,0,0-.83-0.852h-3.78c-1.13,0-2.22.059-3.35,0.059-0.69,0-.69-0.334-0.69-1.37,0-1.065,0-1.4.69-1.4,1.13,0,2.22.061,3.35,0.061h12.37c1.09,0,2.22-.061,3.32-0.061,0.72,0,.69.365,0.69,1.371,0,1.065.03,1.4-.69,1.4-1.12,0-2.23-.059-3.32-0.059h-3.78a0.715,0.715,0,0,0-.83.852v3.381Zm0.06-20.4a0.725,0.725,0,0,0,.83.821h4.93c1.1,0,2.2-.061,3.3-0.061,0.84,0,1.7.215,1.7,1.25,0,0.365-.03.975-0.03,1.613v0.4c0,0.213.03,0.669,0.03,0.853a1.745,1.745,0,0,1,.03.395c0,0.7-.51.67-1.49,0.67-1.04,0-1.57.031-1.57-.64,0-.213.03-0.7,0.03-0.914a0.7,0.7,0,0,0-.81-0.822h-3.53a0.741,0.741,0,0,0-.84.854v3.075c0,1.036.42,1.1,1.31,1.1h1.93c0.95,0,1.19-.335,1.4-1.4,0.09-.486.15-0.73,0.63-0.73,0.5,0,2.22.273,2.22,1.065a6.633,6.633,0,0,1-.95,2.772c-0.71,1.1-1.57,1.065-2.7,1.065h-3.63c-1.93,0-3.21-.152-3.21-2.284,0-.425.03-0.852,0.03-1.278V407.5a0.734,0.734,0,0,0-.83-0.854h-3a0.153,0.153,0,0,0-.18.153,0.136,0.136,0,0,0,.09.122l0.48,0.183c0.62,0.243,1.09.4,1.09,0.76a0.585,0.585,0,0,1-.47.4,0.833,0.833,0,0,0-.57.61,10.92,10.92,0,0,1-3.92,4.6,17.084,17.084,0,0,1-3.15,1.8,9.1,9.1,0,0,1-1.75.578c-0.66,0-1.46-1.37-1.46-2.132,0-.4.3-0.486,0.95-0.7,2.53-.821,5.74-2.893,6.57-5.572a0.961,0.961,0,0,0,.06-0.244,0.562,0.562,0,0,0-.62-0.549h-3.03a0.73,0.73,0,0,0-.84.854v0.091c0,0.427.06,0.913,0.06,1.34,0,0.7-.5.669-1.51,0.669-1.07,0-1.55.03-1.55-.7,0-.426.06-0.882,0.06-1.309v-0.792c0-.671-0.03-1.309-0.03-1.675,0-1.1.8-1.28,2.2-1.28,0.77,0,1.72.061,2.79,0.061h4.91a0.726,0.726,0,0,0,.83-0.821,15.183,15.183,0,0,0-.12-1.646c0-.09-0.03-0.212-0.03-0.3a0.489,0.489,0,0,1,.62-0.488c0.45,0,1.85.122,2.35,0.183,0.57,0.061,1.1.061,1.1,0.487a0.609,0.609,0,0,1-.35.456,1.237,1.237,0,0,0-.36,1.067v0.244Zm19.8,11.45a20.87,20.87,0,0,1,5.65-14.07,1.8,1.8,0,0,1,.98-0.73,2.3,2.3,0,0,1,1.66,1.462,1.137,1.137,0,0,1-.41.731,17.884,17.884,0,0,0,0,25.215,1.124,1.124,0,0,1,.41.7,2.274,2.274,0,0,1-1.63,1.492,1.511,1.511,0,0,1-.95-0.671A20.843,20.843,0,0,1,1961.45,414.529Zm20.58,5.024c0,4.172-2.14,6.458-7.07,6.458a6.606,6.606,0,0,1-.8-0.032c-0.63-.091-0.75-0.212-0.75-0.852v-1.766c0-.64.09-0.823,0.51-0.823a1.54,1.54,0,0,1,.35.031,6.779,6.779,0,0,0,1.08.061c2.14,0,3.23-.915,3.23-3.259v-8.984c0-1.766-.08-5.116-0.08-5.329,0-.64.17-0.762,0.86-0.762h1.9c0.68,0,.86.122,0.86,0.762,0,0.213-.09,3.563-0.09,5.329v9.166Zm10.59,1.219a1,1,0,0,0-1.25.731c-0.41,1-.8,2.041-1.3,3.5a0.978,0.978,0,0,1-1.2.852h-2.07c-0.48,0-.69-0.061-0.69-0.3a1.311,1.311,0,0,1,.18-0.518c0.92-2.132,1.57-3.656,2.2-5.148l4.25-10.324c0.53-1.309,1.16-2.77,1.78-4.414a0.973,0.973,0,0,1,1.19-.854h1.28a0.973,0.973,0,0,1,1.19.854c0.62,1.644,1.22,3.105,1.75,4.385l4.28,10.292c0.65,1.585,1.31,3.107,2.23,5.209a1.311,1.311,0,0,1,.18.518c0,0.242-.21.3-0.69,0.3h-2.28a0.969,0.969,0,0,1-1.19-.852c-0.51-1.461-.9-2.5-1.31-3.5a0.978,0.978,0,0,0-1.25-.731h-7.28Zm0.54-3.776a1.384,1.384,0,0,0-.12.518c0,0.273.21,0.334,0.68,0.334h5.08c0.48,0,.69-0.061.69-0.334a1.384,1.384,0,0,0-.12-0.518l-2.77-6.975a0.352,0.352,0,1,0-.65,0Zm22.42,8.861c-1.4,0-3.75.061-3.96,0.061a0.7,0.7,0,0,1-.83-0.852c0-.213.06-3.5,0.06-5.208v-9.471c0-1.766-.09-5.116-0.09-5.329,0-.64.18-0.762,0.86-0.762h1.91c0.68,0,.86.122,0.86,0.762,0,0.213-.09,3.563-0.09,5.329v11.359c0,0.762.15,0.914,0.89,0.914h2.7c1.43,0,4.11-.091,4.31-0.091,0.63,0,.75.182,0.75,0.882v1.585c0,0.7-.12.882-0.75,0.882-0.2,0-2.88-.061-4.31-0.061h-2.31Zm19.62-11.328a20.865,20.865,0,0,1-5.65,14.069,1.809,1.809,0,0,1-.97.732,2.294,2.294,0,0,1-1.67-1.463,1.151,1.151,0,0,1,.42-0.73,17.884,17.884,0,0,0,0-25.215,1.147,1.147,0,0,1-.42-0.7,2.272,2.272,0,0,1,1.63-1.492,1.543,1.543,0,0,1,.96.669A20.883,20.883,0,0,1,2035.2,414.529Zm33.57-7.827a0.356,0.356,0,0,0-.41-0.335h-4.26a0.706,0.706,0,0,0-.83.823v0.518c0,0.395.06,0.943,0.06,1.248,0,0.669-.59.608-1.54,0.608-1.04,0-1.55.031-1.55-.638,0-.305.06-0.823,0.06-1.218v-1.463c0-.638-0.06-1.187-0.06-1.492,0-1.036.8-1.217,2.26-1.217,0.74,0,1.63.061,2.68,0.061h5.08a0.707,0.707,0,0,0,.8-0.823,11.011,11.011,0,0,0-.09-1.4,1.037,1.037,0,0,1-.03-0.3c0-.366.3-0.4,0.57-0.4,0.59,0,1.9.121,2.52,0.182,0.24,0.031.83,0.031,0.83,0.4a0.6,0.6,0,0,1-.35.425,1.361,1.361,0,0,0-.36,1.127,0.718,0.718,0,0,0,.83.793h5.11c1.04,0,2.11-.032,3.15-0.032,0.78,0,1.79.093,1.79,1.158,0,0.244-.03.913-0.03,1.522v1.585c0,0.242.03,0.608,0.03,0.852a1.387,1.387,0,0,1,.03.366c0,0.7-.54.638-1.55,0.638-0.95,0-1.54.061-1.54-.608,0-.366.05-0.853,0.05-1.248v-0.64a0.7,0.7,0,0,0-.83-0.823h-9.21c-0.12,0-.12.061-0.12,0.092a0.1,0.1,0,0,0,.09.091,1.114,1.114,0,0,1,.86.579,0.492,0.492,0,0,1-.47.334,0.711,0.711,0,0,0-.63.335,0.335,0.335,0,0,0-.06.183,0.24,0.24,0,0,0,.27.213h2.89c0.86,0,1.72-.03,2.58-0.03,1.43,0,2.02,1.736,2.02,1.949,0,0.762-3.18,3.625-3.86,4.233a0.528,0.528,0,0,0-.24.427,0.5,0.5,0,0,0,.3.457,36.19,36.19,0,0,0,8.79,3.5c0.54,0.121,1.22.243,1.22,0.76,0,0.4-.68,2.071-1.42,2.071a25.584,25.584,0,0,1-3.75-1.157,0.716,0.716,0,0,0-.27-0.061,0.553,0.553,0,0,0-.5.61v4.78c0,0.549.06,1.25,0.06,1.736,0,0.609-.39.609-1.46,0.609-1.04,0-1.46.031-1.46-.577v-0.154a0.462,0.462,0,0,0-.53-0.547h-7.43a0.483,0.483,0,0,0-.56.547,1.054,1.054,0,0,1,.02.122c0,0.609-.47.579-1.54,0.579s-1.48,0-1.48-.608c0-.337.05-1.189,0.05-1.736v-4.721a0.51,0.51,0,0,0-.5-0.548,0.831,0.831,0,0,0-.27.03,24.046,24.046,0,0,1-3.63,1.128c-0.77,0-1.51-1.615-1.51-2.132,0-.488.62-0.579,1.55-0.823a37.38,37.38,0,0,0,8.7-3.471,0.573,0.573,0,0,0,.33-0.488,0.76,0.76,0,0,0-.24-0.457,18.52,18.52,0,0,1-1.69-1.766,0.871,0.871,0,0,0-.63-0.335,1.108,1.108,0,0,0-.5.183c-0.72.548-3.98,2.863-4.67,2.863-0.5,0-1.54-1.492-1.54-1.949a1.243,1.243,0,0,1,.83-0.762,22.808,22.808,0,0,0,7.1-5.481A0.433,0.433,0,0,0,2068.77,406.7Zm7.28,17.511a0.856,0.856,0,0,0,.83-0.852V422.2a0.856,0.856,0,0,0-.83-0.852h-6.98a0.793,0.793,0,0,0-.8.852v1.158a0.794,0.794,0,0,0,.8.852h6.98Zm-3.38-7.552a1.119,1.119,0,0,0-.63.213,34.142,34.142,0,0,1-3.06,1.736,0.2,0.2,0,0,0-.12.183,0.2,0.2,0,0,0,.21.182h7.22a0.224,0.224,0,0,0,.18-0.182,0.2,0.2,0,0,0-.12-0.183c-1.1-.549-1.99-1.067-3.03-1.706A1.356,1.356,0,0,0,2072.67,416.661Zm-0.07-3.655a0.914,0.914,0,0,0,.6-0.274,9.9,9.9,0,0,0,2.02-1.949,0.915,0.915,0,0,0-.89-0.213h-3.72a0.364,0.364,0,0,0-.38.335,0.4,0.4,0,0,0,.12.305,15.426,15.426,0,0,0,1.6,1.522A1.064,1.064,0,0,0,2072.6,413.006Zm33.9,6.152h3.96c1.13,0,2.26-.061,3.38-0.061,0.72,0,.69.4,0.69,1.34s0.03,1.339-.69,1.339c-1.12,0-2.25-.061-3.38-0.061h-3.99a0.707,0.707,0,0,0-.8.854v1a0.717,0.717,0,0,0,.8.853h6.45c1.19,0,2.38-.091,3.6-0.091,0.68,0,.68.335,0.68,1.371,0,1,0,1.34-.65,1.34-1.22,0-2.41-.061-3.63-0.061h-17.68c-1.22,0-2.41.061-3.62,0.061-0.66,0-.66-0.336-0.66-1.34,0-1.066,0-1.371.68-1.371,1.22,0,2.41.091,3.6,0.091h6.45a0.717,0.717,0,0,0,.8-0.853v-1a0.707,0.707,0,0,0-.8-0.854h-3.92c-1.13,0-2.26.061-3.39,0.061-0.71,0-.69-0.364-0.69-1.339s0-1.34.69-1.34c1.13,0,2.26.061,3.39,0.061h3.92a0.686,0.686,0,0,0,.8-0.823,6.74,6.74,0,0,0-.09-1.095,0.861,0.861,0,0,1-.03-0.275c0-.365.24-0.426,0.54-0.426,0.41,0,2.26.183,2.76,0.244,0.24,0.03.69,0.061,0.69,0.4a0.639,0.639,0,0,1-.36.457,0.782,0.782,0,0,0-.3.73A0.675,0.675,0,0,0,2106.5,419.158Zm0.06-15.683h5.03c1.1,0,2.19-.031,3.29-0.031,0.72,0,1.7.153,1.7,1.127,0,0.335-.06.853-0.06,1.461v1.219c0,0.183.06,0.608,0.06,0.821,0,0.092.03,0.244,0.03,0.336,0,0.67-.54.64-1.58,0.64-1.01,0-1.63.03-1.63-.61a1.513,1.513,0,0,1,.03-0.366c0-.213.03-0.638,0.03-0.821v-0.335a0.725,0.725,0,0,0-.83-0.852h-16.86a0.725,0.725,0,0,0-.83.852v0.213c0,0.305.06,0.913,0.06,1.157,0,0.67-.56.609-1.63,0.609-1.01,0-1.58.061-1.58-.609,0-.305.06-0.823,0.06-1.157v-1.1c0-.7-0.06-1.126-0.06-1.431,0-1,.95-1.157,1.73-1.157,1.1,0,2.2.031,3.3,0.031h4.9a0.722,0.722,0,0,0,.83-0.762,10.115,10.115,0,0,0-.12-1.37c0-.091-0.03-0.183-0.03-0.274,0-.366.33-0.366,0.6-0.366,0.59,0,2.26.122,2.88,0.183,0.21,0.03.59,0.061,0.59,0.366a0.613,0.613,0,0,1-.38.4,1.155,1.155,0,0,0-.33,1.035A0.7,0.7,0,0,0,2106.56,403.475Zm3.27,12.334c-4.43.334-9.48,0.577-15.03,0.852a0.6,0.6,0,0,0-.48.426,0.456,0.456,0,0,1-.36.305c-0.24,0-.38-0.213-0.59-1.066a19.9,19.9,0,0,1-.48-2.041c0-.366.36-0.4,0.66-0.4h1.09c0.96,0,1.91-.029,2.86-0.061a1.181,1.181,0,0,0,1.19-.669c0.41-.671.8-1.4,1.16-2.1a0.462,0.462,0,0,0-.45-0.73h-0.12c-1.13,0-2.26.061-3.39,0.061-0.65,0-.65-0.366-0.65-1.218,0-.914,0-1.278.65-1.278,1.13,0,2.26.061,3.39,0.061h9.81c1.13,0,2.26-.061,3.39-0.061,0.68,0,.65.364,0.65,1.248s0.03,1.248-.65,1.248h-0.95a0.255,0.255,0,0,0-.3.244,0.28,0.28,0,0,0,.12.244c0.68,0.638,4.9,4.568,4.9,5.176,0,0.7-1.39,1.646-2.02,1.646a1.609,1.609,0,0,1-.92-0.793c-0.18-.182-0.36-0.426-0.59-0.67a1.367,1.367,0,0,0-1.11-.547C2111.35,415.687,2110.64,415.748,2109.83,415.809Zm-5.94-4.965a0.428,0.428,0,0,1-.45.335,0.845,0.845,0,0,0-.56.456c-0.27.457-.48,0.945-0.75,1.4a0.465,0.465,0,0,0-.08.244,0.411,0.411,0,0,0,.44.425c2.2-.029,4.4-0.213,6.57-0.3a0.336,0.336,0,0,0,.33-0.336,0.46,0.46,0,0,0-.12-0.274,2.764,2.764,0,0,1-1.16-1.219,1.583,1.583,0,0,1,.8-0.913,0.349,0.349,0,0,0,.09-0.182,0.237,0.237,0,0,0-.21-0.153h-5.14c-0.09.031-.12,0.092-0.03,0.153A0.436,0.436,0,0,1,2103.89,410.844Zm33.45,9.684a0.3,0.3,0,0,0-.3.366v1.736c0,1.522.06,3.014,0.06,4.507,0,0.943-.33.974-1.6,0.974s-1.61-.031-1.61-0.974c0-1.493.09-2.985,0.09-4.507v-1.675a0.34,0.34,0,0,0-.3-0.366,0.394,0.394,0,0,0-.26.122,29.606,29.606,0,0,1-8.09,5.969c-0.06.03-.09,0.061-0.15,0.091a3.735,3.735,0,0,1-1.1.427c-0.68,0-1.72-1.585-1.72-2.193a1.376,1.376,0,0,1,.89-0.731,27.024,27.024,0,0,0,7.94-5.207,0.555,0.555,0,0,0,.12-0.274,0.326,0.326,0,0,0-.39-0.305h-3.27c-1.16,0-2.32.061-3.45,0.061-0.71,0-.68-0.334-0.68-1.34s0-1.31.68-1.31c0.92,0,1.84.091,2.8,0.061a0.7,0.7,0,0,0,.77-0.852v-0.366a0.716,0.716,0,0,0-.83-0.853h-0.24c-1.22,0-2.41.061-3.63,0.061-0.65,0-.65-0.334-0.65-1.34,0-1.036,0-1.37.68-1.37,1.19,0,2.41.092,3.6,0.092h0.24a0.727,0.727,0,0,0,.83-0.853v-0.458a0.705,0.705,0,0,0-.83-0.821c-0.6,0-1.4.03-1.96,0.03-0.69,0-.69-0.335-0.69-1.31,0-1,0-1.309.69-1.309,1.12,0,2.25.061,3.36,0.061h4.81a0.716,0.716,0,0,0,.83-0.852v-0.366a0.666,0.666,0,0,0-.8-0.792c-1.67.091-4.01,0.274-5.65,0.274h-0.8a0.97,0.97,0,0,1-1.04-.882,2.568,2.568,0,0,1-.18-0.975c0-.7.5-0.64,1.37-0.671,3.92-.091,11.89-0.457,15.39-1.766a0.935,0.935,0,0,1,.24-0.061,2.077,2.077,0,0,1,.95.852,5.017,5.017,0,0,1,1.31,1.737,0.362,0.362,0,0,1-.36.305,1.664,1.664,0,0,1-.53-0.153,1.76,1.76,0,0,0-.39-0.062c-1.16.215-2.58,0.489-3.45,0.64-0.71.122-1.45,0.183-2.2,0.305a0.8,0.8,0,0,0-.8.945v0.67a0.716,0.716,0,0,0,.83.852h4.88c1.13,0,2.26-.061,3.39-0.061,0.68,0,.65.366,0.65,1.309s0.03,1.31-.65,1.31c-0.75,0-1.46-.03-2.17-0.03a0.689,0.689,0,0,0-.81.821v0.458a0.73,0.73,0,0,0,.84.853h0.35c1.19,0,2.41-.092,3.6-0.092,0.68,0,.65.395,0.65,1.37s0.03,1.34-.65,1.34c-1.19,0-2.41-.061-3.6-0.061H2144a0.719,0.719,0,0,0-.84.853v0.366a0.7,0.7,0,0,0,.78.852c0.95,0.03,1.9-.061,2.85-0.061,0.68,0,.68.335,0.68,1.31,0,1.006,0,1.34-.68,1.34-1.16,0-2.29-.061-3.45-0.061h-3.27a0.3,0.3,0,0,0-.35.305,0.294,0.294,0,0,0,.11.243,31.473,31.473,0,0,0,8.18,5.482,0.688,0.688,0,0,1,.59.579c0,0.638-1.04,2.162-1.66,2.162a17.591,17.591,0,0,1-3.39-1.737,30.824,30.824,0,0,1-5.97-4.9A0.338,0.338,0,0,0,2137.34,420.528Zm-5.89-11.359a0.844,0.844,0,0,0-.83.852v0.458a0.807,0.807,0,0,0,.83.853h1.7a0.863,0.863,0,0,0,.83-0.853v-0.458a0.864,0.864,0,0,0-.83-0.852h-1.7Zm0,4.72a0.825,0.825,0,0,0-.83.853v0.366a0.806,0.806,0,0,0,.83.852h1.7a0.863,0.863,0,0,0,.83-0.852v-0.366a0.843,0.843,0,0,0-.83-0.853h-1.7Zm6.42-4.72a0.844,0.844,0,0,0-.83.852v0.458a0.807,0.807,0,0,0,.83.853h1.61a0.863,0.863,0,0,0,.83-0.853v-0.458a0.864,0.864,0,0,0-.83-0.852h-1.61Zm0,4.72a0.825,0.825,0,0,0-.83.853v0.366a0.806,0.806,0,0,0,.83.852h1.61a0.863,0.863,0,0,0,.83-0.852v-0.366a0.843,0.843,0,0,0-.83-0.853h-1.61Zm27.1,2.558a1.137,1.137,0,0,1-.69.671c-0.44,0-1.75-.64-1.75-1.158a1.222,1.222,0,0,1,.35-0.608,5.49,5.49,0,0,0,.99-1.707c0-.334-0.42-0.3-0.63-0.3h-0.38a0.609,0.609,0,0,0-.69.73v9.076c0,0.608.03,1.217,0.03,1.827,0,2.679-2.08,2.953-4.22,2.953-0.59,0-1.48.122-1.48-2.222,0-.4.09-0.7,0.53-0.7,0.33,0,.74.061,1.16,0.061,1.4,0,1.34-.487,1.34-1.827V417.91c0-.123-0.03-0.213-0.15-0.213a0.185,0.185,0,0,0-.18.12,21.9,21.9,0,0,1-2.94,5.056,1.911,1.911,0,0,1-.8.732,2.973,2.973,0,0,1-1.7-1.768,0.753,0.753,0,0,1,.3-0.486,25.939,25.939,0,0,0,4.43-7.249,0.723,0.723,0,0,0,.06-0.242,0.506,0.506,0,0,0-.57-0.518h-0.74c-0.83,0-1.63.061-2.44,0.061-0.59,0-.62-0.305-0.62-1.311,0-1.036.03-1.309,0.62-1.309,0.81,0,1.61.031,2.44,0.031h2.62a0.356,0.356,0,0,0,.41-0.335,0.46,0.46,0,0,0-.12-0.275,21.794,21.794,0,0,0-2.73-2.8,1.33,1.33,0,0,1-.51-0.7,2.949,2.949,0,0,1,1.82-1.552,1.665,1.665,0,0,1,1.01.67,1.619,1.619,0,0,0,.8.517,0.941,0.941,0,0,0,.56-0.244,7.022,7.022,0,0,0,1.52-1.644c0-.275-0.45-0.244-0.63-0.244h-3.74c-0.92,0-1.99.061-2.62,0.061-0.65,0-.65-0.273-0.65-1.309,0-1.006,0-1.309.65-1.309,0.87,0,1.76.061,2.62,0.061h4.99c0.54,0,1.07-.032,1.61-0.032a1.22,1.22,0,0,1,1.16.579,2.642,2.642,0,0,1,.74,1.371c0,0.822-3.33,3.563-4.04,4.141a0.722,0.722,0,0,0-.33.579,0.873,0.873,0,0,0,.21.518,3.2,3.2,0,0,1,.71,1.035,0.879,0.879,0,0,1-.33.579,0.188,0.188,0,0,0-.09.152,0.193,0.193,0,0,0,.24.183c0.27,0,1.64-.031,1.82-0.031a2.315,2.315,0,0,1,1.93,1.4,0.422,0.422,0,0,0,.32.395h0.12a19.839,19.839,0,0,0,3.39-1.736,0.638,0.638,0,0,0,.36-0.548,0.716,0.716,0,0,0-.21-0.517,12.764,12.764,0,0,1-1.04-1.463,0.593,0.593,0,0,0-.48-0.3,0.576,0.576,0,0,0-.44.212,3.6,3.6,0,0,1-1.54,1.37,2.963,2.963,0,0,1-1.76-1.643,0.657,0.657,0,0,1,.27-0.427,18.682,18.682,0,0,0,4.13-6.426,0.549,0.549,0,0,1,.42-0.457,8.278,8.278,0,0,1,1.04.305c0.74,0.213,1.87.518,1.87,0.882a0.573,0.573,0,0,1-.57.366,0.627,0.627,0,0,0-.47.518,0.558,0.558,0,0,0-.06.3,0.478,0.478,0,0,0,.53.457h3.87c1.07,0,2.11-.061,3.15-0.061,0.65,0,.65.244,0.65,1.309s-0.03,1.309-.65,1.309-1.58-.03-2.23-0.061a0.136,0.136,0,0,0-.12.152,0.127,0.127,0,0,0,.09.122,1.369,1.369,0,0,1,.95.671,0.4,0.4,0,0,1-.42.3,0.779,0.779,0,0,0-.65.517,19.022,19.022,0,0,1-1.49,2.01,0.793,0.793,0,0,0-.21.488,0.669,0.669,0,0,0,.33.548,18.764,18.764,0,0,0,3.75,1.858,0.927,0.927,0,0,1,.77.579c0,0.579-.86,2.313-1.49,2.313a2.926,2.926,0,0,1-.83-0.273,21.046,21.046,0,0,1-4.34-2.528,1.01,1.01,0,0,0-.56-0.213,0.934,0.934,0,0,0-.63.213c-0.83.61-4.25,2.741-5.17,2.741a1.427,1.427,0,0,1-.92-1,0.289,0.289,0,0,0-.27-0.213,0.286,0.286,0,0,0-.26.182C2166.01,414.59,2165.09,416.234,2164.97,416.447Zm8.53,3.077a0.913,0.913,0,0,0-1.04.73,13.888,13.888,0,0,1-3.66,5.908c-0.48.457-1.72,1.676-2.35,1.676a3.031,3.031,0,0,1-1.9-2.011,0.762,0.762,0,0,1,.54-0.549,10.671,10.671,0,0,0,4.42-4.994,0.894,0.894,0,0,0,.06-0.274,0.518,0.518,0,0,0-.59-0.486c-0.27,0-1.93.061-2.2,0.061-0.65,0-.63-0.335-0.63-1.341,0-1.126-.02-1.37.69-1.37,0.89,0,1.78.091,2.64,0.061a0.766,0.766,0,0,0,.89-0.792c0-.275.04-0.518,0.04-0.7,0-.853,0-1.066.44-1.066a24.393,24.393,0,0,1,2.5.3c0.24,0.031.59,0.092,0.59,0.335a0.709,0.709,0,0,1-.44.427,0.472,0.472,0,0,0-.27.456v0.213a0.679,0.679,0,0,0,.74.823h0.42c1.16,0,2.08-.061,2.79-0.061,1.4,0,1.96.213,1.96,1.492a37.3,37.3,0,0,1-1.04,7.308c-0.65,2.225-2.29,2.346-4.28,2.346-1.22,0-1.72.06-1.72-2.1,0-.425,0-0.882.5-0.882a2.425,2.425,0,0,1,.45.03c0.33,0.031.65,0.061,1.01,0.061a1.174,1.174,0,0,0,1.46-1.036,22.734,22.734,0,0,0,.56-3.9c0-.73-0.39-0.669-1.48-0.669h-1.1Zm1.51-13.126a0.48,0.48,0,0,0-.53-0.427h-2.26a0.44,0.44,0,0,0-.51.427,0.5,0.5,0,0,0,.09.274,8.493,8.493,0,0,0,1.04,1.4,0.693,0.693,0,0,0,.57.275,0.674,0.674,0,0,0,.53-0.275,8.63,8.63,0,0,0,.98-1.37A0.59,0.59,0,0,0,2175.01,406.4Zm28.64,3.715a0.705,0.705,0,0,0,.83-0.823c0-1.734-.03-3.47-0.03-5.207v-1.035c0-.64-0.06-1.4-0.06-1.644a0.47,0.47,0,0,1,.57-0.518c0.29,0,1.78.152,2.16,0.183,0.45,0.061.81,0.061,0.81,0.426a0.62,0.62,0,0,1-.45.488c-0.3.151-.3,0.334-0.3,0.913v6.426a0.709,0.709,0,0,0,.84.791h0.08c1.01,0,2.06-.061,3.1-0.061,0.68,0,.65.4,0.65,1.28,0,0.913.03,1.309-.65,1.309-1.04,0-2.09-.092-3.13-0.061a0.7,0.7,0,0,0-.8.762c0.06,1.065.12,2.131,0.21,3.2a0.291,0.291,0,0,0,.24.274,0.3,0.3,0,0,0,.24-0.183,22.46,22.46,0,0,0,1.24-2.741,0.492,0.492,0,0,1,.42-0.427,4.181,4.181,0,0,1,1.63.915c0.66,0.457.84,0.548,0.84,0.792a0.561,0.561,0,0,1-.51.4,1.045,1.045,0,0,0-.68.761,29.664,29.664,0,0,1-2.35,4.172,1.419,1.419,0,0,0-.33.914c0,0.517.75,3.167,1.16,3.167,0.57,0,.81-2.681.86-3.2a0.465,0.465,0,0,1,.57-0.486c0.44,0,1.6.305,1.6,1.126a19.922,19.922,0,0,1-.74,3.624c-0.42,1.28-.86,2.528-2.44,2.528-1.81,0-2.61-2.041-3.09-3.532a0.518,0.518,0,0,0-.41-0.366,0.567,0.567,0,0,0-.39.152c-0.54.549-3.24,3.107-3.83,3.107a2.553,2.553,0,0,1-1.58-1.706,1.387,1.387,0,0,1,.75-0.852,25.666,25.666,0,0,0,4.1-3.746,1.459,1.459,0,0,0,.38-0.975,1.64,1.64,0,0,0-.03-0.366c-0.26-2.191-.5-4.263-0.59-6.516a0.706,0.706,0,0,0-.83-0.792h-6.42c-0.83,0-1.7-.031-2.53.03a0.729,0.729,0,0,0-.8.852v9.5c0,1.4.06,2.77,0.06,4.172,0,0.974-.27.974-1.4,0.974-0.98,0-1.36,0-1.36-.852,0-1.432.05-2.863,0.05-4.294v-0.3a0.574,0.574,0,0,0-.56-0.7c-0.09,0-.18.031-0.24,0.031-1.16.3-2.29,0.518-3.42,0.761a0.621,0.621,0,0,0-.41.4,0.482,0.482,0,0,1-.45.4c-0.29,0-.36-0.276-0.53-0.914a18.858,18.858,0,0,1-.57-2.224c0-.364.48-0.364,1.1-0.426a0.672,0.672,0,0,0,.66-0.791V405.15a0.481,0.481,0,0,0-.54-0.549c-0.68-.03-0.71-0.213-0.71-1.431,0-1.066-.03-1.432.68-1.432,0.54,0,1.4.062,2.14,0.062h4.04c0.78,0,1.61-.062,2.14-0.062,0.74,0,.65.457,0.69,1.158,0.03,0.762.47,0.821,1.16,0.821h0.56a0.7,0.7,0,0,0,.77-0.791c-0.03-.457-0.06-0.914-0.12-1.37,0-.091-0.03-0.213-0.03-0.3,0-.336.27-0.366,0.54-0.366,0.56,0,1.63.091,2.23,0.152,0.26,0.031.8,0.031,0.8,0.366a0.562,0.562,0,0,1-.36.4,1.168,1.168,0,0,0-.32,1.126,0.692,0.692,0,0,0,.8.791c0.47,0,1.37-.029,1.75-0.029,0.54,0,.54.273,0.54,1.187s0,1.218-.54,1.218c-0.44,0-.92-0.029-1.37-0.061a0.162,0.162,0,0,0-.14.152,0.136,0.136,0,0,0,.09.122c0.14,0.061.26,0.122,0.41,0.183a1.782,1.782,0,0,1,1.13.731c0,0.275-.27.275-0.48,0.3a0.471,0.471,0,0,0-.32.243c-0.27.518-.45,1.1-0.71,1.615a0.849,0.849,0,0,0-.03.274,0.447,0.447,0,0,0,.53.456h1.43Zm-14.42-3.167a0.8,0.8,0,0,0,.83.822h0.42a0.788,0.788,0,0,0,.83-0.822v-1.553a0.85,0.85,0,0,0-.83-0.853h-0.42a0.863,0.863,0,0,0-.83.853v1.553Zm0,5.786a0.8,0.8,0,0,0,.83.823h0.42a0.788,0.788,0,0,0,.83-0.823v-1.644a0.788,0.788,0,0,0-.83-0.823h-0.42a0.8,0.8,0,0,0-.83.823v1.644Zm0,6.03a0.616,0.616,0,0,0,.63.73,1.339,1.339,0,0,0,.15-0.029l0.53-.092a0.8,0.8,0,0,0,.77-0.975v-1.583a0.7,0.7,0,0,0-.83-0.823h-0.42a0.706,0.706,0,0,0-.83.823v1.949Zm4.73-9.532a0.728,0.728,0,0,0,.8.852c0.77,0.061,1.75.031,2.53,0.031h1.16a1.027,1.027,0,0,0,1.13-.7,23.69,23.69,0,0,0,.86-2.711c0-.061.03-0.121,0.03-0.182a0.494,0.494,0,0,0-.54-0.488h-2.38c-0.77,0-1.54.061-2.19,0.061-0.51,0-.51-0.273-0.54-0.974a0.432,0.432,0,0,0-.33-0.487,0.659,0.659,0,0,0-.53.792v3.806Zm8.77,11.816c0,0.427.02,0.883,0.02,1.309a1.01,1.01,0,0,1-1.21,1.128c-0.45,0-.93-0.032-1.4-0.032h-1.37a0.72,0.72,0,0,0-.86.762c-0.03.7-.03,0.7-1.37,0.7-0.8,0-1.18.03-1.18-.579,0-.549.02-1.1,0.02-1.644v-6c0-.457-0.02-0.913-0.02-1.37a1.009,1.009,0,0,1,1.18-1.158c0.54,0,1.07.061,1.61,0.061h1.81c0.51,0,1.01-.061,1.55-0.061a1.019,1.019,0,0,1,1.24,1.128c0,0.487-.02.943-0.02,1.4v4.355Zm-6.01-11.177c-0.35,0-.53-0.547-0.83-1.461a11.46,11.46,0,0,1-.48-1.431c0-.457,1.17-0.7,1.52-0.7s0.5,0.183.92,1.4a8.722,8.722,0,0,1,.39,1.372C2198.24,409.535,2197.2,409.869,2196.72,409.869Zm1.87,6.609a0.688,0.688,0,0,0-.71.7,0.706,0.706,0,0,0,.71.7h1.1a0.708,0.708,0,0,0,.72-0.7,0.691,0.691,0,0,0-.72-0.7h-1.1Zm0,3.2a0.7,0.7,0,0,0-.71.73v0.061a0.7,0.7,0,0,0,.71.732h1.1a0.7,0.7,0,0,0,.72-0.732v-0.061a0.7,0.7,0,0,0-.72-0.73h-1.1Zm12.49-11.663a4.691,4.691,0,0,1-1.04.3,0.708,0.708,0,0,1-.57-0.64,33.327,33.327,0,0,0-1.69-3.806,0.867,0.867,0,0,1-.12-0.395c0-.549,1.45-0.914,1.72-0.914a0.618,0.618,0,0,1,.51.3,16.011,16.011,0,0,1,1.04,2.041,17.687,17.687,0,0,1,.86,2.375A0.808,0.808,0,0,1,2211.08,408.013Z" transform="translate(-1840.59 -359.875)"/>
  <path id="シェイプ_1" data-name="シェイプ 1" class="cls-1" d="M1978.71,379.453c0,0.5-.08.625-0.51,0.625-0.14,0-1.06-.043-1.71-0.043h-2.39c-0.51,0-.61-0.109-0.61-0.646V360.554c0-.538.1-0.646,0.61-0.646h2.39c0.65,0,1.57-.044,1.71-0.044,0.43,0,.51.13,0.51,0.626v0.8c0,0.517-.06.625-0.49,0.625-0.26,0-1.08-.023-1.73-0.023h-0.58c-0.49,0-.56.088-0.56,0.584v14.976c0,0.517.07,0.6,0.56,0.6h0.58c0.65,0,1.47-.022,1.73-0.022,0.43,0,.49.109,0.49,0.626v0.8Zm10.56-3.685c1.02,0,2.91-.044,3.06-0.044,0.42,0,.5.13,0.5,0.625v1.013c0,0.5-.08.625-0.5,0.625-0.15,0-2.04-.042-3.06-0.042h-2.62c-1.03,0-2.92.042-3.06,0.042-0.43,0-.5-0.129-0.5-0.625v-0.388a1.024,1.024,0,0,1,.48-1.056,13.412,13.412,0,0,0,1.02-.9c3.63-3.406,5.72-5.56,5.72-7.673a2.282,2.282,0,0,0-2.56-2.369,3.958,3.958,0,0,0-2.94,1.422,0.6,0.6,0,0,1-.42.3,0.753,0.753,0,0,1-.4-0.3l-0.81-.926a0.785,0.785,0,0,1-.24-0.453,0.74,0.74,0,0,1,.29-0.474,6.61,6.61,0,0,1,4.73-1.962c3.06,0,4.77,1.94,4.77,4.418,0,3.038-2.28,5.473-5.36,8.34a0.543,0.543,0,0,0-.22.3c0,0.085.12,0.129,0.36,0.129h1.76Zm20.45-5.775c0,5.129-2.76,8.123-6.13,8.123-3.22,0-5.77-2.606-5.77-7.521,0-4.416,2.11-7.993,6.08-7.993C2007.06,362.6,2009.72,365.079,2009.72,369.993Zm-9.55.667c0,3.362,1.39,5.151,3.42,5.151,2.16,0,3.77-2.22,3.77-5.732,0-3.384-1.47-5.064-3.46-5.064C2001.34,365.015,2000.17,367.622,2000.17,370.66Zm20.13,5.108c1.02,0,2.92-.044,3.06-0.044,0.42,0,.5.13,0.5,0.625v1.013c0,0.5-.08.625-0.5,0.625-0.14,0-2.04-.042-3.06-0.042h-2.62c-1.03,0-2.92.042-3.06,0.042-0.42,0-.5-0.129-0.5-0.625v-0.388a1.041,1.041,0,0,1,.48-1.056,13.54,13.54,0,0,0,1.03-.9c3.62-3.406,5.71-5.56,5.71-7.673a2.279,2.279,0,0,0-2.55-2.369,3.924,3.924,0,0,0-2.94,1.422,0.622,0.622,0,0,1-.42.3,0.732,0.732,0,0,1-.41-0.3l-0.8-.926a0.815,0.815,0,0,1-.25-0.453,0.787,0.787,0,0,1,.29-0.474,6.645,6.645,0,0,1,4.73-1.962c3.06,0,4.77,1.94,4.77,4.418,0,3.038-2.28,5.473-5.36,8.34a0.543,0.543,0,0,0-.22.3c0,0.085.12,0.129,0.37,0.129h1.75Zm20.45-5.775c0,5.129-2.76,8.123-6.12,8.123-3.22,0-5.78-2.606-5.78-7.521,0-4.416,2.11-7.993,6.08-7.993C2038.09,362.6,2040.75,365.079,2040.75,369.993Zm-9.55.667c0,3.362,1.39,5.151,3.43,5.151,2.15,0,3.76-2.22,3.76-5.732,0-3.384-1.47-5.064-3.46-5.064C2032.37,365.015,2031.2,367.622,2031.2,370.66Zm25.25-3.921a0.517,0.517,0,0,0,.56.6h1.61c0.71,0,1.39-.064,2.09-0.064,0.51,0,.51.237,0.51,1.1,0,0.84-.02,1.057-0.51,1.057-0.7,0-1.38-.044-2.09-0.044h-1.61a0.5,0.5,0,0,0-.56.6v1.917a0.5,0.5,0,0,0,.56.6h3.32c0.85,0,1.69-.044,2.54-0.044,0.5,0,.48.259,0.48,1.078,0,0.841.02,1.078-.48,1.078-0.85,0-1.69-.043-2.54-0.043h-3.32a0.5,0.5,0,0,0-.56.6v0.6c0,1.056.06,2.091,0.06,3.125,0,0.71-.26.71-1.17,0.71-0.89,0-1.15,0-1.15-.689,0-1.055.06-2.09,0.06-3.146v-0.6a0.5,0.5,0,0,0-.56-0.6h-5c-0.84,0-1.69.043-2.53,0.043-0.51,0-.49-0.237-0.49-1.056,0-.862-0.02-1.1.49-1.1,0.64,0,1.31.065,1.97,0.044a0.488,0.488,0,0,0,.5-0.6v-2.046c0-.54-0.02-1.056-0.02-1.595a0.818,0.818,0,0,1,.99-0.97c0.48,0,.97.042,1.45,0.042h2.64a0.517,0.517,0,0,0,.56-0.6V365.1a0.5,0.5,0,0,0-.56-0.6h-2.66a0.857,0.857,0,0,0-.85.452,20.98,20.98,0,0,1-2.75,3.556,1.268,1.268,0,0,1-.67.474,2.351,2.351,0,0,1-1.35-1.422,1.4,1.4,0,0,1,.51-0.646,15.2,15.2,0,0,0,4.12-6.552,0.31,0.31,0,0,1,.28-0.3,16.675,16.675,0,0,1,1.96.583,0.371,0.371,0,0,1,.34.3,0.379,0.379,0,0,1-.3.28,0.755,0.755,0,0,0-.51.626,1.574,1.574,0,0,0-.03.214,0.32,0.32,0,0,0,.36.323h7.31c0.82,0,1.63-.064,2.45-0.064,0.51,0,.49.281,0.49,1.12,0,0.819.02,1.1-.49,1.1-0.82,0-1.63-.043-2.45-0.043h-2.44a0.5,0.5,0,0,0-.56.6v1.637Zm-5.26,2.65a0.6,0.6,0,0,0-.56.6v1.917a0.582,0.582,0,0,0,.56.6h2.5a0.57,0.57,0,0,0,.56-0.6v-1.917a0.584,0.584,0,0,0-.56-0.6h-2.5Zm23.53-4.719a0.1,0.1,0,0,0-.12.109,0.421,0.421,0,0,0,.26.193,0.86,0.86,0,0,1,.6.5,0.252,0.252,0,0,1-.28.215,0.6,0.6,0,0,0-.52.431c-0.06.108-.12,0.215-0.22,0.367a0.644,0.644,0,0,0-.14.408,0.588,0.588,0,0,0,.17.432,19.552,19.552,0,0,0,1.43,1.358,0.543,0.543,0,0,1,.25.344,2.414,2.414,0,0,1-1.29,1.379,5.488,5.488,0,0,1-1.57-1.422,0.511,0.511,0,0,0-.36-0.195,0.5,0.5,0,0,0-.37.195c-0.54.647-1.55,1.745-2.15,2.305a0.922,0.922,0,0,1-.55.3,2.271,2.271,0,0,1-1.32-1.227,1.057,1.057,0,0,1,.44-0.561,23.416,23.416,0,0,0,3.86-4.633,0.325,0.325,0,0,0,.07-0.216,0.283,0.283,0,0,0-.33-0.28h-0.8c-0.79,0-1.59.042-2.38,0.042-0.48,0-.48-0.235-0.48-1.033,0-.819-0.02-1.077.48-1.077,0.79,0,1.59.043,2.38,0.043h3.76a0.512,0.512,0,0,0,.57-0.6,10.5,10.5,0,0,0-.09-1.229c0-.064-0.01-0.194-0.01-0.258a0.3,0.3,0,0,1,.38-0.3c0.34,0,1.33.108,1.71,0.152,0.18,0.021.54,0.021,0.54,0.3a0.391,0.391,0,0,1-.24.279,0.779,0.779,0,0,0-.22.711v0.366a0.478,0.478,0,0,0,.55.583h3.84c0.79,0,1.57-.043,2.38-0.043,0.5,0,.48.258,0.48,1.077,0,0.8,0,1.033-.48,1.033-0.81,0-1.59-.042-2.38-0.042h-0.52a0.1,0.1,0,0,0-.12.109,0.329,0.329,0,0,0,.1.129,1.214,1.214,0,0,1,.76.538,0.3,0.3,0,0,1-.34.237,0.583,0.583,0,0,0-.5.409l-0.21.3a0.885,0.885,0,0,0-.16.431,0.726,0.726,0,0,0,.16.452,21.605,21.605,0,0,0,2.72,2.716,0.889,0.889,0,0,1,.37.5,2.6,2.6,0,0,1-1.33,1.292c-0.49,0-2.58-2.413-2.98-2.888a0.454,0.454,0,0,0-.35-0.193,0.444,0.444,0,0,0-.34.172c-0.62.69-1.08,1.163-1.75,1.811a0.3,0.3,0,0,0-.1.171,0.163,0.163,0,0,0,.18.152c0.16,0.021.48,0.043,0.48,0.3a0.414,0.414,0,0,1-.24.3,0.563,0.563,0,0,0-.2.454,0.476,0.476,0,0,0,.55.56h4.34c0.85,0,1.67-.043,2.5-0.043,0.5,0,.48.258,0.48,1.077,0,0.8.02,1.077-.48,1.077-0.83,0-1.65-.065-2.5-0.065h-4.36a0.492,0.492,0,0,0-.55.6v1.53c0,0.689.04,1.4,0.04,2.091,0,0.667-.2.711-1.05,0.711-0.82,0-1.15.02-1.15-.69,0-.646.05-1.358,0.05-2.112v-1.53a0.5,0.5,0,0,0-.57-0.6h-4.29c-0.82,0-1.67.065-2.49,0.065-0.51,0-.49-0.28-0.49-1.077,0-.819,0-1.077.49-1.077,0.82,0,1.67.043,2.49,0.043h4.29a0.475,0.475,0,0,0,.55-0.583c0-.15-0.03-0.323-0.04-0.5a0.978,0.978,0,0,0-.27-0.537,0.873,0.873,0,0,1-.28-0.475,1.152,1.152,0,0,1,.44-0.56,22.873,22.873,0,0,0,4.27-4.827,0.366,0.366,0,0,0,.06-0.194,0.275,0.275,0,0,0-.32-0.28h-5.19Zm30.25-3.793a0.263,0.263,0,0,1,.22-0.215c0.08,0,1.81.711,1.81,1.013a0.242,0.242,0,0,1-.26.194,0.51,0.51,0,0,0-.38.193c-0.18.388-.61,1.142-0.81,1.509a0.315,0.315,0,0,0-.06.193,0.26,0.26,0,0,0,.3.281c0.73,0,1.45-.043,2.18-0.043,0.44,0,.44.237,0.44,0.906,0,0.646,0,.883-0.44.883-0.85,0-1.67-.044-2.52-0.044h-0.78c-0.06,0-.06.044-0.02,0.086a0.392,0.392,0,0,1,.06.129,0.331,0.331,0,0,1-.28.238,0.551,0.551,0,0,0-.41.258c-0.08.194-.18,0.41-0.26,0.6a0.723,0.723,0,0,0-.06.194,0.337,0.337,0,0,0,.38.323h0.53c0.82,0,1.63-.042,2.45-0.042,0.47,0,.45.279,0.45,0.861,0,0.518.02,0.841-.43,0.841-0.82,0-1.65-.044-2.47-0.044h-3.43a0.337,0.337,0,0,0-.38.41v0.172a0.337,0.337,0,0,0,.38.41h2.4c0.76,0,1.53-.044,2.31-0.044,0.47,0,.47.238,0.47,0.842s0,0.839-.47.839c-0.78,0-1.55-.043-2.31-0.043h-2.4a0.329,0.329,0,0,0-.38.388v0.195a0.336,0.336,0,0,0,.38.408h4.51c0.85,0,1.7-.043,2.56-0.043,0.46,0,.46.216,0.46,0.862s0,0.884-.44.884c-0.87,0-1.73-.043-2.58-0.043h-2.57a0.173,0.173,0,0,0-.2.172,0.184,0.184,0,0,0,.07.152,18.947,18.947,0,0,0,5.02,2.585c0.46,0.15.66,0.258,0.66,0.517a1.949,1.949,0,0,1-1.12,1.423,12.029,12.029,0,0,1-2.4-.992,19.534,19.534,0,0,1-3.93-2.715,0.25,0.25,0,0,0-.2-0.087,0.268,0.268,0,0,0-.22.3v0.194c0,0.948.06,1.918,0.06,2.887,0,0.734-.22.754-1.15,0.754-0.88,0-1.12-.02-1.12-0.731,0-.971.06-1.94,0.06-2.91v-0.15c-0.02-.173-0.06-0.3-0.25-0.3a0.307,0.307,0,0,0-.18.064,21.572,21.572,0,0,1-4.65,3.039,7.926,7.926,0,0,1-1.67.667,2.04,2.04,0,0,1-1.11-1.485c0-.26.27-0.346,0.71-0.5a22.425,22.425,0,0,0,4.95-2.564,0.235,0.235,0,0,0,.08-0.173,0.162,0.162,0,0,0-.18-0.151h-2.44c-0.84,0-1.71.043-2.57,0.043-0.45,0-.45-0.259-0.45-0.884s0-.862.45-0.862c0.86,0,1.73.043,2.57,0.043h4.35a0.35,0.35,0,0,0,.39-0.408v-0.173a0.343,0.343,0,0,0-.39-0.41h-2.27c-0.77,0-1.55.043-2.32,0.043-0.48,0-.46-0.237-0.46-0.839,0-.625,0-0.842.46-0.842,0.77,0,1.55.044,2.32,0.044h2.27a0.343,0.343,0,0,0,.39-0.41v-0.172a0.343,0.343,0,0,0-.39-0.41h-3.24c-0.82,0-1.65.044-2.48,0.044-0.44,0-.42-0.346-0.42-0.841,0-.582-0.02-0.861.44-0.861,0.83,0,1.64.042,2.46,0.042h0.46a0.329,0.329,0,0,0,.37-0.323,0.671,0.671,0,0,0-.04-0.194c-0.12-.279-0.24-0.539-0.39-0.819a0.714,0.714,0,0,0-.74-0.5h-0.52c-0.85,0-1.67.044-2.52,0.044-0.44,0-.44-0.237-0.44-0.883s0-.906.44-0.906c0.66,0,1.33.043,1.99,0.043h0.22a0.251,0.251,0,0,0,.29-0.258,0.284,0.284,0,0,0-.05-0.194,17.838,17.838,0,0,0-1.22-1.768,0.827,0.827,0,0,1-.19-0.344,2.023,2.023,0,0,1,1.41-.84,0.635,0.635,0,0,1,.53.409q0.06,0.1.18,0.258a10.826,10.826,0,0,1,1.27,2,0.965,0.965,0,0,1-.65.561,0.165,0.165,0,0,0-.04.085,0.082,0.082,0,0,0,.1.087h0.99a0.5,0.5,0,0,0,.57-0.581V362.8c0-.69-0.03-1.38-0.08-2.069,0-.065-0.02-0.129-0.02-0.194a0.286,0.286,0,0,1,.34-0.323c0.28,0,1.37.129,1.69,0.171,0.2,0.023.48,0.044,0.48,0.3a0.4,0.4,0,0,1-.24.323,1.594,1.594,0,0,0-.24,1.186v1.272a0.487,0.487,0,0,0,.56.581h0.59a0.487,0.487,0,0,0,.56-0.581v-1.229a9.268,9.268,0,0,0-.08-1.487v-0.194a0.273,0.273,0,0,1,.34-0.3c0.26,0,1.33.108,1.63,0.152,0.18,0.021.53,0.042,0.53,0.3a0.432,0.432,0,0,1-.25.3,1.245,1.245,0,0,0-.22.992v1.466a0.484,0.484,0,0,0,.49.581,0.336,0.336,0,0,0,.28-0.193A27.76,27.76,0,0,0,2104.97,360.877Zm-4.17,6.7a0.747,0.747,0,0,0,.81-0.5c0.12-.258.24-0.538,0.38-0.819a0.419,0.419,0,0,0,.04-0.172,0.341,0.341,0,0,0-.38-0.345H2098a0.321,0.321,0,0,0-.36.323,0.664,0.664,0,0,0,.04.194c0.5,1.077.5,1.315,1.03,1.315h2.09Zm13.02,10.451c0.26,0,1.08.022,1.73,0.022h0.58c0.48,0,.57-0.086.57-0.6V362.473c0-.5-0.09-0.584-0.57-0.584h-0.58c-0.65,0-1.47.023-1.73,0.023-0.43,0-.49-0.108-0.49-0.625v-0.8c0-.5.08-0.626,0.51-0.626,0.14,0,1.06.044,1.71,0.044h2.39c0.51,0,.61.108,0.61,0.646v18.835c0,0.537-.1.646-0.61,0.646h-2.39c-0.65,0-1.57.043-1.71,0.043-0.43,0-.51-0.129-0.51-0.625v-0.8C2113.33,378.139,2113.39,378.03,2113.82,378.03Z" transform="translate(-1840.59 -359.875)"/>
</svg>
