<svg id="review-ttl-lead02.svg" xmlns="http://www.w3.org/2000/svg" width="272" height="52.38" viewBox="0 0 272 52.38">
  <defs>
    <style>
      .cls-1 {
        fill: #52a5dc;
        fill-rule: evenodd;
      }
    </style>
  </defs>
  <path id="シェイプ_13" data-name="シェイプ 13" class="cls-1" d="M579.183,6842.8a5.906,5.906,0,0,0,1.008-.05c0.142,0,.375-0.05.517-0.05a3,3,0,0,1,1.5,1.65,4.862,4.862,0,0,1-.518.95c-0.139.22-.279,0.46-0.373,0.63a35.491,35.491,0,0,1-3.047,4.62,0.655,0.655,0,0,0,.165,1.04,36.835,36.835,0,0,1,3.958,3.13c0.563,0.51,1.149,1.07,1.687,1.65a0.486,0.486,0,0,1,.165.34,3.419,3.419,0,0,1-1.781,1.95,0.776,0.776,0,0,1-.586-0.37,25.359,25.359,0,0,0-5.179-4.81,0.82,0.82,0,0,0-.537-0.21,1.113,1.113,0,0,0-.7.41,26.272,26.272,0,0,1-5.858,4.25,3.9,3.9,0,0,1-1.03.46c-0.492,0-1.571-1.63-1.571-2.06a0.575,0.575,0,0,1,.492-0.49,23.455,23.455,0,0,0,10.451-9.21,2.364,2.364,0,0,0,.4-0.82c0-.37-0.327-0.41-0.68-0.41h-4.849c-1.007,0-2.017.04-3.024,0.04-0.632,0-.584-0.36-0.584-1.48,0-.85-0.025-1.21.561-1.21,1.007,0,2.015.05,3.047,0.05h6.371Zm24.007,0.75a6.5,6.5,0,0,0,1.428-.12,1,1,0,0,1,.236-0.05,2.642,2.642,0,0,1,1.218,1.65,0.726,0.726,0,0,1-.142.37,5.443,5.443,0,0,0-.586,1.19,44.1,44.1,0,0,1-2.225,4.51,0.892,0.892,0,0,0-.163.49,0.79,0.79,0,0,0,.421.63,4.273,4.273,0,0,1,1.312,1.26,3.215,3.215,0,0,1-1.5,1.85,0.549,0.549,0,0,1-.353-0.19c-0.327-.3-0.632-0.54-0.959-0.83a0.806,0.806,0,0,0-.515-0.24,1.275,1.275,0,0,0-.8.58,18.545,18.545,0,0,1-5.107,4.1,12.117,12.117,0,0,1-2.837,1.24c-0.609,0-1.687-1.55-1.687-1.89,0-.29.4-0.37,1.007-0.56a16.32,16.32,0,0,0,6.7-4.37,0.964,0.964,0,0,0,.353-0.61,0.6,0.6,0,0,0-.282-0.51c-0.538-.36-1.756-1.02-2.342-1.31a1,1,0,0,1-.7-0.53c0-.34.914-1.83,1.429-1.83a17.237,17.237,0,0,1,3.022,1.58,0.9,0.9,0,0,0,.446.15c0.444,0,.655-0.46,1.289-1.75a3.125,3.125,0,0,1,.14-0.34,7.877,7.877,0,0,0,.609-1.6c0-.51-0.609-0.49-0.962-0.49h-4.473a1.067,1.067,0,0,0-1.033.63,34.742,34.742,0,0,1-3.045,3.74,1.215,1.215,0,0,1-.751.46,3.452,3.452,0,0,1-1.943-1.43,0.7,0.7,0,0,1,.35-0.46,22.336,22.336,0,0,0,6.117-8.72,0.742,0.742,0,0,1,.422-0.61,5.39,5.39,0,0,1,1.311.59,4.47,4.47,0,0,1,1.383.82,0.3,0.3,0,0,1-.236.27,1.266,1.266,0,0,0-.7.8c-0.091.17-.21,0.39-0.373,0.66a1.292,1.292,0,0,0-.187.51,0.393,0.393,0,0,0,.421.36h4.288Zm23.654,4.86c1.078,0,2.6-.07,2.9-0.07,0.632,0,.657.19,0.657,1.53,0,0.77-.025,1.23-0.634,1.23-0.982,0-1.967-.04-2.928-0.04H616.065c-0.959,0-1.943.04-2.928,0.04-0.609,0-.632-0.46-0.632-1.21,0-1.36.046-1.55,0.655-1.55,0.305,0,1.921.07,2.905,0.07h10.779Zm21.847-5.71c0.492,0,1.642,0,2.109-.05,0.094,0,.352-0.05.423-0.05a2.974,2.974,0,0,1,1.569,1.56c0,0.24-.211.51-0.4,1.55-0.8,4.69-2.459,7.92-6.254,10.69a21.82,21.82,0,0,1-4.5,2.48,2.5,2.5,0,0,1-.774.21c-0.563,0-1.406-1.62-1.406-2.01a0.418,0.418,0,0,1,.422-0.39,16.321,16.321,0,0,0,5.833-3.21,11.373,11.373,0,0,0,3.844-7.09,4.926,4.926,0,0,0,.046-0.58c0-.46-0.4-0.51-0.82-0.51h-8.317c-0.985,0-1.946.05-2.928,0.05-0.728,0-.7-0.22-0.7-1.31,0-1.12-.025-1.39.632-1.39,1.007,0,2.014.05,3.022,0.05h8.2Zm23.047,3.72c0.538,0,1.617,0,2.109-.05a2.017,2.017,0,0,1,.421-0.05,2.85,2.85,0,0,1,1.664,1.6,6.606,6.606,0,0,1-.3,1,17.618,17.618,0,0,1-1.36,3.28,20.113,20.113,0,0,1-4.849,5.73c-0.657.56-3.186,2.43-3.915,2.43a3.019,3.019,0,0,1-1.616-1.8,1.332,1.332,0,0,1,.822-0.63,17.122,17.122,0,0,0,7.191-6.9,6.185,6.185,0,0,0,.634-1.58c0-.58-0.634-0.53-1.007-0.53h-8.716c-0.984,0-1.969.05-2.976,0.05-0.657,0-.657-0.25-0.657-1.19,0-1.24.023-1.41,0.68-1.41,0.984,0,1.992.05,3,.05h8.88Zm-1.57-5.25c0.961,0,2.157-.07,2.766-0.07,0.586,0,.631.27,0.631,1.48,0,0.83,0,1.14-.631,1.14-0.939,0-1.853-.05-2.766-0.05h-5.74c-0.913,0-1.829.05-2.742,0.05-0.655,0-.655-0.29-0.655-1.19,0-1.14.046-1.43,0.632-1.43,0.657,0,1.852.07,2.765,0.07h5.74Zm22.34,15.37c0,1.07.048,2.14,0.048,3.19,0,0.65-.305.72-1.172,0.72-1.289,0-1.523-.07-1.523-0.7,0-1.04.046-2.09,0.046-3.13v-6.61c0-.14.071-0.68-0.373-0.68a2.538,2.538,0,0,0-.916.56c-0.7.53-4.428,3.11-5.037,3.11a4.024,4.024,0,0,1-1.827-1.94,0.492,0.492,0,0,1,.376-0.42,33.546,33.546,0,0,0,9.208-6.43,20.48,20.48,0,0,0,3.187-4.11,0.616,0.616,0,0,1,.373-0.36,8.741,8.741,0,0,1,1.593.99,2.059,2.059,0,0,1,.914.88,0.283,0.283,0,0,1-.234.24,1.278,1.278,0,0,0-.913.58,47.16,47.16,0,0,1-3.21,3.65,1.293,1.293,0,0,0-.54,1.09v9.37Zm17.376-9.81a0.734,0.734,0,0,0,.563-0.85l-0.352-1.8c-0.188-.89-0.351-1.94-0.609-2.81a1.9,1.9,0,0,1-.117-0.49c0-.27.515-0.29,0.962-0.31,0.421-.03,1.169-0.1,1.568-0.1a0.413,0.413,0,0,1,.517.36,0.754,0.754,0,0,1-.094.32,0.865,0.865,0,0,0-.094.41c0,0.32.305,1.78,0.373,2.16l0.33,1.73a0.712,0.712,0,0,0,.82.58l5.247-1.09c0.728-.15,2.322-0.59,2.555-0.59a3.455,3.455,0,0,1,1.85,1.83,1.053,1.053,0,0,1-.373.63,42.759,42.759,0,0,0-3.258,4.66c-0.421.66-.82,1.41-1.312,1.41-0.4,0-1.944-.66-1.944-1.14a1.192,1.192,0,0,1,.351-0.58,25.647,25.647,0,0,0,2.3-3.33,0.285,0.285,0,0,0-.282-0.27,3.692,3.692,0,0,0-.561.1l-4.054.85a0.721,0.721,0,0,0-.538.87l1.335,6.71c0.117,0.6.725,3.23,0.725,3.59a0.593,0.593,0,0,1-.35.54,11.506,11.506,0,0,1-1.71.33c-0.469,0-.54-0.48-0.751-1.77-0.094-.56-0.233-1.26-0.4-2.14l-1.335-6.75a0.72,0.72,0,0,0-.845-0.56l-2.507.54c-0.35.07-3.093,0.68-3.186,0.68a0.51,0.51,0,0,1-.445-0.41,10.734,10.734,0,0,1-.327-1.7c0-.47.188-0.49,1.873-0.81,0.446-.07.984-0.17,1.664-0.31Zm33.569,1.68c1.079,0,2.6-.07,2.906-0.07,0.631,0,.656.19,0.656,1.53,0,0.77-.025,1.23-0.634,1.23-0.982,0-1.966-.04-2.928-0.04H732.675c-0.959,0-1.944.04-2.928,0.04-0.609,0-.632-0.46-0.632-1.21,0-1.36.046-1.55,0.655-1.55,0.3,0,1.92.07,2.9,0.07h10.778Zm25.98-5.25a0.278,0.278,0,0,0,.234-0.17c0.515-1.14,1.055-2.3,1.5-3.49,0.094-.27.14-0.44,0.3-0.44,0.048,0,2.037.73,2.037,1.09a0.247,0.247,0,0,1-.279.24,0.5,0.5,0,0,0-.424.32c-0.56,1.16-1.124,2.31-1.779,3.45a0.561,0.561,0,0,0-.07.29,0.551,0.551,0,0,0,.164.36c0.069,0.08.14,0.15,0.234,0.25a0.463,0.463,0,0,0,.375.17,0.441,0.441,0,0,0,.374-0.29c0.446-.83.8-1.68,1.2-2.51a0.435,0.435,0,0,1,.3-0.38,6.048,6.048,0,0,1,1.2.58c0.188,0.12.376,0.19,0.447,0.24a0.884,0.884,0,0,1,.515.49,0.288,0.288,0,0,1-.305.24,0.4,0.4,0,0,0-.421.24c-0.913,1.78-1.875,3.48-2.9,5.15a0.453,0.453,0,0,0-.048.2,0.3,0.3,0,0,0,.352.29l0.749-.08a0.463,0.463,0,0,0,.446-0.46,0.951,0.951,0,0,0-.071-0.24,5.591,5.591,0,0,1-.327-0.92c0-.37.936-0.66,1.241-0.66,0.446,0,.609.7,1.172,2.31a16.069,16.069,0,0,1,.609,2.09c0,0.43-.891.68-1.241,0.68a0.465,0.465,0,0,1-.469-0.42,0.579,0.579,0,0,0-.54-0.43c-0.069,0-.117.02-0.234,0.02a0.65,0.65,0,0,0-.609.78v4.78c0,1.05.046,2.09,0.046,3.14,0,0.77-.186.8-1.053,0.8-0.82,0-1.056-.03-1.056-0.73,0-1.07.048-2.14,0.048-3.21v-4.51a0.5,0.5,0,0,0-.515-0.59h-0.094c-0.421.05-.844,0.1-1.243,0.12a0.4,0.4,0,0,0-.256.25,0.387,0.387,0,0,1-.33.24c-0.256,0-.35-0.41-0.515-1.12-0.046-.26-0.117-0.58-0.211-0.94a1.391,1.391,0,0,1-.071-0.32c0-.27.213-0.29,0.635-0.29h0.3a0.98,0.98,0,0,0,.937-0.56c0.235-.39.469-0.78,0.679-1.17a0.781,0.781,0,0,0-.139-0.99,25.6,25.6,0,0,0-2.228-2.11,0.493,0.493,0,0,1-.233-0.37c0-.34.657-1.68,1.03-1.68a0.516,0.516,0,0,1,.353.2A0.29,0.29,0,0,0,769.433,6843.16Zm0.82,10.08c0.35,0.07.563,0.12,0.563,0.37a0.4,0.4,0,0,1-.282.26,0.538,0.538,0,0,0-.187.44c-0.094.87-.609,3.96-0.774,4.81a0.6,0.6,0,0,1-.47.56c-0.185,0-1.24-.29-1.24-0.71,0-.12.094-0.51,0.116-0.65a42.042,42.042,0,0,0,.751-4.86c0-.17-0.025-0.44.257-0.44A7.452,7.452,0,0,1,770.253,6853.24Zm5.506,4.32c-0.046,0-.094.03-0.14,0.03a1.663,1.663,0,0,1-.563.14c-0.328,0-.376-0.26-0.515-0.89-0.048-.15-0.071-0.3-0.117-0.47-0.211-.85-0.4-1.72-0.68-2.55a1.321,1.321,0,0,1-.117-0.41c0-.36.82-0.53,1.1-0.53a0.482,0.482,0,0,1,.493.31,30.325,30.325,0,0,1,.89,3.11,0.142,0.142,0,0,0,.28,0c0.116-.7.187-1.41,0.258-2.14,0.023-.34,0-0.51.3-0.51,0.165,0,1.266.22,1.476,0.27a0.705,0.705,0,0,1,.586.32,0.369,0.369,0,0,1-.258.29,0.448,0.448,0,0,0-.282.48,22.922,22.922,0,0,1-.842,4.28,0.426,0.426,0,0,1-.422.36c-0.281,0-1.5-.19-1.5-0.63,0-.12.256-0.9,0.3-1.09A0.274,0.274,0,0,0,775.759,6857.56Zm5.224-16.12a0.529,0.529,0,0,0-.467.43c-0.424.86-2.532,4.76-3.375,4.76a2.381,2.381,0,0,1-1.476-1.23,0.885,0.885,0,0,1,.327-0.54,20.114,20.114,0,0,0,2.86-4.56,0.487,0.487,0,0,1,.375-0.39,4.127,4.127,0,0,1,1.124.46,1.547,1.547,0,0,1,.962.7A0.409,0.409,0,0,1,780.983,6841.44Zm4.288,9.01h-0.188c-2.413.29-4.8,0.58-7.216,0.75a0.306,0.306,0,0,0-.281.22,0.4,0.4,0,0,1-.351.27c-0.258,0-.329-0.32-0.446-0.73-0.069-.24-0.467-1.48-0.467-1.65,0-.27.327-0.29,0.726-0.29a8.123,8.123,0,0,0,1.1-.05,0.839,0.839,0,0,0,.842-0.61c0.68-1.55,1.15-2.92,1.688-4.52a0.435,0.435,0,0,1,.329-0.41,16.706,16.706,0,0,1,1.8.61,0.7,0.7,0,0,1,.515.41c0,0.24-.187.24-0.352,0.29a0.3,0.3,0,0,0-.305.22c-0.469,1.09-.89,2.16-1.334,3.25a0.706,0.706,0,0,0-.048.2,0.391,0.391,0,0,0,.4.36c0.281,0,1.406-.09,2.156-0.19a0.324,0.324,0,0,0,.328-0.32,1.09,1.09,0,0,0-.376-0.65,2,2,0,0,1-.467-0.78,2.131,2.131,0,0,1,1.406-1.02,0.549,0.549,0,0,1,.421.27c0.515,0.6,1.056,1.38,1.523,2.04a15.663,15.663,0,0,1,1.522,2.6,2.184,2.184,0,0,1-1.474,1.09,0.686,0.686,0,0,1-.541-0.54c-0.068-.12-0.116-0.21-0.187-0.36A0.8,0.8,0,0,0,785.271,6850.45Zm-2.086,7.94c0.985,0,1.033-.27,1.218-1.68a0.477,0.477,0,0,1,.518-0.53c0.444,0,1.522.15,1.522,0.78a7.3,7.3,0,0,1-.845,2.98,2.2,2.2,0,0,1-2.108.73h-1.8c-1.076,0-2.319-.17-2.319-1.6,0-.36.048-0.73,0.048-1.07v-3.06c0-.53-0.025-1.04-0.071-1.55,0-.08-0.023-0.15-0.023-0.22,0-.24.162-0.27,0.35-0.27,0.328,0,1.548.07,1.9,0.1,0.142,0.02.4,0.05,0.4,0.24a0.316,0.316,0,0,1-.187.27c-0.328.24-.328,0.58-0.328,1.43v2.72c0,0.73.282,0.73,0.868,0.73h0.865Zm0.447-3.06c-0.282,0-.376-0.22-0.563-0.68a18.007,18.007,0,0,0-1.079-2.14,0.886,0.886,0,0,1-.162-0.41,1.531,1.531,0,0,1,1.241-.8,0.943,0.943,0,0,1,.68.7,13.121,13.121,0,0,1,1.172,2.46C784.921,6855.01,783.842,6855.33,783.632,6855.33Zm3.864-8.72c-0.444,0-2.083-2.21-2.387-2.67a14.167,14.167,0,0,1-1.642-3.11c0-.41,1.124-0.97,1.571-0.97,0.375,0,.444.27,0.654,0.73a11.889,11.889,0,0,0,2.86,3.96,1.294,1.294,0,0,1,.469.63A2.276,2.276,0,0,1,787.5,6846.61Zm0.305,12.02a0.537,0.537,0,0,1-.467-0.53,25.672,25.672,0,0,0-1.571-3.77,1.049,1.049,0,0,1-.165-0.46,1.6,1.6,0,0,1,1.267-.87,0.529,0.529,0,0,1,.469.34c0.3,0.56.632,1.24,0.89,1.82a21.636,21.636,0,0,1,.96,2.6C789.184,6858.22,788.176,6858.63,787.8,6858.63Zm10.652-10.61a0.249,0.249,0,0,0-.233-0.29,0.223,0.223,0,0,0-.188.07c-0.561.49-3.022,2.48-3.585,2.48a2.522,2.522,0,0,1-1.474-1.7,1.007,1.007,0,0,1,.631-0.61,24.136,24.136,0,0,0,6.773-5.85,18.455,18.455,0,0,0,1.9-2.8,0.426,0.426,0,0,1,.373-0.34c0.3,0,1.875.42,2.274,0.52a0.477,0.477,0,0,1,.469.36,0.388,0.388,0,0,1-.281.34,0.213,0.213,0,0,0-.117.17,0.269,0.269,0,0,0,.045.12,24.256,24.256,0,0,0,8.32,7.33,0.884,0.884,0,0,1,.655.61c0,0.44-.7,1.92-1.147,1.92-0.517,0-3.517-2.23-4.078-2.69a0.4,0.4,0,0,0-.281-0.13c-0.211,0-.234.22-0.234,0.39v0.46c0,0.56-.025.98-0.469,0.98-0.751,0-1.522-.05-2.273-0.05H801.2c-0.774,0-1.522.05-2.273,0.05-0.493,0-.47-0.54-0.47-1.07v-0.27Zm1.266,11.49a0.453,0.453,0,0,0-.538.53v0.24c0,0.66-.352.64-1.266,0.64-0.89,0-1.218.02-1.218-.61,0-.1.046-1.48,0.046-1.77v-4.35c0-.49-0.046-0.97-0.046-1.43,0-1.15.655-1.36,1.639-1.36,0.564,0,1.15.04,1.736,0.04h6.582c0.586,0,1.172-.04,1.758-0.04,0.962,0,1.616.21,1.616,1.33,0,0.49-.022.97-0.022,1.46v4.39c0,0.59.045,1.36,0.045,1.75,0,0.63-.327.63-1.241,0.63-0.936,0-1.265,0-1.265-.6v-0.32a0.454,0.454,0,0,0-.539-0.53h-7.287Zm7.216-2.16a0.688,0.688,0,0,0,.658-0.68v-2.29a0.674,0.674,0,0,0-.658-0.68H799.79a0.674,0.674,0,0,0-.657.68v2.29a0.688,0.688,0,0,0,.657.68h7.145Zm-3.559-15.06a0.488,0.488,0,0,0-.376.22,42.038,42.038,0,0,1-3.631,4.05,0.262,0.262,0,0,0-.094.22,0.247,0.247,0,0,0,.28.24c0.54,0.03,1.078.05,1.641,0.05h4.334c1.522,0,1.9.03,1.9-.34a1.493,1.493,0,0,0-.586-0.75c-0.094-.07-0.163-0.15-0.257-0.22a25.079,25.079,0,0,1-2.836-3.25A0.493,0.493,0,0,0,803.376,6842.29Zm28.713,4.32a0.561,0.561,0,0,0,.657-0.66c0-1.38-.023-2.76-0.023-4.15v-0.82c0-.51-0.048-1.12-0.048-1.32a0.371,0.371,0,0,1,.446-0.41c0.234,0,1.406.12,1.711,0.15,0.35,0.05.632,0.05,0.632,0.34a0.493,0.493,0,0,1-.351.39c-0.236.12-.236,0.26-0.236,0.72v5.13a0.56,0.56,0,0,0,.657.63H835.6c0.8,0,1.619-.05,2.438-0.05,0.538,0,.515.32,0.515,1.02,0,0.73.023,1.05-.515,1.05-0.819,0-1.641-.08-2.461-0.05a0.553,0.553,0,0,0-.632.61c0.046,0.85.094,1.7,0.165,2.55a0.226,0.226,0,0,0,.186.21,0.229,0.229,0,0,0,.187-0.14,18.112,18.112,0,0,0,.985-2.19,0.386,0.386,0,0,1,.327-0.34,3.292,3.292,0,0,1,1.289.73,1.074,1.074,0,0,1,.657.63,0.435,0.435,0,0,1-.4.32,0.818,0.818,0,0,0-.538.61,23.821,23.821,0,0,1-1.852,3.32,1.172,1.172,0,0,0-.259.73c0,0.41.586,2.53,0.916,2.53,0.444,0,.632-2.14.677-2.55a0.367,0.367,0,0,1,.447-0.39,1.22,1.22,0,0,1,1.263.9,16.545,16.545,0,0,1-.583,2.89c-0.33,1.02-.68,2.01-1.923,2.01-1.429,0-2.061-1.62-2.436-2.81a0.359,0.359,0,0,0-.632-0.17c-0.424.43-2.555,2.47-3.024,2.47a2.021,2.021,0,0,1-1.241-1.36,1.116,1.116,0,0,1,.586-0.68,20.28,20.28,0,0,0,3.232-2.98,1.164,1.164,0,0,0,.3-0.78,1.321,1.321,0,0,0-.023-0.29c-0.21-1.75-.4-3.4-0.469-5.2a0.558,0.558,0,0,0-.655-0.63h-5.062c-0.655,0-1.335-.03-1.992.02a0.58,0.58,0,0,0-.631.68v7.58c0,1.12.045,2.21,0.045,3.33,0,0.77-.21.77-1.1,0.77-0.771,0-1.076,0-1.076-.68,0-1.14.046-2.28,0.046-3.42v-0.24a0.459,0.459,0,0,0-.444-0.56c-0.071,0-.142.02-0.188,0.02-0.913.25-1.8,0.42-2.7,0.61a0.489,0.489,0,0,0-.329.32,0.371,0.371,0,0,1-.35.31c-0.234,0-.282-0.22-0.422-0.73a15.569,15.569,0,0,1-.446-1.77c0-.29.375-0.29,0.868-0.34a0.531,0.531,0,0,0,.515-0.63v-11.2a0.385,0.385,0,0,0-.422-0.44c-0.538-.02-0.563-0.16-0.563-1.14,0-.85-0.023-1.14.54-1.14,0.422,0,1.1.05,1.688,0.05H823.3c0.612,0,1.266-.05,1.688-0.05,0.586,0,.515.37,0.54,0.92,0.023,0.61.373,0.66,0.913,0.66h0.444a0.55,0.55,0,0,0,.609-0.63c-0.023-.37-0.045-0.73-0.093-1.09,0-.08-0.023-0.17-0.023-0.25,0-.26.21-0.29,0.421-0.29,0.446,0,1.289.07,1.758,0.12,0.211,0.03.632,0.03,0.632,0.29a0.442,0.442,0,0,1-.279.32,0.929,0.929,0,0,0-.259.9,0.55,0.55,0,0,0,.632.63c0.375,0,1.078-.02,1.383-0.02,0.421,0,.421.21,0.421,0.94s0,0.98-.421.98c-0.351,0-.726-0.03-1.079-0.05a0.127,0.127,0,0,0-.117.12,0.1,0.1,0,0,0,.072.09c0.116,0.05.21,0.1,0.327,0.15a1.456,1.456,0,0,1,.891.58c0,0.22-.211.22-0.376,0.25a0.338,0.338,0,0,0-.256.19c-0.211.41-.353,0.88-0.564,1.29a0.716,0.716,0,0,0-.022.22,0.358,0.358,0,0,0,.421.36h1.124Zm-11.362-2.53a0.629,0.629,0,0,0,.654.66h0.328a0.631,0.631,0,0,0,.657-0.66v-1.23a0.673,0.673,0,0,0-.657-0.68h-0.328a0.67,0.67,0,0,0-.654.68v1.23Zm0,4.62a0.635,0.635,0,0,0,.654.66h0.328a0.637,0.637,0,0,0,.657-0.66v-1.31a0.637,0.637,0,0,0-.657-0.66h-0.328a0.635,0.635,0,0,0-.654.66v1.31Zm0,4.81a0.486,0.486,0,0,0,.492.58c0.046,0,.094-0.02.117-0.02l0.421-.08a0.633,0.633,0,0,0,.609-0.77v-1.27a0.557,0.557,0,0,0-.657-0.65h-0.328a0.555,0.555,0,0,0-.654.65v1.56Zm3.725-7.6a0.58,0.58,0,0,0,.631.68c0.609,0.04,1.383.02,1.992,0.02h0.914a0.8,0.8,0,0,0,.89-0.56,17.176,17.176,0,0,0,.68-2.16c0-.05.023-0.1,0.023-0.14a0.385,0.385,0,0,0-.421-0.39h-1.875c-0.609,0-1.218.05-1.733,0.05-0.4,0-.4-0.22-0.422-0.78a0.347,0.347,0,0,0-.258-0.39,0.528,0.528,0,0,0-.421.63v3.04Zm6.911,9.42c0,0.34.023,0.7,0.023,1.04a0.8,0.8,0,0,1-.959.9c-0.353,0-.728-0.02-1.1-0.02h-1.079a0.571,0.571,0,0,0-.68.61c-0.023.55-.023,0.55-1.078,0.55-0.632,0-.936.03-0.936-0.46,0-.43.023-0.87,0.023-1.31v-4.78c0-.37-0.023-0.73-0.023-1.1a0.8,0.8,0,0,1,.936-0.92c0.424,0,.845.05,1.266,0.05h1.429c0.4,0,.8-0.05,1.218-0.05a0.812,0.812,0,0,1,.984.9c0,0.39-.023.75-0.023,1.12v3.47Zm-4.732-8.91c-0.281,0-.421-0.44-0.657-1.17a10.033,10.033,0,0,1-.376-1.14c0-.36.916-0.56,1.2-0.56s0.4,0.15.728,1.12a7.434,7.434,0,0,1,.3,1.09A1.283,1.283,0,0,1,826.631,6846.42Zm1.474,5.27a0.545,0.545,0,0,0-.561.56,0.555,0.555,0,0,0,.561.55h0.868a0.557,0.557,0,0,0,.563-0.55,0.547,0.547,0,0,0-.563-0.56h-0.868Zm0,2.55a0.549,0.549,0,0,0-.561.58v0.05a0.549,0.549,0,0,0,.561.58h0.868a0.55,0.55,0,0,0,.563-0.58v-0.05a0.55,0.55,0,0,0-.563-0.58h-0.868Zm9.842-9.3a3.611,3.611,0,0,1-.819.24,0.561,0.561,0,0,1-.447-0.51,26.4,26.4,0,0,0-1.334-3.04,0.686,0.686,0,0,1-.094-0.31c0-.44,1.147-0.73,1.36-0.73a0.5,0.5,0,0,1,.4.24,13.617,13.617,0,0,1,.82,1.63,14.585,14.585,0,0,1,.68,1.89A0.647,0.647,0,0,1,837.947,6844.94Z" transform="translate(-567 -6808.62)"/>
  <path id="シェイプ_12" data-name="シェイプ 12" class="cls-1" d="M571.1,6823.87c0,0.39-.062.49-0.395,0.49-0.11,0-.838-0.04-1.343-0.04H567.48c-0.395,0-.475-0.08-0.475-0.5v-14.65c0-.41.08-0.5,0.475-0.5h1.884c0.5,0,1.233-.03,1.343-0.03,0.333,0,.395.1,0.395,0.48v0.62c0,0.41-.046.49-0.38,0.49-0.2,0-.853-0.02-1.358-0.02h-0.459c-0.382,0-.444.07-0.444,0.46v11.64c0,0.41.062,0.47,0.444,0.47h0.459c0.5,0,1.153-.01,1.358-0.01,0.334,0,.38.08,0.38,0.48v0.62Zm8.3-2.86c0.807,0,2.294-.04,2.4-0.04,0.334,0,.4.1,0.4,0.49v0.79c0,0.38-.064.48-0.4,0.48-0.11,0-1.6-.03-2.4-0.03h-2.056c-0.807,0-2.294.03-2.4,0.03-0.333,0-.395-0.1-0.395-0.48v-0.31a0.806,0.806,0,0,1,.379-0.82,9.051,9.051,0,0,0,.806-0.7c2.847-2.65,4.493-4.32,4.493-5.97a1.784,1.784,0,0,0-2.01-1.84,3.107,3.107,0,0,0-2.309,1.11,0.507,0.507,0,0,1-.331.23,0.589,0.589,0,0,1-.318-0.23l-0.633-.72a0.658,0.658,0,0,1-.19-0.36,0.61,0.61,0,0,1,.223-0.37,5.262,5.262,0,0,1,3.717-1.52c2.4,0,3.75,1.51,3.75,3.43,0,2.37-1.789,4.26-4.209,6.49a0.448,0.448,0,0,0-.174.24c0,0.06.1,0.1,0.285,0.1H579.4Zm16.07-4.5c0,3.99-2.168,6.32-4.811,6.32-2.53,0-4.54-2.02-4.54-5.85,0-3.43,1.661-6.21,4.778-6.21C593.379,6810.77,595.468,6812.69,595.468,6816.51Zm-7.5.52c0,2.62,1.092,4.01,2.689,4.01,1.694,0,2.96-1.73,2.96-4.46,0-2.63-1.156-3.94-2.722-3.94C588.886,6812.64,587.968,6814.67,587.968,6817.03Zm15.811,3.98c0.808,0,2.295-.04,2.4-0.04,0.333,0,.4.1,0.4,0.49v0.79c0,0.38-.064.48-0.4,0.48-0.11,0-1.6-.03-2.4-0.03h-2.055c-0.808,0-2.3.03-2.405,0.03-0.333,0-.395-0.1-0.395-0.48v-0.31a0.806,0.806,0,0,1,.38-0.82,9.183,9.183,0,0,0,.805-0.7c2.848-2.65,4.493-4.32,4.493-5.97a1.783,1.783,0,0,0-2.009-1.84,3.107,3.107,0,0,0-2.31,1.11,0.507,0.507,0,0,1-.331.23,0.584,0.584,0,0,1-.317-0.23L599,6813a0.651,0.651,0,0,1-.19-0.36,0.6,0.6,0,0,1,.223-0.37,5.26,5.26,0,0,1,3.717-1.52c2.4,0,3.75,1.51,3.75,3.43,0,2.37-1.789,4.26-4.209,6.49a0.442,0.442,0,0,0-.174.24c0,0.06.094,0.1,0.284,0.1h1.376Zm16.07-4.5c0,3.99-2.168,6.32-4.811,6.32-2.53,0-4.539-2.02-4.539-5.85,0-3.43,1.661-6.21,4.778-6.21C617.76,6810.77,619.849,6812.69,619.849,6816.51Zm-7.5.52c0,2.62,1.092,4.01,2.689,4.01,1.694,0,2.96-1.73,2.96-4.46,0-2.63-1.155-3.94-2.721-3.94C613.267,6812.64,612.349,6814.67,612.349,6817.03Zm19.833-3.05a0.4,0.4,0,0,0,.441.47h1.267c0.553,0,1.092-.05,1.645-0.05,0.395,0,.395.19,0.395,0.86,0,0.65-.015.82-0.395,0.82-0.553,0-1.092-.03-1.645-0.03h-1.267a0.382,0.382,0,0,0-.441.46v1.5a0.389,0.389,0,0,0,.441.47h2.612c0.664,0,1.328-.04,1.992-0.04,0.4,0,.382.2,0.382,0.84s0.015,0.84-.382.84c-0.664,0-1.328-.04-1.992-0.04h-2.612a0.389,0.389,0,0,0-.441.47v0.47c0,0.82.046,1.63,0.046,2.43,0,0.56-.2.56-0.917,0.56-0.7,0-.9,0-0.9-0.54,0-.82.048-1.63,0.048-2.45v-0.47a0.389,0.389,0,0,0-.443-0.47H626.09c-0.664,0-1.328.04-1.992,0.04-0.4,0-.38-0.19-0.38-0.82,0-.67-0.017-0.86.38-0.86,0.5,0,1.028.05,1.551,0.04a0.382,0.382,0,0,0,.394-0.47v-1.6c0-.41-0.015-0.82-0.015-1.24a0.638,0.638,0,0,1,.774-0.75c0.38,0,.759.03,1.141,0.03h2.071a0.4,0.4,0,0,0,.443-0.47v-1.27a0.386,0.386,0,0,0-.443-0.47h-2.089a0.673,0.673,0,0,0-.664.35,16.4,16.4,0,0,1-2.166,2.77,0.99,0.99,0,0,1-.523.37,1.833,1.833,0,0,1-1.061-1.11,1.072,1.072,0,0,1,.4-0.5,11.883,11.883,0,0,0,3.243-5.1,0.238,0.238,0,0,1,.22-0.23,14.434,14.434,0,0,1,1.535.45,0.287,0.287,0,0,1,.27.23,0.294,0.294,0,0,1-.239.22,0.59,0.59,0,0,0-.394.49,0.635,0.635,0,0,0-.031.17,0.254,0.254,0,0,0,.284.25h5.742c0.649,0,1.282-.05,1.93-0.05,0.4,0,.38.22,0.38,0.87s0.015,0.85-.38.85c-0.648,0-1.281-.03-1.93-0.03h-1.915a0.386,0.386,0,0,0-.441.47v1.27Zm-4.129,2.07a0.46,0.46,0,0,0-.444.46v1.5a0.462,0.462,0,0,0,.444.47h1.961a0.452,0.452,0,0,0,.443-0.47v-1.5a0.449,0.449,0,0,0-.443-0.46h-1.961Zm18.483-3.68a0.084,0.084,0,0,0-.095.09,0.33,0.33,0,0,0,.207.15,0.67,0.67,0,0,1,.475.39,0.193,0.193,0,0,1-.223.16,0.488,0.488,0,0,0-.411.34c-0.048.08-.094,0.16-0.174,0.28a0.556,0.556,0,0,0-.11.32,0.474,0.474,0,0,0,.141.34,13.666,13.666,0,0,0,1.123,1.05,0.434,0.434,0,0,1,.192.27,1.883,1.883,0,0,1-1.013,1.07,4.388,4.388,0,0,1-1.235-1.1,0.4,0.4,0,0,0-.284-0.16,0.37,0.37,0,0,0-.285.16c-0.428.5-1.218,1.35-1.692,1.79a0.737,0.737,0,0,1-.428.23,1.768,1.768,0,0,1-1.043-.95,0.868,0.868,0,0,1,.346-0.44,18.342,18.342,0,0,0,3.038-3.6,0.286,0.286,0,0,0,.048-0.17,0.218,0.218,0,0,0-.254-0.22h-0.633c-0.615,0-1.248.04-1.866,0.04-0.379,0-.379-0.19-0.379-0.81s-0.016-.83.379-0.83c0.618,0,1.251.03,1.866,0.03h2.958a0.4,0.4,0,0,0,.444-0.47c0-.32-0.031-0.62-0.064-0.96,0-.05-0.016-0.15-0.016-0.2,0-.2.144-0.23,0.3-0.23,0.269,0,1.043.08,1.343,0.12,0.143,0.01.428,0.01,0.428,0.23a0.323,0.323,0,0,1-.19.22,0.593,0.593,0,0,0-.174.55v0.29a0.372,0.372,0,0,0,.428.45h3.02c0.617,0,1.235-.03,1.868-0.03,0.4,0,.379.2,0.379,0.83s0,0.81-.379.81c-0.633,0-1.251-.04-1.868-0.04h-0.411a0.084,0.084,0,0,0-.095.09,0.308,0.308,0,0,0,.08.1,0.959,0.959,0,0,1,.6.42,0.23,0.23,0,0,1-.269.18,0.477,0.477,0,0,0-.395.32c-0.046.07-.1,0.13-0.159,0.24a0.619,0.619,0,0,0-.126.33,0.562,0.562,0,0,0,.126.35,15.954,15.954,0,0,0,2.137,2.11,0.715,0.715,0,0,1,.285.39,2.024,2.024,0,0,1-1.046,1.01c-0.379,0-2.025-1.88-2.34-2.25a0.332,0.332,0,0,0-.269-0.15,0.364,0.364,0,0,0-.269.13c-0.49.54-.854,0.91-1.377,1.41a0.256,0.256,0,0,0-.079.13,0.126,0.126,0,0,0,.144.12c0.125,0.02.379,0.04,0.379,0.24a0.317,0.317,0,0,1-.19.23,0.425,0.425,0,0,0-.159.35,0.374,0.374,0,0,0,.428.44h3.417c0.664,0,1.312-.03,1.961-0.03,0.4,0,.379.2,0.379,0.83s0.016,0.84-.379.84c-0.649,0-1.3-.05-1.961-0.05h-3.432a0.382,0.382,0,0,0-.428.47v1.19c0,0.54.031,1.09,0.031,1.63,0,0.52-.159.55-0.823,0.55s-0.9.02-.9-0.54c0-.5.033-1.05,0.033-1.64v-1.19a0.387,0.387,0,0,0-.443-0.47h-3.371c-0.649,0-1.313.05-1.961,0.05-0.395,0-.38-0.22-0.38-0.84s0-.83.38-0.83c0.648,0,1.312.03,1.961,0.03h3.371a0.367,0.367,0,0,0,.427-0.45,3.578,3.578,0,0,0-.033-0.39,0.75,0.75,0,0,0-.205-0.42,0.645,0.645,0,0,1-.22-0.37,0.888,0.888,0,0,1,.346-0.43,17.915,17.915,0,0,0,3.355-3.76,0.282,0.282,0,0,0,.046-0.15,0.215,0.215,0,0,0-.251-0.22h-4.083Zm23.768-2.95a0.2,0.2,0,0,1,.174-0.16,3.825,3.825,0,0,1,1.425.78,0.2,0.2,0,0,1-.207.16,0.388,0.388,0,0,0-.3.15c-0.141.3-.474,0.88-0.633,1.17a0.237,0.237,0,0,0-.046.15,0.2,0.2,0,0,0,.236.22c0.571,0,1.14-.03,1.709-0.03,0.349,0,.349.18,0.349,0.7,0,0.5,0,.69-0.349.69-0.664,0-1.312-.04-1.978-0.04h-0.616c-0.049,0-.049.04-0.015,0.07a0.3,0.3,0,0,1,.046.1,0.248,0.248,0,0,1-.221.18,0.428,0.428,0,0,0-.317.21c-0.062.15-.142,0.31-0.205,0.46a0.613,0.613,0,0,0-.049.16,0.27,0.27,0,0,0,.3.25h0.41c0.649,0,1.282-.04,1.931-0.04,0.363,0,.348.22,0.348,0.67,0,0.41.015,0.66-.333,0.66-0.649,0-1.3-.04-1.946-0.04h-2.688a0.266,0.266,0,0,0-.3.32v0.14a0.268,0.268,0,0,0,.3.32h1.881c0.6,0,1.2-.04,1.82-0.04,0.364,0,.364.19,0.364,0.66s0,0.65-.364.65c-0.618,0-1.218-.03-1.82-0.03h-1.881a0.256,0.256,0,0,0-.3.3v0.15a0.264,0.264,0,0,0,.3.32h3.542c0.666,0,1.33-.04,2.01-0.04,0.364,0,.364.17,0.364,0.67s0,0.69-.349.69c-0.679,0-1.359-.03-2.025-0.03h-2.025a0.133,0.133,0,0,0-.157.13,0.142,0.142,0,0,0,.062.12,14.86,14.86,0,0,0,3.94,2.01c0.364,0.12.523,0.2,0.523,0.4a1.527,1.527,0,0,1-.887,1.11,10.123,10.123,0,0,1-1.882-.77,15.806,15.806,0,0,1-3.086-2.11,0.2,0.2,0,0,0-.156-0.07,0.206,0.206,0,0,0-.174.23v0.15c0,0.74.046,1.49,0.046,2.25,0,0.57-.174.59-0.9,0.59-0.695,0-.885-0.02-0.885-0.57,0-.76.046-1.51,0.046-2.27v-0.11c-0.015-.14-0.046-0.24-0.189-0.24a0.266,0.266,0,0,0-.141.05,17.107,17.107,0,0,1-3.656,2.37,6.293,6.293,0,0,1-1.312.51,1.579,1.579,0,0,1-.871-1.15c0-.2.207-0.27,0.553-0.39a17.827,17.827,0,0,0,3.894-1.99,0.2,0.2,0,0,0,.061-0.14,0.124,0.124,0,0,0-.141-0.11H661.62c-0.664,0-1.346.03-2.025,0.03-0.349,0-.349-0.2-0.349-0.69s0-.67.349-0.67c0.679,0,1.361.04,2.025,0.04h3.417a0.269,0.269,0,0,0,.3-0.32v-0.14a0.259,0.259,0,0,0-.3-0.31H663.25c-0.6,0-1.22.03-1.82,0.03-0.38,0-.364-0.19-0.364-0.65,0-.49,0-0.66.364-0.66,0.6,0,1.217.04,1.82,0.04h1.787a0.266,0.266,0,0,0,.3-0.32v-0.14a0.266,0.266,0,0,0-.3-0.32h-2.548c-0.649,0-1.3.04-1.946,0.04-0.349,0-.331-0.27-0.331-0.66,0-.45-0.018-0.67.346-0.67,0.649,0,1.282.04,1.931,0.04h0.364a0.255,0.255,0,0,0,.284-0.25,0.566,0.566,0,0,0-.031-0.16c-0.1-.21-0.189-0.41-0.3-0.63a0.563,0.563,0,0,0-.586-0.39h-0.411c-0.664,0-1.312.04-1.976,0.04-0.349,0-.349-0.19-0.349-0.69s0-.7.349-0.7c0.52,0,1.043.03,1.566,0.03h0.172a0.2,0.2,0,0,0,.223-0.2,0.235,0.235,0,0,0-.033-0.15,13.906,13.906,0,0,0-.964-1.38,0.6,0.6,0,0,1-.144-0.27,1.589,1.589,0,0,1,1.108-.65,0.5,0.5,0,0,1,.412.32c0.031,0.05.08,0.12,0.141,0.2a8.368,8.368,0,0,1,1,1.56,0.738,0.738,0,0,1-.5.43,0.115,0.115,0,0,0-.033.07,0.068,0.068,0,0,0,.08.07h0.776a0.389,0.389,0,0,0,.443-0.45v-0.52c0-.54-0.017-1.08-0.063-1.61,0-.05-0.016-0.1-0.016-0.15a0.224,0.224,0,0,1,.269-0.25c0.221,0,1.074.1,1.328,0.13,0.159,0.02.379,0.03,0.379,0.23a0.329,0.329,0,0,1-.189.26,1.206,1.206,0,0,0-.19.92v0.99a0.383,0.383,0,0,0,.444.45h0.458a0.384,0.384,0,0,0,.444-0.45v-0.96a7.052,7.052,0,0,0-.064-1.16v-0.15c0-.2.11-0.23,0.269-0.23,0.205,0,1.043.08,1.281,0.12,0.142,0.01.411,0.03,0.411,0.23a0.348,0.348,0,0,1-.19.24,0.949,0.949,0,0,0-.174.77v1.14a0.38,0.38,0,0,0,.379.45,0.274,0.274,0,0,0,.223-0.15A21.106,21.106,0,0,0,670.3,6809.42Zm-3.273,5.22a0.584,0.584,0,0,0,.632-0.39c0.1-.2.19-0.42,0.3-0.64a0.3,0.3,0,0,0,.031-0.13,0.271,0.271,0,0,0-.3-0.27h-2.863a0.254,0.254,0,0,0-.284.25,0.533,0.533,0,0,0,.03.15c0.395,0.84.395,1.03,0.808,1.03h1.646Zm10.226,8.13c0.205,0,.854.01,1.359,0.01h0.459c0.379,0,.443-0.06.443-0.47v-11.64c0-.39-0.064-0.46-0.443-0.46h-0.459c-0.5,0-1.154.02-1.359,0.02-0.333,0-.382-0.08-0.382-0.49v-0.62c0-.38.064-0.48,0.4-0.48,0.111,0,.839.03,1.344,0.03H680.5c0.394,0,.474.09,0.474,0.5v14.65c0,0.42-.08.5-0.474,0.5h-1.884c-0.5,0-1.233.04-1.344,0.04-0.333,0-.4-0.1-0.4-0.49v-0.62C676.875,6822.85,676.924,6822.77,677.257,6822.77Z" transform="translate(-567 -6808.62)"/>
</svg>
