<svg id="review-ttl-lead04-sp.svg" xmlns="http://www.w3.org/2000/svg" width="513.41" height="69.594" viewBox="0 0 513.41 69.594">
  <defs>
    <style>
      .cls-1 {
        fill: #56a6da;
      }

      .cls-1, .cls-2 {
        fill-rule: evenodd;
      }

      .cls-2 {
        fill: #52a5dc;
      }
    </style>
  </defs>
  <path id="シェイプ_15" data-name="シェイプ 15" class="cls-1" d="M2616.4,404.948c0.69,0,2.3,0,2.95-.063,0.13,0,.49-0.066.59-0.066,0.79,0,2.2,1.756,2.2,2.082s-0.3.682-.56,2.082c-1.12,6.276-3.44,10.6-8.75,14.311a30.564,30.564,0,0,1-6.28,3.318,3.428,3.428,0,0,1-1.09.292c-0.78,0-1.96-2.18-1.96-2.7a0.573,0.573,0,0,1,.59-0.521,22.97,22.97,0,0,0,8.15-4.292,15.111,15.111,0,0,0,5.38-9.5,6.843,6.843,0,0,0,.06-0.782c0-.616-0.56-0.681-1.15-0.681h-11.62c-1.38,0-2.72.065-4.1,0.065-1.01,0-.98-0.294-0.98-1.758,0-1.5-.03-1.852.89-1.852,1.4,0,2.81.063,4.22,0.063h11.46Zm12.63,5.01a37.548,37.548,0,0,1,4.59,2.536c1.08,0.684,2.06,1.172,2.06,1.659s-1.31,2.473-2,2.473a1.7,1.7,0,0,1-.72-0.357,54.214,54.214,0,0,0-5.31-3.318,0.665,0.665,0,0,1-.49-0.522C2627.16,411.91,2628.37,409.958,2629.03,409.958Zm21.65-.163a12.156,12.156,0,0,1-.72,2.049,28.027,28.027,0,0,1-5.73,8.458,32.248,32.248,0,0,1-11.2,6.6,1.811,1.811,0,0,0-1.08.683,0.877,0.877,0,0,1-.5.455,1.208,1.208,0,0,1-.68-0.846c-0.43-.878-0.82-1.755-1.21-2.634a0.637,0.637,0,0,1-.07-0.261,0.653,0.653,0,0,1,.62-0.389c1.02-.261,2.88-0.944,3.9-1.335a22.337,22.337,0,0,0,8.15-5.106c2.76-2.731,4.13-5.6,5.51-9.14a0.8,0.8,0,0,1,.65-0.715C2648.85,407.616,2650.68,409.21,2650.68,409.8Zm-13.49-4.326c0.72,0.52,2.03,1.333,2.03,1.79,0,0.584-1.38,2.373-2,2.373a2.1,2.1,0,0,1-.79-0.422,49.154,49.154,0,0,0-4.78-3.415,1,1,0,0,1-.59-0.618c0-.521,1.44-2.277,2-2.277C2633.55,402.9,2636.6,405.047,2637.19,405.469Zm6.88-3.156a11.636,11.636,0,0,1,2.09,1.5,4.851,4.851,0,0,1,1.31,1.367,2.554,2.554,0,0,1-1.44,1.625,2.418,2.418,0,0,1-.79-0.618c-0.75-.715-1.54-1.333-2.32-1.983a0.6,0.6,0,0,1-.3-0.391A2.793,2.793,0,0,1,2644.07,402.313Zm2.91-2.8c0.36,0,3.44,2.44,3.44,2.862a2.586,2.586,0,0,1-1.44,1.628,0.73,0.73,0,0,1-.43-0.261,30.976,30.976,0,0,0-2.65-2.277,0.812,0.812,0,0,1-.36-0.454A2.93,2.93,0,0,1,2646.98,399.516Zm16.85,11.027c0.65,0,3.93,2.57,4.58,3.123,0.46,0.391,2.3,1.789,2.3,2.342a4,4,0,0,1-2.2,2.244,1.2,1.2,0,0,1-.72-0.423,49.314,49.314,0,0,0-4.75-3.806,0.572,0.572,0,0,0-.33-0.13,0.436,0.436,0,0,0-.39.521v8.88c0,1.3.06,2.569,0.06,3.871,0,1.5-.03,1.691-2.02,1.691-1.32,0-1.87-.034-1.87-1.107,0-1.463.1-2.927,0.1-4.39v-18.54c0-.847-0.07-1.724-0.1-2.537,0-.162-0.04-0.457-0.04-0.585a0.391,0.391,0,0,1,.43-0.488c0.2,0,.89.1,1.11,0.129,1.48,0.195,2.82.325,2.82,0.782a1.019,1.019,0,0,1-.16.422,2.572,2.572,0,0,0-.36,1.724c0,0.488.03,1.106,0.03,1.918v4.88a0.275,0.275,0,0,0,.26.325,0.367,0.367,0,0,0,.3-0.131A1.672,1.672,0,0,1,2663.83,410.543Zm7.79-3.219a2.677,2.677,0,0,1-1.6,1.43,0.917,0.917,0,0,1-.5-0.358,32.982,32.982,0,0,0-2.22-2.6,0.718,0.718,0,0,1-.3-0.456,2.792,2.792,0,0,1,1.61-1.3A12.1,12.1,0,0,1,2671.62,407.324Zm3.41-2.277a2.64,2.64,0,0,1-1.61,1.463,0.8,0.8,0,0,1-.46-0.391,33.559,33.559,0,0,0-2.25-2.569,0.86,0.86,0,0,1-.3-0.455,2.858,2.858,0,0,1,1.6-1.335A12.647,12.647,0,0,1,2675.03,405.047Zm9.08,8.358c0,1.463.07,2.961,0.07,4.424,0,1.009-.29,1.138-1.83,1.138s-1.97-.1-1.97-0.976c0-1.529.1-3.024,0.1-4.552v-6.864c0-.878-0.07-1.724-0.1-2.569,0-.2-0.03-0.391-0.03-0.587,0-.227.06-0.324,0.29-0.324,0.33,0,2.36.293,2.82,0.358,0.69,0.13,1.15.13,1.15,0.422a0.687,0.687,0,0,1-.17.358,3.01,3.01,0,0,0-.36,1.886c0,0.488.03,1.074,0.03,1.823v5.463Zm12.84-1.268a48.74,48.74,0,0,1-.36,6.928,11.012,11.012,0,0,1-3.99,7.547c-0.56.454-3.02,2.275-3.61,2.275-0.48,0-2.75-1.625-2.75-2.21a1.5,1.5,0,0,1,.89-0.683c3.21-1.659,5.27-3.514,5.83-7.189a40.1,40.1,0,0,0,.39-6.277v-7.059a16.824,16.824,0,0,0-.1-2.243,3.489,3.489,0,0,1-.06-0.553c0-.261.13-0.326,0.39-0.326a28.444,28.444,0,0,1,3.24.326c0.27,0.065.66,0.1,0.66,0.389a0.649,0.649,0,0,1-.3.456,2.765,2.765,0,0,0-.23,1.4v7.221Zm24.66,0.456c1.39,0,3.36-.1,3.75-0.1,0.82,0,.85.261,0.85,2.05,0,1.041-.03,1.659-0.82,1.659-1.27,0-2.54-.065-3.78-0.065h-13.92c-1.23,0-2.5.065-3.78,0.065-0.78,0-.81-0.618-0.81-1.627,0-1.821.06-2.082,0.84-2.082,0.4,0,2.48.1,3.75,0.1h13.92Zm23.52-8.783a1.5,1.5,0,0,1,.86.65,0.546,0.546,0,0,1-.4.391c-0.72.326-.88,0.814-1.73,2.408-1.97,3.74-3.74,7.578-5.67,11.35a2.592,2.592,0,0,0-.3.847,0.591,0.591,0,0,0,.59.585c0.23,0,.76-0.065.99-0.1,2.84-.294,5.66-0.586,8.48-0.944,0.36-.033.92-0.065,0.92-0.553,0-.584-2.49-2.731-3.05-3.219a1.429,1.429,0,0,1-.59-0.814,4.047,4.047,0,0,1,2.2-2.082c0.81,0,4.71,4.294,5.43,5.106,0.59,0.717,3.48,4.229,3.48,4.945,0,0.781-1.84,2.114-2.56,2.114a1.222,1.222,0,0,1-.82-0.814c-0.85-1.365-1.11-1.918-1.8-1.918-0.1,0-16.24,1.983-18.08,2.212-1.12.13-1.12,0.065-1.47,0.553a0.5,0.5,0,0,1-.4.259c-0.39,0-.62-0.975-0.88-2.212a9.814,9.814,0,0,0-.26-1.2,2.11,2.11,0,0,1-.1-0.487c0-.358.29-0.392,0.72-0.392h0.55c2.23,0,2.33-.128,2.82-1.039,1.21-2.277,6.98-14.149,7.6-16.165a0.739,0.739,0,0,1,.56-0.652A18.929,18.929,0,0,1,2745.13,403.81Zm33.17,2.374c1.44,0,2.85-.065,4.29-0.065,0.65,0,.85.2,0.85,1.4V408.3c0,1.008-.1,1.365-1.02,1.365-1.34,0-2.68-.065-4.06-0.065h-2.62a0.965,0.965,0,0,0-.98.978v9.106a0.957,0.957,0,0,0,.98.943h5.11c1.35,0,3.15-.065,4.13-0.065,0.82,0,.85.294,0.85,1.887,0,1.041,0,1.691-.92,1.691-0.98,0-2.65-.1-4.06-0.1H2765c-1.41,0-3.08.1-4.06,0.1-0.92,0-.92-0.618-0.92-1.724,0-1.56.03-1.854,0.85-1.854,0.99,0,2.76.065,4.13,0.065h5.11a0.951,0.951,0,0,0,.98-0.943v-9.106a0.959,0.959,0,0,0-.98-0.978h-2.62c-1.38,0-2.72.065-4.06,0.065-0.92,0-1.02-.357-1.02-1.333v-0.78c0-1.236.2-1.432,0.85-1.432,1.41,0,2.85.065,4.26,0.065h10.78Zm32.57-1.007a23.54,23.54,0,0,0,3.41-.164,1.732,1.732,0,0,1,.42-0.032,1.881,1.881,0,0,1,1.22.846,4.1,4.1,0,0,1,1.21,1.886,1.473,1.473,0,0,1-.72.879c-0.2.162-2.65,2.7-3.05,3.122-1.14,1.172-2.85,2.83-4.06,3.9a1.3,1.3,0,0,1-.79.456c-0.55,0-2.39-1.432-2.39-1.985a2.13,2.13,0,0,1,.82-0.975c0.59-.52,4.23-3.708,4.23-4.164s-0.72-.39-1.02-0.39H2796.1c-1.5,0-2.98.1-4.46,0.1-0.85,0-.88-0.358-0.88-1.659v-0.65c0-.847.07-1.236,0.82-1.236,1.51,0,3.02.065,4.52,0.065h14.77Zm-5.73,5.2c0.23,0.032.69,0.032,0.69,0.39a0.492,0.492,0,0,1-.2.325,5.663,5.663,0,0,0-.65,2.343c-0.95,5.952-2.98,10.082-7.86,13.823a2.384,2.384,0,0,1-1.08.584c-0.56,0-2.69-1.69-2.69-2.275a1.224,1.224,0,0,1,.78-0.717,15.376,15.376,0,0,0,6.85-9.464,17.282,17.282,0,0,0,.53-4.847c0-.26,0-0.423.32-0.423C2802.26,410.12,2804.65,410.316,2805.14,410.381Zm35-.456c0.75,0,2.26,0,2.94-.065a3.829,3.829,0,0,1,.59-0.065,3.9,3.9,0,0,1,2.33,2.146,7.793,7.793,0,0,1-.43,1.334,22.4,22.4,0,0,1-1.9,4.392,27.246,27.246,0,0,1-6.78,7.675c-0.91.749-4.45,3.253-5.46,3.253-0.76,0-2.27-1.854-2.27-2.406,0-.391.82-0.683,1.15-0.847a23.461,23.461,0,0,0,10.05-9.237,8.306,8.306,0,0,0,.89-2.114c0-.78-0.89-0.716-1.41-0.716h-12.18c-1.38,0-2.75.065-4.16,0.065-0.92,0-.92-0.324-0.92-1.594,0-1.659.03-1.886,0.95-1.886,1.38,0,2.78.065,4.19,0.065h12.42Zm-2.2-7.025c1.35,0,3.02-.1,3.87-0.1,0.82,0,.88.357,0.88,1.983,0,1.106,0,1.529-.88,1.529-1.31,0-2.59-.065-3.87-0.065h-8.02c-1.28,0-2.56.065-3.84,0.065-0.91,0-.91-0.391-0.91-1.594,0-1.529.06-1.918,0.88-1.918,0.92,0,2.59.1,3.87,0.1h8.02Zm27.96,20.589c0,1.43.07,2.862,0.07,4.26,0,0.879-.43.976-1.64,0.976-1.8,0-2.13-.1-2.13-0.942,0-1.4.06-2.8,0.06-4.2V414.74c0-.2.1-0.912-0.52-0.912a3.634,3.634,0,0,0-1.28.748c-0.98.717-6.19,4.164-7.04,4.164-0.56,0-2.55-1.984-2.55-2.6a0.654,0.654,0,0,1,.52-0.553,47.2,47.2,0,0,0,12.87-8.619,27.331,27.331,0,0,0,4.46-5.5,0.832,0.832,0,0,1,.52-0.488,12,12,0,0,1,2.23,1.333,2.8,2.8,0,0,1,1.27,1.172,0.376,0.376,0,0,1-.32.325,1.787,1.787,0,0,0-1.28.78,62.117,62.117,0,0,1-4.49,4.88,1.73,1.73,0,0,0-.75,1.464v12.555Zm36.27-12.132c0,0.553-1.31,1.821-1.73,2.244a56.987,56.987,0,0,1-17.79,12.262c-1.08.52-1.11,0.553-1.37,1.106a0.339,0.339,0,0,1-.33.2c-0.36,0-1.05-1.3-1.28-1.693a8.872,8.872,0,0,1-.98-1.951c0-.357.59-0.423,1.01-0.553,7.24-2.113,15.43-8.262,20.08-14.149a0.808,0.808,0,0,1,.56-0.357C2900.99,408.462,2902.17,410.869,2902.17,411.357Zm-16.9-5.368c0.43,0.294,2,1.366,2,1.854,0,0.749-1.54,2.5-2.16,2.5a3.478,3.478,0,0,1-1.31-.878,41.061,41.061,0,0,0-4.36-3.025,0.82,0.82,0,0,1-.52-0.618c0-.488,1.31-2.57,2.06-2.57C2881.51,403.257,2884.65,405.535,2885.27,405.989Zm34.83-.617c0.56,0,1.87,0,2.36-.065a5.307,5.307,0,0,1,.72-0.065c0.69,0,2.1,1.756,2.1,2.179a3.062,3.062,0,0,1-.53.944c-0.45.649-.98,1.593-1.41,2.309a47.2,47.2,0,0,1-3.57,5.042,0.94,0.94,0,0,0-.29.65,0.867,0.867,0,0,0,.49.748,49.021,49.021,0,0,1,5.53,4.2c0.82,0.717,1.61,1.432,2.36,2.18a0.743,0.743,0,0,1,.27.488c0,0.715-1.81,2.635-2.53,2.635a1.089,1.089,0,0,1-.78-0.521,37.1,37.1,0,0,0-7.27-6.441,1.276,1.276,0,0,0-.72-0.292,1.963,1.963,0,0,0-1.21.78,34.37,34.37,0,0,1-8.16,5.6,5.169,5.169,0,0,1-1.28.488c-0.66,0-2.16-2.147-2.16-2.732a0.912,0.912,0,0,1,.75-0.717c5.7-2.178,11.43-7.317,14.64-12.456a2.017,2.017,0,0,0,.43-0.944c0-.488-0.56-0.553-1.05-0.553h-6.68c-1.41,0-2.82.065-4.19,0.065-0.89,0-.82-0.585-0.82-1.854,0-1.17-.07-1.756.75-1.756,1.41,0,2.85.1,4.26,0.1h7.99Zm8.71,0a2.534,2.534,0,0,1-1.57,1.5,1.682,1.682,0,0,1-.72-0.65c-0.65-.782-1.37-1.529-2.09-2.246a0.711,0.711,0,0,1-.3-0.454,2.841,2.841,0,0,1,1.61-1.333A12.538,12.538,0,0,1,2928.81,405.372Zm3.25-2.212a2.514,2.514,0,0,1-1.58,1.464,0.7,0.7,0,0,1-.42-0.326,34.1,34.1,0,0,0-2.36-2.538,0.778,0.778,0,0,1-.29-0.454,2.818,2.818,0,0,1,1.57-1.367C2929.3,399.939,2932.06,402.7,2932.06,403.16Zm26.75,3.382a0.392,0.392,0,0,0-.46-0.358h-4.68a0.767,0.767,0,0,0-.92.879v0.553c0,0.423.07,1.008,0.07,1.333,0,0.715-.66.65-1.71,0.65-1.14,0-1.7.033-1.7-.682,0-.325.07-0.878,0.07-1.3v-1.562c0-.682-0.07-1.268-0.07-1.594,0-1.106.89-1.3,2.49-1.3,0.82,0,1.8.066,2.95,0.066h5.6a0.764,0.764,0,0,0,.88-0.879,10.746,10.746,0,0,0-.1-1.5,1.187,1.187,0,0,1-.03-0.324c0-.391.33-0.423,0.63-0.423,0.65,0,2.09.129,2.78,0.194,0.26,0.033.92,0.033,0.92,0.424a0.664,0.664,0,0,1-.4.455,1.429,1.429,0,0,0-.39,1.2,0.782,0.782,0,0,0,.92.848h5.63c1.15,0,2.33-.034,3.47-0.034,0.85,0,1.97.1,1.97,1.236,0,0.261-.03.976-0.03,1.626v1.693c0,0.258.03,0.649,0.03,0.91a1.577,1.577,0,0,1,.03.391c0,0.747-.59.681-1.7,0.681-1.05,0-1.71.066-1.71-.649,0-.391.07-0.911,0.07-1.333v-0.684a0.767,0.767,0,0,0-.92-0.879h-10.15c-0.13,0-.13.066-0.13,0.1a0.1,0.1,0,0,0,.1.1,1.237,1.237,0,0,1,.95.618,0.546,0.546,0,0,1-.53.357,0.8,0.8,0,0,0-.69.358,0.373,0.373,0,0,0-.06.2,0.257,0.257,0,0,0,.29.227h3.18c0.95,0,1.9-.032,2.85-0.032,1.57,0,2.23,1.854,2.23,2.082,0,0.813-3.51,3.871-4.26,4.52a0.545,0.545,0,0,0-.26.457,0.532,0.532,0,0,0,.33.488,40.744,40.744,0,0,0,9.69,3.74c0.59,0.129,1.34.259,1.34,0.812,0,0.423-.75,2.212-1.57,2.212a29.648,29.648,0,0,1-4.13-1.236,0.784,0.784,0,0,0-.29-0.065,0.6,0.6,0,0,0-.56.651v5.106c0,0.586.07,1.335,0.07,1.854,0,0.65-.43.65-1.61,0.65-1.14,0-1.6.034-1.6-.616V428.6a0.508,0.508,0,0,0-.59-0.585h-8.19a0.529,0.529,0,0,0-.62.585,0.8,0.8,0,0,1,.03.13c0,0.65-.52.618-1.7,0.618s-1.64,0-1.64-.649c0-.36.06-1.27,0.06-1.855V421.8a0.551,0.551,0,0,0-.55-0.585,0.959,0.959,0,0,0-.3.032,27.275,27.275,0,0,1-3.99,1.2c-0.86,0-1.67-1.724-1.67-2.277,0-.521.68-0.618,1.7-0.878a41.863,41.863,0,0,0,9.6-3.708,0.623,0.623,0,0,0,.36-0.521,0.808,0.808,0,0,0-.26-0.488,19.829,19.829,0,0,1-1.87-1.886,0.957,0.957,0,0,0-.69-0.358,1.271,1.271,0,0,0-.56.2c-0.78.585-4.39,3.057-5.14,3.057-0.56,0-1.7-1.594-1.7-2.081a1.364,1.364,0,0,1,.91-0.814,24.977,24.977,0,0,0,7.83-5.854A0.436,0.436,0,0,0,2958.81,406.542Zm8.02,18.7a0.931,0.931,0,0,0,.92-0.91V423.1a0.93,0.93,0,0,0-.92-0.91h-7.69a0.867,0.867,0,0,0-.89.91v1.237a0.868,0.868,0,0,0,.89.91h7.69Zm-3.73-8.066a1.2,1.2,0,0,0-.68.227,38.352,38.352,0,0,1-3.38,1.855,0.21,0.21,0,0,0-.13.195,0.216,0.216,0,0,0,.23.194h7.96a0.243,0.243,0,0,0,.2-0.194,0.219,0.219,0,0,0-.14-0.195c-1.21-.586-2.19-1.14-3.34-1.823A1.472,1.472,0,0,0,2963.1,417.179Zm-0.06-3.9a1,1,0,0,0,.65-0.293c0.36-.26,2.23-1.756,2.23-2.081a1.037,1.037,0,0,0-.98-0.227h-4.1a0.406,0.406,0,0,0-.43.357,0.422,0.422,0,0,0,.14.326,16.681,16.681,0,0,0,1.77,1.625A1.163,1.163,0,0,0,2963.04,413.275Zm36.37,6.57h4.36c1.24,0,2.49-.065,3.73-0.065,0.79,0,.75.423,0.75,1.432s0.04,1.43-.75,1.43c-1.24,0-2.49-.065-3.73-0.065h-4.39a0.767,0.767,0,0,0-.89.912v1.073a0.777,0.777,0,0,0,.89.91h7.11c1.31,0,2.61-.1,3.96-0.1,0.75,0,.75.358,0.75,1.464,0,1.072,0,1.432-.72,1.432-1.34,0-2.65-.065-3.99-0.065H2987c-1.35,0-2.66.065-4,.065-0.72,0-.72-0.36-0.72-1.432,0-1.138,0-1.464.75-1.464,1.35,0,2.66.1,3.97,0.1h7.1a0.777,0.777,0,0,0,.89-0.91v-1.073a0.767,0.767,0,0,0-.89-0.912h-4.32c-1.24,0-2.49.065-3.73,0.065-0.79,0-.76-0.389-0.76-1.43s0-1.432.76-1.432c1.24,0,2.49.065,3.73,0.065h4.32a0.748,0.748,0,0,0,.89-0.878,6.611,6.611,0,0,0-.1-1.17,0.978,0.978,0,0,1-.03-0.294c0-.389.26-0.454,0.59-0.454,0.46,0,2.49.2,3.04,0.26,0.26,0.032.76,0.066,0.76,0.423a0.694,0.694,0,0,1-.4.488,0.833,0.833,0,0,0-.32.78A0.728,0.728,0,0,0,2999.41,419.845Zm0.06-16.75h5.54c1.21,0,2.42-.033,3.64-0.033,0.78,0,1.86.164,1.86,1.2,0,0.358-.06.911-0.06,1.561v1.3c0,0.2.06,0.65,0.06,0.877,0,0.1.04,0.261,0.04,0.36,0,0.715-.59.683-1.74,0.683-1.11,0-1.8.032-1.8-.652a1.728,1.728,0,0,1,.03-0.391c0-.227.04-0.681,0.04-0.877v-0.357a0.791,0.791,0,0,0-.92-0.911h-18.57a0.788,0.788,0,0,0-.92.911V407c0,0.326.06,0.976,0.06,1.236,0,0.715-.62.65-1.8,0.65-1.11,0-1.73.065-1.73-.65,0-.325.06-0.879,0.06-1.236v-1.171c0-.749-0.06-1.2-0.06-1.529,0-1.072,1.04-1.236,1.9-1.236,1.21,0,2.42.033,3.63,0.033h5.41a0.789,0.789,0,0,0,.92-0.813,9.925,9.925,0,0,0-.14-1.464c0-.1-0.03-0.195-0.03-0.292,0-.391.36-0.391,0.65-0.391,0.66,0,2.49.13,3.18,0.195,0.23,0.032.66,0.065,0.66,0.391a0.679,0.679,0,0,1-.43.423,1.218,1.218,0,0,0-.36,1.106A0.756,0.756,0,0,0,2999.47,403.1Zm3.61,13.174c-4.88.357-10.45,0.616-16.57,0.91a0.646,0.646,0,0,0-.53.454,0.5,0.5,0,0,1-.39.326c-0.26,0-.43-0.227-0.66-1.138-0.09-.325-0.52-1.919-0.52-2.18,0-.391.39-0.422,0.72-0.422h1.21c1.05,0,2.1-.032,3.15-0.066a1.314,1.314,0,0,0,1.31-.714c0.46-.717.88-1.5,1.27-2.246a0.488,0.488,0,0,0,.1-0.292,0.525,0.525,0,0,0-.59-0.488h-0.13c-1.24,0-2.49.065-3.73,0.065-0.72,0-.72-0.391-0.72-1.3,0-.976,0-1.365.72-1.365,1.24,0,2.49.065,3.73,0.065h10.81c1.24,0,2.49-.065,3.73-0.065,0.76,0,.72.389,0.72,1.333s0.04,1.333-.72,1.333h-1.04a0.276,0.276,0,0,0-.33.261,0.291,0.291,0,0,0,.13.26c0.75,0.682,5.4,4.879,5.4,5.529,0,0.748-1.54,1.757-2.22,1.757a1.751,1.751,0,0,1-1.02-.847c-0.2-.194-0.39-0.454-0.65-0.715a1.526,1.526,0,0,0-1.22-.585C3004.75,416.138,3003.96,416.2,3003.08,416.269Zm-6.55-5.3a0.468,0.468,0,0,1-.49.357,0.955,0.955,0,0,0-.63.488c-0.29.488-.52,1.009-0.82,1.5a0.448,0.448,0,0,0,.4.715c2.42-.032,4.85-0.227,7.24-0.324a0.367,0.367,0,0,0,.36-0.359,0.518,0.518,0,0,0-.13-0.292,3.006,3.006,0,0,1-1.28-1.3,1.729,1.729,0,0,1,.88-0.975,0.328,0.328,0,0,0,.1-0.194,0.256,0.256,0,0,0-.23-0.164h-5.67c-0.09.033-.12,0.1-0.03,0.164A0.472,0.472,0,0,1,2996.53,410.966Zm35.89,10.343a0.325,0.325,0,0,0-.33.391v1.854c0,1.626.06,3.22,0.06,4.814,0,1.007-.36,1.041-1.77,1.041s-1.77-.034-1.77-1.041c0-1.594.1-3.188,0.1-4.814v-1.789a0.365,0.365,0,0,0-.32-0.391,0.506,0.506,0,0,0-.3.131,32.381,32.381,0,0,1-8.91,6.375c-0.06.031-.1,0.065-0.16,0.1a4.33,4.33,0,0,1-1.21.456c-0.76,0-1.9-1.692-1.9-2.342a1.5,1.5,0,0,1,.98-0.781,29.765,29.765,0,0,0,8.74-5.562,0.567,0.567,0,0,0,.14-0.292,0.362,0.362,0,0,0-.43-0.326h-3.6c-1.28,0-2.56.066-3.8,0.066-0.79,0-.75-0.358-0.75-1.432s0-1.4.75-1.4c1.01,0,2.03.1,3.08,0.065a0.755,0.755,0,0,0,.85-0.911v-0.391a0.78,0.78,0,0,0-.92-0.91h-0.26c-1.34,0-2.65.065-4,.065-0.72,0-.72-0.358-0.72-1.432,0-1.106,0-1.463.75-1.463,1.32,0,2.66.1,3.97,0.1h0.26a0.791,0.791,0,0,0,.92-0.91v-0.49a0.769,0.769,0,0,0-.92-0.877c-0.65,0-1.54.032-2.16,0.032-0.75,0-.75-0.358-0.75-1.4,0-1.072,0-1.4.75-1.4,1.24,0,2.49.065,3.7,0.065h5.31a0.773,0.773,0,0,0,.91-0.91v-0.391a0.721,0.721,0,0,0-.88-0.846c-1.83.1-4.42,0.293-6.23,0.293h-0.88a1.057,1.057,0,0,1-1.14-.943,2.529,2.529,0,0,1-.2-1.04c0-.749.55-0.684,1.5-0.717,4.33-.1,13.11-0.488,16.97-1.886a1.118,1.118,0,0,1,.26-0.066,2.255,2.255,0,0,1,1.05.911,5.39,5.39,0,0,1,1.44,1.855,0.386,0.386,0,0,1-.39.325,2,2,0,0,1-.59-0.163,1.909,1.909,0,0,0-.43-0.066c-1.27.229-2.84,0.522-3.79,0.684-0.79.13-1.61,0.195-2.43,0.325a0.86,0.86,0,0,0-.88,1.01V405.6a0.773,0.773,0,0,0,.91.91h5.37c1.25,0,2.49-.065,3.74-0.065,0.75,0,.72.391,0.72,1.4s0.03,1.4-.72,1.4c-0.82,0-1.61-.032-2.39-0.032a0.746,0.746,0,0,0-.89.877v0.49a0.788,0.788,0,0,0,.92.91h0.39c1.31,0,2.66-.1,3.97-0.1,0.75,0,.72.422,0.72,1.463s0.03,1.432-.72,1.432c-1.31,0-2.66-.065-3.97-0.065h-0.39a0.776,0.776,0,0,0-.92.91v0.391a0.758,0.758,0,0,0,.86.911c1.04,0.031,2.09-.065,3.14-0.065,0.75,0,.75.357,0.75,1.4,0,1.074,0,1.432-.75,1.432-1.28,0-2.52-.066-3.8-0.066h-3.6a0.332,0.332,0,0,0-.4.326,0.313,0.313,0,0,0,.13.259,35.012,35.012,0,0,0,9.01,5.856,0.748,0.748,0,0,1,.66.618c0,0.682-1.15,2.309-1.84,2.309a20.067,20.067,0,0,1-3.73-1.854,34.183,34.183,0,0,1-6.59-5.236A0.346,0.346,0,0,0,3032.42,421.309Zm-6.49-12.132a0.918,0.918,0,0,0-.92.91v0.49a0.875,0.875,0,0,0,.92.91h1.87a0.928,0.928,0,0,0,.91-0.91v-0.49a0.929,0.929,0,0,0-.91-0.91h-1.87Zm0,5.042a0.9,0.9,0,0,0-.92.91v0.391a0.875,0.875,0,0,0,.92.911h1.87a0.929,0.929,0,0,0,.91-0.911v-0.391a0.907,0.907,0,0,0-.91-0.91h-1.87Zm7.07-5.042a0.909,0.909,0,0,0-.91.91v0.49a0.872,0.872,0,0,0,.91.91h1.77a0.93,0.93,0,0,0,.92-0.91v-0.49a0.931,0.931,0,0,0-.92-0.91H3033Zm0,5.042a0.889,0.889,0,0,0-.91.91v0.391a0.873,0.873,0,0,0,.91.911h1.77a0.931,0.931,0,0,0,.92-0.911v-0.391a0.909,0.909,0,0,0-.92-0.91H3033Zm28.88,2.731a1.235,1.235,0,0,1-.76.717c-0.49,0-1.93-.683-1.93-1.236a1.264,1.264,0,0,1,.39-0.65,5.684,5.684,0,0,0,1.08-1.823c0-.357-0.45-0.324-0.68-0.324h-0.43a0.657,0.657,0,0,0-.75.78v9.693c0,0.65.03,1.3,0.03,1.952,0,2.862-2.29,3.154-4.65,3.154-0.66,0-1.64.13-1.64-2.374,0-.423.1-0.748,0.59-0.748,0.36,0,.82.065,1.28,0.065,1.54,0,1.47-.52,1.47-1.952v-5.692c0-.13-0.03-0.227-0.16-0.227a0.21,0.21,0,0,0-.2.129,23.225,23.225,0,0,1-3.24,5.4,2.031,2.031,0,0,1-.88.781,3.219,3.219,0,0,1-1.87-1.888,0.81,0.81,0,0,1,.33-0.519,27.507,27.507,0,0,0,4.88-7.742,0.811,0.811,0,0,0,.06-0.259,0.545,0.545,0,0,0-.62-0.553h-0.82c-0.92,0-1.8.065-2.68,0.065-0.66,0-.69-0.326-0.69-1.4,0-1.106.03-1.4,0.69-1.4,0.88,0,1.76.033,2.68,0.033h2.88a0.392,0.392,0,0,0,.46-0.357,0.46,0.46,0,0,0-.13-0.294,24.034,24.034,0,0,0-3.01-2.993,1.393,1.393,0,0,1-.56-0.748,3.224,3.224,0,0,1,2-1.657,1.806,1.806,0,0,1,1.11.715,1.843,1.843,0,0,0,.89.553,1.081,1.081,0,0,0,.62-0.261,7.73,7.73,0,0,0,1.67-1.756c0-.294-0.49-0.261-0.69-0.261h-4.12c-1.02,0-2.2.066-2.89,0.066-0.72,0-.72-0.293-0.72-1.4,0-1.074,0-1.4.72-1.4,0.95,0,1.93.065,2.89,0.065h5.5c0.59,0,1.18-.033,1.77-0.033a1.334,1.334,0,0,1,1.27.618,2.733,2.733,0,0,1,.82,1.463c0,0.879-3.66,3.806-4.45,4.424a0.757,0.757,0,0,0-.36.618,0.925,0.925,0,0,0,.23.553,3.54,3.54,0,0,1,.78,1.106,0.914,0.914,0,0,1-.36.619,0.188,0.188,0,0,0-.1.162c0,0.162.13,0.2,0.27,0.2,0.29,0,1.8-.033,2-0.033a2.534,2.534,0,0,1,2.12,1.5,0.469,0.469,0,0,0,.36.422h0.13a21.921,21.921,0,0,0,3.74-1.854,0.676,0.676,0,0,0,.39-0.585,0.774,0.774,0,0,0-.23-0.553,13.158,13.158,0,0,1-1.14-1.562,0.678,0.678,0,0,0-.53-0.324,0.636,0.636,0,0,0-.49.227c-0.42.52-1.21,1.463-1.7,1.463a3.211,3.211,0,0,1-1.93-1.755,0.7,0.7,0,0,1,.29-0.456,19.722,19.722,0,0,0,4.55-6.863,0.6,0.6,0,0,1,.46-0.488,8.755,8.755,0,0,1,1.15.325c0.82,0.228,2.06.553,2.06,0.943a0.624,0.624,0,0,1-.62.391,0.676,0.676,0,0,0-.52.553,0.552,0.552,0,0,0-.07.326,0.525,0.525,0,0,0,.59.487h4.26c1.18,0,2.32-.065,3.47-0.065,0.72,0,.72.261,0.72,1.4s-0.04,1.4-.72,1.4-1.74-.032-2.46-0.065a0.144,0.144,0,0,0-.13.162,0.132,0.132,0,0,0,.1.13,1.494,1.494,0,0,1,1.05.717,0.442,0.442,0,0,1-.46.324,0.842,0.842,0,0,0-.72.553,21.708,21.708,0,0,1-1.64,2.147,0.842,0.842,0,0,0-.23.521,0.726,0.726,0,0,0,.36.585,21.17,21.17,0,0,0,4.13,1.985,1,1,0,0,1,.85.618c0,0.618-.95,2.471-1.64,2.471a3.31,3.31,0,0,1-.92-0.293,23.235,23.235,0,0,1-4.78-2.7,1.1,1.1,0,0,0-.62-0.227,1.051,1.051,0,0,0-.69.227c-0.91.652-4.68,2.928-5.7,2.928a1.518,1.518,0,0,1-1.01-1.073,0.318,0.318,0,0,0-.3-0.228,0.306,0.306,0,0,0-.29.194C3063.02,414.967,3062.01,416.723,3061.88,416.95Zm9.4,3.286a1.013,1.013,0,0,0-1.15.781,14.574,14.574,0,0,1-4.03,6.31c-0.52.488-1.9,1.789-2.58,1.789a3.262,3.262,0,0,1-2.1-2.147,0.811,0.811,0,0,1,.59-0.586,11.527,11.527,0,0,0,4.88-5.334,1.006,1.006,0,0,0,.06-0.293,0.567,0.567,0,0,0-.65-0.52c-0.3,0-2.13.066-2.43,0.066-0.72,0-.68-0.358-0.68-1.432,0-1.2-.04-1.464.75-1.464,0.98,0,1.97.1,2.91,0.065a0.846,0.846,0,0,0,.99-0.845c0-.294.03-0.553,0.03-0.748,0-.911,0-1.138.49-1.138a27.548,27.548,0,0,1,2.75.324c0.27,0.033.66,0.1,0.66,0.358a0.764,0.764,0,0,1-.49.456,0.5,0.5,0,0,0-.3.488v0.227a0.735,0.735,0,0,0,.82.878h0.46c1.28,0,2.29-.065,3.08-0.065,1.54,0,2.16.227,2.16,1.594a38.629,38.629,0,0,1-1.15,7.806c-0.72,2.375-2.52,2.506-4.71,2.506-1.35,0-1.9.063-1.9-2.246,0-.454,0-0.942.55-0.942a2.787,2.787,0,0,1,.5.032c0.36,0.033.72,0.065,1.11,0.065,0.95,0,1.34-.13,1.6-1.106a22.2,22.2,0,0,0,.63-4.163c0-.781-0.43-0.716-1.64-0.716h-1.21Zm1.67-14.018a0.529,0.529,0,0,0-.59-0.456h-2.49c-0.3.033-.56,0.1-0.56,0.456a0.491,0.491,0,0,0,.1.292,8.519,8.519,0,0,0,1.15,1.5,0.769,0.769,0,0,0,1.21,0,9.189,9.189,0,0,0,1.08-1.463A0.582,0.582,0,0,0,3072.95,406.218Zm30.58,3.968a0.762,0.762,0,0,0,.91-0.879c0-1.853-.03-3.707-0.03-5.562v-1.106c0-.683-0.06-1.5-0.06-1.756a0.508,0.508,0,0,1,.62-0.553c0.33,0,1.96.162,2.39,0.2,0.49,0.065.88,0.065,0.88,0.454a0.662,0.662,0,0,1-.49.521c-0.33.162-.33,0.358-0.33,0.976v6.863a0.77,0.77,0,0,0,.92.846h0.1c1.11,0,2.26-.066,3.41-0.066,0.75,0,.72.423,0.72,1.367,0,0.976.03,1.4-.72,1.4-1.15,0-2.3-.1-3.44-0.066a0.768,0.768,0,0,0-.89.814c0.07,1.138.13,2.276,0.23,3.415a0.322,0.322,0,0,0,.26.292,0.344,0.344,0,0,0,.27-0.195,24.058,24.058,0,0,0,1.37-2.927,0.531,0.531,0,0,1,.46-0.456,4.7,4.7,0,0,1,1.8.977c0.72,0.488.92,0.585,0.92,0.845a0.612,0.612,0,0,1-.56.423,1.13,1.13,0,0,0-.75.813,31.59,31.59,0,0,1-2.59,4.456,1.491,1.491,0,0,0-.36.976c0,0.553.82,3.383,1.28,3.383,0.62,0,.88-2.864.95-3.416a0.5,0.5,0,0,1,.62-0.52c0.49,0,1.77.326,1.77,1.2a21.109,21.109,0,0,1-.82,3.871c-0.46,1.367-.95,2.7-2.69,2.7-1.99,0-2.88-2.181-3.4-3.773a0.565,0.565,0,0,0-.46-0.391,0.6,0.6,0,0,0-.42.162c-0.6.587-3.58,3.319-4.23,3.319a2.767,2.767,0,0,1-1.74-1.822,1.5,1.5,0,0,1,.82-0.91,27.306,27.306,0,0,0,4.52-4,1.508,1.508,0,0,0,.43-1.04,1.868,1.868,0,0,0-.03-0.391c-0.3-2.341-.56-4.553-0.66-6.96a0.77,0.77,0,0,0-.92-0.846h-7.07c-0.92,0-1.87-.033-2.79.032a0.788,0.788,0,0,0-.88.911v10.149c0,1.5.06,2.959,0.06,4.456,0,1.041-.29,1.041-1.54,1.041-1.07,0-1.5,0-1.5-.911,0-1.529.06-3.057,0.06-4.586v-0.326a0.621,0.621,0,0,0-.62-0.748c-0.1,0-.19.033-0.26,0.033-1.28.324-2.52,0.553-3.77,0.812a0.644,0.644,0,0,0-.45.424,0.528,0.528,0,0,1-.5.423c-0.32,0-.39-0.294-0.59-0.976a20.44,20.44,0,0,1-.62-2.375c0-.389.53-0.389,1.21-0.455a0.719,0.719,0,0,0,.72-0.845V404.885a0.515,0.515,0,0,0-.58-0.587c-0.76-.032-0.79-0.227-0.79-1.528,0-1.138-.03-1.529.75-1.529,0.59,0,1.54.065,2.36,0.065h4.45c0.86,0,1.77-.065,2.36-0.065,0.82,0,.72.488,0.76,1.236,0.03,0.814.52,0.877,1.27,0.877h0.63a0.759,0.759,0,0,0,.85-0.845c-0.04-.488-0.07-0.976-0.13-1.464,0-.1-0.04-0.227-0.04-0.324,0-.359.3-0.391,0.59-0.391,0.63,0,1.8.1,2.46,0.162,0.29,0.034.88,0.034,0.88,0.391a0.6,0.6,0,0,1-.39.423,1.21,1.21,0,0,0-.36,1.2,0.756,0.756,0,0,0,.88.845c0.53,0,1.51-.031,1.94-0.031,0.59,0,.59.292,0.59,1.267s0,1.3-.59,1.3c-0.49,0-1.02-.032-1.51-0.065a0.17,0.17,0,0,0-.16.162,0.138,0.138,0,0,0,.1.13c0.16,0.065.29,0.131,0.45,0.2a1.984,1.984,0,0,1,1.25.78c0,0.294-.3.294-0.53,0.326a0.486,0.486,0,0,0-.35.26c-0.3.553-.5,1.171-0.79,1.724a0.968,0.968,0,0,0-.03.293,0.493,0.493,0,0,0,.59.488h1.57Zm-15.89-3.384a0.869,0.869,0,0,0,.92.879h0.46a0.861,0.861,0,0,0,.91-0.879v-1.658a0.928,0.928,0,0,0-.91-0.911h-0.46a0.937,0.937,0,0,0-.92.911V406.8Zm0,6.18a0.869,0.869,0,0,0,.92.879h0.46a0.861,0.861,0,0,0,.91-0.879v-1.756a0.861,0.861,0,0,0-.91-0.878h-0.46a0.869,0.869,0,0,0-.92.878v1.756Zm0,6.441a0.666,0.666,0,0,0,.69.78,1.1,1.1,0,0,0,.16-0.032l0.59-.1a0.86,0.86,0,0,0,.85-1.041v-1.691a0.763,0.763,0,0,0-.91-0.879h-0.46a0.77,0.77,0,0,0-.92.879v2.082Zm5.21-10.181a0.786,0.786,0,0,0,.88.91c0.85,0.065,1.94.034,2.79,0.034h1.27a1.131,1.131,0,0,0,1.25-.749,21.573,21.573,0,0,0,.95-2.9c0-.065.03-0.129,0.03-0.194a0.533,0.533,0,0,0-.59-0.521h-2.62c-0.85,0-1.7.065-2.42,0.065-0.56,0-.56-0.292-0.59-1.041a0.462,0.462,0,0,0-.36-0.52,0.714,0.714,0,0,0-.59.846v4.065Zm9.66,12.62c0,0.456.03,0.944,0.03,1.4a1.1,1.1,0,0,1-1.34,1.2c-0.49,0-1.01-.033-1.54-0.033h-1.5a0.784,0.784,0,0,0-.95.813c-0.04.749-.04,0.749-1.51,0.749-0.88,0-1.31.032-1.31-.619,0-.586.03-1.171,0.03-1.755v-6.409c0-.488-0.03-0.976-0.03-1.463a1.1,1.1,0,0,1,1.31-1.237c0.59,0,1.18.065,1.77,0.065h2c0.55,0,1.11-.065,1.7-0.065a1.112,1.112,0,0,1,1.37,1.2c0,0.519-.03,1.007-0.03,1.5v4.651Zm-6.61-11.937c-0.4,0-.6-0.585-0.92-1.56a12.263,12.263,0,0,1-.53-1.529c0-.488,1.28-0.749,1.67-0.749s0.56,0.2,1.02,1.5a8.975,8.975,0,0,1,.43,1.465C3097.57,409.567,3096.42,409.925,3095.9,409.925Zm2.06,7.059a0.753,0.753,0,0,0-.79.748,0.773,0.773,0,0,0,.79.747h1.21a0.767,0.767,0,0,0,.79-0.747,0.747,0.747,0,0,0-.79-0.748h-1.21Zm0,3.415a0.756,0.756,0,0,0-.79.78v0.065a0.757,0.757,0,0,0,.79.782h1.21a0.757,0.757,0,0,0,.79-0.782v-0.065a0.756,0.756,0,0,0-.79-0.78h-1.21Zm13.76-12.457a5.263,5.263,0,0,1-1.15.324,0.765,0.765,0,0,1-.62-0.683,35.854,35.854,0,0,0-1.87-4.065,0.869,0.869,0,0,1-.13-0.423c0-.586,1.6-0.975,1.9-0.975a0.7,0.7,0,0,1,.56.324,17.724,17.724,0,0,1,1.14,2.18,17.929,17.929,0,0,1,.95,2.536A0.87,0.87,0,0,1,3111.72,407.942Z" transform="translate(-2599.78 -359.875)"/>
  <path id="シェイプ_1" data-name="シェイプ 1" class="cls-2" d="M2788.71,379.453c0,0.5-.08.625-0.51,0.625-0.14,0-1.06-.043-1.71-0.043h-2.39c-0.51,0-.61-0.109-0.61-0.646V360.554c0-.538.1-0.646,0.61-0.646h2.39c0.65,0,1.57-.044,1.71-0.044,0.43,0,.51.13,0.51,0.626v0.8c0,0.517-.06.625-0.49,0.625-0.26,0-1.08-.023-1.73-0.023h-0.58c-0.49,0-.56.088-0.56,0.584v14.976c0,0.517.07,0.6,0.56,0.6h0.58c0.65,0,1.47-.022,1.73-0.022,0.43,0,.49.109,0.49,0.626v0.8Zm10.56-3.685c1.02,0,2.91-.044,3.06-0.044,0.42,0,.5.13,0.5,0.625v1.013c0,0.5-.08.625-0.5,0.625-0.15,0-2.04-.042-3.06-0.042h-2.62c-1.03,0-2.92.042-3.06,0.042-0.43,0-.5-0.129-0.5-0.625v-0.388a1.024,1.024,0,0,1,.48-1.056,13.412,13.412,0,0,0,1.02-.9c3.63-3.406,5.72-5.56,5.72-7.673a2.282,2.282,0,0,0-2.56-2.369,3.958,3.958,0,0,0-2.94,1.422,0.6,0.6,0,0,1-.42.3,0.753,0.753,0,0,1-.4-0.3l-0.81-.926a0.785,0.785,0,0,1-.24-0.453,0.74,0.74,0,0,1,.29-0.474,6.61,6.61,0,0,1,4.73-1.962c3.06,0,4.77,1.94,4.77,4.418,0,3.038-2.28,5.473-5.36,8.34a0.543,0.543,0,0,0-.22.3c0,0.085.12,0.129,0.36,0.129h1.76Zm20.45-5.775c0,5.129-2.76,8.123-6.13,8.123-3.22,0-5.77-2.606-5.77-7.521,0-4.416,2.11-7.993,6.08-7.993C2817.06,362.6,2819.72,365.079,2819.72,369.993Zm-9.55.667c0,3.362,1.39,5.151,3.42,5.151,2.16,0,3.77-2.22,3.77-5.732,0-3.384-1.47-5.064-3.46-5.064C2811.34,365.015,2810.17,367.622,2810.17,370.66Zm20.13,5.108c1.02,0,2.92-.044,3.06-0.044,0.42,0,.5.13,0.5,0.625v1.013c0,0.5-.08.625-0.5,0.625-0.14,0-2.04-.042-3.06-0.042h-2.62c-1.03,0-2.92.042-3.06,0.042-0.42,0-.5-0.129-0.5-0.625v-0.388a1.041,1.041,0,0,1,.48-1.056,13.54,13.54,0,0,0,1.03-.9c3.62-3.406,5.71-5.56,5.71-7.673a2.279,2.279,0,0,0-2.55-2.369,3.924,3.924,0,0,0-2.94,1.422,0.622,0.622,0,0,1-.42.3,0.732,0.732,0,0,1-.41-0.3l-0.8-.926a0.815,0.815,0,0,1-.25-0.453,0.787,0.787,0,0,1,.29-0.474,6.645,6.645,0,0,1,4.73-1.962c3.06,0,4.77,1.94,4.77,4.418,0,3.038-2.28,5.473-5.36,8.34a0.543,0.543,0,0,0-.22.3c0,0.085.12,0.129,0.37,0.129h1.75Zm20.45-5.775c0,5.129-2.76,8.123-6.12,8.123-3.22,0-5.78-2.606-5.78-7.521,0-4.416,2.11-7.993,6.08-7.993C2848.09,362.6,2850.75,365.079,2850.75,369.993Zm-9.55.667c0,3.362,1.39,5.151,3.43,5.151,2.15,0,3.76-2.22,3.76-5.732,0-3.384-1.47-5.064-3.46-5.064C2842.37,365.015,2841.2,367.622,2841.2,370.66Zm25.25-3.921a0.517,0.517,0,0,0,.56.6h1.61c0.71,0,1.39-.064,2.09-0.064,0.51,0,.51.237,0.51,1.1,0,0.84-.02,1.057-0.51,1.057-0.7,0-1.38-.044-2.09-0.044h-1.61a0.5,0.5,0,0,0-.56.6v1.917a0.5,0.5,0,0,0,.56.6h3.32c0.85,0,1.69-.044,2.54-0.044,0.5,0,.48.259,0.48,1.078,0,0.841.02,1.078-.48,1.078-0.85,0-1.69-.043-2.54-0.043h-3.32a0.5,0.5,0,0,0-.56.6v0.6c0,1.056.06,2.091,0.06,3.125,0,0.71-.26.71-1.17,0.71-0.89,0-1.15,0-1.15-.689,0-1.055.06-2.09,0.06-3.146v-0.6a0.5,0.5,0,0,0-.56-0.6h-5c-0.84,0-1.69.043-2.53,0.043-0.51,0-.49-0.237-0.49-1.056,0-.862-0.02-1.1.49-1.1,0.64,0,1.31.065,1.97,0.044a0.488,0.488,0,0,0,.5-0.6v-2.046c0-.54-0.02-1.056-0.02-1.595a0.818,0.818,0,0,1,.99-0.97c0.48,0,.97.042,1.45,0.042h2.64a0.517,0.517,0,0,0,.56-0.6V365.1a0.5,0.5,0,0,0-.56-0.6h-2.66a0.857,0.857,0,0,0-.85.452,20.98,20.98,0,0,1-2.75,3.556,1.268,1.268,0,0,1-.67.474,2.351,2.351,0,0,1-1.35-1.422,1.4,1.4,0,0,1,.51-0.646,15.2,15.2,0,0,0,4.12-6.552,0.31,0.31,0,0,1,.28-0.3,16.675,16.675,0,0,1,1.96.583,0.371,0.371,0,0,1,.34.3,0.379,0.379,0,0,1-.3.28,0.755,0.755,0,0,0-.51.626,1.574,1.574,0,0,0-.03.214,0.32,0.32,0,0,0,.36.323h7.31c0.82,0,1.63-.064,2.45-0.064,0.51,0,.49.281,0.49,1.12,0,0.819.02,1.1-.49,1.1-0.82,0-1.63-.043-2.45-0.043h-2.44a0.5,0.5,0,0,0-.56.6v1.637Zm-5.26,2.65a0.6,0.6,0,0,0-.56.6v1.917a0.582,0.582,0,0,0,.56.6h2.5a0.57,0.57,0,0,0,.56-0.6v-1.917a0.584,0.584,0,0,0-.56-0.6h-2.5Zm23.53-4.719a0.1,0.1,0,0,0-.12.109,0.421,0.421,0,0,0,.26.193,0.86,0.86,0,0,1,.6.5,0.252,0.252,0,0,1-.28.215,0.6,0.6,0,0,0-.52.431c-0.06.108-.12,0.215-0.22,0.367a0.644,0.644,0,0,0-.14.408,0.588,0.588,0,0,0,.17.432,19.552,19.552,0,0,0,1.43,1.358,0.543,0.543,0,0,1,.25.344,2.414,2.414,0,0,1-1.29,1.379,5.488,5.488,0,0,1-1.57-1.422,0.511,0.511,0,0,0-.36-0.195,0.5,0.5,0,0,0-.37.195c-0.54.647-1.55,1.745-2.15,2.305a0.922,0.922,0,0,1-.55.3,2.271,2.271,0,0,1-1.32-1.227,1.057,1.057,0,0,1,.44-0.561,23.416,23.416,0,0,0,3.86-4.633,0.325,0.325,0,0,0,.07-0.216,0.283,0.283,0,0,0-.33-0.28h-0.8c-0.79,0-1.59.042-2.38,0.042-0.48,0-.48-0.235-0.48-1.033,0-.819-0.02-1.077.48-1.077,0.79,0,1.59.043,2.38,0.043h3.76a0.512,0.512,0,0,0,.57-0.6,10.5,10.5,0,0,0-.09-1.229c0-.064-0.01-0.194-0.01-0.258a0.3,0.3,0,0,1,.38-0.3c0.34,0,1.33.108,1.71,0.152,0.18,0.021.54,0.021,0.54,0.3a0.391,0.391,0,0,1-.24.279,0.779,0.779,0,0,0-.22.711v0.366a0.478,0.478,0,0,0,.55.583h3.84c0.79,0,1.57-.043,2.38-0.043,0.5,0,.48.258,0.48,1.077,0,0.8,0,1.033-.48,1.033-0.81,0-1.59-.042-2.38-0.042h-0.52a0.1,0.1,0,0,0-.12.109,0.329,0.329,0,0,0,.1.129,1.214,1.214,0,0,1,.76.538,0.3,0.3,0,0,1-.34.237,0.583,0.583,0,0,0-.5.409l-0.21.3a0.885,0.885,0,0,0-.16.431,0.726,0.726,0,0,0,.16.452,21.605,21.605,0,0,0,2.72,2.716,0.889,0.889,0,0,1,.37.5,2.6,2.6,0,0,1-1.33,1.292c-0.49,0-2.58-2.413-2.98-2.888a0.454,0.454,0,0,0-.35-0.193,0.444,0.444,0,0,0-.34.172c-0.62.69-1.08,1.163-1.75,1.811a0.3,0.3,0,0,0-.1.171,0.163,0.163,0,0,0,.18.152c0.16,0.021.48,0.043,0.48,0.3a0.414,0.414,0,0,1-.24.3,0.563,0.563,0,0,0-.2.454,0.476,0.476,0,0,0,.55.56h4.34c0.85,0,1.67-.043,2.5-0.043,0.5,0,.48.258,0.48,1.077,0,0.8.02,1.077-.48,1.077-0.83,0-1.65-.065-2.5-0.065h-4.36a0.492,0.492,0,0,0-.55.6v1.53c0,0.689.04,1.4,0.04,2.091,0,0.667-.2.711-1.05,0.711-0.82,0-1.15.02-1.15-.69,0-.646.05-1.358,0.05-2.112v-1.53a0.5,0.5,0,0,0-.57-0.6h-4.29c-0.82,0-1.67.065-2.49,0.065-0.51,0-.49-0.28-0.49-1.077,0-.819,0-1.077.49-1.077,0.82,0,1.67.043,2.49,0.043h4.29a0.475,0.475,0,0,0,.55-0.583c0-.15-0.03-0.323-0.04-0.5a0.978,0.978,0,0,0-.27-0.537,0.873,0.873,0,0,1-.28-0.475,1.152,1.152,0,0,1,.44-0.56,22.873,22.873,0,0,0,4.27-4.827,0.366,0.366,0,0,0,.06-0.194,0.275,0.275,0,0,0-.32-0.28h-5.19Zm30.25-3.793a0.263,0.263,0,0,1,.22-0.215c0.08,0,1.81.711,1.81,1.013a0.242,0.242,0,0,1-.26.194,0.51,0.51,0,0,0-.38.193c-0.18.388-.61,1.142-0.81,1.509a0.315,0.315,0,0,0-.06.193,0.26,0.26,0,0,0,.3.281c0.73,0,1.45-.043,2.18-0.043,0.44,0,.44.237,0.44,0.906,0,0.646,0,.883-0.44.883-0.85,0-1.67-.044-2.52-0.044h-0.78c-0.06,0-.06.044-0.02,0.086a0.392,0.392,0,0,1,.06.129,0.331,0.331,0,0,1-.28.238,0.551,0.551,0,0,0-.41.258c-0.08.194-.18,0.41-0.26,0.6a0.723,0.723,0,0,0-.06.194,0.337,0.337,0,0,0,.38.323h0.53c0.82,0,1.63-.042,2.45-0.042,0.47,0,.45.279,0.45,0.861,0,0.518.02,0.841-.43,0.841-0.82,0-1.65-.044-2.47-0.044h-3.43a0.337,0.337,0,0,0-.38.41v0.172a0.337,0.337,0,0,0,.38.41h2.4c0.76,0,1.53-.044,2.31-0.044,0.47,0,.47.238,0.47,0.842s0,0.839-.47.839c-0.78,0-1.55-.043-2.31-0.043h-2.4a0.329,0.329,0,0,0-.38.388v0.195a0.336,0.336,0,0,0,.38.408h4.51c0.85,0,1.7-.043,2.56-0.043,0.46,0,.46.216,0.46,0.862s0,0.884-.44.884c-0.87,0-1.73-.043-2.58-0.043h-2.57a0.173,0.173,0,0,0-.2.172,0.184,0.184,0,0,0,.07.152,18.947,18.947,0,0,0,5.02,2.585c0.46,0.15.66,0.258,0.66,0.517a1.949,1.949,0,0,1-1.12,1.423,12.029,12.029,0,0,1-2.4-.992,19.534,19.534,0,0,1-3.93-2.715,0.25,0.25,0,0,0-.2-0.087,0.268,0.268,0,0,0-.22.3v0.194c0,0.948.06,1.918,0.06,2.887,0,0.734-.22.754-1.15,0.754-0.88,0-1.12-.02-1.12-0.731,0-.971.06-1.94,0.06-2.91v-0.15c-0.02-.173-0.06-0.3-0.25-0.3a0.307,0.307,0,0,0-.18.064,21.572,21.572,0,0,1-4.65,3.039,7.926,7.926,0,0,1-1.67.667,2.04,2.04,0,0,1-1.11-1.485c0-.26.27-0.346,0.71-0.5a22.425,22.425,0,0,0,4.95-2.564,0.235,0.235,0,0,0,.08-0.173,0.162,0.162,0,0,0-.18-0.151h-2.44c-0.84,0-1.71.043-2.57,0.043-0.45,0-.45-0.259-0.45-0.884s0-.862.45-0.862c0.86,0,1.73.043,2.57,0.043h4.35a0.35,0.35,0,0,0,.39-0.408v-0.173a0.343,0.343,0,0,0-.39-0.41h-2.27c-0.77,0-1.55.043-2.32,0.043-0.48,0-.46-0.237-0.46-0.839,0-.625,0-0.842.46-0.842,0.77,0,1.55.044,2.32,0.044h2.27a0.343,0.343,0,0,0,.39-0.41v-0.172a0.343,0.343,0,0,0-.39-0.41h-3.24c-0.82,0-1.65.044-2.48,0.044-0.44,0-.42-0.346-0.42-0.841,0-.582-0.02-0.861.44-0.861,0.83,0,1.64.042,2.46,0.042h0.46a0.329,0.329,0,0,0,.37-0.323,0.671,0.671,0,0,0-.04-0.194c-0.12-.279-0.24-0.539-0.39-0.819a0.714,0.714,0,0,0-.74-0.5h-0.52c-0.85,0-1.67.044-2.52,0.044-0.44,0-.44-0.237-0.44-0.883s0-.906.44-0.906c0.66,0,1.33.043,1.99,0.043h0.22a0.251,0.251,0,0,0,.29-0.258,0.284,0.284,0,0,0-.05-0.194,17.838,17.838,0,0,0-1.22-1.768,0.827,0.827,0,0,1-.19-0.344,2.023,2.023,0,0,1,1.41-.84,0.635,0.635,0,0,1,.53.409q0.06,0.1.18,0.258a10.826,10.826,0,0,1,1.27,2,0.965,0.965,0,0,1-.65.561,0.165,0.165,0,0,0-.04.085,0.082,0.082,0,0,0,.1.087h0.99a0.5,0.5,0,0,0,.57-0.581V362.8c0-.69-0.03-1.38-0.08-2.069,0-.065-0.02-0.129-0.02-0.194a0.286,0.286,0,0,1,.34-0.323c0.28,0,1.37.129,1.69,0.171,0.2,0.023.48,0.044,0.48,0.3a0.4,0.4,0,0,1-.24.323,1.594,1.594,0,0,0-.24,1.186v1.272a0.487,0.487,0,0,0,.56.581h0.59a0.487,0.487,0,0,0,.56-0.581v-1.229a9.268,9.268,0,0,0-.08-1.487v-0.194a0.273,0.273,0,0,1,.34-0.3c0.26,0,1.33.108,1.63,0.152,0.18,0.021.53,0.042,0.53,0.3a0.432,0.432,0,0,1-.25.3,1.245,1.245,0,0,0-.22.992v1.466a0.484,0.484,0,0,0,.49.581,0.336,0.336,0,0,0,.28-0.193A27.76,27.76,0,0,0,2914.97,360.877Zm-4.17,6.7a0.747,0.747,0,0,0,.81-0.5c0.12-.258.24-0.538,0.38-0.819a0.419,0.419,0,0,0,.04-0.172,0.341,0.341,0,0,0-.38-0.345H2908a0.321,0.321,0,0,0-.36.323,0.664,0.664,0,0,0,.04.194c0.5,1.077.5,1.315,1.03,1.315h2.09Zm13.02,10.451c0.26,0,1.08.022,1.73,0.022h0.58c0.48,0,.57-0.086.57-0.6V362.473c0-.5-0.09-0.584-0.57-0.584h-0.58c-0.65,0-1.47.023-1.73,0.023-0.43,0-.49-0.108-0.49-0.625v-0.8c0-.5.08-0.626,0.51-0.626,0.14,0,1.06.044,1.71,0.044h2.39c0.51,0,.61.108,0.61,0.646v18.835c0,0.537-.1.646-0.61,0.646h-2.39c-0.65,0-1.57.043-1.71,0.043-0.43,0-.51-0.129-0.51-0.625v-0.8C2923.33,378.139,2923.39,378.03,2923.82,378.03Z" transform="translate(-2599.78 -359.875)"/>
</svg>
