<svg xmlns="http://www.w3.org/2000/svg" width="312.313" height="57.75" viewBox="0 0 312.313 57.75">
  <defs>
    <style>
      .cls-1 {
        fill: #4da5dc;
        fill-rule: evenodd;
      }
    </style>
  </defs>
  <path id="様々な職種に触れたうえで_進路を決定_" data-name="様々な職種に触れたうえで 進路を決定！" class="cls-1" d="M581.835,6400.32c0-.43-0.312-1.39-0.7-1.39a0.955,0.955,0,0,0-.288.14,32.088,32.088,0,0,1-4.465,2.4,0.308,0.308,0,0,0-.24.27c0,0.21.961,2.18,1.321,2.18a0.356,0.356,0,0,0,.288-0.33,0.63,0.63,0,0,1,.48-0.63c1.176-.7,2.112-1.25,3.192-2.02A0.669,0.669,0,0,0,581.835,6400.32Zm-1.272-2.45a4.532,4.532,0,0,0-1.272-1.27,2.318,2.318,0,0,0-.216-0.14,3.082,3.082,0,0,0-.912-0.53,2.433,2.433,0,0,0-.96,1.46,0.267,0.267,0,0,0,.168.27,16.593,16.593,0,0,1,1.512,1.22,1.171,1.171,0,0,0,.6.38A2.186,2.186,0,0,0,580.563,6397.87Zm1.728-11.42a6.03,6.03,0,0,0-.672-1.39,2.455,2.455,0,0,0-1.08-1.3c-0.288,0-1.752.48-1.752,0.91a1.111,1.111,0,0,0,.168.36c0.408,0.65.7,1.15,0.888,1.51a1.077,1.077,0,0,0,.672.8C580.827,6387.34,582.291,6386.86,582.291,6386.45Zm3.36,11.11a9.141,9.141,0,0,1-.72-1.15,0.815,0.815,0,0,1-.1-0.34,0.417,0.417,0,0,1,.456-0.36h2.04c0.84,0,1.7.05,2.545,0.05,0.552,0,.528-0.29.528-0.98s0.024-.99-0.528-0.99c-0.84,0-1.681.05-2.545,0.05h-2.112a0.484,0.484,0,0,1-.576-0.55v-0.24a0.5,0.5,0,0,1,.576-0.58h1.416c0.792,0,1.56.05,2.353,0.05,0.528,0,.5-0.29.5-0.94s0.024-.91-0.529-0.91c-0.768,0-1.56.03-2.328,0.03h-1.416a0.487,0.487,0,0,1-.576-0.56v-0.19a0.484,0.484,0,0,1,.576-0.55h1.728c0.864,0,1.728.05,2.593,0.05,0.552,0,.528-0.29.528-0.99s0.024-.98-0.528-0.98c-0.744,0-1.465.05-2.209,0.05a0.36,0.36,0,0,1-.384-0.31,0.335,0.335,0,0,1,.072-0.22c0.312-.53.6-1.08,0.96-1.58a0.514,0.514,0,0,1,.312-0.27c0.313-.07.5-0.09,0.5-0.31a0.676,0.676,0,0,0-.553-0.43c-0.24-.12-1.656-0.79-1.776-0.79a0.409,0.409,0,0,0-.336.38,24.629,24.629,0,0,1-1.584,3.05,0.916,0.916,0,0,1-.96.48h-3.024c-0.84,0-1.7-.05-2.568-0.05-0.528,0-.528.24-0.528,0.96,0,0.74-.025,1.01.528,1.01,0.864,0,1.728-.05,2.568-0.05h1.152a0.484,0.484,0,0,1,.576.55v0.19a0.487,0.487,0,0,1-.576.56h-0.864c-0.792,0-1.56-.03-2.352-0.03-0.552,0-.528.27-0.528,0.91s-0.024.94,0.5,0.94c0.792,0,1.584-.05,2.376-0.05h0.864a0.494,0.494,0,0,1,.576.58v0.24a0.484,0.484,0,0,1-.576.55h-1.488c-0.84,0-1.68-.05-2.52-0.05-0.553,0-.553.27-0.553,0.99,0,0.67-.024.98,0.529,0.98,0.84,0,1.7-.05,2.544-0.05h1.392a0.569,0.569,0,0,1,.672.67v5.19c0,1.2-.024,1.46-0.96,1.46-0.192,0-.456-0.02-0.72-0.04a1.982,1.982,0,0,0-.408-0.03,0.482,0.482,0,0,0-.5.55,3.977,3.977,0,0,0,.288,1.4,0.993,0.993,0,0,0,.912.31,5.256,5.256,0,0,0,3.072-.67,2.352,2.352,0,0,0,.72-1.92c0-.41-0.048-0.82-0.048-1.23v-1.44a0.237,0.237,0,0,1,.192-0.24,0.241,0.241,0,0,1,.168.1,14.682,14.682,0,0,0,2.688,3,5.537,5.537,0,0,0,1.465.98,2.228,2.228,0,0,0,1.488-1.39,1.09,1.09,0,0,0-.624-0.65,19.091,19.091,0,0,1-2.281-1.77,0.7,0.7,0,0,1-.192-0.41,0.629,0.629,0,0,1,.24-0.44,13.033,13.033,0,0,0,1.369-1.17,0.531,0.531,0,0,1,.336-0.12,0.71,0.71,0,0,1,.192.02,1.453,1.453,0,0,0,.144.03,0.243,0.243,0,0,0,.24-0.24,1.454,1.454,0,0,0-.5-0.72c-0.192-.2-0.408-0.44-0.576-0.63a1.173,1.173,0,0,0-.553-0.45,0.571,0.571,0,0,0-.312.21,20.423,20.423,0,0,1-1.608,1.59,0.589,0.589,0,0,1-.408.19A0.606,0.606,0,0,1,585.651,6397.56Zm-10.993-6.24a0.647,0.647,0,0,1-.072-0.29,0.527,0.527,0,0,1,.576-0.57c0.336,0,1.056.04,1.272,0.04,0.528,0,.48-0.38.48-1.17s0.048-1.15-.48-1.15c-0.1,0-1.056.04-1.224,0.04a0.574,0.574,0,0,1-.648-0.67v-1.63a1.807,1.807,0,0,1,.264-1.39,0.5,0.5,0,0,0,.312-0.36c0-.29-0.384-0.29-0.576-0.31-0.36-.05-1.632-0.17-1.944-0.17-0.216,0-.408.05-0.408,0.29v0.24a9.934,9.934,0,0,1,.1,1.75v1.58a0.569,0.569,0,0,1-.672.67h-0.168c-0.672,0-1.368-.04-1.752-0.04-0.5,0-.48.33-0.48,1.17,0,0.79-.024,1.15.48,1.15,0.384,0,1.032-.09,1.632-0.07a0.47,0.47,0,0,1,.552.46c0,0.07-.024.12-0.024,0.17a31,31,0,0,1-2.952,7.2,1.781,1.781,0,0,0-.312.74,2.376,2.376,0,0,0,1.416,1.54,0.685,0.685,0,0,0,.5-0.48,24.707,24.707,0,0,0,1.584-3.63,0.1,0.1,0,0,1,.1-0.07c0.024,0,.1,0,0.1.12v4.63c0,1.11-.072,2.24-0.072,3.34,0,0.72.264,0.72,1.224,0.72,0.936,0,1.176-.02,1.176-0.72,0-1.1-.072-2.23-0.072-3.34v-5.88a0.188,0.188,0,0,1,.168-0.19,0.241,0.241,0,0,1,.168.1,2.8,2.8,0,0,0,1.008,1.27c0.384,0,1.081-1.35,1.081-1.68a0.769,0.769,0,0,0-.241-0.43A14.5,14.5,0,0,1,574.658,6391.32Zm31.729-1.13c-0.168,0-.5.03-0.5-0.29a0.732,0.732,0,0,1,.1-0.33,22.422,22.422,0,0,0,1.3-2.76,0.575,0.575,0,0,1,.48-0.48,0.465,0.465,0,0,0,.456-0.41c0-.29-0.408-0.46-1.176-0.84a5.486,5.486,0,0,0-1.416-.53,0.447,0.447,0,0,0-.432.46c-0.144.48-.528,1.44-0.744,1.92a24.325,24.325,0,0,1-3.793,6,17.677,17.677,0,0,1-3.792,3.57,0.506,0.506,0,0,0-.336.41,3.3,3.3,0,0,0,1.608,1.8c0.456,0,1.776-1.25,2.16-1.61a29.1,29.1,0,0,0,3.529-3.98,1.052,1.052,0,0,1,1.056-.55h5.184c0.312,0,.816.02,0.816,0.43a5.925,5.925,0,0,1-1.152,1.68c-0.552.7-1.92,2.47-2.352,2.95a0.63,0.63,0,0,1-.48.34,0.772,0.772,0,0,1-.5-0.24,11.812,11.812,0,0,0-2.568-1.63,3.223,3.223,0,0,0-1.7,1.68,0.619,0.619,0,0,0,.336.43,26.943,26.943,0,0,1,6.481,5.88,1.254,1.254,0,0,0,.6.55,2.818,2.818,0,0,0,1.68-1.63c0-.58-1.584-2.18-2.016-2.64a0.7,0.7,0,0,1-.264-0.51,0.711,0.711,0,0,1,.216-0.47c1.32-1.54,4.488-5.77,5.76-6.8a0.833,0.833,0,0,0,.409-0.57,2.969,2.969,0,0,0-1.825-1.97,2.358,2.358,0,0,0-.456.05,2.528,2.528,0,0,1-.816.09h-5.832Zm26.64,9.99c1.2,0,1.224.26,1.224,0.74a1.124,1.124,0,0,1-1.248,1.3c-0.624,0-1.584-.39-1.584-1.13C631.419,6400.32,632.451,6400.18,633.027,6400.18Zm1.176-8.48a0.488,0.488,0,0,0-.576.53c0,0.12.024,0.22,0.024,0.34,0.072,0.93.432,4.41,0.432,5.18a0.422,0.422,0,0,1-.5.41h-0.624c-1.9,0-3.985.77-3.985,2.98,0,2.23,2.281,3.26,4.225,3.26,1.632,0,3.048-.6,3.336-2.35a0.524,0.524,0,0,1,.384-0.55,6.907,6.907,0,0,1,1.92,1.1,1.23,1.23,0,0,0,.624.34c0.6,0,1.488-1.37,1.488-1.75,0-.58-2.832-1.9-3.384-2.12-0.072-.02-0.168-0.07-0.24-0.09a0.945,0.945,0,0,1-.744-0.6c-0.12-.51-0.24-3.96-0.24-4.66,0-.5.048-1.22,0.048-1.27a0.549,0.549,0,0,0-.48-0.51A10.692,10.692,0,0,0,634.2,6391.7Zm3.672-3.69a3.1,3.1,0,0,0-1.608,1.65,0.63,0.63,0,0,0,.312.39,13.614,13.614,0,0,1,3,3.09,0.8,0.8,0,0,0,.528.44,2.914,2.914,0,0,0,1.8-1.66C641.908,6391.3,638.475,6388.01,637.875,6388.01Zm-8.065-3.91c-0.216,0-.216.24-0.216,0.4a14.694,14.694,0,0,1-.768,4.04,0.826,0.826,0,0,1-.72.38,20.46,20.46,0,0,1-2.472.12h-1.1a0.347,0.347,0,0,0-.432.38c0,0.24.12,1.11,0.168,1.4,0.1,0.55.192,0.76,0.6,0.76,0.552,0,2.4-.24,2.592-0.24a0.325,0.325,0,0,1,.336.32,9.274,9.274,0,0,1-.552,1.46,44.068,44.068,0,0,1-2.856,5.54,2.722,2.722,0,0,0-.432.87c0,0.5,1.608,1.2,2.136,1.2a0.484,0.484,0,0,0,.48-0.34,60.931,60.931,0,0,0,3.913-8.54c0.288-.79.264-0.96,1.128-1.11,2.208-.4,2.5-0.45,2.5-0.98a11.141,11.141,0,0,0-.12-1.27c-0.048-.29-0.072-0.72-0.36-0.72a0.687,0.687,0,0,0-.24.05,12.019,12.019,0,0,1-1.368.36,0.286,0.286,0,0,1-.264-0.32,8.064,8.064,0,0,1,.264-1.08,4.231,4.231,0,0,1,.432-1.27,0.7,0.7,0,0,0,.384-0.43,0.49,0.49,0,0,0-.384-0.29C632.067,6384.67,630.074,6384.1,629.81,6384.1Zm30,14.49a0.556,0.556,0,0,1,.576.58v0.05a0.553,0.553,0,0,1-.576.57h-0.888a0.553,0.553,0,0,1-.576-0.57v-0.05a0.556,0.556,0,0,1,.576-0.58h0.888Zm0-2.52a0.551,0.551,0,0,1,.576.55,0.565,0.565,0,0,1-.576.56h-0.888a0.565,0.565,0,0,1-.576-0.56,0.551,0.551,0,0,1,.576-0.55h0.888Zm2.448,0.17c0-.36.024-0.72,0.024-1.1a0.819,0.819,0,0,0-1.008-.89c-0.432,0-.84.05-1.248,0.05h-1.464c-0.432,0-.864-0.05-1.3-0.05a0.809,0.809,0,0,0-.961.91c0,0.36.024,0.72,0.024,1.08v4.73c0,0.43-.024.86-0.024,1.29,0,0.49.312,0.46,0.961,0.46,1.08,0,1.08,0,1.1-.55a0.577,0.577,0,0,1,.7-0.6h1.1c0.384,0,.768.02,1.128,0.02a0.809,0.809,0,0,0,.984-0.89c0-.33-0.024-0.69-0.024-1.03v-3.43Zm7.321-7.42a13.969,13.969,0,0,0-.7-1.87,12.932,12.932,0,0,0-.841-1.61,0.5,0.5,0,0,0-.408-0.24c-0.216,0-1.392.29-1.392,0.72a0.729,0.729,0,0,0,.1.32,25.647,25.647,0,0,1,1.369,3,0.563,0.563,0,0,0,.456.5,3.791,3.791,0,0,0,.84-0.24A0.643,0.643,0,0,0,669.58,6388.82Zm-18.218,7.52a0.563,0.563,0,0,1,.672-0.65h0.336a0.563,0.563,0,0,1,.672.65v1.24a0.637,0.637,0,0,1-.624.77l-0.432.08c-0.024,0-.072.02-0.12,0.02a0.49,0.49,0,0,1-.5-0.58v-1.53Zm0-4.52a0.634,0.634,0,0,1,.672-0.64h0.336a0.634,0.634,0,0,1,.672.64v1.3a0.637,0.637,0,0,1-.672.65h-0.336a0.637,0.637,0,0,1-.672-0.65v-1.3Zm0-4.48a0.694,0.694,0,0,1,.672-0.68h0.336a0.694,0.694,0,0,1,.672.68v1.22a0.637,0.637,0,0,1-.672.65h-0.336a0.637,0.637,0,0,1-.672-0.65v-1.22Zm3.816,0.02a0.519,0.519,0,0,1,.432-0.62,0.336,0.336,0,0,1,.264.38c0.024,0.55.024,0.77,0.432,0.77,0.529,0,1.153-.05,1.777-0.05H660a0.389,0.389,0,0,1,.432.38c0,0.05-.024.1-0.024,0.15a17.191,17.191,0,0,1-.7,2.13,0.825,0.825,0,0,1-.912.56h-0.936c-0.624,0-1.416.02-2.041-.03a0.576,0.576,0,0,1-.648-0.67v-3Zm6.673,3.7a0.364,0.364,0,0,1-.432-0.36,0.659,0.659,0,0,1,.024-0.22c0.216-.41.36-0.86,0.576-1.27a0.349,0.349,0,0,1,.264-0.19c0.168-.03.384-0.03,0.384-0.24a1.409,1.409,0,0,0-.912-0.58c-0.12-.05-0.216-0.1-0.336-0.14a0.111,0.111,0,0,1-.072-0.1,0.127,0.127,0,0,1,.12-0.12c0.36,0.02.744,0.05,1.1,0.05,0.432,0,.432-0.24.432-0.96s0-.94-0.432-0.94c-0.312,0-1.032.03-1.416,0.03a0.561,0.561,0,0,1-.648-0.63,0.908,0.908,0,0,1,.264-0.89,0.433,0.433,0,0,0,.288-0.31c0-.26-0.432-0.26-0.648-0.29-0.48-.04-1.344-0.12-1.8-0.12-0.216,0-.432.03-0.432,0.29,0,0.07.024,0.17,0.024,0.24,0.048,0.36.072,0.72,0.1,1.08a0.563,0.563,0,0,1-.624.63h-0.456c-0.552,0-.913-0.05-0.936-0.65-0.024-.55.047-0.91-0.553-0.91-0.432,0-1.1.04-1.728,0.04h-3.264c-0.6,0-1.3-.04-1.728-0.04-0.576,0-.552.28-0.552,1.12,0,0.96.024,1.11,0.576,1.13a0.386,0.386,0,0,1,.432.43v11.07a0.527,0.527,0,0,1-.528.62c-0.5.05-.888,0.05-0.888,0.34a14.8,14.8,0,0,0,.456,1.75c0.144,0.51.192,0.72,0.432,0.72a0.379,0.379,0,0,0,.36-0.31,0.478,0.478,0,0,1,.336-0.31c0.912-.19,1.824-0.36,2.76-0.6,0.048,0,.12-0.03.192-0.03a0.458,0.458,0,0,1,.456.55v0.25c0,1.12-.048,2.25-0.048,3.38,0,0.67.312,0.67,1.1,0.67,0.912,0,1.128,0,1.128-.77,0-1.1-.048-2.18-0.048-3.28v-7.49a0.587,0.587,0,0,1,.648-0.68c0.672-.04,1.369-0.02,2.041-0.02h5.184a0.564,0.564,0,0,1,.672.62c0.072,1.78.264,3.41,0.48,5.14a1.311,1.311,0,0,1,.024.29,1.108,1.108,0,0,1-.312.77,20.433,20.433,0,0,1-3.312,2.95,1.081,1.081,0,0,0-.6.67,2.048,2.048,0,0,0,1.272,1.35c0.48,0,2.664-2.02,3.1-2.45a0.422,0.422,0,0,1,.312-0.12,0.409,0.409,0,0,1,.336.28c0.384,1.18,1.032,2.79,2.5,2.79,1.273,0,1.633-.99,1.969-1.99a15.691,15.691,0,0,0,.6-2.86c0-.65-0.936-0.89-1.3-0.89a0.372,0.372,0,0,0-.457.39c-0.047.4-.239,2.52-0.7,2.52-0.336,0-.936-2.09-0.936-2.5a1.112,1.112,0,0,1,.264-0.72,23.435,23.435,0,0,0,1.9-3.29,0.833,0.833,0,0,1,.552-0.6,0.449,0.449,0,0,0,.408-0.31,1.052,1.052,0,0,0-.672-0.62,3.362,3.362,0,0,0-1.321-.72,0.38,0.38,0,0,0-.336.33,17.534,17.534,0,0,1-1.008,2.16,0.249,0.249,0,0,1-.192.15,0.232,0.232,0,0,1-.192-0.22c-0.072-.84-0.12-1.68-0.168-2.52a0.558,0.558,0,0,1,.648-0.6c0.84-.02,1.681.05,2.521,0.05,0.552,0,.528-0.31.528-1.03,0-.7.024-1.01-0.528-1.01-0.84,0-1.681.05-2.5,0.05h-0.072a0.567,0.567,0,0,1-.672-0.63v-5.06c0-.46,0-0.6.24-0.72a0.5,0.5,0,0,0,.36-0.39c0-.28-0.288-0.28-0.648-0.33-0.312-.03-1.512-0.15-1.752-0.15a0.376,0.376,0,0,0-.456.41c0,0.19.048,0.79,0.048,1.3v0.81c0,1.37.024,2.74,0.024,4.11a0.564,0.564,0,0,1-.672.65h-1.152Zm-3.216-.84a6.354,6.354,0,0,0-.312-1.08c-0.336-.96-0.456-1.11-0.744-1.11s-1.224.19-1.224,0.55a8.512,8.512,0,0,0,.384,1.13c0.24,0.72.384,1.15,0.672,1.15C657.8,6390.86,658.635,6390.6,658.635,6390.22Zm27.24,5.85a0.534,0.534,0,0,1,.552-0.57H687.6a0.553,0.553,0,0,1,.576.57v0.34a0.537,0.537,0,0,1-.576.57h-1.176a0.519,0.519,0,0,1-.552-0.57v-0.34Zm5.064,0.91a0.537,0.537,0,0,1-.576-0.57v-0.34a0.553,0.553,0,0,1,.576-0.57h1.176a0.553,0.553,0,0,1,.576.57v0.34a0.537,0.537,0,0,1-.576.57h-1.176Zm-3.336-4.36a0.553,0.553,0,0,1,.576.57v0.24a0.556,0.556,0,0,1-.576.58h-1.176a0.537,0.537,0,0,1-.552-0.58v-0.24a0.534,0.534,0,0,1,.552-0.57H687.6Zm5.088,0.81a0.556,0.556,0,0,1-.576.58h-1.176a0.556,0.556,0,0,1-.576-0.58v-0.24a0.553,0.553,0,0,1,.576-0.57h1.176a0.553,0.553,0,0,1,.576.57v0.24Zm-1.656-5.47a0.58,0.58,0,0,1-.672-0.67v-0.34a0.629,0.629,0,0,1,.648-0.74c0.336-.05,3.289-0.51,3.336-0.51a0.867,0.867,0,0,1,.361.1,1.579,1.579,0,0,0,.264.05,0.217,0.217,0,0,0,.24-0.19,4.866,4.866,0,0,0-.7-1.32,1.237,1.237,0,0,0-.7-0.77,0.822,0.822,0,0,0-.264.05,40.627,40.627,0,0,1-9.456,1.1c-0.432,0-.792-0.02-0.792.41a3.341,3.341,0,0,0,.336,1.37,0.693,0.693,0,0,0,.72.24c0.312,0,2.9-.17,3.264-0.22a0.47,0.47,0,0,1,.552.53v0.33a0.5,0.5,0,0,1-.576.58h-2.04c-0.768,0-1.512-.05-2.28-0.05-0.553,0-.529.34-0.529,0.99,0,0.67-.024.96,0.529,0.96,0.768,0,1.536-.05,2.28-0.05h2.16a0.394,0.394,0,0,1,.456.45v0.29a0.408,0.408,0,0,1-.48.46h-1.464c-0.528,0-1.056-.05-1.584-0.05a0.875,0.875,0,0,0-1.032,1.06c0,0.48.048,0.98,0.048,1.46v2.66c0,0.48-.048.96-0.048,1.47a0.876,0.876,0,0,0,1.056,1.05c0.5,0,1.032-.04,1.56-0.04H687.6a0.493,0.493,0,0,1,.576.55v0.07a0.5,0.5,0,0,1-.576.58h-1.536c-0.816,0-1.632-.05-2.448-0.05-0.481,0-.456.26-0.456,0.89s-0.025.88,0.48,0.88c0.816,0,1.632-.04,2.424-0.04H687.6a0.5,0.5,0,0,1,.576.57v0.12a0.5,0.5,0,0,1-.576.56h-2.952c-0.816,0-1.656-.05-2.5-0.05-0.552,0-.552.26-0.552,1s0,1.01.552,1.01c0.841,0,1.681-.05,2.5-0.05h8.424c0.84,0,1.681.05,2.521,0.05,0.552,0,.528-0.31.528-1.01s0.024-1-.552-1c-0.84,0-1.657.05-2.5,0.05h-2.136a0.487,0.487,0,0,1-.576-0.56v-0.12a0.487,0.487,0,0,1,.576-0.57h1.416c0.816,0,1.632.04,2.449,0.04,0.48,0,.48-0.26.48-0.88s0-.89-0.48-0.89c-0.817,0-1.633.05-2.449,0.05h-1.416a0.494,0.494,0,0,1-.576-0.58v-0.07a0.484,0.484,0,0,1,.576-0.55h1.392c0.528,0,1.056.04,1.584,0.04a0.879,0.879,0,0,0,1.009-1.1c0-.48-0.024-0.96-0.024-1.42v-2.66c0-.48.024-0.98,0.024-1.46a0.875,0.875,0,0,0-1.057-1.06c-0.5,0-1.032.05-1.536,0.05h-1.512a0.4,0.4,0,0,1-.456-0.46v-0.29a0.394,0.394,0,0,1,.456-0.45h2.232c0.768,0,1.512.05,2.281,0.05,0.528,0,.528-0.29.528-0.96s0.024-.99-0.528-0.99c-0.769,0-1.513.05-2.281,0.05h-2.016Zm-10.609,7.99c0.24,0.39,1.248,1.95,1.656,1.95a2.329,2.329,0,0,0,1.056-1.54,0.716,0.716,0,0,0-.312-0.55,20.1,20.1,0,0,1-2.256-2.91,0.41,0.41,0,0,1-.1-0.24,0.362,0.362,0,0,1,.408-0.31c0.528,0,1.128.05,1.633,0.05,0.527,0,.48-0.41.48-1.2,0-.82.047-1.2-0.48-1.2-0.481,0-1.129.07-1.777,0.05a0.563,0.563,0,0,1-.672-0.65v-2.06a0.794,0.794,0,0,1,.6-0.89c0.1-.03.336-0.12,0.576-0.22a9.314,9.314,0,0,1,.888-0.31,0.359,0.359,0,0,1,.144.02,1.319,1.319,0,0,0,.36.08,0.227,0.227,0,0,0,.241-0.22,4.586,4.586,0,0,0-.6-1.03c-0.12-.17-0.216-0.31-0.288-0.43a1.361,1.361,0,0,0-.672-0.75,0.519,0.519,0,0,0-.192.07,15.693,15.693,0,0,1-5.328,1.8c-0.672.12-.96,0.12-0.96,0.48,0,0.32.36,1.78,0.96,1.78a10.256,10.256,0,0,0,1.392-.24,0.359,0.359,0,0,1,.144-0.02,0.452,0.452,0,0,1,.48.52v1.42a0.563,0.563,0,0,1-.672.65c-0.672.02-1.344-.05-1.8-0.05-0.5,0-.48.34-0.48,1.2,0,0.84-.048,1.2.48,1.2,0.312,0,1.1-.05,1.512-0.05a0.438,0.438,0,0,1,.5.41,0.554,0.554,0,0,1-.048.19,34.109,34.109,0,0,1-2.76,6.19,1.755,1.755,0,0,0-.336.72,2.269,2.269,0,0,0,1.416,1.37,0.792,0.792,0,0,0,.576-0.53,20.881,20.881,0,0,0,1.368-2.9,0.132,0.132,0,0,1,.12-0.07,0.121,0.121,0,0,1,.12.14v3.27c0,1.1-.072,2.23-0.072,3.33,0,0.72.216,0.77,1.2,0.77s1.2-.05,1.2-0.79c0-1.1-.072-2.21-0.072-3.31v-5.07a0.209,0.209,0,0,1,.192-0.21A0.229,0.229,0,0,1,680.426,6395.95Zm30.193,1.99c-0.456,0-1.3,1.71-1.3,2.05,0,0.38,1.608,2.4,5.5,2.4a27.207,27.207,0,0,0,5.688-.73,0.916,0.916,0,0,0,.288-0.88c0-1.23-.047-1.8-0.432-1.8a2.011,2.011,0,0,0-.5.09,19.644,19.644,0,0,1-5.28.77,4.117,4.117,0,0,1-3.648-1.68A0.417,0.417,0,0,0,710.619,6397.94Zm0.552-10.39c-0.384,0-.5.36-0.5,1.51a1.17,1.17,0,0,0,.24.94c0.5,0.34,3.456.48,4.2,0.48a26.879,26.879,0,0,0,4.032-.34c0.456-.09.456-0.28,0.456-0.79a11.661,11.661,0,0,0-.1-1.29,0.54,0.54,0,0,0-.48-0.58,2.708,2.708,0,0,0-.432.07,15.581,15.581,0,0,1-3.648.48,15.125,15.125,0,0,1-3.144-.36A3.024,3.024,0,0,0,711.171,6387.55Zm-5.761-1.87a0.508,0.508,0,0,0-.36.53,11.039,11.039,0,0,1-.312,1.2,28.69,28.69,0,0,0-1.224,7.94,16.537,16.537,0,0,0,1.464,7.37,1.651,1.651,0,0,0,1.008,1.18c0.5,0,1.872-.58,1.872-1.18a2.211,2.211,0,0,0-.048-0.36c-0.024-.21-0.1-0.77-0.1-1.01a18.476,18.476,0,0,1,.96-3.48,1.328,1.328,0,0,0-.864-0.77,0.79,0.79,0,0,0-.5.58,1.88,1.88,0,0,1-.648.94c-0.552,0-.648-2.91-0.648-3.36a19.081,19.081,0,0,1,1.344-6.82,1.522,1.522,0,0,1,.744-1.03c0.24-.15.336-0.17,0.336-0.31a0.57,0.57,0,0,0-.48-0.41C707.618,6386.54,705.6,6385.68,705.41,6385.68Zm38.953,4.87a0.685,0.685,0,0,1,.672-0.67h0.432a0.635,0.635,0,0,1,.648.67v3.48a0.594,0.594,0,0,1-.648.65h-0.432a0.637,0.637,0,0,1-.672-0.65v-3.48Zm-2.256,3.48a0.594,0.594,0,0,1-.648.65h-0.384a0.637,0.637,0,0,1-.672-0.65v-3.48a0.685,0.685,0,0,1,.672-0.67h0.384a0.664,0.664,0,0,1,.648.67v3.48Zm-0.648,2.79a0.552,0.552,0,0,1,.648.64v3.53a0.65,0.65,0,0,1-.624.77,24.476,24.476,0,0,1-2.52.41c-1.08.14-1.368,0.22-1.368,0.43a11.556,11.556,0,0,0,.36,1.27c0.24,0.89.336,1.28,0.624,1.28a0.365,0.365,0,0,0,.312-0.24,0.565,0.565,0,0,1,.384-0.39c2.184-.48,4.392-0.93,6.552-1.51a0.882,0.882,0,0,1,.24-0.02,0.562,0.562,0,0,1,.552.47c0.072,0.27.12,0.49,0.168,0.68,0.12,0.57.168,0.79,0.7,0.79,0.384,0,1.488-.22,1.488-0.79a23.447,23.447,0,0,0-1.128-3.84c-0.553-1.56-.6-1.95-1.129-1.95-0.216,0-1.512.17-1.512,0.72a7.27,7.27,0,0,0,.456,1.27,0.8,0.8,0,0,1,.048.22,0.455,0.455,0,0,1-.384.43,2.342,2.342,0,0,0-.408.1h-0.144a0.4,0.4,0,0,1-.408-0.46v-3.17a0.56,0.56,0,0,1,.672-0.64h0.48c0.5,0,.984.02,1.465,0.02,0.72,0,1.2-.19,1.2-0.98,0-.51-0.024-1.01-0.024-1.49v-4.15c0-.51.024-0.99,0.024-1.49,0-.82-0.48-0.99-1.225-0.99-0.48,0-.96.03-1.44,0.03h-0.48a0.569,0.569,0,0,1-.672-0.67v-1.08c0-.94.024-1.44,0.288-1.64a0.492,0.492,0,0,0,.264-0.33,0.322,0.322,0,0,0-.36-0.29c-0.36-.02-1.848-0.19-2.136-0.19-0.24,0-.408.05-0.408,0.33,0,0.08.024,0.17,0.024,0.24a10.8,10.8,0,0,1,.072,1.76v1.2a0.562,0.562,0,0,1-.648.67h-0.408c-0.48,0-.96-0.03-1.44-0.03a0.956,0.956,0,0,0-1.2.99c0,0.5.024,0.98,0.024,1.49v5.11c0,0.45-.048,1.41-0.048,1.77,0,0.51.24,0.53,1.008,0.53,0.816,0,.984-0.02,1.032-0.38a0.419,0.419,0,0,1,.456-0.43h0.576Zm-8.065-9.63c0.168,0,.384-0.02.384,0.19a5.579,5.579,0,0,1-.816,1.49,1,1,0,0,1-.984.48h-0.672a0.322,0.322,0,0,1-.384-0.31,0.484,0.484,0,0,1,.1-0.22c0.24-.38.48-0.74,0.72-1.12a0.937,0.937,0,0,1,.96-0.51h0.7Zm-1.32,9.27a0.493,0.493,0,0,1-.576.55h-0.24a0.457,0.457,0,0,1-.528-0.51v-0.96a0.49,0.49,0,0,1,.576-0.52H731.5a0.5,0.5,0,0,1,.576.57v0.87Zm2.232,0.55a0.545,0.545,0,0,1-.576-0.58v-0.84a0.553,0.553,0,0,1,.576-0.57h0.312a0.553,0.553,0,0,1,.576.57v0.84a0.545,0.545,0,0,1-.576.58h-0.312Zm-0.576-5.19a0.553,0.553,0,0,1,.576-0.57h0.312a0.553,0.553,0,0,1,.576.57v0.8a0.537,0.537,0,0,1-.576.55h-0.312a0.537,0.537,0,0,1-.576-0.55v-0.8Zm-2.232-.57a0.553,0.553,0,0,1,.576.57v0.8a0.537,0.537,0,0,1-.576.55h-0.192a0.537,0.537,0,0,1-.576-0.55v-0.8a0.553,0.553,0,0,1,.576-0.57H731.5Zm3.7,10.13c0,1.03-.048,1.34-0.864,1.34-0.384,0-.888-0.05-1.272-0.05a0.409,0.409,0,0,0-.5.51c0,1.7.336,1.89,1.368,1.89,2.064,0,3.241-.31,3.241-2.66,0-.55-0.048-1.11-0.048-1.68v-8.43c0-.67.048-1.34,0.048-2.04a0.8,0.8,0,0,0-.936-0.96c-0.192,0-.36.03-0.553,0.03a0.289,0.289,0,0,1-.336-0.29,1.606,1.606,0,0,1,.264-0.53,7.18,7.18,0,0,0,1.129-2.09,1.316,1.316,0,0,0-1.321-1.15c-0.408,0-.816.05-1.248,0.05H733.61a0.345,0.345,0,0,1-.384-0.29,0.462,0.462,0,0,1,.312-0.31,0.5,0.5,0,0,0,.432-0.29c0-.33-0.96-0.55-1.848-0.77a4.291,4.291,0,0,0-.7-0.14c-0.168,0-.216.14-0.336,0.48a20.015,20.015,0,0,1-3.48,5.5,0.684,0.684,0,0,0-.264.43,1.933,1.933,0,0,0,.96,1.03,0.788,0.788,0,0,1,.48.72c0,0.22.024,0.41,0.024,0.62v2.88a21.371,21.371,0,0,1-1.368,8.41,1.712,1.712,0,0,0-.1.33,1.971,1.971,0,0,0,1.416,1.06,0.681,0.681,0,0,0,.5-0.53,19.055,19.055,0,0,0,1.224-4.9,0.614,0.614,0,0,1,.744-0.62h3.288a0.578,0.578,0,0,1,.672.67v1.78Zm25.392-17.09c-0.264,0-.384.07-0.384,0.33,0,0.17.024,0.46,0.024,0.75,0,1.05-.1,2.49-0.1,3.14a1.557,1.557,0,0,1-.12.72c-0.288.58-3.336,1.11-4.056,1.2-0.288.05-.792,0.05-0.792,0.43a7.152,7.152,0,0,0,.5,1.64,0.841,0.841,0,0,0,.7.67,16.3,16.3,0,0,0,2.9-.99,1.745,1.745,0,0,1,.432-0.12,0.317,0.317,0,0,1,.312.36c0,0.2-.048.41-0.048,0.63a2.277,2.277,0,0,1-.288,1.13c-1.1,1.99-2.232,3.96-3.528,5.85a2.571,2.571,0,0,0-.48.87,3.462,3.462,0,0,0,1.8,1.58,0.408,0.408,0,0,0,.312-0.29c0.24-.45.984-1.75,1.248-2.18a1.6,1.6,0,0,1,.576-0.72,0.269,0.269,0,0,1,.216.31c0,1.08-.144,3.75-0.144,3.96,0,0.48.432,0.48,1.008,0.48,1.777,0,1.753-.24,1.753-0.41,0-.26-0.072-1.56-0.121-2.54-0.023-.41-0.071-1.13-0.071-1.27,0-.56-0.1-3.48,0-3.8a8.047,8.047,0,0,1,1.344-1.53,24.177,24.177,0,0,1,2.616-2.33,3.634,3.634,0,0,1,1.872-.96c0.72,0,.72.84,0.72,1.37,0,2.16-.312,4.34-0.312,6.5,0,1.52.192,3.84,2.208,3.84a6.183,6.183,0,0,0,3.385-1.39,3.141,3.141,0,0,0,1.152-1.15c0-.38-0.7-2.19-1.1-2.19a0.7,0.7,0,0,0-.456.27c-0.433.48-1.465,1.51-2.113,1.51-0.552,0-.528-0.84-0.528-1.42,0-1,.072-2.08.12-3.12,0.072-1.22.12-2.47,0.12-3.72a4.376,4.376,0,0,0-.432-2.28,2.609,2.609,0,0,0-2.064-1.05,5.649,5.649,0,0,0-3.48,1.7c-0.576.48-1.536,1.35-2.04,1.87a0.32,0.32,0,0,1-.192.12,0.2,0.2,0,0,1-.192-0.24,1.861,1.861,0,0,1,.048-0.38c0.072-.17.528-1.01,0.648-1.18a0.531,0.531,0,0,0,.144-0.26,1.709,1.709,0,0,0-.816-1.1,0.427,0.427,0,0,1-.384-0.41c0-.34.168-1.51,0.216-1.92,0.144-.99.12-1.06,0.432-1.32a0.555,0.555,0,0,0,.192-0.36,0.334,0.334,0,0,0-.264-0.27C762.843,6384.55,760.85,6384.29,760.586,6384.29Zm29.833,15.29a3.489,3.489,0,0,0-1.488,1.77,2.476,2.476,0,0,0,1.176,1.37,10.148,10.148,0,0,0,5.136,1.08,23.168,23.168,0,0,0,3.744-.31,1.483,1.483,0,0,0,.264-1.2c0-.96,0-1.51-0.408-1.51a0.687,0.687,0,0,0-.24.05,10.834,10.834,0,0,1-3.408.47c-1.464,0-3.288-.21-4.344-1.39A0.734,0.734,0,0,0,790.419,6399.58Zm1.8-5.5c0,0.41.12,0.53,0.6,0.53,0.312,0,.6-0.03.912-0.03a10.912,10.912,0,0,1,3.816.6,1.163,1.163,0,0,0,.5.12,0.408,0.408,0,0,0,.432-0.31,5.974,5.974,0,0,0,.456-1.68,0.453,0.453,0,0,0-.336-0.48,17.439,17.439,0,0,0-4.824-.67C792.651,6392.16,792.219,6392.02,792.219,6394.08Zm-3.144-10.22c-0.241,0-.241.24-0.264,0.6a21.924,21.924,0,0,1-.889,4.36c-0.216.36-.576,0.39-2.112,0.39-1.032,0-2.04-.1-2.256-0.1a0.343,0.343,0,0,0-.36.43,10.489,10.489,0,0,0,.192,1.76c0.144,0.45.528,0.43,1.008,0.43,0.744,0,1.8-.12,2.136-0.12a0.375,0.375,0,0,1,.432.36,3.519,3.519,0,0,1-.192.62,47.08,47.08,0,0,1-4.248,8.88,1.828,1.828,0,0,0-.408.79c0,0.53,1.656,1.3,2.04,1.3a1.234,1.234,0,0,0,.864-0.91,75.047,75.047,0,0,0,4.465-10.59,0.989,0.989,0,0,1,.984-0.93,34.787,34.787,0,0,0,3.936-.94,0.728,0.728,0,0,0,.456-0.86c0-.36,0-1.83-0.48-1.83a1.326,1.326,0,0,0-.5.12,16.211,16.211,0,0,1-2.784.89,0.351,0.351,0,0,1-.36-0.36c0-.12.5-1.87,0.576-2.13a1.052,1.052,0,0,1,.552-0.84,0.365,0.365,0,0,0,.216-0.24,1.292,1.292,0,0,0-.888-0.51C790.875,6384.34,789.291,6383.86,789.075,6383.86Zm24.119,2.83c0,0.38.528,0.5,1.537,0.77a50.736,50.736,0,0,0,5.52,1.08c0.384,0,.528-0.24.648-0.72a10.42,10.42,0,0,0,.24-1.47c0-.36-0.264-0.36-0.6-0.38a25.107,25.107,0,0,1-6-1.2,0.888,0.888,0,0,0-.385-0.15,0.56,0.56,0,0,0-.48.46A5.58,5.58,0,0,0,813.194,6386.69Zm4.561,3a13.85,13.85,0,0,0-6.409,1.94,1.033,1.033,0,0,0-.72.75c0,0.55.768,2.28,1.344,2.28a1.151,1.151,0,0,0,.5-0.24,7.992,7.992,0,0,1,5.137-2.26,3.093,3.093,0,0,1,3.336,3.31c0,3.34-3.552,5.96-6.433,6.87a0.53,0.53,0,0,0-.48.41c0,0.38.985,2.01,1.705,2.01a7.078,7.078,0,0,0,2.064-.89c3.048-1.84,5.832-4.82,5.832-8.59C823.635,6391.75,821.163,6389.69,817.755,6389.69Zm29.832,7.85a2.127,2.127,0,0,0-2.088-2.4c-0.168,0-.312.02-0.48,0.02a0.243,0.243,0,0,1-.24-0.24,0.878,0.878,0,0,1,.312-0.48,30.509,30.509,0,0,1,3.336-3.24,0.925,0.925,0,0,0,.528-0.6c0-.36-1.1-2.04-1.68-2.04a2.185,2.185,0,0,0-.672.17,52.215,52.215,0,0,1-8.665,1.73c-0.264.02-.5,0.07-0.5,0.38a3.6,3.6,0,0,0,.552,1.34,2.374,2.374,0,0,1,.168.29,0.741,0.741,0,0,0,.648.55c0.408,0,3.217-.74,3.769-0.88a13,13,0,0,1,1.464-.39,0.2,0.2,0,0,1,.216.19,3.944,3.944,0,0,1-.864,1.13c-2.569,2.86-5.041,5.81-7.777,8.52a1.641,1.641,0,0,0-.576.82,3.155,3.155,0,0,0,1.92,1.75,1.558,1.558,0,0,0,.672-0.62,51.153,51.153,0,0,1,4.561-5.45,3.83,3.83,0,0,1,2.136-1.01,0.721,0.721,0,0,1,.792.86,10.854,10.854,0,0,1-.144,1.52,12.229,12.229,0,0,0-.216,1.89,2.764,2.764,0,0,0,2.952,2.76,12.006,12.006,0,0,0,4.44-1.22,1.68,1.68,0,0,0,.408-1.44c0-.26.025-1.51-0.312-1.51a1.828,1.828,0,0,0-.672.31,7.912,7.912,0,0,1-3.552,1.44,0.689,0.689,0,0,1-.792-0.79c0-.36.12-1.18,0.168-1.56A11.588,11.588,0,0,0,847.587,6397.54Zm-6.624-13.18c-0.265,0-.361.1-0.6,0.74a6.34,6.34,0,0,0-.36,1.23c0,0.38.528,0.48,1.369,0.74,0.168,0.05.576,0.19,1.032,0.36,1.032,0.36,2.376.84,2.544,0.84,0.552,0,.888-1.92.888-2.04a0.482,0.482,0,0,0-.456-0.45C844.851,6385.61,841.155,6384.36,840.963,6384.36Zm19.751,4.27a10.775,10.775,0,0,0,.264,1.73,0.893,0.893,0,0,0,.528.79,1.487,1.487,0,0,0,.36-0.05c1.536-.4,3.7-0.74,5.3-0.98,0.24-.02,1.345-0.22,1.513-0.22a0.315,0.315,0,0,1,.36.29,1.311,1.311,0,0,1-.408.58,10.656,10.656,0,0,0-2.641,6.89c0,4.68,3.5,5.97,7.585,5.97a0.661,0.661,0,0,0,.768-0.4,6.855,6.855,0,0,0,.36-1.97c0-.39-0.192-0.41-0.552-0.41-0.264,0-.792.02-1.2,0.02-2.448,0-4.224-.67-4.224-3.45a8.984,8.984,0,0,1,1.152-4.23,7.269,7.269,0,0,1,4.08-3.57,12.05,12.05,0,0,1,3.984-.51c0.576-.02,1.08.03,1.08-0.5a10.758,10.758,0,0,0-.216-1.75c-0.048-.29-0.1-0.6-0.456-0.6a1.636,1.636,0,0,0-.312.02c-1.8.29-3.624,0.53-5.448,0.74-3.48.41-6.985,0.77-10.489,0.99C861.05,6388.08,860.714,6388.01,860.714,6388.63Zm18.145,1.39a2,2,0,0,0-1.224.92,0.582,0.582,0,0,0,.168.31,20.21,20.21,0,0,1,1.561,1.99,0.571,0.571,0,0,0,.36.31,1.968,1.968,0,0,0,1.224-1.01A9.872,9.872,0,0,0,878.859,6390.02Zm-2.9,1.32a2.031,2.031,0,0,0-1.224.89,0.634,0.634,0,0,0,.216.34c0.528,0.65,1.056,1.32,1.536,2.01a0.5,0.5,0,0,0,.336.29,1.967,1.967,0,0,0,1.224-1.01A9.418,9.418,0,0,0,875.955,6391.34Zm-300.889,32.88a9.255,9.255,0,0,0-1.776-2.18c-0.336-.34-1.944-2.02-2.3-2.02a2.42,2.42,0,0,0-1.488,1.32,0.692,0.692,0,0,0,.336.46,28.393,28.393,0,0,1,3.216,3.34,0.774,0.774,0,0,0,.5.36A2.242,2.242,0,0,0,575.066,6424.22Zm-3.576,6.51a0.571,0.571,0,0,1,.672.65v4.03a1.016,1.016,0,0,1-.528,1.01,16.056,16.056,0,0,1-2.208,1.34,0.7,0.7,0,0,0-.6.5,4.581,4.581,0,0,0,.5,1.28c0.48,0.96.648,1.25,0.864,1.25a0.345,0.345,0,0,0,.336-0.29,0.629,0.629,0,0,1,.336-0.58c0.7-.5,1.344-1.01,2.016-1.58a0.457,0.457,0,0,1,.36-0.12,0.5,0.5,0,0,1,.432.29,3.489,3.489,0,0,0,1.848,1.51c1.176,0.43,3.049.62,7.129,0.62h6.288c1.009,0,1.441-.14,1.441-1.65,0-.41-0.024-0.68-0.456-0.68-0.192,0-1.465.05-1.777,0.08-1.536.04-3.1,0.07-4.632,0.07-1.728,0-5.5.02-7.009-.46-1.584-.5-1.944-1.44-1.944-3v-3.46c0-.64.048-1.32,0.048-1.96,0-.94-0.5-1.16-1.344-1.16-0.48,0-.96.05-1.44,0.05H571.01c-0.408,0-.816-0.05-1.2-0.05-0.552,0-.552.29-0.552,1.18s0,1.18.552,1.18c0.408,0,.792-0.05,1.2-0.05h0.48Zm7.993-4.92a0.637,0.637,0,0,1,.672-0.65H582.1a0.637,0.637,0,0,1,.672.65v0.41a0.692,0.692,0,0,1-.672.67h-1.944a0.692,0.692,0,0,1-.672-0.67v-0.41Zm2.616,6.72a0.578,0.578,0,0,1,.672.67v0.48a0.578,0.578,0,0,1-.672.67h-1.92a0.6,0.6,0,0,1-.7-0.67v-0.5a0.589,0.589,0,0,1,.672-0.65H582.1Zm-1.944-1.95a0.678,0.678,0,0,1-.672-0.67v-0.43a0.637,0.637,0,0,1,.672-0.65H582.1a0.637,0.637,0,0,1,.672.65v0.43a0.678,0.678,0,0,1-.672.67h-1.944Zm-3.048,3.01c0,0.91-.073,1.8-0.073,2.68,0,0.77.288,0.77,1.249,0.77a1.374,1.374,0,0,0,1.176-.24,0.637,0.637,0,0,1,.576-0.45h7.032c0.84,0,1.68.04,2.521,0.04,0.576,0,.552-0.24.552-1.03,0-.84.024-1.06-0.552-1.06-0.841,0-1.681.05-2.521,0.05h-1.3a0.569,0.569,0,0,1-.672-0.67v-0.48a0.569,0.569,0,0,1,.672-0.67h0.336c0.864,0,1.7.05,2.568,0.05,0.529,0,.553-0.22.553-1.04,0-.84-0.024-1.03-0.577-1.03-0.864,0-1.7.07-2.544,0.07h-0.336a0.576,0.576,0,0,1-.672-0.67v-0.43a0.563,0.563,0,0,1,.672-0.65h0.408c0.816,0,1.656.05,2.472,0.05,0.577,0,.577-0.22.577-1.03,0-.79,0-1.03-0.553-1.03-0.84,0-1.656.07-2.5,0.07h-0.408a0.58,0.58,0,0,1-.672-0.67v-0.41a0.563,0.563,0,0,1,.672-0.65h0.96c0.84,0,1.68.05,2.521,0.05,0.576,0,.552-0.24.552-1.01,0-.82.024-1.03-0.552-1.03-0.841,0-1.681.05-2.521,0.05h-0.792a0.325,0.325,0,0,1-.36-0.32,0.559,0.559,0,0,1,.048-0.21c0.36-.51.672-1.06,0.984-1.59a0.391,0.391,0,0,1,.264-0.16c0.264-.05.5-0.05,0.5-0.29a0.852,0.852,0,0,0-.648-0.51,14.462,14.462,0,0,0-1.9-.62,0.352,0.352,0,0,0-.288.29,25.008,25.008,0,0,1-1.272,2.85,0.847,0.847,0,0,1-.936.56h-1.92a0.381,0.381,0,0,1-.432-0.36,7.736,7.736,0,0,1,.48-1.11c0.384-.79.456-0.91,0.72-0.98a0.385,0.385,0,0,0,.336-0.31,1.041,1.041,0,0,0-.888-0.56,11.718,11.718,0,0,0-1.536-.45,0.356,0.356,0,0,0-.288.33,21.956,21.956,0,0,1-4.081,6.87,0.972,0.972,0,0,0-.336.5,2.535,2.535,0,0,0,1.368,1.44,2.284,2.284,0,0,0,.912-0.81,0.351,0.351,0,0,1,.217-0.1,0.244,0.244,0,0,1,.216.26v5.65Zm21.815-10.35a0.672,0.672,0,0,1,.672-0.67h1.32a0.672,0.672,0,0,1,.672.67v2.71a0.637,0.637,0,0,1-.672.65h-1.32a0.637,0.637,0,0,1-.672-0.65v-2.71Zm9.961,14.62a0.672,0.672,0,0,1-.672-0.67v-1.97a0.678,0.678,0,0,1,.672-0.67h3.408a0.678,0.678,0,0,1,.672.67v1.97a0.672,0.672,0,0,1-.672.67h-3.408Zm-1.56-11.48a13.775,13.775,0,0,0,1.224,1.71,0.736,0.736,0,0,1,.168.45,0.674,0.674,0,0,1-.264.48,20.528,20.528,0,0,1-3.912,2.62,0.293,0.293,0,0,1-.144.05,0.256,0.256,0,0,1-.24-0.29c-0.024-.31-0.048-0.5-0.432-0.5-0.312,0-.865.04-1.273,0.04a0.576,0.576,0,0,1-.672-0.67v-0.84a0.558,0.558,0,0,1,.648-0.65h0.408c0.744,0,.889-0.36.889-1.03v-0.45a0.232,0.232,0,0,1,.216-0.27,0.394,0.394,0,0,1,.192.07,1.806,1.806,0,0,0,.96.58,2.894,2.894,0,0,0,1.344-1.13,0.766,0.766,0,0,1,.5-0.41A0.435,0.435,0,0,1,607.323,6426.38Zm1.584,6.1a5.543,5.543,0,0,1-.576-0.02,0.217,0.217,0,0,1-.216-0.2,0.259,0.259,0,0,1,.1-0.19c0.624-.45,1.224-0.96,1.8-1.44a0.654,0.654,0,0,1,.456-0.19,0.744,0.744,0,0,1,.48.22c0.72,0.62,1.032.86,1.776,1.41a0.248,0.248,0,0,1,.12.19,0.233,0.233,0,0,1-.24.22h-3.7Zm1.128-5.88a18.688,18.688,0,0,1-1.152-1.58,0.614,0.614,0,0,1-.048-0.22,0.37,0.37,0,0,1,.408-0.34h2.184c0.408,0,.768.03,0.768,0.24a11.251,11.251,0,0,1-1.344,1.88A0.477,0.477,0,0,1,610.035,6426.6Zm2.448,1.61c0.648-.75,2.929-3.55,2.929-4.44a1.717,1.717,0,0,0-1.537-1.44c-0.576,0-1.176.02-1.776,0.02h-2.184a0.37,0.37,0,0,1-.432-0.36,1.3,1.3,0,0,1,.192-0.5,0.691,0.691,0,0,1,.5-0.58,0.388,0.388,0,0,0,.312-0.29,0.38,0.38,0,0,0-.288-0.28c-0.336-.1-1.92-0.56-2.16-0.56a0.42,0.42,0,0,0-.336.41,17.376,17.376,0,0,1-3.552,5.47,0.351,0.351,0,0,1-.216.1,0.286,0.286,0,0,1-.24-0.29v-2.59c0-.5.024-1.01,0.024-1.51a0.807,0.807,0,0,0-.913-0.99c-0.432,0-.864.03-1.3,0.03h-2.592c-0.432,0-.864-0.03-1.3-0.03a0.794,0.794,0,0,0-.912.96c0,0.53.024,1.04,0.024,1.54v3.41c0,0.5-.024,1.03-0.024,1.53a0.8,0.8,0,0,0,.936.96c0.432,0,.84-0.02,1.272-0.02h0.192a0.569,0.569,0,0,1,.672.67v7.35a0.48,0.48,0,0,1-.408.57,1.342,1.342,0,0,1-.336.07,0.463,0.463,0,0,1-.432-0.55v-5.21a1.053,1.053,0,0,1,.216-0.96,0.4,0.4,0,0,0,.288-0.28,0.32,0.32,0,0,0-.336-0.27c-0.24-.02-1.536-0.14-1.752-0.14a0.289,0.289,0,0,0-.36.29,0.6,0.6,0,0,0,.024.19,11.61,11.61,0,0,1,.072,1.61v5.42a0.47,0.47,0,0,1-.432.53c-0.216.05-.7,0.07-0.7,0.36a9.266,9.266,0,0,0,.456,1.41c0.216,0.6.288,0.89,0.552,0.89a0.309,0.309,0,0,0,.288-0.24,0.736,0.736,0,0,1,.72-0.43c1.968-.5,4.392-1.22,6.289-1.89a0.809,0.809,0,0,0,.624-1.01c0-.34-0.024-1.23-0.48-1.23-0.144,0-1.417.48-1.681,0.55a0.457,0.457,0,0,1-.192.05,0.448,0.448,0,0,1-.432-0.5v-2.35a0.579,0.579,0,0,1,.672-0.65,6.787,6.787,0,0,1,1.008.02,0.884,0.884,0,0,1,.721.39,1.191,1.191,0,0,0,.768.6,1.052,1.052,0,0,0,.456-0.15,0.66,0.66,0,0,1,.216-0.05,0.369,0.369,0,0,1,.36.41c0,0.24.024,0.48,0.024,0.75v4.13c0,0.55-.048,1.1-0.048,1.65,0,0.51.336,0.51,1.2,0.51,1.032,0,1.128-.03,1.1-0.75a0.476,0.476,0,0,1,.552-0.55h3.552a0.459,0.459,0,0,1,.552.53v0.24c0,0.53.24,0.53,1.176,0.53,0.841,0,1.153,0,1.153-.53,0-.39-0.049-1.08-0.049-1.63v-4.13a5.651,5.651,0,0,1,.025-0.65,0.374,0.374,0,0,1,.384-0.41,0.882,0.882,0,0,1,.216.02,0.566,0.566,0,0,0,.216.05c0.432,0,1.224-1.32,1.224-1.7a0.63,0.63,0,0,0-.456-0.46,22.418,22.418,0,0,1-4.273-2.76,0.536,0.536,0,0,1-.24-0.43A0.561,0.561,0,0,1,612.483,6428.21Zm19.1-8.45c-0.24,0-.288.24-0.336,0.5a13.163,13.163,0,0,1-1.3,3.1,2.116,2.116,0,0,1-1.489.31h-0.7c-0.7,0-1.32-.05-1.728-0.05-0.6,0-.7.15-0.7,1.11,0,1.22.1,1.34,0.624,1.34,0.744,0,1.3-.07,1.68-0.07,0.336,0,.528.07,0.528,0.29,0,0.45-3.48,5.28-4.032,5.88a0.967,0.967,0,0,0-.312.53c0,0.43,1.608,1.39,2.04,1.39a0.4,0.4,0,0,0,.336-0.24,15.676,15.676,0,0,1,2.016-2.81,8.063,8.063,0,0,1,4.489-2.11,1,1,0,0,1,1.056.81,3.371,3.371,0,0,1,.12.68,0.621,0.621,0,0,1-.432.55c-0.5.24-1.008,0.5-1.488,0.79-1.656.98-3.409,2.16-3.409,4.32a3.646,3.646,0,0,0,2.4,3.43,8.927,8.927,0,0,0,3.792.63,31.256,31.256,0,0,0,4.608-.32c0.528-.11.552-0.31,0.552-1.03,0-1.37-.168-1.63-0.48-1.63a3.469,3.469,0,0,0-.48.05,17.728,17.728,0,0,1-4.464.6c-1.152,0-3.48-.15-3.48-1.75,0-1.49,2.472-2.55,2.592-2.55a0.333,0.333,0,0,1,.312.41c0,0.5-.048,1.03-0.048,1.56,0,0.62.432,0.67,1.464,0.67,0.912,0,1.032-.09,1.032-0.96,0-.74-0.024-1.46-0.024-2.21v-0.31a0.735,0.735,0,0,1,.624-0.79c0.936-.41,1.872-0.82,2.832-1.18a2.425,2.425,0,0,0,.336-0.12c0.456-.14.72-0.24,0.72-0.52,0-.41-0.576-2.26-1.032-2.26a2.029,2.029,0,0,0-.624.24,20.9,20.9,0,0,1-2.808,1.37,0.4,0.4,0,0,1-.36-0.41,2.448,2.448,0,0,0-2.736-2.16,6.635,6.635,0,0,0-2.616.62,0.851,0.851,0,0,1-.432.15,0.184,0.184,0,0,1-.192-0.17,7.6,7.6,0,0,1,.816-1.39,0.852,0.852,0,0,1,.72-0.39c1.512-.16,3.024-0.43,4.536-0.74,0.5-.1,1.272-0.19,1.272-0.6a7.777,7.777,0,0,0-.192-1.3,0.711,0.711,0,0,0-.6-0.72,1.889,1.889,0,0,0-.6.15,17.143,17.143,0,0,1-2.784.67,0.232,0.232,0,0,1-.264-0.24,1.636,1.636,0,0,1,.24-0.55,1.347,1.347,0,0,1,.792-0.82,0.387,0.387,0,0,0,.288-0.29C634.275,6420.86,631.8,6419.76,631.587,6419.76Zm23.087,12.77a3.217,3.217,0,0,0-1.632-1.32c-0.216,0-.264.09-0.456,0.5a38.159,38.159,0,0,1-3.984,6.68,1.109,1.109,0,0,0-.288.52,1.4,1.4,0,0,0,.552.68,7.315,7.315,0,0,0,1.536,1.15,0.308,0.308,0,0,0,.264-0.36c0-.07-0.024-0.15-0.024-0.22v-0.19a1.388,1.388,0,0,1,.288-0.67,60.154,60.154,0,0,0,3.456-6.03A3.143,3.143,0,0,0,654.674,6432.53Zm-0.144-9.87a0.529,0.529,0,0,0-.24-0.38c-0.336-.31-1.08-0.86-1.488-1.15a8.2,8.2,0,0,0-1.992-1.18,2.661,2.661,0,0,0-1.248,1.56,0.763,0.763,0,0,0,.456.51c0.888,0.6,1.68,1.15,2.544,1.8a1.446,1.446,0,0,0,.672.38A2.5,2.5,0,0,0,654.53,6422.66Zm-4.944,2.45a2.693,2.693,0,0,0-1.248,1.56,0.752,0.752,0,0,0,.456.48,30.412,30.412,0,0,1,2.856,2.09,0.8,0.8,0,0,0,.48.26,2.586,2.586,0,0,0,1.272-1.56,2.663,2.663,0,0,0-1.1-1.12c-0.1-.08-0.168-0.1-0.216-0.15A14.813,14.813,0,0,0,649.586,6425.11Zm13.441,4.66a0.534,0.534,0,0,1-.624-0.63v-2.73a0.563,0.563,0,0,1,.672-0.65h1.44a0.683,0.683,0,0,1,.72.86v2.48a0.562,0.562,0,0,1-.648.67h-1.56Zm-1.176,4.61a16.577,16.577,0,0,0,3.552,4.68c0.456,0.43,2.377,2.06,2.9,2.06a2.327,2.327,0,0,0,1.608-1.58,1,1,0,0,0-.576-0.6,17.145,17.145,0,0,1-6.121-6.39,0.393,0.393,0,0,1-.072-0.24,0.375,0.375,0,0,1,.432-0.33h2.736c0.888,0,1.8.04,2.689,0.04,0.624,0,.6-0.31.6-1.15,0-.89.024-1.15-0.6-1.15-0.264,0-.528,0-0.769.02a0.557,0.557,0,0,1-.648-0.64v-2.57c0-.58.024-1.18,0.024-1.75,0-.84-0.168-1.28-1.1-1.28-0.576,0-1.152.03-1.728,0.03h-1.7a0.569,0.569,0,0,1-.672-0.67v-1.08c0-.8.024-1.01,0.336-1.2a0.443,0.443,0,0,0,.312-0.34,0.362,0.362,0,0,0-.384-0.34c-0.384-.04-1.944-0.14-2.328-0.14-0.288,0-.48.07-0.48,0.38a0.784,0.784,0,0,0,.024.24c0.048,0.56.072,1.01,0.072,1.54v0.94a0.578,0.578,0,0,1-.672.67H657.8c-0.7,0-1.393-.05-1.9-0.05-0.48,0-.456.26-0.456,1.15,0,0.87-.024,1.18.432,1.18s1.249-.05,1.921-0.05h1.488a0.571,0.571,0,0,1,.672.65v1.82c0,0.31-.024.6-0.024,0.91a0.611,0.611,0,0,1-.72.63h-1.272c-0.888,0-1.8-.05-2.689-0.05-0.624,0-.6.29-0.6,1.15,0,0.84-.024,1.15.6,1.15,0.888,0,1.8-.04,2.689-0.04h0.984a0.43,0.43,0,0,1,.528.43,0.518,0.518,0,0,1-.024.19,11.271,11.271,0,0,1-5.305,6.15,0.887,0.887,0,0,0-.624.62,2.593,2.593,0,0,0,1.488,1.73,1.247,1.247,0,0,0,.624-0.29,14.117,14.117,0,0,0,5.689-6.43A0.3,0.3,0,0,1,661.851,6434.38Zm24.768-12.51a1.475,1.475,0,0,1,.264-1.27,0.535,0.535,0,0,0,.312-0.36c0-.31-0.48-0.31-0.7-0.34-0.552-.04-1.536-0.14-2.064-0.14-0.24,0-.456.05-0.456,0.34,0,0.07.024,0.16,0.024,0.24a11.661,11.661,0,0,1,.1,1.29v0.24a0.569,0.569,0,0,1-.672.67h-3.865c-0.912,0-1.824-.02-2.76-0.02-0.672,0-1.368.17-1.368,0.98,0,0.24.024,0.68,0.024,1.3v0.91c0,0.31-.048.72-0.048,1.03,0,0.58.432,0.53,1.272,0.53s1.3,0.05,1.3-.53c0-.26-0.072-0.69-0.072-1.03v-0.41a0.578,0.578,0,0,1,.672-0.67h13.585a0.569,0.569,0,0,1,.672.67v0.36c0,0.34-.048.77-0.048,1.04,0,0.57.456,0.52,1.272,0.52,0.961,0,1.345.03,1.345-.55,0-.26-0.072-0.72-0.072-1.01v-0.86c0-.53.048-0.98,0.048-1.32,0-.82-0.744-0.98-1.417-0.98-0.912,0-1.824.04-2.736,0.04h-3.936A0.578,0.578,0,0,1,686.619,6421.87Zm-6.7,16.32c2.5,2.76,6.433,2.55,9.817,2.55h2.4c0.792,0,1.584,0,2.377-.03a1.891,1.891,0,0,0,.96-0.16,2.332,2.332,0,0,0,.576-1.69,0.545,0.545,0,0,0-.5-0.67,3.556,3.556,0,0,0-.576.03c-1.465.14-3.169,0.19-4.633,0.19-1.032,0-2.064.02-3.1-.05a0.579,0.579,0,0,1-.624-0.7v-2.32a0.576,0.576,0,0,1,.672-0.68h1.536c0.768,0,1.512.05,2.28,0.05,0.624,0,.6-0.31.6-1.15,0-.86.024-1.18-0.6-1.18-0.768,0-1.512.05-2.28,0.05h-1.536a0.563,0.563,0,0,1-.672-0.65v-1.56a0.569,0.569,0,0,1,.672-0.67h1.872c0.864,0,1.7.05,2.568,0.05,0.6,0,.6-0.26.6-1.15,0-.84,0-1.15-0.6-1.15-0.864,0-1.7.04-2.568,0.04h-7.537c-0.864,0-1.7-.04-2.568-0.04-0.624,0-.6.33-0.6,1.15,0,0.84,0,1.15.6,1.15,0.864,0,1.728-.05,2.568-0.05H683.4a0.569,0.569,0,0,1,.672.67v7.08a0.451,0.451,0,0,1-.432.51c-0.048,0-.12-0.02-0.192-0.02a4.945,4.945,0,0,1-2.569-2.09,1.1,1.1,0,0,1-.24-0.65,1.347,1.347,0,0,1,.072-0.43c0.192-.7.264-1.18,0.336-1.52a0.9,0.9,0,0,1,.5-0.91,0.428,0.428,0,0,0,.288-0.31c0-.29-0.384-0.36-1.08-0.5-0.288-.05-1.416-0.29-1.656-0.29-0.384,0-.384.33-0.408,0.62a14.29,14.29,0,0,1-3.12,7.56,0.969,0.969,0,0,0-.264.51c0,0.55,1.44,1.13,1.9,1.13a0.933,0.933,0,0,0,.648-0.49,23.465,23.465,0,0,0,1.368-2.16,0.423,0.423,0,0,1,.36-0.24A0.483,0.483,0,0,1,679.922,6438.19Zm32.281-3.77c0.6,0,.72-0.12.744-0.72l0.144-5.92c0.048-1.59.216-4.8,0.216-5.28,0-.41-0.144-0.51-0.672-0.51h-1.68c-0.528,0-.672.1-0.672,0.51,0,0.48.168,3.69,0.216,5.13l0.168,6.07c0.024,0.6.144,0.72,0.744,0.72H712.2Zm-0.312,1.88a1.792,1.792,0,0,0-1.848,1.92,1.558,1.558,0,0,0,1.656,1.58,1.767,1.767,0,0,0,1.872-1.85A1.6,1.6,0,0,0,711.891,6436.3Z" transform="translate(-568.625 -6383.53)"/>
</svg>
