<svg xmlns="http://www.w3.org/2000/svg" width="283.529" height="57.47" viewBox="0 0 283.529 57.47">
  <defs>
    <style>
      .cls-1 {
        fill: #4da5dc;
        fill-rule: evenodd;
      }
    </style>
  </defs>
  <path id="ラッキーアイテムと共に_夢を実現_" data-name="ラッキーアイテムと共に 夢を実現！" class="cls-1" d="M1002.07,6390.86c-1.04,0-2.07-.04-3.076-0.04-0.672,0-.7.16-0.7,1.39,0,0.93,0,1.17.672,1.17,1.03,0,2.04-.04,3.05-0.04h8.93c0.38,0,1.03-.05,1.03.52a5.948,5.948,0,0,1-.65,1.56,17.332,17.332,0,0,1-7.37,6.82,1.384,1.384,0,0,0-.84.62,3.022,3.022,0,0,0,1.66,1.78c0.74,0,3.33-1.85,4.01-2.4a20.083,20.083,0,0,0,4.97-5.66,17.382,17.382,0,0,0,1.39-3.24,6.071,6.071,0,0,0,.31-0.99,2.861,2.861,0,0,0-1.7-1.58,2.2,2.2,0,0,0-.44.05c-0.5.04-1.6,0.04-2.16,0.04h-9.09Zm1.6-5.18c-0.93,0-2.16-.07-2.83-0.07-0.6,0-.65.29-0.65,1.41,0,0.89,0,1.18.68,1.18,0.93,0,1.87-.05,2.8-0.05h5.88c0.94,0,1.88.05,2.84,0.05,0.65,0,.65-0.31.65-1.13,0-1.2-.05-1.46-0.65-1.46-0.63,0-1.85.07-2.84,0.07h-5.88Zm34.42,4.97c-0.26,0-.29.26-0.31,0.48a13.93,13.93,0,0,1-1.97,5.45c-1.73,2.81-4.34,4.22-7.44,5.06a0.416,0.416,0,0,0-.38.43,2.762,2.762,0,0,0,1.34,1.66,3.831,3.831,0,0,0,.74-0.19,13.685,13.685,0,0,0,6.53-4.18,17.881,17.881,0,0,0,3.29-6.72,0.764,0.764,0,0,1,.31-0.5,0.567,0.567,0,0,0,.29-0.36,0.556,0.556,0,0,0-.43-0.44A16.11,16.11,0,0,0,1038.09,6390.65Zm-4.25.86a2.672,2.672,0,0,0-1.2-1.34c-0.31,0-1.61.6-1.61,1.01a0.8,0.8,0,0,0,.22.48,25.1,25.1,0,0,1,1.68,2.83,0.659,0.659,0,0,0,.48.45c0.34,0,1.73-.62,1.73-1.1a9.927,9.927,0,0,0-1.08-1.97Zm-6.07,0c-0.31,0-1.61.6-1.61,1.03a0.926,0.926,0,0,0,.19.44,22.416,22.416,0,0,1,1.73,2.9,0.582,0.582,0,0,0,.46.41c0.29,0,1.73-.6,1.73-1.11a8.491,8.491,0,0,0-1.04-1.89c-0.24-.39-0.79-1.25-1.05-1.56A0.546,0.546,0,0,0,1027.77,6391.51Zm26.76-1.99c-0.86.12-1.56,0.22-2.06,0.26-1.25.15-1.59,0.2-1.59,0.65,0,0.29.15,1.11,0.19,1.44a0.586,0.586,0,0,0,.51.58c0.14,0,2.83-.43,3.26-0.51l2.11-.31a0.7,0.7,0,0,1,.84.6l0.48,2.62a0.6,0.6,0,0,1-.52.74l-4.13.6c-0.84.12-1.49,0.19-1.97,0.24-1.27.12-1.58,0.17-1.58,0.63a10.128,10.128,0,0,0,.24,1.56,0.485,0.485,0,0,0,.5.48c0.22,0,2.69-.44,3.14-0.51l4.23-.6a0.74,0.74,0,0,1,.81.58l0.32,1.68c0.16,0.94.38,2.16,0.55,3.12a1.352,1.352,0,0,1,.05.29c0.07,0.53.12,0.98,0.57,0.98a8.869,8.869,0,0,0,1.59-.29,0.549,0.549,0,0,0,.52-0.5c0-.36-0.69-3.43-0.81-4.08l-0.29-1.59a0.605,0.605,0,0,1,.5-0.74l3.8-.55c0.81-.12,1.44-0.19,1.92-0.24,1.46-.17,1.7-0.22,1.7-0.75,0-.19-0.05-0.52-0.07-0.74a2.236,2.236,0,0,0-.05-0.31c-0.07-.53-0.12-0.89-0.57-0.89-0.12,0-2.86.48-3.27,0.53l-3.89.55a0.7,0.7,0,0,1-.79-0.58l-0.5-2.64a0.608,0.608,0,0,1,.5-0.74l1.95-.29c0.76-.12,1.36-0.17,1.84-0.21,1.4-.17,1.71-0.2,1.71-0.7a10.812,10.812,0,0,0-.17-1.2c-0.07-.36-0.1-0.79-0.53-0.79-0.14,0-2.78.43-3.22,0.5l-1.99.29a0.734,0.734,0,0,1-.79-0.62l-0.1-.41c-0.04-.34-0.28-1.66-0.28-1.9a3.907,3.907,0,0,1,.28-0.89c0-.21-0.28-0.21-0.43-0.21-0.57,0-1.15.02-1.73,0.05-0.6.02-1,.02-1,0.33a0.767,0.767,0,0,0,.07.27c0.19,0.62.38,1.72,0.53,2.37l0.12,0.55a3.035,3.035,0,0,1,.04.39,0.615,0.615,0,0,1-.52.62Zm25.94,3.31c-1,0-2.66-.07-2.97-0.07-0.63,0-.67.19-0.67,1.54,0,0.74.02,1.2,0.64,1.2,1.01,0,2.02-.05,3-0.05h11.05c0.98,0,1.99.05,3,.05,0.62,0,.64-0.46.64-1.23,0-1.32-.02-1.51-0.67-1.51-0.31,0-1.87.07-2.97,0.07h-11.05Zm30.51-1.82c-0.24,0-.24.12-0.24,0.31a12.772,12.772,0,0,1-.39,3.58,11.366,11.366,0,0,1-5.01,6.98,0.894,0.894,0,0,0-.58.53,3.877,3.877,0,0,0,1.97,1.68,1.753,1.753,0,0,0,.79-0.43c3.58-2.76,5.07-5.81,5.76-10.2a4.086,4.086,0,0,1,.48-1.73,0.394,0.394,0,0,0,.15-0.24c0-.27-0.34-0.27-0.51-0.29C1113.04,6391.15,1111.29,6391.01,1110.98,6391.01Zm-4.2-3.65c-1.11,0-2.21-.05-3.31-0.05-0.56,0-.6.29-0.6,0.91v0.48c0,0.96.02,1.23,0.64,1.23,1.08,0,2.16-.07,3.27-0.07h10.3c0.21,0,.74-0.05.74,0.28s-2.67,2.69-3.1,3.08a1.54,1.54,0,0,0-.6.72,3.166,3.166,0,0,0,1.76,1.46,0.922,0.922,0,0,0,.57-0.34c0.89-.79,2.14-2.01,2.98-2.88,0.29-.31,2.09-2.18,2.23-2.3a1.065,1.065,0,0,0,.53-0.65,3,3,0,0,0-.89-1.39,1.379,1.379,0,0,0-.89-0.62,1.515,1.515,0,0,0-.31.02,17.236,17.236,0,0,1-2.5.12h-10.82Zm33.98,4.25a1.279,1.279,0,0,1,.55-1.08,44.846,44.846,0,0,0,3.29-3.6,1.327,1.327,0,0,1,.94-0.58,0.276,0.276,0,0,0,.24-0.24,2.04,2.04,0,0,0-.94-0.86,8.968,8.968,0,0,0-1.63-.99,0.615,0.615,0,0,0-.38.36,20.227,20.227,0,0,1-3.27,4.06,34.556,34.556,0,0,1-9.43,6.36,0.479,0.479,0,0,0-.38.41,4.054,4.054,0,0,0,1.87,1.92c0.62,0,4.44-2.55,5.16-3.07a2.574,2.574,0,0,1,.93-0.56c0.46,0,.39.53,0.39,0.68v6.52c0,1.04-.05,2.07-0.05,3.1,0,0.62.24,0.7,1.56,0.7,0.89,0,1.2-.08,1.2-0.72,0-1.03-.05-2.09-0.05-3.15v-9.26Zm18.39,0.62c-1.01,0-2.02-.07-3.05-0.07-0.53,0-.6.26-0.6,1.37,0,0.86.02,1.22,0.65,1.22,1,0,2.01-.05,3-0.05h4.87a0.561,0.561,0,0,1,.57.56,10.316,10.316,0,0,1-.21,1.17,7.1,7.1,0,0,1-3.03,4.37,11.142,11.142,0,0,1-3,1.25,0.745,0.745,0,0,0-.67.41,3.848,3.848,0,0,0,1.85,1.99,11.158,11.158,0,0,0,2.5-1.06,9.786,9.786,0,0,0,5.18-7.56c0.07-.5.1-1.13,0.77-1.13h3.14c1.04,0,2.07.05,3.12,0.05,0.65,0,.65-0.45.65-1.27,0-1.13.03-1.32-.72-1.32-1.03,0-2.04.07-3.05,0.07h-11.97Zm3.26-6.29c-1.06,0-2.09-.04-3.12-0.04-0.62,0-.65.26-0.65,1.27,0,0.91-.07,1.29.65,1.29,1.01,0,2.04-.04,3.07-0.04h5.23c1.04,0,2.07.04,3.08,0.04,0.67,0,.65-0.33.65-1.08,0-1.17.02-1.48-.63-1.48-1.05,0-2.09.04-3.12,0.04h-5.16Zm28.63-.45a0.559,0.559,0,0,0-.41.48c-0.45,1.49-4.68,10.25-5.56,11.93-0.36.67-.44,0.76-2.07,0.76h-0.41c-0.31,0-.52.03-0.52,0.29a1.528,1.528,0,0,0,.07.36,8.4,8.4,0,0,1,.19.89c0.19,0.91.36,1.63,0.65,1.63a0.366,0.366,0,0,0,.29-0.19c0.26-.36.26-0.31,1.08-0.41,1.34-.17,13.17-1.63,13.25-1.63,0.5,0,.69.41,1.32,1.42a0.881,0.881,0,0,0,.6.6,2.709,2.709,0,0,0,1.87-1.56c0-.53-2.11-3.12-2.55-3.65-0.52-.6-3.38-3.77-3.98-3.77a2.965,2.965,0,0,0-1.61,1.54,1.047,1.047,0,0,0,.43.6c0.41,0.36,2.24,1.94,2.24,2.37,0,0.36-.41.39-0.68,0.41-2.06.27-4.13,0.48-6.21,0.7-0.17.02-.56,0.07-0.72,0.07a0.435,0.435,0,0,1-.44-0.43,1.968,1.968,0,0,1,.22-0.63c1.42-2.78,2.71-5.61,4.15-8.37,0.63-1.18.75-1.54,1.27-1.78a0.389,0.389,0,0,0,.29-0.29,1.1,1.1,0,0,0-.62-0.48A13.471,13.471,0,0,0,1191.04,6385.49Zm22.23,0.17a0.959,0.959,0,0,0,.07.28,15.435,15.435,0,0,1,.45,1.59c0.24,0.98.92,3.53,1.2,4.39a0.743,0.743,0,0,1,.1.43,0.756,0.756,0,0,1-.41.63c-1.99,1.29-4.15,3-4.15,5.61a4.216,4.216,0,0,0,2.21,3.7,8.944,8.944,0,0,0,4.92,1.03,57.5,57.5,0,0,0,6.6-.38c0.48-.12.5-0.39,0.5-1.01v-0.29c0-.5-0.02-1.49-0.36-1.49a0.511,0.511,0,0,0-.21.03,36.307,36.307,0,0,1-6.27.62,9.605,9.605,0,0,1-3.19-.43,2.114,2.114,0,0,1-1.58-1.73,3.033,3.033,0,0,1,1.17-2.16,24.2,24.2,0,0,1,4.32-2.83,42.975,42.975,0,0,1,5.93-2.76,0.527,0.527,0,0,0,.46-0.39,4.885,4.885,0,0,0-.7-1.46,1.982,1.982,0,0,0-.86-0.96,1.525,1.525,0,0,0-.63.24,38.3,38.3,0,0,1-4.89,2.66,0.692,0.692,0,0,1-.56-0.72,32.881,32.881,0,0,1-.74-4.29c-0.05-.55,0-0.91-0.67-0.91a8.441,8.441,0,0,0-1.15.12C1214.06,6385.3,1213.27,6385.3,1213.27,6385.66Zm41.47,17.93a0.668,0.668,0,0,0-.46-0.49,22.248,22.248,0,0,1-5.83-4.29,0.714,0.714,0,0,0-.45-0.29,3.59,3.59,0,0,0-1.78,1.37c0,0.43,2.57,2.59,3.02,2.95,0.58,0.46,3.27,2.38,3.84,2.38A2.985,2.985,0,0,0,1254.74,6403.59Zm-12.12-3.46a3.351,3.351,0,0,0-1.08-.94,6.092,6.092,0,0,0-1.27-.72,0.594,0.594,0,0,0-.34.27,22.745,22.745,0,0,1-5.71,4.32,0.793,0.793,0,0,0-.55.53,2.907,2.907,0,0,0,1.65,1.63,1.931,1.931,0,0,0,.82-0.36,26.586,26.586,0,0,0,5.28-4.13,0.707,0.707,0,0,1,.67-0.31C1242.28,6400.42,1242.62,6400.39,1242.62,6400.13Zm-0.87-8.64a0.666,0.666,0,0,1,.68-0.67h3.81a0.67,0.67,0,0,1,.67.67v3.74a0.67,0.67,0,0,1-.67.67h-3.81a0.666,0.666,0,0,1-.68-0.67v-3.74Zm-2.42,3.74a0.575,0.575,0,0,1-.67.67h-1.42c-1.03,0-2.04-.07-3.07-0.07-0.55,0-.53.36-0.53,1.2s-0.02,1.2.53,1.2c1.03,0,2.04-.07,3.07-0.07h14.02c1.01,0,2.02.07,3.05,0.07,0.55,0,.55-0.33.55-1.2s0-1.2-.55-1.2c-1.03,0-2.04.07-3.05,0.07h-1.25a0.575,0.575,0,0,1-.67-0.67v-3.74a0.568,0.568,0,0,1,.67-0.67h0.53c0.96,0,1.92.07,2.9,0.07,0.53,0,.51-0.36.51-1.2,0-.89.02-1.23-0.51-1.23-0.98,0-1.94.05-2.9,0.05h-0.53a0.562,0.562,0,0,1-.67-0.65v-2.11a1.256,1.256,0,0,1,.29-1.13,0.474,0.474,0,0,0,.33-0.36c0-.28-0.43-0.31-0.67-0.33-0.41-.05-1.7-0.17-2.06-0.17-0.24,0-.44.05-0.44,0.34,0,0.07.03,0.16,0.03,0.24,0.05,0.57.09,1.12,0.09,1.68v1.84a0.562,0.562,0,0,1-.67.65h-3.81a0.568,0.568,0,0,1-.68-0.65v-2.08a1.22,1.22,0,0,1,.29-1.13,0.517,0.517,0,0,0,.34-0.39c0-.28-0.43-0.31-0.67-0.33-0.41-.05-1.71-0.17-2.07-0.17a0.334,0.334,0,0,0-.41.36v0.22a9.646,9.646,0,0,1,.1,1.7v1.82a0.562,0.562,0,0,1-.67.65h-0.58c-0.96,0-1.94-.05-2.9-0.05-0.55,0-.53.32-0.53,1.23,0,0.86-.02,1.2.53,1.2,0.96,0,1.94-.07,2.9-0.07h0.58a0.568,0.568,0,0,1,.67.67v3.74Zm30.29,2.71c-0.46,0-1.3,1.71-1.3,2.05,0,0.38,1.61,2.4,5.5,2.4a27.209,27.209,0,0,0,5.69-.73,0.924,0.924,0,0,0,.29-0.88c0-1.23-.05-1.8-0.44-1.8a2.012,2.012,0,0,0-.5.09,19.656,19.656,0,0,1-5.28.77,4.116,4.116,0,0,1-3.65-1.68A0.417,0.417,0,0,0,1269.62,6397.94Zm0.55-10.39c-0.38,0-.5.36-0.5,1.51a1.149,1.149,0,0,0,.24.94c0.5,0.34,3.45.48,4.2,0.48a26.83,26.83,0,0,0,4.03-.34c0.46-.09.46-0.28,0.46-0.79a11.2,11.2,0,0,0-.1-1.29,0.539,0.539,0,0,0-.48-0.58,2.758,2.758,0,0,0-.43.07,15.625,15.625,0,0,1-3.65.48,15.213,15.213,0,0,1-3.15-.36A2.94,2.94,0,0,0,1270.17,6387.55Zm-5.76-1.87a0.514,0.514,0,0,0-.36.53,10.585,10.585,0,0,1-.31,1.2,28.474,28.474,0,0,0-1.23,7.94,16.514,16.514,0,0,0,1.47,7.37,1.645,1.645,0,0,0,1.01,1.18c0.5,0,1.87-.58,1.87-1.18a2.8,2.8,0,0,0-.05-0.36c-0.02-.21-0.1-0.77-0.1-1.01a18.476,18.476,0,0,1,.96-3.48,1.322,1.322,0,0,0-.86-0.77,0.772,0.772,0,0,0-.5.58,1.946,1.946,0,0,1-.65.94c-0.55,0-.65-2.91-0.65-3.36a19.076,19.076,0,0,1,1.34-6.82,1.522,1.522,0,0,1,.75-1.03c0.24-.15.33-0.17,0.33-0.31a0.56,0.56,0,0,0-.48-0.41C1266.62,6386.54,1264.6,6385.68,1264.41,6385.68ZM1003.39,6438a20.013,20.013,0,0,1-3.988.72c-0.984.1-1.416,0.1-1.416,0.55a3.548,3.548,0,0,0,.24.99,0.936,0.936,0,0,0,.936.81c0.264,0,.528-0.05.792-0.07a23.989,23.989,0,0,0,7.3-1.99,16.25,16.25,0,0,0,5.4-3.84,1.581,1.581,0,0,0,.51-0.91,1.615,1.615,0,0,0-1.64-1.44c-0.74,0-1.46.02-2.21,0.02h-3.04a0.21,0.21,0,0,1-.22-0.17,0.162,0.162,0,0,1,.07-0.14,0.554,0.554,0,0,1,.22-0.1c0.17,0,.67-0.02.67-0.29a0.486,0.486,0,0,0-.5-0.36,0.149,0.149,0,0,1-.15-0.07,0.094,0.094,0,0,1,.07-0.05h7.4a0.582,0.582,0,0,1,.67.68c0,0.26-.05.62-0.05,0.88,0,0.48.39,0.46,1.18,0.46,0.81,0,1.17.02,1.17-.46,0-.24-0.04-0.62-0.04-0.86v-0.48c0-.43.02-0.77,0.02-1.06,0-.81-0.55-0.93-1.7-0.93-0.53,0-1.18.02-1.95,0.02h-12.67c-0.794,0-1.49-.05-2.042-0.05-1.056,0-1.632.15-1.632,0.94,0,0.26.048,0.62,0.048,1.08v0.43c0,0.27-.048.63-0.048,0.87,0,0.48.336,0.48,1.176,0.48,0.792,0,1.152,0,1.152-.46,0-.24-0.048-0.62-0.048-0.86a0.614,0.614,0,0,1,.672-0.68h3.332a0.31,0.31,0,0,1,.32.24,0.347,0.347,0,0,1-.1.22,14.722,14.722,0,0,1-4.368,2.78c-0.744.29-.96,0.36-0.96,0.63a1.982,1.982,0,0,0,1.176,1.53c0.744,0,3.452-1.65,4.152-2.13a1.709,1.709,0,0,1,1.15-.34h4.54c0.29,0,.55.03,0.55,0.17a3.458,3.458,0,0,1-.84.82,15.876,15.876,0,0,1-1.9,1.08,0.894,0.894,0,0,1-.43.12,0.813,0.813,0,0,1-.57-0.27,7.553,7.553,0,0,0-1.88-1.44,2.707,2.707,0,0,0-1.63,1.13,2.557,2.557,0,0,0,.79.79c0.2,0.15.34,0.29,0.46,0.39a0.472,0.472,0,0,1,.14.31A0.329,0.329,0,0,1,1003.39,6438Zm6.77-11.54a0.625,0.625,0,0,1,.64-0.68h1.08a0.681,0.681,0,0,1,.68.68v0.24a0.641,0.641,0,0,1-.68.64h-1.08a0.589,0.589,0,0,1-.64-0.64v-0.24Zm-4.54,0a0.66,0.66,0,0,1,.67-0.68h1.1a0.681,0.681,0,0,1,.68.68v0.24a0.641,0.641,0,0,1-.68.64h-1.1a0.6,0.6,0,0,1-.67-0.64v-0.24Zm-2.81-.68a0.672,0.672,0,0,1,.67.68v0.24a0.633,0.633,0,0,1-.67.64h-1.06a0.638,0.638,0,0,1-.67-0.64v-0.24a0.679,0.679,0,0,1,.67-0.68h1.06Zm2.62-1.56a0.5,0.5,0,0,1-.53-0.57,0.54,0.54,0,0,1,.65-0.6h2.59a0.56,0.56,0,0,1,.65.62,0.5,0.5,0,0,1-.53.55h-2.83Zm-5.74-2.97c-0.936,0-1.872-.05-2.832-0.05-0.576,0-.552.22-0.552,0.96,0,0.72,0,.94.552,0.94,0.96,0,1.9-.05,2.832-0.05h1.97a0.529,0.529,0,0,1,.62.6,0.5,0.5,0,0,1-.5.57c-0.55-.02-1.13-0.04-1.68-0.04s-1.346.04-1.346,0.79c0,0.19.024,0.41,0.024,0.86v1.51c0,0.46-.024.68-0.024,0.87,0,0.77.84,0.79,1.416,0.79,0.6,0,1.2-.05,1.8-0.05h9.72c0.6,0,1.23.05,1.83,0.05,0.57,0,1.36-.05,1.36-0.79,0-.24-0.02-0.43-0.02-0.87v-1.51c0-.43.02-0.62,0.02-0.86,0-.77-0.84-0.79-1.39-0.79s-1.08.02-1.61,0.04a0.52,0.52,0,0,1-.5-0.57,0.558,0.558,0,0,1,.65-0.6h1.99c0.94,0,1.9.05,2.83,0.05,0.58,0,.55-0.22.55-0.94s0.03-.96-0.55-0.96c-0.96,0-1.89.05-2.83,0.05H1012a0.527,0.527,0,0,1-.64-0.48,0.52,0.52,0,0,1,.28-0.48,0.4,0.4,0,0,0,.27-0.29c0-.24-0.39-0.26-0.58-0.26-0.48-.05-1.7-0.15-2.16-0.15-0.19,0-.43,0-0.43.27a0.749,0.749,0,0,0,.02.21,3.213,3.213,0,0,1,.05.55,0.552,0.552,0,0,1-.65.63h-2.64a0.535,0.535,0,0,1-.65-0.46v-0.07a0.529,0.529,0,0,1,.27-0.43,0.406,0.406,0,0,0,.26-0.29c0-.24-0.36-0.26-0.55-0.26-0.5-.05-1.73-0.15-2.18-0.15-0.2,0-.44.03-0.44,0.27a0.511,0.511,0,0,0,.03.21c0.02,0.17.05,0.36,0.07,0.55a0.552,0.552,0,0,1-.65.63h-1.99Zm32.5-1.49c-0.24,0-.29.24-0.34,0.5a13.172,13.172,0,0,1-1.3,3.1,2.085,2.085,0,0,1-1.48.31h-0.7c-0.7,0-1.32-.05-1.73-0.05-0.6,0-.69.15-0.69,1.11,0,1.22.09,1.34,0.62,1.34,0.74,0,1.3-.07,1.68-0.07,0.34,0,.53.07,0.53,0.29,0,0.45-3.48,5.28-4.03,5.88a0.98,0.98,0,0,0-.32.53c0,0.43,1.61,1.39,2.04,1.39a0.4,0.4,0,0,0,.34-0.24,15.308,15.308,0,0,1,2.02-2.81,8.031,8.031,0,0,1,4.48-2.11,1,1,0,0,1,1.06.81,3.237,3.237,0,0,1,.12.68,0.619,0.619,0,0,1-.43.55,16.293,16.293,0,0,0-1.49.79c-1.66.98-3.41,2.16-3.41,4.32a3.652,3.652,0,0,0,2.4,3.43,8.933,8.933,0,0,0,3.79.63,31.187,31.187,0,0,0,4.61-.32c0.53-.11.56-0.31,0.56-1.03,0-1.37-.17-1.63-0.48-1.63a3.373,3.373,0,0,0-.48.05,17.762,17.762,0,0,1-4.47.6c-1.15,0-3.48-.15-3.48-1.75,0-1.49,2.47-2.55,2.59-2.55a0.332,0.332,0,0,1,.31.41c0,0.5-.04,1.03-0.04,1.56,0,0.62.43,0.67,1.46,0.67,0.91,0,1.03-.09,1.03-0.96,0-.74-0.02-1.46-0.02-2.21v-0.31a0.734,0.734,0,0,1,.62-0.79c0.94-.41,1.88-0.82,2.84-1.18a2.089,2.089,0,0,0,.33-0.12c0.46-.14.72-0.24,0.72-0.52,0-.41-0.57-2.26-1.03-2.26a1.95,1.95,0,0,0-.62.24,21.151,21.151,0,0,1-2.81,1.37,0.4,0.4,0,0,1-.36-0.41,2.449,2.449,0,0,0-2.74-2.16,6.662,6.662,0,0,0-2.62.62,0.825,0.825,0,0,1-.43.15,0.186,0.186,0,0,1-.19-0.17,7.3,7.3,0,0,1,.82-1.39,0.844,0.844,0,0,1,.72-0.39c1.51-.16,3.02-0.43,4.53-0.74,0.51-.1,1.28-0.19,1.28-0.6a7.038,7.038,0,0,0-.2-1.3,0.708,0.708,0,0,0-.6-0.72,1.957,1.957,0,0,0-.6.15,17,17,0,0,1-2.78.67,0.234,0.234,0,0,1-.27-0.24,1.677,1.677,0,0,1,.24-0.55,1.361,1.361,0,0,1,.8-0.82,0.377,0.377,0,0,0,.28-0.29C1034.87,6420.86,1032.4,6419.76,1032.19,6419.76Zm28.63,5.93a0.494,0.494,0,0,1,.29-0.31,0.487,0.487,0,0,0,.31-0.36,0.388,0.388,0,0,0-.41-0.32c-0.34-.04-1.92-0.14-2.28-0.14a0.369,0.369,0,0,0-.46.38c0,0.17.05,0.51,0.05,0.72a0.552,0.552,0,0,1-.65.68h-2.9c-0.7,0-1.37,0-2.06-.03a0.614,0.614,0,0,1-.65-0.65,1.461,1.461,0,0,1-.03-0.36v-0.26a0.582,0.582,0,0,1,.68-0.67h13.73a0.586,0.586,0,0,1,.67.67v0.38a0.831,0.831,0,0,1-.03.27,0.587,0.587,0,0,1-.67.62c-0.69.05-1.41,0.03-2.11,0.03h-2.86a0.546,0.546,0,0,1-.65-0.44v-0.14Zm-9.24,1.77c0.02,0.65,0,.96.57,0.96,0.89,0,1.76-.07,2.62-0.07h3.02a0.489,0.489,0,0,1,.56.58v0.24a0.479,0.479,0,0,1-.56.55h-2.23c-0.89,0-1.77-.05-2.66-0.05-0.58,0-.55.29-0.55,1.06,0,0.79-.03,1.03.57,1.03,0.89,0,1.75-.05,2.64-0.05h1.99a0.5,0.5,0,0,1,.58.48v0.17a1.332,1.332,0,0,1-.05.19,0.587,0.587,0,0,1-.69.53h-5.14c-0.91,0-1.85-.05-2.78-0.05-0.56,0-.56.27-0.56,1.06,0,0.77,0,1.06.56,1.06,0.93,0,1.87-.05,2.78-0.05h4.2a0.308,0.308,0,0,1,.36.29,0.282,0.282,0,0,1-.07.21,10.554,10.554,0,0,1-6.48,3.15c-0.6.07-1.13,0.04-1.13,0.6,0,0.4.36,1.75,1.08,1.75a8.777,8.777,0,0,0,1.1-.15c2.79-.57,6.27-2.2,7.88-4.65a0.439,0.439,0,0,1,.36-0.22,0.432,0.432,0,0,1,.33.17,11.774,11.774,0,0,0,5.04,3.84,17.952,17.952,0,0,0,3.77,1.13c0.72,0,1.2-1.25,1.2-1.8,0-.43-0.29-0.48-0.77-0.58a13.477,13.477,0,0,1-6.89-3.26,0.431,0.431,0,0,1-.09-0.22,0.294,0.294,0,0,1,.33-0.26h4.33c0.93,0,1.87.05,2.78,0.05,0.58,0,.55-0.27.55-1.06s0.03-1.06-.55-1.06c-0.91,0-1.85.05-2.78,0.05h-5.67a0.477,0.477,0,0,1-.55-0.5v-0.15c0-.05.02-0.12,0.02-0.19a0.57,0.57,0,0,1,.65-0.53h2.31c0.88,0,1.75.05,2.64,0.05,0.6,0,.57-0.24.57-1.03,0-.77.03-1.06-0.55-1.06-0.89,0-1.78.05-2.66,0.05h-2.24a0.476,0.476,0,0,1-.55-0.55v-0.24a0.486,0.486,0,0,1,.55-0.58h2.98c0.86,0,1.75.07,2.62,0.07,0.6,0,.55-0.33.57-0.86a0.449,0.449,0,0,1,.53-0.48h0.43c0.84,0,1.15-.05,1.15-0.58,0-.31-0.07-0.74-0.07-1.08v-0.86c0-.55.05-1.1,0.05-1.37,0-.84-0.7-1.01-1.39-1.01-0.87,0-1.75.05-2.64,0.05h-4.04a0.579,0.579,0,0,1-.67-0.65,1.106,1.106,0,0,1,.29-1.05,0.523,0.523,0,0,0,.29-0.34c0-.29-0.46-0.29-0.67-0.31-0.53-.05-1.61-0.14-2.12-0.14-0.24,0-.45.02-0.45,0.31a0.749,0.749,0,0,0,.02.21,8.473,8.473,0,0,1,.1,1.32,0.591,0.591,0,0,1-.67.65h-4.06c-0.86,0-1.63-.05-2.26-0.05-1.1,0-1.75.15-1.75,1.01,0,0.29.03,0.84,0.03,1.37v0.74c0,0.36-.05.75-0.05,1.11,0,0.57.38,0.55,1.29,0.55h0.22A0.458,0.458,0,0,1,1051.58,6427.46Zm36.67,7.69a0.547,0.547,0,0,0,.41-0.34,0.311,0.311,0,0,0-.19-0.26c-0.48-.22-0.99-0.41-1.47-0.61a2.9,2.9,0,0,0-.67-0.21,0.451,0.451,0,0,0-.34.46c-0.55,2.27-2.8,4-5.01,4.58-1.06.26-1.3,0.26-1.3,0.6,0,0.53.55,1.78,1.18,1.78a10.286,10.286,0,0,0,3.31-1.18,8.371,8.371,0,0,0,3.79-4.49A0.476,0.476,0,0,1,1088.25,6435.15Zm4.13-5.48a0.594,0.594,0,0,1,.65.65v0.43a0.594,0.594,0,0,1-.65.65h-4.99a0.643,0.643,0,0,1-.68-0.65v-0.43a0.643,0.643,0,0,1,.68-0.65h4.99Zm0-3.62a0.624,0.624,0,0,1,.65.67v0.34a0.641,0.641,0,0,1-.65.67h-4.99a0.7,0.7,0,0,1-.68-0.67v-0.34a0.679,0.679,0,0,1,.68-0.67h4.99Zm-4.99-1.92a0.7,0.7,0,0,1-.68-0.67v-0.34a0.692,0.692,0,0,1,.68-0.67h4.99a0.635,0.635,0,0,1,.65.67v0.34a0.641,0.641,0,0,1-.65.67h-4.99Zm2.25,13.49c0,0.38-.02.77-0.02,1.15,0,1.63.6,1.97,2.16,1.97h2.28a1.93,1.93,0,0,0,1.94-.89,7.619,7.619,0,0,0,.8-2.9c0-.75-1.13-0.96-1.73-0.96-0.36,0-.48.14-0.55,0.6-0.22,1.53-.34,1.77-0.99,1.77h-0.74c-0.53,0-.75-0.07-0.75-0.65v-3.52a0.579,0.579,0,0,1,.65-0.68h0.12c0.53,0,1.08.05,1.61,0.05a0.905,0.905,0,0,0,1.08-1.08c0-.58-0.05-1.15-0.05-1.73v-7.63c0-.58.05-1.15,0.05-1.73a0.905,0.905,0,0,0-1.08-1.08c-0.55,0-1.08.05-1.61,0.05h-5.88c-0.53,0-1.08-.05-1.61-0.05a0.905,0.905,0,0,0-1.08,1.08c0,0.58.05,1.15,0.05,1.73v7.63c0,0.58-.05,1.15-0.05,1.73a0.922,0.922,0,0,0,1.11,1.08c0.52,0,1.05-.05,1.58-0.05h2.04a0.589,0.589,0,0,1,.67.68v3.43Zm-8.97-13.61a0.548,0.548,0,0,1,.64-0.65c0.44,0,1.35.05,1.71,0.05,0.53,0,.5-0.27.5-1.18,0-.86.03-1.15-0.5-1.15-0.55,0-1.32.07-2.09,0.07h-2.86c-0.76,0-1.53-.07-2.11-0.07-0.53,0-.5.36-0.5,1.18,0,0.79-.03,1.15.5,1.15,0.36,0,1.27-.05,1.68-0.05a0.565,0.565,0,0,1,.65.65v2.45a0.583,0.583,0,0,1-.65.67c-0.43,0-.86-0.05-1.29-0.05-0.53,0-.51.31-0.51,1.15,0,0.82-.02,1.13.51,1.13,0.04,0,1.17-.05,1.29-0.05a0.575,0.575,0,0,1,.65.67v3.24a0.7,0.7,0,0,1-.6.82,15.767,15.767,0,0,1-1.61.31c-0.77.15-.93,0.17-0.93,0.44a15.919,15.919,0,0,0,.62,2.03c0.12,0.37.17,0.53,0.38,0.53a0.405,0.405,0,0,0,.34-0.29c0.1-.31.12-0.36,0.72-0.52,1.56-.44,4.37-1.25,5.81-1.85,0.48-.19.55-0.29,0.55-0.99,0-.36,0-1.2-0.5-1.2a17.36,17.36,0,0,0-1.78.58c-0.07,0-.14.02-0.22,0.02a0.422,0.422,0,0,1-.4-0.52v-2.6a0.563,0.563,0,0,1,.62-0.67c0.1,0,1.15.05,1.2,0.05,0.5,0,.48-0.31.48-1.13,0-.86.02-1.15-0.5-1.15-0.05,0-1.06.05-1.18,0.05a0.563,0.563,0,0,1-.62-0.67v-2.45Zm32.13,10.41c0.6,0,.72-0.12.75-0.72l0.14-5.92c0.05-1.59.22-4.8,0.22-5.28,0-.41-0.15-0.51-0.68-0.51h-1.68c-0.52,0-.67.1-0.67,0.51,0,0.48.17,3.69,0.22,5.13l0.17,6.07c0.02,0.6.14,0.72,0.74,0.72h0.79Zm-0.31,1.88a1.792,1.792,0,0,0-1.85,1.92,1.561,1.561,0,0,0,1.66,1.58,1.767,1.767,0,0,0,1.87-1.85A1.6,1.6,0,0,0,1112.49,6436.3Z" transform="translate(-996.281 -6383.75)"/>
</svg>
