<svg xmlns="http://www.w3.org/2000/svg" width="348.625" height="57.9" viewBox="0 0 348.625 57.9">
  <defs>
    <style>
      .cls-1 {
        fill: #4da5dc;
        fill-rule: evenodd;
      }
    </style>
  </defs>
  <path id="M-CAPを通じて本当に多くの_経験をし_憧れのCAに_" data-name="M-CAPを通じて本当に多くの 経験をし、憧れのCAに！" class="cls-1" d="M144.45,6392.3c0-.24.072-0.38,0.168-0.38a0.449,0.449,0,0,1,.312.22l4.753,5.92a0.622,0.622,0,0,0,.48.29,0.649,0.649,0,0,0,.5-0.29l4.8-5.92a0.449,0.449,0,0,1,.312-0.22c0.1,0,.168.14,0.168,0.38l0.12,6.17c0.048,1.3,0,3.58,0,4.28,0,0.6.12,0.71,0.72,0.71h1.464c0.6,0,.672-0.07.672-0.71,0-.36-0.12-3.17-0.144-4.45l-0.12-7.17c-0.024-1.71,0-3.58,0-3.94,0-.6-0.12-0.72-0.72-0.72h-0.792a1.153,1.153,0,0,0-1.152.58c-0.7.93-1.416,1.87-2.112,2.73l-3.192,4.06a0.759,0.759,0,0,1-.456.36,0.7,0.7,0,0,1-.456-0.36l-3.265-4.13c-0.7-.86-1.392-1.75-2.064-2.66a1.153,1.153,0,0,0-1.152-.58h-0.792c-0.6,0-.7.12-0.7,0.72,0,0.48,0,2.74-.024,3.94l-0.12,7.17c-0.024,1.73-.168,4.35-0.168,4.69,0,0.36.168,0.47,0.7,0.47h1.44c0.6,0,.72-0.11.72-0.71,0-.56-0.024-3.46,0-4.3Zm24.84,5.98c0.744,0,1.752.02,2.064,0.02,0.5,0,.576-0.14.576-0.69v-1.13c0-.55-0.072-0.7-0.576-0.7-0.312,0-1.32.03-2.064,0.03h-2.04c-0.768,0-1.872-.03-2.184-0.03-0.5,0-.576.15-0.576,0.7v1.13c0,0.55.072,0.69,0.576,0.69,0.312,0,1.416-.02,2.184-0.02h2.04Zm20.256,3.6-0.456-1.15c-0.144-.36-0.24-0.5-0.432-0.5a1.083,1.083,0,0,0-.48.16,6.184,6.184,0,0,1-2.784.6c-3.432,0-5.568-2.3-5.568-5.69s2.04-6.19,6.024-6.19a6.579,6.579,0,0,1,2.568.55,1.234,1.234,0,0,0,.48.15c0.192,0,.264-0.15.408-0.51l0.528-1.44a1.386,1.386,0,0,0,.12-0.45,0.6,0.6,0,0,0-.528-0.48,9.376,9.376,0,0,0-3.456-.6c-6,0-9.049,4.03-9.049,9.05,0,4.92,3.193,8.23,8.161,8.23a10.418,10.418,0,0,0,4.056-.77,0.658,0.658,0,0,0,.528-0.5A1.432,1.432,0,0,0,189.546,6401.88Zm15.36-2.42c0.648,0,.792.04,1.008,0.57,0.336,0.8.648,1.61,1.056,2.76a0.777,0.777,0,0,0,.96.67h1.849c0.384,0,.552-0.04.552-0.23a1.006,1.006,0,0,0-.144-0.41c-0.744-1.66-1.272-2.86-1.8-4.11l-3.456-8.11c-0.432-1.01-.912-2.16-1.416-3.46a0.783,0.783,0,0,0-.96-0.67h-1.032a0.783,0.783,0,0,0-.96.67c-0.5,1.3-1.008,2.45-1.44,3.48l-3.433,8.14c-0.5,1.18-1.032,2.38-1.776,4.06a1.006,1.006,0,0,0-.144.41c0,0.19.168,0.23,0.552,0.23H196a0.777,0.777,0,0,0,.96-0.67c0.409-1.15.721-1.96,1.057-2.76a0.8,0.8,0,0,1,1.008-.57h5.88Zm-3.192-8.48a0.511,0.511,0,0,1,.264-0.38,0.5,0.5,0,0,1,.264.38l2.232,5.5a1.077,1.077,0,0,1,.1.41c0,0.21-.168.26-0.552,0.26h-4.1c-0.384,0-.552-0.05-0.552-0.26a1.077,1.077,0,0,1,.1-0.41Zm15.575,12.48c0.552,0,.7-0.09.7-0.6,0-.16-0.072-2.8-0.072-4.2v-0.55c0-.6.12-0.72,0.72-0.72h1.9c4.44,0,6.384-2.52,6.384-5.95,0-3.38-2.064-4.97-5.472-4.97h-2.449c-1.128,0-3.024-.05-3.192-0.05-0.528,0-.672.2-0.672,0.77,0.024,1.37.048,2.86,0.048,4.03v7.44c0,1.4-.072,4.04-0.072,4.2,0,0.51.144,0.6,0.7,0.6h1.488Zm0.624-13.8c0-.6.12-0.72,0.72-0.72h2.3c1.776,0,3.144.68,3.144,2.76,0,2.38-1.56,3.32-3.552,3.32h-1.9c-0.6,0-.72-0.12-0.72-0.72v-4.64Zm23.473-5.9c-0.24,0-.288.24-0.336,0.5a13.163,13.163,0,0,1-1.3,3.1,2.113,2.113,0,0,1-1.489.31h-0.7c-0.7,0-1.32-.05-1.728-0.05-0.6,0-.7.15-0.7,1.11,0,1.22.1,1.34,0.624,1.34,0.744,0,1.3-.07,1.68-0.07,0.336,0,.528.07,0.528,0.29,0,0.45-3.48,5.28-4.032,5.88a0.967,0.967,0,0,0-.312.53c0,0.43,1.608,1.39,2.04,1.39a0.4,0.4,0,0,0,.336-0.24,15.676,15.676,0,0,1,2.016-2.81,8.066,8.066,0,0,1,4.489-2.11,1,1,0,0,1,1.056.81,3.371,3.371,0,0,1,.12.68,0.621,0.621,0,0,1-.432.55c-0.5.24-1.008,0.5-1.488,0.79-1.656.98-3.409,2.16-3.409,4.32a3.648,3.648,0,0,0,2.4,3.43,8.927,8.927,0,0,0,3.792.63,32.708,32.708,0,0,0,4.608-.31c0.528-.13.552-0.32,0.552-1.04,0-1.36-.168-1.63-0.48-1.63a3.469,3.469,0,0,0-.48.05,17.728,17.728,0,0,1-4.464.6c-1.152,0-3.48-.15-3.48-1.75,0-1.49,2.472-2.55,2.592-2.55a0.333,0.333,0,0,1,.312.41c0,0.51-.048,1.03-0.048,1.56,0,0.62.432,0.67,1.464,0.67,0.912,0,1.032-.09,1.032-0.96,0-.74-0.024-1.46-0.024-2.21v-0.31a0.735,0.735,0,0,1,.624-0.79c0.936-.41,1.872-0.82,2.832-1.18a2.441,2.441,0,0,0,.337-0.12c0.455-.14.72-0.24,0.72-0.52,0-.41-0.576-2.26-1.033-2.26a2.029,2.029,0,0,0-.624.24,20.9,20.9,0,0,1-2.808,1.37,0.4,0.4,0,0,1-.36-0.41,2.448,2.448,0,0,0-2.736-2.16,6.635,6.635,0,0,0-2.616.62,0.851,0.851,0,0,1-.432.15,0.184,0.184,0,0,1-.192-0.17,7.6,7.6,0,0,1,.816-1.39,0.852,0.852,0,0,1,.72-0.39c1.512-.16,3.024-0.43,4.536-0.74,0.5-.1,1.272-0.19,1.272-0.6a7.777,7.777,0,0,0-.192-1.3,0.711,0.711,0,0,0-.6-0.72,1.889,1.889,0,0,0-.6.15,17.143,17.143,0,0,1-2.784.67,0.232,0.232,0,0,1-.264-0.24,1.636,1.636,0,0,1,.24-0.55,1.347,1.347,0,0,1,.792-0.82,0.387,0.387,0,0,0,.288-0.29C244.074,6384.86,241.6,6383.76,241.386,6383.76Zm22.535,4.56a9.1,9.1,0,0,0-1.68-2.18c-0.528-.58-1.08-1.13-1.656-1.66a1,1,0,0,0-.576-0.36,2.42,2.42,0,0,0-1.488,1.3,0.675,0.675,0,0,0,.312.48,30.452,30.452,0,0,1,3.1,3.31,0.656,0.656,0,0,0,.48.36A2.279,2.279,0,0,0,263.921,6388.32Zm-4.032,15.67c0.624-.48,1.248-0.96,1.848-1.46a0.655,0.655,0,0,1,.336-0.12,0.507,0.507,0,0,1,.432.29,4.185,4.185,0,0,0,3.049,1.63,26.257,26.257,0,0,0,3.552.29c2.9,0.04,5.808.02,8.713,0,0.912,0,1.56.14,1.56-1.61,0-.38-0.024-0.7-0.456-0.7-0.168,0-.5.03-0.672,0.03-2.041.07-4.081,0.12-6.1,0.12h-1.728a20.874,20.874,0,0,1-5.352-.46c-1.561-.5-1.561-1.63-1.561-3v-3.46c0-.67.048-1.32,0.048-1.99,0-.89-0.5-1.13-1.344-1.13-0.48,0-.96.05-1.44,0.05h-0.744c-0.408,0-.816-0.07-1.2-0.07-0.576,0-.528.34-0.528,1.2,0,0.79-.048,1.18.528,1.18,0.36,0,.816-0.08,1.2-0.08h0.408a0.576,0.576,0,0,1,.648.68v4.15a1.007,1.007,0,0,1-.528,1.01,19.831,19.831,0,0,1-1.752,1.1c-0.72.34-.96,0.46-0.96,0.67a4.209,4.209,0,0,0,.5,1.25c0.552,1.06.624,1.27,0.864,1.27a0.387,0.387,0,0,0,.36-0.4A0.586,0.586,0,0,1,259.889,6403.99Zm8.713-8.42a0.556,0.556,0,0,1-.576-0.58v-0.26a0.556,0.556,0,0,1,.576-0.58h1.656a0.556,0.556,0,0,1,.576.58v0.26a0.556,0.556,0,0,1-.576.58H268.6Zm6.792-1.42a0.537,0.537,0,0,1,.552.58v0.26a0.537,0.537,0,0,1-.552.58h-1.776a0.537,0.537,0,0,1-.552-0.58v-0.26a0.537,0.537,0,0,1,.552-0.58h1.776Zm0.552-2.25a0.534,0.534,0,0,1-.552.57h-1.776a0.534,0.534,0,0,1-.552-0.57v-0.24a0.537,0.537,0,0,1,.552-0.58h1.776a0.537,0.537,0,0,1,.552.58v0.24Zm-5.112,0a0.553,0.553,0,0,1-.576.57H268.6a0.553,0.553,0,0,1-.576-0.57v-0.24a0.556,0.556,0,0,1,.576-0.58h1.656a0.556,0.556,0,0,1,.576.58v0.24Zm-1.9-2.64c-0.648,0-1.32-.03-1.992-0.03s-1.224.1-1.224,0.91c0,0.6.048,1.2,0.048,1.78v6.14c0,0.89-.048,1.78-0.048,2.64,0,0.65.312,0.65,1.176,0.65,0.96,0,1.176-.02,1.176-0.67,0-.89-0.048-1.75-0.048-2.62v-0.19a0.569,0.569,0,0,1,.672-0.67h1.464a0.563,0.563,0,0,1,.672.65c0,0.84-.072,1.68-0.072,2.52,0,0.69.264,0.69,1.176,0.69,0.96,0,1.176-.02,1.176-0.74,0-.82-0.072-1.66-0.048-2.47a0.548,0.548,0,0,1,.648-0.65H275.3a0.562,0.562,0,0,1,.648.67v0.6c0,0.43-.048.7-0.6,0.7-0.312,0-.6-0.03-0.912-0.03-0.384,0-.432.39-0.432,0.7,0,1.54.552,1.49,1.08,1.49a4.433,4.433,0,0,0,2.665-.58,1.919,1.919,0,0,0,.528-1.63c0-.5-0.024-1.01-0.024-1.51v-5.71c0-.58.024-1.16,0.024-1.76,0-.81-0.528-0.93-1.224-0.93-0.529,0-1.056.05-1.585,0.05a0.557,0.557,0,0,1-.312-0.15,3.6,3.6,0,0,0-.84-0.45,0.335,0.335,0,0,1-.192-0.29,0.29,0.29,0,0,1,.192-0.27c0.744-.4,1.488-0.81,2.208-1.27,0.385-.24,1.561-0.91,1.561-1.39a1.352,1.352,0,0,0-1.32-1.1c-0.6,0-1.2.02-1.825,0.02h-5.976c-0.864,0-1.728-.05-2.592-0.05-0.672,0-.672.22-0.672,0.91s-0.024.89,0.672,0.89c0.864,0,1.728-.05,2.592-0.05h4.176c0.12,0,.576-0.02.576,0.15a4.53,4.53,0,0,1-1.2.86c-0.144.07-.24,0.15-0.288,0.17a1.6,1.6,0,0,1-.576.14,1.784,1.784,0,0,1-.5-0.09,16.8,16.8,0,0,0-2.52-.82,1.465,1.465,0,0,0-1.08,1.15c0,0.29.288,0.39,1.224,0.7,0.456,0.17,1.1.38,1.944,0.7a0.15,0.15,0,0,1,.1.12c0,0.09-.048.12-0.144,0.12h-1.728Zm31.776-3.63a2,2,0,0,0-1.152.99,0.553,0.553,0,0,0,.216.33c0.6,0.58,1.176,1.25,1.7,1.87a0.472,0.472,0,0,0,.336.27,1.9,1.9,0,0,0,1.153-1.08A9.158,9.158,0,0,0,300.714,6385.63Zm-2.64,1.8a2.047,2.047,0,0,0-1.176.99,0.608,0.608,0,0,0,.216.33,21.4,21.4,0,0,1,1.68,1.9,0.544,0.544,0,0,0,.336.26,1.874,1.874,0,0,0,1.176-1.08A9.235,9.235,0,0,0,298.074,6387.43Zm-7.681-1.94c-0.336,0-.36.24-0.36,0.6v0.26c0,0.99-.216,3.29-0.288,4.39-0.144,1.9-.216,3.8-0.216,5.69,0,1.75.12,4.08,1.2,5.52a5.284,5.284,0,0,0,4.225,1.85,8.413,8.413,0,0,0,7.3-4.58,9.006,9.006,0,0,0,.985-2.81,3.1,3.1,0,0,0-1.993-1.95c-0.36,0-.384.41-0.456,0.8a7.516,7.516,0,0,1-1.488,3.55,6.081,6.081,0,0,1-4.512,2.33c-2.592,0-2.544-2.91-2.544-4.78a50.679,50.679,0,0,1,.672-8.74,1.224,1.224,0,0,1,.552-0.98,0.284,0.284,0,0,0,.12-0.22,0.874,0.874,0,0,0-.816-0.43A18.3,18.3,0,0,0,290.393,6385.49Zm21.768,3.14c0,0.24.216,2.52,0.792,2.52a1.487,1.487,0,0,0,.36-0.05,51.021,51.021,0,0,1,5.305-.98c0.264-.05,1.344-0.22,1.536-0.22a0.344,0.344,0,0,1,.36.29,1.545,1.545,0,0,1-.432.58,10.641,10.641,0,0,0-2.641,6.89c0,4.68,3.505,5.97,7.585,5.97a0.748,0.748,0,0,0,.7-0.24,5.7,5.7,0,0,0,.432-2.13c0-.39-0.192-0.41-0.552-0.41-0.24,0-.768.02-1.2,0.02-2.424,0-4.224-.67-4.224-3.45a8.984,8.984,0,0,1,1.152-4.23,7.24,7.24,0,0,1,4.1-3.57,11.893,11.893,0,0,1,3.985-.51c0.552-.02,1.056.03,1.056-0.5a14.232,14.232,0,0,0-.192-1.75c-0.072-.29-0.12-0.6-0.48-0.6a1.4,1.4,0,0,0-.288.02c-1.8.29-3.649,0.53-5.449,0.74-3.5.41-7.009,0.77-10.513,0.99C312.5,6388.08,312.161,6388.01,312.161,6388.63Zm37.417,4.51a31.7,31.7,0,0,0,4.656,6.22c0.456,0.48,2.521,2.54,3.049,2.54a2.287,2.287,0,0,0,1.488-1.7,0.984,0.984,0,0,0-.6-0.67,27.176,27.176,0,0,1-7.177-8.07,0.665,0.665,0,0,1-.048-0.21,0.384,0.384,0,0,1,.408-0.34h3.672c0.937,0,1.873.05,2.809,0.05,0.6,0,.576-0.26.576-1.18,0-.88.024-1.17-0.576-1.17-0.936,0-1.872.07-2.809,0.07h-5.112a0.591,0.591,0,0,1-.648-0.67v-2.02a1.97,1.97,0,0,1,.264-1.41,0.531,0.531,0,0,0,.312-0.39c0-.24-0.336-0.26-0.5-0.29-0.456-.04-1.9-0.14-2.28-0.14-0.24,0-.432.05-0.432,0.34a0.629,0.629,0,0,0,.024.21,13.048,13.048,0,0,1,.072,1.73v1.97a0.58,0.58,0,0,1-.672.67h-5.065c-0.936,0-1.872-.07-2.808-0.07-0.6,0-.576.29-0.576,1.2,0,0.86-.024,1.15.576,1.15,0.936,0,1.872-.05,2.808-0.05h3.529a0.386,0.386,0,0,1,.432.36,0.725,0.725,0,0,1-.048.22,25.514,25.514,0,0,1-7.153,8.33,0.989,0.989,0,0,0-.5.62,2.621,2.621,0,0,0,1.584,1.61,1.645,1.645,0,0,0,.864-0.51,29.484,29.484,0,0,0,6.745-8.47,0.154,0.154,0,0,1,.144-0.09,0.142,0.142,0,0,1,.144.16v4.9a0.569,0.569,0,0,1-.672.67h-0.288c-0.768,0-1.512-.05-2.257-0.05-0.648,0-.6.34-0.6,1.2,0,0.82-.048,1.18.6,1.18,0.745,0,1.489-.05,2.257-0.05h0.288a0.558,0.558,0,0,1,.672.63c0.024,0.96-.048,1.92-0.048,2.9,0,0.74.264,0.77,1.32,0.77s1.32-.03,1.32-0.77c0-.98-0.072-1.94-0.048-2.9a0.55,0.55,0,0,1,.648-0.63h0.336c0.744,0,1.512.05,2.256,0.05,0.648,0,.6-0.36.6-1.18,0-.88.048-1.2-0.624-1.2-0.744,0-1.488.05-2.232,0.05h-0.336a0.562,0.562,0,0,1-.648-0.67v-4.8a0.164,0.164,0,0,1,.144-0.19A0.269,0.269,0,0,1,349.578,6393.14Zm34.273-6.91a0.348,0.348,0,0,0-.264-0.24c-0.12-.05-0.312-0.17-0.528-0.26a8.08,8.08,0,0,0-1.705-.72,0.355,0.355,0,0,0-.336.29,28.751,28.751,0,0,1-2.928,4.92,1.4,1.4,0,0,0-.336.62,1.161,1.161,0,0,0,.72.7,2.524,2.524,0,0,0,.936.4,1.04,1.04,0,0,0,.648-0.5c0.888-1.2,2.064-3.14,2.833-4.44a0.779,0.779,0,0,1,.48-0.46A0.493,0.493,0,0,0,383.851,6386.23Zm-12.913,4.54a15.448,15.448,0,0,0-1.1-2.33,30.757,30.757,0,0,0-1.776-2.95,0.767,0.767,0,0,0-.552-0.46c-0.36,0-1.752.67-1.752,1.06a0.941,0.941,0,0,0,.192.41,42.436,42.436,0,0,1,2.9,4.99,0.44,0.44,0,0,0,.432.31C369.617,6391.8,370.938,6391.2,370.938,6390.77Zm4.728-4.87a1.612,1.612,0,0,1,.288-1.32,0.477,0.477,0,0,0,.288-0.36c0-.29-0.432-0.29-0.648-0.32-0.408-.04-1.824-0.19-2.16-0.19-0.24,0-.432.05-0.432,0.34v0.24a12.017,12.017,0,0,1,.1,1.89v5.48a0.569,0.569,0,0,1-.672.67H367.6c-0.672,0-1.32-.05-1.92-0.05-0.5,0-.5.26-0.5,1.15s0,1.15.5,1.15c0.648,0,1.3-.04,1.92-0.04h12.577a0.578,0.578,0,0,1,.672.67v1.17a0.576,0.576,0,0,1-.672.68H369.185c-0.936,0-1.872-.05-2.832-0.05-0.528,0-.528.26-0.528,1.08,0,0.79,0,1.08.528,1.08,0.96,0,1.9-.07,2.832-0.07h10.993a0.585,0.585,0,0,1,.672.67v1.32a0.566,0.566,0,0,1-.672.65H368.369c-0.984,0-1.992-.05-2.976-0.05-0.576,0-.552.29-0.552,1.17s-0.024,1.16.552,1.16c0.984,0,1.992-.05,2.976-0.05h11.857a0.476,0.476,0,0,1,.552.55c0.024,0.7.216,0.7,1.321,0.7,1.008,0,1.32.02,1.32-.65,0-.79-0.072-1.58-0.072-2.38v-6.81c0-.65.048-1.3,0.048-1.95a0.968,0.968,0,0,0-1.2-1.15c-0.625,0-1.249.05-1.873,0.05h-3.984a0.569,0.569,0,0,1-.672-0.67v-5.76Zm23.952,12.04c-0.456,0-1.3,1.71-1.3,2.05,0,0.38,1.608,2.4,5.5,2.4a27.216,27.216,0,0,0,5.689-.73,0.918,0.918,0,0,0,.288-0.88c0-1.23-.048-1.8-0.432-1.8a2.011,2.011,0,0,0-.5.09,19.657,19.657,0,0,1-5.281.77,4.117,4.117,0,0,1-3.648-1.68A0.417,0.417,0,0,0,399.618,6397.94Zm0.552-10.39c-0.384,0-.5.36-0.5,1.51a1.17,1.17,0,0,0,.24.94c0.5,0.34,3.456.48,4.2,0.48a26.879,26.879,0,0,0,4.032-.34c0.457-.09.457-0.28,0.457-0.79a11.909,11.909,0,0,0-.1-1.29,0.542,0.542,0,0,0-.48-0.58,2.7,2.7,0,0,0-.433.07,15.581,15.581,0,0,1-3.648.48,15.125,15.125,0,0,1-3.144-.36A3.024,3.024,0,0,0,400.17,6387.55Zm-5.761-1.87a0.508,0.508,0,0,0-.36.53,11.039,11.039,0,0,1-.312,1.2,28.69,28.69,0,0,0-1.224,7.94,16.537,16.537,0,0,0,1.464,7.37,1.651,1.651,0,0,0,1.008,1.18c0.5,0,1.872-.58,1.872-1.18a2.315,2.315,0,0,0-.047-0.36c-0.024-.21-0.1-0.77-0.1-1.01a18.462,18.462,0,0,1,.961-3.48,1.328,1.328,0,0,0-.864-0.77,0.788,0.788,0,0,0-.5.58,1.887,1.887,0,0,1-.649.94c-0.552,0-.648-2.91-0.648-3.36a19.081,19.081,0,0,1,1.344-6.82,1.526,1.526,0,0,1,.745-1.03c0.24-.15.336-0.17,0.336-0.31a0.57,0.57,0,0,0-.481-0.41C396.617,6386.54,394.6,6385.68,394.409,6385.68Zm31.7,15.65a33.957,33.957,0,0,1-7.609,1.49c-1.1.09-1.392,0.09-1.392,0.62,0,0.41.288,1.73,1.224,1.73,0.192,0,.48-0.05.7-0.07a32.04,32.04,0,0,0,12.025-3.46,20.684,20.684,0,0,0,5.785-4.42,2.508,2.508,0,0,0,.648-1.05,2.161,2.161,0,0,0-.48-0.89,1.326,1.326,0,0,0-1.224-.5c-0.817,0-1.633.02-2.449,0.02h-2.784a0.236,0.236,0,0,1-.264-0.22,2.045,2.045,0,0,1,.648-0.74,0.952,0.952,0,0,1,.744-0.38,0.383,0.383,0,0,0,.384-0.27,0.83,0.83,0,0,0-.744-0.53,14.243,14.243,0,0,0-1.68-.52,0.581,0.581,0,0,0-.456.28c-2.4,2.74-6.865,4.54-10.345,5.43a0.6,0.6,0,0,0-.624.53,1.85,1.85,0,0,0,1.272,1.56,3.754,3.754,0,0,0,.96-0.24,33.918,33.918,0,0,0,6.1-2.62,1.8,1.8,0,0,1,1.152-.29h4.968c0.5,0,.792.03,0.792,0.24,0,0.65-3.36,2.6-4.008,2.91a0.829,0.829,0,0,1-.408.12,0.732,0.732,0,0,1-.552-0.32c-0.384-.45-0.912-1.03-1.32-1.46a1.2,1.2,0,0,0-.672-0.43c-0.36,0-1.536.6-1.536,1.01a5.416,5.416,0,0,0,.888,1.2c0.168,0.21.336,0.4,0.48,0.57a0.533,0.533,0,0,1,.12.31A0.409,0.409,0,0,1,426.114,6401.33Zm0.336-10.8c-0.288-.34-1.512-1.78-1.9-1.78a2.348,2.348,0,0,0-1.609,1.03,2.646,2.646,0,0,0,.745.99,1.944,1.944,0,0,1,.72.96,0.409,0.409,0,0,1-.312.38,39.416,39.416,0,0,1-6.337,1.56c-0.576.1-.912,0.15-0.912,0.6,0,0.39.336,1.63,1.1,1.63a8.8,8.8,0,0,0,1.008-.16,39.571,39.571,0,0,0,11.089-3.94,23.793,23.793,0,0,0,4.873-3.5,1.29,1.29,0,0,0-1.009-2.36c-0.72,0-1.44.03-2.16,0.03h-3.792a0.249,0.249,0,0,1-.288-0.22,1.161,1.161,0,0,1,.432-0.53,1.222,1.222,0,0,1,.768-0.43,0.369,0.369,0,0,0,.408-0.29c0-.31-0.5-0.4-1.032-0.6a10.871,10.871,0,0,0-1.464-.45,0.849,0.849,0,0,0-.552.41,19.28,19.28,0,0,1-7.9,4.84c-0.6.2-1.032,0.29-1.032,0.68a1.861,1.861,0,0,0,1.2,1.53c1.032,0,4.8-2.11,5.809-2.73a1.7,1.7,0,0,1,1.08-.27h5.136a0.9,0.9,0,0,1,.792.19c0,0.6-3.312,2.36-3.936,2.64a0.573,0.573,0,0,1-.36.1A0.729,0.729,0,0,1,426.45,6390.53Zm30.648-4.56a3.948,3.948,0,0,0-1.272-1.08,0.6,0.6,0,0,0-.36.29,32.32,32.32,0,0,1-4.488,4.24,24.052,24.052,0,0,0-3.1,2.81,2.737,2.737,0,0,0-.528,1.66,3.642,3.642,0,0,0,1.152,2.54c1.176,1.4,2.5,2.69,3.793,3.99,0.984,1.01,1.992,2.01,2.9,3.09a1.465,1.465,0,0,0,.744.63,3.4,3.4,0,0,0,2.04-1.95c0-.48-1.656-1.82-2.064-2.18-1.488-1.32-2.976-2.67-4.344-4.13a3.943,3.943,0,0,1-1.2-1.9,2.506,2.506,0,0,1,.984-1.36c1.248-1.2,2.616-2.31,3.96-3.41,0.6-.48,1.2-0.94,1.8-1.37a1.1,1.1,0,0,1,.648-0.29c0.168,0,.5.03,0.5-0.21A5.383,5.383,0,0,0,457.1,6385.97Zm21.288,3.24a0.377,0.377,0,0,1,.384.43,24.408,24.408,0,0,1-.768,4.68c-0.672,2.45-2.016,5.18-3.217,5.18-1.224,0-1.536-2.23-1.536-3.12a7.435,7.435,0,0,1,4.321-6.91A2.866,2.866,0,0,1,478.386,6389.21Zm2.3-2.81a9.885,9.885,0,0,0-9.961,10.08,7.543,7.543,0,0,0,.744,3.41,3.876,3.876,0,0,0,3.264,2.28,4.3,4.3,0,0,0,3.169-1.85c2.3-2.76,3.144-7.03,3.408-10.54,0.024-.4.024-0.93,0.576-0.93a4.292,4.292,0,0,1,.912.21,5.831,5.831,0,0,1,3.84,5.74c0,3.43-2.472,5.5-5.616,6.24-0.24.05-.6,0.1-0.6,0.34,0,0.52.984,2.01,1.608,2.01a9.276,9.276,0,0,0,2.616-.96,8.615,8.615,0,0,0,4.681-7.75,8.093,8.093,0,0,0-2.425-5.9A8.539,8.539,0,0,0,480.69,6386.4Zm-330.023,51a19.378,19.378,0,0,0-.792-2.47c-0.48-1.25-.745-1.99-1.152-1.99-0.241,0-1.369.24-1.369,0.69a1.122,1.122,0,0,0,.168.48,23.479,23.479,0,0,1,1.224,3.36,0.722,0.722,0,0,0,.577.7C149.515,6438.17,150.667,6437.91,150.667,6437.4Zm-6.193-3.41a0.616,0.616,0,0,0-.576-0.38,13.858,13.858,0,0,0-1.512-.34c-0.264,0-.288.27-0.312,0.46a21.869,21.869,0,0,1-1.176,4.8,4,4,0,0,0-.192.72c0,0.43,1.224.65,1.512,0.65a0.62,0.62,0,0,0,.5-0.6c0.264-.91.984-3.63,1.128-4.51a0.514,0.514,0,0,1,.384-0.53A0.308,0.308,0,0,0,144.474,6433.99Zm12.049-9.21a0.549,0.549,0,0,1-.864,0,9.964,9.964,0,0,1-1.032-1.61,0.733,0.733,0,0,1-.072-0.24,0.356,0.356,0,0,1,.432-0.34h2.5c0.336,0,.552.03,0.552,0.24A7.894,7.894,0,0,1,156.523,6424.78Zm-1.032,3.72a0.94,0.94,0,0,1,.5-0.17,0.837,0.837,0,0,1,.528.19,17.762,17.762,0,0,0,4.417,2.28,2.835,2.835,0,0,0,.768.19c0.6,0,1.224-1.22,1.224-1.77a0.5,0.5,0,0,0-.48-0.44,17.105,17.105,0,0,1-4.1-1.72,0.443,0.443,0,0,1-.24-0.39,0.448,0.448,0,0,1,.192-0.38,16.522,16.522,0,0,0,2.568-3.22c0.025-.05.049-0.09,0.1-0.17a2.837,2.837,0,0,0,.433-1.08,1.992,1.992,0,0,0-.529-0.98,1.275,1.275,0,0,0-1.08-.41c-0.48,0-.96.03-1.464,0.03h-5.04c-0.768,0-1.512-.05-2.28-0.05-0.456,0-.432.29-0.432,1.13,0,0.81-.024,1.1.432,1.1a8.342,8.342,0,0,0,.864-0.05,0.39,0.39,0,0,1,.264.24,16.059,16.059,0,0,0,1.9,3.24,0.76,0.76,0,0,1,.144.41,0.562,0.562,0,0,1-.264.43,17.89,17.89,0,0,1-3.264,1.63,0.754,0.754,0,0,0-.672.51,2.01,2.01,0,0,0,1.3,1.61C152.011,6430.66,154.771,6428.98,155.491,6428.5Zm-11.4.04c-0.216.34-.408,0.65-0.648,0.99a1.015,1.015,0,0,1-.936.55c-0.216.02-.408,0.02-0.6,0.02h-0.312c-0.48,0-.72.03-0.72,0.27a10.925,10.925,0,0,0,.24,1.13c0.072,0.26.1,0.48,0.144,0.67,0.12,0.6.144,0.74,0.408,0.74a0.469,0.469,0,0,0,.36-0.29,0.371,0.371,0,0,1,.312-0.26c0.6-.05,1.176-0.12,1.752-0.19h0.1a0.528,0.528,0,0,1,.552.6v4.42c0,1.03-.072,2.06-0.072,3.09,0,0.74.288,0.77,1.2,0.77,0.96,0,1.2-.03,1.2-0.77,0-1.03-.048-2.06-0.048-3.09v-4.73a0.651,0.651,0,0,1,.6-0.77,5.334,5.334,0,0,0,.552-0.1h0.168a0.593,0.593,0,0,1,.552.41l0.072,0.24a0.716,0.716,0,0,0,.553.7c0.144,0,1.44-.34,1.44-0.8a4.771,4.771,0,0,0-.336-1c-0.456-.99-0.96-2.09-1.489-3.22a0.536,0.536,0,0,0-.5-0.36c-0.264,0-1.32.34-1.32,0.7a3.808,3.808,0,0,0,.312.79,0.568,0.568,0,0,1,.072.21,0.44,0.44,0,0,1-.432.44c-0.36.04-.7,0.07-1.056,0.12a0.3,0.3,0,0,1-.336-0.29,0.617,0.617,0,0,1,.072-0.19c1.176-1.61,2.208-3.32,3.24-5a0.6,0.6,0,0,1,.409-0.24c0.24-.04.456-0.04,0.456-0.28a0.76,0.76,0,0,0-.432-0.48c-0.073-.03-0.192-0.1-0.384-0.2a10.6,10.6,0,0,0-1.417-.72c-0.192,0-.216.15-0.336,0.39-0.5.98-1.056,1.92-1.608,2.85a0.481,0.481,0,0,1-.408.27,0.6,0.6,0,0,1-.384-0.17,2.952,2.952,0,0,0-.336-0.31,0.51,0.51,0,0,1-.192-0.39,0.563,0.563,0,0,1,.072-0.26c0.648-1.27,1.152-2.33,1.728-3.65a0.544,0.544,0,0,1,.336-0.26c0.192-.03.408-0.05,0.408-0.29a0.592,0.592,0,0,0-.408-0.38,1.554,1.554,0,0,0-.192-0.08,13.893,13.893,0,0,0-1.584-.6,0.368,0.368,0,0,0-.288.34,27.307,27.307,0,0,1-1.44,3.58,0.419,0.419,0,0,1-.36.26,0.518,0.518,0,0,1-.312-0.12,0.979,0.979,0,0,0-.432-0.24c-0.408,0-1.08,1.34-1.08,1.63a0.494,0.494,0,0,0,.288.39,25.778,25.778,0,0,1,2.664,2.18,0.738,0.738,0,0,1,.288.53A0.9,0.9,0,0,1,144.09,6428.54Zm10.1,6.58a0.569,0.569,0,0,1,.672.67v1.8a0.569,0.569,0,0,1-.672.67h-1.56c-0.816,0-1.632-.04-2.448-0.04-0.624,0-.6.33-0.6,1.15,0,0.86-.024,1.2.624,1.2,0.816,0,1.608-.07,2.424-0.07h6.84c0.816,0,1.633.07,2.449,0.07,0.624,0,.6-0.34.6-1.18,0-.81.048-1.17-0.6-1.17-0.816,0-1.633.04-2.449,0.04h-1.56a0.569,0.569,0,0,1-.672-0.67v-1.8a0.569,0.569,0,0,1,.672-0.67h0.672c0.84,0,1.7.05,2.568,0.05,0.649,0,.625-0.31.625-1.15,0-.8.024-1.16-0.6-1.16-0.865,0-1.729.08-2.593,0.08h-0.672a0.567,0.567,0,0,1-.672-0.63c-0.024-.93-0.024-1.29.264-1.51a0.443,0.443,0,0,0,.288-0.36c0-.26-0.36-0.29-0.552-0.31-0.384-.05-1.728-0.19-2.064-0.19a0.326,0.326,0,0,0-.408.33,0.816,0.816,0,0,0,.024.24,10.724,10.724,0,0,1,.072,1.75,0.583,0.583,0,0,1-.672.68h-0.36c-0.864,0-1.728-.08-2.592-0.08-0.624,0-.6.34-0.6,1.16,0,0.86-.024,1.15.624,1.15,0.864,0,1.7-.05,2.568-0.05h0.36Zm20.135,0.74a14.462,14.462,0,0,0-.36-1.48c-0.336-1.18-.456-1.32-0.72-1.32a0.8,0.8,0,0,0-.768.48,1.214,1.214,0,0,0,.072.31,11.165,11.165,0,0,1,.432,1.49c0.192,0.91.192,1.17,0.528,1.17A0.838,0.838,0,0,0,174.33,6435.86Zm-1.68,1.11a16.619,16.619,0,0,0-.312-1.73c-0.312-1.44-.432-1.7-0.744-1.7a0.7,0.7,0,0,0-.744.5,0.853,0.853,0,0,0,.048.24c0.24,1.06.336,1.8,0.432,2.33,0.12,0.81.168,1.05,0.48,1.05A0.769,0.769,0,0,0,172.65,6436.97Zm-1.8,1.13c0-.41-0.144-1.83-0.216-2.28-0.192-1.44-.24-1.8-0.672-1.8a0.651,0.651,0,0,0-.72.45,1.816,1.816,0,0,0,.024.36,29.441,29.441,0,0,1,.336,3.27c0.024,0.31.024,0.62,0.456,0.62A0.684,0.684,0,0,0,170.85,6438.1Zm-1.656-3.63c0-.28-1.248-0.43-1.416-0.43a0.284,0.284,0,0,0-.288.34v0.52a19.489,19.489,0,0,1-.384,3.72,1.225,1.225,0,0,0-.024.29c0,0.34.576,0.44,0.84,0.44,0.48,0,.5-0.44.552-0.92,0.12-.96.192-1.94,0.24-2.9,0.024-.51-0.024-0.63.168-0.72A0.381,0.381,0,0,0,169.194,6434.47Zm11.545-8.93a0.28,0.28,0,0,1-.288-0.26,0.273,0.273,0,0,1,.1-0.22,22.6,22.6,0,0,0,1.752-2.04,0.476,0.476,0,0,1,.36-0.21,0.45,0.45,0,0,1,.384.21,21.469,21.469,0,0,0,1.824,2.07,0.305,0.305,0,0,1,.1.21,0.273,0.273,0,0,1-.264.24h-3.96Zm-9.121,3.32a0.629,0.629,0,0,1,.648.67v0.29a0.64,0.64,0,0,1-.648.67H171.09a0.676,0.676,0,0,1-.672-0.67v-0.29a0.663,0.663,0,0,1,.672-0.67h0.528Zm0.1-3.2a0.537,0.537,0,0,1,.552.58v0.34a0.534,0.534,0,0,1-.552.57h-0.72a0.553,0.553,0,0,1-.576-0.57v-0.34a0.556,0.556,0,0,1,.576-0.58h0.72Zm0.552-2.3a0.527,0.527,0,0,1-.552.58h-0.72a0.545,0.545,0,0,1-.576-0.58v-0.31a0.556,0.556,0,0,1,.576-0.58h0.72a0.537,0.537,0,0,1,.552.58v0.31Zm8.833,7.25a0.563,0.563,0,0,1,.648.65,4.761,4.761,0,0,1-.048.81,0.611,0.611,0,0,1-.744.6h-0.384a0.571,0.571,0,0,1-.672-0.65v-0.74a0.585,0.585,0,0,1,.672-0.67H181.1Zm2.88,1.44c0.024-.27.024-0.55,0.048-0.82a0.581,0.581,0,0,1,.672-0.62h0.576a0.569,0.569,0,0,1,.648.67v0.74a0.555,0.555,0,0,1-.648.65h-0.7A0.521,0.521,0,0,1,183.979,6432.05Zm-4.9-5.16a0.435,0.435,0,0,0,.528.5c0.528,0,1.056-.02,1.584-0.02a0.5,0.5,0,0,1,.576.53v0.28a0.484,0.484,0,0,1-.576.53h-0.6c-0.48,0-.96-0.02-1.464-0.02-0.792,0-1.416.12-1.416,1.08,0,0.38.024,0.79,0.024,1.2v1.75c0,0.48-.024.96-0.024,1.44,0,0.74.48,0.72,1.1,0.72a1.912,1.912,0,0,0,.888-0.12,2.708,2.708,0,0,1,.432-0.19h0.384a0.4,0.4,0,0,1,.456.38,0.673,0.673,0,0,1-.048.2,9.836,9.836,0,0,1-4.344,4.03,0.643,0.643,0,0,0-.456.5,2.488,2.488,0,0,0,1.44,1.66c0.576,0,3.48-2.04,4.992-4.42a0.355,0.355,0,0,1,.336-0.19,0.385,0.385,0,0,1,.312.19,12.659,12.659,0,0,0,2.952,3.36,4.415,4.415,0,0,0,1.513.94,2.454,2.454,0,0,0,1.536-1.54,1.227,1.227,0,0,0-.672-0.62,12.838,12.838,0,0,1-3.913-3.91,0.793,0.793,0,0,1-.072-0.25,0.379,0.379,0,0,1,.432-0.33h0.72a2.708,2.708,0,0,1,.432.19,1.912,1.912,0,0,0,.888.12c0.6,0,1.105.05,1.105-.72,0-.48-0.024-0.96-0.024-1.44v-1.75c0-.41.024-0.82,0.024-1.23,0-.91-0.624-1.05-1.417-1.05-0.48,0-.96.02-1.464,0.02H184.6a0.484,0.484,0,0,1-.576-0.55v-0.24a0.491,0.491,0,0,1,.576-0.55c0.384,0,1.008.02,1.392,0.02a0.438,0.438,0,0,0,.528-0.48,0.188,0.188,0,0,1,.168-0.19,0.205,0.205,0,0,1,.12.05,3.049,3.049,0,0,0,1.2.72,2.126,2.126,0,0,0,1.416-1.56,0.77,0.77,0,0,0-.408-0.51,21.475,21.475,0,0,1-4.849-4.39,0.106,0.106,0,0,1-.024-0.09,0.157,0.157,0,0,1,.12-0.15,0.259,0.259,0,0,0,.168-0.21c0-.32-0.408-0.41-0.912-0.58a7.992,7.992,0,0,0-1.464-.48,0.583,0.583,0,0,0-.456.43,15.959,15.959,0,0,1-4.416,4.9,0.3,0.3,0,0,1-.192.07,0.286,0.286,0,0,1-.264-0.29c-0.024-.45.024-0.74-0.456-0.74-0.432,0-1.009.07-1.489,0.05a0.494,0.494,0,0,1-.576-0.58v-0.31a0.494,0.494,0,0,1,.576-0.58h0.576c0.5,0,.985.05,1.489,0.05s0.5-.26.5-1.08c0-.79,0-1.03-0.528-1.03-0.432,0-.936.02-1.465,0.02h-4.008c-0.576,0-1.152-.02-1.728-0.02-0.912,0-1.392.24-1.392,1.2,0,0.62.024,1.22,0.024,1.82v6.77c0,0.74-.024,1.51-0.024,2.28,0,0.5.24,0.48,1.1,0.48h0.336a0.881,0.881,0,0,0,.72-0.17,0.7,0.7,0,0,1,.456-0.36h2.784c0.672,0,1.1-.07,1.1.65a23.168,23.168,0,0,1-.528,4.25c-0.288,1.27-.552,1.51-1.632,1.51-0.432,0-.912-0.05-1.032-0.05-0.336,0-.432.32-0.432,0.87,0,1.32.552,1.51,1.248,1.51,1.776,0,2.832-.29,3.529-2.06a26.828,26.828,0,0,0,1.032-7.35c0-.79-0.024-1.32-1.176-1.32-0.312,0-.6.02-0.913,0.02a0.542,0.542,0,0,1-.624-0.64v-0.29a0.576,0.576,0,0,1,.672-0.67c0.48,0,1.153.04,1.417,0.04,0.432,0,.432-0.28.432-0.88,0-.68,0-0.92-0.456-0.92-0.336,0-.913.08-1.489,0.05a0.49,0.49,0,0,1-.576-0.57v-0.34a0.5,0.5,0,0,1,.576-0.58c0.361,0,.72.03,1.08,0.03,0.1,0.02.1,0.09,0.1,0.17a2.349,2.349,0,0,0,1.441,1.68,4.148,4.148,0,0,0,1.344-.84,0.22,0.22,0,0,1,.144-0.05A0.237,0.237,0,0,1,179.083,6426.89Zm24.5-7.13c-0.24,0-.288.24-0.336,0.5a13.163,13.163,0,0,1-1.3,3.1,2.116,2.116,0,0,1-1.489.31h-0.7c-0.7,0-1.32-.05-1.728-0.05-0.6,0-.7.15-0.7,1.11,0,1.22.1,1.34,0.624,1.34,0.744,0,1.3-.07,1.68-0.07,0.336,0,.528.07,0.528,0.29,0,0.45-3.48,5.28-4.032,5.88a0.967,0.967,0,0,0-.312.53c0,0.43,1.608,1.39,2.04,1.39a0.4,0.4,0,0,0,.336-0.24,15.676,15.676,0,0,1,2.016-2.81,8.063,8.063,0,0,1,4.489-2.11,1,1,0,0,1,1.056.81,3.371,3.371,0,0,1,.12.68,0.621,0.621,0,0,1-.432.55c-0.5.24-1.008,0.5-1.488,0.79-1.656.98-3.409,2.16-3.409,4.32a3.646,3.646,0,0,0,2.4,3.43,8.927,8.927,0,0,0,3.792.63,31.256,31.256,0,0,0,4.608-.32c0.528-.11.552-0.31,0.552-1.03,0-1.37-.168-1.63-0.48-1.63a3.469,3.469,0,0,0-.48.05,17.728,17.728,0,0,1-4.464.6c-1.152,0-3.48-.15-3.48-1.75,0-1.49,2.472-2.55,2.592-2.55a0.333,0.333,0,0,1,.312.41c0,0.5-.048,1.03-0.048,1.56,0,0.62.432,0.67,1.464,0.67,0.912,0,1.032-.09,1.032-0.96,0-.74-0.024-1.46-0.024-2.21v-0.31a0.735,0.735,0,0,1,.624-0.79c0.936-.41,1.872-0.82,2.832-1.18a2.425,2.425,0,0,0,.336-0.12c0.456-.14.72-0.24,0.72-0.52,0-.41-0.576-2.26-1.032-2.26a2.029,2.029,0,0,0-.624.24,20.9,20.9,0,0,1-2.808,1.37,0.4,0.4,0,0,1-.36-0.41,2.448,2.448,0,0,0-2.736-2.16,6.635,6.635,0,0,0-2.616.62,0.851,0.851,0,0,1-.432.15,0.184,0.184,0,0,1-.192-0.17,7.6,7.6,0,0,1,.816-1.39,0.852,0.852,0,0,1,.72-0.39c1.512-.16,3.024-0.43,4.536-0.74,0.5-.1,1.272-0.19,1.272-0.6a7.777,7.777,0,0,0-.192-1.3,0.711,0.711,0,0,0-.6-0.72,1.889,1.889,0,0,0-.6.15,17.143,17.143,0,0,1-2.784.67,0.232,0.232,0,0,1-.264-0.24,1.636,1.636,0,0,1,.24-0.55,1.347,1.347,0,0,1,.792-0.82,0.387,0.387,0,0,0,.288-0.29C206.275,6420.86,203.8,6419.76,203.587,6419.76Zm22.607,1.73c-0.336,0-.36.24-0.36,0.6v0.26c0,0.99-.216,3.29-0.288,4.39-0.144,1.9-.216,3.8-0.216,5.69,0,1.76.12,4.08,1.2,5.52a5.314,5.314,0,0,0,4.225,1.85,8.394,8.394,0,0,0,7.3-4.58,9,9,0,0,0,.984-2.81,3.093,3.093,0,0,0-1.992-1.95c-0.36,0-.408.41-0.48,0.8a7.64,7.64,0,0,1-1.464,3.55,6.081,6.081,0,0,1-4.512,2.33c-2.593,0-2.545-2.91-2.545-4.78,0-1.37.216-8.98,1.057-9.6a0.517,0.517,0,0,0,.288-0.36,0.5,0.5,0,0,0-.48-0.34A21.006,21.006,0,0,0,226.194,6421.49Zm21.24,14.66a0.686,0.686,0,0,0,.432.46,14.726,14.726,0,0,1,3.648,3.26,0.765,0.765,0,0,0,.48.36,2.98,2.98,0,0,0,1.752-1.84c0-.6-4.128-3.92-4.68-3.92A3.308,3.308,0,0,0,247.434,6436.15Zm28.512,1.13c0,1.06-.072,2.11-0.072,3.17,0,0.62.24,0.82,1.152,0.82,0.816,0,1.152-.12,1.152-0.75,0-1.1-.048-2.21-0.048-3.29v-15.21a1.786,1.786,0,0,1,.264-1.32,0.616,0.616,0,0,0,.336-0.44c0-.31-0.384-0.33-0.6-0.36-0.408-.04-1.32-0.14-1.7-0.14-0.36,0-.552.07-0.552,0.43,0,0.27.072,1.68,0.072,2.81v14.28Zm-0.264-12.43c0-.31-0.528-0.36-1.2-0.43-0.12,0-.456-0.05-0.576-0.05-0.336,0-.312.26-0.312,0.5a27.258,27.258,0,0,1-.6,5.04c-0.024.12-.1,0.53-0.1,0.6,0,0.41.96,0.51,1.248,0.51,0.384,0,.408-0.24.48-0.58a34.559,34.559,0,0,0,.6-4.7,0.547,0.547,0,0,1,.264-0.6A0.413,0.413,0,0,0,275.682,6424.85Zm8.065,7.85a0.54,0.54,0,0,1,.576-0.56h0.936a0.54,0.54,0,0,1,.576.56v0.19a0.553,0.553,0,0,1-.576.57h-0.936a0.553,0.553,0,0,1-.576-0.57v-0.19Zm4.824,0.76a0.553,0.553,0,0,1-.576-0.57v-0.19a0.54,0.54,0,0,1,.576-0.56h0.984a0.54,0.54,0,0,1,.576.56v0.19a0.553,0.553,0,0,1-.576.57h-0.984Zm-3.312-3.88a0.553,0.553,0,0,1,.576.57v0.12a0.556,0.556,0,0,1-.576.58h-0.936a0.556,0.556,0,0,1-.576-0.58v-0.12a0.553,0.553,0,0,1,.576-0.57h0.936Zm4.872,0.69a0.556,0.556,0,0,1-.576.58h-0.984a0.556,0.556,0,0,1-.576-0.58v-0.12a0.553,0.553,0,0,1,.576-0.57h0.984a0.553,0.553,0,0,1,.576.57v0.12Zm-1.584,5.81a0.39,0.39,0,0,1-.456-0.46v-0.09a0.4,0.4,0,0,1,.456-0.46h1.2c0.5,0,1.032.05,1.56,0.05a0.842,0.842,0,0,0,1.032-.96c0-.43-0.024-0.89-0.024-1.32v-2.64c0-.46.024-0.89,0.024-1.34a0.843,0.843,0,0,0-1.056-.94c-0.528,0-1.032.05-1.536,0.05h-5.5c-0.528,0-1.056-.05-1.584-0.05a0.833,0.833,0,0,0-1.008.96c0,0.46.024,0.89,0.024,1.32v2.64c0,0.43-.024.89-0.024,1.32a0.842,0.842,0,0,0,1.032.96c0.528,0,1.032-.05,1.56-0.05h1.032a0.392,0.392,0,0,1,.456.46v0.09a0.382,0.382,0,0,1-.456.46h-1.728c-0.84,0-1.68-.05-2.545-0.05-0.5,0-.5.29-0.5,0.94s0,0.94.5,0.94c0.865,0,1.7-.05,2.545-0.05h1.728a0.385,0.385,0,0,1,.456.45v0.17a0.392,0.392,0,0,1-.456.46h-2.856c-0.888,0-1.8-.05-2.713-0.05-0.528,0-.528.26-0.528,0.98,0,0.68-.024.99,0.528,0.99,0.912,0,1.825-.05,2.713-0.05h8.952c0.912,0,1.8.05,2.713,0.05,0.552,0,.528-0.29.528-0.99,0-.72.024-0.98-0.528-0.98-0.912,0-1.8.05-2.713,0.05h-2.832a0.4,0.4,0,0,1-.456-0.46v-0.17a0.394,0.394,0,0,1,.456-0.45h1.968c0.84,0,1.7.05,2.545,0.05,0.5,0,.5-0.27.5-0.94,0-.65,0-0.94-0.5-0.94-0.865,0-1.7.05-2.545,0.05h-1.968Zm-2.256-10.87a0.756,0.756,0,0,1-.84-0.58,7.022,7.022,0,0,0-.264-0.74,0.554,0.554,0,0,1-.048-0.19,0.392,0.392,0,0,1,.432-0.39h2.808a0.389,0.389,0,0,1,.456.39,0.788,0.788,0,0,1-.048.24l-0.312.72a0.794,0.794,0,0,1-.912.55h-1.272Zm-3.36-1.75a0.292,0.292,0,0,0-.144.26,4.43,4.43,0,0,0,.312.79,0.965,0.965,0,0,1,.12.34,0.394,0.394,0,0,1-.432.36c-0.648,0-1.272-.03-1.921-0.05a0.731,0.731,0,0,1-.792-0.53c-0.264-.62-0.384-0.79-0.624-0.79a1.358,1.358,0,0,0-1.1.62,1.244,1.244,0,0,0,.048.27,24.052,24.052,0,0,1,.888,3.19c0.048,0.31.1,0.67,0.5,0.67a1.271,1.271,0,0,0,1.2-.74c0-.15-0.072-0.29-0.072-0.41a0.419,0.419,0,0,1,.433-0.41c0.648-.02,1.3-0.02,1.944-0.02h7.824c0.888,0,1.753.05,2.641,0.05,0.528,0,.5-0.22.5-0.94,0-.74.024-0.96-0.5-0.96-0.865,0-1.7.05-2.569,0.05a0.394,0.394,0,0,1-.432-0.36,2.093,2.093,0,0,1,.24-0.6,0.508,0.508,0,0,1,.432-0.27,0.234,0.234,0,0,0,.24-0.24,0.562,0.562,0,0,0-.528-0.36,0.048,0.048,0,0,1-.048-0.04c0-.03.048-0.03,0.12-0.03,0.6,0,1.153.05,1.753,0.05,0.528,0,.5-0.22.5-0.96,0-.7.024-0.94-0.5-0.94-0.889,0-1.753.05-2.641,0.05h-1.512a0.507,0.507,0,0,1-.624-0.48,0.651,0.651,0,0,1,.24-0.45,0.516,0.516,0,0,0,.312-0.36c0-.32-0.456-0.32-0.7-0.36-0.48-.05-1.536-0.15-1.968-0.15a0.351,0.351,0,0,0-.432.36c0,0.1.072,0.63,0.072,0.82a0.523,0.523,0,0,1-.624.62h-1.128c-0.888,0-1.776-.05-2.64-0.05-0.529,0-.529.22-0.529,0.94,0,0.74,0,.96.529,0.96s1.056-.05,1.584-0.05a0.066,0.066,0,0,1,.072.07A0.144,0.144,0,0,1,282.931,6423.46Zm23.255-3.17c-0.264,0-.384.07-0.384,0.33,0,0.17.024,0.46,0.024,0.75,0,1.05-.1,2.49-0.1,3.14a1.557,1.557,0,0,1-.12.72c-0.288.58-3.336,1.11-4.056,1.2-0.288.05-.792,0.05-0.792,0.43a7.152,7.152,0,0,0,.5,1.64,0.841,0.841,0,0,0,.7.67,16.3,16.3,0,0,0,2.9-.99,1.745,1.745,0,0,1,.432-0.12,0.317,0.317,0,0,1,.312.36c0,0.2-.048.41-0.048,0.63a2.277,2.277,0,0,1-.288,1.13c-1.1,1.99-2.232,3.96-3.528,5.85a2.571,2.571,0,0,0-.48.87,3.462,3.462,0,0,0,1.8,1.58,0.408,0.408,0,0,0,.312-0.29c0.24-.45.984-1.75,1.248-2.18a1.6,1.6,0,0,1,.576-0.72,0.269,0.269,0,0,1,.216.31c0,1.08-.144,3.75-0.144,3.96,0,0.48.432,0.48,1.008,0.48,1.777,0,1.753-.24,1.753-0.41,0-.26-0.072-1.56-0.121-2.54-0.024-.41-0.071-1.13-0.071-1.27,0-.56-0.1-3.48,0-3.8a8.047,8.047,0,0,1,1.344-1.53,24.177,24.177,0,0,1,2.616-2.33,3.634,3.634,0,0,1,1.872-.96c0.72,0,.72.84,0.72,1.37,0,2.16-.312,4.34-0.312,6.5,0,1.52.192,3.84,2.208,3.84a6.183,6.183,0,0,0,3.385-1.39,3.141,3.141,0,0,0,1.152-1.15c0-.38-0.7-2.18-1.1-2.18a0.683,0.683,0,0,0-.456.26c-0.433.48-1.465,1.51-2.113,1.51-0.552,0-.528-0.84-0.528-1.41,0-1.01.072-2.09,0.12-3.13,0.072-1.22.12-2.47,0.12-3.72a4.376,4.376,0,0,0-.432-2.28,2.609,2.609,0,0,0-2.064-1.05,5.649,5.649,0,0,0-3.48,1.7c-0.576.48-1.536,1.35-2.04,1.87a0.32,0.32,0,0,1-.192.12,0.2,0.2,0,0,1-.192-0.24,1.861,1.861,0,0,1,.048-0.38c0.072-.17.528-1.01,0.648-1.18a0.531,0.531,0,0,0,.144-0.26,1.709,1.709,0,0,0-.816-1.1,0.427,0.427,0,0,1-.384-0.41c0-.34.168-1.51,0.216-1.92,0.144-.99.12-1.06,0.432-1.32a0.555,0.555,0,0,0,.192-0.36,0.334,0.334,0,0,0-.264-0.27C308.443,6420.55,306.45,6420.29,306.186,6420.29Zm28.8,4.92a0.377,0.377,0,0,1,.384.43,24.408,24.408,0,0,1-.768,4.68c-0.673,2.45-2.017,5.18-3.217,5.18-1.224,0-1.536-2.23-1.536-3.12a7.435,7.435,0,0,1,4.321-6.91A2.866,2.866,0,0,1,334.987,6425.21Zm2.3-2.81a9.885,9.885,0,0,0-9.961,10.08,7.543,7.543,0,0,0,.744,3.41,3.876,3.876,0,0,0,3.264,2.28,4.3,4.3,0,0,0,3.169-1.85c2.3-2.76,3.144-7.03,3.408-10.54,0.024-.4.024-0.93,0.576-0.93a4.292,4.292,0,0,1,.912.21,5.831,5.831,0,0,1,3.84,5.74c0,3.43-2.472,5.5-5.616,6.24-0.24.05-.6,0.1-0.6,0.34,0,0.53.984,2.01,1.608,2.01a9.276,9.276,0,0,0,2.616-.96,8.617,8.617,0,0,0,4.681-7.75,8.093,8.093,0,0,0-2.425-5.9A8.539,8.539,0,0,0,337.291,6422.4Zm27.48,15.48-0.456-1.15c-0.144-.36-0.24-0.51-0.432-0.51a1.138,1.138,0,0,0-.48.17,6.184,6.184,0,0,1-2.784.6c-3.433,0-5.569-2.3-5.569-5.69s2.04-6.19,6.025-6.19a6.579,6.579,0,0,1,2.568.55,1.234,1.234,0,0,0,.48.15c0.192,0,.264-0.15.408-0.51l0.528-1.44a1.386,1.386,0,0,0,.12-0.45,0.6,0.6,0,0,0-.528-0.48,9.376,9.376,0,0,0-3.456-.6c-6,0-9.049,4.03-9.049,9.05,0,4.92,3.192,8.23,8.161,8.23a10.418,10.418,0,0,0,4.056-.77,0.658,0.658,0,0,0,.528-0.5A1.432,1.432,0,0,0,364.771,6437.88Zm15.36-2.42c0.648,0,.792.04,1.008,0.57,0.336,0.79.648,1.61,1.056,2.76a0.777,0.777,0,0,0,.96.67H385c0.384,0,.552-0.04.552-0.24a1.026,1.026,0,0,0-.144-0.4c-0.744-1.66-1.272-2.86-1.8-4.11l-3.456-8.11c-0.432-1.01-.912-2.16-1.416-3.46a0.784,0.784,0,0,0-.961-0.67h-1.032a0.783,0.783,0,0,0-.96.67c-0.5,1.3-1.008,2.45-1.44,3.48l-3.432,8.14c-0.5,1.18-1.032,2.38-1.776,4.06a1.026,1.026,0,0,0-.144.4c0,0.2.168,0.24,0.552,0.24h1.68a0.777,0.777,0,0,0,.96-0.67c0.408-1.15.72-1.97,1.056-2.76a0.8,0.8,0,0,1,1.008-.57h5.881Zm-3.193-8.48a0.511,0.511,0,0,1,.264-0.38,0.5,0.5,0,0,1,.264.38l2.233,5.5a1.077,1.077,0,0,1,.1.41c0,0.21-.168.26-0.552,0.26h-4.105c-0.384,0-.552-0.05-0.552-0.26a1.077,1.077,0,0,1,.1-0.41Zm22.368,6.96c-0.456,0-1.3,1.71-1.3,2.05,0,0.38,1.608,2.4,5.5,2.4a27.888,27.888,0,0,0,5.688-.73,0.918,0.918,0,0,0,.288-0.88c0-1.23-.048-1.8-0.432-1.8a1.644,1.644,0,0,0-.5.09,19.644,19.644,0,0,1-5.28.77,4.118,4.118,0,0,1-3.649-1.68A0.417,0.417,0,0,0,399.306,6433.94Zm0.552-10.39c-0.384,0-.5.36-0.5,1.51a1.17,1.17,0,0,0,.24.94c0.5,0.34,3.457.48,4.2,0.48a26.879,26.879,0,0,0,4.032-.34c0.456-.09.456-0.28,0.456-0.79a11.661,11.661,0,0,0-.1-1.29,0.54,0.54,0,0,0-.48-0.58,2.708,2.708,0,0,0-.432.07,15.581,15.581,0,0,1-3.648.48,15.135,15.135,0,0,1-3.145-.36A3.024,3.024,0,0,0,399.858,6423.55Zm-5.76-1.87a0.508,0.508,0,0,0-.36.53,11.039,11.039,0,0,1-.312,1.2,28.69,28.69,0,0,0-1.224,7.94,16.537,16.537,0,0,0,1.464,7.37,1.651,1.651,0,0,0,1.008,1.18c0.5,0,1.872-.58,1.872-1.18a2.079,2.079,0,0,0-.048-0.36c-0.024-.21-0.1-0.77-0.1-1.01a18.476,18.476,0,0,1,.96-3.48,1.328,1.328,0,0,0-.864-0.77,0.79,0.79,0,0,0-.5.58,1.88,1.88,0,0,1-.648.94c-0.552,0-.648-2.91-0.648-3.36a19.081,19.081,0,0,1,1.344-6.82,1.522,1.522,0,0,1,.744-1.03c0.24-.15.336-0.17,0.336-0.31a0.57,0.57,0,0,0-.48-0.41C396.306,6422.54,394.29,6421.68,394.1,6421.68Zm33.192,12.74c0.6,0,.72-0.12.744-0.72l0.144-5.92c0.048-1.59.216-4.8,0.216-5.28,0-.41-0.144-0.51-0.672-0.51h-1.68c-0.528,0-.672.1-0.672,0.51,0,0.48.168,3.69,0.216,5.13l0.168,6.07c0.024,0.6.144,0.72,0.744,0.72h0.792Zm-0.312,1.88a1.792,1.792,0,0,0-1.848,1.92,1.558,1.558,0,0,0,1.656,1.58,1.768,1.768,0,0,0,1.873-1.85A1.605,1.605,0,0,0,426.978,6436.3Z" transform="translate(-140.719 -6383.44)"/>
</svg>
