<?xml version="1.0" encoding="utf-8"?>
<!-- Generator: Adobe Illustrator 22.0.1, SVG Export Plug-In . SVG Version: 6.00 Build 0)  -->
<svg version="1.1" id="レイヤー_1" xmlns="http://www.w3.org/2000/svg" xmlns:xlink="http://www.w3.org/1999/xlink" x="0px"
	 y="0px" viewBox="0 0 80 78" style="enable-background:new 0 0 80 78;" xml:space="preserve">
<style type="text/css">
	.st0{fill:#989898;}
</style>
<title></title>
<g id="icomoon-ignore">
</g>
<path class="st0" d="M5.4,9.2c1.3,0,2.2,0.1,2.8,0.3c0.1,0,0.3,0.2,0.4,0.3s0.2,0.5,0.2,0.9s-0.1,0.7-0.2,0.8l-0.1,0.1
	c-0.1,0-0.3-0.2-0.6-0.5C7.2,10.4,6.5,10,5.5,10c-0.9,0-1.6,0.4-2.2,1.1c-0.5,0.7-0.8,1.7-0.8,2.9s0.3,2.2,0.9,2.9
	C4,17.7,4.7,18,5.7,18c0.6,0,1-0.1,1.3-0.4s0.4-0.8,0.4-1.5c0-0.3-0.1-0.5-0.2-0.8c0-0.1-0.1-0.2-0.3-0.3c-0.1-0.1-0.2-0.2-0.2-0.3
	c0-0.2,0.4-0.3,1.3-0.3c0.6,0,1,0,1.1,0.1c0.2,0.1,0.3,0.2,0.3,0.3c0,0-0.1,0.1-0.2,0.3C9.1,15.3,9,15.4,9,15.5S8.9,16,8.9,16.7
	c-0.1,0.7-0.1,1.2-0.2,1.3s-0.4,0.3-0.8,0.4c-1.1,0.4-1.9,0.5-2.4,0.5H5.3c-0.6,0-1.2-0.1-1.8-0.3c-0.6-0.2-1-0.5-1.4-0.9
	s-0.7-0.9-1-1.5s-0.4-1.3-0.4-2v-0.3c0-0.6,0.1-1.3,0.4-1.9c0.5-1.2,1.3-2,2.4-2.4C4.1,9.3,4.7,9.2,5.4,9.2z M14,18.5
	c0,0.2-0.4,0.3-1.2,0.3h-0.7h-0.3h-0.4c-0.5,0-0.7-0.1-0.7-0.3c0-0.1,0.1-0.3,0.3-0.4s0.4-0.3,0.4-0.5c0.1-0.2,0.1-0.9,0.1-2
	s0-1.7-0.1-2s-0.2-0.4-0.3-0.5c-0.3-0.2-0.4-0.3-0.4-0.4s0-0.2,0.1-0.2c0.3-0.2,0.8-0.3,1.4-0.3h0.1c0.3,0,0.4,0.1,0.6,0.4
	c0.1,0.3,0.2,0.4,0.3,0.4s0.2-0.1,0.4-0.2s0.4-0.3,0.6-0.4s0.5-0.2,0.8-0.2s0.5,0.1,0.7,0.2c0.2,0.1,0.2,0.3,0.2,0.6
	c0,0.2-0.1,0.4-0.2,0.5s-0.2,0.2-0.4,0.2s-0.3-0.1-0.5-0.2c-0.2-0.1-0.4-0.2-0.6-0.2s-0.3,0.1-0.5,0.2c-0.2,0.1-0.3,0.3-0.5,0.7
	c-0.1,0.3-0.2,0.9-0.2,1.6c0,0.8,0.1,1.3,0.2,1.5c0.1,0.2,0.3,0.4,0.5,0.6S14,18.4,14,18.5z M16.9,13.4c0-0.3,0.3-0.6,0.8-0.9
	c0.5-0.3,1.1-0.4,1.7-0.4c0,0,0,0,0.1,0c0.5,0,1,0.1,1.3,0.2c0.7,0.3,1,0.8,1.1,1.7c0,0.1,0,0.7,0,1.7c0,1.1,0,1.7,0.1,1.9
	s0.2,0.3,0.5,0.4s0.4,0.2,0.4,0.2c0,0.2-0.1,0.3-0.2,0.4c-0.3,0.2-0.7,0.3-1,0.3s-0.6-0.1-0.7-0.2c-0.3-0.3-0.4-0.4-0.4-0.4
	s-0.3,0.1-0.8,0.3c-0.5,0.2-0.9,0.3-1.3,0.3c-0.6,0-1-0.2-1.3-0.5s-0.5-0.7-0.5-1.1v-0.2c0-0.5,0.2-0.9,0.6-1.3s1.1-0.6,2.2-0.8
	c0.4-0.1,0.6-0.1,0.7-0.2c0.2-0.1,0.3-0.4,0.3-0.8s-0.1-0.7-0.3-0.9s-0.5-0.2-0.9-0.2s-0.7,0.2-1,0.6c-0.3,0.4-0.6,0.6-0.9,0.6
	C17.1,14.1,16.9,13.9,16.9,13.4z M20.3,15.6h-0.1c-0.6,0-1.1,0.1-1.5,0.4c-0.4,0.3-0.6,0.6-0.6,1v0.1c0,0.2,0.1,0.4,0.2,0.6
	s0.3,0.3,0.6,0.3H19h0.2c0.5,0,0.9-0.2,1.2-0.6c0.1-0.2,0.2-0.5,0.2-1v-0.1v-0.2v-0.2C20.5,15.8,20.4,15.6,20.3,15.6z M28.5,12.2
	c0-0.1,0.1-0.4,0.1-0.9s0-0.9-0.1-1.1c-0.1-0.3-0.3-0.5-0.5-0.6c-0.2-0.2-0.3-0.3-0.3-0.3s0.1-0.1,0.2-0.2c0.3-0.2,0.7-0.2,1.4-0.2
	h0.2c0.3,0,0.5,0.2,0.5,0.5c0,0.1,0,1.4,0,3.9s0,3.9,0.1,4.1c0,0.2,0.1,0.4,0.3,0.6c0,0,0.1,0.1,0.3,0.2c0.1,0.1,0.2,0.2,0.2,0.3
	c0,0.1-0.1,0.2-0.2,0.2c-0.3,0.1-0.7,0.2-1.3,0.2c-0.2,0-0.4-0.1-0.5-0.2c-0.2-0.2-0.4-0.4-0.4-0.4s-0.1,0.1-0.3,0.2
	s-0.4,0.2-0.7,0.3c-0.3,0.1-0.6,0.2-1,0.2s-0.7-0.1-1.1-0.3c-0.6-0.3-1-0.8-1.3-1.5c-0.1-0.4-0.2-0.9-0.2-1.4c0-1,0.3-1.9,0.9-2.5
	s1.4-1,2.4-1l0.9,0.1C28.3,12.3,28.5,12.3,28.5,12.2z M28.5,14.1c0-0.4-0.1-0.7-0.4-0.9c-0.2-0.2-0.6-0.3-0.9-0.3H27
	c-0.2,0-0.4,0.1-0.7,0.2s-0.4,0.3-0.6,0.5c-0.3,0.5-0.5,1-0.5,1.7v0.4c0,0.7,0.2,1.2,0.5,1.7s0.7,0.7,1.1,0.7H27
	c0.4,0,0.7-0.1,1-0.4s0.4-0.6,0.4-1v-0.1v-0.1v-0.4c0-0.2,0-0.4,0-0.7v-0.2V15v-0.1v-0.4v-0.1v-0.1C28.5,14.2,28.5,14.2,28.5,14.1z
	 M38.9,18.1c0.2,0.2,0.3,0.3,0.3,0.3c0,0.1,0,0.1-0.1,0.2c-0.2,0.2-0.6,0.3-1.3,0.3c-0.2,0-0.4,0-0.5-0.1s-0.2-0.2-0.3-0.4
	s-0.2-0.3-0.2-0.3c-0.1,0-0.2,0.1-0.4,0.2c-0.6,0.4-1.1,0.6-1.6,0.6l0,0h-0.2c-0.8,0-1.3-0.3-1.6-1c-0.2-0.3-0.3-1.1-0.3-2.4
	s0-2-0.1-2.1c0-0.1-0.2-0.3-0.4-0.4c-0.2-0.1-0.4-0.2-0.4-0.3c0-0.2,0.1-0.3,0.2-0.3c0.4-0.1,0.8-0.2,1.4-0.2c0.3,0,0.5,0.1,0.6,0.4
	c0.1,0.3,0.2,1.1,0.2,2.4s0.1,2,0.2,2.3c0.2,0.5,0.5,0.7,1,0.7c0.3,0,0.5-0.1,0.8-0.2s0.5-0.3,0.6-0.5s0.2-0.8,0.2-1.8
	s0-1.6-0.1-1.9s-0.2-0.5-0.3-0.6s-0.2-0.3-0.2-0.4c0-0.2,0.5-0.3,1.6-0.3c0.2,0,0.4,0,0.4,0.1c0.1,0.1,0.1,0.3,0.1,0.5v0.4v1.8
	c0,1.2,0,1.9,0.1,2.2C38.6,17.7,38.7,17.9,38.9,18.1z M40.6,13.4c0-0.3,0.3-0.6,0.8-0.9c0.5-0.3,1.1-0.4,1.7-0.4c0,0,0,0,0.1,0
	c0.5,0,1,0.1,1.3,0.2c0.7,0.3,1,0.8,1.1,1.7c0,0.1,0,0.7,0,1.7c0,1.1,0,1.7,0.1,1.9s0.2,0.3,0.5,0.4s0.4,0.2,0.4,0.2
	c0,0.2-0.1,0.3-0.2,0.4c-0.3,0.2-0.7,0.3-1,0.3s-0.6-0.1-0.7-0.2c-0.3-0.3-0.4-0.4-0.4-0.4s-0.3,0.1-0.8,0.3
	c-0.5,0.2-0.9,0.3-1.3,0.3c-0.6,0-1-0.2-1.3-0.5s-0.5-0.7-0.5-1.1v-0.2c0-0.5,0.2-0.9,0.6-1.3c0.4-0.4,1.1-0.6,2.2-0.8
	c0.4-0.1,0.6-0.1,0.7-0.2c0.2-0.1,0.3-0.4,0.3-0.8s-0.1-0.7-0.3-0.9c-0.3-0.1-0.5-0.2-0.9-0.2s-0.7,0.2-1,0.6
	c-0.3,0.4-0.6,0.6-0.9,0.6C40.8,14.1,40.6,13.9,40.6,13.4z M43.9,15.6L43.9,15.6c-0.7,0-1.2,0.1-1.6,0.4c-0.4,0.3-0.6,0.6-0.6,1v0.1
	c0,0.2,0.1,0.4,0.2,0.6c0.1,0.2,0.3,0.3,0.6,0.3h0.1h0.2c0.5,0,0.9-0.2,1.2-0.6c0.1-0.2,0.2-0.5,0.2-1v-0.1v-0.2v-0.2
	C44.2,15.8,44.1,15.6,43.9,15.6z M50.5,17.9l1-0.2c0.1,0,0.2,0.1,0.2,0.3c0,0.2-0.2,0.4-0.5,0.6c-0.4,0.2-0.7,0.3-1.1,0.3H50
	c-0.3,0-0.6-0.1-0.8-0.2s-0.4-0.4-0.5-0.6c-0.2-0.4-0.3-1.2-0.3-2.3s0-1.8-0.1-2.1c-0.1-0.3-0.2-0.5-0.3-0.6
	c-0.2-0.2-0.4-0.3-0.4-0.3c0-0.1,0.1-0.2,0.2-0.3c0.3-0.2,0.5-0.3,0.5-0.4c0,0,0.2-0.4,0.5-1.1c0.2-0.4,0.3-0.5,0.5-0.5
	s0.3,0.1,0.4,0.2c0,0,0.1,0.2,0.1,0.6s0.1,0.6,0.3,0.7c0.1,0.1,0.4,0.2,0.8,0.3c0.4,0.1,0.6,0.2,0.6,0.4s-0.2,0.3-0.6,0.4
	c-0.4,0.1-0.7,0.2-0.8,0.3c-0.2,0.2-0.2,0.9-0.2,2s0.1,1.8,0.2,2C50,17.7,50.3,17.9,50.5,17.9z M54.2,16.2c0,0.5,0.2,1,0.6,1.3
	c0.4,0.4,0.9,0.5,1.5,0.5c0.2,0,0.5,0,0.7-0.1s0.4-0.2,0.6-0.3c0.2-0.1,0.4-0.2,0.4-0.2c0.2,0,0.3,0.1,0.3,0.3c0,0.3-0.3,0.5-1,0.8
	c-0.4,0.2-0.9,0.3-1.4,0.3h-0.2c-0.9,0-1.6-0.3-2.1-0.8c-0.3-0.3-0.5-0.6-0.7-1.1c-0.2-0.4-0.3-0.9-0.3-1.4v-0.2v-0.2
	c0-0.4,0.1-0.9,0.3-1.3c0.2-0.4,0.4-0.8,0.7-1c0.6-0.6,1.3-0.9,2.1-0.9c1.2,0,2.1,0.5,2.5,1.4c0.1,0.3,0.2,0.6,0.2,0.8v0.1
	c0,0.3-0.1,0.5-0.4,0.6c-0.3,0.1-0.9,0.2-1.8,0.3c-1,0.1-1.5,0.1-1.6,0.1C54.4,15.7,54.2,15.9,54.2,16.2z M57.1,14.4v-0.2
	c0-0.3-0.1-0.6-0.4-0.9c-0.2-0.3-0.5-0.4-0.9-0.4h-0.1c-0.1,0-0.1,0-0.1,0c-0.3,0-0.6,0.2-0.9,0.5c-0.3,0.4-0.4,0.8-0.4,1.2v0.1
	c0,0.1,0.1,0.2,0.3,0.2c0.1,0,0.1,0,0.1,0h0.2l0,0l0,0l1.3-0.1h0.2C56.8,14.8,57.1,14.6,57.1,14.4z M3.9,26.7
	c-0.5,0-0.8,0.1-1.1,0.4c-0.3,0.2-0.4,0.6-0.4,1s0.2,0.8,0.7,1.2c0.3,0.2,0.8,0.5,1.6,0.8s1.4,0.7,1.7,1c0.6,0.6,0.9,1.2,0.9,1.8
	v0.2c0,0.8-0.3,1.4-0.9,1.8c-0.3,0.2-0.6,0.4-1,0.5s-0.8,0.2-1.2,0.2H3.8c-0.9,0-1.8-0.1-2.5-0.4c-0.3-0.1-0.5-0.5-0.5-1V34
	c0-0.7,0.1-1,0.3-1s0.4,0.2,0.6,0.6s0.6,0.8,0.9,1s0.9,0.3,1.5,0.3s0.9-0.1,1.2-0.4c0.3-0.3,0.5-0.6,0.5-1c0-0.5-0.3-1-0.8-1.4
	c-0.2-0.2-0.8-0.4-1.6-0.8c-0.9-0.4-1.5-0.8-1.8-1.1c-0.5-0.5-0.7-1.1-0.7-1.7s0.2-1.3,0.7-1.7c0.3-0.3,0.6-0.4,1-0.6
	C3,26.1,3.4,26,3.8,26h0.3c0.2,0,0.4,0,0.7,0.1H5c0.3,0.1,0.4,0.1,0.5,0.1h0.2h0.2c0.2,0,0.3,0,0.4,0.1c0.3,0.1,0.4,0.5,0.4,1.1
	s-0.1,1-0.4,1c-0.1,0-0.3-0.2-0.6-0.5S5.2,27.3,5,27.2C4.8,26.9,4.4,26.7,3.9,26.7z M13.5,30.9c-0.2,0-0.5-0.2-0.8-0.6
	s-0.7-0.6-1.2-0.6s-0.8,0.2-1.1,0.7c-0.3,0.4-0.5,1.1-0.5,1.9c0,0.8,0.2,1.4,0.6,1.9c0.4,0.5,0.9,0.7,1.5,0.7c0.3,0,0.6,0,0.8-0.1
	s0.4-0.2,0.6-0.3c0.2-0.1,0.3-0.1,0.4-0.1c0.1,0,0.2,0.1,0.2,0.3c0,0.3-0.3,0.5-0.8,0.8s-1.1,0.4-1.6,0.4c-1,0-1.8-0.3-2.4-0.9
	c-0.2-0.3-0.4-0.6-0.6-1c-0.2-0.4-0.2-0.8-0.2-1.3v-0.3l0,0l0,0c0-0.4,0.1-0.8,0.3-1.2c0.4-0.8,0.9-1.4,1.7-1.7
	c0.5-0.2,0.9-0.3,1.3-0.3h0.2c0.6,0,1.1,0.1,1.6,0.3c0.3,0.2,0.5,0.5,0.5,0.9c0,0.3-0.1,0.5-0.2,0.6C13.7,30.8,13.6,30.9,13.5,30.9z
	 M15.2,35.2c0-0.1,0.1-0.2,0.3-0.4s0.3-0.4,0.4-0.7c0.1-0.3,0.1-1.4,0.1-3.5s0-3.4-0.1-3.8c0-0.2-0.1-0.4-0.3-0.5
	c-0.3-0.2-0.4-0.3-0.4-0.3c0-0.2,0.1-0.3,0.3-0.4c0.3-0.1,0.7-0.2,1.2-0.2h0.2c0.2,0,0.4,0.1,0.4,0.3s0.1,0.5,0.1,1.1v0.3
	c0,0.2,0,0.3,0,0.5v0.5c0,0.2,0,0.3,0,0.5c0,0.6,0.1,0.9,0.3,0.9c0,0,0.1-0.1,0.3-0.1c0.6-0.3,1.2-0.4,1.6-0.4c0.8,0,1.4,0.3,1.7,1
	c0.2,0.4,0.3,1.5,0.3,3.2c0,0.7,0,1.1,0.1,1.2c0,0.2,0.2,0.3,0.4,0.5s0.3,0.3,0.3,0.3c0,0.1-0.1,0.2-0.3,0.3s-0.7,0.1-1.4,0.1h-0.2
	c-0.5,0-0.7-0.1-0.7-0.3c0,0,0.1-0.2,0.2-0.3c0.1-0.2,0.2-0.4,0.2-0.6s0.1-0.8,0.1-1.8s0-1.6-0.1-1.9c-0.3-0.4-0.7-0.7-1-0.8
	c-0.5,0-0.9,0.2-1.3,0.6c-0.2,0.3-0.3,0.9-0.3,1.9c0,1,0,1.6,0.1,1.9c0,0.3,0.1,0.5,0.3,0.7c0.2,0.2,0.2,0.3,0.2,0.4
	c0,0.2-0.5,0.2-1.4,0.2S15.2,35.5,15.2,35.2z M30,32.1v0.3c0,0.4-0.1,0.8-0.2,1.2c-0.3,0.9-0.9,1.5-1.8,1.9
	c-0.4,0.2-0.8,0.2-1.1,0.2h-0.2c-0.9,0-1.6-0.3-2.2-0.9c-0.3-0.3-0.5-0.6-0.6-1s-0.2-0.9-0.2-1.4v-0.1c0-0.4,0.1-0.9,0.2-1.3
	c0.3-0.9,0.9-1.5,1.8-1.8c0.4-0.2,0.8-0.2,1.1-0.2H27c0.4,0,0.8,0.1,1.2,0.3c0.7,0.3,1.3,0.9,1.6,1.7C29.9,31.3,30,31.7,30,32.1z
	 M25,32.1v0.3c0,0.8,0.2,1.4,0.5,1.9c0.1,0.2,0.3,0.4,0.5,0.6s0.4,0.2,0.7,0.2h0.1c0.4,0,0.8-0.2,1.1-0.6c0.3-0.4,0.5-1,0.5-1.7
	v-0.5c0-0.7-0.2-1.4-0.5-1.9s-0.7-0.8-1.2-0.8h-0.2c-0.4,0-0.8,0.2-1.1,0.7S25,31.3,25,32.1z M37.7,32.1v0.3c0,0.4-0.1,0.8-0.2,1.2
	c-0.3,0.9-0.9,1.5-1.8,1.9c-0.4,0.2-0.8,0.2-1.1,0.2h-0.2c-0.9,0-1.6-0.3-2.2-0.9c-0.3-0.3-0.5-0.6-0.6-1s-0.2-0.9-0.2-1.4v-0.1
	c0-0.4,0.1-0.9,0.2-1.3c0.3-0.9,0.9-1.5,1.8-1.8c0.4-0.2,0.8-0.2,1.1-0.2h0.3c0.4,0,0.8,0.1,1.2,0.3c0.7,0.3,1.3,0.9,1.6,1.7
	C37.6,31.3,37.7,31.7,37.7,32.1z M32.7,32.1v0.3c0,0.8,0.2,1.4,0.5,1.9c0.1,0.2,0.3,0.4,0.5,0.6s0.4,0.2,0.7,0.2h0.1
	c0.4,0,0.8-0.2,1.1-0.6c0.3-0.4,0.5-1,0.5-1.7v-0.5c0-0.7-0.2-1.4-0.5-1.9s-0.7-0.8-1.2-0.8h-0.2c-0.4,0-0.8,0.2-1.1,0.7
	S32.7,31.3,32.7,32.1z M38.8,35.4c0-0.1,0.1-0.2,0.3-0.4s0.3-0.4,0.4-0.7c0.1-0.3,0.1-1.5,0.1-3.7s0-3.3-0.1-3.6s-0.2-0.5-0.4-0.6
	c-0.3-0.2-0.5-0.3-0.5-0.4v-0.1c0-0.1,0.1-0.1,0.2-0.2c0.4-0.2,1-0.3,1.6-0.3h0.1c0.2,0,0.4,0.2,0.4,0.5c0,0,0,0.4,0,1v1.5v0.3v0.4
	v0.3v2.2c0,1.3,0,2.2,0.1,2.5c0,0.3,0.1,0.6,0.3,0.7c0,0,0.1,0.1,0.3,0.2c0.2,0.1,0.3,0.2,0.3,0.3c0,0.2-0.3,0.2-0.8,0.2h-0.3h-0.3
	h-1.1h-0.1C39,35.6,38.8,35.5,38.8,35.4z M7.1,48.9v0.3c0,0.4-0.1,0.8-0.2,1.2c-0.4,0.9-1,1.5-1.9,1.9c-0.4,0.2-0.8,0.2-1.1,0.2H3.6
	c-0.9,0-1.6-0.3-2.2-0.9c-0.3-0.3-0.5-0.6-0.6-1s-0.2-0.9-0.2-1.4v-0.1c0-0.4,0.1-0.9,0.2-1.3c0.3-0.9,0.9-1.5,1.8-1.9
	c0.4-0.2,0.8-0.2,1.1-0.2H4c0.4,0,0.8,0.1,1.2,0.3c0.8,0.3,1.3,0.9,1.6,1.6C7,48.1,7.1,48.5,7.1,48.9z M2.1,48.9v0.3
	c0,0.8,0.2,1.4,0.5,1.9c0.1,0.2,0.3,0.4,0.5,0.6s0.4,0.2,0.7,0.2h0.1c0.4,0,0.8-0.2,1.1-0.6c0.3-0.4,0.5-1,0.5-1.7v-0.5
	c0-0.7-0.2-1.4-0.5-1.9s-0.7-0.8-1.2-0.8H3.6c-0.4,0-0.8,0.2-1.1,0.7S2.1,48.1,2.1,48.9z M10.7,52.6h-0.4c-1.3,0-2-0.1-2-0.3
	c0-0.1,0.1-0.2,0.3-0.4S9,51.6,9,51.3c0.1-0.2,0.1-1,0.1-2.1s0-1.8-0.1-2s-0.1-0.3-0.3-0.4s-0.3-0.2-0.3-0.3s0.1-0.3,0.3-0.5
	c0.2-0.3,0.3-0.6,0.4-0.9c0.2-0.9,0.5-1.5,0.9-1.9c0.5-0.5,1.1-0.8,2-0.8c0.4,0,0.7,0.1,1,0.2c0.2,0.1,0.4,0.3,0.4,0.6
	s-0.1,0.4-0.2,0.5s-0.2,0.2-0.4,0.2s-0.4-0.1-0.7-0.2s-0.5-0.2-0.7-0.2c-0.3,0-0.4,0.2-0.6,0.5c-0.1,0.3-0.2,0.7-0.2,1
	s0.1,0.6,0.2,0.8c0.1,0.1,0.3,0.2,0.6,0.4c0.4,0.2,0.5,0.3,0.5,0.5c0,0.1-0.2,0.2-0.5,0.3c-0.4,0.1-0.6,0.2-0.7,0.4
	c-0.1,0.2-0.2,0.9-0.2,2.1c0,1.2,0,1.9,0.1,2.1s0.2,0.4,0.5,0.6s0.4,0.3,0.4,0.4C11.6,52.5,11.3,52.6,10.7,52.6z M6.5,59.7
	c0.8,0,1.2,0.5,1.2,1.4c0,0.2-0.1,0.4-0.2,0.4s-0.2-0.1-0.4-0.2c-0.2-0.1-0.4-0.2-0.6-0.3c-0.6-0.2-1.2-0.3-1.7-0.3s-0.8,0.1-1,0.4
	c-0.3,0.3-0.4,1-0.4,1.9c0,0.3,0.1,0.6,0.3,0.7s0.5,0.2,0.8,0.2s0.6-0.1,0.9-0.3s0.5-0.3,0.5-0.3c0.2,0,0.4,0.1,0.5,0.3
	s0.1,0.5,0.1,0.9c0,0.7-0.2,1.1-0.5,1.1c-0.1,0-0.3-0.1-0.5-0.3C5.2,65.1,4.9,65,4.6,65c-0.5,0-0.9,0.1-1,0.3
	c-0.1,0.1-0.2,0.6-0.2,1.3c0,0.7,0.1,1.3,0.4,1.6c0.1,0.2,0.5,0.3,1,0.3s1.2-0.3,1.9-0.6c0.2-0.1,0.4-0.1,0.5-0.2
	c0.1-0.1,0.2-0.2,0.4-0.3c0.1-0.1,0.2-0.1,0.2-0.1C8,67.3,8,67.4,8,67.5v0.2c0,0.4-0.1,0.6-0.2,0.9C7.7,68.8,7.6,69,7.5,69
	c-0.2,0.1-0.9,0.2-2.2,0.2H4.4H4.1c-1.7,0-2.7,0-3-0.1c-0.3,0-0.4-0.1-0.4-0.3c0-0.1,0.1-0.2,0.4-0.4c0.3-0.2,0.4-0.4,0.5-0.6
	s0.1-1.2,0.1-2.8v-2.7c0-0.9-0.1-1.4-0.2-1.6c-0.1-0.1-0.2-0.2-0.4-0.3s-0.3-0.2-0.3-0.3c0-0.2,0.1-0.3,0.4-0.3c0.1,0,1.1,0,2.9,0
	h2.1L6.5,59.7L6.5,59.7z M14.3,64.5c-0.2,0-0.5-0.2-0.8-0.6c-0.3-0.4-0.7-0.6-1.2-0.6s-0.8,0.2-1.1,0.7c-0.3,0.4-0.5,1.1-0.5,1.9
	s0.2,1.4,0.6,1.9c0.4,0.5,0.9,0.7,1.5,0.7c0.3,0,0.6,0,0.8-0.1c0.2-0.1,0.4-0.2,0.6-0.3c0.2-0.1,0.3-0.1,0.4-0.1
	c0.1,0,0.2,0.1,0.2,0.3c0,0.3-0.3,0.5-0.8,0.8s-1.1,0.4-1.6,0.4c-1,0-1.8-0.3-2.4-0.9c-0.2-0.3-0.4-0.6-0.6-1
	c-0.2-0.4-0.2-0.8-0.2-1.3V66l0,0l0,0c0-0.4,0.1-0.8,0.3-1.2c0.4-0.8,0.9-1.4,1.7-1.7c0.5-0.2,0.9-0.3,1.3-0.3h0.2
	c0.6,0,1.1,0.1,1.6,0.3c0.3,0.2,0.5,0.5,0.5,0.9c0,0.3-0.1,0.5-0.2,0.6C14.5,64.5,14.4,64.5,14.3,64.5z M22.4,65.7V66
	c0,0.4-0.1,0.8-0.2,1.2c-0.3,0.9-0.9,1.5-1.8,1.9c-0.4,0.2-0.8,0.2-1.1,0.2H19c-0.9,0-1.6-0.3-2.2-0.9c-0.3-0.3-0.5-0.6-0.6-1
	C16.1,67,16,66.5,16,66v-0.1c0-0.4,0.1-0.9,0.2-1.3c0.3-0.9,0.9-1.5,1.8-1.8c0.4-0.2,0.8-0.2,1.1-0.2h0.3c0.4,0,0.8,0.1,1.2,0.3
	c0.7,0.3,1.3,0.9,1.6,1.7C22.3,64.9,22.4,65.3,22.4,65.7z M17.4,65.7v0.2c0,0.8,0.2,1.4,0.5,1.9c0.1,0.2,0.3,0.4,0.5,0.6
	s0.4,0.2,0.7,0.2h0.1c0.4,0,0.8-0.2,1.1-0.6c0.3-0.4,0.5-1,0.5-1.7v-0.5c0-0.7-0.2-1.4-0.5-1.9c-0.3-0.5-0.7-0.8-1.2-0.8h-0.2
	c-0.4,0-0.8,0.2-1.1,0.7C17.5,64.3,17.4,64.9,17.4,65.7z M24.6,69.1c-0.6,0-1-0.1-1-0.3c0-0.2,0.1-0.3,0.3-0.4
	c0.3-0.2,0.5-0.3,0.5-0.5c0.1-0.1,0.1-0.8,0.1-2s0-1.9-0.1-2.1c-0.1-0.2-0.2-0.4-0.4-0.5s-0.3-0.2-0.3-0.3s0.1-0.2,0.2-0.2
	c0.3-0.2,0.7-0.3,1.4-0.3c0.2,0,0.3,0.1,0.4,0.2c0,0,0.1,0.1,0.2,0.3s0.1,0.2,0.1,0.2c0.1,0,0.2-0.1,0.4-0.2
	c0.6-0.4,1.2-0.6,1.7-0.6l0,0h0.2c0.4,0,0.7,0.1,1,0.3s0.5,0.5,0.7,0.8s0.2,1.2,0.2,2.4s0,1.9,0.1,2.1c0.1,0.1,0.2,0.3,0.4,0.4
	c0.2,0.1,0.4,0.2,0.4,0.4s-0.6,0.3-1.9,0.3H29c-0.4,0-0.6-0.1-0.6-0.3c0,0,0.1-0.1,0.2-0.3c0.1-0.2,0.2-0.3,0.2-0.5s0.1-0.8,0.1-1.9
	c0-1.1-0.1-1.8-0.2-2.1c-0.2-0.4-0.5-0.6-0.9-0.6c-0.3,0-0.6,0.1-0.9,0.2c-0.3,0.1-0.5,0.3-0.6,0.6c-0.1,0.3-0.2,0.9-0.2,1.9
	s0,1.6,0.1,1.8s0.1,0.4,0.2,0.5l0.3,0.4c0,0.2-0.4,0.3-1.1,0.3h-0.4C25.2,69.1,24.6,69.1,24.6,69.1z M38.6,65.7V66
	c0,0.4-0.1,0.8-0.2,1.2c-0.3,0.9-0.9,1.5-1.8,1.9c-0.4,0.2-0.8,0.2-1.1,0.2h-0.2c-0.9,0-1.6-0.3-2.2-0.9c-0.3-0.3-0.5-0.6-0.6-1
	c-0.1-0.4-0.2-0.9-0.2-1.4v-0.1c0-0.4,0.1-0.9,0.2-1.3c0.3-0.9,0.9-1.5,1.8-1.8c0.4-0.2,0.8-0.2,1.1-0.2h0.3c0.4,0,0.8,0.1,1.2,0.3
	c0.7,0.3,1.3,0.9,1.6,1.7C38.5,64.9,38.6,65.3,38.6,65.7z M33.6,65.7v0.2c0,0.8,0.2,1.4,0.5,1.9c0.1,0.2,0.3,0.4,0.5,0.6
	s0.4,0.2,0.7,0.2h0.1c0.4,0,0.8-0.2,1.1-0.6c0.3-0.4,0.5-1,0.5-1.7v-0.5c0-0.7-0.2-1.4-0.5-1.9c-0.3-0.5-0.7-0.8-1.2-0.8h-0.2
	c-0.4,0-0.8,0.2-1.1,0.7C33.7,64.3,33.6,64.9,33.6,65.7z M44.7,67.9c0-0.2,0.1-0.8,0.1-1.8s-0.1-1.7-0.2-2c-0.2-0.3-0.5-0.5-0.9-0.5
	c-0.3,0-0.5,0.1-0.8,0.3c-0.3,0.2-0.5,0.4-0.6,0.7c-0.1,0.2-0.1,0.8-0.1,1.7c0,0.9,0,1.5,0,1.7s0,0.4,0.1,0.5l0.1,0.2
	c0.1,0.1,0.1,0.2,0.1,0.3c0,0.2-0.3,0.3-1,0.3s-1.2-0.1-1.4-0.2L40,69c0-0.1,0-0.2,0.1-0.3c0.3-0.3,0.4-0.5,0.5-0.6
	c0.1-0.1,0.1-0.8,0.1-1.9c0-1.1-0.1-1.9-0.3-2.2l-0.1-0.2c-0.1-0.2-0.2-0.3-0.2-0.3c0-0.1,0.1-0.2,0.3-0.3s0.4-0.2,0.8-0.2
	s0.6,0.1,0.8,0.3s0.3,0.3,0.4,0.3l0.2-0.1l0.4-0.6c0.4-0.2,0.9-0.3,1.3-0.3s0.9,0.1,1.3,0.4c0.4,0.3,0.6,0.4,0.7,0.4l0.2-0.1
	l0.3-0.2c0.2-0.1,0.4-0.2,0.7-0.3c0.2-0.1,0.6-0.2,0.9-0.2c0.7,0,1.3,0.3,1.6,0.9c0.2,0.5,0.3,1.5,0.3,3.2c0,0.7,0,1.1,0.1,1.3
	c0,0.1,0.2,0.3,0.4,0.4c0.2,0.2,0.3,0.3,0.3,0.3v0.2L51,69c-0.2,0.1-0.8,0.2-1.7,0.2c-0.4,0-0.6-0.1-0.6-0.3c0,0,0-0.1,0.1-0.3
	c0.1-0.2,0.1-0.3,0.1-0.4c0-0.1,0-0.7,0-1.7s-0.1-1.7-0.2-2c-0.1-0.3-0.2-0.5-0.4-0.6s-0.4-0.2-0.7-0.2S47,63.8,46.8,64
	c-0.2,0.2-0.4,0.4-0.5,0.6s-0.1,0.8-0.1,1.9c0,1.1,0,1.6,0.1,1.8s0.2,0.3,0.4,0.5s0.3,0.3,0.3,0.3c0,0.2-0.4,0.3-1.2,0.3h-1
	c-0.5,0-0.7-0.1-0.7-0.2c0-0.1,0.1-0.3,0.2-0.4C44.5,68.3,44.7,68.1,44.7,67.9z M52.5,63.5c-0.2-0.1-0.4-0.2-0.4-0.3s0-0.2,0.1-0.2
	c0.3-0.2,0.9-0.3,1.6-0.3H54c0.2,0,0.4,0.1,0.4,0.3c0,0.1,0,1,0,2.5c0,1.5,0,2.4,0.1,2.6s0.2,0.4,0.5,0.5c0.2,0.1,0.4,0.2,0.4,0.4
	c0,0.2-0.6,0.3-1.7,0.3h-0.2h-0.8c-0.3,0-0.5-0.1-0.5-0.2c0-0.1,0.1-0.3,0.3-0.4c0.2-0.1,0.3-0.3,0.4-0.4c0.1-0.2,0.1-0.6,0.1-1.2
	v-0.2v-0.2v-0.3v-0.2V66c0-1.1,0-1.7-0.1-1.9C52.9,63.7,52.8,63.6,52.5,63.5z M54.7,60.4c0,0.2-0.1,0.4-0.3,0.6
	c-0.2,0.2-0.3,0.3-0.5,0.3h-0.1h-0.2c-0.2,0-0.4-0.1-0.6-0.2c-0.2-0.2-0.3-0.3-0.3-0.6v-0.1c0-0.2,0.1-0.4,0.3-0.6
	c0.2-0.2,0.4-0.2,0.7-0.2l0,0h0.2c0.1,0,0.3,0.1,0.4,0.2c0.2,0.2,0.2,0.3,0.2,0.5v0.1l0,0H54.7z M61.6,64.5c-0.2,0-0.5-0.2-0.8-0.6
	c-0.3-0.4-0.7-0.6-1.2-0.6s-0.8,0.2-1.1,0.7c-0.3,0.4-0.5,1-0.5,1.9c0,0.9,0.2,1.4,0.6,1.9c0.4,0.5,0.9,0.7,1.5,0.7
	c0.3,0,0.6,0,0.8-0.1c0.2-0.1,0.4-0.2,0.6-0.3c0.2-0.1,0.3-0.1,0.4-0.1c0.1,0,0.2,0.1,0.2,0.3c0,0.3-0.3,0.5-0.8,0.8s-1,0.4-1.6,0.4
	c-1,0-1.8-0.3-2.4-0.9c-0.2-0.3-0.4-0.6-0.6-1c-0.2-0.4-0.2-0.8-0.2-1.3V66l0,0l0,0c0-0.4,0.1-0.8,0.3-1.2c0.4-0.8,0.9-1.4,1.7-1.7
	c0.5-0.2,0.9-0.3,1.3-0.3H60c0.6,0,1.1,0.1,1.6,0.3c0.3,0.2,0.5,0.5,0.5,0.9c0,0.3-0.1,0.5-0.2,0.6C61.8,64.5,61.7,64.5,61.6,64.5z
	 M68.3,67.4c0,0.5-0.2,1-0.6,1.3c-0.4,0.4-1,0.6-1.8,0.6h-0.2c-0.9,0-1.5-0.1-2-0.3c-0.2-0.1-0.4-0.4-0.4-0.8V68
	c0-0.5,0.1-0.8,0.3-0.8s0.4,0.2,0.6,0.5c0.2,0.3,0.4,0.5,0.6,0.6c0.3,0.2,0.6,0.3,1,0.3s0.7-0.1,0.9-0.2c0.2-0.2,0.3-0.4,0.3-0.7
	c0-0.3-0.2-0.5-0.5-0.8c-0.2-0.1-0.6-0.3-1.2-0.6c-0.6-0.3-1.1-0.5-1.4-0.8c-0.3-0.3-0.5-0.7-0.5-1.2c0-0.5,0.2-1,0.7-1.3
	c0.4-0.3,1-0.5,1.6-0.5h0.2c0.8,0,1.4,0.1,1.8,0.3c0.2,0.1,0.3,0.4,0.3,0.9c0,0.5-0.1,0.7-0.3,0.7c-0.1,0-0.3-0.1-0.5-0.4
	c-0.2-0.3-0.4-0.5-0.6-0.6s-0.4-0.2-0.8-0.2s-0.6,0.1-0.8,0.2c-0.2,0.1-0.3,0.4-0.3,0.6c0,0.3,0.2,0.5,0.5,0.7
	c0.1,0.1,0.5,0.2,1.1,0.5s1.1,0.6,1.4,0.8C68.1,66.5,68.3,66.9,68.3,67.4z"/>
</svg>
