<?xml version="1.0" encoding="utf-8"?>
<!-- Generator: Adobe Illustrator 20.1.0, SVG Export Plug-In . SVG Version: 6.00 Build 0)  -->
<svg version="1.1" id="レイヤー_1" xmlns="http://www.w3.org/2000/svg" xmlns:xlink="http://www.w3.org/1999/xlink" x="0px"
	 y="0px" viewBox="0 0 80 78" style="enable-background:new 0 0 80 78;" xml:space="preserve">
<title></title>
<g id="icomoon-ignore">
</g>
<g>
	<g>
		<path d="M5.7,10.4H5.3c-1.8,0-3.1,0.1-4.1,0.2c-0.3,0.1-0.5,0.2-0.5,0.4c0,0,0,0.1,0.1,0.3c0.1,0.2,0.1,0.4,0.1,0.5
			c0,0.2,0,0.7,0,1.6s-0.1,2.3-0.2,4.1c0,0.3-0.1,0.5-0.2,0.8c-0.1,0.4-0.1,0.6-0.1,0.7v0.2c0,0.2,0.1,0.4,0.2,0.5
			c0.2,0.1,0.4,0.2,0.7,0.2s0.6-0.1,0.7-0.2c0.2-0.1,0.2-0.3,0.2-0.4v-0.8c0-0.9,0.1-1.6,0.4-2c0.1-0.2,0.3-0.3,0.6-0.4
			s0.6-0.2,0.9-0.2L4.9,16c0.4,0,0.6-0.2,0.6-0.6c0-0.3-0.1-0.5-0.2-0.7c-0.1-0.2-0.3-0.2-0.5-0.2s-0.4,0-0.6,0.1
			c-0.2,0.1-0.4,0.1-0.6,0.1c-0.5,0-0.8-0.1-0.9-0.2c-0.1-0.1-0.2-0.4-0.2-0.8c0-0.8,0.1-1.4,0.3-1.6C3,11.8,3.4,11.7,4,11.7
			c0.6,0,1,0,1.2,0.1c0.2,0,0.4,0.1,0.6,0.1C6,12,6.2,12,6.2,12c0.3,0,0.5-0.2,0.5-0.5v-0.2c0-0.3-0.1-0.4-0.2-0.5
			C6.3,10.4,6,10.4,5.7,10.4z M11.2,15.8c-0.1,0.1-0.4,0.1-0.8,0.2c-0.4,0.1-0.7,0.1-0.8,0.1c-0.6,0.1-1,0.4-1.4,0.7
			c-0.4,0.3-0.6,0.8-0.6,1.4s0.2,1.1,0.5,1.4c0.4,0.3,0.8,0.5,1.3,0.5h0.2c0.3,0,0.7-0.1,1.1-0.2c0.4-0.2,0.7-0.2,0.7-0.2
			c0.1,0,0.3,0.1,0.6,0.2s0.5,0.2,0.8,0.2c0.2,0,0.4,0,0.5-0.1s0.2-0.2,0.2-0.3s-0.1-0.3-0.2-0.5c-0.1-0.2-0.2-0.4-0.2-0.5
			s0-0.7,0-1.6c0-1,0-1.5,0-1.6c0-0.5-0.2-0.8-0.3-1.1c-0.2-0.3-0.5-0.5-0.8-0.7c-0.4-0.2-0.8-0.3-1.2-0.3h-0.3
			c-0.5,0-1,0.1-1.5,0.3c-0.5,0.2-0.7,0.5-0.7,0.8c0,0.4,0.2,0.6,0.5,0.6c0.1,0,0.4-0.1,0.9-0.3c0.5-0.2,0.8-0.3,1.1-0.3
			s0.5,0.1,0.7,0.3c0.2,0.2,0.3,0.4,0.3,0.7C11.6,15.4,11.5,15.7,11.2,15.8z M11.7,17.1v0.4v0.2v0.1v0.1c0,0.3-0.1,0.6-0.4,0.9
			c-0.3,0.3-0.6,0.4-1,0.4h-0.2c-0.3,0-0.5-0.1-0.7-0.3c-0.2-0.2-0.3-0.4-0.3-0.7v-0.1c0-0.4,0.1-0.6,0.3-0.8c0.3-0.3,0.7-0.4,1-0.4
			c0.1,0,0.1,0,0.3,0H11l0,0h0.3C11.5,16.7,11.7,16.8,11.7,17.1z M18.1,14.3L18.1,14.3c0.3,0,0.6,0.1,1,0.3c0.4,0.2,0.6,0.3,0.7,0.3
			c0.3,0,0.5-0.2,0.5-0.5s-0.2-0.6-0.5-0.8c-0.4-0.3-0.9-0.4-1.4-0.4h-0.2c-0.5,0-1,0.1-1.4,0.3c-0.7,0.3-1.2,0.9-1.6,1.8
			c-0.2,0.4-0.3,1-0.3,1.5v0.3c0,0.5,0.1,0.9,0.3,1.3c0.4,1.1,1.3,1.6,2.7,1.6c0.5,0,1-0.1,1.5-0.4s0.8-0.5,0.8-0.8
			c0-0.2-0.1-0.3-0.3-0.3c-0.1,0-0.3,0.1-0.8,0.2c-0.4,0.1-0.7,0.2-1,0.2c-0.6,0-1-0.2-1.3-0.5c-0.3-0.4-0.5-0.9-0.5-1.7
			c0-0.7,0.2-1.4,0.5-1.8C17.2,14.5,17.6,14.3,18.1,14.3z M27.7,17.5c0-0.5,0-0.9,0-1.2v-1.6v-0.4c0-0.3,0-0.5-0.1-0.6
			s-0.3-0.2-0.5-0.2c-0.3,0-0.5,0.1-0.6,0.2s-0.2,0.3-0.2,0.5v0.3v0.3c0,1.6-0.1,2.6-0.4,3.2c-0.1,0.3-0.3,0.5-0.6,0.7
			C25,18.9,24.8,19,24.5,19c-0.8,0-1.1-0.5-1.1-1.6l0.1-2.3c0-0.7-0.1-1.1-0.2-1.4c-0.1-0.2-0.3-0.4-0.6-0.4h-0.2
			c-0.5,0-0.7,0.1-0.7,0.4c0,0.1,0,0.2,0.1,0.5c0.1,0.2,0.1,0.5,0.1,0.7L21.9,17c0,1,0.2,1.8,0.5,2.2c0.3,0.4,0.8,0.6,1.4,0.6H24
			c0.4,0,0.9-0.1,1.5-0.4c0.2-0.1,0.3-0.2,0.4-0.2s0.2,0.1,0.4,0.2c0.2,0.2,0.4,0.2,0.6,0.2c0.6,0,0.9-0.2,0.9-0.6
			c0,0,0-0.2-0.1-0.4C27.7,18.5,27.7,18.1,27.7,17.5z M32,19.3L32,19.3c0-0.1-0.1-0.3-0.2-0.5s-0.2-0.4-0.3-0.7
			c-0.1-0.3-0.1-0.8-0.1-1.4c0-0.7,0-1.7,0.1-3.1v-0.4v-0.3c0-0.2,0-0.3,0-0.5v-0.3c0,0,0-0.1,0-0.3l0.1-1c0-0.4,0-0.6-0.1-0.7
			S31.2,9.9,31,9.9h-0.1c-0.6,0-0.9,0.2-0.9,0.5c0,0.1,0,0.3,0.1,0.5s0.1,0.6,0.1,1v0.5v0.5c0,0.1,0,0.7-0.1,1.9
			C30,16,30,16.7,30,17.1s0,0.6-0.1,0.8c0,0.2,0,0.5-0.1,0.9v0.3v0.2c0,0.2,0.1,0.3,0.2,0.4c0.2,0.1,0.3,0.2,0.6,0.2H31
			c0.3,0,0.6-0.1,0.8-0.2C31.9,19.7,32,19.5,32,19.3z M34.3,14.8c0,0.2,0.1,0.9,0.1,2.1s0.1,2,0.3,2.3c0.3,0.5,0.8,0.8,1.5,0.8
			c0.4,0,0.7-0.1,0.9-0.2c0.2-0.1,0.3-0.3,0.3-0.5s-0.2-0.3-0.6-0.4s-0.6-0.1-0.7-0.3c-0.2-0.2-0.3-0.6-0.3-1.2
			c0-1.2,0.1-2.1,0.3-2.7c0.1-0.3,0.4-0.5,0.8-0.6s0.6-0.3,0.6-0.5v-0.1c0-0.1-0.2-0.3-0.5-0.4s-0.6-0.2-0.7-0.3
			c-0.1-0.1-0.2-0.3-0.2-0.7C36,11.7,36,11.5,36,11.5c-0.1-0.2-0.2-0.2-0.4-0.2h-0.1c-0.2,0-0.4,0.2-0.5,0.5c0,0.1-0.1,0.3-0.2,0.6
			c-0.1,0.3-0.2,0.5-0.3,0.6c-0.4,0.4-0.7,0.7-0.7,0.7c0,0.1,0.1,0.2,0.3,0.4S34.2,14.6,34.3,14.8z M41.2,22.2
			c0.4-0.4,0.8-0.9,1.2-1.6c0.4-0.7,1-2.2,1.8-4.7c0.1-0.4,0.3-0.8,0.5-1.2c0.2-0.4,0.2-0.7,0.2-0.9c0-0.3-0.2-0.5-0.6-0.5
			s-0.7,0.1-0.8,0.4c0,0.1-0.1,0.4-0.2,0.9s-0.2,1.1-0.5,1.9c-0.4,1.1-0.7,1.7-1,1.7c-0.2-0.1-0.5-1.3-1.2-3.6
			c-0.1-0.4-0.1-0.6-0.1-0.6c-0.1-0.3-0.4-0.4-0.7-0.4c-0.3,0-0.6,0.1-0.7,0.2s-0.2,0.2-0.2,0.3c0,0.3,0.4,1.3,1.1,3
			c0.2,0.5,0.5,1.1,0.8,1.7s0.5,1,0.5,1.2c0,0.4-0.2,0.9-0.5,1.3c-0.2,0.2-0.5,0.4-0.9,0.6s-0.6,0.4-0.6,0.6s0.2,0.4,0.6,0.4
			S40.8,22.6,41.2,22.2z M2.7,36.1h0.2c0.4,0,0.9-0.1,1.3-0.3c0.8-0.4,1.4-1,1.7-2c0.1-0.5,0.2-0.9,0.2-1.4v-0.1
			c0-1.4-0.5-2.4-1.6-2.9c-0.3-0.2-0.7-0.2-1.1-0.2H3.1c-0.4,0-0.7,0.1-1.1,0.2c-0.4,0.2-0.8,0.4-1.1,0.8C0.3,30.8,0,31.7,0,32.9V33
			c0,1,0.3,1.8,0.8,2.4C1.2,35.8,1.9,36.1,2.7,36.1z M1.4,32.7v-0.2c0-0.7,0.2-1.2,0.5-1.7s0.7-0.7,1.2-0.7h0.1c0.4,0,0.8,0.2,1,0.6
			c0.3,0.4,0.4,0.9,0.4,1.5v0.5c0,0.8-0.2,1.4-0.5,1.9s-0.7,0.7-1.2,0.7H2.7c-0.4,0-0.7-0.2-1-0.6c-0.2-0.5-0.3-1-0.3-1.6V32.7z
			 M11,27c0.1,0,0.3,0,0.5,0c0.1,0,0.2,0,0.3,0s0.2,0,0.3,0c0.2-0.1,0.4-0.2,0.4-0.4s-0.1-0.4-0.3-0.5s-0.5-0.2-0.9-0.2
			c-0.8,0-1.4,0.3-1.9,0.8c0,0-0.3,0.7-1,2c-0.1,0.1-0.2,0.3-0.3,0.5c-0.2,0.2-0.2,0.4-0.2,0.6c0,0.1,0.1,0.3,0.2,0.5
			c0.1,0.2,0.2,0.3,0.2,0.4c0.1,0.2,0.1,0.7,0.1,1.5c0,0.8,0,1.4-0.1,1.8c-0.1,0.4-0.1,0.8-0.2,1c-0.1,0.3-0.2,0.5-0.2,0.7
			c0,0.2,0.1,0.3,0.2,0.5c0.2,0.1,0.3,0.2,0.6,0.2h0.2c0.3,0,0.6-0.1,0.8-0.3c0.2-0.2,0.3-0.4,0.3-0.7l-0.1-1.2
			c0-1.3,0.1-2.4,0.4-3.2c0.1-0.4,0.3-0.6,0.6-0.8c0.4-0.2,0.6-0.4,0.6-0.5c0-0.2-0.2-0.4-0.5-0.5c-0.3-0.2-0.5-0.3-0.6-0.3
			c-0.1-0.2-0.2-0.4-0.2-0.7s0.1-0.6,0.3-0.9C10.4,27.2,10.7,27,11,27z M5.7,42.4H5.3c-1.8,0-3.1,0.1-4.1,0.2
			c-0.3,0.1-0.5,0.2-0.5,0.4c0,0,0,0.1,0.1,0.3c0.1,0.2,0.1,0.4,0.1,0.5c0,0.2,0,0.7,0,1.6s-0.1,2.3-0.2,4.1c0,0.3-0.1,0.5-0.2,0.8
			c-0.1,0.4-0.1,0.6-0.1,0.7v0.2c0,0.2,0.1,0.4,0.2,0.5c0.2,0.1,0.4,0.2,0.7,0.2s0.6-0.1,0.7-0.2c0.2-0.1,0.2-0.3,0.2-0.4v-0.8
			c0-0.9,0.1-1.6,0.4-2c0.1-0.2,0.3-0.3,0.6-0.4s0.6-0.2,0.9-0.2l0.8,0.1c0.4,0,0.6-0.2,0.6-0.6c0-0.3-0.1-0.5-0.2-0.7
			c-0.1-0.2-0.3-0.2-0.5-0.2s-0.4,0-0.6,0.1c-0.2,0.1-0.4,0.1-0.6,0.1c-0.5,0-0.8-0.1-0.9-0.2c-0.1-0.1-0.2-0.4-0.2-0.8
			c0-0.8,0.1-1.4,0.3-1.6C3,43.8,3.4,43.6,4,43.6c0.6,0,1,0,1.2,0.1c0.2,0,0.4,0.1,0.6,0.1c0.2,0.1,0.4,0.1,0.4,0.1
			c0.3,0,0.5-0.2,0.5-0.5v-0.2c0-0.3-0.1-0.4-0.2-0.5C6.3,42.4,6,42.4,5.7,42.4z M13.9,48.4L13.9,48.4c0-1.5-0.5-2.5-1.6-3
			c-0.4-0.2-0.8-0.2-1.2-0.2h-0.3c-0.4,0-0.7,0.1-1.1,0.2c-0.4,0.2-0.8,0.4-1.1,0.8c-0.6,0.6-0.9,1.5-0.9,2.7V49
			c0,1,0.3,1.8,0.8,2.4c0.5,0.6,1.2,0.8,1.9,0.8h0.2c0.4,0,0.9-0.1,1.3-0.3c0.8-0.4,1.4-1,1.7-2C13.8,49.2,13.8,48.9,13.9,48.4z
			 M12.4,48.6c0,0.8-0.2,1.4-0.5,1.9s-0.7,0.7-1.2,0.7h-0.2c-0.4,0-0.7-0.2-1-0.6c-0.3-0.4-0.4-0.9-0.4-1.5v-0.4v-0.2
			c0-0.7,0.2-1.2,0.5-1.7s0.7-0.7,1.2-0.7h0.1c0.4,0,0.8,0.2,1,0.6c0.2,0.4,0.4,0.9,0.4,1.5v0.4H12.4z M19.2,45.4L19.2,45.4
			c-0.4,0-0.7,0.1-1.1,0.3c-0.4,0.2-0.6,0.3-0.6,0.3c-0.1,0-0.1-0.1-0.2-0.2c-0.1-0.1-0.1-0.2-0.2-0.2c-0.2-0.2-0.5-0.2-0.9-0.2
			s-0.6,0.1-0.6,0.4c0,0.1,0,0.3,0.1,0.6c0.1,0.3,0.1,0.8,0.1,1.4v0.5c0,0.1,0,0.4,0,0.7c0,0.6-0.1,1.1-0.3,1.6
			c-0.1,0.4-0.1,0.5-0.1,0.7c0,0.2,0.1,0.3,0.2,0.4c0.1,0.1,0.3,0.2,0.6,0.2h0.2c0.3,0,0.5-0.1,0.7-0.2c0.2-0.2,0.3-0.3,0.3-0.5
			c0-0.2,0-0.4-0.1-0.8c-0.1-0.3-0.1-0.6-0.1-0.8c0-1.1,0.1-1.9,0.4-2.4c0.3-0.5,0.8-0.7,1.4-0.7c0.3,0,0.5,0,0.6-0.1
			s0.2-0.2,0.2-0.4v-0.1c0-0.2-0.1-0.3-0.2-0.4C19.6,45.5,19.4,45.4,19.2,45.4z M23.6,52.1h0.2c0.6,0,1.1-0.1,1.6-0.4
			c0.5-0.3,0.8-0.5,0.8-0.8c0-0.2-0.1-0.3-0.3-0.3c-0.1,0-0.3,0.1-0.8,0.2c-0.4,0.1-0.8,0.2-1,0.2c-0.5,0-1-0.1-1.3-0.4
			c-0.3-0.3-0.5-0.6-0.5-1c0-0.3,0.1-0.5,0.4-0.5c0.1,0,0.6-0.1,1.5-0.2c0.9-0.1,1.5-0.3,1.7-0.4c0.4-0.2,0.5-0.5,0.5-1v-0.1
			c0-0.6-0.2-1.1-0.6-1.5c-0.4-0.5-0.9-0.7-1.5-0.7H24c-0.4,0-0.9,0.1-1.3,0.3c-0.8,0.3-1.4,1-1.7,1.9c-0.2,0.5-0.3,0.9-0.3,1.3V49
			c0,0.9,0.3,1.7,0.8,2.2C22,51.8,22.7,52.1,23.6,52.1z M22.2,47.8c0-0.4,0.2-0.8,0.5-1.2s0.7-0.6,1.2-0.6l0,0l0,0
			c0.3,0,0.6,0.1,0.8,0.3c0.2,0.2,0.3,0.5,0.3,0.8v0.1c0,0.2-0.1,0.4-0.2,0.5c-0.3,0.2-0.6,0.3-1.1,0.3c-0.1,0-0.3,0-0.7,0.1h-0.3
			l0,0h-0.2C22.2,48,22.1,47.9,22.2,47.8L22.2,47.8L22.2,47.8z M30.2,51.2L30.2,51.2c0-0.1-0.1-0.3-0.2-0.5
			c-0.1-0.2-0.2-0.4-0.2-0.6s-0.1-0.6-0.1-1.3v-0.3v-0.6v-0.2l0.1-1.8c0-0.2,0-0.3-0.1-0.5c-0.1-0.1-0.2-0.2-0.5-0.2H29
			c-0.6,0-0.9,0.2-0.9,0.5c0,0.1,0.1,0.2,0.2,0.5c0.1,0.4,0.1,0.7,0.1,1v0.3c0,0.2,0,0.4,0,0.7v0.2v0.4c0,0.1,0,0.2,0,0.4
			c0,0.6-0.1,1.1-0.2,1.5S28,51.3,28,51.3v0.2c0,0.1,0.1,0.2,0.2,0.3s0.3,0.2,0.5,0.2h0.2c0.4,0,0.7-0.1,0.9-0.2
			C30.1,51.6,30.2,51.4,30.2,51.2z M29,44h0.2h0.1c0.3,0,0.5-0.1,0.6-0.2c0.1-0.2,0.2-0.4,0.2-0.6v-0.1c0-0.2-0.1-0.4-0.2-0.5
			s-0.2-0.2-0.4-0.2h-0.2h-0.1H29c-0.2,0-0.3,0.1-0.4,0.2s-0.2,0.3-0.2,0.4v0.2v0.1c0,0.2,0.1,0.4,0.2,0.5C28.8,43.9,28.9,44,29,44z
			 M34.2,55.1c0.5,0,1-0.1,1.4-0.3c0.8-0.4,1.3-0.9,1.6-1.8c0.1-0.4,0.2-1,0.2-1.8c0-0.8,0.1-1.7,0.2-2.8s0.2-1.7,0.2-1.9
			c0-0.6-0.2-0.9-0.6-0.9c-0.1,0-0.2,0-0.4,0.1c-0.1,0-0.3-0.1-0.7-0.2c-0.4-0.1-0.7-0.2-0.9-0.2H35c-0.4,0-0.8,0.1-1.2,0.3
			c-0.4,0.2-0.7,0.4-1,0.7c-0.2,0.3-0.4,0.7-0.6,1.1c-0.1,0.4-0.2,0.9-0.2,1.3v0.2c0,0.4,0.1,0.8,0.2,1.2s0.3,0.7,0.5,0.9
			c0.4,0.5,1,0.7,1.8,0.7c0.3,0,0.7,0,1.1-0.1c0.1,0,0.2,0,0.3,0c0.2,0,0.3,0.1,0.3,0.4c0,0.5-0.2,1-0.5,1.3
			c-0.4,0.3-0.8,0.5-1.4,0.5c-0.2,0-0.4,0-0.7-0.1c-0.3-0.1-0.6-0.1-0.6-0.1c-0.4,0-0.6,0.1-0.6,0.4c0,0.3,0.2,0.5,0.6,0.7
			C33.2,55,33.6,55.1,34.2,55.1z M35.7,50.4C35.4,50.8,35,51,34.5,51h-0.2c-0.4,0-0.6-0.2-0.9-0.5c-0.2-0.3-0.3-0.8-0.3-1.4v-0.2
			c0-0.8,0.2-1.4,0.5-1.9c0.4-0.5,0.8-0.7,1.3-0.7h0.2c0.3,0,0.6,0.1,0.8,0.3c0.2,0.2,0.3,0.5,0.3,0.8c0,0,0,0.1,0,0.2v0.4v0.3
			c0,0.1,0,0.1,0,0.2C36.1,49.2,36,49.9,35.7,50.4z M45.7,50.6c-0.1-0.2-0.1-0.4-0.2-0.5c0-0.1,0-0.4,0-0.7c0-0.1,0-0.1,0-0.2
			c0-0.1,0-0.2,0-0.3c0,0,0-0.1,0-0.3c0-0.1,0-0.2,0-0.2l0,0c0-1-0.1-1.6-0.2-1.9c-0.3-0.6-0.8-0.9-1.5-0.9h-0.2
			c-0.4,0-0.9,0.2-1.5,0.5c-0.2,0.1-0.3,0.2-0.4,0.2s-0.3-0.1-0.5-0.3c-0.3-0.2-0.6-0.3-0.8-0.3c-0.3,0-0.4,0.1-0.4,0.4v2
			c0,1.2-0.1,2-0.2,2.4l-0.1,0.3c-0.1,0.2-0.1,0.3-0.1,0.3v0.1c0,0.4,0.3,0.6,0.8,0.6h0.1c0.2,0,0.4-0.1,0.6-0.2
			c0.1-0.2,0.2-0.4,0.2-0.8c0-1.7,0.1-2.8,0.4-3.4c0.1-0.3,0.3-0.5,0.6-0.7c0.2-0.2,0.5-0.3,0.8-0.3c0.4,0,0.7,0.2,0.9,0.5
			c0.2,0.4,0.3,1.1,0.3,2.1c0,0.5,0,1,0,1.4v0.4c0,0.3,0,0.5,0.1,0.5c0.1,0.2,0.3,0.2,0.7,0.2c0.6,0,0.9-0.2,0.9-0.5
			C45.8,51,45.8,50.8,45.7,50.6z M4,62.5c-0.9-0.4-1.4-0.7-1.5-0.8C2.2,61.3,2,61,2,60.6s0.2-0.7,0.5-0.9c0.3-0.2,0.7-0.3,1.1-0.3
			c0.4,0,0.9,0.1,1.3,0.4c0.7,0.4,1,0.6,1.1,0.6s0.2-0.1,0.2-0.2c0.1-0.1,0.1-0.3,0.1-0.5c0-0.4-0.2-0.7-0.5-1s-1-0.4-1.9-0.4H3.7
			c-0.9,0-1.6,0.2-2.2,0.7c-0.6,0.5-0.9,1.1-0.9,1.9c0,0.6,0.2,1.2,0.6,1.6c0.3,0.3,0.9,0.7,1.6,1.1c0.8,0.4,1.3,0.6,1.5,0.8
			C4.8,64.8,5,65.2,5,65.5c0,0.5-0.2,0.8-0.5,1.1C4.2,66.8,3.8,67,3.3,67s-0.8-0.1-1.2-0.2c-0.3-0.1-0.6-0.3-0.9-0.6
			c-0.3-0.2-0.5-0.4-0.6-0.4S0.4,65.9,0.3,66s-0.2,0.3-0.2,0.5s0.1,0.4,0.2,0.6c0.3,0.7,1.3,1,2.8,1c0.5,0,1-0.1,1.4-0.2
			c0.8-0.3,1.4-0.7,1.7-1.4c0.2-0.3,0.3-0.7,0.3-1.1v-0.3c0-0.6-0.2-1.1-0.7-1.6C5.4,63.2,4.8,62.8,4,62.5z M11.2,61.2
			c-0.3-0.1-0.6-0.2-0.7-0.3c-0.1-0.1-0.2-0.3-0.2-0.7c-0.1-0.4-0.1-0.6-0.1-0.6c-0.1-0.2-0.2-0.2-0.4-0.2H9.7
			c-0.2,0-0.4,0.2-0.5,0.5c0,0.1-0.1,0.3-0.2,0.6c-0.1,0.3-0.2,0.5-0.3,0.6C8.3,61.5,8,61.8,8,61.8c0,0.1,0.1,0.2,0.3,0.4
			c0.2,0.2,0.3,0.4,0.3,0.6s0.1,0.9,0.1,2.1s0.1,2,0.3,2.3c0.3,0.5,0.8,0.8,1.5,0.8c0.4,0,0.7-0.1,0.9-0.2s0.3-0.3,0.3-0.5
			s-0.2-0.3-0.6-0.4c-0.4,0-0.6-0.1-0.7-0.3c-0.2-0.2-0.3-0.6-0.3-1.2c0-1.2,0.1-2.1,0.3-2.7c0.1-0.3,0.4-0.5,0.8-0.6
			c0.4-0.1,0.6-0.3,0.6-0.5v-0.1C11.7,61.3,11.6,61.2,11.2,61.2z M19.2,65.5c0-0.5,0-0.9,0-1.2v-1.6v-0.4c0-0.3,0-0.5-0.1-0.6
			s-0.3-0.2-0.5-0.2c-0.3,0-0.5,0.1-0.6,0.2s-0.2,0.3-0.2,0.5v0.3v0.3c0,1.6-0.1,2.6-0.4,3.2c-0.1,0.3-0.3,0.5-0.6,0.7
			S16.3,67,16,67c-0.8,0-1.1-0.5-1.1-1.6l0.1-2.3c0-0.7-0.1-1.1-0.2-1.4c-0.1-0.2-0.3-0.4-0.6-0.4H14c-0.5,0-0.7,0.1-0.7,0.4
			c0,0.1,0,0.2,0.1,0.5c0.1,0.2,0.1,0.5,0.1,0.7L13.4,65c0,1,0.2,1.8,0.5,2.2c0.3,0.4,0.8,0.6,1.4,0.6h0.2c0.4,0,0.9-0.1,1.5-0.4
			c0.2-0.1,0.3-0.2,0.4-0.2c0.1,0,0.2,0.1,0.4,0.2c0.2,0.2,0.4,0.2,0.6,0.2c0.6,0,0.9-0.2,0.9-0.6c0,0,0-0.2-0.1-0.4
			C19.3,66.5,19.3,66.1,19.2,65.5z M26.5,58.1L26.5,58.1c-0.4,0-0.6,0.1-0.8,0.2c-0.2,0.2-0.3,0.3-0.3,0.5c0,0,0,0.2,0.1,0.4
			c0,0.2,0.1,0.4,0.1,0.5c0,0.7-0.1,1.1-0.2,1.3c-0.1,0.2-0.5,0.3-1,0.3s-1,0.1-1.4,0.2c-0.4,0.2-0.7,0.4-1,0.8
			c-0.3,0.3-0.5,0.8-0.7,1.3S21,64.6,21,65v0.2c0,0.8,0.2,1.5,0.6,2c0.4,0.5,0.9,0.8,1.6,0.8h0.2l0,0c0.4,0,0.9-0.1,1.4-0.3
			c0.2-0.1,0.3-0.1,0.4-0.1s0.3,0,0.5,0.1s0.5,0.1,0.7,0.1s0.4-0.1,0.5-0.2s0.2-0.2,0.2-0.3c0-0.1,0-0.3-0.1-0.5s-0.1-0.6-0.1-1
			v-0.6V65c0-0.1,0-0.2,0-0.3v-0.2c0-0.4,0-1.2,0.1-2.3c0.1-1.1,0.1-1.8,0.1-2s0-0.4,0-0.5v-0.3v-0.6c0-0.3-0.1-0.5-0.2-0.6
			C26.9,58.1,26.7,58.1,26.5,58.1z M25.5,64v0.3v0.1c0,0,0,0.1,0,0.2c0,0.8-0.1,1.4-0.4,1.9c-0.3,0.4-0.7,0.6-1.2,0.6h-0.2
			c-0.3,0-0.6-0.2-0.9-0.5c-0.3-0.4-0.4-0.9-0.4-1.4v-0.5c0-0.7,0.2-1.4,0.5-1.8c0.3-0.5,0.7-0.7,1.2-0.7h0.3c0.7,0,1.1,0.5,1.1,1.4
			V64z M29.6,58.6c-0.1,0.1-0.2,0.3-0.2,0.4v0.2v0.1c0,0.2,0.1,0.4,0.2,0.5s0.2,0.2,0.4,0.2h0.2h0.1c0.3,0,0.5-0.1,0.6-0.2
			c0.1-0.2,0.2-0.4,0.2-0.6v-0.1c0-0.2-0.1-0.4-0.2-0.5s-0.2-0.2-0.4-0.2h-0.2h-0.1H30C29.9,58.3,29.8,58.5,29.6,58.6z M30.7,66.1
			c0-0.2-0.1-0.6-0.1-1.3v-0.3v-0.6v-0.2l0.1-1.8c0-0.2,0-0.3-0.1-0.5c-0.1-0.1-0.2-0.2-0.5-0.2h-0.2c-0.6,0-0.9,0.2-0.9,0.5
			c0,0.1,0.1,0.2,0.2,0.5s0.2,0.6,0.2,0.9v0.3c0,0.2,0,0.4,0,0.7v0.2v0.4c0,0.1,0,0.2,0,0.4c0,0.6-0.1,1.1-0.2,1.5S29,67.2,29,67.2
			v0.2c0,0.1,0.1,0.2,0.2,0.3c0.1,0.1,0.3,0.2,0.5,0.2h0.2c0.4,0,0.7-0.1,0.9-0.2c0.2-0.1,0.3-0.3,0.3-0.5v-0.1
			c0-0.1-0.1-0.2-0.2-0.4C30.8,66.5,30.8,66.2,30.7,66.1z M36.1,61.2h-0.3c-0.4,0-0.9,0.1-1.3,0.3c-0.8,0.3-1.4,1-1.7,1.9
			c-0.2,0.5-0.3,0.9-0.3,1.3V65c0,0.9,0.3,1.7,0.8,2.2c0.5,0.6,1.2,0.8,2.1,0.8h0.2c0.6,0,1.1-0.1,1.6-0.4s0.8-0.5,0.8-0.8
			c0-0.2-0.1-0.3-0.3-0.3c-0.1,0-0.3,0.1-0.8,0.2c-0.4,0.1-0.8,0.2-1,0.2c-0.5,0-1-0.1-1.3-0.4s-0.5-0.6-0.5-1
			c0-0.3,0.1-0.5,0.4-0.5c0.1,0,0.6-0.1,1.5-0.2s1.5-0.3,1.7-0.4c0.4-0.2,0.5-0.5,0.5-1v-0.1c0-0.6-0.2-1.1-0.6-1.5
			C37.2,61.3,36.7,61.2,36.1,61.2z M37,63.2c0,0.2-0.1,0.4-0.2,0.5c-0.3,0.2-0.6,0.3-1.1,0.3c-0.1,0-0.3,0-0.7,0.1h-0.3l0,0h-0.3
			c-0.3,0-0.4-0.1-0.4-0.2v-0.1c0-0.4,0.2-0.8,0.5-1.2c0.3-0.4,0.7-0.6,1.2-0.6l0,0l0,0c0.3,0,0.6,0.1,0.8,0.3
			C36.8,62.6,37,62.8,37,63.2L37,63.2z M42.7,64.1c-0.6-0.2-0.9-0.4-1.1-0.5c-0.3-0.2-0.4-0.4-0.4-0.7c0-0.3,0.1-0.4,0.3-0.6
			c0.2-0.1,0.4-0.2,0.8-0.2c0.3,0,0.7,0.1,1,0.3c0.4,0.2,0.6,0.3,0.7,0.3c0.3,0,0.4-0.2,0.4-0.5s-0.2-0.6-0.5-0.8
			c-0.4-0.2-0.8-0.3-1.4-0.3h-0.2c-0.7,0-1.2,0.2-1.7,0.6s-0.7,0.8-0.7,1.3s0.1,0.9,0.4,1.2c0.3,0.3,0.7,0.6,1.4,0.8
			c0.6,0.3,1,0.5,1.1,0.6c0.2,0.2,0.4,0.4,0.4,0.7c0,0.3-0.1,0.5-0.3,0.6c-0.2,0.2-0.5,0.2-0.9,0.2s-0.8-0.1-1.2-0.4
			c-0.4-0.2-0.7-0.4-0.7-0.4c-0.3,0-0.4,0.2-0.4,0.5s0.2,0.6,0.6,0.8c0.4,0.2,0.9,0.3,1.7,0.3h0.2c0.7,0,1.3-0.2,1.8-0.6
			s0.7-0.9,0.7-1.4s-0.2-1-0.6-1.3C43.7,64.5,43.3,64.2,42.7,64.1z"/>
	</g>
</g>
</svg>
