<?xml version="1.0" encoding="utf-8"?>
<!-- Generator: Adobe Illustrator 22.0.1, SVG Export Plug-In . SVG Version: 6.00 Build 0)  -->
<svg version="1.1" id="レイヤー_1" xmlns="http://www.w3.org/2000/svg" xmlns:xlink="http://www.w3.org/1999/xlink" x="0px"
	 y="0px" viewBox="0 0 80 78" style="enable-background:new 0 0 80 78;" xml:space="preserve">
<style type="text/css">
	.st0{fill:#989798;}
</style>
<title></title>
<g id="icomoon-ignore">
</g>
<path class="st0" d="M5.4,7.7c1.3,0,2.2,0.1,2.8,0.3c0.1,0,0.3,0.2,0.4,0.3s0.2,0.5,0.2,0.9S8.7,9.9,8.6,10l-0.1,0.1
	c-0.1,0-0.3-0.2-0.6-0.5C7.2,8.9,6.5,8.5,5.5,8.5c-0.9,0-1.6,0.4-2.2,1.1c-0.5,0.7-0.8,1.7-0.8,2.9s0.3,2.2,0.9,2.9
	c0.6,0.8,1.3,1.1,2.3,1.1c0.6,0,1-0.1,1.3-0.4s0.4-0.8,0.4-1.5c0-0.3-0.1-0.5-0.2-0.8c0-0.1-0.1-0.2-0.3-0.3
	c-0.1-0.1-0.2-0.2-0.2-0.3c0-0.2,0.4-0.3,1.3-0.3c0.6,0,1,0,1.1,0.1c0.2,0.1,0.3,0.2,0.3,0.3c0,0-0.1,0.1-0.2,0.3
	C9.1,13.8,9,13.9,9,14s-0.1,0.5-0.1,1.2c-0.1,0.7-0.1,1.2-0.2,1.3s-0.4,0.3-0.8,0.4c-1.1,0.4-1.9,0.5-2.4,0.5H5.3
	c-0.6,0-1.2-0.1-1.8-0.3c-0.6-0.2-1-0.5-1.4-0.9s-0.7-0.9-1-1.5s-0.4-1.3-0.4-2v-0.3c0-0.6,0.1-1.3,0.4-1.9c0.5-1.2,1.3-2,2.4-2.4
	C4.1,7.8,4.7,7.7,5.4,7.7z M14,17c0,0.2-0.4,0.3-1.2,0.3h-0.7h-0.3h-0.4c-0.5,0-0.7-0.1-0.7-0.3c0-0.1,0.1-0.3,0.3-0.4
	s0.4-0.3,0.4-0.5c0.1-0.2,0.1-0.9,0.1-2s0-1.7-0.1-2s-0.2-0.4-0.3-0.5c-0.3-0.2-0.4-0.3-0.4-0.4s0-0.2,0.1-0.2
	c0.3-0.2,0.8-0.3,1.4-0.3h0.1c0.3,0,0.4,0.1,0.6,0.4c0.1,0.3,0.2,0.4,0.3,0.4s0.2-0.1,0.4-0.2s0.4-0.3,0.6-0.4s0.5-0.2,0.8-0.2
	s0.5,0.1,0.7,0.2c0.2,0.1,0.2,0.3,0.2,0.6c0,0.2-0.1,0.4-0.2,0.5s-0.2,0.2-0.4,0.2S15,12.1,14.8,12c-0.2-0.1-0.4-0.2-0.6-0.2
	s-0.3,0.1-0.5,0.2c-0.2,0.1-0.3,0.3-0.5,0.7C13.1,13,13,13.6,13,14.3c0,0.8,0.1,1.3,0.2,1.5c0.1,0.2,0.3,0.4,0.5,0.6S14,16.9,14,17z
	 M16.9,11.9c0-0.3,0.3-0.6,0.8-0.9c0.5-0.3,1.1-0.4,1.7-0.4c0,0,0,0,0.1,0c0.5,0,1,0.1,1.3,0.2c0.7,0.3,1,0.8,1.1,1.7
	c0,0.1,0,0.7,0,1.7c0,1.1,0,1.7,0.1,1.9s0.2,0.3,0.5,0.4s0.4,0.2,0.4,0.2c0,0.2-0.1,0.3-0.2,0.4c-0.3,0.2-0.7,0.3-1,0.3
	s-0.6-0.1-0.7-0.2c-0.3-0.3-0.4-0.4-0.4-0.4s-0.3,0.1-0.8,0.3c-0.5,0.2-0.9,0.3-1.3,0.3c-0.6,0-1-0.2-1.3-0.5s-0.5-0.7-0.5-1.1v-0.2
	c0-0.5,0.2-0.9,0.6-1.3s1.1-0.6,2.2-0.8c0.4-0.1,0.6-0.1,0.7-0.2c0.2-0.1,0.3-0.4,0.3-0.8s-0.1-0.7-0.3-0.9s-0.5-0.2-0.9-0.2
	s-0.7,0.2-1,0.6c-0.3,0.4-0.6,0.6-0.9,0.6C17.1,12.6,16.9,12.4,16.9,11.9z M20.3,14.1h-0.1c-0.6,0-1.1,0.1-1.5,0.4
	c-0.4,0.3-0.6,0.6-0.6,1v0.1c0,0.2,0.1,0.4,0.2,0.6s0.3,0.3,0.6,0.3H19h0.2c0.5,0,0.9-0.2,1.2-0.6c0.1-0.2,0.2-0.5,0.2-1v-0.1v-0.2
	v-0.2C20.5,14.3,20.4,14.1,20.3,14.1z M28.5,10.7c0-0.1,0.1-0.4,0.1-0.9s0-0.9-0.1-1.1c-0.1-0.3-0.3-0.5-0.5-0.6
	c-0.2-0.2-0.3-0.3-0.3-0.3s0.1-0.1,0.2-0.2c0.3-0.2,0.7-0.2,1.4-0.2h0.2c0.3,0,0.5,0.2,0.5,0.5c0,0.1,0,1.4,0,3.9s0,3.9,0.1,4.1
	c0,0.2,0.1,0.4,0.3,0.6c0,0,0.1,0.1,0.3,0.2c0.1,0.1,0.2,0.2,0.2,0.3c0,0.1-0.1,0.2-0.2,0.2c-0.3,0.1-0.7,0.2-1.3,0.2
	c-0.2,0-0.4-0.1-0.5-0.2c-0.2-0.2-0.4-0.4-0.4-0.4s-0.1,0.1-0.3,0.2s-0.4,0.2-0.7,0.3c-0.3,0.1-0.6,0.2-1,0.2s-0.7-0.1-1.1-0.3
	c-0.6-0.3-1-0.8-1.3-1.5c-0.1-0.4-0.2-0.9-0.2-1.4c0-1,0.3-1.9,0.9-2.5s1.4-1,2.4-1l0.9,0.1C28.3,10.8,28.5,10.8,28.5,10.7z
	 M28.5,12.6c0-0.4-0.1-0.7-0.4-0.9c-0.2-0.2-0.6-0.3-0.9-0.3H27c-0.2,0-0.4,0.1-0.7,0.2s-0.4,0.3-0.6,0.5c-0.3,0.5-0.5,1-0.5,1.7
	v0.4c0,0.7,0.2,1.2,0.5,1.7s0.7,0.7,1.1,0.7H27c0.4,0,0.7-0.1,1-0.4s0.4-0.6,0.4-1v-0.1V15v-0.4c0-0.2,0-0.4,0-0.7v-0.2v-0.2v-0.1
	V13v-0.1v-0.1C28.5,12.7,28.5,12.7,28.5,12.6z M38.9,16.6c0.2,0.2,0.3,0.3,0.3,0.3c0,0.1,0,0.1-0.1,0.2c-0.2,0.2-0.6,0.3-1.3,0.3
	c-0.2,0-0.4,0-0.5-0.1s-0.2-0.2-0.3-0.4s-0.2-0.3-0.2-0.3c-0.1,0-0.2,0.1-0.4,0.2c-0.6,0.4-1.1,0.6-1.6,0.6l0,0h-0.2
	c-0.8,0-1.3-0.3-1.6-1c-0.2-0.3-0.3-1.1-0.3-2.4s0-2-0.1-2.1c0-0.1-0.2-0.3-0.4-0.4c-0.2-0.1-0.4-0.2-0.4-0.3c0-0.2,0.1-0.3,0.2-0.3
	c0.4-0.1,0.8-0.2,1.4-0.2c0.3,0,0.5,0.1,0.6,0.4c0.1,0.3,0.2,1.1,0.2,2.4s0.1,2,0.2,2.3c0.2,0.5,0.5,0.7,1,0.7
	c0.3,0,0.5-0.1,0.8-0.2s0.5-0.3,0.6-0.5S37,15,37,14s0-1.6-0.1-1.9s-0.2-0.5-0.3-0.6s-0.2-0.3-0.2-0.4c0-0.2,0.5-0.3,1.6-0.3
	c0.2,0,0.4,0,0.4,0.1c0.1,0.1,0.1,0.3,0.1,0.5v0.4v1.8c0,1.2,0,1.9,0.1,2.2C38.6,16.2,38.7,16.4,38.9,16.6z M40.6,11.9
	c0-0.3,0.3-0.6,0.8-0.9c0.5-0.3,1.1-0.4,1.7-0.4c0,0,0,0,0.1,0c0.5,0,1,0.1,1.3,0.2c0.7,0.3,1,0.8,1.1,1.7c0,0.1,0,0.7,0,1.7
	c0,1.1,0,1.7,0.1,1.9s0.2,0.3,0.5,0.4s0.4,0.2,0.4,0.2c0,0.2-0.1,0.3-0.2,0.4c-0.3,0.2-0.7,0.3-1,0.3s-0.6-0.1-0.7-0.2
	c-0.3-0.3-0.4-0.4-0.4-0.4s-0.3,0.1-0.8,0.3c-0.5,0.2-0.9,0.3-1.3,0.3c-0.6,0-1-0.2-1.3-0.5s-0.5-0.7-0.5-1.1v-0.2
	c0-0.5,0.2-0.9,0.6-1.3c0.4-0.4,1.1-0.6,2.2-0.8c0.4-0.1,0.6-0.1,0.7-0.2c0.2-0.1,0.3-0.4,0.3-0.8s-0.1-0.7-0.3-0.9
	c-0.3-0.1-0.5-0.2-0.9-0.2s-0.7,0.2-1,0.6c-0.3,0.4-0.6,0.6-0.9,0.6C40.8,12.6,40.6,12.4,40.6,11.9z M43.9,14.1L43.9,14.1
	c-0.7,0-1.2,0.1-1.6,0.4c-0.4,0.3-0.6,0.6-0.6,1v0.1c0,0.2,0.1,0.4,0.2,0.6c0.1,0.2,0.3,0.3,0.6,0.3h0.1h0.2c0.5,0,0.9-0.2,1.2-0.6
	c0.1-0.2,0.2-0.5,0.2-1v-0.1v-0.2v-0.2C44.2,14.3,44.1,14.1,43.9,14.1z M50.5,16.4l1-0.2c0.1,0,0.2,0.1,0.2,0.3
	c0,0.2-0.2,0.4-0.5,0.6c-0.4,0.2-0.7,0.3-1.1,0.3H50c-0.3,0-0.6-0.1-0.8-0.2s-0.4-0.4-0.5-0.6c-0.2-0.4-0.3-1.2-0.3-2.3
	s0-1.8-0.1-2.1c-0.1-0.3-0.2-0.5-0.3-0.6c-0.2-0.2-0.4-0.3-0.4-0.3c0-0.1,0.1-0.2,0.2-0.3c0.3-0.2,0.5-0.3,0.5-0.4
	c0,0,0.2-0.4,0.5-1.1C49,9.1,49.1,9,49.3,9s0.3,0.1,0.4,0.2c0,0,0.1,0.2,0.1,0.6s0.1,0.6,0.3,0.7c0.1,0.1,0.4,0.2,0.8,0.3
	c0.4,0.1,0.6,0.2,0.6,0.4s-0.2,0.3-0.6,0.4c-0.4,0.1-0.7,0.2-0.8,0.3c-0.2,0.2-0.2,0.9-0.2,2s0.1,1.8,0.2,2
	C50,16.2,50.3,16.4,50.5,16.4z M54.2,14.7c0,0.5,0.2,1,0.6,1.3c0.4,0.4,0.9,0.5,1.5,0.5c0.2,0,0.5,0,0.7-0.1s0.4-0.2,0.6-0.3
	c0.2-0.1,0.4-0.2,0.4-0.2c0.2,0,0.3,0.1,0.3,0.3c0,0.3-0.3,0.5-1,0.8c-0.4,0.2-0.9,0.3-1.4,0.3h-0.2c-0.9,0-1.6-0.3-2.1-0.8
	c-0.3-0.3-0.5-0.6-0.7-1.1c-0.2-0.4-0.3-0.9-0.3-1.4v-0.2v-0.2c0-0.4,0.1-0.9,0.3-1.3c0.2-0.4,0.4-0.8,0.7-1
	c0.6-0.6,1.3-0.9,2.1-0.9c1.2,0,2.1,0.5,2.5,1.4c0.1,0.3,0.2,0.6,0.2,0.8v0.1c0,0.3-0.1,0.5-0.4,0.6c-0.3,0.1-0.9,0.2-1.8,0.3
	c-1,0.1-1.5,0.1-1.6,0.1C54.4,14.2,54.2,14.4,54.2,14.7z M57.1,12.9v-0.2c0-0.3-0.1-0.6-0.4-0.9c-0.2-0.3-0.5-0.4-0.9-0.4h-0.1
	c-0.1,0-0.1,0-0.1,0c-0.3,0-0.6,0.2-0.9,0.5c-0.3,0.4-0.4,0.8-0.4,1.2v0.1c0,0.1,0.1,0.2,0.3,0.2c0.1,0,0.1,0,0.1,0h0.2l0,0l0,0
	l1.3-0.1h0.2C56.8,13.3,57.1,13.1,57.1,12.9z M3.9,25.2c-0.5,0-0.8,0.1-1.1,0.4c-0.3,0.2-0.4,0.6-0.4,1s0.2,0.8,0.7,1.2
	c0.3,0.2,0.8,0.5,1.6,0.8s1.4,0.7,1.7,1c0.6,0.6,0.9,1.2,0.9,1.8v0.2c0,0.8-0.3,1.4-0.9,1.8c-0.3,0.2-0.6,0.4-1,0.5
	s-0.8,0.2-1.2,0.2H3.8c-0.9,0-1.8-0.1-2.5-0.4c-0.3-0.1-0.5-0.5-0.5-1v-0.2c0-0.7,0.1-1,0.3-1s0.4,0.2,0.6,0.6s0.6,0.8,0.9,1
	s0.9,0.3,1.5,0.3S5,33.3,5.3,33c0.3-0.3,0.5-0.6,0.5-1c0-0.5-0.3-1-0.8-1.4c-0.2-0.2-0.8-0.4-1.6-0.8c-0.9-0.4-1.5-0.8-1.8-1.1
	c-0.5-0.5-0.7-1.1-0.7-1.7s0.2-1.3,0.7-1.7c0.3-0.3,0.6-0.4,1-0.6c0.4-0.1,0.8-0.2,1.2-0.2h0.3c0.2,0,0.4,0,0.7,0.1H5
	c0.3,0.1,0.4,0.1,0.5,0.1h0.2h0.2c0.2,0,0.3,0,0.4,0.1c0.3,0.1,0.4,0.5,0.4,1.1s-0.1,1-0.4,1c-0.1,0-0.3-0.2-0.6-0.5
	S5.2,25.8,5,25.7C4.8,25.4,4.4,25.2,3.9,25.2z M13.5,29.4c-0.2,0-0.5-0.2-0.8-0.6s-0.7-0.6-1.2-0.6s-0.8,0.2-1.1,0.7
	c-0.3,0.4-0.5,1.1-0.5,1.9c0,0.8,0.2,1.4,0.6,1.9c0.4,0.5,0.9,0.7,1.5,0.7c0.3,0,0.6,0,0.8-0.1s0.4-0.2,0.6-0.3
	c0.2-0.1,0.3-0.1,0.4-0.1c0.1,0,0.2,0.1,0.2,0.3c0,0.3-0.3,0.5-0.8,0.8s-1.1,0.4-1.6,0.4c-1,0-1.8-0.3-2.4-0.9
	c-0.2-0.3-0.4-0.6-0.6-1c-0.2-0.4-0.2-0.8-0.2-1.3v-0.3l0,0l0,0c0-0.4,0.1-0.8,0.3-1.2c0.4-0.8,0.9-1.4,1.7-1.7
	c0.5-0.2,0.9-0.3,1.3-0.3h0.2c0.6,0,1.1,0.1,1.6,0.3c0.3,0.2,0.5,0.5,0.5,0.9c0,0.3-0.1,0.5-0.2,0.6C13.7,29.3,13.6,29.4,13.5,29.4z
	 M15.2,33.7c0-0.1,0.1-0.2,0.3-0.4s0.3-0.4,0.4-0.7c0.1-0.3,0.1-1.4,0.1-3.5s0-3.4-0.1-3.8c0-0.2-0.1-0.4-0.3-0.5
	c-0.3-0.2-0.4-0.3-0.4-0.3c0-0.2,0.1-0.3,0.3-0.4c0.3-0.1,0.7-0.2,1.2-0.2h0.2c0.2,0,0.4,0.1,0.4,0.3s0.1,0.5,0.1,1.1v0.3
	c0,0.2,0,0.3,0,0.5v0.5c0,0.2,0,0.3,0,0.5c0,0.6,0.1,0.9,0.3,0.9c0,0,0.1-0.1,0.3-0.1c0.6-0.3,1.2-0.4,1.6-0.4c0.8,0,1.4,0.3,1.7,1
	c0.2,0.4,0.3,1.5,0.3,3.2c0,0.7,0,1.1,0.1,1.2c0,0.2,0.2,0.3,0.4,0.5s0.3,0.3,0.3,0.3c0,0.1-0.1,0.2-0.3,0.3s-0.7,0.1-1.4,0.1h-0.2
	c-0.5,0-0.7-0.1-0.7-0.3c0,0,0.1-0.2,0.2-0.3c0.1-0.2,0.2-0.4,0.2-0.6s0.1-0.8,0.1-1.8s0-1.6-0.1-1.9c-0.3-0.4-0.7-0.7-1-0.8
	c-0.5,0-0.9,0.2-1.3,0.6c-0.2,0.3-0.3,0.9-0.3,1.9c0,1,0,1.6,0.1,1.9c0,0.3,0.1,0.5,0.3,0.7c0.2,0.2,0.2,0.3,0.2,0.4
	c0,0.2-0.5,0.2-1.4,0.2S15.2,34,15.2,33.7z M30,30.6v0.3c0,0.4-0.1,0.8-0.2,1.2C29.5,33,28.9,33.6,28,34c-0.4,0.2-0.8,0.2-1.1,0.2
	h-0.2c-0.9,0-1.6-0.3-2.2-0.9c-0.3-0.3-0.5-0.6-0.6-1s-0.2-0.9-0.2-1.4v-0.1c0-0.4,0.1-0.9,0.2-1.3c0.3-0.9,0.9-1.5,1.8-1.8
	c0.4-0.2,0.8-0.2,1.1-0.2H27c0.4,0,0.8,0.1,1.2,0.3c0.7,0.3,1.3,0.9,1.6,1.7C29.9,29.8,30,30.2,30,30.6z M25,30.6v0.3
	c0,0.8,0.2,1.4,0.5,1.9c0.1,0.2,0.3,0.4,0.5,0.6s0.4,0.2,0.7,0.2h0.1c0.4,0,0.8-0.2,1.1-0.6c0.3-0.4,0.5-1,0.5-1.7v-0.5
	c0-0.7-0.2-1.4-0.5-1.9s-0.7-0.8-1.2-0.8h-0.2c-0.4,0-0.8,0.2-1.1,0.7S25,29.8,25,30.6z M37.7,30.6v0.3c0,0.4-0.1,0.8-0.2,1.2
	c-0.3,0.9-0.9,1.5-1.8,1.9c-0.4,0.2-0.8,0.2-1.1,0.2h-0.2c-0.9,0-1.6-0.3-2.2-0.9c-0.3-0.3-0.5-0.6-0.6-1s-0.2-0.9-0.2-1.4v-0.1
	c0-0.4,0.1-0.9,0.2-1.3c0.3-0.9,0.9-1.5,1.8-1.8c0.4-0.2,0.8-0.2,1.1-0.2h0.3c0.4,0,0.8,0.1,1.2,0.3c0.7,0.3,1.3,0.9,1.6,1.7
	C37.6,29.8,37.7,30.2,37.7,30.6z M32.7,30.6v0.3c0,0.8,0.2,1.4,0.5,1.9c0.1,0.2,0.3,0.4,0.5,0.6s0.4,0.2,0.7,0.2h0.1
	c0.4,0,0.8-0.2,1.1-0.6c0.3-0.4,0.5-1,0.5-1.7v-0.5c0-0.7-0.2-1.4-0.5-1.9s-0.7-0.8-1.2-0.8h-0.2c-0.4,0-0.8,0.2-1.1,0.7
	S32.7,29.8,32.7,30.6z M38.8,33.9c0-0.1,0.1-0.2,0.3-0.4s0.3-0.4,0.4-0.7c0.1-0.3,0.1-1.5,0.1-3.7s0-3.3-0.1-3.6s-0.2-0.5-0.4-0.6
	c-0.3-0.2-0.5-0.3-0.5-0.4v-0.1c0-0.1,0.1-0.1,0.2-0.2c0.4-0.2,1-0.3,1.6-0.3h0.1c0.2,0,0.4,0.2,0.4,0.5c0,0,0,0.4,0,1v1.5v0.3v0.4
	v0.3v2.2c0,1.3,0,2.2,0.1,2.5c0,0.3,0.1,0.6,0.3,0.7c0,0,0.1,0.1,0.3,0.2c0.2,0.1,0.3,0.2,0.3,0.3c0,0.2-0.3,0.2-0.8,0.2h-0.3h-0.3
	h-1.1h-0.1C39,34.1,38.8,34,38.8,33.9z M7.1,47.4v0.3c0,0.4-0.1,0.8-0.2,1.2c-0.4,0.9-1,1.5-1.9,1.9C4.6,51,4.2,51,3.9,51H3.6
	c-0.9,0-1.6-0.3-2.2-0.9c-0.3-0.3-0.5-0.6-0.6-1s-0.2-0.9-0.2-1.4v-0.1c0-0.4,0.1-0.9,0.2-1.3c0.3-0.9,0.9-1.5,1.8-1.9
	c0.4-0.2,0.8-0.2,1.1-0.2H4c0.4,0,0.8,0.1,1.2,0.3c0.8,0.3,1.3,0.9,1.6,1.6C7,46.6,7.1,47,7.1,47.4z M2.1,47.4v0.3
	c0,0.8,0.2,1.4,0.5,1.9c0.1,0.2,0.3,0.4,0.5,0.6s0.4,0.2,0.7,0.2h0.1c0.4,0,0.8-0.2,1.1-0.6c0.3-0.4,0.5-1,0.5-1.7v-0.5
	c0-0.7-0.2-1.4-0.5-1.9s-0.7-0.8-1.2-0.8H3.6c-0.4,0-0.8,0.2-1.1,0.7S2.1,46.6,2.1,47.4z M10.7,51.1h-0.4c-1.3,0-2-0.1-2-0.3
	c0-0.1,0.1-0.2,0.3-0.4S9,50.1,9,49.8c0.1-0.2,0.1-1,0.1-2.1s0-1.8-0.1-2s-0.1-0.3-0.3-0.4S8.4,45.1,8.4,45s0.1-0.3,0.3-0.5
	c0.2-0.3,0.3-0.6,0.4-0.9c0.2-0.9,0.5-1.5,0.9-1.9c0.5-0.5,1.1-0.8,2-0.8c0.4,0,0.7,0.1,1,0.2c0.2,0.1,0.4,0.3,0.4,0.6
	s-0.1,0.4-0.2,0.5s-0.2,0.2-0.4,0.2s-0.4-0.1-0.7-0.2S11.6,42,11.4,42c-0.3,0-0.4,0.2-0.6,0.5c-0.1,0.3-0.2,0.7-0.2,1
	s0.1,0.6,0.2,0.8c0.1,0.1,0.3,0.2,0.6,0.4c0.4,0.2,0.5,0.3,0.5,0.5c0,0.1-0.2,0.2-0.5,0.3c-0.4,0.1-0.6,0.2-0.7,0.4
	c-0.1,0.2-0.2,0.9-0.2,2.1c0,1.2,0,1.9,0.1,2.1s0.2,0.4,0.5,0.6s0.4,0.3,0.4,0.4C11.6,51,11.3,51.1,10.7,51.1z M4,58.1h0.7
	c1.6,0,2.7,0.5,3.1,1.5C8,60,8.1,60.4,8.1,60.8V61l0,0c0,0.9-0.4,1.6-1.1,2.1c-0.5,0.4-1.4,0.6-2.5,0.7c-0.5,0-0.8,0.1-0.9,0.2
	c-0.2,0.2-0.2,0.6-0.2,1.3c0,0.7,0.1,1.1,0.2,1.3c0.1,0.1,0.2,0.2,0.5,0.4c0.2,0.1,0.4,0.3,0.4,0.3c0,0.2-0.3,0.4-0.9,0.4H1.8
	c-0.7,0-1-0.1-1-0.3c0-0.1,0.1-0.3,0.4-0.4c0.3-0.1,0.4-0.3,0.5-0.5s0.1-0.6,0.1-1.3V65c0-0.1,0-0.2,0-0.4c0-0.2,0-0.2,0-0.4v-0.4
	v-0.9v-0.4c0-1.7,0-2.8-0.1-3.1s-0.2-0.6-0.5-0.7s-0.3-0.3-0.3-0.4c0-0.1,0.1-0.2,0.2-0.3c0.1-0.1,0.5-0.1,1.2-0.1H3h0.5
	C3.7,58.1,3.9,58.1,4,58.1z M3.3,59.9v2.6c0,0.3,0,0.5,0.1,0.6s0.3,0.1,0.6,0.1h0.3c0.6,0,1.1-0.2,1.5-0.6s0.6-0.9,0.6-1.5v-0.2
	c0-0.7-0.2-1.2-0.6-1.5s-0.9-0.5-1.6-0.5H4.1c-0.4,0-0.6,0.1-0.7,0.2S3.3,59.4,3.3,59.9z M9.4,67.3c0-0.1,0.1-0.2,0.3-0.4
	c0.2-0.2,0.3-0.4,0.4-0.7c0.1-0.3,0.1-1.4,0.1-3.5c0-2.1,0-3.4-0.1-3.8c0-0.2-0.1-0.4-0.3-0.5c-0.3-0.2-0.4-0.3-0.4-0.3
	c0-0.2,0.1-0.3,0.3-0.4c0.3-0.1,0.7-0.2,1.2-0.2H11c0.2,0,0.4,0.1,0.4,0.3s0.1,0.5,0.1,1.1v0.3c0,0.2,0,0.3,0,0.5v0.5
	c0,0.2,0,0.3,0,0.5c0,0.6,0.1,0.9,0.3,0.9c0,0,0.1-0.1,0.3-0.1c0.6-0.3,1.2-0.4,1.6-0.4c0.8,0,1.4,0.3,1.7,1
	c0.2,0.4,0.3,1.5,0.3,3.2c0,0.7,0,1.1,0.1,1.2c0,0.2,0.2,0.3,0.4,0.5s0.3,0.3,0.3,0.3c0,0.1-0.1,0.2-0.3,0.3s-0.7,0.1-1.4,0.1h-0.2
	c-0.5,0-0.7-0.1-0.7-0.3c0,0,0.1-0.2,0.2-0.3c0.1-0.2,0.2-0.4,0.2-0.6s0.1-0.8,0.1-1.8c0-1,0-1.6-0.1-1.9c-0.3-0.4-0.7-0.7-1-0.8
	c-0.5,0-0.9,0.2-1.3,0.6c-0.2,0.3-0.3,0.9-0.3,1.9c0,1,0,1.6,0.1,1.9c0,0.3,0.1,0.5,0.3,0.7s0.2,0.3,0.2,0.4c0,0.2-0.5,0.2-1.4,0.2
	S9.4,67.6,9.4,67.3z M18,62.3c0-0.3,0.3-0.6,0.8-0.9c0.5-0.3,1.1-0.4,1.7-0.4c0,0,0,0,0.1,0c0.5,0,1,0.1,1.3,0.2
	c0.7,0.3,1,0.8,1.1,1.7c0,0.1,0,0.7,0,1.7c0,1.1,0,1.7,0.1,1.9c0.1,0.2,0.2,0.3,0.5,0.4c0.3,0.1,0.4,0.2,0.4,0.2
	c0,0.2-0.1,0.3-0.2,0.4c-0.3,0.2-0.7,0.3-1,0.3s-0.6-0.1-0.7-0.2c-0.3-0.3-0.4-0.4-0.4-0.4s-0.3,0.1-0.8,0.3s-0.9,0.3-1.3,0.3
	c-0.6,0-1-0.2-1.3-0.5s-0.5-0.7-0.5-1.1V66c0-0.5,0.2-0.9,0.6-1.3c0.4-0.4,1.1-0.6,2.2-0.8c0.4-0.1,0.6-0.1,0.7-0.2
	c0.2-0.1,0.3-0.4,0.3-0.8s-0.1-0.7-0.3-0.9s-0.5-0.3-0.8-0.3s-0.7,0.2-1,0.6s-0.6,0.6-0.9,0.6C18.1,63,18,62.8,18,62.3z M21.3,64.5
	h-0.1c-0.6,0-1.1,0.1-1.5,0.4s-0.6,0.6-0.6,1V66c0,0.2,0.1,0.4,0.2,0.6s0.3,0.3,0.6,0.3H20h0.2c0.5,0,0.9-0.2,1.2-0.6
	c0.1-0.2,0.2-0.5,0.2-1v-0.1V65v-0.2C21.5,64.7,21.5,64.5,21.3,64.5z M28.4,67.4c0,0.2-0.4,0.3-1.2,0.3h-0.7h-0.3h-0.4
	c-0.5,0-0.7-0.1-0.7-0.3c0-0.1,0.1-0.3,0.3-0.4c0.2-0.1,0.4-0.3,0.4-0.5c0.1-0.2,0.1-0.9,0.1-2c0-1.1,0-1.7-0.1-2s-0.2-0.4-0.3-0.5
	c-0.3-0.2-0.4-0.3-0.4-0.4s0-0.2,0.1-0.2c0.3-0.2,0.8-0.3,1.4-0.3h0.1c0.3,0,0.4,0.1,0.6,0.4c0.1,0.3,0.2,0.4,0.3,0.4
	s0.2-0.1,0.4-0.2s0.4-0.3,0.6-0.4s0.5-0.2,0.8-0.2s0.5,0.1,0.7,0.2c0.2,0.1,0.2,0.3,0.2,0.6c0,0.2-0.1,0.4-0.2,0.5
	c-0.1,0.1-0.2,0.2-0.4,0.2s-0.3-0.1-0.5-0.2c-0.2-0.1-0.4-0.2-0.6-0.2s-0.4,0.2-0.6,0.3s-0.3,0.3-0.5,0.7c-0.1,0.3-0.2,0.9-0.2,1.6
	c0,0.8,0.1,1.3,0.2,1.5s0.3,0.4,0.5,0.6S28.4,67.3,28.4,67.4z M36,66.4c0-0.2,0.1-0.8,0.1-1.8c0-1-0.1-1.7-0.2-2s-0.5-0.5-0.9-0.5
	c-0.3,0-0.5,0.1-0.8,0.3s-0.5,0.4-0.6,0.7s-0.1,0.8-0.1,1.7c0,0.9,0,1.5,0,1.7s0,0.4,0.1,0.5l0.1,0.2c0.1,0.1,0.1,0.2,0.1,0.3
	c0,0.2-0.3,0.3-1,0.3s-1.2-0.1-1.4-0.2l-0.1-0.1c0-0.1,0-0.2,0.1-0.3c0.3-0.3,0.4-0.5,0.5-0.6c0.1-0.1,0.1-0.8,0.1-1.9
	c0-1.1-0.1-1.9-0.3-2.2l-0.1-0.2c-0.1-0.2-0.2-0.3-0.2-0.3c0-0.1,0.1-0.2,0.3-0.3c0.2-0.1,0.4-0.2,0.8-0.2s0.6,0.1,0.8,0.3
	s0.3,0.3,0.4,0.3l0.2-0.1l0.5-0.3c0.4-0.2,0.9-0.3,1.3-0.3s0.9,0.1,1.3,0.4c0.4,0.3,0.6,0.4,0.7,0.4l0.2-0.1l0.3-0.2
	c0.2-0.1,0.4-0.2,0.7-0.3c0.2-0.1,0.6-0.2,0.9-0.2c0.7,0,1.3,0.3,1.6,0.9c0.2,0.5,0.3,1.5,0.3,3.2c0,0.7,0,1.1,0.1,1.3
	c0,0.1,0.2,0.3,0.4,0.4c0.2,0.2,0.3,0.3,0.3,0.3v-0.1l-0.1,0.1c-0.2,0.1-0.8,0.2-1.7,0.2c-0.4,0-0.6-0.1-0.6-0.3c0,0,0-0.1,0.1-0.3
	c0.1-0.2,0.1-0.3,0.1-0.4c0-0.1,0-0.7,0-1.7c0-1-0.1-1.7-0.2-2c-0.1-0.3-0.2-0.5-0.4-0.6s-0.4-0.2-0.7-0.2s-0.6,0.1-0.8,0.3
	c-0.2,0.2-0.4,0.4-0.5,0.6s-0.1,0.8-0.1,1.9c0,1.1,0,1.6,0.1,1.8s0.2,0.3,0.4,0.5s0.3,0.3,0.3,0.3c0,0.2-0.4,0.3-1.2,0.3h-1
	c-0.5,0-0.7-0.1-0.7-0.2c0-0.1,0.1-0.3,0.2-0.4C35.8,66.8,36,66.6,36,66.4z M43.8,62.3c0-0.3,0.3-0.6,0.8-0.9
	c0.5-0.3,1.1-0.4,1.7-0.4c0,0,0,0,0.1,0c0.5,0,1,0.1,1.3,0.2c0.7,0.3,1,0.8,1.1,1.7c0,0.1,0,0.7,0,1.7c0,1.1,0,1.7,0.1,1.9
	c0.1,0.2,0.2,0.3,0.5,0.4c0.3,0.1,0.4,0.2,0.4,0.2c0,0.2-0.1,0.3-0.2,0.4c-0.3,0.2-0.7,0.3-1,0.3s-0.6-0.1-0.7-0.2
	c-0.3-0.3-0.4-0.4-0.4-0.4s-0.3,0.1-0.8,0.3s-0.9,0.3-1.3,0.3c-0.6,0-1-0.2-1.3-0.5s-0.5-0.7-0.5-1.1V66c0-0.5,0.2-0.9,0.6-1.3
	c0.4-0.4,1.1-0.6,2.2-0.8c0.4-0.1,0.6-0.1,0.7-0.2c0.2-0.1,0.3-0.4,0.3-0.8s-0.1-0.7-0.3-0.9s-0.5-0.3-0.8-0.3c-0.4,0-0.7,0.2-1,0.6
	s-0.6,0.6-0.9,0.6C43.9,63,43.8,62.8,43.8,62.3z M47.1,64.5L47.1,64.5c-0.7,0-1.2,0.1-1.6,0.4s-0.6,0.6-0.6,1V66
	c0,0.2,0.1,0.4,0.2,0.6c0.1,0.2,0.3,0.3,0.6,0.3h0.1H46c0.5,0,0.9-0.2,1.2-0.6c0.1-0.2,0.2-0.5,0.2-1v-0.1V65v-0.2
	C47.3,64.7,47.2,64.5,47.1,64.5z M55.7,63c-0.2,0-0.5-0.2-0.8-0.6s-0.7-0.6-1.2-0.6s-0.8,0.2-1.1,0.7c-0.3,0.4-0.5,1.1-0.5,1.9
	c0,0.8,0.2,1.4,0.6,1.9c0.4,0.5,0.9,0.7,1.5,0.7c0.3,0,0.6,0,0.8-0.1c0.2-0.1,0.4-0.2,0.6-0.3c0.2-0.2,0.4-0.2,0.5-0.2
	s0.2,0.1,0.2,0.3c0,0.3-0.3,0.5-0.8,0.8s-1,0.4-1.6,0.4c-1,0-1.8-0.3-2.4-0.9c-0.2-0.3-0.4-0.6-0.6-1c-0.2-0.4-0.2-0.8-0.2-1.3v-0.3
	l0,0l0,0c0-0.4,0.1-0.8,0.3-1.2c0.4-0.8,0.9-1.4,1.7-1.7c0.5-0.2,0.9-0.3,1.3-0.3h0.2c0.6,0,1.1,0.1,1.6,0.3
	c0.3,0.2,0.5,0.5,0.5,0.9c0,0.3-0.1,0.5-0.2,0.6C56,63,55.9,63,55.7,63z M59.6,62c0,0.5,0.4,1.6,1.1,3.5c0.1,0.3,0.2,0.4,0.3,0.4
	s0.2-0.2,0.4-0.6c0.6-1.3,0.9-2.3,0.9-3c0-0.2,0-0.4-0.1-0.5l-0.1-0.1C62,61.6,62,61.5,62,61.4c0-0.2,0.3-0.3,0.9-0.3h0.4
	c0.6,0,0.8,0.1,0.8,0.3c0,0.1-0.1,0.3-0.3,0.5s-0.4,0.5-0.5,0.7s-0.5,1.2-1.1,2.9c-0.6,1.7-1.1,2.8-1.5,3.4c-0.3,0.6-0.7,1.1-1,1.3
	c-0.3,0.3-0.6,0.4-0.9,0.4h-0.2c-0.2,0-0.4-0.1-0.6-0.2c-0.2-0.1-0.2-0.3-0.2-0.4c0-0.1,0.1-0.3,0.2-0.3c0.1-0.1,0.3-0.1,0.5-0.1
	h0.2c0.1,0,0.2,0,0.3,0c0.3,0,0.6-0.2,0.9-0.6c0.3-0.4,0.4-0.8,0.4-1.2s-0.6-2-1.9-4.8c-0.1-0.3-0.3-0.5-0.5-0.8s-0.3-0.5-0.3-0.6
	c0-0.2,0.1-0.3,0.4-0.4c0.2-0.1,0.6-0.1,1.2-0.1c0.5,0,0.8,0.1,0.8,0.3C59.6,61.8,59.6,62,59.6,62z"/>
</svg>
