<?xml version="1.0" encoding="utf-8"?>
<!-- Generator: Adobe Illustrator 20.1.0, SVG Export Plug-In . SVG Version: 6.00 Build 0)  -->
<svg version="1.1" id="レイヤー_1" xmlns="http://www.w3.org/2000/svg" xmlns:xlink="http://www.w3.org/1999/xlink" x="0px"
	 y="0px" viewBox="0 0 80 78" style="enable-background:new 0 0 80 78;" xml:space="preserve">
<title></title>
<g id="icomoon-ignore">
</g>
<g>
	<g>
		<path d="M1.3,19.8c0.3,0,0.6-0.1,0.7-0.2c0.2-0.1,0.2-0.3,0.2-0.4v-0.8c0-0.9,0.1-1.6,0.4-2c0.1-0.2,0.3-0.3,0.6-0.4
			s0.6-0.2,0.9-0.2l0.8,0.1c0.4,0,0.6-0.2,0.6-0.6c0-0.3-0.1-0.5-0.2-0.7c-0.1-0.2-0.3-0.2-0.5-0.2s-0.4,0-0.6,0.1
			c-0.2,0.1-0.4,0.1-0.6,0.1c-0.5,0-0.8-0.1-0.9-0.2c-0.1-0.1-0.2-0.4-0.2-0.8c0-0.8,0.1-1.4,0.3-1.6C3,11.7,3.4,11.6,4,11.6
			c0.6,0,1,0,1.2,0.1c0.2,0,0.4,0.1,0.6,0.1c0.2,0.1,0.4,0.1,0.4,0.1c0.3,0,0.5-0.2,0.5-0.5v-0.2c0-0.3-0.1-0.4-0.2-0.5
			c-0.1-0.1-0.4-0.1-0.7-0.1H5.4c-1.8,0-3.1,0.1-4.1,0.2C1,10.9,0.8,11,0.8,11.2c0,0,0,0.1,0.1,0.3C1,11.7,1,11.9,1,12
			c0,0.2,0,0.7,0,1.6s-0.1,2.3-0.2,4.1c0,0.3-0.1,0.5-0.2,0.8c-0.2,0.2-0.2,0.4-0.2,0.5v0.2c0,0.2,0.1,0.4,0.2,0.5
			C0.7,19.8,1,19.8,1.3,19.8z M11.2,15.8c-0.1,0.1-0.4,0.1-0.8,0.2c-0.4,0.1-0.7,0.1-0.8,0.1c-0.6,0.1-1,0.4-1.4,0.7
			c-0.4,0.3-0.6,0.8-0.6,1.4s0.2,1.1,0.5,1.4c0.4,0.3,0.8,0.5,1.3,0.5h0.2c0.3,0,0.7-0.1,1.1-0.2c0.4-0.2,0.7-0.2,0.7-0.2
			c0.1,0,0.3,0.1,0.6,0.2s0.5,0.2,0.8,0.2c0.2,0,0.4,0,0.5-0.1s0.2-0.2,0.2-0.3s-0.1-0.3-0.2-0.5c-0.1-0.2-0.2-0.4-0.2-0.5
			s0-0.7,0-1.6c0-1,0-1.5,0-1.6c0-0.5-0.2-0.8-0.3-1.1c-0.2-0.3-0.5-0.5-0.8-0.7c-0.4-0.2-0.8-0.3-1.2-0.3h-0.3
			c-0.5,0-1,0.1-1.5,0.3c-0.5,0.2-0.7,0.5-0.7,0.8c0,0.4,0.2,0.6,0.5,0.6c0.1,0,0.4-0.1,0.9-0.3c0.5-0.2,0.8-0.3,1.1-0.3
			s0.5,0.1,0.7,0.3c0.2,0.2,0.3,0.4,0.3,0.7C11.6,15.4,11.5,15.7,11.2,15.8z M11.7,17.1v0.4v0.2v0.1v0.1c0,0.3-0.1,0.6-0.4,0.9
			c-0.3,0.3-0.6,0.4-1,0.4h-0.2c-0.3,0-0.5-0.1-0.7-0.3c-0.2-0.2-0.3-0.4-0.3-0.7v-0.1c0-0.4,0.1-0.6,0.3-0.8c0.3-0.3,0.7-0.4,1-0.4
			c0.1,0,0.1,0,0.3,0H11l0,0h0.3C11.5,16.7,11.7,16.8,11.7,17.1z M17.9,20.1c0.5,0,1-0.1,1.5-0.4s0.8-0.5,0.8-0.8
			c0-0.2-0.1-0.3-0.3-0.3c-0.1,0-0.3,0.1-0.8,0.2c-0.4,0.1-0.7,0.2-1,0.2c-0.6,0-1-0.2-1.3-0.5c-0.3-0.4-0.5-0.9-0.5-1.7
			c0-0.7,0.2-1.4,0.5-1.8c0.3-0.5,0.7-0.7,1.3-0.7l0,0c0.2,0,0.6,0.1,0.9,0.3c0.4,0.2,0.6,0.3,0.7,0.3c0.3,0,0.5-0.2,0.5-0.5
			s-0.2-0.6-0.5-0.8c-0.3-0.3-0.8-0.4-1.3-0.4h-0.2c-0.5,0-1,0.1-1.4,0.3c-0.7,0.3-1.2,0.9-1.6,1.8c-0.2,0.4-0.3,1-0.3,1.5v0.3
			c0,0.5,0.1,0.9,0.3,1.3C15.7,19.5,16.6,20.1,17.9,20.1z M22,15l-0.1,2.1c0,1,0.2,1.8,0.5,2.2c0.3,0.4,0.8,0.6,1.4,0.6H24
			c0.4,0,0.9-0.1,1.5-0.4c0.2-0.1,0.3-0.2,0.4-0.2s0.2,0.1,0.4,0.2c0.2,0.2,0.4,0.2,0.6,0.2c0.6,0,0.9-0.2,0.9-0.6
			c0,0,0-0.2-0.1-0.4c0-0.2-0.1-0.6-0.1-1.2c0-0.5,0-0.9,0-1.2v-1.6v-0.4c0-0.3,0-0.5-0.1-0.6s-0.3-0.2-0.5-0.2
			c-0.3,0-0.5,0.1-0.6,0.2s-0.2,0.3-0.2,0.5v0.3v0.3c0,1.6-0.1,2.6-0.4,3.2c-0.1,0.3-0.3,0.5-0.6,0.7c-0.3,0.2-0.5,0.3-0.8,0.3
			c-0.8,0-1.1-0.5-1.1-1.6l0.1-2.3c0-0.7-0.1-1.1-0.2-1.4c-0.1-0.2-0.3-0.4-0.6-0.4h-0.2c-0.5,0-0.7,0.1-0.7,0.4
			c0,0.1,0,0.2,0.1,0.5C22,14.5,22,14.8,22,15z M30.6,20H31c0.3,0,0.6-0.1,0.8-0.2c0.2-0.1,0.3-0.3,0.3-0.5v-0.1
			c0-0.1-0.1-0.2-0.2-0.4c-0.1-0.2-0.2-0.4-0.3-0.7c-0.1-0.3-0.1-0.8-0.1-1.4c0-0.7,0-1.7,0.1-3.1v-0.4v-0.3c0-0.2,0-0.3,0-0.5v-0.3
			c0,0,0-0.1,0-0.3l0.1-1c0-0.4,0-0.6-0.1-0.7s-0.3-0.2-0.5-0.2H31c-0.6,0-0.9,0.2-0.9,0.5c0,0.1,0,0.3,0.1,0.5s0.1,0.6,0.1,1v0.5
			v0.5c0,0.1,0,0.7-0.1,1.9c-0.1,1.2-0.1,1.9-0.1,2.3s0,0.6-0.1,0.8c0,0.2,0,0.5-0.1,0.9v0.3v0.2c0,0.2,0.1,0.3,0.2,0.4
			C30.2,19.9,30.4,20,30.6,20z M34.3,14.8c0,0.2,0.1,0.9,0.1,2.1s0.1,2,0.3,2.3c0.3,0.5,0.8,0.8,1.5,0.8c0.4,0,0.7-0.1,0.9-0.2
			c0.2-0.1,0.3-0.3,0.3-0.5s-0.2-0.3-0.6-0.4s-0.6-0.1-0.7-0.3c-0.2-0.2-0.3-0.6-0.3-1.2c0-1.2,0.1-2.1,0.3-2.7
			c0.1-0.3,0.4-0.5,0.8-0.6s0.6-0.3,0.6-0.5v-0.1c0-0.1-0.2-0.3-0.5-0.4s-0.6-0.2-0.7-0.3c-0.1-0.1-0.2-0.3-0.2-0.7
			C36,11.7,36,11.5,36,11.5c-0.1-0.2-0.2-0.2-0.4-0.2h-0.1c-0.2,0-0.4,0.2-0.5,0.5c0,0.1-0.1,0.3-0.2,0.6c-0.1,0.3-0.2,0.5-0.3,0.6
			c-0.4,0.4-0.7,0.7-0.7,0.7c0,0.1,0.1,0.2,0.3,0.4S34.2,14.6,34.3,14.8z M41.2,22.2c0.4-0.4,0.8-0.9,1.2-1.6c0.4-0.7,1-2.2,1.8-4.7
			c0.1-0.4,0.3-0.8,0.5-1.2c0.2-0.4,0.2-0.7,0.2-0.9c0-0.3-0.2-0.5-0.6-0.5s-0.7,0.1-0.8,0.4c0,0.1-0.1,0.4-0.2,0.9
			s-0.2,1.1-0.5,1.9c-0.4,1.1-0.7,1.7-1,1.7c-0.2-0.1-0.5-1.3-1.2-3.6c-0.1-0.4-0.1-0.6-0.1-0.6c-0.1-0.3-0.4-0.4-0.7-0.4
			c-0.3,0-0.6,0.1-0.7,0.2s-0.2,0.2-0.2,0.3c0,0.3,0.4,1.3,1.1,3c0.2,0.5,0.5,1.1,0.8,1.7s0.5,1,0.5,1.2c0,0.4-0.2,0.9-0.5,1.3
			c-0.2,0.2-0.5,0.4-0.9,0.6s-0.6,0.4-0.6,0.6s0.2,0.4,0.6,0.4S40.8,22.6,41.2,22.2z M2.7,36.1h0.2c0.4,0,0.9-0.1,1.3-0.3
			c0.8-0.4,1.4-1,1.7-2c0.1-0.5,0.2-0.9,0.2-1.4v-0.1c0-1.4-0.5-2.4-1.6-2.9c-0.3-0.2-0.7-0.2-1.1-0.2H3.1c-0.4,0-0.7,0.1-1.1,0.2
			c-0.4,0.2-0.8,0.4-1.1,0.8C0.3,30.8,0,31.7,0,32.9V33c0,1,0.3,1.8,0.8,2.4C1.2,35.8,1.9,36.1,2.7,36.1z M1.4,32.7v-0.2
			c0-0.7,0.2-1.2,0.5-1.7s0.7-0.7,1.2-0.7h0.1c0.4,0,0.8,0.2,1,0.6c0.3,0.4,0.4,0.9,0.4,1.5v0.5c0,0.8-0.2,1.4-0.5,1.9
			s-0.7,0.7-1.2,0.7H2.7c-0.4,0-0.7-0.2-1-0.6c-0.2-0.5-0.3-1-0.3-1.6V32.7z M11,27c0.1,0,0.3,0,0.5,0c0.1,0,0.2,0,0.3,0
			s0.2,0,0.3,0c0.2-0.1,0.4-0.2,0.4-0.4s-0.1-0.4-0.3-0.5s-0.5-0.2-0.9-0.2c-0.8,0-1.4,0.3-1.9,0.8c0,0-0.3,0.7-1,2
			c-0.1,0.1-0.2,0.3-0.3,0.5c-0.2,0.2-0.2,0.4-0.2,0.6c0,0.1,0.1,0.3,0.2,0.5c0.1,0.2,0.2,0.3,0.2,0.4c0.1,0.2,0.1,0.7,0.1,1.5
			c0,0.8,0,1.4-0.1,1.8c-0.1,0.4-0.1,0.8-0.2,1c-0.1,0.3-0.2,0.5-0.2,0.7c0,0.2,0.1,0.3,0.2,0.5c0.2,0.1,0.3,0.2,0.6,0.2h0.2
			c0.3,0,0.6-0.1,0.8-0.3c0.2-0.2,0.3-0.4,0.3-0.7l-0.1-1.2c0-1.3,0.1-2.4,0.4-3.2c0.1-0.4,0.3-0.6,0.6-0.8c0.4-0.2,0.6-0.4,0.6-0.5
			c0-0.2-0.2-0.4-0.5-0.5c-0.3-0.2-0.5-0.3-0.6-0.3c-0.1-0.2-0.2-0.4-0.2-0.7s0.1-0.6,0.3-0.9C10.4,27.2,10.7,27,11,27z M8,44.5
			c0.2-0.7,0.3-1,0.3-1c0-0.4-0.1-0.7-0.4-0.8c-0.1-0.1-0.3-0.1-0.6-0.1s-0.5,0.1-0.6,0.2c-0.1,0.1-0.2,0.3-0.2,0.4l0.1,0.5
			c0,0.2,0,0.3,0,0.4c0,1.4-0.1,2.5-0.2,3.5c-0.1,1-0.2,1.6-0.3,1.9C5.7,50.5,5,51,3.9,51c-0.6,0-1-0.2-1.4-0.7
			c-0.3-0.4-0.5-1-0.5-1.7c0-0.7,0-1.6,0.1-2.8c0.1-1.2,0.1-1.9,0.2-2.2c0.1-0.2,0.1-0.4,0.1-0.4c0-0.4-0.3-0.6-0.8-0.6
			c-0.4,0-0.7,0-0.8,0.1c-0.3,0.2-0.4,0.5-0.4,0.9c0,0.1,0,0.2,0.1,0.4l0.1,0.3c0.1,0.2,0.1,0.4,0.1,0.8c0,0.4,0,0.8,0,1.3
			s0,1,0,1.5v0.3c0,0.6,0,1.2,0.1,1.6c0.1,0.4,0.3,0.8,0.5,1.2c0.6,0.7,1.4,1.1,2.5,1.1h0.3c0.8,0,1.5-0.2,2-0.5
			c0.6-0.3,0.9-0.7,1.2-1.2c0.2-0.5,0.4-1.2,0.4-2.2c0-0.3,0.1-1,0.1-1.9C7.9,45.2,7.9,44.7,8,44.5z M13.5,45.4L13.5,45.4
			c-0.4,0-0.7,0.1-1.1,0.3C12,45.9,11.8,46,11.8,46c-0.1,0-0.1-0.1-0.2-0.2c-0.1-0.1-0.1-0.2-0.2-0.2c-0.2-0.2-0.5-0.2-0.9-0.2
			s-0.6,0.1-0.6,0.4c0,0.1,0,0.3,0.1,0.6c0.1,0.3,0.1,0.8,0.1,1.4v0.5c0,0.1,0,0.4,0,0.7c0,0.6-0.1,1.1-0.3,1.6
			c-0.1,0.2-0.1,0.4-0.1,0.5c0,0.2,0.1,0.3,0.2,0.4c0.1,0.1,0.3,0.2,0.6,0.2h0.2c0.3,0,0.5-0.1,0.7-0.2c0.2-0.2,0.3-0.3,0.3-0.5
			c0-0.2,0-0.4-0.1-0.8c-0.1-0.3-0.1-0.6-0.1-0.8c0-1.1,0.1-1.9,0.4-2.4c0.3-0.5,0.8-0.7,1.4-0.7c0.3,0,0.5,0,0.6-0.1
			s0.2-0.2,0.2-0.4v-0.1c0-0.2-0.1-0.3-0.2-0.4C13.9,45.5,13.8,45.4,13.5,45.4z M18.5,52c0.8,0,1.6-0.3,2.1-1
			c0.3-0.3,0.5-0.7,0.7-1.1c0.2-0.4,0.2-0.8,0.2-1.2v-0.5c0-0.8-0.2-1.4-0.7-2c-0.5-0.5-1-0.8-1.7-0.8c-0.3,0-0.6,0-0.9,0.1
			c-0.3,0.1-0.4,0.1-0.4,0.1c-0.2,0-0.4,0-0.5-0.1s-0.1-0.2-0.1-0.4v-0.4v-0.3v-1.1c0-0.5-0.1-0.8-0.2-1c-0.1-0.2-0.3-0.3-0.7-0.3
			h-0.1c-0.4,0-0.6,0.2-0.6,0.6c0,0,0,0.2,0.1,0.5c0.1,0.3,0.1,0.7,0.1,1.2s-0.1,1.6-0.2,3.3c-0.1,1.8-0.2,2.8-0.2,3v0.3
			c0,0.5,0.2,0.7,0.7,0.7h0.5c0.1,0,0.4,0,0.7,0.1c0.4,0.1,0.7,0.1,0.9,0.1h0.3V52z M18.1,51.1c-0.4,0-0.7-0.1-0.9-0.3
			c-0.2-0.2-0.3-0.5-0.3-0.8c0-0.1,0-0.2,0-0.3v-0.6c0-1,0.1-1.7,0.4-2.2c0.1-0.2,0.3-0.4,0.6-0.5s0.5-0.2,0.7-0.2h0.2
			c0.4,0,0.7,0.2,0.9,0.5c0.2,0.3,0.4,0.7,0.4,1.2V48v0.1v0.1v0.2c0,0.9-0.2,1.5-0.5,2s-0.8,0.7-1.3,0.7H18.1z M26.6,51.6
			c0.1,0,0.3,0.1,0.6,0.2c0.3,0.1,0.5,0.2,0.8,0.2c0.2,0,0.4,0,0.5-0.1s0.2-0.2,0.2-0.3s-0.1-0.3-0.2-0.5c-0.1-0.2-0.2-0.4-0.2-0.5
			s0-0.7,0-1.6c0-1,0-1.5,0-1.6c0-0.5-0.2-0.8-0.3-1.1c-0.2-0.3-0.5-0.5-0.8-0.7c-0.4-0.2-0.8-0.3-1.2-0.3h-0.3
			c-0.5,0-1,0.1-1.5,0.3c-0.5,0.2-0.7,0.5-0.7,0.8c0,0.4,0.2,0.6,0.5,0.6c0.1,0,0.4-0.1,0.9-0.3c0.5-0.2,0.8-0.3,1.1-0.3
			c0.3,0,0.5,0.1,0.7,0.3c0.2,0.2,0.3,0.4,0.3,0.7c0,0.3-0.1,0.5-0.4,0.6c-0.1,0.1-0.4,0.1-0.8,0.2s-0.7,0.1-0.8,0.1
			c-0.6,0.1-1,0.4-1.4,0.7c-0.4,0.3-0.6,0.8-0.6,1.4c0,0.6,0.2,1.1,0.5,1.4c0.4,0.3,0.8,0.5,1.3,0.5H25c0.3,0,0.7-0.1,1.1-0.2
			C26.3,51.7,26.6,51.6,26.6,51.6z M25.2,51.1c-0.3,0-0.5-0.1-0.7-0.3c-0.2-0.2-0.3-0.4-0.3-0.7V50c0-0.4,0.1-0.6,0.3-0.8
			c0.3-0.3,0.7-0.4,1-0.4c0.1,0,0.1,0,0.3,0h0.3l0,0h0.3c0.3,0,0.4,0.1,0.4,0.4v0.4v0.2v0.1V50c0,0.3-0.1,0.6-0.4,0.9
			s-0.6,0.4-1,0.4h-0.2V51.1z M34.7,46.9C34.9,47.3,35,48,35,49c0,0.5,0,1,0,1.4v0.4c0,0.3,0,0.5,0.1,0.5c0.1,0.2,0.3,0.2,0.7,0.2
			c0.6,0,0.9-0.2,0.9-0.5c0-0.2,0-0.3-0.1-0.5c-0.1-0.2-0.1-0.4-0.2-0.5c0-0.1,0-0.4,0-0.7c0-0.1,0-0.1,0-0.2c0-0.1,0-0.2,0-0.3
			c0,0,0-0.1,0-0.3c0-0.1,0-0.2,0-0.2l0,0c0-1-0.1-1.6-0.2-1.9c-0.3-0.6-0.8-0.9-1.5-0.9h-0.2c-0.4,0-0.9,0.2-1.5,0.5
			c-0.2,0.1-0.3,0.2-0.4,0.2s-0.3-0.1-0.5-0.3c-0.3-0.2-0.6-0.3-0.8-0.3c-0.3,0-0.4,0.1-0.4,0.4v2c0,1.2-0.1,2-0.2,2.4l-0.3,0.3
			c0,0.1,0,0.2,0,0.3v0.2c0,0.4,0.3,0.6,0.8,0.6h0.1c0.2,0,0.4-0.1,0.6-0.2c0.1-0.2,0.2-0.4,0.2-0.8c0-1.7,0.1-2.8,0.4-3.4
			c0.1-0.3,0.3-0.5,0.6-0.7c0.2-0.2,0.5-0.3,0.8-0.3C34.2,46.4,34.5,46.5,34.7,46.9z M4,62.5c-0.9-0.4-1.4-0.7-1.5-0.8
			C2.2,61.3,2,61,2,60.6s0.2-0.7,0.5-0.9c0.3-0.2,0.7-0.3,1.1-0.3c0.4,0,0.9,0.1,1.3,0.4c0.7,0.4,1,0.6,1.1,0.6s0.2-0.1,0.2-0.2
			c0.1-0.1,0.1-0.3,0.1-0.5c0-0.4-0.2-0.7-0.5-1c-0.4-0.2-1-0.4-1.9-0.4H3.7c-0.9,0-1.6,0.2-2.2,0.7c-0.6,0.5-0.9,1.1-0.9,1.9
			c0,0.6,0.2,1.2,0.6,1.6c0.3,0.3,0.9,0.7,1.6,1.1c0.8,0.4,1.3,0.6,1.5,0.8C4.8,64.8,5,65.2,5,65.5c0,0.5-0.2,0.8-0.5,1.1
			C4.2,66.8,3.8,67,3.3,67s-0.8-0.1-1.2-0.2c-0.3-0.1-0.6-0.3-0.9-0.6c-0.3-0.2-0.5-0.4-0.6-0.4S0.4,65.9,0.3,66s-0.2,0.3-0.2,0.5
			s0.1,0.4,0.2,0.6c0.3,0.7,1.3,1,2.8,1c0.5,0,1-0.1,1.4-0.2c0.8-0.3,1.4-0.7,1.7-1.4c0.2-0.3,0.3-0.7,0.3-1.1v-0.3
			c0-0.6-0.2-1.1-0.7-1.6C5.4,63.2,4.8,62.8,4,62.5z M11,62.2L11,62.2c0.3,0,0.6,0.1,1,0.3c0.4,0.2,0.6,0.3,0.7,0.3
			c0.3,0,0.5-0.2,0.5-0.5s-0.2-0.6-0.5-0.8c-0.4-0.2-0.8-0.3-1.3-0.3h-0.2c-0.5,0-1,0.1-1.4,0.3c-0.7,0.3-1.2,0.9-1.6,1.8
			c-0.2,0.4-0.3,1-0.3,1.5v0.3c0,0.5,0.1,0.9,0.3,1.3c0.4,1.1,1.3,1.6,2.7,1.6c0.5,0,1-0.1,1.5-0.4s0.8-0.5,0.8-0.8
			c0-0.2-0.1-0.3-0.3-0.3c-0.1,0-0.3,0.1-0.8,0.2c-0.4,0.1-0.7,0.2-1,0.2c-0.6,0-1-0.2-1.3-0.5c-0.3-0.4-0.5-0.9-0.5-1.7
			c0-0.7,0.2-1.4,0.5-1.8C10,62.5,10.4,62.2,11,62.2z M16.5,66.1c0-0.2-0.1-0.6-0.1-1.3v-0.3v-0.6v-0.2l0.1-1.8c0-0.2,0-0.3-0.1-0.5
			c-0.1-0.1-0.2-0.2-0.5-0.2h-0.2c-0.6,0-0.9,0.2-0.9,0.5c0,0.1,0.1,0.2,0.2,0.5c0.1,0.3,0.2,0.6,0.2,0.9v0.3c0,0.2,0,0.4,0,0.7v0.2
			v0.4c0,0.1,0,0.2,0,0.4c0,0.6-0.1,1.1-0.2,1.5c-0.1,0.4-0.2,0.6-0.2,0.6v0.2c0,0.1,0.1,0.2,0.2,0.3c0.1,0.1,0.3,0.2,0.5,0.2h0.2
			c0.4,0,0.7-0.1,0.9-0.2s0.3-0.3,0.3-0.5v-0.1c0-0.1-0.1-0.2-0.2-0.4C16.6,66.5,16.5,66.2,16.5,66.1z M15.2,59.2L15.2,59.2
			c0,0.3,0.1,0.5,0.2,0.6c0.1,0.1,0.2,0.2,0.4,0.2H16h0.1c0.3,0,0.5-0.1,0.6-0.2c0.1-0.2,0.2-0.4,0.2-0.6v-0.1
			c0-0.2-0.1-0.4-0.2-0.5c-0.1-0.1-0.2-0.2-0.4-0.2h-0.2H16h-0.2c-0.2,0-0.3,0.1-0.4,0.2c-0.1,0.1-0.2,0.3-0.2,0.4L15.2,59.2z
			 M21.8,61.2h-0.3c-0.4,0-0.9,0.1-1.3,0.3c-0.8,0.3-1.4,1-1.7,1.9c-0.2,0.5-0.3,0.9-0.3,1.3V65c0,0.9,0.3,1.7,0.8,2.2
			c0.5,0.6,1.2,0.8,2.1,0.8h0.2c0.6,0,1.1-0.1,1.6-0.4s0.8-0.5,0.8-0.8c0-0.2-0.1-0.3-0.3-0.3c-0.1,0-0.3,0.1-0.8,0.2
			c-0.4,0.1-0.8,0.2-1,0.2c-0.5,0-1-0.1-1.3-0.4s-0.5-0.6-0.5-1c0-0.3,0.1-0.5,0.4-0.5c0.1,0,0.6-0.1,1.5-0.2s1.5-0.3,1.7-0.4
			c0.4-0.2,0.5-0.5,0.5-1v-0.1c0-0.6-0.2-1.1-0.6-1.5S22.4,61.2,21.8,61.2z M22.7,63.2c0,0.2-0.1,0.4-0.2,0.5
			c-0.3,0.2-0.6,0.3-1.1,0.3c-0.1,0-0.3,0-0.7,0.1h-0.3l0,0h-0.2c-0.3,0-0.4-0.1-0.4-0.2v-0.1c0-0.4,0.2-0.8,0.5-1.2
			c0.3-0.4,0.7-0.6,1.2-0.6l0,0l0,0c0.3,0,0.6,0.1,0.8,0.3C22.6,62.6,22.7,62.8,22.7,63.2L22.7,63.2z M31.5,66.1c0-0.1,0-0.4,0-0.7
			c0-0.1,0-0.1,0-0.2s0-0.2,0-0.3c0,0,0-0.1,0-0.3c0-0.1,0-0.2,0-0.2l0,0c0-1-0.1-1.6-0.2-1.9c-0.3-0.6-0.8-0.9-1.5-0.9h-0.2
			c-0.4,0-0.9,0.2-1.5,0.5c-0.2,0.1-0.3,0.2-0.4,0.2s-0.3-0.1-0.5-0.3c-0.3-0.2-0.6-0.3-0.8-0.3c-0.3,0-0.4,0.1-0.4,0.4v2
			c0,1.2-0.1,2-0.2,2.4l-0.1,0.3c-0.1,0.2-0.1,0.3-0.1,0.3v0.1c0,0.4,0.3,0.6,0.8,0.6h0c0.2,0,0.4-0.1,0.6-0.2
			c0.1-0.2,0.2-0.4,0.2-0.8c0-1.7,0.1-2.8,0.4-3.4c0.1-0.3,0.3-0.5,0.6-0.7c0.2-0.2,0.5-0.3,0.8-0.3c0.4,0,0.7,0.2,0.9,0.5
			c0.2,0.4,0.3,1.1,0.3,2.1c0,0.5,0,1,0,1.4v0.4c0,0.3,0,0.5,0.1,0.5c0.1,0.2,0.3,0.2,0.7,0.2c0.6,0,0.9-0.2,0.9-0.5
			c0-0.2,0-0.3-0.1-0.5C31.6,66.3,31.5,66.2,31.5,66.1z M36.3,62.2L36.3,62.2c0.3,0,0.6,0.1,1,0.3c0.4,0.2,0.6,0.3,0.7,0.3
			c0.3,0,0.5-0.2,0.5-0.5s-0.2-0.6-0.5-0.8c-0.4-0.2-0.8-0.3-1.3-0.3h-0.3c-0.5,0-1,0.1-1.4,0.3c-0.7,0.3-1.2,0.9-1.6,1.8
			c-0.2,0.4-0.3,1-0.3,1.5v0.3c0,0.5,0.1,0.9,0.3,1.3c0.4,1.1,1.3,1.6,2.7,1.6c0.5,0,1-0.1,1.5-0.4s0.8-0.5,0.8-0.8
			c0-0.2-0.1-0.3-0.3-0.3c-0.1,0-0.3,0.1-0.8,0.2c-0.4,0.1-0.7,0.2-1,0.2c-0.6,0-1-0.2-1.3-0.5c-0.3-0.4-0.5-0.9-0.5-1.7
			c0-0.7,0.2-1.4,0.5-1.8C35.3,62.5,35.8,62.2,36.3,62.2z M41.6,65.1c0.1,0,0.6-0.1,1.5-0.2s1.5-0.3,1.7-0.4c0.4-0.2,0.5-0.5,0.5-1
			v-0.1c0-0.6-0.2-1.1-0.6-1.5s-0.9-0.6-1.5-0.6h-0.3c-0.4,0-0.9,0.1-1.3,0.3c-0.8,0.3-1.4,1-1.7,1.9c-0.2,0.5-0.3,0.9-0.3,1.3v0.3
			c0,0.9,0.3,1.7,0.8,2.2c0.5,0.6,1.2,0.8,2.1,0.8h0.2c0.6,0,1.1-0.1,1.6-0.4s0.8-0.5,0.8-0.8c0-0.2-0.1-0.3-0.3-0.3
			c-0.1,0-0.3,0.1-0.8,0.2c-0.4,0.1-0.8,0.2-1,0.2c-0.5,0-1-0.1-1.3-0.4s-0.5-0.6-0.5-1C41.2,65.3,41.3,65.2,41.6,65.1z M41.2,63.8
			L41.2,63.8c0-0.5,0.2-0.9,0.5-1.3c0.3-0.4,0.7-0.6,1.2-0.6l0,0l0,0c0.3,0,0.6,0.1,0.8,0.3c0.2,0.2,0.3,0.5,0.3,0.8v0.1
			c0,0.2-0.1,0.4-0.2,0.5c-0.3,0.2-0.6,0.3-1.1,0.3c-0.1,0-0.3,0-0.7,0.1h-0.3l0,0h-0.2C41.3,64.1,41.2,64.1,41.2,63.8z"/>
	</g>
</g>
</svg>
