<?xml version="1.0" encoding="utf-8"?>
<!-- Generator: Adobe Illustrator 22.0.1, SVG Export Plug-In . SVG Version: 6.00 Build 0)  -->
<svg version="1.1" id="レイヤー_1" xmlns="http://www.w3.org/2000/svg" xmlns:xlink="http://www.w3.org/1999/xlink" x="0px"
	 y="0px" viewBox="0 0 80 78" style="enable-background:new 0 0 80 78;" xml:space="preserve">
<style type="text/css">
	.st0{fill:#989898;}
</style>
<title></title>
<g id="icomoon-ignore">
</g>
<path class="st0" d="M5.4,0.6c1.3,0,2.2,0.1,2.8,0.3c0.1,0,0.3,0.2,0.4,0.3s0.2,0.5,0.2,0.9S8.7,2.9,8.5,3L8.4,3.1
	C8.3,3.1,8,2.9,7.8,2.6C7.1,1.8,6.3,1.5,5.4,1.5c-0.9,0-1.6,0.4-2.2,1.1C2.7,3.3,2.4,4.2,2.4,5.4c0,1.2,0.3,2.2,0.9,2.9
	c0.6,0.8,1.3,1.1,2.3,1.1c0.6,0,1-0.1,1.3-0.4s0.4-0.8,0.4-1.5C7.2,7.2,7.2,7,7,6.8c0-0.1-0.1-0.2-0.3-0.3S6.5,6.3,6.5,6.2
	C6.5,6,7,5.9,7.9,5.9c0.6,0,1,0,1.1,0.1s0.3,0.2,0.3,0.3c0,0-0.1,0.1-0.2,0.3S8.9,7,8.9,7S8.9,7.5,8.8,8.2S8.7,9.3,8.6,9.5
	S8.2,9.8,7.8,9.9c-1,0.3-1.8,0.5-2.3,0.5H5.2c-0.6,0-1.2-0.1-1.8-0.3S2.4,9.5,2,9.1S1.3,8.2,1,7.6S0.7,6.3,0.7,5.7V5.4
	c0-0.6,0.1-1.3,0.4-1.9c0.5-1.2,1.3-2,2.4-2.4C4.1,0.8,4.7,0.6,5.4,0.6z M14,10c0,0.2-0.4,0.3-1.2,0.3h-0.7l-0.3,0l-0.4,0
	c-0.5,0-0.7-0.1-0.7-0.3c0-0.1,0.1-0.3,0.3-0.4s0.4-0.3,0.4-0.5s0.1-0.9,0.1-2s0-1.7-0.1-2s-0.2-0.4-0.3-0.5
	c-0.3-0.2-0.4-0.3-0.4-0.4s0-0.2,0.1-0.2c0.3-0.2,0.8-0.3,1.4-0.3h0.1c0.3,0,0.4,0.1,0.6,0.4s0.2,0.4,0.3,0.4s0.2-0.1,0.4-0.2
	s0.4-0.3,0.6-0.4s0.5-0.2,0.8-0.2s0.5,0.1,0.7,0.2s0.2,0.3,0.2,0.6c0,0.2-0.1,0.4-0.2,0.5s-0.2,0.2-0.4,0.2S14.9,5.2,14.7,5
	s-0.4-0.2-0.6-0.2s-0.3,0.1-0.5,0.2s-0.3,0.3-0.5,0.7S13,6.6,13,7.4s0.1,1.3,0.2,1.5s0.3,0.4,0.5,0.6S14,9.8,14,10z M16.9,4.9
	c0-0.3,0.3-0.6,0.8-0.9s1.1-0.4,1.7-0.4c0,0,0,0,0.1,0c0.5,0,1,0.1,1.3,0.2c0.7,0.3,1,0.8,1.1,1.7c0,0.1,0,0.7,0,1.7S22,8.8,22,9
	c0.1,0.2,0.2,0.3,0.5,0.4c0.3,0.1,0.4,0.2,0.4,0.2c0,0.2-0.1,0.3-0.2,0.4c-0.3,0.2-0.7,0.3-1,0.3c-0.3,0-0.6-0.1-0.7-0.2
	c-0.3-0.3-0.4-0.4-0.4-0.4s-0.3,0.1-0.8,0.3s-0.9,0.3-1.3,0.3c-0.6,0-1-0.2-1.3-0.5s-0.5-0.7-0.5-1.1V8.6c0-0.5,0.2-0.9,0.6-1.3
	s1.1-0.6,2.2-0.8c0.4-0.1,0.6-0.1,0.7-0.2c0.2-0.1,0.3-0.4,0.3-0.8s-0.1-0.7-0.3-0.9s-0.5-0.3-0.8-0.3s-0.7,0.2-1,0.6
	c-0.3,0.4-0.6,0.6-0.9,0.6C17.1,5.6,16.9,5.3,16.9,4.9z M20.3,7.1h-0.1c-0.6,0-1.1,0.1-1.5,0.4c-0.4,0.3-0.6,0.6-0.6,1v0.1
	c0,0.2,0.1,0.4,0.2,0.6c0.1,0.2,0.3,0.3,0.6,0.3l0.1,0h0.2c0.5,0,0.9-0.2,1.2-0.6c0.1-0.2,0.2-0.5,0.2-1c0,0,0-0.1,0-0.1l0-0.2V7.4
	C20.5,7.2,20.4,7.1,20.3,7.1z M28.5,3.6c0-0.1,0.1-0.4,0.1-0.9s0-0.9-0.1-1.1S28.2,1.2,28,1c-0.2-0.2-0.3-0.3-0.3-0.3
	s0.1-0.1,0.2-0.2c0.3-0.2,0.7-0.2,1.4-0.2h0.2c0.3,0,0.5,0.2,0.5,0.5c0,0.1,0,1.4,0,3.9s0,3.9,0.1,4.1s0.1,0.4,0.3,0.6
	c0,0,0.1,0.1,0.3,0.2c0.1,0.1,0.2,0.2,0.2,0.3s-0.1,0.2-0.2,0.2c-0.3,0.1-0.7,0.2-1.3,0.2c-0.2,0-0.4-0.1-0.5-0.2
	c-0.2-0.2-0.4-0.4-0.4-0.4c0,0-0.1,0.1-0.3,0.2s-0.4,0.2-0.7,0.3c-0.3,0.1-0.6,0.2-1,0.2s-0.7-0.1-1.1-0.3c-0.6-0.3-1-0.8-1.3-1.5
	c-0.1-0.4-0.2-0.9-0.2-1.4c0-1,0.3-1.9,0.9-2.5c0.6-0.6,1.4-1,2.4-1l0.9,0.1C28.3,3.8,28.5,3.7,28.5,3.6z M28.5,5.6
	c0-0.4-0.1-0.7-0.4-0.9s-0.6-0.3-0.9-0.3H27c-0.2,0-0.4,0.1-0.7,0.2S26,4.8,25.8,5.1c-0.3,0.5-0.5,1-0.5,1.7v0.4
	c0,0.7,0.2,1.2,0.5,1.7c0.3,0.4,0.7,0.7,1.1,0.7h0.2c0.4,0,0.7-0.1,1-0.4s0.4-0.6,0.4-1l0-0.1V7.9l0-0.4c0-0.2,0-0.4,0-0.7l0-0.2
	V6.4l0-0.1V6l0-0.1V5.8C28.5,5.7,28.5,5.6,28.5,5.6z M38.9,9.5c0.2,0.2,0.3,0.3,0.3,0.3s0,0.1-0.1,0.2c-0.2,0.2-0.6,0.3-1.3,0.3
	c-0.2,0-0.4,0-0.5-0.1c-0.1-0.1-0.2-0.2-0.3-0.4c-0.1-0.2-0.2-0.3-0.2-0.3c-0.1,0-0.2,0.1-0.4,0.2c-0.6,0.4-1.1,0.6-1.6,0.6
	c0,0,0,0,0,0h-0.2c-0.8,0-1.3-0.3-1.6-1c-0.2-0.3-0.3-1.1-0.3-2.4c0-1.3,0-2-0.1-2.1s-0.2-0.3-0.4-0.4c-0.2-0.1-0.4-0.2-0.4-0.3
	c0-0.2,0.1-0.3,0.2-0.3c0.4-0.1,0.8-0.2,1.4-0.2c0.3,0,0.5,0.1,0.6,0.4c0.1,0.3,0.2,1.1,0.2,2.4s0.1,2,0.2,2.3
	c0.2,0.5,0.5,0.7,1,0.7c0.3,0,0.5-0.1,0.8-0.2c0.3-0.1,0.4-0.3,0.6-0.5s0.2-0.8,0.2-1.8s0-1.6-0.1-1.9c-0.1-0.3-0.2-0.5-0.3-0.6
	S36.3,4.1,36.3,4c0-0.2,0.5-0.3,1.6-0.3c0.2,0,0.4,0,0.4,0.1s0.1,0.3,0.1,0.5l0,0.4l0,1.8c0,1.2,0,1.9,0.1,2.2S38.7,9.3,38.9,9.5z
	 M40.6,4.9c0-0.3,0.3-0.6,0.8-0.9c0.5-0.3,1.1-0.4,1.7-0.4c0,0,0,0,0.1,0c0.5,0,1,0.1,1.3,0.2c0.7,0.3,1,0.8,1.1,1.7
	c0,0.1,0,0.7,0,1.7s0,1.7,0.1,1.9c0.1,0.2,0.2,0.3,0.5,0.4c0.3,0.1,0.4,0.2,0.4,0.2c0,0.2-0.1,0.3-0.2,0.4c-0.3,0.2-0.7,0.3-1,0.3
	c-0.3,0-0.6-0.1-0.7-0.2c-0.3-0.3-0.4-0.4-0.4-0.4s-0.3,0.1-0.8,0.3s-0.9,0.3-1.3,0.3c-0.6,0-1-0.2-1.3-0.5s-0.5-0.7-0.5-1.1V8.6
	c0-0.5,0.2-0.9,0.6-1.3s1.1-0.6,2.2-0.8c0.4-0.1,0.6-0.1,0.7-0.2c0.2-0.1,0.3-0.4,0.3-0.8s-0.1-0.7-0.3-0.9S43.4,4.3,43,4.3
	s-0.7,0.2-1,0.6c-0.3,0.4-0.6,0.6-0.9,0.6C40.8,5.6,40.6,5.3,40.6,4.9z M43.9,7.1h-0.1c-0.6,0-1.1,0.1-1.5,0.4
	c-0.4,0.3-0.6,0.6-0.6,1v0.1c0,0.2,0.1,0.4,0.2,0.6c0.1,0.2,0.3,0.3,0.6,0.3l0.1,0h0.2c0.5,0,0.9-0.2,1.2-0.6c0.1-0.2,0.2-0.5,0.2-1
	c0,0,0-0.1,0-0.1l0-0.2V7.4C44.2,7.2,44.1,7.1,43.9,7.1z M50.5,9.3l1-0.2c0.1,0,0.2,0.1,0.2,0.3s-0.2,0.4-0.5,0.6s-0.7,0.3-1.1,0.3
	H50c-0.3,0-0.6-0.1-0.8-0.2s-0.4-0.4-0.5-0.6c-0.2-0.4-0.3-1.2-0.3-2.3s0-1.8-0.1-2.1c-0.1-0.3-0.2-0.5-0.3-0.6
	c-0.2-0.2-0.4-0.3-0.4-0.3c0-0.1,0.1-0.2,0.2-0.3c0.3-0.2,0.5-0.3,0.5-0.4c0,0,0.2-0.4,0.5-1.1c0.2-0.4,0.3-0.5,0.5-0.5
	c0.2,0,0.3,0.1,0.4,0.2c0,0,0.1,0.2,0.1,0.6C49.9,3,50,3.3,50.1,3.4s0.4,0.2,0.8,0.3s0.6,0.2,0.6,0.4s-0.2,0.3-0.6,0.4
	S50.1,4.6,50,4.8c-0.2,0.2-0.2,0.9-0.2,2s0,1.8,0.2,2C50,9.2,50.3,9.3,50.5,9.3z M54.2,7.6c0,0.5,0.2,1,0.6,1.3s0.9,0.5,1.5,0.5
	c0.2,0,0.5,0,0.7-0.1c0.2-0.1,0.4-0.2,0.7-0.3C57.8,9,58,8.9,58,8.9c0.2,0,0.3,0.1,0.3,0.3c0,0.3-0.3,0.5-1,0.8
	c-0.4,0.2-0.9,0.3-1.4,0.3h-0.2c-0.9,0-1.6-0.3-2.1-0.8c-0.3-0.3-0.5-0.6-0.7-1.1s-0.3-0.9-0.3-1.4l0-0.2V6.8c0-0.4,0.1-0.9,0.3-1.3
	c0.2-0.4,0.4-0.8,0.7-1c0.6-0.6,1.3-0.9,2.1-0.9C57,3.6,57.9,4,58.3,5c0.1,0.3,0.2,0.6,0.2,0.8V6c0,0.3-0.1,0.5-0.4,0.6
	s-0.9,0.2-1.8,0.3S54.8,7,54.7,7C54.4,7.1,54.2,7.3,54.2,7.6z M57.1,5.8V5.6c0-0.3-0.1-0.6-0.4-0.9s-0.5-0.4-0.9-0.4h-0.1
	c-0.1,0-0.1,0-0.1,0c-0.3,0-0.6,0.2-0.9,0.5c-0.3,0.4-0.4,0.8-0.4,1.2v0.1c0,0.1,0.1,0.2,0.3,0.2c0.1,0,0.1,0,0.1,0l0.2,0h0l0,0
	l1.3-0.1l0.2,0C56.8,6.2,57.1,6.1,57.1,5.8z M3.9,18.2c-0.5,0-0.8,0.1-1.1,0.4s-0.4,0.6-0.4,1s0.2,0.8,0.7,1.2
	c0.3,0.2,0.8,0.5,1.6,0.8s1.4,0.7,1.7,1c0.6,0.6,0.9,1.2,0.9,1.8v0.2c0,0.8-0.3,1.4-0.9,1.8c-0.3,0.2-0.6,0.4-1,0.5S4.4,27.1,4,27.1
	H3.8c-0.9,0-1.8-0.1-2.5-0.4c-0.3-0.1-0.5-0.5-0.5-1v-0.2c0-0.7,0.1-1,0.3-1c0.2,0,0.4,0.2,0.6,0.6s0.6,0.8,0.9,1s0.8,0.3,1.3,0.3
	s0.9-0.1,1.2-0.4s0.5-0.6,0.5-1c0-0.5-0.3-1-0.8-1.4c-0.2-0.2-0.8-0.4-1.6-0.8S1.9,22,1.6,21.6c-0.5-0.5-0.7-1.1-0.7-1.7
	s0.2-1.3,0.7-1.7c0.3-0.3,0.6-0.4,1-0.6s0.8-0.2,1.2-0.2h0.3c0.2,0,0.4,0,0.7,0.1l0.2,0c0.3,0.1,0.4,0.1,0.5,0.1l0.2,0l0.2,0
	c0.2,0,0.3,0,0.4,0.1c0.3,0.1,0.4,0.5,0.4,1.1s-0.1,1-0.4,1c-0.1,0-0.3-0.2-0.6-0.5s-0.5-0.6-0.7-0.7C4.8,18.3,4.4,18.2,3.9,18.2z
	 M13.5,22.3c-0.2,0-0.5-0.2-0.8-0.6s-0.7-0.6-1.2-0.6s-0.8,0.2-1.1,0.7s-0.5,1.1-0.5,1.9s0.2,1.4,0.6,1.9s0.9,0.7,1.5,0.7
	c0.3,0,0.6,0,0.8-0.1s0.4-0.2,0.6-0.3s0.3-0.1,0.4-0.1c0.1,0,0.2,0.1,0.2,0.3c0,0.3-0.3,0.5-0.8,0.8s-1.1,0.4-1.6,0.4
	c-1,0-1.8-0.3-2.4-0.9c-0.2-0.3-0.4-0.6-0.6-1S8.4,24.5,8.4,24v-0.3c0,0,0,0,0,0c0,0,0,0,0,0c0-0.4,0.1-0.8,0.3-1.2
	c0.4-0.8,0.9-1.4,1.7-1.7c0.5-0.2,0.9-0.3,1.3-0.3h0.2c0.6,0,1.1,0.1,1.6,0.3c0.3,0.2,0.5,0.5,0.5,0.9c0,0.3-0.1,0.5-0.2,0.6
	S13.6,22.3,13.5,22.3z M15.2,26.7c0-0.1,0.1-0.2,0.3-0.4s0.3-0.4,0.4-0.7s0.1-1.4,0.1-3.5s0-3.4-0.1-3.8c0-0.2-0.1-0.4-0.3-0.5
	c-0.3-0.2-0.4-0.3-0.4-0.3c0-0.2,0.1-0.3,0.3-0.4c0.3-0.1,0.7-0.2,1.2-0.2h0.2c0.2,0,0.4,0.1,0.4,0.3s0.1,0.5,0.1,1.1l0,0.3
	c0,0.2,0,0.3,0,0.5l0,0.5c0,0.2,0,0.3,0,0.5c0,0.6,0.1,0.9,0.3,0.9c0,0,0.1-0.1,0.3-0.1c0.6-0.3,1.2-0.4,1.6-0.4
	c0.8,0,1.4,0.3,1.7,1c0.2,0.4,0.3,1.5,0.3,3.2c0,0.7,0,1.1,0.1,1.2c0,0.2,0.2,0.3,0.4,0.5c0.2,0.2,0.3,0.3,0.3,0.3
	c0,0.1-0.1,0.2-0.3,0.3c-0.2,0.1-0.7,0.1-1.4,0.1h-0.2c-0.5,0-0.7-0.1-0.7-0.3c0,0,0.1-0.2,0.2-0.3s0.2-0.4,0.2-0.6s0.1-0.8,0.1-1.8
	s0-1.6-0.1-1.9c-0.3-0.4-0.7-0.7-1-0.8c-0.5,0-0.9,0.2-1.3,0.6c-0.2,0.3-0.3,0.9-0.3,1.9s0,1.6,0.1,1.9s0.1,0.5,0.3,0.7
	s0.2,0.3,0.2,0.4c0,0.2-0.5,0.2-1.4,0.2S15.2,26.9,15.2,26.7z M30,23.5v0.3c0,0.4-0.1,0.8-0.2,1.2c-0.3,0.9-0.9,1.5-1.8,1.9
	c-0.4,0.2-0.8,0.2-1.1,0.2h-0.2c-0.9,0-1.6-0.3-2.2-0.9c-0.3-0.3-0.5-0.6-0.6-1s-0.2-0.9-0.2-1.4v-0.1c0-0.4,0.1-0.9,0.2-1.3
	c0.3-0.9,0.9-1.5,1.8-1.8c0.4-0.2,0.8-0.2,1.1-0.2H27c0.4,0,0.8,0.1,1.2,0.3c0.7,0.3,1.3,0.9,1.6,1.7C29.9,22.7,30,23.1,30,23.5z
	 M25,23.5v0.3c0,0.8,0.2,1.4,0.5,1.9c0.1,0.2,0.3,0.4,0.5,0.6s0.4,0.2,0.7,0.2h0.1c0.4,0,0.8-0.2,1.1-0.6c0.3-0.4,0.5-1,0.5-1.7
	v-0.5c0-0.7-0.2-1.4-0.5-1.9c-0.3-0.5-0.7-0.8-1.2-0.8h-0.2c-0.4,0-0.8,0.2-1.1,0.7S25,22.8,25,23.5z M37.7,23.5v0.3
	c0,0.4-0.1,0.8-0.2,1.2c-0.3,0.9-0.9,1.5-1.8,1.9c-0.4,0.2-0.8,0.2-1.1,0.2h-0.2c-0.9,0-1.6-0.3-2.2-0.9c-0.3-0.3-0.5-0.6-0.6-1
	s-0.2-0.9-0.2-1.4v-0.1c0-0.4,0.1-0.9,0.2-1.3c0.3-0.9,0.9-1.5,1.8-1.8c0.4-0.2,0.8-0.2,1.1-0.2h0.3c0.4,0,0.8,0.1,1.2,0.3
	c0.7,0.3,1.3,0.9,1.6,1.7C37.6,22.7,37.7,23.1,37.7,23.5z M32.7,23.5v0.3c0,0.8,0.2,1.4,0.5,1.9c0.1,0.2,0.3,0.4,0.5,0.6
	s0.4,0.2,0.7,0.2h0.1c0.4,0,0.8-0.2,1.1-0.6c0.3-0.4,0.5-1,0.5-1.7v-0.5c0-0.7-0.2-1.4-0.5-1.9c-0.3-0.5-0.7-0.8-1.2-0.8h-0.2
	c-0.4,0-0.8,0.2-1.1,0.7S32.7,22.8,32.7,23.5z M38.8,26.8c0-0.1,0.1-0.2,0.3-0.4c0.2-0.2,0.3-0.4,0.4-0.7s0.1-1.5,0.1-3.7
	s0-3.3-0.1-3.6c0-0.3-0.2-0.5-0.4-0.6c-0.3-0.2-0.5-0.3-0.5-0.4v-0.1c0-0.1,0.1-0.1,0.2-0.2c0.4-0.2,1-0.3,1.6-0.3h0.1
	c0.2,0,0.4,0.2,0.4,0.5c0,0,0,0.4,0,1v1.5l0,0.3v0.4l0,0.3v2.2c0,1.3,0,2.2,0.1,2.5c0,0.3,0.1,0.6,0.3,0.7c0,0,0.1,0.1,0.3,0.2
	s0.3,0.2,0.3,0.3c0,0.2-0.3,0.2-0.8,0.2L41,27h-0.3l-1.1,0h-0.1C39,27,38.8,27,38.8,26.8z M7.1,40.3v0.3c0,0.4-0.1,0.8-0.2,1.2
	c-0.3,0.9-0.9,1.5-1.8,1.9C4.6,43.9,4.2,44,3.9,44H3.6c-0.9,0-1.6-0.3-2.2-0.9c-0.3-0.3-0.5-0.6-0.6-1c-0.2-0.4-0.2-0.9-0.2-1.4
	v-0.1c0-0.4,0.1-0.9,0.2-1.3c0.3-0.9,0.9-1.5,1.8-1.8c0.4-0.2,0.8-0.2,1.1-0.2h0.3c0.4,0,0.8,0.1,1.2,0.3c0.7,0.3,1.3,0.9,1.6,1.7
	C7,39.5,7.1,39.9,7.1,40.3z M2.1,40.3v0.3c0,0.8,0.2,1.4,0.5,1.9c0.1,0.2,0.3,0.4,0.5,0.6c0.2,0.1,0.4,0.2,0.7,0.2h0.1
	c0.4,0,0.8-0.2,1.1-0.6s0.5-1,0.5-1.7v-0.5c0-0.7-0.2-1.4-0.5-1.9s-0.7-0.8-1.2-0.8H3.6c-0.4,0-0.8,0.2-1.1,0.7S2.1,39.6,2.1,40.3z
	 M10.7,44h-0.4c-1.3,0-2-0.1-2-0.3c0-0.1,0.1-0.2,0.3-0.4C8.9,43.2,9,43,9.1,42.7c0.1-0.2,0.1-1,0.1-2.1c0-1.2,0-1.8-0.1-2
	s-0.2-0.3-0.4-0.4S8.4,38,8.4,37.9s0.1-0.3,0.3-0.5s0.3-0.6,0.4-0.9c0.2-0.9,0.5-1.5,0.9-1.9c0.5-0.5,1.1-0.8,2-0.8
	c0.4,0,0.7,0.1,1,0.2s0.4,0.3,0.4,0.6s-0.1,0.4-0.2,0.5s-0.2,0.2-0.4,0.2s-0.4-0.1-0.7-0.2s-0.5-0.2-0.7-0.2c-0.3,0-0.4,0.2-0.6,0.5
	s-0.2,0.7-0.2,1s0.1,0.6,0.2,0.8c0.1,0.1,0.3,0.2,0.6,0.4s0.5,0.3,0.5,0.5c0,0.1-0.2,0.2-0.5,0.3s-0.6,0.2-0.7,0.4
	c-0.1,0.2-0.2,0.9-0.2,2.1s0,1.9,0.1,2.1c0.1,0.2,0.2,0.4,0.5,0.6s0.4,0.3,0.4,0.4C11.6,43.9,11.3,44,10.7,44z M1.5,55.3
	c0-1.5,0-2.4-0.1-2.7S1.3,52.1,1.1,52c-0.4-0.2-0.6-0.4-0.6-0.5s0.1-0.2,0.2-0.3s0.6-0.1,1.2-0.1h1c0.5,0,0.8,0.1,0.8,0.3
	c0,0-0.1,0.1-0.3,0.3c-0.2,0.2-0.3,0.5-0.3,0.9c-0.1,0.4-0.1,1.2-0.1,2.5s0,2.1,0.1,2.6c0.2,1.4,1,2.1,2.3,2.1
	c0.9,0,1.5-0.3,1.9-0.9C7.8,58.4,8,57.5,8,56.3l0-0.6c0-0.3,0-0.8,0-1.5s0-1.2-0.1-1.6c-0.1-0.3-0.2-0.6-0.4-0.9s-0.2-0.4-0.2-0.4
	c0-0.2,0.3-0.3,1-0.3s1.1,0,1.4,0.1s0.3,0.2,0.3,0.4c0,0.1-0.1,0.2-0.4,0.4S9.1,52.3,9,52.5c-0.1,0.2-0.1,0.9-0.1,2.2l0,1.6
	c0,0.9-0.1,1.6-0.2,2c-0.1,0.5-0.3,0.9-0.6,1.3c-0.6,0.7-1.6,1.1-3,1.1s-2.4-0.4-3-1.3c-0.3-0.4-0.5-0.9-0.6-1.4
	C1.6,57.7,1.5,56.8,1.5,55.3z M14.3,60.4c0,0.2-0.4,0.3-1.2,0.3h-0.7l-0.3,0l-0.4,0c-0.5,0-0.7-0.1-0.7-0.3c0-0.1,0.1-0.3,0.3-0.4
	c0.2-0.1,0.4-0.3,0.4-0.5c0.1-0.2,0.1-0.9,0.1-2s0-1.7-0.1-2s-0.2-0.4-0.3-0.5c-0.3-0.2-0.4-0.3-0.4-0.4s0-0.2,0.1-0.2
	c0.3-0.2,0.8-0.3,1.4-0.3h0.1c0.3,0,0.4,0.1,0.6,0.4c0.1,0.3,0.2,0.4,0.3,0.4s0.2-0.1,0.4-0.2s0.4-0.3,0.6-0.4s0.5-0.2,0.8-0.2
	s0.5,0.1,0.7,0.2c0.2,0.1,0.2,0.3,0.2,0.6c0,0.2-0.1,0.4-0.2,0.5s-0.2,0.2-0.4,0.2s-0.3-0.1-0.5-0.2c-0.2-0.1-0.4-0.2-0.6-0.2
	s-0.3,0.1-0.5,0.2c-0.2,0.1-0.3,0.3-0.5,0.7c-0.1,0.3-0.2,0.9-0.2,1.6c0,0.8,0.1,1.3,0.2,1.5c0.1,0.2,0.3,0.4,0.5,0.6
	S14.3,60.2,14.3,60.4z M17.4,59.8c0,0,0-0.3,0.1-0.7s0.1-0.9,0.1-1.5v-2l0-0.3V54l0-0.3v-0.3l0-0.2c0-0.1,0-0.3,0-0.6
	c0-0.5-0.1-0.9-0.4-1s-0.4-0.3-0.4-0.4c0-0.1,0.1-0.2,0.2-0.2c0.3-0.2,0.8-0.2,1.5-0.2c0.3,0,0.4,0.2,0.5,0.5c0,0.2,0.1,0.8,0.1,1.9
	s0.1,1.6,0.3,1.6c0.1,0,0.3-0.1,0.7-0.2s0.7-0.2,1.1-0.2c0.8,0,1.4,0.3,1.9,0.9c0.5,0.6,0.7,1.3,0.7,2.2v0.2c0,0.4-0.1,0.9-0.2,1.3
	c-0.3,0.8-0.8,1.4-1.6,1.7c-0.4,0.2-0.8,0.3-1.2,0.3h-0.2c-0.2,0-0.4,0-0.8-0.1s-0.7-0.1-1.1-0.1l-0.6,0
	C17.6,60.5,17.4,60.3,17.4,59.8z M20.6,54.8h-0.2c-0.2,0-0.5,0.1-0.7,0.2c-0.2,0.1-0.4,0.3-0.5,0.5c-0.1,0.2-0.2,0.8-0.2,1.7v1.1
	c0,0.7,0.1,1.1,0.3,1.4c0.2,0.3,0.6,0.4,1.1,0.4h0.1c0.5,0,0.9-0.2,1.2-0.7c0.3-0.5,0.4-1,0.4-1.6l0-0.2v-0.5c0-0.7-0.1-1.2-0.4-1.7
	S21.1,54.8,20.6,54.8z M25.2,55.3c0-0.3,0.3-0.6,0.8-0.9c0.5-0.3,1.1-0.4,1.7-0.4c0,0,0,0,0.1,0c0.5,0,1,0.1,1.3,0.2
	c0.7,0.3,1,0.8,1.1,1.7c0,0.1,0,0.7,0,1.7c0,1.1,0,1.7,0.1,1.9c0.1,0.2,0.2,0.3,0.5,0.4c0.3,0.1,0.4,0.2,0.4,0.2
	c0,0.2-0.1,0.3-0.2,0.4c-0.3,0.2-0.7,0.3-1,0.3c-0.3,0-0.6-0.1-0.7-0.2c-0.3-0.3-0.4-0.4-0.4-0.4s-0.3,0.1-0.8,0.3
	c-0.5,0.2-0.9,0.3-1.3,0.3c-0.6,0-1-0.2-1.3-0.5s-0.5-0.7-0.5-1.1V59c0-0.5,0.2-0.9,0.6-1.3s1.1-0.6,2.2-0.8
	c0.4-0.1,0.6-0.1,0.7-0.2c0.2-0.1,0.3-0.4,0.3-0.8s-0.1-0.7-0.3-0.9s-0.5-0.3-0.8-0.3s-0.7,0.2-1,0.6C26.3,55.7,26,56,25.7,56
	C25.4,56,25.2,55.7,25.2,55.3z M28.6,57.5h-0.1c-0.6,0-1.1,0.1-1.5,0.4c-0.4,0.3-0.6,0.6-0.6,1V59c0,0.2,0.1,0.4,0.2,0.6
	c0.1,0.2,0.3,0.3,0.6,0.3l0.1,0h0.2c0.5,0,0.9-0.2,1.2-0.6c0.1-0.2,0.2-0.5,0.2-1c0,0,0-0.1,0-0.1l0-0.2v-0.2
	C28.8,57.6,28.7,57.5,28.6,57.5z M33.2,60.6c-0.6,0-1-0.1-1-0.3c0-0.2,0.1-0.3,0.3-0.4c0.3-0.2,0.5-0.3,0.5-0.5c0-0.1,0.1-0.8,0.1-2
	c0-1.2,0-1.9-0.1-2.1c-0.1-0.2-0.2-0.4-0.4-0.5s-0.3-0.2-0.3-0.3s0.1-0.2,0.2-0.2c0.3-0.2,0.7-0.3,1.4-0.3c0.2,0,0.3,0.1,0.4,0.2
	c0,0,0.1,0.1,0.2,0.3c0.1,0.2,0.1,0.2,0.1,0.2c0.1,0,0.2-0.1,0.4-0.2c0.6-0.4,1.2-0.6,1.7-0.6h0h0.2c0.4,0,0.7,0.1,1,0.3
	s0.5,0.5,0.7,0.8c0.2,0.4,0.2,1.2,0.2,2.4c0,1.2,0,1.9,0.1,2.1c0.1,0.1,0.2,0.3,0.4,0.4c0.2,0.1,0.4,0.2,0.4,0.4
	c0,0.2-0.6,0.3-1.9,0.3h-0.2c-0.4,0-0.6-0.1-0.6-0.3c0,0,0-0.1,0.2-0.3c0.1-0.2,0.2-0.3,0.2-0.5s0.1-0.8,0.1-1.9
	c0-1.1-0.1-1.8-0.2-2.1c-0.2-0.4-0.5-0.6-0.9-0.6c-0.3,0-0.6,0.1-0.9,0.2c-0.3,0.1-0.5,0.3-0.6,0.6c-0.1,0.3-0.2,0.9-0.2,1.9
	c0,1,0,1.6,0.1,1.8c0.1,0.2,0.1,0.4,0.2,0.5l0.3,0.4c0,0.2-0.4,0.3-1.1,0.3l-0.4,0H33.2z M3.9,68.6c-0.5,0-0.8,0.1-1.1,0.4
	c-0.3,0.2-0.4,0.6-0.4,1c0,0.4,0.2,0.8,0.7,1.2c0.3,0.2,0.8,0.5,1.6,0.8s1.4,0.7,1.7,1c0.6,0.6,0.9,1.2,0.9,1.8v0.2
	c0,0.8-0.3,1.4-0.9,1.8c-0.3,0.2-0.6,0.4-1,0.5c-0.4,0.1-0.8,0.2-1.2,0.2H3.8c-0.9,0-1.8-0.1-2.5-0.4C1,77,0.8,76.6,0.8,76v-0.2
	c0-0.7,0.1-1,0.3-1c0.2,0,0.4,0.2,0.6,0.6s0.6,0.8,0.9,1s0.8,0.3,1.3,0.3s0.9-0.1,1.2-0.4c0.3-0.3,0.5-0.6,0.5-1
	c0-0.5-0.3-1-0.8-1.4c-0.2-0.2-0.8-0.4-1.6-0.8c-0.9-0.4-1.5-0.8-1.8-1.1c-0.5-0.5-0.7-1.1-0.7-1.7s0.2-1.3,0.7-1.7
	c0.3-0.3,0.6-0.4,1-0.6c0.4-0.1,0.8-0.2,1.2-0.2h0.3c0.2,0,0.4,0,0.7,0.1l0.2,0C5.4,68,5.5,68,5.6,68l0.2,0l0.2,0
	c0.2,0,0.3,0,0.4,0.1c0.3,0.1,0.4,0.5,0.4,1.1s-0.1,1-0.4,1c-0.1,0-0.3-0.2-0.6-0.5S5.3,69.1,5.1,69C4.8,68.7,4.4,68.6,3.9,68.6z
	 M13.5,72.7c-0.2,0-0.5-0.2-0.8-0.6s-0.7-0.6-1.2-0.6s-0.8,0.2-1.1,0.7c-0.3,0.4-0.5,1.1-0.5,1.9s0.2,1.4,0.6,1.9
	c0.4,0.5,0.9,0.7,1.5,0.7c0.3,0,0.6,0,0.8-0.1s0.4-0.2,0.6-0.3c0.2-0.1,0.3-0.1,0.4-0.1c0.1,0,0.2,0.1,0.2,0.3
	c0,0.3-0.3,0.5-0.8,0.8s-1.1,0.4-1.6,0.4c-1,0-1.8-0.3-2.4-0.9c-0.2-0.3-0.4-0.6-0.6-1c-0.2-0.4-0.2-0.8-0.2-1.3v-0.3c0,0,0,0,0,0
	c0,0,0,0,0,0c0-0.4,0.1-0.8,0.3-1.2c0.4-0.8,0.9-1.4,1.7-1.7c0.5-0.2,0.9-0.3,1.3-0.3h0.2c0.6,0,1.1,0.1,1.6,0.3
	c0.3,0.2,0.5,0.5,0.5,0.9c0,0.3-0.1,0.5-0.2,0.6C13.7,72.7,13.6,72.7,13.5,72.7z M15.5,71.7c-0.2-0.1-0.4-0.2-0.4-0.3s0-0.2,0.1-0.2
	c0.3-0.2,0.9-0.3,1.6-0.3h0.2c0.2,0,0.4,0.1,0.4,0.3c0,0.1,0,1,0,2.5c0,1.5,0,2.4,0.1,2.6c0.1,0.2,0.2,0.4,0.5,0.5
	c0.2,0.1,0.4,0.2,0.4,0.4c0,0.2-0.6,0.3-1.7,0.3l-0.2,0h-0.8c-0.3,0-0.5-0.1-0.5-0.2c0-0.1,0.1-0.3,0.3-0.4s0.3-0.3,0.4-0.4
	c0.1-0.2,0.1-0.6,0.1-1.2l0-0.2v-0.2l0-0.3v-0.2l0-0.2c0-1.1,0-1.7-0.1-1.9C15.9,72,15.7,71.8,15.5,71.7z M17.7,68.7
	c0,0.2-0.1,0.4-0.3,0.6c-0.2,0.2-0.3,0.3-0.5,0.3c0,0-0.1,0-0.1,0l-0.2,0c-0.2,0-0.4-0.1-0.6-0.2s-0.3-0.3-0.3-0.6v-0.1
	c0-0.2,0.1-0.4,0.3-0.6c0.2-0.2,0.4-0.2,0.7-0.2h0l0.2,0c0.1,0,0.3,0.1,0.4,0.2c0.2,0.2,0.2,0.3,0.2,0.5l0,0.1V68.7z M21,74.8
	c0,0.5,0.2,1,0.6,1.3s0.9,0.5,1.5,0.5c0.2,0,0.5,0,0.7-0.1c0.2-0.1,0.4-0.2,0.7-0.3c0.2-0.1,0.4-0.2,0.4-0.2c0.2,0,0.3,0.1,0.3,0.3
	c0,0.3-0.3,0.5-1,0.8c-0.4,0.2-0.9,0.3-1.4,0.3h-0.2c-0.9,0-1.6-0.3-2.1-0.8c-0.3-0.3-0.5-0.6-0.7-1.1c-0.2-0.4-0.3-0.9-0.3-1.4
	l0-0.2V74c0-0.4,0.1-0.9,0.3-1.3c0.2-0.4,0.4-0.8,0.7-1c0.6-0.6,1.3-0.9,2.1-0.9c1.2,0,2.1,0.5,2.5,1.4c0.1,0.3,0.2,0.6,0.2,0.8v0.1
	c0,0.3-0.1,0.5-0.4,0.6C24.6,73.9,24,74,23,74.1s-1.5,0.1-1.6,0.1C21.2,74.3,21,74.5,21,74.8z M23.8,73v-0.2c0-0.3-0.1-0.6-0.4-0.9
	c-0.2-0.3-0.5-0.4-0.9-0.4h-0.1c-0.1,0-0.1,0-0.1,0c-0.3,0-0.6,0.2-0.9,0.5c-0.3,0.4-0.4,0.8-0.4,1.2v0.1c0,0.1,0.1,0.2,0.3,0.2
	c0.1,0,0.1,0,0.1,0l0.2,0h0l0,0l1.3-0.1l0.2,0C23.6,73.4,23.8,73.3,23.8,73z M27.5,77.4c-0.6,0-1-0.1-1-0.3c0-0.2,0.1-0.3,0.3-0.4
	c0.3-0.2,0.5-0.3,0.5-0.5c0-0.1,0.1-0.8,0.1-2c0-1.2,0-1.9-0.1-2.1c-0.1-0.2-0.2-0.4-0.4-0.5s-0.3-0.2-0.3-0.3s0.1-0.2,0.2-0.2
	c0.3-0.2,0.7-0.3,1.4-0.3c0.2,0,0.3,0.1,0.4,0.2c0,0,0.1,0.1,0.2,0.3c0.1,0.2,0.1,0.2,0.1,0.2c0.1,0,0.2-0.1,0.4-0.2
	c0.6-0.4,1.2-0.6,1.7-0.6h0h0.2c0.4,0,0.7,0.1,1,0.3s0.5,0.5,0.7,0.8c0.2,0.4,0.2,1.2,0.2,2.4c0,1.2,0,1.9,0.1,2.1
	c0.1,0.1,0.2,0.3,0.4,0.4c0.2,0.1,0.4,0.2,0.4,0.4c0,0.2-0.6,0.3-1.9,0.3h-0.2c-0.4,0-0.6-0.1-0.6-0.3c0,0,0-0.1,0.2-0.3
	c0.1-0.2,0.2-0.3,0.2-0.5s0.1-0.8,0.1-1.9c0-1.1-0.1-1.8-0.2-2.1c-0.2-0.4-0.5-0.6-0.9-0.6c-0.3,0-0.6,0.1-0.9,0.2
	c-0.3,0.1-0.5,0.3-0.6,0.6c-0.1,0.3-0.2,0.9-0.2,1.9c0,1,0,1.6,0.1,1.8c0.1,0.2,0.1,0.4,0.2,0.5l0.3,0.4c0,0.2-0.4,0.3-1.1,0.3
	l-0.4,0H27.5z M40,72.7c-0.2,0-0.5-0.2-0.8-0.6c-0.3-0.4-0.7-0.6-1.2-0.6c-0.4,0-0.8,0.2-1.1,0.7c-0.3,0.4-0.5,1.1-0.5,1.9
	s0.2,1.4,0.6,1.9c0.4,0.5,0.9,0.7,1.5,0.7c0.3,0,0.6,0,0.8-0.1c0.2-0.1,0.4-0.2,0.6-0.3c0.2-0.1,0.3-0.1,0.4-0.1
	c0.1,0,0.2,0.1,0.2,0.3c0,0.3-0.3,0.5-0.8,0.8s-1.1,0.4-1.6,0.4c-1,0-1.8-0.3-2.4-0.9c-0.2-0.3-0.4-0.6-0.6-1
	c-0.2-0.4-0.2-0.8-0.2-1.3v-0.3c0,0,0,0,0,0c0,0,0,0,0,0c0-0.4,0.1-0.8,0.3-1.2c0.4-0.8,0.9-1.4,1.7-1.7c0.5-0.2,0.9-0.3,1.3-0.3
	h0.2c0.6,0,1.1,0.1,1.6,0.3c0.3,0.2,0.5,0.5,0.5,0.9c0,0.3-0.1,0.5-0.2,0.6C40.3,72.7,40.2,72.7,40,72.7z M43.2,74.8
	c0,0.5,0.2,1,0.6,1.3s0.9,0.5,1.5,0.5c0.2,0,0.5,0,0.7-0.1c0.2-0.1,0.4-0.2,0.7-0.3c0.2-0.1,0.4-0.2,0.4-0.2c0.2,0,0.3,0.1,0.3,0.3
	c0,0.3-0.3,0.5-1,0.8c-0.4,0.2-0.9,0.3-1.4,0.3h-0.2c-0.9,0-1.6-0.3-2.1-0.8c-0.3-0.3-0.5-0.6-0.7-1.1c-0.2-0.4-0.3-0.9-0.3-1.4
	l0-0.2V74c0-0.4,0.1-0.9,0.3-1.3c0.2-0.4,0.4-0.8,0.7-1c0.6-0.6,1.3-0.9,2.1-0.9c1.2,0,2.1,0.5,2.5,1.4c0.1,0.3,0.2,0.6,0.2,0.8v0.1
	c0,0.3-0.1,0.5-0.4,0.6c-0.3,0.1-0.9,0.2-1.8,0.3s-1.5,0.1-1.6,0.1C43.3,74.3,43.2,74.5,43.2,74.8z M46,73v-0.2
	c0-0.3-0.1-0.6-0.4-0.9c-0.2-0.3-0.5-0.4-0.9-0.4h-0.1c-0.1,0-0.1,0-0.1,0c-0.3,0-0.6,0.2-0.9,0.5c-0.3,0.4-0.4,0.8-0.4,1.2v0.1
	c0,0.1,0.1,0.2,0.3,0.2c0.1,0,0.1,0,0.1,0l0.2,0h0l0,0l1.3-0.1l0.2,0C45.8,73.4,46,73.3,46,73z"/>
</svg>
