<?xml version="1.0" encoding="utf-8"?>
<!-- Generator: Adobe Illustrator 20.1.0, SVG Export Plug-In . SVG Version: 6.00 Build 0)  -->
<svg version="1.1" id="レイヤー_1" xmlns="http://www.w3.org/2000/svg" xmlns:xlink="http://www.w3.org/1999/xlink" x="0px"
	 y="0px" viewBox="0 0 80 78" style="enable-background:new 0 0 80 78;" xml:space="preserve">
<title></title>
<g id="icomoon-ignore">
</g>
<g>
	<g>
		<path d="M5.7,18.4H5.3c-1.8,0-3.1,0.1-4.1,0.2c-0.3,0.1-0.5,0.2-0.5,0.4c0,0,0,0.1,0.1,0.3s0.1,0.4,0.1,0.5c0,0.2,0,0.7,0,1.6
			c0,0.9-0.1,2.3-0.2,4.1c0,0.3-0.1,0.5-0.2,0.8c-0.1,0.4-0.1,0.6-0.1,0.7v0.2c0,0.2,0.1,0.4,0.2,0.5s0.4,0.2,0.7,0.2
			s0.6-0.1,0.7-0.2c0.2-0.1,0.2-0.3,0.2-0.4v-0.8c0-0.9,0.1-1.6,0.4-2c0.1-0.2,0.3-0.3,0.6-0.4c0.3-0.1,0.6-0.2,0.9-0.2L4.9,24
			c0.4,0,0.6-0.2,0.6-0.6c0-0.3-0.1-0.5-0.2-0.7c-0.1-0.2-0.3-0.2-0.5-0.2s-0.4,0-0.6,0.1c-0.2,0.1-0.4,0.1-0.6,0.1
			c-0.5,0-0.8-0.1-0.9-0.2c-0.1-0.1-0.2-0.4-0.2-0.8c0-0.8,0.1-1.4,0.3-1.6C3,19.8,3.4,19.7,4,19.7c0.6,0,1,0,1.2,0.1
			c0.2,0,0.4,0.1,0.6,0.1C6,20,6.2,20,6.2,20c0.3,0,0.5-0.2,0.5-0.5v-0.2c0-0.3-0.1-0.4-0.2-0.5C6.3,18.4,6,18.4,5.7,18.4z
			 M13.1,26.4c0-0.1,0-0.7,0-1.6c0-1,0-1.5,0-1.6c0-0.5-0.2-0.8-0.3-1.1c-0.2-0.3-0.5-0.5-0.8-0.7c-0.4-0.2-0.8-0.3-1.2-0.3h-0.3
			c-0.5,0-1,0.1-1.5,0.3s-0.7,0.5-0.7,0.8c0,0.4,0.2,0.6,0.5,0.6c0.1,0,0.4-0.1,0.9-0.3s0.8-0.3,1.1-0.3s0.5,0.1,0.7,0.3
			c0.2,0.2,0.3,0.4,0.3,0.7s-0.1,0.5-0.4,0.6c-0.1,0.1-0.4,0.1-0.8,0.2c-0.4,0.1-0.7,0.1-0.8,0.1c-0.6,0.1-1,0.4-1.4,0.7
			s-0.6,0.8-0.6,1.4c0,0.6,0.2,1.1,0.5,1.4c0.4,0.3,0.8,0.5,1.3,0.5h0.2c0.3,0,0.7-0.1,1.1-0.2c0.4-0.2,0.7-0.2,0.7-0.2
			c0.1,0,0.3,0.1,0.6,0.2c0.3,0.1,0.5,0.2,0.8,0.2c0.2,0,0.4,0,0.5-0.1s0.2-0.2,0.2-0.3s-0.1-0.3-0.2-0.5
			C13.2,26.7,13.1,26.6,13.1,26.4z M11.7,25.5v0.2v0.1v0.1c0,0.3-0.1,0.6-0.4,0.9c-0.3,0.3-0.6,0.4-1,0.4h-0.2
			c-0.3,0-0.5-0.1-0.7-0.3s-0.3-0.4-0.3-0.7v-0.1c0-0.4,0.1-0.6,0.3-0.8c0.3-0.3,0.7-0.4,1-0.4c0.1,0,0.1,0,0.3,0H11l0,0h0.3
			c0.3,0,0.4,0.1,0.4,0.4C11.7,25.3,11.7,25.5,11.7,25.5z M17.9,28.1c0.5,0,1-0.1,1.5-0.4c0.5-0.3,0.8-0.5,0.8-0.8
			c0-0.2-0.1-0.3-0.3-0.3c-0.1,0-0.3,0.1-0.8,0.2c-0.4,0.1-0.7,0.2-1,0.2c-0.6,0-1-0.2-1.3-0.5c-0.3-0.4-0.5-0.9-0.5-1.7
			c0-0.7,0.2-1.4,0.5-1.8c0.3-0.5,0.7-0.7,1.3-0.7l0,0c0.2,0,0.6,0.1,0.9,0.3c0.4,0.2,0.6,0.3,0.7,0.3c0.3,0,0.5-0.2,0.5-0.5
			s-0.2-0.6-0.5-0.8c-0.3-0.3-0.8-0.4-1.3-0.4h-0.2c-0.5,0-1,0.1-1.4,0.3c-0.7,0.3-1.2,0.9-1.6,1.8c-0.2,0.4-0.3,1-0.3,1.5v0.3
			c0,0.5,0.1,0.9,0.3,1.3C15.7,27.5,16.6,28.1,17.9,28.1z M27.7,25.5c0-0.5,0-0.9,0-1.2v-1.6v-0.4c0-0.3,0-0.5-0.1-0.6
			c-0.1-0.1-0.3-0.2-0.5-0.2c-0.3,0-0.5,0.1-0.6,0.2c-0.1,0.1-0.2,0.3-0.2,0.5v0.3v0.3c0,1.6-0.1,2.6-0.4,3.2
			c-0.1,0.3-0.3,0.5-0.6,0.7C25,26.9,24.8,27,24.5,27c-0.8,0-1.1-0.5-1.1-1.6l0.1-2.3c0-0.7-0.1-1.1-0.2-1.4
			c-0.1-0.2-0.3-0.4-0.6-0.4h-0.2c-0.5,0-0.7,0.1-0.7,0.4c0,0.1,0,0.2,0.1,0.5c0.1,0.2,0.1,0.5,0.1,0.7L21.9,25c0,1,0.2,1.8,0.5,2.2
			s0.8,0.6,1.4,0.6H24c0.4,0,0.9-0.1,1.5-0.4c0.2-0.1,0.3-0.2,0.4-0.2s0.2,0.1,0.4,0.2c0.2,0.2,0.4,0.2,0.6,0.2
			c0.6,0,0.9-0.2,0.9-0.6c0,0,0-0.2-0.1-0.4C27.7,26.5,27.7,26.1,27.7,25.5z M31.6,26.1c-0.1-0.3-0.1-0.8-0.1-1.4
			c0-0.7,0-1.7,0.1-3.1v-0.4v-0.3c0-0.2,0-0.3,0-0.5v-0.3c0,0,0-0.1,0-0.3l0.1-1c0-0.4,0-0.6-0.1-0.7c-0.1-0.1-0.3-0.2-0.5-0.2H31
			c-0.6,0-0.9,0.2-0.9,0.5c0,0.1,0,0.3,0.1,0.5s0.1,0.6,0.1,1v0.5v0.5c0,0.1,0,0.7-0.1,1.9c-0.1,1.2-0.1,1.9-0.1,2.3
			c0,0.4,0,0.6-0.1,0.8c0,0.2,0,0.5-0.1,0.9v0.3v0.2c0,0.2,0.1,0.3,0.2,0.4c0.2,0.1,0.3,0.2,0.6,0.2h0.4c0.3,0,0.6-0.1,0.8-0.2
			c0.2-0.1,0.3-0.3,0.3-0.5v0c0-0.1-0.1-0.2-0.2-0.4C31.7,26.6,31.6,26.4,31.6,26.1z M36.9,21.2c-0.3-0.1-0.6-0.2-0.7-0.3
			S36,20.6,36,20.2c-0.1-0.4-0.1-0.6-0.1-0.6c-0.1-0.2-0.2-0.2-0.4-0.2h-0.1c-0.2,0-0.4,0.2-0.5,0.5c0,0.1-0.1,0.3-0.2,0.6
			s-0.2,0.5-0.3,0.6c-0.4,0.4-0.7,0.7-0.7,0.7c0,0.1,0.1,0.2,0.3,0.4c0.2,0.2,0.3,0.4,0.3,0.6s0.1,0.9,0.1,2.1s0.1,2,0.3,2.3
			c0.3,0.5,0.8,0.8,1.5,0.8c0.4,0,0.7-0.1,0.9-0.2c0.2-0.1,0.3-0.3,0.3-0.5s-0.2-0.3-0.6-0.4c-0.4-0.1-0.6-0.1-0.7-0.3
			c-0.2-0.2-0.3-0.6-0.3-1.2c0-1.2,0.1-2.1,0.3-2.7c0.1-0.3,0.4-0.5,0.8-0.6c0.4-0.1,0.6-0.3,0.6-0.5v-0.1
			C37.4,21.4,37.3,21.3,36.9,21.2z M44.3,21.3c-0.4,0-0.7,0.1-0.8,0.4c0,0.1-0.1,0.4-0.2,0.9s-0.2,1.1-0.5,1.9
			c-0.4,1.1-0.7,1.7-1,1.7c-0.2-0.1-0.5-1.3-1.2-3.6c-0.1-0.4-0.1-0.6-0.1-0.6c-0.1-0.3-0.4-0.4-0.7-0.4c-0.3,0-0.6,0.1-0.7,0.2
			c-0.1,0.1-0.2,0.2-0.2,0.3c0,0.3,0.4,1.3,1.1,3c0.2,0.5,0.5,1.1,0.8,1.7s0.5,1,0.5,1.2c0,0.4-0.2,0.9-0.5,1.3
			c-0.2,0.2-0.5,0.4-0.9,0.6c-0.4,0.2-0.6,0.4-0.6,0.6c0,0.2,0.2,0.4,0.6,0.4s0.8-0.2,1.2-0.6c0.4-0.4,0.8-0.9,1.2-1.6
			c0.4-0.7,1-2.2,1.8-4.7c0.1-0.4,0.3-0.8,0.5-1.2c0.2-0.4,0.2-0.7,0.2-0.9C44.9,21.5,44.7,21.3,44.3,21.3z M2.7,44.1h0.2
			c0.4,0,0.9-0.1,1.3-0.3c0.8-0.4,1.4-1,1.7-2c0.1-0.5,0.2-0.9,0.2-1.4v-0.1c0-1.4-0.5-2.4-1.6-2.9c-0.3-0.2-0.7-0.2-1.1-0.2H3.1
			c-0.4,0-0.7,0.1-1.1,0.2c-0.4,0.2-0.8,0.4-1.1,0.8C0.3,38.8,0,39.7,0,40.9V41c0,1,0.3,1.8,0.8,2.4C1.2,43.8,1.9,44.1,2.7,44.1z
			 M1.4,40.7v-0.2c0-0.7,0.2-1.2,0.5-1.7s0.7-0.7,1.2-0.7h0.1c0.4,0,0.8,0.2,1,0.6c0.3,0.4,0.4,0.9,0.4,1.5v0.5
			c0,0.8-0.2,1.4-0.5,1.9s-0.7,0.7-1.2,0.7H2.7c-0.4,0-0.7-0.2-1-0.6c-0.2-0.5-0.3-1-0.3-1.6V40.7z M7.9,43.1
			c-0.1,0.3-0.2,0.5-0.2,0.7s0.1,0.3,0.2,0.5c0.2,0.1,0.3,0.2,0.6,0.2h0.2c0.3,0,0.6-0.1,0.8-0.3s0.3-0.4,0.3-0.7l-0.1-1.2
			c0-1.3,0.1-2.4,0.4-3.2c0.1-0.4,0.3-0.6,0.6-0.8c0.4-0.2,0.6-0.4,0.6-0.5c0-0.2-0.2-0.4-0.5-0.5c-0.3-0.2-0.5-0.3-0.6-0.3
			c-0.1-0.2-0.2-0.4-0.2-0.7s0.1-0.6,0.3-0.9c0.2-0.3,0.4-0.4,0.7-0.4c0.1,0,0.3,0,0.5,0c0.1,0,0.2,0,0.3,0s0.2,0,0.3,0
			c0.2-0.1,0.4-0.2,0.4-0.4s-0.1-0.4-0.3-0.5s-0.5-0.2-0.9-0.2c-0.8,0-1.4,0.3-1.9,0.8c0,0-0.3,0.7-1,2c-0.1,0.1-0.2,0.3-0.3,0.5
			c-0.2,0.2-0.2,0.4-0.2,0.6c0,0.1,0.1,0.3,0.2,0.5c0.1,0.2,0.2,0.3,0.2,0.4c0.1,0.2,0.1,0.7,0.1,1.5s0,1.4-0.1,1.8
			C8.1,42.5,8.1,42.8,7.9,43.1z M6.2,58.4c-0.1,0-0.3,0-0.6,0.1c-0.2,0.1-0.4,0.2-0.5,0.2c-0.4,0.1-0.9,0.2-1.5,0.2s-1-0.1-1.1-0.2
			c-0.2-0.1-0.2-0.6-0.2-1.3v-0.5v-0.3c0-1.3,0.1-2.6,0.2-4c0-0.4,0.1-0.7,0.2-0.9c0.1-0.3,0.2-0.5,0.2-0.6c0-0.2-0.1-0.3-0.3-0.4
			c-0.2-0.1-0.5-0.2-0.8-0.2H1.4c-0.3,0-0.5,0.1-0.6,0.2c-0.1,0.1-0.2,0.3-0.2,0.4c0,0.1,0.1,0.3,0.2,0.6C0.9,52,1,52.2,1,52.5v0.6
			v0.3c0,1.6,0,2.8-0.1,3.7s-0.2,1.5-0.2,1.6S0.6,59,0.5,59.1c-0.1,0.1-0.1,0.3-0.1,0.3c0,0.4,0.3,0.6,1,0.6c0.3,0,0.5,0,0.6,0h2.1
			h0.2h1c0.5,0,0.9-0.1,1.1-0.2c0.2-0.1,0.3-0.4,0.3-0.9C6.6,58.5,6.4,58.4,6.2,58.4z M13.1,58.4c0-0.1,0-0.7,0-1.6c0-1,0-1.5,0-1.6
			c0-0.5-0.2-0.8-0.3-1.1c-0.2-0.3-0.5-0.5-0.8-0.7c-0.4-0.2-0.8-0.3-1.2-0.3h-0.3c-0.5,0-1,0.1-1.5,0.3s-0.7,0.5-0.7,0.8
			c0,0.4,0.2,0.6,0.5,0.6c0.1,0,0.4-0.1,0.9-0.3s0.8-0.3,1.1-0.3s0.5,0.1,0.7,0.3s0.3,0.4,0.3,0.7s-0.1,0.5-0.4,0.6
			c-0.1,0.1-0.4,0.1-0.8,0.2c-0.4,0.1-0.7,0.1-0.8,0.1c-0.6,0.1-1,0.4-1.4,0.7s-0.6,0.8-0.6,1.4s0.2,1.1,0.5,1.4
			c0.4,0.3,0.8,0.5,1.3,0.5h0.2c0.3,0,0.7-0.1,1.1-0.2c0.4-0.2,0.7-0.2,0.7-0.2c0.1,0,0.3,0.1,0.6,0.2s0.5,0.2,0.8,0.2
			c0.2,0,0.4,0,0.5-0.1s0.2-0.2,0.2-0.3s-0.1-0.3-0.2-0.5C13.2,58.7,13.1,58.6,13.1,58.4z M11.7,57.5v0.2v0.1v0.1
			c0,0.3-0.1,0.6-0.4,0.9c-0.3,0.3-0.6,0.4-1,0.4h-0.2c-0.3,0-0.5-0.1-0.7-0.3c-0.2-0.2-0.3-0.4-0.3-0.7v-0.1c0-0.4,0.1-0.6,0.3-0.8
			c0.3-0.3,0.7-0.4,1-0.4c0.1,0,0.1,0,0.3,0H11l0,0h0.3c0.3,0,0.4,0.1,0.4,0.4C11.7,57.3,11.7,57.5,11.7,57.5z M23.8,53.5
			c-0.4,0-0.6,0.2-0.8,0.5c-0.1,0.1-0.1,0.4-0.3,0.9c-0.1,0.5-0.3,1-0.4,1.3c-0.4,1.1-0.7,1.7-0.8,1.7s-0.3-0.5-0.6-1.6
			c-0.1-0.4-0.2-0.8-0.2-1.3c-0.1-0.4-0.1-0.7-0.2-0.9c-0.2-0.4-0.4-0.6-0.9-0.6c-0.4,0-0.7,0.2-0.8,0.5l-0.1,0.2
			c0,0.1,0,0.3-0.1,0.7c0,0.4-0.1,0.8-0.3,1.3c-0.3,1.2-0.6,1.7-0.8,1.7c-0.2-0.1-0.5-1.1-1-3c-0.1-0.5-0.2-0.8-0.2-1
			c-0.2-0.4-0.5-0.5-0.9-0.5c-0.1,0-0.2,0.1-0.3,0.2c-0.1,0.1-0.2,0.3-0.2,0.5s0.1,0.7,0.3,1.3c0.2,0.7,0.4,1.4,0.6,2.1
			c0.2,0.7,0.3,1.1,0.3,1.2c0.1,0.3,0.3,0.5,0.4,0.6c0.2,0.1,0.4,0.2,0.5,0.2c0.3,0,0.5-0.2,0.8-0.7c0.2-0.3,0.4-0.8,0.8-1.6
			c0.4-0.8,0.6-1.2,0.6-1.2s0.2,0.4,0.6,1.2c0.3,0.8,0.6,1.4,0.7,1.6c0.2,0.4,0.5,0.6,0.8,0.6c0.2,0,0.3-0.1,0.5-0.2
			s0.3-0.3,0.4-0.5c0.1-0.2,0.4-1,0.8-2.4c0.5-1.4,0.7-2.2,0.7-2.4C24.1,53.7,24,53.5,23.8,53.5z"/>
	</g>
</g>
</svg>
