<?xml version="1.0" encoding="utf-8"?>
<!-- Generator: Adobe Illustrator 20.1.0, SVG Export Plug-In . SVG Version: 6.00 Build 0)  -->
<svg version="1.1" id="レイヤー_1" xmlns="http://www.w3.org/2000/svg" xmlns:xlink="http://www.w3.org/1999/xlink" x="0px"
	 y="0px" viewBox="0 0 80 78" style="enable-background:new 0 0 80 78;" xml:space="preserve">
<style type="text/css">
	.st0{fill:#0f84e1;}
</style>
<title></title>
<g id="icomoon-ignore">
</g>
<g>
	<g>
		<path class="st0" d="M1.4,10.3c0.3,0,0.6-0.1,0.7-0.2C2.3,10,2.3,9.8,2.3,9.7V8.9c0-0.9,0.1-1.6,0.4-2C2.8,6.7,3,6.6,3.3,6.5
			s0.6-0.2,0.9-0.2L5,6.4c0.4,0,0.6-0.2,0.6-0.6c0-0.3-0.1-0.5-0.2-0.7C5.3,4.9,5.1,4.9,4.9,4.9S4.5,4.9,4.3,5S3.9,5.1,3.7,5.1
			C3.2,5.1,2.9,5,2.8,4.9C2.7,4.8,2.6,4.5,2.6,4.1c0-0.8,0.1-1.4,0.3-1.6c0.2-0.3,0.6-0.4,1.2-0.4s1,0,1.2,0.1
			c0.2,0,0.4,0.1,0.6,0.1c0.2,0.1,0.4,0.1,0.4,0.1c0.3,0,0.5-0.2,0.5-0.5V1.5c0-0.3-0.1-0.4-0.2-0.5C6.5,0.9,6.2,0.9,5.9,0.9H5.5
			C3.7,0.9,2.4,1,1.4,1.1C1.1,1.2,0.9,1.3,0.9,1.5c0,0,0,0.1,0.1,0.3s0.1,0.4,0.1,0.5c0,0.2,0,0.7,0,1.6S1,6.2,0.9,8
			c0,0.3-0.1,0.5-0.2,0.8C0.5,9.2,0.5,9.4,0.5,9.5v0.2c0,0.2,0.1,0.4,0.2,0.5S1.1,10.3,1.4,10.3z M11.3,6.3
			c-0.1,0.1-0.4,0.1-0.8,0.2c-0.4,0.1-0.7,0.1-0.8,0.1C9.1,6.7,8.7,7,8.3,7.3S7.7,8.1,7.7,8.7s0.2,1.1,0.5,1.4
			c0.4,0.3,0.8,0.5,1.3,0.5h0.2c0.3,0,0.7-0.1,1.1-0.2c0.4-0.2,0.7-0.2,0.7-0.2c0.1,0,0.3,0.1,0.6,0.2s0.5,0.2,0.8,0.2
			c0.2,0,0.4,0,0.5-0.1s0.2-0.2,0.2-0.3s-0.1-0.3-0.2-0.5c-0.1-0.2-0.2-0.4-0.2-0.5s0-0.7,0-1.6c0-1,0-1.5,0-1.6
			c0-0.5-0.2-0.8-0.3-1.1c-0.2-0.3-0.5-0.5-0.8-0.7c-0.4-0.2-0.8-0.3-1.2-0.3h-0.3c-0.5,0-1,0.1-1.5,0.3C8.6,4.4,8.4,4.7,8.4,5
			c0,0.4,0.2,0.6,0.5,0.6c0.1,0,0.4-0.1,0.9-0.3S10.6,5,10.9,5s0.5,0.1,0.7,0.3s0.3,0.4,0.3,0.7C11.7,5.9,11.6,6.2,11.3,6.3z
			 M11.8,7.6V8v0.2v0.1v0.1c0,0.3-0.1,0.6-0.4,0.9c-0.3,0.3-0.6,0.4-1,0.4h-0.2c-0.3,0-0.5-0.1-0.7-0.3C9.3,9.2,9.2,9,9.2,8.7V8.6
			c0-0.4,0.1-0.6,0.3-0.8c0.3-0.3,0.7-0.4,1-0.4c0.1,0,0.1,0,0.3,0h0.3l0,0h0.3C11.6,7.2,11.8,7.3,11.8,7.6z M18,10.6
			c0.5,0,1-0.1,1.5-0.4s0.8-0.5,0.8-0.8c0-0.2-0.1-0.3-0.3-0.3c-0.1,0-0.3,0.1-0.8,0.2c-0.4,0.1-0.7,0.2-1,0.2c-0.6,0-1-0.2-1.3-0.5
			c-0.3-0.4-0.5-0.9-0.5-1.7c0-0.7,0.2-1.4,0.5-1.8c0.3-0.5,0.7-0.7,1.3-0.7l0,0c0.2,0,0.6,0.1,0.9,0.3c0.4,0.2,0.6,0.3,0.7,0.3
			c0.3,0,0.5-0.2,0.5-0.5s-0.2-0.6-0.5-0.8c-0.3-0.3-0.8-0.4-1.3-0.4h-0.2c-0.5,0-1,0.1-1.4,0.3c-0.7,0.3-1.2,0.9-1.6,1.8
			c-0.2,0.4-0.3,1-0.3,1.5v0.3c0,0.5,0.1,0.9,0.3,1.3C15.8,10,16.7,10.6,18,10.6z M22.1,5.5L22,7.6c0,1,0.2,1.8,0.5,2.2
			c0.3,0.4,0.8,0.6,1.4,0.6h0.2c0.4,0,0.9-0.1,1.5-0.4c0.2-0.1,0.3-0.2,0.4-0.2s0.2,0.1,0.4,0.2c0.2,0.2,0.4,0.2,0.6,0.2
			c0.6,0,0.9-0.2,0.9-0.6c0,0,0-0.2-0.1-0.4c0-0.2-0.1-0.6-0.1-1.2c0-0.5,0-0.9,0-1.2V5.2V4.8c0-0.3,0-0.5-0.1-0.6S27.3,4,27.1,4
			c-0.3,0-0.5,0.1-0.6,0.2s-0.2,0.3-0.2,0.5V5v0.3c0,1.6-0.1,2.6-0.4,3.2c-0.1,0.3-0.3,0.5-0.6,0.7c-0.3,0.2-0.5,0.3-0.8,0.3
			c-0.8,0-1.1-0.5-1.1-1.6l0.1-2.3c0-0.7-0.1-1.1-0.2-1.4C23.2,4,23,3.8,22.7,3.8h-0.2c-0.5,0-0.7,0.1-0.7,0.4c0,0.1,0,0.2,0.1,0.5
			C22.1,5,22.1,5.3,22.1,5.5z M30.7,10.5h0.4c0.3,0,0.6-0.1,0.8-0.2c0.2-0.1,0.3-0.3,0.3-0.5V9.7c0-0.1-0.1-0.2-0.2-0.4
			c-0.1-0.2-0.2-0.4-0.3-0.7c-0.1-0.3-0.1-0.8-0.1-1.4c0-0.7,0-1.7,0.1-3.1V3.7V3.4c0-0.2,0-0.3,0-0.5V2.6c0,0,0-0.1,0-0.3l0.1-1
			c0-0.4,0-0.6-0.1-0.7s-0.3-0.2-0.5-0.2h-0.1c-0.6,0-0.9,0.2-0.9,0.5c0,0.1,0,0.3,0.1,0.5s0.1,0.6,0.1,1v0.5v0.5
			c0,0.1,0,0.7-0.1,1.9s-0.1,1.9-0.1,2.3c0,0.4,0,0.6-0.1,0.8c0,0.2,0,0.5-0.1,0.9v0.3v0.2c0,0.2,0.1,0.3,0.2,0.4
			C30.3,10.4,30.5,10.5,30.7,10.5z M34.4,5.3c0,0.2,0.1,0.9,0.1,2.1s0.1,2,0.3,2.3c0.3,0.5,0.8,0.8,1.5,0.8c0.4,0,0.7-0.1,0.9-0.2
			s0.3-0.3,0.3-0.5s-0.2-0.3-0.6-0.4c-0.4-0.1-0.6-0.1-0.7-0.3c-0.2-0.2-0.3-0.6-0.3-1.2c0-1.2,0.1-2.1,0.3-2.7
			c0.1-0.3,0.4-0.5,0.8-0.6s0.6-0.3,0.6-0.5V4c0-0.1-0.2-0.3-0.5-0.4c-0.3-0.1-0.6-0.2-0.7-0.3c-0.1-0.1-0.2-0.3-0.2-0.7
			C36.1,2.2,36.1,2,36.1,2c-0.1-0.2-0.2-0.2-0.4-0.2h-0.1c-0.2,0-0.4,0.2-0.5,0.5c0,0.1-0.1,0.3-0.2,0.6c-0.1,0.3-0.2,0.5-0.3,0.6
			c-0.4,0.4-0.7,0.7-0.7,0.7c0,0.1,0.1,0.2,0.3,0.4C34.2,4.9,34.3,5.1,34.4,5.3z M40.9,9.2c0.3,0.6,0.5,1,0.5,1.2
			c0,0.4-0.2,0.9-0.5,1.3c-0.2,0.2-0.5,0.4-0.9,0.6s-0.6,0.4-0.6,0.6s0.2,0.4,0.6,0.4s0.8-0.2,1.2-0.6c0.4-0.4,0.8-0.9,1.2-1.6
			c0.4-0.7,1-2.2,1.8-4.7c0.1-0.4,0.3-0.8,0.5-1.2s0.2-0.7,0.2-0.9c0-0.3-0.2-0.5-0.6-0.5s-0.7,0.1-0.8,0.4c0,0.1-0.1,0.4-0.2,0.9
			S43.1,6.2,42.8,7c-0.4,1.1-0.7,1.7-1,1.7c-0.2-0.1-0.5-1.3-1.2-3.6c-0.1-0.4-0.1-0.6-0.1-0.6c-0.1-0.3-0.4-0.4-0.7-0.4
			s-0.6,0.1-0.7,0.2c-0.1,0.1-0.2,0.2-0.2,0.3c0,0.3,0.4,1.3,1.1,3C40.3,8.1,40.6,8.6,40.9,9.2z M2.8,26.6H3c0.4,0,0.9-0.1,1.3-0.3
			c0.8-0.4,1.4-1,1.7-2c0.1-0.5,0.2-0.9,0.2-1.4v-0.1c0-1.4-0.5-2.4-1.6-2.9c-0.3-0.2-0.7-0.2-1.1-0.2H3.2c-0.4,0-0.7,0.1-1.1,0.2
			c-0.4,0.2-0.8,0.4-1.1,0.8c-0.6,0.6-0.9,1.5-0.9,2.7v0.1c0,1,0.3,1.8,0.8,2.4C1.3,26.3,2,26.6,2.8,26.6z M1.5,23.2V23
			c0-0.7,0.2-1.2,0.5-1.7s0.7-0.7,1.2-0.7h0.1c0.4,0,0.8,0.2,1,0.6c0.2,0.4,0.4,0.9,0.4,1.5v0.5c0,0.8-0.2,1.4-0.5,1.9
			S3.5,25.8,3,25.8H2.8c-0.4,0-0.7-0.2-1-0.6c-0.2-0.5-0.3-1-0.3-1.6V23.2z M8,25.6c-0.1,0.3-0.2,0.5-0.2,0.7s0.1,0.3,0.2,0.5
			C8.2,26.9,8.3,27,8.6,27h0.2c0.3,0,0.6-0.1,0.8-0.3s0.3-0.4,0.3-0.7l-0.1-1.2c0-1.3,0.1-2.4,0.4-3.2c0.1-0.4,0.3-0.6,0.6-0.8
			c0.4-0.2,0.6-0.4,0.6-0.5c0-0.2-0.2-0.4-0.5-0.5c-0.3-0.2-0.5-0.3-0.6-0.3c-0.1-0.2-0.2-0.4-0.2-0.7s0.1-0.6,0.3-0.9
			s0.4-0.4,0.7-0.4c0.1,0,0.3,0,0.5,0c0.1,0,0.2,0,0.3,0s0.2,0,0.3,0c0.2-0.1,0.4-0.2,0.4-0.4c0-0.2-0.1-0.4-0.3-0.5
			s-0.5-0.2-0.9-0.2c-0.8,0-1.4,0.3-1.9,0.8c0,0-0.3,0.7-1,2c-0.1,0.1-0.2,0.3-0.3,0.5C8,19.9,8,20.1,8,20.3c0,0.1,0.1,0.3,0.2,0.5
			c0.1,0.2,0.2,0.3,0.2,0.4c0.1,0.2,0.1,0.7,0.1,1.5s0,1.4-0.1,1.8C8.2,25,8.2,25.3,8,25.6z M4.5,41.1c-0.3,0.2-0.7,0.4-1.2,0.4
			s-0.9-0.1-1.2-0.2c-0.3-0.1-0.6-0.3-0.9-0.6c-0.3-0.2-0.5-0.4-0.6-0.4s-0.2,0.1-0.3,0.2c-0.1,0.1-0.2,0.3-0.2,0.5s0.1,0.4,0.2,0.6
			c0.3,0.7,1.3,1,2.8,1c0.5,0,1-0.1,1.4-0.2c0.8-0.3,1.4-0.7,1.7-1.4c0.2-0.3,0.3-0.7,0.3-1.1v-0.2c0-0.6-0.2-1.1-0.7-1.6
			C5.5,37.8,4.9,37.4,4,37s-1.4-0.7-1.5-0.8C2.2,35.9,2,35.5,2,35.1s0.2-0.7,0.5-0.9s0.7-0.3,1.1-0.3s0.9,0.1,1.3,0.4
			c0.7,0.4,1,0.6,1.1,0.6s0.2-0.1,0.2-0.2c0.1-0.1,0.1-0.3,0.1-0.5c0-0.4-0.2-0.7-0.5-1c-0.4-0.2-1-0.4-1.9-0.4H3.7
			c-0.9,0-1.6,0.2-2.2,0.7s-0.9,1.1-0.9,1.9c0,0.6,0.2,1.2,0.6,1.6c0.3,0.3,0.9,0.7,1.6,1.1c0.8,0.4,1.3,0.6,1.5,0.8
			C4.8,39.3,5,39.7,5,40.1C5,40.5,4.9,40.9,4.5,41.1z M11.1,36.8L11.1,36.8c0.3,0,0.6,0.1,1,0.3s0.6,0.3,0.7,0.3
			c0.3,0,0.5-0.2,0.5-0.5s-0.2-0.6-0.5-0.8c-0.4-0.2-0.8-0.3-1.3-0.3h-0.2c-0.5,0-1,0.1-1.4,0.3c-0.7,0.3-1.2,0.9-1.6,1.8
			c-0.2,0.4-0.3,1-0.3,1.5v0.3c0,0.5,0.1,0.9,0.3,1.3c0.4,1.1,1.3,1.6,2.7,1.6c0.5,0,1-0.1,1.5-0.4c0.5-0.3,0.8-0.5,0.8-0.8
			c0-0.2-0.1-0.3-0.3-0.3c-0.1,0-0.3,0.1-0.8,0.2c-0.4,0.1-0.7,0.2-1,0.2c-0.6,0-1-0.2-1.3-0.5c-0.3-0.4-0.5-0.9-0.5-1.7
			c0-0.7,0.2-1.4,0.5-1.8C10.1,37,10.5,36.8,11.1,36.8z M15.7,42.4c0.4,0,0.7-0.1,0.9-0.2c0.2-0.1,0.3-0.3,0.3-0.5v-0.1
			c0-0.1-0.1-0.2-0.2-0.4s-0.2-0.4-0.2-0.6c0-0.2-0.1-0.6-0.1-1.3V39v-0.6v-0.2l0.1-1.8c0-0.2,0-0.3-0.1-0.5
			c-0.1-0.1-0.2-0.2-0.5-0.2h-0.2c-0.6,0-0.9,0.2-0.9,0.5c0,0.1,0.1,0.2,0.2,0.5c0.1,0.3,0.2,0.6,0.2,0.9v0.3c0,0.2,0,0.4,0,0.7v0.2
			v0.4c0,0.1,0,0.2,0,0.4c0,0.6-0.1,1.1-0.2,1.5c-0.1,0.4-0.2,0.6-0.2,0.6v0.2c0,0.1,0.1,0.2,0.2,0.3c0.1,0.1,0.3,0.2,0.5,0.2
			C15.5,42.4,15.7,42.4,15.7,42.4z M16.2,32.9L16.2,32.9h-0.3c-0.2,0-0.3,0.1-0.4,0.2c-0.1,0.1-0.2,0.3-0.2,0.4v0.2v0.1
			c0,0.2,0.1,0.4,0.2,0.5c0.1,0.1,0.2,0.2,0.4,0.2h0.2h0.1c0.3,0,0.5-0.1,0.6-0.2c0.1-0.2,0.2-0.4,0.2-0.6v-0.1
			c0-0.2-0.1-0.4-0.2-0.5s-0.2-0.2-0.4-0.2L16.2,32.9z M18.6,37.9c-0.2,0.5-0.3,0.9-0.3,1.3v0.3c0,0.9,0.3,1.7,0.8,2.2
			c0.5,0.6,1.2,0.8,2.1,0.8h0.2c0.6,0,1.1-0.1,1.6-0.4c0.5-0.3,0.8-0.5,0.8-0.8c0-0.2-0.1-0.3-0.3-0.3c-0.1,0-0.3,0.1-0.8,0.2
			c-0.4,0.1-0.8,0.2-1,0.2c-0.5,0-1-0.1-1.3-0.4c-0.3-0.3-0.5-0.6-0.5-1c0-0.3,0.1-0.5,0.4-0.5c0.1,0,0.6-0.1,1.5-0.2
			c0.9-0.1,1.5-0.3,1.7-0.4c0.4-0.2,0.5-0.5,0.5-1v-0.1c0-0.6-0.2-1.1-0.6-1.5s-0.9-0.6-1.5-0.6h-0.3c-0.4,0-0.9,0.1-1.3,0.3
			C19.6,36.3,19,37,18.6,37.9z M19.9,38.3c0-0.4,0.2-0.8,0.5-1.2s0.7-0.6,1.2-0.6l0,0l0,0c0.3,0,0.6,0.1,0.8,0.3s0.3,0.5,0.3,0.8
			v0.1c0,0.2-0.1,0.4-0.2,0.5c-0.3,0.2-0.6,0.3-1.1,0.3c-0.1,0-0.3,0-0.7,0.1h-0.3l0,0h-0.2c-0.3,0-0.4-0.1-0.4-0.2v-0.1
			C19.8,38.3,19.9,38.3,19.9,38.3z M30.2,41v0.4c0,0.3,0,0.5,0.1,0.5c0.1,0.2,0.3,0.2,0.7,0.2c0.6,0,0.9-0.2,0.9-0.5
			c0-0.2,0-0.3-0.1-0.5s-0.1-0.4-0.2-0.5c0-0.1,0-0.4,0-0.7c0-0.1,0-0.1,0-0.2c0-0.1,0-0.2,0-0.3c0,0,0-0.1,0-0.3c0-0.1,0-0.2,0-0.2
			l0,0c0-1-0.1-1.6-0.2-1.9c-0.3-0.6-0.8-0.9-1.5-0.9h-0.2c-0.4,0-0.9,0.2-1.5,0.5c-0.2,0.1-0.3,0.2-0.4,0.2s-0.3-0.1-0.5-0.3
			c-0.3-0.2-0.6-0.3-0.8-0.3c-0.3,0-0.4,0.1-0.4,0.4v2c0,1.2-0.1,2-0.2,2.4l-0.1,0.3c-0.1,0.2-0.1,0.3-0.1,0.3v0.1
			c0,0.4,0.3,0.6,0.8,0.6l0,0c0.2,0,0.4-0.1,0.6-0.2c0.1-0.2,0.2-0.4,0.2-0.8c0-1.7,0.1-2.8,0.4-3.4c0.1-0.3,0.3-0.5,0.6-0.7
			c0.2-0.2,0.5-0.3,0.8-0.3c0.4,0,0.7,0.2,0.9,0.5c0.2,0.4,0.3,1.1,0.3,2.1C30.2,40,30.2,40.5,30.2,41z M38.5,41.4
			c0-0.2-0.1-0.3-0.3-0.3c-0.1,0-0.3,0.1-0.8,0.2c-0.4,0.1-0.7,0.2-1,0.2c-0.6,0-1-0.2-1.3-0.5c-0.3-0.4-0.5-0.9-0.5-1.7
			c0-0.7,0.2-1.4,0.5-1.8c0.3-0.5,0.7-0.7,1.3-0.7l0,0c0.2,0,0.6,0.1,0.9,0.3c0.4,0.2,0.6,0.3,0.7,0.3c0.3,0,0.5-0.2,0.5-0.5
			s-0.2-0.6-0.5-0.8c-0.4-0.2-0.8-0.3-1.3-0.3h-0.2c-0.5,0-1,0.1-1.4,0.3c-0.7,0.3-1.2,0.9-1.6,1.8c-0.2,0.4-0.3,1-0.3,1.5v0.3
			c0,0.5,0.1,0.9,0.3,1.3c0.4,1.1,1.3,1.6,2.7,1.6c0.5,0,1-0.1,1.5-0.4C38.3,41.9,38.5,41.6,38.5,41.4z M43.3,35.7H43
			c-0.4,0-0.9,0.1-1.3,0.3c-0.8,0.3-1.4,1-1.7,1.9c-0.2,0.5-0.3,0.9-0.3,1.3v0.3c0,0.9,0.3,1.7,0.8,2.2c0.5,0.6,1.2,0.8,2.1,0.8h0.2
			c0.6,0,1.1-0.1,1.6-0.4c0.5-0.3,0.8-0.5,0.8-0.8c0-0.2-0.1-0.3-0.3-0.3c-0.1,0-0.3,0.1-0.8,0.2c-0.4,0.1-0.8,0.2-1,0.2
			c-0.5,0-1-0.1-1.3-0.4c-0.3-0.3-0.5-0.6-0.5-1c0-0.3,0.1-0.5,0.4-0.5c0.1,0,0.6-0.1,1.5-0.2c0.9-0.1,1.5-0.3,1.7-0.4
			c0.4-0.2,0.5-0.5,0.5-1v-0.1c0-0.6-0.2-1.1-0.6-1.5C44.4,35.9,43.9,35.7,43.3,35.7z M44.2,37.8c0,0.2-0.1,0.4-0.2,0.5
			c-0.3,0.2-0.6,0.3-1.1,0.3c-0.1,0-0.3,0-0.7,0.1h-0.3l0,0h-0.2c-0.3,0-0.4-0.1-0.4-0.2v-0.1c0-0.4,0.2-0.8,0.5-1.2
			s0.7-0.6,1.2-0.6l0,0l0,0c0.3,0,0.6,0.1,0.8,0.3C44.1,37.1,44.2,37.4,44.2,37.8L44.2,37.8z M1.8,58.6H2c0.3,0,0.7-0.1,1.1-0.2
			c0.4-0.2,0.7-0.2,0.7-0.2c0.1,0,0.3,0.1,0.6,0.2c0.3,0.1,0.5,0.2,0.8,0.2c0.2,0,0.4,0,0.5-0.1s0.2-0.2,0.2-0.3s-0.1-0.3-0.2-0.5
			s-0.2-0.4-0.2-0.5s0-0.7,0-1.6c0-1,0-1.5,0-1.6c0-0.5-0.2-0.8-0.3-1.1c-0.2-0.3-0.5-0.5-0.8-0.7C4,52,3.6,51.9,3.2,51.9H2.9
			c-0.5,0-1,0.1-1.5,0.3c-0.7-0.1-0.9,0.2-0.9,0.5c0,0.4,0.2,0.6,0.5,0.6c0.1,0,0.4-0.1,0.9-0.3s0.8-0.3,1.1-0.3s0.5,0.1,0.7,0.3
			S4,53.4,4,53.7s-0.1,0.5-0.4,0.6c-0.1,0.1-0.4,0.1-0.8,0.2c-0.4,0.1-0.7,0.1-0.8,0.1c-0.6,0.1-1,0.4-1.4,0.7S0,56.1,0,56.7
			c0,0.6,0.2,1.1,0.5,1.4C0.9,58.4,1.3,58.6,1.8,58.6z M1.4,56.5c0-0.4,0.1-0.6,0.3-0.8c0.3-0.3,0.7-0.4,1-0.4c0.1,0,0.1,0,0.3,0
			h0.3l0,0h0.3c0.3,0,0.4,0.1,0.4,0.4v0.4v0.2v0.1v0.1c0,0.3-0.1,0.6-0.4,0.9c-0.3,0.3-0.6,0.4-1,0.4H2.5c-0.3,0-0.5-0.1-0.7-0.3
			s-0.3-0.4-0.3-0.7v-0.3C1.5,56.5,1.4,56.5,1.4,56.5z M8.5,58.3c0.2,0,0.4-0.1,0.6-0.2c0.1-0.2,0.2-0.4,0.2-0.8
			c0-1.7,0.1-2.8,0.4-3.4c0.1-0.3,0.3-0.5,0.6-0.7c0.2-0.2,0.5-0.3,0.8-0.3c0.4,0,0.7,0.2,0.9,0.5c0.2,0.4,0.3,1.1,0.3,2.1
			c0,0.5,0,1,0,1.4v0.4c0,0.3,0,0.5,0.1,0.5c0.1,0.2,0.3,0.2,0.7,0.2c0.6,0,0.9-0.2,0.9-0.5c0-0.2,0-0.3-0.1-0.5s-0.1-0.4-0.2-0.5
			c0-0.1,0-0.4,0-0.7c0-0.1,0-0.1,0-0.2c0-0.1,0-0.2,0-0.3c0,0,0-0.1,0-0.3c0-0.1,0-0.2,0-0.2l0,0c0-1-0.1-1.6-0.2-1.9
			C13.2,52.3,12.7,52,12,52h-0.2c-0.4,0-0.9,0.2-1.5,0.5c-0.2,0.1-0.3,0.2-0.4,0.2s-0.3-0.1-0.5-0.3c-0.3-0.2-0.6-0.3-0.8-0.3
			c-0.3,0-0.4,0.1-0.4,0.4v2c0,1.2-0.1,2-0.2,2.4l-0.1,0.3c-0.1,0.2-0.1,0.3-0.1,0.3v0.2C7.8,58.1,8.1,58.3,8.5,58.3L8.5,58.3z
			 M20.8,48.6L20.8,48.6c-0.4,0-0.6,0.1-0.8,0.2c-0.2,0.2-0.3,0.3-0.3,0.5c0,0,0,0.2,0.1,0.4c0,0.2,0.1,0.4,0.1,0.5
			c0,0.7-0.1,1.1-0.2,1.3s-0.5,0.3-1,0.3s-1,0.1-1.4,0.2c-0.4,0.2-0.7,0.4-1,0.8c-0.3,0.3-0.5,0.8-0.7,1.3s-0.3,1-0.3,1.4v0.2
			c0,0.8,0.2,1.5,0.6,2c0.4,0.5,0.9,0.8,1.6,0.8h0.2l0,0c0.4,0,0.9-0.1,1.4-0.3c0.2-0.1,0.3-0.1,0.4-0.1s0.3,0,0.5,0.1
			s0.5,0.1,0.7,0.1s0.4-0.1,0.5-0.2s0.2-0.2,0.2-0.3s0-0.3-0.1-0.5s-0.1-0.6-0.1-1v-0.6v-0.2c0-0.1,0-0.2,0-0.3V55
			c0-0.4,0-1.2,0.1-2.3s0.1-1.8,0.1-2s0-0.4,0-0.5v-0.3v-0.6c0-0.3-0.1-0.5-0.2-0.6C21.2,48.6,21,48.6,20.8,48.6z M19.8,54.5v0.3
			v0.1c0,0,0,0.1,0,0.2c0,0.8-0.1,1.4-0.4,1.9c-0.3,0.4-0.7,0.6-1.2,0.6H18c-0.3,0-0.6-0.2-0.9-0.5c-0.2-0.4-0.4-0.8-0.4-1.4v-0.5
			c0-0.7,0.2-1.4,0.5-1.8c0.3-0.5,0.7-0.7,1.2-0.7h0.3c0.7,0,1.1,0.5,1.1,1.4C19.8,54.1,19.8,54.5,19.8,54.5z M7.1,64.9
			c-0.1,0-0.6-0.1-1.4-0.1H5.3H4.9c-2.3,0-3.7,0-4.1,0.1s-0.7,0.3-0.7,0.8s0.1,0.7,0.3,0.7c0.1,0,0.3-0.1,0.7-0.2s0.7-0.2,1-0.2
			s0.5,0.1,0.7,0.3C2.9,66.5,3,66.9,3,67.4c0,1.9-0.1,3.5-0.3,4.8c0,0.3-0.1,0.6-0.3,0.9c-0.1,0.3-0.2,0.5-0.2,0.6
			c0,0.2,0.1,0.4,0.3,0.5s0.5,0.2,0.8,0.2s0.6-0.1,0.8-0.2s0.3-0.3,0.3-0.5c0,0,0-0.2-0.1-0.6c-0.1-0.3-0.1-0.6-0.1-0.8
			s0-1.1,0.1-2.8c0.1-1.7,0.2-2.6,0.2-2.8c0.1-0.2,0.2-0.4,0.3-0.5C5,66.1,5.2,66,5.5,66s0.6,0.1,0.9,0.2c0.2,0.1,0.4,0.1,0.5,0.1
			l0,0c0.1,0,0.2,0,0.3-0.1c0.3-0.1,0.3-0.2,0.3-0.5v-0.2C7.5,65.2,7.4,65,7.1,64.9z M11.8,67.7h-0.3c-0.4,0-0.9,0.1-1.3,0.3
			c-0.8,0.3-1.4,1-1.7,1.9c-0.2,0.5-0.3,0.9-0.3,1.3v0.3c0,0.9,0.3,1.7,0.8,2.2c0.5,0.6,1.2,0.8,2.1,0.8h0.2c0.6,0,1.1-0.1,1.6-0.4
			s0.8-0.5,0.8-0.8c0-0.2-0.1-0.3-0.3-0.3c-0.1,0-0.3,0.1-0.8,0.2c-0.4,0.1-0.8,0.2-1,0.2c-0.5,0-1-0.1-1.3-0.4s-0.5-0.6-0.5-1
			c0-0.3,0.1-0.5,0.4-0.5c0.1,0,0.6-0.1,1.5-0.2s1.5-0.3,1.7-0.4c0.4-0.2,0.5-0.5,0.5-1v-0.1c0-0.6-0.2-1.1-0.6-1.5
			C12.9,67.9,12.4,67.7,11.8,67.7z M12.7,69.8c0,0.2-0.1,0.4-0.2,0.5c-0.3,0.2-0.6,0.3-1.1,0.3c-0.1,0-0.3,0-0.7,0.1h-0.3l0,0h-0.2
			c-0.3,0-0.4-0.1-0.4-0.2v-0.1c0-0.4,0.2-0.8,0.5-1.2c0.3-0.4,0.7-0.6,1.2-0.6l0,0l0,0c0.3,0,0.6,0.1,0.8,0.3
			C12.6,69.1,12.7,69.4,12.7,69.8L12.7,69.8z M18.4,68.8L18.4,68.8c0.3,0,0.6,0.1,1,0.3c0.4,0.2,0.6,0.3,0.7,0.3
			c0.3,0,0.5-0.2,0.5-0.5s-0.2-0.6-0.5-0.8c-0.4-0.2-0.8-0.3-1.3-0.3h-0.3c-0.5,0-1,0.1-1.4,0.3c-0.7,0.3-1.2,0.9-1.6,1.8
			c-0.2,0.4-0.3,1-0.3,1.5v0.3c0,0.5,0.1,0.9,0.3,1.3c0.4,1.1,1.3,1.6,2.7,1.6c0.5,0,1-0.1,1.5-0.4s0.8-0.5,0.8-0.8
			c0-0.2-0.1-0.3-0.3-0.3c-0.1,0-0.3,0.1-0.8,0.2c-0.4,0.1-0.7,0.2-1,0.2c-0.6,0-1-0.2-1.3-0.5c-0.3-0.4-0.5-0.9-0.5-1.7
			c0-0.7,0.2-1.4,0.5-1.8C17.4,69,17.9,68.8,18.4,68.8z M27.9,72.3c0-0.1,0-0.5,0-1.1c0-1.3-0.1-2.1-0.3-2.5
			c-0.3-0.6-0.8-0.9-1.6-0.9c-0.4,0-0.8,0.1-1.3,0.3l-0.2,0.1c-0.2,0.1-0.2,0.1-0.3,0.1c-0.2,0-0.2-0.1-0.3-0.2
			c0-0.1-0.1-0.6-0.1-1.5s0-1.4-0.1-1.5c0.1-0.3-0.2-0.4-0.5-0.4c-0.4,0-0.6,0.1-0.6,0.3v0.6v0.8c0,0.3,0,1.3-0.1,2.9
			s-0.1,2.5-0.1,2.8s-0.1,0.6-0.2,0.9s-0.1,0.6-0.1,0.8c0,0.4,0.3,0.6,0.8,0.6c0.3,0,0.5-0.1,0.7-0.3c0.2-0.2,0.2-0.4,0.2-0.6v-0.7
			c0-1.4,0.1-2.4,0.4-2.9s0.7-0.8,1.3-0.8c0.7,0,1.1,0.6,1.1,1.8V72v1.2c0,0.5,0,0.8,0.1,0.9c0.1,0.2,0.3,0.3,0.6,0.3
			s0.5-0.1,0.6-0.2s0.2-0.3,0.2-0.6c0,0,0-0.2-0.1-0.5C28,72.7,27.9,72.5,27.9,72.3z M35.9,72.6c0-0.1,0-0.4,0-0.7
			c0-0.1,0-0.1,0-0.2s0-0.2,0-0.3c0,0,0-0.1,0-0.3c0-0.1,0-0.2,0-0.2l0,0c0-1-0.1-1.6-0.2-1.9c-0.3-0.6-0.8-0.9-1.5-0.9H34
			c-0.4,0-0.9,0.2-1.5,0.5c-0.2,0.1-0.3,0.2-0.4,0.2c-0.1,0-0.3-0.1-0.5-0.3c-0.3-0.2-0.6-0.3-0.8-0.3c-0.3,0-0.4,0.1-0.4,0.4v2
			c0,1.2-0.1,2-0.2,2.4l-0.1,0.3C30,73.5,30,73.6,30,73.6v0.1c0,0.4,0.3,0.6,0.8,0.6h0.1c0.2,0,0.4-0.1,0.6-0.2
			c0.1-0.2,0.2-0.4,0.2-0.8c0-1.7,0.1-2.8,0.4-3.4c0.1-0.3,0.3-0.5,0.6-0.7c0.2-0.2,0.5-0.3,0.8-0.3c0.4,0,0.7,0.2,0.9,0.5
			c0.2,0.4,0.3,1.1,0.3,2.1c0,0.5,0,1,0,1.4v0.4c0,0.3,0,0.5,0.1,0.5c0.1,0.2,0.3,0.2,0.7,0.2c0.6,0,0.9-0.2,0.9-0.5
			c0-0.2,0-0.3-0.1-0.5C36,72.9,35.9,72.8,35.9,72.6z M42.2,67.9c-0.4-0.2-0.8-0.2-1.2-0.2h-0.3c-0.4,0-0.7,0.1-1.1,0.2
			c-0.4,0.2-0.8,0.4-1.1,0.8c-0.6,0.6-0.9,1.5-0.9,2.7v0.1c0,1,0.3,1.8,0.8,2.4s1.2,0.8,1.9,0.8h0.2c0.4,0,0.9-0.1,1.3-0.3
			c0.8-0.4,1.4-1,1.7-2c0.1-0.5,0.2-0.9,0.2-1.4v-0.1C43.8,69.4,43.2,68.4,42.2,67.9z M42.3,71.1c0,0.8-0.2,1.4-0.5,1.9
			s-0.7,0.7-1.2,0.7h-0.2c-0.4,0-0.7-0.2-1-0.6S39,72.2,39,71.6v-0.4V71c0-0.7,0.2-1.2,0.5-1.7s0.7-0.7,1.2-0.7h0.1
			c0.4,0,0.8,0.2,1,0.6s0.4,0.9,0.4,1.5L42.3,71.1C42.2,71.1,42.3,71.1,42.3,71.1z M47.2,72.6c-0.1-0.3-0.1-0.8-0.1-1.4
			c0-0.7,0-1.7,0.1-3.1v-0.4v-0.3c0-0.2,0-0.3,0-0.5v-0.3c0,0,0-0.1,0-0.3l0.1-1c0-0.4,0-0.6-0.1-0.7s-0.3-0.2-0.5-0.2h-0.1
			c-0.6,0-0.9,0.2-0.9,0.5c0,0.1,0,0.3,0.1,0.5s0.1,0.6,0.1,1v0.5v0.5c0,0.1,0,0.7-0.1,1.9c-0.1,1.2-0.1,1.9-0.1,2.3s0,0.6-0.1,0.8
			c0,0.2,0,0.5-0.1,0.9v0.3v0.2c0,0.2,0.1,0.3,0.2,0.4c0.2,0.1,0.3,0.2,0.6,0.2h0.4c0.3,0,0.6-0.1,0.8-0.2s0.3-0.3,0.3-0.5l0,0
			c0-0.1-0.1-0.2-0.2-0.4C47.4,73.1,47.3,72.9,47.2,72.6z M53.8,67.9c-0.3-0.2-0.7-0.2-1.1-0.2h-0.3c-0.4,0-0.7,0.1-1.1,0.2
			c-0.4,0.2-0.8,0.4-1.1,0.8c-0.6,0.6-0.9,1.5-0.9,2.7v0.1c0,1,0.3,1.8,0.8,2.4s1.2,0.8,1.9,0.8h0.2c0.4,0,0.9-0.1,1.3-0.3
			c0.8-0.4,1.4-1,1.7-2c0.1-0.5,0.2-0.9,0.2-1.4v-0.1C55.4,69.4,54.9,68.4,53.8,67.9z M53.9,71.1c0,0.8-0.2,1.4-0.5,1.9
			s-0.7,0.7-1.2,0.7H52c-0.4,0-0.7-0.2-1-0.6s-0.4-0.9-0.4-1.5v-0.4V71c0-0.7,0.2-1.2,0.5-1.7s0.7-0.7,1.2-0.7h0.2
			c0.4,0,0.8,0.2,1,0.6s0.4,0.9,0.4,1.5V71.1z M62.1,68.2c-0.1,0-0.2,0-0.4,0.1c-0.1,0-0.3-0.1-0.7-0.2s-0.7-0.2-0.9-0.2h-0.2
			c-0.4,0-0.8,0.1-1.2,0.3c-0.4,0.2-0.7,0.4-1,0.7c-0.2,0.3-0.4,0.7-0.6,1.1c-0.1,0.4-0.2,0.9-0.2,1.3v0.2c0,0.4,0.1,0.8,0.2,1.2
			c0.1,0.4,0.3,0.7,0.5,0.9c0.4,0.5,1,0.7,1.8,0.7c0.3,0,0.7,0,1.1-0.1c0.1,0,0.2,0,0.3,0c0.2,0,0.3,0.1,0.3,0.4
			c0,0.5-0.2,1-0.5,1.3c-0.4,0.3-0.8,0.5-1.4,0.5c-0.2,0-0.4,0-0.7-0.1s-0.6-0.1-0.6-0.1c-0.4,0-0.6,0.1-0.6,0.4s0.2,0.5,0.6,0.7
			s0.9,0.3,1.4,0.3s1-0.1,1.4-0.3c0.8-0.4,1.3-0.9,1.6-1.8c0.1-0.4,0.2-1,0.2-1.8s0.1-1.7,0.2-2.8c0.1-1.1,0.2-1.7,0.2-1.9
			C62.7,68.5,62.5,68.2,62.1,68.2z M61.2,70.6v0.3c0,0.1,0,0.1,0,0.2c0,0.8-0.1,1.4-0.4,1.8s-0.7,0.6-1.2,0.6h-0.2
			c-0.4,0-0.6-0.2-0.9-0.5c-0.2-0.3-0.3-0.8-0.3-1.4v-0.2c0-0.8,0.2-1.4,0.5-1.9c0.4-0.5,0.8-0.7,1.3-0.7h0.2c0.3,0,0.6,0.1,0.8,0.3
			c0.2,0.2,0.3,0.5,0.3,0.8c0,0,0,0.1,0,0.2L61.2,70.6C61.3,70.6,61.2,70.6,61.2,70.6z M69.9,67.8c-0.4,0-0.7,0.1-0.8,0.4
			c0,0.1-0.1,0.4-0.2,0.9s-0.2,1.1-0.5,1.9c-0.4,1.1-0.7,1.7-1,1.7c-0.2-0.1-0.5-1.3-1.2-3.6c-0.1-0.4-0.1-0.6-0.1-0.6
			c-0.1-0.3-0.4-0.4-0.7-0.4c-0.3,0-0.6,0.1-0.7,0.2s-0.2,0.2-0.2,0.3c0,0.3,0.4,1.3,1.1,3c0.2,0.5,0.5,1.1,0.8,1.7s0.5,1,0.5,1.2
			c0,0.4-0.2,0.9-0.5,1.3c-0.2,0.2-0.5,0.4-0.9,0.6s-0.6,0.4-0.6,0.6s0.2,0.4,0.6,0.4s0.8-0.2,1.2-0.6c0.4-0.4,0.8-0.9,1.2-1.6
			c0.4-0.7,1-2.2,1.8-4.7c0.1-0.4,0.3-0.8,0.5-1.2c0.2-0.4,0.2-0.7,0.2-0.9C70.5,68,70.3,67.8,69.9,67.8z"/>
	</g>
</g>
</svg>
