<?xml version="1.0" encoding="utf-8"?>
<!-- Generator: Adobe Illustrator 20.1.0, SVG Export Plug-In . SVG Version: 6.00 Build 0)  -->
<svg version="1.1" id="レイヤー_1" xmlns="http://www.w3.org/2000/svg" xmlns:xlink="http://www.w3.org/1999/xlink" x="0px"
	 y="0px" viewBox="0 0 934.2 65.2" style="enable-background:new 0 0 934.2 65.2;" xml:space="preserve">
<style type="text/css">
	.st0{fill:#FFFFFF;}
</style>
<title></title>
<g>
	<g>
		<path class="st0" d="M41.7,50.1L18.3,1.4H0v1.7c8.2,0,9.2,2.6,9.2,10.2v38.4c0,7.9,0,10.2-9.2,10.2v1.7h22.5v-1.7
			c-9.2,0-9.2-2.4-9.2-10.2V11.6h0.3l24.7,52.1h1.6l24.6-52.1h0.2v40.1c0,7.9,0,10.2-9.2,10.2v1.7H83v-1.7c-9.2,0-9.2-2.4-9.2-10.2
			V13.4c0-7.9,0-10.3,9.2-10.3V1.4H64.8L41.7,50.1z M124.5,60.3h-13.2c-4.1,0-5.3-0.8-5.3-4.7V32.8h13c7.9,0,10.5,0.9,11.3,9.2h1.8
			V20.3h-1.8c-0.6,8.4-3.6,9.1-11.3,9.1h-13V4.8h16.5c9.2,0,11.8,0.8,13.6,10.2h1.9l-0.9-13.6H87.6v1.7c9.2,0,9.2,2.4,9.2,10.3v38.3
			c0,7.9,0,10.2-9.2,10.2v1.7h50L143,48h-1.8C136.2,56.4,133,60.3,124.5,60.3z M148.7,3.1c9.2,0,9.2,2.4,9.2,10.3v38.3
			c0,7.9,0,10.2-9.2,10.2v1.7h27.5v-1.7c-9.2,0-9.2-2.4-9.2-10.2V13.4c0-7.9,0-10.3,9.2-10.3V1.4h-27.5V3.1z M189.6,3.1
			c9.2,0,9.2,2.4,9.2,10.3v40.4c0,2.2,0,8.1-3.2,8.1c-4.3,0-3.2-8.6-8.9-8.6c-3,0-4.9,2.1-4.9,4.9c0,4.9,5.6,7,9.8,7
			c6.3,0,16.3-4.3,16.3-21.1V13.5c0-7.9,0-10.3,9.2-10.3V1.5h-27.5V3.1z M253.7,0c-19.2,0-31.6,15.1-31.6,32.5S234.5,65,253.7,65
			s31.5-15.1,31.5-32.5C285.2,15.2,272.9,0,253.7,0z M253.7,61.7c-16,0-20.7-15.1-20.7-29.1s4.7-29.1,20.7-29.1s20.6,15.1,20.6,29.1
			S269.7,61.7,253.7,61.7z M387.3,3.1c9.2,0,9.2,2.4,9.2,10.3v23.1c0,5.1,0,12.4-3.1,16.9c-3.7,5.3-10.7,7.6-17,7.6
			c-6.4,0-12.9-2.8-15.1-9c-1.2-3.3-1.6-10.1-1.6-13.8V13.4c0-7.9,0-10.3,9.2-10.3V1.4h-27.5v1.7c9.1,0,9.1,2.4,9.1,10.3v28
			c0,12.3,4.7,23.7,25.3,23.7c20.2,0,24.8-12.7,24.8-24V13.4c0-7.9,0-10.3,9.2-10.3V1.4h-22.5V3.1z M460.3,3.1
			c9.2,0,9.2,2.4,9.2,10.3V48h-0.2L430.1,1.5h-17.5v1.7c6.5,0,9.2,2.3,12.8,6.5v42.1c0,7.9,0,10.2-9.2,10.2v1.7h22.4V62
			c-9.2,0-9.2-2.4-9.2-10.2v-37h0.2l42.3,50h1.8V13.5c0-7.9,0-10.3,9.2-10.3V1.5h-22.5L460.3,3.1L460.3,3.1z M487.4,3.1
			c9.2,0,9.2,2.4,9.2,10.3v38.3c0,7.9,0,10.2-9.2,10.2v1.7h27.5v-1.7c-9.2,0-9.2-2.4-9.2-10.2V13.4c0-7.9,0-10.3,9.2-10.3V1.4h-27.5
			V3.1z M567.7,3.1c2.8,0.3,6.8,1.3,6.8,4.7c0,1.8-1.9,6.3-2.6,8.1L557.1,51l-15.9-35.4c-1-2.2-2.7-5.5-2.7-8c0-3.9,4.2-4,7.2-4.4
			V1.5h-26.4v1.7c7.2,0.5,8.2,3.7,10.7,9.4l23.7,52.5h1.8l22-51.9c2-4.8,4.2-9.5,10.1-10.1V1.4h-19.9L567.7,3.1L567.7,3.1z
			 M628.3,60.3h-13.2c-4.1,0-5.3-0.8-5.3-4.7V32.8h13c7.9,0,10.5,0.9,11.3,9.2h1.8V20.3h-1.8c-0.6,8.4-3.6,9.1-11.3,9.1h-13V4.8
			h16.5c9.1,0,11.8,0.8,13.6,10.2h2L641,1.4h-49.5v1.7c9.2,0,9.2,2.4,9.2,10.3v38.3c0,7.9,0,10.2-9.2,10.2v1.7h50L647,48h-1.9
			C640,56.4,636.9,60.3,628.3,60.3z M698.9,50.3l-12.6-16.9c8.5-1.7,16-6.8,16-15.8c0-5.4-3.4-16.2-22.4-16.2h-28v1.7
			c9.2,0,9.2,2.4,9.2,10.3v38.3c0,7.9,0,10.2-9.2,10.2v1.7h27.5v-1.7c-9.1,0-9.1-2.4-9.1-10.2V34.6h6.6l21.9,29H716v-1.7
			C707.2,61.3,703.7,56.7,698.9,50.3z M672.4,31.6h-2.1V5.7c2.6-0.4,5.3-0.8,8-0.8c7.9,0,13.1,5.6,13.1,13.2
			C691.4,28.4,681.7,31.6,672.4,31.6z M729.9,13.4c0-5.6,5.6-9.7,11.2-9.7c10.7,0,17.3,8,18,17.9h1.8V0.1h-1.8
			c-0.4,1.9-1,3.6-3.3,3.6c-1.3,0-3.1-0.9-5.6-1.8c-2.3-0.9-5.3-1.8-8.8-1.8c-10.1,0-19.1,7.1-19.1,16.6c0,18.6,34.3,20.3,34.3,34.6
			c0,6.9-6.3,10.1-12.9,10.1c-5.7,0-17.6-2.6-19.1-17.7h-1.8v21.4h1.8c0.2-1.9,0.7-3.5,2.9-3.5c2.3,0,4.3,0.8,6.9,1.7
			c2.5,0.9,5.7,1.8,10.2,1.8c12.4,0,20.4-8.2,20.4-18C765.1,28.7,729.9,26.4,729.9,13.4z M773.6,3.1c9.2,0,9.2,2.4,9.2,10.3v38.3
			c0,7.9,0,10.2-9.2,10.2v1.7h27.5v-1.7c-9.2,0-9.2-2.4-9.2-10.2V13.4c0-7.9,0-10.3,9.2-10.3V1.4h-27.5V3.1z M808,1.4L807.3,16h1.7
			c0.5-5.8,2.9-10.5,11-10.5h9.6v46.2c0,7.9,0,10.2-9.2,10.2v1.7h27.5v-1.7c-9.2,0-9.2-2.4-9.2-10.2V5.5h9.6c8.1,0,10.5,4.7,11,10.5
			h1.8l-0.7-14.6C860.4,1.4,808,1.4,808,1.4z M911.8,1.4v1.7c3.6,0,6.5,1,6.5,4.5c0,2.2-2.3,5.5-3.5,7.3l-12,18.2l-14.3-21.3
			c-0.8-1.2-2.1-3.1-2.1-4.6c0-3.5,3.7-4.1,7.5-4.1V1.4h-27.6v1.7c3.3,0,7,2.2,9.3,5.6l20,29.3v13.6c0,7.9,0,10.2-9.2,10.2v1.7h27.5
			v-1.7c-9.2,0-9.2-2.4-9.2-10.2V37.1l16.4-24.9C924.4,7.1,928,3,934.2,3V1.3L911.8,1.4L911.8,1.4z"/>
	</g>
</g>
</svg>
