<?xml version="1.0" encoding="utf-8"?>
<!-- Generator: Adobe Illustrator 22.0.1, SVG Export Plug-In . SVG Version: 6.00 Build 0)  -->
<svg version="1.1" id="レイヤー_1" xmlns="http://www.w3.org/2000/svg" xmlns:xlink="http://www.w3.org/1999/xlink" x="0px"
	 y="0px" viewBox="0 0 80 78" style="enable-background:new 0 0 80 78;" xml:space="preserve">
<style type="text/css">
	.st0{enable-background:new    ;}
	.st1{fill:#989898;}
</style>
<title></title>
<g id="icomoon-ignore">
</g>
<g class="st0">
	<path class="st1" d="M4.6,2.2c1.1,0,1.9,0.1,2.4,0.3c0.1,0,0.2,0.1,0.3,0.3s0.2,0.4,0.2,0.8S7.4,4.1,7.3,4.2L7.2,4.2
		c-0.1,0-0.3-0.1-0.5-0.4c-0.6-0.6-1.2-0.9-2-0.9c-0.8,0-1.4,0.3-1.9,0.9C2.3,4.4,2,5.2,2,6.3c0,1,0.2,1.8,0.7,2.5
		c0.5,0.6,1.1,1,1.9,1c0.5,0,0.9-0.1,1.1-0.3s0.4-0.7,0.4-1.3c0-0.2-0.1-0.5-0.2-0.7c0-0.1-0.1-0.1-0.2-0.3S5.6,7,5.6,7
		c0-0.2,0.4-0.3,1.2-0.3c0.5,0,0.8,0,1,0.1S8,6.9,8,7.1c0,0-0.1,0.1-0.2,0.3S7.7,7.6,7.7,7.6s0,0.4-0.1,1s-0.1,1-0.2,1.1
		S7,10,6.7,10.1c-0.9,0.3-1.5,0.4-2,0.4H4.5c-0.5,0-1.1-0.1-1.5-0.3S2.1,9.8,1.7,9.4S1.1,8.7,0.9,8.1S0.6,7,0.6,6.5V6.2
		c0-0.6,0.1-1.1,0.3-1.6C1.3,3.6,2,2.9,3,2.5C3.5,2.3,4,2.2,4.6,2.2z"/>
	<path class="st1" d="M11.5,10.2c0,0.2-0.4,0.2-1.1,0.2H9.9l-0.2,0l-0.4,0c-0.4,0-0.6-0.1-0.6-0.2c0-0.1,0.1-0.2,0.3-0.3
		s0.3-0.3,0.4-0.5s0.1-0.7,0.1-1.7s0-1.5-0.1-1.7S9.1,5.6,9,5.6C8.8,5.4,8.7,5.3,8.7,5.2s0-0.1,0.1-0.2C9,4.9,9.4,4.8,10,4.8h0.1
		c0.2,0,0.4,0.1,0.5,0.3s0.2,0.3,0.2,0.3s0.2-0.1,0.3-0.2s0.3-0.2,0.5-0.3s0.4-0.2,0.7-0.2s0.4,0.1,0.6,0.2s0.2,0.3,0.2,0.5
		c0,0.2-0.1,0.4-0.2,0.5s-0.2,0.2-0.3,0.2s-0.3,0-0.5-0.1s-0.4-0.1-0.5-0.1S11.4,5.9,11.2,6s-0.3,0.3-0.4,0.6S10.7,7.3,10.7,8
		s0,1.1,0.1,1.3s0.2,0.4,0.4,0.5S11.5,10.1,11.5,10.2z"/>
	<path class="st1" d="M13.6,5.8c0-0.3,0.2-0.5,0.7-0.8s0.9-0.3,1.4-0.3c0,0,0,0,0,0c0.5,0,0.8,0.1,1.1,0.2c0.6,0.2,0.9,0.7,1,1.4
		c0,0.1,0,0.6,0,1.5s0,1.4,0.1,1.6s0.2,0.3,0.4,0.3s0.3,0.1,0.3,0.2c0,0.1-0.1,0.2-0.2,0.3c-0.3,0.1-0.6,0.2-0.8,0.2
		s-0.5-0.1-0.6-0.2c-0.2-0.2-0.4-0.3-0.4-0.3s-0.2,0.1-0.7,0.3s-0.8,0.3-1.1,0.3c-0.5,0-0.9-0.1-1.1-0.4s-0.4-0.6-0.4-1V9
		c0-0.4,0.2-0.8,0.5-1.1s1-0.5,1.9-0.7C16,7.2,16.2,7.1,16.3,7c0.2-0.1,0.3-0.3,0.3-0.7s-0.1-0.6-0.3-0.8s-0.4-0.3-0.7-0.3
		S15,5.5,14.7,5.9S14.2,6.4,14,6.4C13.7,6.4,13.6,6.2,13.6,5.8z M16.4,7.7L16.4,7.7c-0.6,0-1,0.1-1.4,0.3s-0.5,0.5-0.5,0.9V9
		c0,0.2,0.1,0.4,0.2,0.5s0.3,0.2,0.5,0.2l0.1,0h0.2c0.4,0,0.7-0.2,1-0.5c0.1-0.1,0.2-0.4,0.2-0.9c0,0,0-0.1,0-0.1l0-0.1V8
		C16.6,7.8,16.5,7.7,16.4,7.7z"/>
	<path class="st1" d="M23,4.7C23,4.6,23,4.4,23,4s0-0.7-0.1-0.9s-0.2-0.4-0.3-0.5s-0.2-0.2-0.2-0.3s0-0.1,0.1-0.2
		c0.2-0.1,0.6-0.2,1.2-0.2h0.1c0.3,0,0.4,0.1,0.5,0.4c0,0.1,0,1.2,0,3.3s0,3.3,0,3.5s0.1,0.4,0.2,0.5c0,0,0.1,0.1,0.2,0.2
		S25,10,25,10.1s-0.1,0.1-0.2,0.2c-0.2,0.1-0.6,0.2-1.1,0.2c-0.2,0-0.3-0.1-0.4-0.2C23.1,10.1,23,10,23,10s-0.1,0-0.3,0.1
		s-0.4,0.2-0.6,0.3s-0.5,0.1-0.8,0.1s-0.6-0.1-0.9-0.2C19.8,10,19.5,9.6,19.3,9c-0.1-0.4-0.2-0.8-0.2-1.2c0-0.9,0.3-1.6,0.8-2.2
		s1.2-0.8,2.1-0.8l0.8,0.1C22.9,4.9,23,4.8,23,4.7z M23,6.4c0-0.3-0.1-0.6-0.3-0.8s-0.5-0.3-0.8-0.3h-0.1c-0.2,0-0.4,0.1-0.6,0.2
		S20.8,5.8,20.7,6c-0.3,0.4-0.4,0.9-0.4,1.5v0.3c0,0.6,0.1,1.1,0.4,1.5s0.6,0.6,1,0.6h0.2c0.3,0,0.6-0.1,0.8-0.3S23,9,23,8.6l0-0.1
		V8.4l0-0.3c0-0.2,0-0.4,0-0.6l0-0.2V7.1l0-0.1V6.8l0-0.1V6.6C23,6.5,23,6.4,23,6.4z"/>
	<path class="st1" d="M31.5,9.8c0.2,0.1,0.3,0.2,0.3,0.3s0,0.1-0.1,0.2c-0.2,0.2-0.5,0.2-1.1,0.2c-0.2,0-0.3,0-0.4-0.1
		s-0.2-0.2-0.3-0.3s-0.1-0.2-0.2-0.2c-0.1,0-0.2,0.1-0.3,0.2c-0.5,0.4-1,0.5-1.4,0.5c0,0,0,0,0,0h-0.2c-0.6,0-1.1-0.3-1.4-0.8
		c-0.1-0.3-0.2-1-0.2-2.1s0-1.7-0.1-1.8s-0.2-0.2-0.4-0.3s-0.3-0.2-0.3-0.2c0-0.1,0.1-0.2,0.2-0.3c0.3-0.1,0.7-0.1,1.2-0.1
		c0.3,0,0.4,0.1,0.5,0.3c0.1,0.3,0.1,1,0.1,2s0,1.7,0.1,2c0.2,0.4,0.5,0.6,0.9,0.6c0.2,0,0.4-0.1,0.7-0.2s0.4-0.3,0.5-0.5
		s0.2-0.7,0.2-1.6s0-1.4-0.1-1.6s-0.1-0.4-0.3-0.5S29.2,5.1,29.2,5c0-0.2,0.5-0.3,1.4-0.3c0.2,0,0.3,0,0.4,0.1s0.1,0.2,0.1,0.5
		l0,0.3l0,1.6c0,1,0,1.6,0.1,1.9S31.3,9.6,31.5,9.8z"/>
	<path class="st1" d="M32.4,5.8c0-0.3,0.2-0.5,0.7-0.8s0.9-0.3,1.4-0.3c0,0,0,0,0,0c0.5,0,0.8,0.1,1.1,0.2c0.6,0.2,0.9,0.7,1,1.4
		c0,0.1,0,0.6,0,1.5s0,1.4,0.1,1.6s0.2,0.3,0.4,0.3s0.3,0.1,0.3,0.2c0,0.1-0.1,0.2-0.2,0.3c-0.3,0.1-0.6,0.2-0.8,0.2
		s-0.5-0.1-0.6-0.2c-0.2-0.2-0.4-0.3-0.4-0.3s-0.2,0.1-0.7,0.3s-0.8,0.3-1.1,0.3c-0.5,0-0.9-0.1-1.1-0.4s-0.4-0.6-0.4-1V9
		c0-0.4,0.2-0.8,0.5-1.1s1-0.5,1.9-0.7c0.3-0.1,0.5-0.1,0.6-0.2c0.2-0.1,0.3-0.3,0.3-0.7s-0.1-0.6-0.3-0.8s-0.4-0.3-0.7-0.3
		s-0.6,0.2-0.9,0.5s-0.5,0.5-0.8,0.5C32.6,6.4,32.4,6.2,32.4,5.8z M35.3,7.7L35.3,7.7c-0.6,0-1,0.1-1.4,0.3s-0.5,0.5-0.5,0.9V9
		c0,0.2,0.1,0.4,0.2,0.5s0.3,0.2,0.5,0.2l0.1,0h0.2c0.4,0,0.7-0.2,1-0.5c0.1-0.1,0.2-0.4,0.2-0.9c0,0,0-0.1,0-0.1l0-0.1V8
		C35.5,7.8,35.4,7.7,35.3,7.7z"/>
	<path class="st1" d="M40.4,9.6l0.9-0.1c0.1,0,0.2,0.1,0.2,0.2s-0.2,0.3-0.5,0.5s-0.6,0.3-0.9,0.3H40c-0.3,0-0.5-0.1-0.7-0.2
		s-0.4-0.3-0.5-0.5c-0.2-0.3-0.3-1-0.3-2s0-1.6-0.1-1.8s-0.2-0.4-0.3-0.5c-0.2-0.2-0.3-0.3-0.3-0.3c0-0.1,0.1-0.2,0.2-0.3
		c0.3-0.2,0.4-0.3,0.4-0.3s0.2-0.3,0.4-1c0.1-0.3,0.3-0.5,0.5-0.5s0.3,0.1,0.3,0.2c0,0,0,0.2,0.1,0.5s0.1,0.5,0.2,0.6
		s0.3,0.2,0.7,0.3s0.5,0.2,0.5,0.3S41,5.4,40.7,5.4S40.1,5.6,40,5.7c-0.1,0.2-0.2,0.8-0.2,1.7s0,1.5,0.1,1.8
		C40,9.5,40.2,9.6,40.4,9.6z"/>
	<path class="st1" d="M43.1,8.1c0,0.4,0.2,0.8,0.5,1.1s0.8,0.5,1.3,0.5c0.2,0,0.4,0,0.6-0.1s0.4-0.1,0.6-0.2s0.3-0.1,0.4-0.1
		c0.2,0,0.2,0.1,0.2,0.3c0,0.2-0.3,0.5-0.9,0.7c-0.4,0.2-0.8,0.3-1.2,0.3h-0.1c-0.7,0-1.3-0.2-1.8-0.7c-0.3-0.2-0.5-0.6-0.6-0.9
		s-0.2-0.8-0.2-1.2l0-0.1V7.4c0-0.4,0.1-0.7,0.3-1.1c0.2-0.4,0.4-0.7,0.6-0.9c0.5-0.5,1.1-0.7,1.8-0.7c1.1,0,1.8,0.4,2.1,1.2
		c0.1,0.3,0.2,0.5,0.2,0.7v0.1c0,0.3-0.1,0.5-0.3,0.5s-0.7,0.2-1.6,0.2s-1.3,0.1-1.3,0.1C43.2,7.7,43.1,7.9,43.1,8.1z M45.5,6.6V6.4
		c0-0.3-0.1-0.5-0.3-0.8s-0.5-0.3-0.8-0.3h-0.1c-0.1,0-0.1,0-0.1,0c-0.3,0-0.5,0.2-0.8,0.5s-0.4,0.6-0.4,1v0.1C43.1,7,43.2,7,43.3,7
		c0.1,0,0.1,0,0.1,0l0.1,0h0l0,0L44.8,7L45,7C45.4,7,45.5,6.8,45.5,6.6z"/>
	<path class="st1" d="M3.3,15.8c-0.4,0-0.7,0.1-1,0.3S2,16.6,2,17s0.2,0.7,0.6,1c0.2,0.2,0.7,0.4,1.4,0.7s1.2,0.6,1.5,0.8
		c0.5,0.5,0.8,1,0.8,1.5v0.2c0,0.6-0.3,1.2-0.8,1.6c-0.2,0.2-0.5,0.3-0.9,0.4s-0.7,0.2-1.1,0.2H3.2c-0.8,0-1.5-0.1-2.1-0.4
		c-0.3-0.1-0.4-0.4-0.4-0.9V22c0-0.6,0.1-0.9,0.3-0.9c0.1,0,0.3,0.2,0.6,0.6s0.5,0.7,0.8,0.8s0.7,0.3,1.1,0.3s0.8-0.1,1-0.3
		s0.4-0.5,0.4-0.8c0-0.5-0.2-0.8-0.6-1.2c-0.2-0.1-0.6-0.4-1.4-0.7s-1.2-0.7-1.5-1c-0.4-0.4-0.6-0.9-0.6-1.5s0.2-1.1,0.6-1.5
		c0.2-0.2,0.5-0.4,0.9-0.5s0.7-0.2,1.1-0.2h0.2c0.1,0,0.4,0,0.6,0.1l0.2,0c0.2,0,0.4,0.1,0.4,0.1l0.2,0l0.2,0c0.2,0,0.3,0,0.3,0.1
		c0.2,0.1,0.3,0.4,0.3,1s-0.1,0.8-0.3,0.8c-0.1,0-0.3-0.2-0.5-0.5s-0.4-0.5-0.6-0.6C4.1,15.9,3.7,15.8,3.3,15.8z"/>
	<path class="st1" d="M11.1,19.4c-0.2,0-0.4-0.2-0.7-0.5s-0.6-0.5-1-0.5s-0.7,0.2-1,0.6S8,19.8,8,20.5s0.2,1.2,0.5,1.6
		s0.7,0.6,1.2,0.6c0.3,0,0.5,0,0.7-0.1s0.4-0.1,0.5-0.2s0.3-0.1,0.3-0.1c0.1,0,0.2,0.1,0.2,0.2c0,0.2-0.2,0.5-0.7,0.7
		s-0.9,0.3-1.3,0.3c-0.8,0-1.5-0.3-2-0.8c-0.2-0.2-0.4-0.5-0.5-0.8s-0.2-0.7-0.2-1.1v-0.3c0,0,0,0,0,0c0,0,0,0,0,0
		c0-0.3,0.1-0.7,0.2-1.1c0.3-0.7,0.8-1.2,1.5-1.5c0.4-0.2,0.8-0.2,1.2-0.2h0.1c0.5,0,1,0.1,1.3,0.3c0.3,0.1,0.4,0.4,0.4,0.7
		c0,0.2,0,0.4-0.1,0.5S11.2,19.4,11.1,19.4z"/>
	<path class="st1" d="M12.1,23.1c0-0.1,0.1-0.2,0.3-0.4s0.3-0.4,0.3-0.6s0.1-1.2,0.1-3s0-2.9-0.1-3.3c0-0.2-0.1-0.3-0.2-0.4
		c-0.2-0.2-0.3-0.2-0.3-0.3c0-0.1,0.1-0.2,0.2-0.3c0.3-0.1,0.6-0.2,1-0.2h0.2c0.2,0,0.3,0.1,0.4,0.2s0.1,0.5,0.1,1l0,0.2
		c0,0.1,0,0.3,0,0.4l0,0.4c0,0.1,0,0.3,0,0.4c0,0.5,0.1,0.8,0.3,0.8c0,0,0.1,0,0.3-0.1c0.5-0.2,1-0.4,1.4-0.4c0.7,0,1.2,0.3,1.4,0.8
		c0.2,0.4,0.3,1.3,0.3,2.8c0,0.6,0,0.9,0.1,1.1s0.2,0.3,0.3,0.4s0.3,0.2,0.3,0.3c0,0.1-0.1,0.2-0.2,0.2s-0.6,0.1-1.2,0.1h-0.2
		c-0.4,0-0.6-0.1-0.6-0.3c0,0,0.1-0.1,0.2-0.3s0.2-0.3,0.2-0.5s0-0.7,0-1.6s0-1.4-0.1-1.6c-0.3-0.4-0.6-0.6-0.9-0.6
		c-0.4,0-0.8,0.2-1.1,0.5c-0.2,0.2-0.3,0.8-0.3,1.6s0,1.4,0.1,1.6s0.1,0.4,0.3,0.6s0.2,0.3,0.2,0.3c0,0.1-0.4,0.2-1.2,0.2
		S12.1,23.3,12.1,23.1z"/>
	<path class="st1" d="M24.3,20.4v0.3c0,0.3-0.1,0.6-0.2,1c-0.3,0.8-0.8,1.3-1.6,1.6c-0.3,0.1-0.7,0.2-1,0.2h-0.2
		c-0.7,0-1.4-0.2-1.9-0.8c-0.2-0.2-0.4-0.5-0.6-0.9s-0.2-0.8-0.2-1.2v-0.1c0-0.4,0.1-0.8,0.2-1.1c0.3-0.8,0.8-1.3,1.5-1.6
		c0.3-0.1,0.7-0.2,1-0.2h0.3c0.3,0,0.7,0.1,1,0.2c0.6,0.3,1.1,0.8,1.3,1.4C24.2,19.7,24.3,20.1,24.3,20.4z M20,20.4v0.2
		c0,0.7,0.1,1.2,0.4,1.7c0.1,0.2,0.3,0.4,0.5,0.5s0.4,0.2,0.6,0.2h0.1c0.4,0,0.7-0.2,0.9-0.5s0.4-0.8,0.4-1.5v-0.4
		c0-0.6-0.1-1.2-0.4-1.6s-0.6-0.7-1-0.7h-0.2c-0.4,0-0.7,0.2-0.9,0.6S20,19.7,20,20.4z"/>
	<path class="st1" d="M30.4,20.4v0.3c0,0.3-0.1,0.6-0.2,1c-0.3,0.8-0.8,1.3-1.6,1.6c-0.3,0.1-0.7,0.2-1,0.2h-0.2
		c-0.7,0-1.4-0.2-1.9-0.8c-0.2-0.2-0.4-0.5-0.6-0.9s-0.2-0.8-0.2-1.2v-0.1c0-0.4,0.1-0.8,0.2-1.1c0.3-0.8,0.8-1.3,1.5-1.6
		c0.3-0.1,0.7-0.2,1-0.2h0.3c0.3,0,0.7,0.1,1,0.2c0.6,0.3,1.1,0.8,1.3,1.4C30.3,19.7,30.4,20.1,30.4,20.4z M26.1,20.4v0.2
		c0,0.7,0.1,1.2,0.4,1.7c0.1,0.2,0.3,0.4,0.5,0.5s0.4,0.2,0.6,0.2h0.1c0.4,0,0.7-0.2,0.9-0.5s0.4-0.8,0.4-1.5v-0.4
		c0-0.6-0.1-1.2-0.4-1.6s-0.6-0.7-1-0.7h-0.2c-0.4,0-0.7,0.2-0.9,0.6S26.1,19.7,26.1,20.4z"/>
	<path class="st1" d="M30.9,23.2c0-0.1,0.1-0.2,0.3-0.3s0.3-0.3,0.4-0.6s0.1-1.3,0.1-3.1s0-2.8-0.1-3.1s-0.1-0.4-0.3-0.5
		c-0.3-0.2-0.4-0.3-0.4-0.3v-0.1c0-0.1,0.1-0.1,0.2-0.2c0.4-0.2,0.8-0.2,1.4-0.2h0.1c0.2,0,0.3,0.1,0.3,0.4c0,0,0,0.3,0,0.9v1.3
		l0,0.2v0.4l0,0.2V20c0,1.2,0,1.9,0.1,2.1s0.1,0.5,0.3,0.6c0,0,0.1,0.1,0.2,0.2s0.2,0.2,0.2,0.3c0,0.1-0.2,0.2-0.7,0.2l-0.2,0h-0.2
		l-1,0h-0.1C31.1,23.4,30.9,23.3,30.9,23.2z"/>
	<path class="st1" d="M6,33.4v0.3c0,0.3-0.1,0.6-0.2,1c-0.3,0.8-0.8,1.3-1.6,1.6c-0.3,0.1-0.7,0.2-1,0.2H3.1c-0.7,0-1.4-0.2-1.9-0.8
		c-0.2-0.2-0.4-0.5-0.6-0.9s-0.2-0.8-0.2-1.2v-0.1c0-0.4,0.1-0.8,0.2-1.1c0.3-0.8,0.8-1.3,1.5-1.6c0.3-0.1,0.7-0.2,1-0.2h0.3
		c0.3,0,0.7,0.1,1,0.2c0.6,0.3,1.1,0.8,1.3,1.4C6,32.7,6,33.1,6,33.4z M1.8,33.4v0.2c0,0.7,0.1,1.2,0.4,1.7c0.1,0.2,0.3,0.4,0.5,0.5
		s0.4,0.2,0.6,0.2h0.1c0.4,0,0.7-0.2,0.9-0.5s0.4-0.8,0.4-1.5v-0.4c0-0.6-0.1-1.2-0.4-1.6s-0.6-0.7-1-0.7H3.1
		c-0.4,0-0.7,0.2-0.9,0.6S1.8,32.7,1.8,33.4z"/>
	<path class="st1" d="M8.7,36.5H8.3c-1.1,0-1.7-0.1-1.7-0.3c0-0.1,0.1-0.2,0.3-0.3s0.3-0.3,0.4-0.5s0.1-0.8,0.1-1.8s0-1.6-0.1-1.7
		S7.1,31.7,7,31.6s-0.2-0.2-0.2-0.3s0.1-0.2,0.3-0.5s0.3-0.5,0.4-0.8c0.2-0.8,0.4-1.3,0.7-1.7c0.4-0.4,1-0.7,1.7-0.7
		c0.4,0,0.6,0.1,0.8,0.2s0.3,0.3,0.3,0.5s-0.1,0.3-0.2,0.4S10.6,29,10.5,29s-0.3-0.1-0.6-0.2s-0.5-0.2-0.6-0.2
		c-0.2,0-0.4,0.1-0.5,0.4s-0.2,0.6-0.2,0.9s0.1,0.6,0.2,0.7c0,0.1,0.2,0.2,0.5,0.3s0.5,0.3,0.5,0.4c0,0.1-0.2,0.2-0.5,0.3
		s-0.5,0.2-0.6,0.3c-0.1,0.2-0.2,0.8-0.2,1.8s0,1.6,0.1,1.8S9,35.8,9.2,36s0.3,0.3,0.3,0.4C9.5,36.5,9.2,36.5,8.7,36.5z"/>
	<path class="st1" d="M5.5,41.2c0.7,0,1,0.4,1,1.2c0,0.2,0,0.3-0.1,0.3c-0.1,0-0.2-0.1-0.4-0.2s-0.3-0.2-0.5-0.2
		c-0.6-0.2-1-0.3-1.5-0.3s-0.7,0.1-0.9,0.3C3,42.6,2.9,43.2,2.9,44c0,0.3,0.1,0.5,0.3,0.6s0.4,0.2,0.7,0.2s0.5-0.1,0.8-0.3
		S5,44.3,5,44.3c0.2,0,0.3,0.1,0.4,0.2s0.1,0.4,0.1,0.7c0,0.6-0.1,0.9-0.4,0.9c-0.1,0-0.2-0.1-0.5-0.3s-0.5-0.3-0.7-0.3
		c-0.4,0-0.7,0.1-0.9,0.3C2.9,46,2.9,46.4,2.9,47s0.1,1.1,0.3,1.4c0.1,0.2,0.4,0.2,0.9,0.2s1-0.1,1.7-0.3c0.2-0.1,0.3-0.1,0.4-0.2
		s0.2-0.2,0.3-0.2s0.2-0.1,0.2-0.1c0.1,0,0.2,0.1,0.2,0.2v0.2c0,0.3-0.1,0.5-0.2,0.7s-0.2,0.3-0.3,0.4c-0.2,0.1-0.8,0.2-1.9,0.2H3.8
		l-0.3,0c-1.5,0-2.3,0-2.5,0s-0.3-0.1-0.3-0.3c0-0.1,0.1-0.2,0.3-0.3s0.3-0.3,0.4-0.5s0.1-1,0.1-2.4l0-2.3c0-0.8,0-1.2-0.1-1.4
		c0-0.1-0.2-0.2-0.4-0.3s-0.3-0.2-0.3-0.3c0-0.2,0.1-0.3,0.4-0.3c0.1,0,0.9,0,2.5,0l1.8,0H5.5z"/>
	<path class="st1" d="M8.3,49.4c-0.6,0-0.8-0.1-0.8-0.2c0-0.1,0.1-0.2,0.2-0.3c0.3-0.1,0.4-0.3,0.5-0.4s0.1-0.7,0.1-1.7
		s0-1.6-0.1-1.8S8,44.6,7.8,44.5s-0.2-0.2-0.2-0.3s0.1-0.1,0.2-0.2c0.2-0.1,0.6-0.2,1.2-0.2c0.2,0,0.3,0.1,0.4,0.2
		c0,0,0.1,0.1,0.1,0.3s0.1,0.2,0.1,0.2c0.1,0,0.2-0.1,0.3-0.2c0.5-0.4,1-0.5,1.5-0.5h0h0.2c0.3,0,0.6,0.1,0.9,0.2s0.5,0.4,0.6,0.7
		s0.2,1,0.2,2s0,1.6,0.1,1.8s0.2,0.2,0.4,0.3s0.3,0.2,0.3,0.3c0,0.2-0.6,0.3-1.7,0.3h-0.2c-0.4,0-0.5-0.1-0.5-0.3c0,0,0-0.1,0.1-0.3
		s0.1-0.3,0.2-0.4s0-0.7,0-1.6s-0.1-1.5-0.2-1.8c-0.2-0.4-0.4-0.5-0.8-0.5c-0.3,0-0.5,0.1-0.8,0.2S9.8,45,9.7,45.2S9.5,46,9.5,46.8
		s0,1.4,0.1,1.5s0.1,0.3,0.2,0.4l0.2,0.4c0,0.2-0.3,0.2-0.9,0.2l-0.4,0H8.3z"/>
	<path class="st1" d="M17,49.5h-0.1c-0.2,0-0.4-0.2-0.5-0.5c-0.1-0.2-0.4-0.8-0.8-2s-0.7-1.9-0.8-2s-0.3-0.3-0.5-0.5
		s-0.3-0.3-0.3-0.3c0-0.1,0.1-0.2,0.3-0.2s0.6-0.1,1.2-0.1s0.9,0.1,0.9,0.3c0,0,0,0.1-0.1,0.2s-0.1,0.2-0.1,0.4
		c0,0.5,0.3,1.5,0.9,2.9c0.1,0.3,0.2,0.4,0.2,0.4s0.1-0.1,0.2-0.4c0.6-1.4,0.9-2.4,0.9-2.9c0-0.1-0.1-0.3-0.2-0.4s-0.2-0.2-0.2-0.2
		c0-0.2,0.4-0.3,1.1-0.3h0.1c0.5,0,0.7,0.1,0.7,0.2c0,0.1-0.1,0.3-0.3,0.4s-0.4,0.3-0.5,0.5c-0.1,0.1-0.3,0.7-0.8,1.9
		s-0.8,1.9-0.9,2.2S17.2,49.5,17,49.5z"/>
	<path class="st1" d="M20.5,44.5c-0.2-0.1-0.3-0.2-0.3-0.3s0-0.2,0.1-0.2c0.3-0.2,0.7-0.3,1.4-0.3h0.2c0.2,0,0.3,0.1,0.4,0.3
		c0,0.1,0,0.8,0,2.1s0,2.1,0.1,2.3s0.2,0.3,0.4,0.4s0.3,0.2,0.3,0.3c0,0.1-0.5,0.2-1.5,0.2l-0.2,0h-0.7c-0.3,0-0.4-0.1-0.4-0.2
		c0-0.1,0.1-0.2,0.3-0.3s0.3-0.2,0.4-0.4c0.1-0.1,0.1-0.5,0.1-1l0-0.2v-0.2l0-0.3v-0.2l0-0.2c0-0.9,0-1.5-0.1-1.6
		S20.7,44.6,20.5,44.5z M22.4,41.9c0,0.2-0.1,0.3-0.2,0.5s-0.3,0.2-0.4,0.2c0,0-0.1,0-0.1,0l-0.1,0c-0.2,0-0.4-0.1-0.5-0.2
		s-0.2-0.3-0.2-0.5v-0.1c0-0.2,0.1-0.4,0.2-0.5s0.3-0.2,0.6-0.2h0l0.2,0c0.1,0,0.2,0.1,0.4,0.2s0.2,0.3,0.2,0.4l0,0.1V41.9z"/>
	<path class="st1" d="M26.4,49.2c0,0.2-0.4,0.2-1.1,0.2h-0.6l-0.2,0l-0.4,0c-0.4,0-0.6-0.1-0.6-0.2c0-0.1,0.1-0.2,0.3-0.3
		s0.3-0.3,0.4-0.5s0.1-0.7,0.1-1.7s0-1.5-0.1-1.7s-0.2-0.3-0.3-0.4c-0.2-0.2-0.3-0.3-0.3-0.3s0-0.1,0.1-0.2c0.2-0.2,0.7-0.2,1.2-0.2
		H25c0.2,0,0.4,0.1,0.5,0.3s0.2,0.3,0.2,0.3s0.2-0.1,0.3-0.2s0.3-0.2,0.5-0.3s0.4-0.2,0.7-0.2s0.4,0.1,0.6,0.2s0.2,0.3,0.2,0.5
		c0,0.2-0.1,0.4-0.2,0.5s-0.2,0.2-0.3,0.2s-0.3,0-0.5-0.1s-0.4-0.1-0.5-0.1s-0.3,0.1-0.4,0.2s-0.3,0.3-0.4,0.6s-0.2,0.7-0.2,1.4
		s0,1.1,0.1,1.3s0.2,0.4,0.4,0.5S26.4,49.1,26.4,49.2z"/>
	<path class="st1" d="M33.7,46.4v0.3c0,0.3-0.1,0.6-0.2,1c-0.3,0.8-0.8,1.3-1.6,1.6c-0.3,0.1-0.7,0.2-1,0.2h-0.2
		c-0.7,0-1.4-0.2-1.9-0.8c-0.2-0.2-0.4-0.5-0.6-0.9s-0.2-0.8-0.2-1.2v-0.1c0-0.4,0.1-0.8,0.2-1.1c0.3-0.8,0.8-1.3,1.5-1.6
		c0.3-0.1,0.7-0.2,1-0.2h0.3c0.3,0,0.7,0.1,1,0.2c0.6,0.3,1.1,0.8,1.3,1.4C33.7,45.7,33.7,46.1,33.7,46.4z M29.5,46.4v0.2
		c0,0.7,0.1,1.2,0.4,1.7c0.1,0.2,0.3,0.4,0.5,0.5s0.4,0.2,0.6,0.2H31c0.4,0,0.7-0.2,0.9-0.5s0.4-0.8,0.4-1.5v-0.4
		c0-0.6-0.1-1.2-0.4-1.6s-0.6-0.7-1-0.7h-0.2c-0.4,0-0.7,0.2-0.9,0.6S29.5,45.7,29.5,46.4z"/>
	<path class="st1" d="M35.1,49.4c-0.6,0-0.8-0.1-0.8-0.2c0-0.1,0.1-0.2,0.2-0.3c0.3-0.1,0.4-0.3,0.5-0.4s0.1-0.7,0.1-1.7
		s0-1.6-0.1-1.8s-0.2-0.3-0.3-0.4s-0.2-0.2-0.2-0.3s0.1-0.1,0.2-0.2c0.2-0.1,0.6-0.2,1.2-0.2c0.2,0,0.3,0.1,0.4,0.2
		c0,0,0.1,0.1,0.1,0.3s0.1,0.2,0.1,0.2c0.1,0,0.2-0.1,0.3-0.2c0.5-0.4,1-0.5,1.5-0.5h0h0.2c0.3,0,0.6,0.1,0.9,0.2s0.5,0.4,0.6,0.7
		s0.2,1,0.2,2s0,1.6,0.1,1.8s0.2,0.2,0.4,0.3s0.3,0.2,0.3,0.3c0,0.2-0.6,0.3-1.7,0.3h-0.2c-0.4,0-0.5-0.1-0.5-0.3c0,0,0-0.1,0.1-0.3
		s0.1-0.3,0.2-0.4s0-0.7,0-1.6s-0.1-1.5-0.2-1.8c-0.2-0.4-0.4-0.5-0.8-0.5c-0.3,0-0.5,0.1-0.8,0.2s-0.4,0.3-0.5,0.5
		s-0.2,0.8-0.2,1.6s0,1.4,0.1,1.5s0.1,0.3,0.2,0.4l0.2,0.4c0,0.2-0.3,0.2-0.9,0.2l-0.4,0H35.1z"/>
	<path class="st1" d="M45.3,48.3c0-0.2,0-0.7,0-1.6s-0.1-1.5-0.2-1.7s-0.4-0.4-0.8-0.4c-0.2,0-0.5,0.1-0.7,0.3s-0.4,0.4-0.5,0.6
		s-0.1,0.7-0.1,1.5s0,1.2,0,1.4s0,0.3,0.1,0.4l0.1,0.1c0.1,0.1,0.1,0.2,0.1,0.3c0,0.1-0.3,0.2-0.9,0.2s-1-0.1-1.2-0.2l-0.1-0.1
		c0-0.1,0-0.2,0.1-0.3c0.2-0.2,0.4-0.4,0.4-0.5s0.1-0.7,0.1-1.7s-0.1-1.6-0.3-1.9l-0.1-0.2c-0.1-0.1-0.2-0.2-0.2-0.3
		s0.1-0.1,0.2-0.2s0.4-0.1,0.7-0.1s0.5,0.1,0.7,0.2s0.3,0.2,0.3,0.2l0.2-0.1l0.4-0.3c0.4-0.2,0.7-0.3,1.1-0.3s0.7,0.1,1.1,0.3
		s0.6,0.3,0.6,0.3l0.2-0.1l0.2-0.1c0.2-0.1,0.4-0.2,0.6-0.3c0.2-0.1,0.5-0.1,0.8-0.1c0.6,0,1.1,0.3,1.4,0.8c0.2,0.4,0.3,1.3,0.3,2.7
		c0,0.6,0,1,0.1,1.1s0.1,0.2,0.3,0.4s0.3,0.2,0.3,0.2v0.1l-0.1,0.1c-0.2,0.1-0.7,0.2-1.4,0.2c-0.4,0-0.6-0.1-0.6-0.3
		c0,0,0-0.1,0.1-0.3s0.1-0.3,0.1-0.4s0-0.6,0-1.5s0-1.5-0.1-1.7s-0.2-0.4-0.3-0.5s-0.3-0.2-0.6-0.2s-0.5,0.1-0.7,0.2
		s-0.3,0.3-0.4,0.5s-0.1,0.7-0.1,1.6s0,1.4,0.1,1.5s0.2,0.3,0.3,0.4s0.2,0.2,0.2,0.3c0,0.2-0.3,0.3-1,0.3h-0.8
		c-0.4,0-0.6-0.1-0.6-0.2s0.1-0.2,0.2-0.3C45.2,48.6,45.3,48.5,45.3,48.3z"/>
	<path class="st1" d="M52.5,47.1c0,0.4,0.2,0.8,0.5,1.1s0.8,0.5,1.3,0.5c0.2,0,0.4,0,0.6-0.1s0.4-0.1,0.6-0.2s0.3-0.1,0.4-0.1
		c0.2,0,0.2,0.1,0.2,0.3c0,0.2-0.3,0.5-0.9,0.7c-0.4,0.2-0.8,0.3-1.2,0.3h-0.1c-0.7,0-1.3-0.2-1.8-0.7c-0.3-0.2-0.5-0.6-0.6-0.9
		s-0.2-0.8-0.2-1.2l0-0.1v-0.1c0-0.4,0.1-0.7,0.3-1.1c0.2-0.4,0.4-0.7,0.6-0.9c0.5-0.5,1.1-0.7,1.8-0.7c1.1,0,1.8,0.4,2.1,1.2
		c0.1,0.3,0.2,0.5,0.2,0.7v0.1c0,0.3-0.1,0.5-0.3,0.5s-0.7,0.2-1.6,0.2s-1.3,0.1-1.3,0.1C52.7,46.7,52.5,46.9,52.5,47.1z M55,45.6
		v-0.2c0-0.3-0.1-0.5-0.3-0.8s-0.5-0.3-0.8-0.3h-0.1c-0.1,0-0.1,0-0.1,0c-0.3,0-0.5,0.2-0.8,0.5s-0.4,0.6-0.4,1v0.1
		c0,0.1,0.1,0.2,0.2,0.2c0.1,0,0.1,0,0.1,0l0.1,0h0l0,0l1.1-0.1l0.2,0C54.8,46,55,45.8,55,45.6z"/>
	<path class="st1" d="M57.6,49.4c-0.6,0-0.8-0.1-0.8-0.2c0-0.1,0.1-0.2,0.2-0.3c0.3-0.1,0.4-0.3,0.5-0.4s0.1-0.7,0.1-1.7
		s0-1.6-0.1-1.8s-0.2-0.3-0.3-0.4s-0.2-0.2-0.2-0.3s0.1-0.1,0.2-0.2c0.2-0.1,0.6-0.2,1.2-0.2c0.2,0,0.3,0.1,0.4,0.2
		c0,0,0.1,0.1,0.1,0.3s0.1,0.2,0.1,0.2c0.1,0,0.2-0.1,0.3-0.2c0.5-0.4,1-0.5,1.5-0.5h0h0.2c0.3,0,0.6,0.1,0.9,0.2s0.5,0.4,0.6,0.7
		s0.2,1,0.2,2s0,1.6,0.1,1.8s0.2,0.2,0.4,0.3s0.3,0.2,0.3,0.3c0,0.2-0.6,0.3-1.7,0.3h-0.2c-0.4,0-0.5-0.1-0.5-0.3c0,0,0-0.1,0.1-0.3
		s0.1-0.3,0.2-0.4s0-0.7,0-1.6S61.2,45.3,61,45c-0.2-0.4-0.4-0.5-0.8-0.5c-0.3,0-0.5,0.1-0.8,0.2S59.1,45,59,45.2s-0.2,0.8-0.2,1.6
		s0,1.4,0.1,1.5s0.1,0.3,0.2,0.4l0.2,0.4c0,0.2-0.3,0.2-0.9,0.2l-0.4,0H57.6z"/>
	<path class="st1" d="M66.1,48.6l0.9-0.1c0.1,0,0.2,0.1,0.2,0.2s-0.2,0.3-0.5,0.5s-0.6,0.3-0.9,0.3h-0.1c-0.3,0-0.5-0.1-0.7-0.2
		s-0.4-0.3-0.5-0.5c-0.2-0.3-0.3-1-0.3-2s0-1.6-0.1-1.8s-0.2-0.4-0.3-0.5c-0.2-0.2-0.3-0.3-0.3-0.3c0-0.1,0.1-0.2,0.2-0.3
		c0.3-0.2,0.4-0.3,0.4-0.3s0.2-0.3,0.4-1c0.1-0.3,0.3-0.5,0.5-0.5s0.3,0.1,0.3,0.2c0,0,0,0.2,0.1,0.5s0.1,0.5,0.2,0.6
		s0.3,0.2,0.7,0.3s0.5,0.2,0.5,0.3s-0.2,0.3-0.6,0.3s-0.6,0.2-0.7,0.3c-0.1,0.2-0.2,0.8-0.2,1.7s0,1.5,0.1,1.8
		C65.7,48.5,65.9,48.6,66.1,48.6z"/>
	<path class="st1" d="M67.7,44.8c0-0.3,0.2-0.5,0.7-0.8s0.9-0.3,1.4-0.3c0,0,0,0,0,0c0.5,0,0.8,0.1,1.1,0.2c0.6,0.2,0.9,0.7,1,1.4
		c0,0.1,0,0.6,0,1.5s0,1.4,0.1,1.6s0.2,0.3,0.4,0.3s0.3,0.1,0.3,0.2c0,0.1-0.1,0.2-0.2,0.3c-0.3,0.1-0.6,0.2-0.8,0.2
		s-0.5-0.1-0.6-0.2c-0.2-0.2-0.4-0.3-0.4-0.3s-0.2,0.1-0.7,0.3s-0.8,0.3-1.1,0.3c-0.5,0-0.9-0.1-1.1-0.4s-0.4-0.6-0.4-1V48
		c0-0.4,0.2-0.8,0.5-1.1s1-0.5,1.9-0.7c0.3-0.1,0.5-0.1,0.6-0.2c0.2-0.1,0.3-0.3,0.3-0.7s-0.1-0.6-0.3-0.8s-0.4-0.3-0.7-0.3
		s-0.6,0.2-0.9,0.5s-0.5,0.5-0.8,0.5C67.9,45.4,67.7,45.2,67.7,44.8z M70.6,46.7L70.6,46.7c-0.6,0-1,0.1-1.4,0.3s-0.5,0.5-0.5,0.9
		V48c0,0.2,0.1,0.4,0.2,0.5s0.3,0.2,0.5,0.2l0.1,0h0.2c0.4,0,0.7-0.2,1-0.5c0.1-0.1,0.2-0.4,0.2-0.9c0,0,0-0.1,0-0.1l0-0.1V47
		C70.8,46.8,70.7,46.7,70.6,46.7z"/>
	<path class="st1" d="M73.2,49.2c0-0.1,0.1-0.2,0.3-0.3s0.3-0.3,0.4-0.6S74,47,74,45.1s0-2.8-0.1-3.1s-0.1-0.4-0.3-0.5
		c-0.3-0.2-0.4-0.3-0.4-0.3v-0.1c0-0.1,0.1-0.1,0.2-0.2c0.4-0.2,0.8-0.2,1.4-0.2h0.1c0.2,0,0.3,0.1,0.3,0.4c0,0,0,0.3,0,0.9v1.3
		l0,0.2v0.4l0,0.2V46c0,1.2,0,1.9,0.1,2.1s0.1,0.5,0.3,0.6c0,0,0.1,0.1,0.2,0.2s0.2,0.2,0.2,0.3c0,0.1-0.2,0.2-0.7,0.2l-0.2,0h-0.2
		l-1,0h-0.1C73.4,49.4,73.2,49.3,73.2,49.2z"/>
	<path class="st1" d="M0.7,57.8c0-0.3,0.2-0.5,0.7-0.8s0.9-0.3,1.4-0.3c0,0,0,0,0,0c0.5,0,0.8,0.1,1.1,0.2c0.6,0.2,0.9,0.7,1,1.4
		c0,0.1,0,0.6,0,1.5s0,1.4,0.1,1.6s0.2,0.3,0.4,0.3s0.3,0.1,0.3,0.2c0,0.1-0.1,0.2-0.2,0.3c-0.3,0.1-0.6,0.2-0.8,0.2
		s-0.5-0.1-0.6-0.2c-0.2-0.2-0.4-0.3-0.4-0.3S3.6,62,3.1,62.2S2.3,62.5,2,62.5c-0.5,0-0.9-0.1-1.1-0.4s-0.4-0.6-0.4-1V61
		c0-0.4,0.2-0.8,0.5-1.1s1-0.5,1.9-0.7c0.3-0.1,0.5-0.1,0.6-0.2c0.2-0.1,0.3-0.3,0.3-0.7s-0.1-0.6-0.3-0.8s-0.4-0.3-0.7-0.3
		s-0.6,0.2-0.9,0.5s-0.5,0.5-0.8,0.5C0.9,58.4,0.7,58.2,0.7,57.8z M3.6,59.7L3.6,59.7c-0.6,0-1,0.1-1.4,0.3s-0.5,0.5-0.5,0.9V61
		c0,0.2,0.1,0.4,0.2,0.5s0.3,0.2,0.5,0.2l0.1,0h0.2c0.4,0,0.7-0.2,1-0.5c0.1-0.1,0.2-0.4,0.2-0.9c0,0,0-0.1,0-0.1l0-0.1V60
		C3.8,59.8,3.7,59.7,3.6,59.7z"/>
	<path class="st1" d="M7.1,62.4c-0.6,0-0.8-0.1-0.8-0.2c0-0.1,0.1-0.2,0.2-0.3c0.3-0.1,0.4-0.3,0.5-0.4S7,60.7,7,59.7s0-1.6-0.1-1.8
		s-0.2-0.3-0.3-0.4s-0.2-0.2-0.2-0.3s0.1-0.1,0.2-0.2c0.2-0.1,0.6-0.2,1.2-0.2C7.8,56.8,8,56.9,8,57c0,0,0.1,0.1,0.1,0.3
		s0.1,0.2,0.1,0.2c0.1,0,0.2-0.1,0.3-0.2c0.5-0.4,1-0.5,1.5-0.5h0h0.2c0.3,0,0.6,0.1,0.9,0.2s0.5,0.4,0.6,0.7s0.2,1,0.2,2
		s0,1.6,0.1,1.8s0.2,0.2,0.4,0.3s0.3,0.2,0.3,0.3c0,0.2-0.6,0.3-1.7,0.3h-0.2c-0.4,0-0.5-0.1-0.5-0.3c0,0,0-0.1,0.1-0.3
		s0.1-0.3,0.2-0.4s0-0.7,0-1.6s-0.1-1.5-0.2-1.8c-0.2-0.4-0.4-0.5-0.8-0.5c-0.3,0-0.5,0.1-0.8,0.2S8.6,58,8.4,58.2S8.3,59,8.3,59.8
		s0,1.4,0.1,1.5s0.1,0.3,0.2,0.4l0.2,0.4c0,0.2-0.3,0.2-0.9,0.2l-0.4,0H7.1z"/>
	<path class="st1" d="M17,56.7c0-0.1,0.1-0.3,0.1-0.8s0-0.7-0.1-0.9s-0.2-0.4-0.3-0.5s-0.2-0.2-0.2-0.3s0-0.1,0.1-0.2
		c0.2-0.1,0.6-0.2,1.2-0.2h0.1c0.3,0,0.4,0.1,0.5,0.4c0,0.1,0,1.2,0,3.3s0,3.3,0,3.5s0.1,0.4,0.2,0.5c0,0,0.1,0.1,0.2,0.2
		S19,62,19,62.1s-0.1,0.1-0.2,0.2c-0.2,0.1-0.6,0.2-1.1,0.2c-0.2,0-0.3-0.1-0.4-0.2C17.1,62.1,17,62,17,62s-0.1,0-0.3,0.1
		s-0.4,0.2-0.6,0.3s-0.5,0.1-0.8,0.1s-0.6-0.1-0.9-0.2c-0.5-0.3-0.9-0.7-1.1-1.3c-0.1-0.4-0.2-0.8-0.2-1.2c0-0.9,0.3-1.6,0.8-2.2
		s1.2-0.8,2.1-0.8l0.8,0.1C16.9,56.9,17,56.8,17,56.7z M17,58.4c0-0.3-0.1-0.6-0.3-0.8s-0.5-0.3-0.8-0.3h-0.1
		c-0.2,0-0.4,0.1-0.6,0.2s-0.4,0.3-0.5,0.5c-0.3,0.4-0.4,0.9-0.4,1.5v0.3c0,0.6,0.1,1.1,0.4,1.5s0.6,0.6,1,0.6h0.2
		c0.3,0,0.6-0.1,0.8-0.3S17,61,17,60.6l0-0.1v-0.1l0-0.3c0-0.2,0-0.4,0-0.6l0-0.2v-0.2l0-0.1v-0.3l0-0.1v-0.1
		C17,58.5,17,58.4,17,58.4z"/>
	<path class="st1" d="M8.8,75.2c0,0.2-0.3,0.2-0.8,0.2H7.7l-0.3,0c-0.5,0-0.9,0-1.1-0.1S6,75.2,6,75.1c0,0,0.1-0.1,0.2-0.3
		s0.2-0.4,0.3-0.6s0.1-0.7,0.1-1.3s-0.1-1-0.2-1.2s-0.7-0.2-1.7-0.2S3.2,71.6,3,71.8c-0.1,0.1-0.2,0.5-0.2,1.2s0,1.1,0.1,1.3
		s0.1,0.4,0.2,0.5l0.1,0.1c0.1,0.1,0.2,0.2,0.2,0.2c0,0.1-0.1,0.2-0.4,0.3c-0.1,0-0.5,0-1.3,0s-1.2-0.1-1.2-0.3
		c0-0.1,0.2-0.2,0.5-0.4c0.2-0.1,0.3-0.3,0.4-0.5s0.1-1.2,0.1-2.8s0-2.6-0.1-2.9S1.2,68,1,67.9s-0.3-0.3-0.3-0.4
		c0-0.2,0.5-0.2,1.5-0.2h0.6c0.5,0,0.8,0.1,0.8,0.3c0,0-0.1,0.1-0.2,0.3S3,68.2,3,68.4s-0.1,0.6-0.1,1.2s0.1,0.9,0.2,1
		s0.7,0.2,1.6,0.2s1.5-0.1,1.7-0.2c0.1-0.1,0.1-0.4,0.1-1s0-1-0.1-1.1S6.4,68.1,6.3,68l-0.1-0.1C6,67.7,6,67.6,6,67.6
		c0-0.1,0.1-0.2,0.3-0.3s0.7,0,1.4,0s1.1,0.1,1.1,0.2c0,0.1-0.1,0.2-0.2,0.3c-0.3,0.2-0.5,0.4-0.5,0.4C8.1,68.4,8,69.2,8,70.5l0,2.9
		c0,0.5,0,0.9,0.1,1s0.2,0.3,0.3,0.4C8.7,75,8.8,75.1,8.8,75.2z"/>
	<path class="st1" d="M15.3,74.8c0.2,0.1,0.3,0.2,0.3,0.3s0,0.1-0.1,0.2c-0.2,0.2-0.5,0.2-1.1,0.2c-0.2,0-0.3,0-0.4-0.1
		s-0.2-0.2-0.3-0.3s-0.1-0.2-0.2-0.2c-0.1,0-0.2,0.1-0.3,0.2c-0.5,0.4-1,0.5-1.4,0.5c0,0,0,0,0,0h-0.2c-0.6,0-1.1-0.3-1.4-0.8
		c-0.1-0.3-0.2-1-0.2-2.1s0-1.7-0.1-1.8s-0.2-0.2-0.4-0.3s-0.3-0.2-0.3-0.2c0-0.1,0.1-0.2,0.2-0.3c0.3-0.1,0.7-0.1,1.2-0.1
		c0.3,0,0.4,0.1,0.5,0.3c0.1,0.3,0.1,1,0.1,2s0,1.7,0.1,2c0.2,0.4,0.5,0.6,0.9,0.6c0.2,0,0.4-0.1,0.7-0.2s0.4-0.3,0.5-0.5
		s0.2-0.7,0.2-1.6s0-1.4-0.1-1.6s-0.1-0.4-0.3-0.5s-0.2-0.2-0.2-0.3c0-0.2,0.5-0.3,1.4-0.3c0.2,0,0.3,0,0.4,0.1s0.1,0.2,0.1,0.5
		l0,0.3l0,1.6c0,1,0,1.6,0.1,1.9S15.1,74.6,15.3,74.8z"/>
	<path class="st1" d="M20.2,74.3c0-0.2,0-0.7,0-1.6s-0.1-1.5-0.2-1.7s-0.4-0.4-0.8-0.4c-0.2,0-0.5,0.1-0.7,0.3s-0.4,0.4-0.5,0.6
		S18,72.1,18,72.9s0,1.2,0,1.4s0,0.3,0.1,0.4l0.1,0.1c0.1,0.1,0.1,0.2,0.1,0.3c0,0.1-0.3,0.2-0.9,0.2s-1-0.1-1.2-0.2l-0.1-0.1
		c0-0.1,0-0.2,0.1-0.3c0.2-0.2,0.4-0.4,0.4-0.5s0.1-0.7,0.1-1.7s-0.1-1.6-0.3-1.9l-0.1-0.2c-0.1-0.1-0.2-0.2-0.2-0.3
		s0.1-0.1,0.2-0.2s0.4-0.1,0.7-0.1s0.5,0.1,0.7,0.2s0.3,0.2,0.3,0.2l0.2-0.1l0.4-0.3c0.4-0.2,0.7-0.3,1.1-0.3s0.7,0.1,1.1,0.3
		s0.6,0.3,0.6,0.3l0.2-0.1l0.2-0.1c0.2-0.1,0.4-0.2,0.6-0.3c0.2-0.1,0.5-0.1,0.8-0.1c0.6,0,1.1,0.3,1.4,0.8c0.2,0.4,0.3,1.3,0.3,2.7
		c0,0.6,0,1,0.1,1.1s0.1,0.2,0.3,0.4s0.3,0.2,0.3,0.2v0.1l-0.1,0.1c-0.2,0.1-0.7,0.2-1.4,0.2c-0.4,0-0.6-0.1-0.6-0.3
		c0,0,0-0.1,0.1-0.3s0.1-0.3,0.1-0.4s0-0.6,0-1.5s0-1.5-0.1-1.7s-0.2-0.4-0.3-0.5s-0.3-0.2-0.6-0.2s-0.5,0.1-0.7,0.2
		s-0.3,0.3-0.4,0.5s-0.1,0.7-0.1,1.6s0,1.4,0.1,1.5s0.2,0.3,0.3,0.4s0.2,0.2,0.2,0.3c0,0.2-0.3,0.3-1,0.3h-0.8
		c-0.4,0-0.6-0.1-0.6-0.2s0.1-0.2,0.2-0.3C20.1,74.6,20.2,74.5,20.2,74.3z"/>
	<path class="st1" d="M26.4,70.8c0-0.3,0.2-0.5,0.7-0.8s0.9-0.3,1.4-0.3c0,0,0,0,0,0c0.5,0,0.8,0.1,1.1,0.2c0.6,0.2,0.9,0.7,1,1.4
		c0,0.1,0,0.6,0,1.5s0,1.4,0.1,1.6s0.2,0.3,0.4,0.3s0.3,0.1,0.3,0.2c0,0.1-0.1,0.2-0.2,0.3c-0.3,0.1-0.6,0.2-0.8,0.2
		s-0.5-0.1-0.6-0.2c-0.2-0.2-0.4-0.3-0.4-0.3s-0.2,0.1-0.7,0.3s-0.8,0.3-1.1,0.3c-0.5,0-0.9-0.1-1.1-0.4s-0.4-0.6-0.4-1V74
		c0-0.4,0.2-0.8,0.5-1.1s1-0.5,1.9-0.7c0.3-0.1,0.5-0.1,0.6-0.2c0.2-0.1,0.3-0.3,0.3-0.7s-0.1-0.6-0.3-0.8s-0.4-0.3-0.7-0.3
		s-0.6,0.2-0.9,0.5s-0.5,0.5-0.8,0.5C26.5,71.4,26.4,71.2,26.4,70.8z M29.3,72.7L29.3,72.7c-0.6,0-1,0.1-1.4,0.3s-0.5,0.5-0.5,0.9
		V74c0,0.2,0.1,0.4,0.2,0.5s0.3,0.2,0.5,0.2l0.1,0h0.2c0.4,0,0.7-0.2,1-0.5c0.1-0.1,0.2-0.4,0.2-0.9c0,0,0-0.1,0-0.1l0-0.1V73
		C29.4,72.8,29.4,72.7,29.3,72.7z"/>
	<path class="st1" d="M32.8,75.4c-0.6,0-0.8-0.1-0.8-0.2c0-0.1,0.1-0.2,0.2-0.3c0.3-0.1,0.4-0.3,0.5-0.4s0.1-0.7,0.1-1.7
		s0-1.6-0.1-1.8s-0.2-0.3-0.3-0.4S32,70.3,32,70.2s0.1-0.1,0.2-0.2c0.2-0.1,0.6-0.2,1.2-0.2c0.2,0,0.3,0.1,0.4,0.2
		c0,0,0.1,0.1,0.1,0.3s0.1,0.2,0.1,0.2c0.1,0,0.2-0.1,0.3-0.2c0.5-0.4,1-0.5,1.5-0.5h0H36c0.3,0,0.6,0.1,0.9,0.2s0.5,0.4,0.6,0.7
		s0.2,1,0.2,2s0,1.6,0.1,1.8s0.2,0.2,0.4,0.3s0.3,0.2,0.3,0.3c0,0.2-0.6,0.3-1.7,0.3h-0.2c-0.4,0-0.5-0.1-0.5-0.3c0,0,0-0.1,0.1-0.3
		s0.1-0.3,0.2-0.4s0-0.7,0-1.6s-0.1-1.5-0.2-1.8c-0.2-0.4-0.4-0.5-0.8-0.5c-0.3,0-0.5,0.1-0.8,0.2s-0.4,0.3-0.5,0.5
		s-0.2,0.8-0.2,1.6s0,1.4,0.1,1.5s0.1,0.3,0.2,0.4l0.2,0.4c0,0.2-0.3,0.2-0.9,0.2l-0.4,0H32.8z"/>
	<path class="st1" d="M44.1,67.8c-0.4,0-0.7,0.1-1,0.3s-0.4,0.5-0.4,0.9s0.2,0.7,0.6,1c0.2,0.2,0.7,0.4,1.4,0.7s1.2,0.6,1.5,0.8
		c0.5,0.5,0.8,1,0.8,1.5v0.2c0,0.6-0.3,1.2-0.8,1.6c-0.2,0.2-0.5,0.3-0.9,0.4s-0.7,0.2-1.1,0.2H44c-0.8,0-1.5-0.1-2.1-0.4
		c-0.3-0.1-0.4-0.4-0.4-0.9V74c0-0.6,0.1-0.9,0.3-0.9c0.1,0,0.3,0.2,0.6,0.6s0.5,0.7,0.8,0.8s0.7,0.3,1.1,0.3s0.8-0.1,1-0.3
		s0.4-0.5,0.4-0.8c0-0.5-0.2-0.8-0.6-1.2c-0.2-0.1-0.6-0.4-1.4-0.7s-1.2-0.7-1.5-1c-0.4-0.4-0.6-0.9-0.6-1.5s0.2-1.1,0.6-1.5
		c0.2-0.2,0.5-0.4,0.9-0.5s0.7-0.2,1.1-0.2h0.2c0.1,0,0.4,0,0.6,0.1l0.2,0c0.2,0,0.4,0.1,0.4,0.1l0.2,0l0.2,0c0.2,0,0.3,0,0.3,0.1
		c0.2,0.1,0.3,0.4,0.3,1s-0.1,0.8-0.3,0.8c-0.1,0-0.3-0.2-0.5-0.5s-0.4-0.5-0.6-0.6C44.9,67.9,44.5,67.8,44.1,67.8z"/>
	<path class="st1" d="M51.9,71.4c-0.2,0-0.4-0.2-0.7-0.5s-0.6-0.5-1-0.5s-0.7,0.2-1,0.6s-0.4,0.9-0.4,1.6s0.2,1.2,0.5,1.6
		s0.7,0.6,1.2,0.6c0.3,0,0.5,0,0.7-0.1s0.4-0.1,0.5-0.2s0.3-0.1,0.3-0.1c0.1,0,0.2,0.1,0.2,0.2c0,0.2-0.2,0.5-0.7,0.7
		s-0.9,0.3-1.3,0.3c-0.8,0-1.5-0.3-2-0.8c-0.2-0.2-0.4-0.5-0.5-0.8s-0.2-0.7-0.2-1.1v-0.3c0,0,0,0,0,0c0,0,0,0,0,0
		c0-0.3,0.1-0.7,0.2-1.1c0.3-0.7,0.8-1.2,1.5-1.5c0.4-0.2,0.8-0.2,1.2-0.2h0.1c0.5,0,1,0.1,1.3,0.3c0.3,0.1,0.4,0.4,0.4,0.7
		c0,0.2,0,0.4-0.1,0.5S52,71.4,51.9,71.4z"/>
	<path class="st1" d="M53.1,70.5c-0.2-0.1-0.3-0.2-0.3-0.3s0-0.2,0.1-0.2c0.3-0.2,0.7-0.3,1.4-0.3h0.2c0.2,0,0.3,0.1,0.4,0.3
		c0,0.1,0,0.8,0,2.1s0,2.1,0.1,2.3s0.2,0.3,0.4,0.4s0.3,0.2,0.3,0.3c0,0.1-0.5,0.2-1.5,0.2l-0.2,0h-0.7c-0.3,0-0.4-0.1-0.4-0.2
		c0-0.1,0.1-0.2,0.3-0.3s0.3-0.2,0.4-0.4c0.1-0.1,0.1-0.5,0.1-1l0-0.2v-0.2l0-0.3v-0.2l0-0.2c0-0.9,0-1.5-0.1-1.6
		S53.3,70.6,53.1,70.5z M55,67.9c0,0.2-0.1,0.3-0.2,0.5s-0.3,0.2-0.4,0.2c0,0-0.1,0-0.1,0l-0.1,0c-0.2,0-0.4-0.1-0.5-0.2
		s-0.2-0.3-0.2-0.5v-0.1c0-0.2,0.1-0.4,0.2-0.5s0.3-0.2,0.6-0.2h0l0.2,0c0.1,0,0.2,0.1,0.4,0.2s0.2,0.3,0.2,0.4l0,0.1V67.9z"/>
	<path class="st1" d="M57.4,73.1c0,0.4,0.2,0.8,0.5,1.1s0.8,0.5,1.3,0.5c0.2,0,0.4,0,0.6-0.1s0.4-0.1,0.6-0.2s0.3-0.1,0.4-0.1
		c0.2,0,0.2,0.1,0.2,0.3c0,0.2-0.3,0.5-0.9,0.7c-0.4,0.2-0.8,0.3-1.2,0.3h-0.1c-0.7,0-1.3-0.2-1.8-0.7c-0.3-0.2-0.5-0.6-0.6-0.9
		S56,73.1,56,72.7l0-0.1v-0.1c0-0.4,0.1-0.7,0.3-1.1c0.2-0.4,0.4-0.7,0.6-0.9c0.5-0.5,1.1-0.7,1.8-0.7c1.1,0,1.8,0.4,2.1,1.2
		c0.1,0.3,0.2,0.5,0.2,0.7v0.1c0,0.3-0.1,0.5-0.3,0.5s-0.7,0.2-1.6,0.2s-1.3,0.1-1.3,0.1C57.5,72.7,57.4,72.9,57.4,73.1z M59.8,71.6
		v-0.2c0-0.3-0.1-0.5-0.3-0.8s-0.5-0.3-0.8-0.3h-0.1c-0.1,0-0.1,0-0.1,0c-0.3,0-0.5,0.2-0.8,0.5s-0.4,0.6-0.4,1v0.1
		c0,0.1,0.1,0.2,0.2,0.2c0.1,0,0.1,0,0.1,0l0.1,0h0l0,0L59,72l0.2,0C59.6,72,59.8,71.8,59.8,71.6z"/>
	<path class="st1" d="M62.4,75.4c-0.6,0-0.8-0.1-0.8-0.2c0-0.1,0.1-0.2,0.2-0.3c0.3-0.1,0.4-0.3,0.5-0.4s0.1-0.7,0.1-1.7
		s0-1.6-0.1-1.8s-0.2-0.3-0.3-0.4s-0.2-0.2-0.2-0.3s0.1-0.1,0.2-0.2c0.2-0.1,0.6-0.2,1.2-0.2c0.2,0,0.3,0.1,0.4,0.2
		c0,0,0.1,0.1,0.1,0.3s0.1,0.2,0.1,0.2c0.1,0,0.2-0.1,0.3-0.2c0.5-0.4,1-0.5,1.5-0.5h0h0.2c0.3,0,0.6,0.1,0.9,0.2s0.5,0.4,0.6,0.7
		s0.2,1,0.2,2s0,1.6,0.1,1.8s0.2,0.2,0.4,0.3s0.3,0.2,0.3,0.3c0,0.2-0.6,0.3-1.7,0.3h-0.2c-0.4,0-0.5-0.1-0.5-0.3c0,0,0-0.1,0.1-0.3
		s0.1-0.3,0.2-0.4s0-0.7,0-1.6S66,71.3,65.9,71c-0.2-0.4-0.4-0.5-0.8-0.5c-0.3,0-0.5,0.1-0.8,0.2s-0.4,0.3-0.5,0.5s-0.2,0.8-0.2,1.6
		s0,1.4,0.1,1.5s0.1,0.3,0.2,0.4l0.2,0.4c0,0.2-0.3,0.2-0.9,0.2l-0.4,0H62.4z"/>
	<path class="st1" d="M72.7,71.4c-0.2,0-0.4-0.2-0.7-0.5s-0.6-0.5-1-0.5s-0.7,0.2-1,0.6s-0.4,0.9-0.4,1.6s0.2,1.2,0.5,1.6
		s0.7,0.6,1.2,0.6c0.3,0,0.5,0,0.7-0.1s0.4-0.1,0.5-0.2s0.3-0.1,0.3-0.1c0.1,0,0.2,0.1,0.2,0.2c0,0.2-0.2,0.5-0.7,0.7
		s-0.9,0.3-1.3,0.3c-0.8,0-1.5-0.3-2-0.8c-0.2-0.2-0.4-0.5-0.5-0.8s-0.2-0.7-0.2-1.1v-0.3c0,0,0,0,0,0c0,0,0,0,0,0
		c0-0.3,0.1-0.7,0.2-1.1c0.3-0.7,0.8-1.2,1.5-1.5c0.4-0.2,0.8-0.2,1.2-0.2h0.1c0.5,0,1,0.1,1.3,0.3c0.3,0.1,0.4,0.4,0.4,0.7
		c0,0.2,0,0.4-0.1,0.5S72.8,71.4,72.7,71.4z"/>
	<path class="st1" d="M74.9,73.1c0,0.4,0.2,0.8,0.5,1.1s0.8,0.5,1.3,0.5c0.2,0,0.4,0,0.6-0.1s0.4-0.1,0.6-0.2s0.3-0.1,0.4-0.1
		c0.2,0,0.2,0.1,0.2,0.3c0,0.2-0.3,0.5-0.9,0.7c-0.4,0.2-0.8,0.3-1.2,0.3h-0.1c-0.7,0-1.3-0.2-1.8-0.7c-0.3-0.2-0.5-0.6-0.6-0.9
		s-0.2-0.8-0.2-1.2l0-0.1v-0.1c0-0.4,0.1-0.7,0.3-1.1c0.2-0.4,0.4-0.7,0.6-0.9c0.5-0.5,1.1-0.7,1.8-0.7c1.1,0,1.8,0.4,2.1,1.2
		c0.1,0.3,0.2,0.5,0.2,0.7v0.1c0,0.3-0.1,0.5-0.3,0.5s-0.7,0.2-1.6,0.2s-1.3,0.1-1.3,0.1C75.1,72.7,74.9,72.9,74.9,73.1z M77.4,71.6
		v-0.2c0-0.3-0.1-0.5-0.3-0.8s-0.5-0.3-0.8-0.3h-0.1c-0.1,0-0.1,0-0.1,0c-0.3,0-0.5,0.2-0.8,0.5s-0.4,0.6-0.4,1v0.1
		c0,0.1,0.1,0.2,0.2,0.2c0.1,0,0.1,0,0.1,0l0.1,0h0l0,0l1.1-0.1l0.2,0C77.2,72,77.4,71.8,77.4,71.6z"/>
</g>
</svg>
