<?xml version="1.0" encoding="utf-8"?>
<!-- Generator: Adobe Illustrator 22.0.1, SVG Export Plug-In . SVG Version: 6.00 Build 0)  -->
<svg version="1.1" id="レイヤー_1" xmlns="http://www.w3.org/2000/svg" xmlns:xlink="http://www.w3.org/1999/xlink" x="0px"
	 y="0px" viewBox="0 0 80 78" style="enable-background:new 0 0 80 78;" xml:space="preserve">
<style type="text/css">
	.st0{enable-background:new    ;}
	.st1{fill:#989898;}
</style>
<title></title>
<g id="icomoon-ignore">
</g>
<g class="st0">
	<path class="st1" d="M5.4,9.3c1.3,0,2.2,0.1,2.8,0.3c0.1,0,0.3,0.2,0.4,0.3s0.2,0.5,0.2,0.9s-0.1,0.7-0.2,0.8l-0.1,0.1
		c-0.1,0-0.3-0.2-0.6-0.5c-0.7-0.7-1.4-1.1-2.4-1.1c-0.9,0-1.6,0.4-2.2,1.1c-0.5,0.7-0.8,1.7-0.8,2.9c0,1.2,0.3,2.2,0.9,2.9
		c0.6,0.8,1.3,1.1,2.3,1.1c0.6,0,1-0.1,1.3-0.4s0.4-0.8,0.4-1.5c0-0.3-0.1-0.5-0.2-0.8c0-0.1-0.1-0.2-0.3-0.3
		c-0.1-0.1-0.2-0.2-0.2-0.3c0-0.2,0.4-0.3,1.3-0.3c0.6,0,1,0,1.1,0.1c0.2,0.1,0.3,0.2,0.3,0.3c0,0-0.1,0.1-0.2,0.3
		c-0.1,0.2-0.2,0.3-0.2,0.4s-0.1,0.5-0.1,1.2c-0.1,0.7-0.1,1.2-0.2,1.3s-0.4,0.3-0.8,0.4C6.8,18.9,6,19,5.5,19H5.3
		c-0.6,0-1.2-0.1-1.8-0.3c-0.6-0.2-1-0.5-1.4-0.9s-0.7-0.9-1-1.5S0.7,15,0.7,14.3V14c0-0.6,0.1-1.3,0.4-1.9c0.5-1.2,1.3-2,2.4-2.4
		C4.1,9.4,4.7,9.3,5.4,9.3z"/>
	<path class="st1" d="M14,18.6c0,0.2-0.4,0.3-1.2,0.3h-0.7l-0.3,0l-0.4,0c-0.5,0-0.7-0.1-0.7-0.3c0-0.1,0.1-0.3,0.3-0.4
		c0.2-0.1,0.4-0.3,0.4-0.5c0.1-0.2,0.1-0.9,0.1-2s0-1.7-0.1-2s-0.2-0.4-0.3-0.5c-0.3-0.2-0.4-0.3-0.4-0.4s0-0.2,0.1-0.2
		c0.3-0.2,0.8-0.3,1.4-0.3h0.1c0.3,0,0.4,0.1,0.6,0.4c0.1,0.3,0.2,0.4,0.3,0.4s0.2-0.1,0.4-0.2s0.4-0.3,0.6-0.4s0.5-0.2,0.8-0.2
		s0.5,0.1,0.7,0.2c0.2,0.1,0.2,0.3,0.2,0.6c0,0.2-0.1,0.4-0.2,0.5s-0.2,0.2-0.4,0.2s-0.3-0.1-0.5-0.2c-0.2-0.1-0.4-0.2-0.6-0.2
		s-0.3,0.1-0.5,0.2c-0.2,0.1-0.3,0.3-0.5,0.7c-0.1,0.3-0.2,0.9-0.2,1.6c0,0.8,0.1,1.3,0.2,1.5c0.1,0.2,0.3,0.4,0.5,0.6
		S14,18.5,14,18.6z"/>
	<path class="st1" d="M16.9,13.5c0-0.3,0.3-0.6,0.8-0.9c0.5-0.3,1.1-0.4,1.7-0.4c0,0,0,0,0.1,0c0.5,0,1,0.1,1.3,0.2
		c0.7,0.3,1,0.8,1.1,1.7c0,0.1,0,0.7,0,1.7c0,1.1,0,1.7,0.1,1.9s0.2,0.3,0.5,0.4s0.4,0.2,0.4,0.2c0,0.2-0.1,0.3-0.2,0.4
		c-0.3,0.2-0.7,0.3-1,0.3s-0.6-0.1-0.7-0.2c-0.3-0.3-0.4-0.4-0.4-0.4s-0.3,0.1-0.8,0.3c-0.5,0.2-0.9,0.3-1.3,0.3
		c-0.6,0-1-0.2-1.3-0.5s-0.5-0.7-0.5-1.1v-0.2c0-0.5,0.2-0.9,0.6-1.3s1.1-0.6,2.2-0.8c0.4-0.1,0.6-0.1,0.7-0.2
		c0.2-0.1,0.3-0.4,0.3-0.8s-0.1-0.7-0.3-0.9S19.7,13,19.3,13s-0.7,0.2-1,0.6c-0.3,0.4-0.6,0.6-0.9,0.6C17.1,14.2,16.9,14,16.9,13.5z
		 M20.3,15.7h-0.1c-0.6,0-1.1,0.1-1.5,0.4c-0.4,0.3-0.6,0.6-0.6,1v0.1c0,0.2,0.1,0.4,0.2,0.6c0.1,0.2,0.3,0.3,0.6,0.3l0.1,0h0.2
		c0.5,0,0.9-0.2,1.2-0.6c0.1-0.2,0.2-0.5,0.2-1c0,0,0-0.1,0-0.1l0-0.2v-0.2C20.5,15.9,20.4,15.7,20.3,15.7z"/>
	<path class="st1" d="M28.5,12.3c0-0.1,0.1-0.4,0.1-0.9s0-0.9-0.1-1.1C28.4,10,28.2,9.8,28,9.7c-0.2-0.2-0.3-0.3-0.3-0.3
		s0.1-0.1,0.2-0.2c0.3-0.2,0.7-0.2,1.4-0.2h0.2c0.3,0,0.5,0.2,0.5,0.5c0,0.1,0,1.4,0,3.9c0,2.5,0,3.9,0.1,4.1c0,0.2,0.1,0.4,0.3,0.6
		c0,0,0.1,0.1,0.3,0.2c0.1,0.1,0.2,0.2,0.2,0.3c0,0.1-0.1,0.2-0.2,0.2c-0.3,0.1-0.7,0.2-1.3,0.2c-0.2,0-0.4-0.1-0.5-0.2
		c-0.2-0.2-0.4-0.4-0.4-0.4s-0.1,0.1-0.3,0.2s-0.4,0.2-0.7,0.3c-0.3,0.1-0.6,0.2-1,0.2s-0.7-0.1-1.1-0.3c-0.6-0.3-1-0.8-1.3-1.5
		c-0.1-0.4-0.2-0.9-0.2-1.4c0-1,0.3-1.9,0.9-2.5s1.4-1,2.4-1l0.9,0.1C28.3,12.4,28.5,12.4,28.5,12.3z M28.5,14.2
		c0-0.4-0.1-0.7-0.4-0.9c-0.2-0.2-0.6-0.3-0.9-0.3H27c-0.2,0-0.4,0.1-0.7,0.2s-0.4,0.3-0.6,0.5c-0.3,0.5-0.5,1-0.5,1.7v0.4
		c0,0.7,0.2,1.2,0.5,1.7s0.7,0.7,1.1,0.7h0.2c0.4,0,0.7-0.1,1-0.4s0.4-0.6,0.4-1l0-0.1v-0.1l0-0.4c0-0.2,0-0.4,0-0.7l0-0.2v-0.2
		l0-0.1v-0.4l0-0.1v-0.1C28.5,14.3,28.5,14.3,28.5,14.2z"/>
	<path class="st1" d="M38.9,18.2c0.2,0.2,0.3,0.3,0.3,0.3c0,0.1,0,0.1-0.1,0.2c-0.2,0.2-0.6,0.3-1.3,0.3c-0.2,0-0.4,0-0.5-0.1
		c-0.1-0.1-0.2-0.2-0.3-0.4s-0.2-0.3-0.2-0.3c-0.1,0-0.2,0.1-0.4,0.2c-0.6,0.4-1.1,0.6-1.6,0.6c0,0,0,0,0,0h-0.2
		c-0.8,0-1.3-0.3-1.6-1c-0.2-0.3-0.3-1.1-0.3-2.4c0-1.3,0-2-0.1-2.1c0-0.1-0.2-0.3-0.4-0.4c-0.2-0.1-0.4-0.2-0.4-0.3
		c0-0.2,0.1-0.3,0.2-0.3c0.4-0.1,0.8-0.2,1.4-0.2c0.3,0,0.5,0.1,0.6,0.4c0.1,0.3,0.2,1.1,0.2,2.4c0,1.3,0.1,2,0.2,2.3
		c0.2,0.5,0.5,0.7,1,0.7c0.3,0,0.5-0.1,0.8-0.2s0.5-0.3,0.6-0.5s0.2-0.8,0.2-1.8c0-1,0-1.6-0.1-1.9s-0.2-0.5-0.3-0.6
		c-0.1-0.1-0.2-0.3-0.2-0.4c0-0.2,0.5-0.3,1.6-0.3c0.2,0,0.4,0,0.4,0.1c0.1,0.1,0.1,0.3,0.1,0.5l0,0.4l0,1.8c0,1.2,0,1.9,0.1,2.2
		C38.6,17.8,38.7,18,38.9,18.2z"/>
	<path class="st1" d="M40.6,13.5c0-0.3,0.3-0.6,0.8-0.9c0.5-0.3,1.1-0.4,1.7-0.4c0,0,0,0,0.1,0c0.5,0,1,0.1,1.3,0.2
		c0.7,0.3,1,0.8,1.1,1.7c0,0.1,0,0.7,0,1.7c0,1.1,0,1.7,0.1,1.9c0.1,0.2,0.2,0.3,0.5,0.4s0.4,0.2,0.4,0.2c0,0.2-0.1,0.3-0.2,0.4
		c-0.3,0.2-0.7,0.3-1,0.3c-0.3,0-0.6-0.1-0.7-0.2c-0.3-0.3-0.4-0.4-0.4-0.4c0,0-0.3,0.1-0.8,0.3c-0.5,0.2-0.9,0.3-1.3,0.3
		c-0.6,0-1-0.2-1.3-0.5s-0.5-0.7-0.5-1.1v-0.2c0-0.5,0.2-0.9,0.6-1.3c0.4-0.4,1.1-0.6,2.2-0.8c0.4-0.1,0.6-0.1,0.7-0.2
		c0.2-0.1,0.3-0.4,0.3-0.8s-0.1-0.7-0.3-0.9C43.6,13.1,43.4,13,43,13c-0.4,0-0.7,0.2-1,0.6c-0.3,0.4-0.6,0.6-0.9,0.6
		C40.8,14.2,40.6,14,40.6,13.5z M43.9,15.7h-0.1c-0.6,0-1.1,0.1-1.5,0.4c-0.4,0.3-0.6,0.6-0.6,1v0.1c0,0.2,0.1,0.4,0.2,0.6
		c0.1,0.2,0.3,0.3,0.6,0.3l0.1,0h0.2c0.5,0,0.9-0.2,1.2-0.6c0.1-0.2,0.2-0.5,0.2-1c0,0,0-0.1,0-0.1l0-0.2v-0.2
		C44.2,15.9,44.1,15.7,43.9,15.7z"/>
	<path class="st1" d="M50.5,18l1-0.2c0.1,0,0.2,0.1,0.2,0.3c0,0.2-0.2,0.4-0.5,0.6c-0.4,0.2-0.7,0.3-1.1,0.3H50
		c-0.3,0-0.6-0.1-0.8-0.2s-0.4-0.4-0.5-0.6c-0.2-0.4-0.3-1.2-0.3-2.3c0-1.1,0-1.8-0.1-2.1c-0.1-0.3-0.2-0.5-0.3-0.6
		c-0.2-0.2-0.4-0.3-0.4-0.3c0-0.1,0.1-0.2,0.2-0.3c0.3-0.2,0.5-0.3,0.5-0.4c0,0,0.2-0.4,0.5-1.1c0.2-0.4,0.3-0.5,0.5-0.5
		c0.2,0,0.3,0.1,0.4,0.2c0,0,0.1,0.2,0.1,0.6s0.1,0.6,0.3,0.7c0.1,0.1,0.4,0.2,0.8,0.3c0.4,0.1,0.6,0.2,0.6,0.4s-0.2,0.3-0.6,0.4
		c-0.4,0.1-0.7,0.2-0.8,0.3c-0.2,0.2-0.2,0.9-0.2,2s0.1,1.8,0.2,2C50,17.8,50.3,18,50.5,18z"/>
	<path class="st1" d="M54.2,16.3c0,0.5,0.2,1,0.6,1.3c0.4,0.4,0.9,0.5,1.5,0.5c0.2,0,0.5,0,0.7-0.1c0.2-0.1,0.4-0.2,0.6-0.3
		c0.2-0.1,0.4-0.2,0.4-0.2c0.2,0,0.3,0.1,0.3,0.3c0,0.3-0.3,0.5-1,0.8c-0.4,0.2-0.9,0.3-1.4,0.3h-0.2c-0.9,0-1.6-0.3-2.1-0.8
		c-0.3-0.3-0.5-0.6-0.7-1.1c-0.2-0.4-0.3-0.9-0.3-1.4l0-0.2v-0.2c0-0.4,0.1-0.9,0.3-1.3c0.2-0.4,0.4-0.8,0.7-1
		c0.6-0.6,1.3-0.9,2.1-0.9c1.2,0,2.1,0.5,2.5,1.4c0.1,0.3,0.2,0.6,0.2,0.8v0.1c0,0.3-0.1,0.5-0.4,0.6c-0.3,0.1-0.9,0.2-1.8,0.3
		c-1,0.1-1.5,0.1-1.6,0.1C54.4,15.8,54.2,16,54.2,16.3z M57.1,14.5v-0.2c0-0.3-0.1-0.6-0.4-0.9c-0.2-0.3-0.5-0.4-0.9-0.4h-0.1
		c-0.1,0-0.1,0-0.1,0c-0.3,0-0.6,0.2-0.9,0.5c-0.3,0.4-0.4,0.8-0.4,1.2v0.1c0,0.1,0.1,0.2,0.3,0.2c0.1,0,0.1,0,0.1,0l0.2,0h0l0,0
		l1.3-0.1l0.2,0C56.8,14.9,57.1,14.7,57.1,14.5z"/>
	<path class="st1" d="M3.9,26.8c-0.5,0-0.8,0.1-1.1,0.4c-0.3,0.2-0.4,0.6-0.4,1c0,0.4,0.2,0.8,0.7,1.2c0.3,0.2,0.8,0.5,1.6,0.8
		s1.4,0.7,1.7,1c0.6,0.6,0.9,1.2,0.9,1.8v0.2c0,0.8-0.3,1.4-0.9,1.8c-0.3,0.2-0.6,0.4-1,0.5c-0.4,0.1-0.8,0.2-1.2,0.2H3.8
		c-0.9,0-1.8-0.1-2.5-0.4c-0.3-0.1-0.5-0.5-0.5-1v-0.2c0-0.7,0.1-1,0.3-1c0.2,0,0.4,0.2,0.6,0.6s0.6,0.8,0.9,1S3.5,35,4.1,35
		s0.9-0.1,1.2-0.4c0.3-0.3,0.5-0.6,0.5-1c0-0.5-0.3-1-0.8-1.4c-0.2-0.2-0.8-0.4-1.6-0.8c-0.9-0.4-1.5-0.8-1.8-1.1
		c-0.5-0.5-0.7-1.1-0.7-1.7s0.2-1.3,0.7-1.7c0.3-0.3,0.6-0.4,1-0.6c0.4-0.1,0.8-0.2,1.2-0.2h0.3c0.2,0,0.4,0,0.7,0.1l0.2,0
		c0.3,0.1,0.4,0.1,0.5,0.1l0.2,0l0.2,0c0.2,0,0.3,0,0.4,0.1c0.3,0.1,0.4,0.5,0.4,1.1s-0.1,1-0.4,1c-0.1,0-0.3-0.2-0.6-0.5
		s-0.5-0.6-0.7-0.7C4.8,27,4.4,26.8,3.9,26.8z"/>
	<path class="st1" d="M13.5,31c-0.2,0-0.5-0.2-0.8-0.6s-0.7-0.6-1.2-0.6s-0.8,0.2-1.1,0.7c-0.3,0.4-0.5,1.1-0.5,1.9s0.2,1.4,0.6,1.9
		c0.4,0.5,0.9,0.7,1.5,0.7c0.3,0,0.6,0,0.8-0.1s0.4-0.2,0.6-0.3c0.2-0.1,0.3-0.1,0.4-0.1c0.1,0,0.2,0.1,0.2,0.3
		c0,0.3-0.3,0.5-0.8,0.8s-1.1,0.4-1.6,0.4c-1,0-1.8-0.3-2.4-0.9c-0.2-0.3-0.4-0.6-0.6-1c-0.2-0.4-0.2-0.8-0.2-1.3v-0.3c0,0,0,0,0,0
		c0,0,0,0,0,0c0-0.4,0.1-0.8,0.3-1.2c0.4-0.8,0.9-1.4,1.7-1.7c0.5-0.2,0.9-0.3,1.3-0.3h0.2c0.6,0,1.1,0.1,1.6,0.3
		c0.3,0.2,0.5,0.5,0.5,0.9c0,0.3-0.1,0.5-0.2,0.6C13.7,30.9,13.6,31,13.5,31z"/>
	<path class="st1" d="M15.2,35.3c0-0.1,0.1-0.2,0.3-0.4c0.2-0.2,0.3-0.4,0.4-0.7s0.1-1.4,0.1-3.5s0-3.4-0.1-3.8
		c0-0.2-0.1-0.4-0.3-0.5c-0.3-0.2-0.4-0.3-0.4-0.3c0-0.2,0.1-0.3,0.3-0.4c0.3-0.1,0.7-0.2,1.2-0.2h0.2c0.2,0,0.4,0.1,0.4,0.3
		s0.1,0.5,0.1,1.1l0,0.3c0,0.2,0,0.3,0,0.5l0,0.5c0,0.2,0,0.3,0,0.5c0,0.6,0.1,0.9,0.3,0.9c0,0,0.1-0.1,0.3-0.1
		c0.6-0.3,1.2-0.4,1.6-0.4c0.8,0,1.4,0.3,1.7,1c0.2,0.4,0.3,1.5,0.3,3.2c0,0.7,0,1.1,0.1,1.2c0,0.2,0.2,0.3,0.4,0.5s0.3,0.3,0.3,0.3
		c0,0.1-0.1,0.2-0.3,0.3s-0.7,0.1-1.4,0.1h-0.2c-0.5,0-0.7-0.1-0.7-0.3c0,0,0.1-0.2,0.2-0.3c0.1-0.2,0.2-0.4,0.2-0.6
		s0.1-0.8,0.1-1.8s0-1.6-0.1-1.9c-0.3-0.4-0.7-0.7-1-0.8c-0.5,0-0.9,0.2-1.3,0.6c-0.2,0.3-0.3,0.9-0.3,1.9c0,1,0,1.6,0.1,1.9
		c0,0.3,0.1,0.5,0.3,0.7c0.2,0.2,0.2,0.3,0.2,0.4c0,0.2-0.5,0.2-1.4,0.2S15.2,35.6,15.2,35.3z"/>
	<path class="st1" d="M30,32.2v0.3c0,0.4-0.1,0.8-0.2,1.2c-0.3,0.9-0.9,1.5-1.8,1.9c-0.4,0.2-0.8,0.2-1.1,0.2h-0.2
		c-0.9,0-1.6-0.3-2.2-0.9c-0.3-0.3-0.5-0.6-0.6-1s-0.2-0.9-0.2-1.4v-0.1c0-0.4,0.1-0.9,0.2-1.3c0.3-0.9,0.9-1.5,1.8-1.8
		c0.4-0.2,0.8-0.2,1.1-0.2H27c0.4,0,0.8,0.1,1.2,0.3c0.7,0.3,1.3,0.9,1.6,1.7C29.9,31.4,30,31.8,30,32.2z M25,32.2v0.3
		c0,0.8,0.2,1.4,0.5,1.9c0.1,0.2,0.3,0.4,0.5,0.6s0.4,0.2,0.7,0.2h0.1c0.4,0,0.8-0.2,1.1-0.6c0.3-0.4,0.5-1,0.5-1.7v-0.5
		c0-0.7-0.2-1.4-0.5-1.9c-0.3-0.5-0.7-0.8-1.2-0.8h-0.2c-0.4,0-0.8,0.2-1.1,0.7S25,31.4,25,32.2z"/>
	<path class="st1" d="M37.7,32.2v0.3c0,0.4-0.1,0.8-0.2,1.2c-0.3,0.9-0.9,1.5-1.8,1.9c-0.4,0.2-0.8,0.2-1.1,0.2h-0.2
		c-0.9,0-1.6-0.3-2.2-0.9c-0.3-0.3-0.5-0.6-0.6-1s-0.2-0.9-0.2-1.4v-0.1c0-0.4,0.1-0.9,0.2-1.3c0.3-0.9,0.9-1.5,1.8-1.8
		c0.4-0.2,0.8-0.2,1.1-0.2h0.3c0.4,0,0.8,0.1,1.2,0.3c0.7,0.3,1.3,0.9,1.6,1.7C37.6,31.4,37.7,31.8,37.7,32.2z M32.7,32.2v0.3
		c0,0.8,0.2,1.4,0.5,1.9c0.1,0.2,0.3,0.4,0.5,0.6s0.4,0.2,0.7,0.2h0.1c0.4,0,0.8-0.2,1.1-0.6c0.3-0.4,0.5-1,0.5-1.7v-0.5
		c0-0.7-0.2-1.4-0.5-1.9c-0.3-0.5-0.7-0.8-1.2-0.8h-0.2c-0.4,0-0.8,0.2-1.1,0.7S32.7,31.4,32.7,32.2z"/>
	<path class="st1" d="M38.8,35.5c0-0.1,0.1-0.2,0.3-0.4s0.3-0.4,0.4-0.7c0.1-0.3,0.1-1.5,0.1-3.7s0-3.3-0.1-3.6s-0.2-0.5-0.4-0.6
		c-0.3-0.2-0.5-0.3-0.5-0.4v-0.1c0-0.1,0.1-0.1,0.2-0.2c0.4-0.2,1-0.3,1.6-0.3h0.1c0.2,0,0.4,0.2,0.4,0.5c0,0,0,0.4,0,1v1.5l0,0.3
		v0.4l0,0.3v2.2c0,1.3,0,2.2,0.1,2.5c0,0.3,0.1,0.6,0.3,0.7c0,0,0.1,0.1,0.3,0.2c0.2,0.1,0.3,0.2,0.3,0.3c0,0.2-0.3,0.2-0.8,0.2
		l-0.3,0h-0.3l-1.1,0h-0.1C39,35.7,38.8,35.6,38.8,35.5z"/>
	<path class="st1" d="M7.1,49v0.3c0,0.4-0.1,0.8-0.2,1.2C6.5,51.4,5.9,52,5,52.4c-0.4,0.2-0.8,0.2-1.1,0.2H3.6
		c-0.9,0-1.6-0.3-2.2-0.9c-0.3-0.3-0.5-0.6-0.6-1s-0.2-0.9-0.2-1.4v-0.1c0-0.4,0.1-0.9,0.2-1.3C1.1,47,1.7,46.4,2.6,46
		c0.4-0.2,0.8-0.2,1.1-0.2h0.3c0.4,0,0.8,0.1,1.2,0.3C6,46.4,6.5,47,6.8,47.7C7,48.2,7.1,48.6,7.1,49z M2.1,49v0.3
		c0,0.8,0.2,1.4,0.5,1.9c0.1,0.2,0.3,0.4,0.5,0.6s0.4,0.2,0.7,0.2h0.1c0.4,0,0.8-0.2,1.1-0.6c0.3-0.4,0.5-1,0.5-1.7v-0.5
		c0-0.7-0.2-1.4-0.5-1.9c-0.3-0.5-0.7-0.8-1.2-0.8H3.6c-0.4,0-0.8,0.2-1.1,0.7S2.1,48.2,2.1,49z"/>
	<path class="st1" d="M10.7,52.7h-0.4c-1.3,0-2-0.1-2-0.3c0-0.1,0.1-0.2,0.3-0.4s0.4-0.3,0.4-0.6c0.1-0.2,0.1-1,0.1-2.1s0-1.8-0.1-2
		S8.9,47,8.7,46.9c-0.2-0.1-0.3-0.2-0.3-0.3c0-0.1,0.1-0.3,0.3-0.5c0.2-0.3,0.3-0.6,0.4-0.9c0.2-0.9,0.5-1.5,0.9-1.9
		c0.5-0.5,1.1-0.8,2-0.8c0.4,0,0.7,0.1,1,0.2c0.2,0.1,0.4,0.3,0.4,0.6s-0.1,0.4-0.2,0.5s-0.2,0.2-0.4,0.2s-0.4-0.1-0.7-0.2
		s-0.5-0.2-0.7-0.2c-0.3,0-0.4,0.2-0.6,0.5c-0.1,0.3-0.2,0.7-0.2,1s0.1,0.6,0.2,0.8c0.1,0.1,0.3,0.2,0.6,0.4
		c0.4,0.2,0.5,0.3,0.5,0.5c0,0.1-0.2,0.2-0.5,0.3c-0.4,0.1-0.6,0.2-0.7,0.4c-0.1,0.2-0.2,0.9-0.2,2.1c0,1.2,0,1.9,0.1,2.1
		s0.2,0.4,0.5,0.6s0.4,0.3,0.4,0.4C11.6,52.6,11.3,52.7,10.7,52.7z"/>
	<path class="st1" d="M4.3,59.8c1.6,0,2.7,0.4,3.1,1.3c0.2,0.3,0.2,0.6,0.2,1c0,0.4-0.1,0.7-0.3,1s-0.3,0.5-0.5,0.6
		c-0.1,0.1-0.3,0.2-0.4,0.3c-0.1,0.1-0.2,0.1-0.2,0.2s0.2,0.1,0.6,0.3c0.4,0.2,0.7,0.4,0.9,0.7c0.4,0.5,0.6,0.9,0.6,1.4v0.2
		c0,0.8-0.3,1.4-1,1.9c-0.2,0.2-0.6,0.3-1,0.5c-0.4,0.1-0.9,0.2-1.5,0.2H4.1l-0.2,0c-0.1,0-0.2,0-0.4,0l-0.2,0c-0.1,0-0.2,0-0.4,0
		l-0.2,0c-0.1,0-0.2,0-0.4,0H1.9c-0.8,0-1.2-0.1-1.2-0.2c0-0.2,0.1-0.3,0.4-0.4c0.2-0.1,0.4-0.4,0.5-0.7c0.1-0.3,0.1-1.1,0.1-2.3
		v-2.2l0-0.7c0-0.1,0-0.4,0-0.8s0-0.8-0.1-0.9c-0.1-0.2-0.3-0.3-0.5-0.4s-0.4-0.2-0.4-0.3c0-0.1,0.1-0.2,0.2-0.3
		c0.1,0,0.5-0.1,1.2-0.1l1.6,0H4.3z M4.5,64.7H3.9c-0.4,0-0.5,0-0.6,0.1s-0.1,0.4-0.1,0.9v2c0,0.4,0.1,0.7,0.2,0.8
		c0.1,0.1,0.4,0.1,0.9,0.1h0.4c0.6,0,1.1-0.2,1.5-0.5c0.4-0.3,0.6-0.7,0.6-1.3v-0.4c0-0.6-0.2-1-0.6-1.3C5.7,64.9,5.1,64.7,4.5,64.7
		z M3.7,60.5c-0.2,0-0.3,0.1-0.4,0.2c0,0.1,0,0.5,0,1.3v1.3c0,0.3,0,0.5,0.1,0.5C3.4,64,3.5,64,3.8,64h0.3l0.1,0l0.4,0
		c0,0,0.1,0,0.1,0c0.4,0,0.8-0.2,1.1-0.5s0.4-0.7,0.4-1.2v-0.2c0-0.5-0.2-0.9-0.5-1.1c-0.3-0.3-0.7-0.4-1.2-0.4l-0.1,0l-0.2,0H3.8
		C3.8,60.5,3.7,60.5,3.7,60.5z"/>
	<path class="st1" d="M16.5,68.6c0.2,0.2,0.3,0.3,0.3,0.3c0,0.1,0,0.1-0.1,0.2c-0.2,0.2-0.6,0.3-1.3,0.3c-0.2,0-0.4,0-0.5-0.1
		c-0.1-0.1-0.2-0.2-0.3-0.4s-0.2-0.3-0.2-0.3c-0.1,0-0.2,0.1-0.4,0.2c-0.6,0.4-1.1,0.6-1.6,0.6c0,0,0,0,0,0h-0.2
		c-0.8,0-1.3-0.3-1.6-1c-0.2-0.3-0.3-1.1-0.3-2.4c0-1.3,0-2-0.1-2.1c0-0.1-0.2-0.3-0.4-0.4c-0.2-0.1-0.4-0.2-0.4-0.3
		c0-0.2,0.1-0.3,0.2-0.3c0.4-0.1,0.8-0.2,1.4-0.2c0.3,0,0.5,0.1,0.6,0.4c0.1,0.3,0.2,1.1,0.2,2.4c0,1.3,0.1,2,0.2,2.3
		c0.2,0.5,0.5,0.7,1,0.7c0.3,0,0.5-0.1,0.8-0.2s0.5-0.3,0.6-0.5s0.2-0.8,0.2-1.8c0-1,0-1.6-0.1-1.9s-0.2-0.5-0.3-0.6
		c-0.1-0.1-0.2-0.3-0.2-0.4c0-0.2,0.5-0.3,1.6-0.3c0.2,0,0.4,0,0.4,0.1c0.1,0.1,0.1,0.3,0.1,0.5l0,0.4l0,1.8c0,1.2,0,1.9,0.1,2.2
		C16.2,68.2,16.3,68.4,16.5,68.6z"/>
	<path class="st1" d="M22.9,67.5c0,0.5-0.2,1-0.6,1.3c-0.4,0.4-1,0.6-1.8,0.6h-0.2c-0.9,0-1.5-0.1-2-0.3C18.1,69,18,68.7,18,68.3
		v-0.2c0-0.5,0.1-0.8,0.3-0.8c0.2,0,0.4,0.2,0.6,0.5c0.2,0.3,0.4,0.5,0.6,0.6c0.3,0.2,0.6,0.3,1,0.3s0.7-0.1,0.9-0.2
		c0.2-0.2,0.3-0.4,0.3-0.7s-0.2-0.5-0.5-0.8c-0.2-0.1-0.6-0.3-1.2-0.6s-1.1-0.5-1.4-0.8c-0.3-0.3-0.5-0.7-0.5-1.2s0.2-1,0.7-1.3
		c0.4-0.3,1-0.5,1.6-0.5h0.2c0.8,0,1.4,0.1,1.8,0.3c0.2,0.1,0.3,0.4,0.3,0.9s-0.1,0.7-0.3,0.7c-0.1,0-0.3-0.1-0.5-0.4
		c-0.2-0.3-0.4-0.5-0.6-0.6c-0.2-0.1-0.4-0.2-0.8-0.2s-0.6,0.1-0.8,0.2s-0.3,0.4-0.3,0.6c0,0.3,0.2,0.5,0.5,0.7
		c0.1,0.1,0.5,0.2,1.1,0.5s1.1,0.6,1.4,0.8C22.7,66.6,22.9,67,22.9,67.5z"/>
	<path class="st1" d="M24.4,63.6c-0.2-0.1-0.4-0.2-0.4-0.3s0-0.2,0.1-0.2c0.3-0.2,0.9-0.3,1.6-0.3H26c0.2,0,0.4,0.1,0.4,0.3
		c0,0.1,0,1,0,2.5c0,1.5,0,2.4,0.1,2.6c0.1,0.2,0.2,0.4,0.5,0.5c0.2,0.1,0.4,0.2,0.4,0.4c0,0.2-0.6,0.3-1.7,0.3l-0.2,0h-0.8
		c-0.3,0-0.5-0.1-0.5-0.2c0-0.1,0.1-0.3,0.3-0.4s0.3-0.3,0.4-0.4c0.1-0.2,0.1-0.6,0.1-1.2l0-0.2v-0.2l0-0.3v-0.2l0-0.2
		c0-1.1,0-1.7-0.1-1.9C24.8,63.8,24.7,63.7,24.4,63.6z M26.6,60.5c0,0.2-0.1,0.4-0.3,0.6c-0.2,0.2-0.3,0.3-0.5,0.3c0,0-0.1,0-0.1,0
		l-0.2,0c-0.2,0-0.4-0.1-0.6-0.2s-0.3-0.3-0.3-0.6v-0.1c0-0.2,0.1-0.4,0.3-0.6c0.2-0.2,0.4-0.2,0.7-0.2h0l0.2,0
		c0.1,0,0.3,0.1,0.4,0.2c0.2,0.2,0.2,0.3,0.2,0.5l0,0.1V60.5z"/>
	<path class="st1" d="M29.4,69.2c-0.6,0-1-0.1-1-0.3c0-0.2,0.1-0.3,0.3-0.4c0.3-0.2,0.5-0.3,0.5-0.5c0.1-0.1,0.1-0.8,0.1-2
		c0-1.2,0-1.9-0.1-2.1c-0.1-0.2-0.2-0.4-0.4-0.5s-0.3-0.2-0.3-0.3s0.1-0.2,0.2-0.2c0.3-0.2,0.7-0.3,1.4-0.3c0.2,0,0.3,0.1,0.4,0.2
		c0,0,0.1,0.1,0.2,0.3c0.1,0.2,0.1,0.2,0.1,0.2c0.1,0,0.2-0.1,0.4-0.2c0.6-0.4,1.2-0.6,1.7-0.6h0h0.2c0.4,0,0.7,0.1,1,0.3
		s0.5,0.5,0.7,0.8s0.2,1.2,0.2,2.4c0,1.2,0,1.9,0.1,2.1c0.1,0.1,0.2,0.3,0.4,0.4S36,68.8,36,69c0,0.2-0.6,0.3-1.9,0.3h-0.2
		c-0.4,0-0.6-0.1-0.6-0.3c0,0,0.1-0.1,0.2-0.3c0.1-0.2,0.2-0.3,0.2-0.5s0.1-0.8,0.1-1.9c0-1.1-0.1-1.8-0.2-2.1
		c-0.2-0.4-0.5-0.6-0.9-0.6c-0.3,0-0.6,0.1-0.9,0.2c-0.3,0.1-0.5,0.3-0.6,0.6c-0.1,0.3-0.2,0.9-0.2,1.9c0,1,0,1.6,0.1,1.8
		c0.1,0.2,0.1,0.4,0.2,0.5l0.3,0.4c0,0.2-0.4,0.3-1.1,0.3l-0.4,0H29.4z"/>
	<path class="st1" d="M38.5,66.7c0,0.5,0.2,1,0.6,1.3s0.9,0.5,1.5,0.5c0.2,0,0.5,0,0.7-0.1c0.2-0.1,0.4-0.2,0.6-0.3
		c0.2-0.1,0.4-0.2,0.4-0.2c0.2,0,0.3,0.1,0.3,0.3c0,0.3-0.3,0.5-1,0.8c-0.4,0.2-0.9,0.3-1.4,0.3H40c-0.9,0-1.6-0.3-2.1-0.8
		c-0.3-0.3-0.5-0.6-0.7-1.1c-0.2-0.4-0.3-0.9-0.3-1.4l0-0.2v-0.2c0-0.4,0.1-0.9,0.3-1.3c0.2-0.4,0.4-0.8,0.7-1
		c0.6-0.6,1.3-0.9,2.1-0.9c1.2,0,2.1,0.5,2.5,1.4c0.1,0.3,0.2,0.6,0.2,0.8V65c0,0.3-0.1,0.5-0.4,0.6c-0.3,0.1-0.9,0.2-1.8,0.3
		s-1.5,0.1-1.6,0.1C38.6,66.2,38.5,66.4,38.5,66.7z M41.3,64.9v-0.2c0-0.3-0.1-0.6-0.4-0.9c-0.2-0.3-0.5-0.4-0.9-0.4h-0.1
		c-0.1,0-0.1,0-0.1,0c-0.3,0-0.6,0.2-0.9,0.5s-0.4,0.8-0.4,1.2v0.1c0,0.1,0.1,0.2,0.3,0.2c0.1,0,0.1,0,0.1,0l0.2,0h0l0,0l1.3-0.1
		l0.2,0C41.1,65.3,41.3,65.1,41.3,64.9z"/>
	<path class="st1" d="M48.9,67.5c0,0.5-0.2,1-0.6,1.3c-0.4,0.4-1,0.6-1.8,0.6h-0.2c-0.9,0-1.5-0.1-2-0.3C44.1,69,44,68.7,44,68.3
		v-0.2c0-0.5,0.1-0.8,0.3-0.8c0.2,0,0.4,0.2,0.6,0.5c0.2,0.3,0.4,0.5,0.6,0.6c0.3,0.2,0.6,0.3,1,0.3c0.4,0,0.7-0.1,0.9-0.2
		c0.2-0.2,0.3-0.4,0.3-0.7s-0.2-0.5-0.5-0.8c-0.2-0.1-0.6-0.3-1.2-0.6c-0.6-0.3-1.1-0.5-1.4-0.8c-0.3-0.3-0.5-0.7-0.5-1.2
		s0.2-1,0.7-1.3c0.4-0.3,1-0.5,1.6-0.5h0.2c0.8,0,1.4,0.1,1.8,0.3c0.2,0.1,0.3,0.4,0.3,0.9s-0.1,0.7-0.3,0.7c-0.1,0-0.3-0.1-0.5-0.4
		c-0.2-0.3-0.4-0.5-0.6-0.6c-0.2-0.1-0.4-0.2-0.8-0.2s-0.6,0.1-0.8,0.2c-0.2,0.1-0.3,0.4-0.3,0.6c0,0.3,0.2,0.5,0.5,0.7
		c0.1,0.1,0.5,0.2,1.1,0.5s1.1,0.6,1.4,0.8C48.8,66.6,48.9,67,48.9,67.5z"/>
	<path class="st1" d="M55.1,67.5c0,0.5-0.2,1-0.6,1.3c-0.4,0.4-1,0.6-1.8,0.6h-0.2c-0.9,0-1.5-0.1-2-0.3c-0.2-0.1-0.4-0.4-0.4-0.8
		v-0.2c0-0.5,0.1-0.8,0.3-0.8c0.2,0,0.4,0.2,0.6,0.5c0.2,0.3,0.4,0.5,0.6,0.6c0.3,0.2,0.6,0.3,1,0.3c0.4,0,0.7-0.1,0.9-0.2
		c0.2-0.2,0.3-0.4,0.3-0.7s-0.2-0.5-0.5-0.8c-0.2-0.1-0.6-0.3-1.2-0.6c-0.6-0.3-1.1-0.5-1.4-0.8c-0.3-0.3-0.5-0.7-0.5-1.2
		s0.2-1,0.7-1.3c0.4-0.3,1-0.5,1.6-0.5h0.2c0.8,0,1.4,0.1,1.8,0.3c0.2,0.1,0.3,0.4,0.3,0.9s-0.1,0.7-0.3,0.7c-0.1,0-0.3-0.1-0.5-0.4
		c-0.2-0.3-0.4-0.5-0.6-0.6c-0.2-0.1-0.4-0.2-0.8-0.2s-0.6,0.1-0.8,0.2c-0.2,0.1-0.3,0.4-0.3,0.6c0,0.3,0.2,0.5,0.5,0.7
		c0.1,0.1,0.5,0.2,1.1,0.5s1.1,0.6,1.4,0.8C54.9,66.6,55.1,67,55.1,67.5z"/>
</g>
</svg>
