<?xml version="1.0" encoding="utf-8"?>
<!-- Generator: Adobe Illustrator 22.0.1, SVG Export Plug-In . SVG Version: 6.00 Build 0)  -->
<svg version="1.1" id="レイヤー_1" xmlns="http://www.w3.org/2000/svg" xmlns:xlink="http://www.w3.org/1999/xlink" x="0px"
	 y="0px" viewBox="0 0 80 78" style="enable-background:new 0 0 80 78;" xml:space="preserve">
<style type="text/css">
	.st0{fill:#989898;}
</style>
<title></title>
<g id="icomoon-ignore">
</g>
<g>
	<path class="st0" d="M5.1,33.9H4.9l-0.2,0h-1c-1.6,0-2.5,0-2.6,0c-0.2,0-0.4-0.1-0.4-0.3c0-0.1,0.1-0.2,0.4-0.4s0.4-0.4,0.5-0.7
		s0.1-1.5,0.1-3.6s0-3.2-0.1-3.4s-0.2-0.3-0.4-0.4c-0.3-0.1-0.5-0.3-0.5-0.5s0.3-0.2,0.8-0.2h0.4l0.2,0l0.6,0c1.1,0,1.7,0.1,1.7,0.2
		c0,0.1-0.2,0.2-0.5,0.6c-0.2,0.2-0.3,0.5-0.4,0.9s-0.1,1.6-0.1,3.4s0,2.9,0.1,3.1s0.2,0.3,0.4,0.4C4,33,4.2,33,4.6,33
		c0.8,0,1.4-0.1,1.8-0.3c0.2-0.1,0.5-0.4,0.7-0.7s0.5-0.6,0.6-0.6S8,31.5,8,31.7v0.2c0,1-0.1,1.6-0.4,1.8
		C7.5,33.9,6.7,33.9,5.1,33.9z"/>
	<path class="st0" d="M9.1,28.5c0-0.3,0.3-0.6,0.8-0.9s1.1-0.4,1.7-0.4c0,0,0,0,0.1,0c0.5,0,1,0.1,1.3,0.2c0.7,0.3,1,0.8,1.1,1.7
		c0,0.1,0,0.7,0,1.7s0,1.7,0.1,1.9s0.2,0.3,0.5,0.4s0.4,0.2,0.4,0.2c0,0.2-0.1,0.3-0.2,0.4c-0.3,0.2-0.7,0.3-1,0.3s-0.6-0.1-0.7-0.2
		c-0.3-0.3-0.4-0.4-0.4-0.4s-0.3,0.1-0.8,0.3s-0.9,0.3-1.3,0.3c-0.6,0-1-0.2-1.3-0.5s-0.5-0.7-0.5-1.1v-0.2c0-0.5,0.2-0.9,0.6-1.3
		s1.1-0.6,2.2-0.8c0.4-0.1,0.6-0.1,0.7-0.2c0.2-0.1,0.3-0.4,0.3-0.8s-0.1-0.7-0.3-0.9S11.9,28,11.5,28s-0.7,0.2-1,0.6
		s-0.6,0.6-0.9,0.6C9.3,29.2,9.1,29,9.1,28.5z M12.5,30.7h-0.1c-0.6,0-1.1,0.1-1.5,0.4s-0.6,0.6-0.6,1v0.1c0,0.2,0.1,0.4,0.2,0.6
		s0.3,0.3,0.6,0.3l0.1,0h0.2c0.5,0,0.9-0.2,1.2-0.6c0.1-0.2,0.2-0.5,0.2-1c0,0,0-0.1,0-0.1l0-0.2v-0.2
		C12.7,30.9,12.6,30.7,12.5,30.7z"/>
	<path class="st0" d="M25.3,27.4c0.4,0,0.7,0.1,0.7,0.4c0,0.1-0.1,0.2-0.2,0.4c-0.1,0.2-0.3,0.4-0.4,0.8S25,30,24.6,31.2
		s-0.7,1.9-0.7,2c-0.2,0.4-0.5,0.6-0.9,0.6c-0.2,0-0.3-0.2-0.5-0.5s-0.4-1-0.8-1.9c-0.4-1-0.6-1.4-0.7-1.4c0,0-0.2,0.5-0.6,1.5
		s-0.6,1.6-0.7,1.7c-0.2,0.4-0.5,0.6-0.8,0.6c-0.3,0-0.6-0.5-1-1.6l-0.2-0.5c-0.5-1.6-0.9-2.6-1.4-3.2c-0.3-0.4-0.4-0.6-0.4-0.6
		s0-0.1,0.1-0.2c0.2-0.1,0.4-0.2,0.8-0.2H17c0.6,0,0.9,0.1,1,0.4c0.1,0.1,0.1,0.3,0.1,0.6c0,0.3,0.1,0.6,0.1,0.9
		c0,0.3,0.2,0.8,0.4,1.4s0.4,1,0.6,1c0.2,0,0.3-0.3,0.5-0.9s0.3-1.1,0.3-1.6c0-0.1,0-0.3-0.1-0.5c0-0.2-0.1-0.3-0.1-0.4
		c0-0.3,0.2-0.5,0.5-0.6c0.2-0.1,0.4-0.1,0.7-0.1c0.3,0,0.6,0.1,0.8,0.4c0.1,0.1,0.2,0.3,0.2,0.6l0,0.2l0,0.2c0,0.1,0.1,0.5,0.3,1.2
		s0.3,1.1,0.4,1.3c0.1,0.2,0.2,0.3,0.3,0.3c0.2,0,0.4-0.4,0.7-1.1c0.3-0.8,0.4-1.4,0.4-1.9l-0.1-0.7C24.3,27.6,24.6,27.4,25.3,27.4z
		"/>
	<path class="st0" d="M3.9,41.8c-0.5,0-0.8,0.1-1.1,0.4c-0.3,0.2-0.4,0.6-0.4,1c0,0.4,0.2,0.8,0.7,1.2c0.3,0.2,0.8,0.5,1.6,0.8
		c0.8,0.4,1.4,0.7,1.7,1c0.6,0.6,0.9,1.2,0.9,1.8v0.2c0,0.8-0.3,1.4-0.9,1.8c-0.3,0.2-0.6,0.4-1,0.5S4.4,50.8,4,50.8H3.8
		c-0.9,0-1.8-0.1-2.5-0.4c-0.3-0.1-0.5-0.5-0.5-1v-0.2c0-0.7,0.1-1,0.3-1c0.2,0,0.4,0.2,0.6,0.6c0.3,0.4,0.6,0.8,0.9,1
		S3.5,50,4.1,50s0.9-0.1,1.2-0.4s0.5-0.6,0.5-1c0-0.5-0.3-1-0.8-1.4c-0.2-0.2-0.8-0.4-1.6-0.8c-0.9-0.4-1.5-0.8-1.8-1.1
		c-0.5-0.5-0.7-1.1-0.7-1.7s0.2-1.3,0.7-1.7c0.3-0.3,0.6-0.4,1-0.6c0.4-0.1,0.8-0.2,1.2-0.2h0.3c0.2,0,0.4,0,0.7,0.1l0.2,0
		c0.3,0.1,0.4,0.1,0.5,0.1l0.2,0l0.2,0c0.2,0,0.3,0,0.4,0.1c0.3,0.1,0.4,0.5,0.4,1.1c0,0.7-0.1,1-0.4,1c-0.1,0-0.3-0.2-0.6-0.5
		c-0.3-0.4-0.5-0.6-0.7-0.7C4.8,42,4.4,41.8,3.9,41.8z"/>
	<path class="st0" d="M13.5,46c-0.2,0-0.5-0.2-0.8-0.6s-0.7-0.6-1.2-0.6s-0.8,0.2-1.1,0.7c-0.3,0.4-0.5,1.1-0.5,1.9s0.2,1.4,0.6,1.9
		c0.4,0.5,0.9,0.7,1.5,0.7c0.3,0,0.6,0,0.8-0.1s0.4-0.2,0.6-0.3c0.2-0.1,0.3-0.1,0.4-0.1c0.1,0,0.2,0.1,0.2,0.3
		c0,0.3-0.3,0.5-0.8,0.8s-1.1,0.4-1.6,0.4c-1,0-1.8-0.3-2.4-0.9c-0.2-0.3-0.4-0.6-0.6-1c-0.2-0.4-0.2-0.8-0.2-1.3v-0.3c0,0,0,0,0,0
		c0,0,0,0,0,0c0-0.4,0.1-0.8,0.3-1.2c0.4-0.8,0.9-1.4,1.7-1.7c0.5-0.2,0.9-0.3,1.3-0.3h0.2c0.6,0,1.1,0.1,1.6,0.3
		c0.3,0.2,0.5,0.5,0.5,0.9c0,0.3-0.1,0.5-0.2,0.6C13.7,46,13.6,46,13.5,46z"/>
	<path class="st0" d="M15.2,50.3c0-0.1,0.1-0.2,0.3-0.4c0.2-0.2,0.3-0.4,0.4-0.7s0.1-1.4,0.1-3.5c0-2.1,0-3.4-0.1-3.8
		c0-0.2-0.1-0.4-0.3-0.5c-0.3-0.2-0.4-0.3-0.4-0.3c0-0.2,0.1-0.3,0.3-0.4c0.3-0.1,0.7-0.2,1.2-0.2h0.2c0.2,0,0.4,0.1,0.4,0.3
		c0.1,0.2,0.1,0.5,0.1,1.1l0,0.3c0,0.2,0,0.3,0,0.5l0,0.5c0,0.2,0,0.3,0,0.5c0,0.6,0.1,0.9,0.3,0.9c0,0,0.1-0.1,0.3-0.1
		c0.6-0.3,1.2-0.4,1.6-0.4c0.8,0,1.4,0.3,1.7,1c0.2,0.4,0.3,1.5,0.3,3.2c0,0.7,0,1.1,0.1,1.2c0,0.2,0.2,0.3,0.4,0.5
		c0.2,0.2,0.3,0.3,0.3,0.3c0,0.1-0.1,0.2-0.3,0.3c-0.2,0-0.7,0.1-1.4,0.1h-0.2c-0.5,0-0.7-0.1-0.7-0.3c0,0,0.1-0.2,0.2-0.3
		s0.2-0.4,0.2-0.6s0.1-0.8,0.1-1.8s0-1.6-0.1-1.9c-0.3-0.4-0.7-0.7-1-0.8c-0.5,0-0.9,0.2-1.3,0.6c-0.2,0.3-0.3,0.9-0.3,1.9
		c0,1,0,1.6,0.1,1.9s0.1,0.5,0.3,0.7c0.2,0.2,0.2,0.3,0.2,0.4c0,0.2-0.5,0.2-1.4,0.2S15.2,50.6,15.2,50.3z"/>
	<path class="st0" d="M30,47.2v0.3c0,0.4-0.1,0.8-0.2,1.2c-0.3,0.9-0.9,1.5-1.8,1.9c-0.4,0.2-0.8,0.2-1.1,0.2h-0.2
		c-0.9,0-1.6-0.3-2.2-0.9c-0.3-0.3-0.5-0.6-0.6-1c-0.2-0.4-0.2-0.9-0.2-1.4v-0.1c0-0.4,0.1-0.9,0.2-1.3c0.3-0.9,0.9-1.5,1.8-1.8
		c0.4-0.2,0.8-0.2,1.1-0.2H27c0.4,0,0.8,0.1,1.2,0.3c0.7,0.3,1.3,0.9,1.6,1.7C29.9,46.4,30,46.8,30,47.2z M25,47.2v0.3
		c0,0.8,0.2,1.4,0.5,1.9c0.1,0.2,0.3,0.4,0.5,0.6c0.2,0.1,0.4,0.2,0.7,0.2h0.1c0.4,0,0.8-0.2,1.1-0.6c0.3-0.4,0.5-1,0.5-1.7v-0.5
		c0-0.7-0.2-1.4-0.5-1.9c-0.3-0.5-0.7-0.8-1.2-0.8h-0.2c-0.4,0-0.8,0.2-1.1,0.7S25,46.4,25,47.2z"/>
	<path class="st0" d="M37.7,47.2v0.3c0,0.4-0.1,0.8-0.2,1.2c-0.3,0.9-0.9,1.5-1.8,1.9c-0.4,0.2-0.8,0.2-1.1,0.2h-0.2
		c-0.9,0-1.6-0.3-2.2-0.9c-0.3-0.3-0.5-0.6-0.6-1c-0.2-0.4-0.2-0.9-0.2-1.4v-0.1c0-0.4,0.1-0.9,0.2-1.3c0.3-0.9,0.9-1.5,1.8-1.8
		c0.4-0.2,0.8-0.2,1.1-0.2h0.3c0.4,0,0.8,0.1,1.2,0.3c0.7,0.3,1.3,0.9,1.6,1.7C37.6,46.4,37.7,46.8,37.7,47.2z M32.7,47.2v0.3
		c0,0.8,0.2,1.4,0.5,1.9c0.1,0.2,0.3,0.4,0.5,0.6c0.2,0.1,0.4,0.2,0.7,0.2h0.1c0.4,0,0.8-0.2,1.1-0.6c0.3-0.4,0.5-1,0.5-1.7v-0.5
		c0-0.7-0.2-1.4-0.5-1.9c-0.3-0.5-0.7-0.8-1.2-0.8h-0.2c-0.4,0-0.8,0.2-1.1,0.7S32.7,46.4,32.7,47.2z"/>
	<path class="st0" d="M38.8,50.5c0-0.1,0.1-0.2,0.3-0.4c0.2-0.2,0.3-0.4,0.4-0.7s0.1-1.5,0.1-3.7s0-3.3-0.1-3.6
		c0-0.3-0.2-0.5-0.4-0.6c-0.3-0.2-0.5-0.3-0.5-0.4v-0.1c0-0.1,0.1-0.1,0.2-0.2c0.4-0.2,1-0.3,1.6-0.3h0.1c0.2,0,0.4,0.2,0.4,0.5
		c0,0,0,0.4,0,1v1.5l0,0.3v0.4l0,0.3v2.2c0,1.3,0,2.2,0.1,2.5c0,0.3,0.1,0.6,0.3,0.7c0,0,0.1,0.1,0.3,0.2c0.2,0.1,0.3,0.2,0.3,0.3
		c0,0.2-0.3,0.2-0.8,0.2l-0.3,0h-0.3l-1.1,0h-0.1C39,50.7,38.8,50.6,38.8,50.5z"/>
</g>
</svg>
