<?xml version="1.0" encoding="utf-8"?>
<!-- Generator: Adobe Illustrator 20.1.0, SVG Export Plug-In . SVG Version: 6.00 Build 0)  -->
<svg version="1.1" id="レイヤー_1" xmlns="http://www.w3.org/2000/svg" xmlns:xlink="http://www.w3.org/1999/xlink" x="0px"
	 y="0px" viewBox="0 0 80 78" style="enable-background:new 0 0 80 78;" xml:space="preserve">
<style type="text/css">
	.st0{fill:#f16690;}
</style>
<title></title>
<g id="icomoon-ignore">
</g>
<g>
	<g>
		<path class="st0" d="M1.3,19.8c0.3,0,0.6-0.1,0.7-0.2c0.2-0.1,0.2-0.3,0.2-0.4v-0.8c0-0.9,0.1-1.6,0.4-2c0.1-0.2,0.3-0.3,0.6-0.4
			c0.3-0.1,0.6-0.2,0.9-0.2l0.8,0.1c0.4,0,0.6-0.2,0.6-0.6c0-0.3-0.1-0.5-0.2-0.7S5,14.4,4.8,14.4s-0.4,0-0.6,0.1s-0.4,0.1-0.6,0.1
			c-0.5,0-0.8-0.1-0.9-0.2c-0.1-0.1-0.2-0.4-0.2-0.8c0-0.8,0.1-1.4,0.3-1.6C3,11.7,3.4,11.6,4,11.6s1,0,1.2,0.1
			c0.2,0,0.4,0.1,0.6,0.1c0.2,0.1,0.4,0.1,0.4,0.1c0.3,0,0.5-0.2,0.5-0.5v-0.2c0-0.3-0.1-0.4-0.2-0.5s-0.4-0.1-0.7-0.1H5.4
			c-1.8,0-3.1,0.1-4.1,0.2C1,10.9,0.8,11,0.8,11.2c0,0,0,0.1,0.1,0.3S1,11.9,1,12c0,0.2,0,0.7,0,1.6s-0.1,2.3-0.2,4.1
			c0,0.3-0.1,0.5-0.2,0.8c-0.2,0.2-0.2,0.4-0.2,0.5v0.2c0,0.2,0.1,0.4,0.2,0.5S1,19.8,1.3,19.8z M11.2,15.8
			c-0.1,0.1-0.4,0.1-0.8,0.2c-0.4,0.1-0.7,0.1-0.8,0.1c-0.6,0.1-1,0.4-1.4,0.7c-0.4,0.3-0.6,0.8-0.6,1.4s0.2,1.1,0.5,1.4
			c0.4,0.3,0.8,0.5,1.3,0.5h0.2c0.3,0,0.7-0.1,1.1-0.2c0.4-0.2,0.7-0.2,0.7-0.2c0.1,0,0.3,0.1,0.6,0.2s0.5,0.2,0.8,0.2
			c0.2,0,0.4,0,0.5-0.1s0.2-0.2,0.2-0.3s-0.1-0.3-0.2-0.5c-0.1-0.2-0.2-0.4-0.2-0.5s0-0.7,0-1.6c0-1,0-1.5,0-1.6
			c0-0.5-0.2-0.8-0.3-1.1c-0.2-0.3-0.5-0.5-0.8-0.7c-0.4-0.2-0.8-0.3-1.2-0.3h-0.3c-0.5,0-1,0.1-1.5,0.3s-0.7,0.5-0.7,0.8
			c0,0.4,0.2,0.6,0.5,0.6c0.1,0,0.4-0.1,0.9-0.3s0.8-0.3,1.1-0.3s0.5,0.1,0.7,0.3s0.3,0.4,0.3,0.7C11.6,15.4,11.5,15.7,11.2,15.8z
			 M11.7,17.1v0.4v0.2v0.1v0.1c0,0.3-0.1,0.6-0.4,0.9c-0.3,0.3-0.6,0.4-1,0.4h-0.2c-0.3,0-0.5-0.1-0.7-0.3c-0.2-0.2-0.3-0.4-0.3-0.7
			v-0.1c0-0.4,0.1-0.6,0.3-0.8c0.3-0.3,0.7-0.4,1-0.4c0.1,0,0.1,0,0.3,0H11l0,0h0.3C11.5,16.7,11.7,16.8,11.7,17.1z M17.9,20.1
			c0.5,0,1-0.1,1.5-0.4s0.8-0.5,0.8-0.8c0-0.2-0.1-0.3-0.3-0.3c-0.1,0-0.3,0.1-0.8,0.2c-0.4,0.1-0.7,0.2-1,0.2c-0.6,0-1-0.2-1.3-0.5
			c-0.3-0.4-0.5-0.9-0.5-1.7c0-0.7,0.2-1.4,0.5-1.8c0.3-0.5,0.7-0.7,1.3-0.7l0,0c0.2,0,0.6,0.1,0.9,0.3c0.4,0.2,0.6,0.3,0.7,0.3
			c0.3,0,0.5-0.2,0.5-0.5s-0.2-0.6-0.5-0.8c-0.3-0.3-0.8-0.4-1.3-0.4h-0.2c-0.5,0-1,0.1-1.4,0.3c-0.7,0.3-1.2,0.9-1.6,1.8
			c-0.2,0.4-0.3,1-0.3,1.5v0.3c0,0.5,0.1,0.9,0.3,1.3C15.7,19.5,16.6,20.1,17.9,20.1z M27.7,17.5c0-0.5,0-0.9,0-1.2v-1.6v-0.4
			c0-0.3,0-0.5-0.1-0.6s-0.3-0.2-0.5-0.2c-0.3,0-0.5,0.1-0.6,0.2s-0.2,0.3-0.2,0.5v0.3v0.3c0,1.6-0.1,2.6-0.4,3.2
			c-0.1,0.3-0.3,0.5-0.6,0.7C25,18.9,24.8,19,24.5,19c-0.8,0-1.1-0.5-1.1-1.6l0.1-2.3c0-0.7-0.1-1.1-0.2-1.4
			c-0.1-0.2-0.3-0.4-0.6-0.4h-0.2c-0.5,0-0.7,0.1-0.7,0.4c0,0.1,0,0.2,0.1,0.5c0.1,0.2,0.1,0.5,0.1,0.7L21.9,17c0,1,0.2,1.8,0.5,2.2
			c0.3,0.4,0.8,0.6,1.4,0.6H24c0.4,0,0.9-0.1,1.5-0.4c0.2-0.1,0.3-0.2,0.4-0.2s0.2,0.1,0.4,0.2c0.2,0.2,0.4,0.2,0.6,0.2
			c0.6,0,0.9-0.2,0.9-0.6c0,0,0-0.2-0.1-0.4C27.7,18.5,27.7,18.1,27.7,17.5z M30.6,20H31c0.3,0,0.6-0.1,0.8-0.2
			c0.2-0.1,0.3-0.3,0.3-0.5v-0.1c0-0.1-0.1-0.2-0.2-0.4c-0.1-0.2-0.2-0.4-0.3-0.7c-0.1-0.3-0.1-0.8-0.1-1.4c0-0.7,0-1.7,0.1-3.1
			v-0.4v-0.3c0-0.2,0-0.3,0-0.5v-0.3c0,0,0-0.1,0-0.3l0.1-1c0-0.4,0-0.6-0.1-0.7s-0.3-0.2-0.5-0.2H31c-0.6,0-0.9,0.2-0.9,0.5
			c0,0.1,0,0.3,0.1,0.5s0.1,0.6,0.1,1v0.5v0.5c0,0.1,0,0.7-0.1,1.9s-0.1,1.9-0.1,2.3s0,0.6-0.1,0.8c0,0.2,0,0.5-0.1,0.9v0.3v0.2
			c0,0.2,0.1,0.3,0.2,0.4C30.2,19.9,30.4,20,30.6,20z M34.3,14.8c0,0.2,0.1,0.9,0.1,2.1s0.1,2,0.3,2.3c0.3,0.5,0.8,0.8,1.5,0.8
			c0.4,0,0.7-0.1,0.9-0.2s0.3-0.3,0.3-0.5s-0.2-0.3-0.6-0.4s-0.6-0.1-0.7-0.3c-0.2-0.2-0.3-0.6-0.3-1.2c0-1.2,0.1-2.1,0.3-2.7
			c0.1-0.3,0.4-0.5,0.8-0.6s0.6-0.3,0.6-0.5v-0.1c0-0.1-0.2-0.3-0.5-0.4s-0.6-0.2-0.7-0.3c-0.1-0.1-0.2-0.3-0.2-0.7
			C36,11.7,36,11.5,36,11.5c-0.1-0.2-0.2-0.2-0.4-0.2h-0.1c-0.2,0-0.4,0.2-0.5,0.5c0,0.1-0.1,0.3-0.2,0.6c-0.1,0.3-0.2,0.5-0.3,0.6
			c-0.4,0.4-0.7,0.7-0.7,0.7c0,0.1,0.1,0.2,0.3,0.4C34.1,14.4,34.2,14.6,34.3,14.8z M44.3,13.3c-0.4,0-0.7,0.1-0.8,0.4
			c0,0.1-0.1,0.4-0.2,0.9s-0.2,1.1-0.5,1.9c-0.4,1.1-0.7,1.7-1,1.7c-0.2-0.1-0.5-1.3-1.2-3.6c-0.1-0.4-0.1-0.6-0.1-0.6
			c-0.1-0.3-0.4-0.4-0.7-0.4s-0.6,0.1-0.7,0.2s-0.2,0.2-0.2,0.3c0,0.3,0.4,1.3,1.1,3c0.2,0.5,0.5,1.1,0.8,1.7s0.5,1,0.5,1.2
			c0,0.4-0.2,0.9-0.5,1.3c-0.2,0.2-0.5,0.4-0.9,0.6s-0.6,0.4-0.6,0.6s0.2,0.4,0.6,0.4s0.8-0.2,1.2-0.6s0.8-0.9,1.2-1.6
			s1-2.2,1.8-4.7c0.1-0.4,0.3-0.8,0.5-1.2s0.2-0.7,0.2-0.9C44.9,13.5,44.7,13.3,44.3,13.3z M2.7,36.1h0.2c0.4,0,0.9-0.1,1.3-0.3
			c0.8-0.4,1.4-1,1.7-2c0.1-0.5,0.2-0.9,0.2-1.4v-0.1c0-1.4-0.5-2.4-1.6-2.9c-0.3-0.2-0.7-0.2-1.1-0.2H3.1c-0.4,0-0.7,0.1-1.1,0.2
			c-0.4,0.2-0.8,0.4-1.1,0.8C0.3,30.8,0,31.7,0,32.9V33c0,1,0.3,1.8,0.8,2.4C1.2,35.8,1.9,36.1,2.7,36.1z M1.4,32.7v-0.2
			c0-0.7,0.2-1.2,0.5-1.7s0.7-0.7,1.2-0.7h0.1c0.4,0,0.8,0.2,1,0.6c0.2,0.4,0.4,0.9,0.4,1.5v0.5c0,0.8-0.2,1.4-0.5,1.9
			s-0.7,0.7-1.2,0.7H2.7c-0.4,0-0.7-0.2-1-0.6c-0.2-0.5-0.3-1-0.3-1.6C1.4,33.1,1.4,32.7,1.4,32.7z M11,27c0.1,0,0.3,0,0.5,0
			c0.1,0,0.2,0,0.3,0s0.2,0,0.3,0c0.2-0.1,0.4-0.2,0.4-0.4s-0.1-0.4-0.3-0.5s-0.5-0.2-0.9-0.2c-0.8,0-1.4,0.3-1.9,0.8
			c0,0-0.3,0.7-1,2c-0.1,0.1-0.2,0.3-0.3,0.5c-0.2,0.2-0.2,0.4-0.2,0.6c0,0.1,0.1,0.3,0.2,0.5c0.1,0.2,0.2,0.3,0.2,0.4
			c0.1,0.2,0.1,0.7,0.1,1.5c0,0.8,0,1.4-0.1,1.8c-0.1,0.4-0.1,0.8-0.2,1c-0.1,0.3-0.2,0.5-0.2,0.7S8,36,8.1,36.2
			c0.2,0.1,0.3,0.2,0.6,0.2h0.2c0.3,0,0.6-0.1,0.8-0.3s0.3-0.4,0.3-0.7l-0.1-1.2c0-1.3,0.1-2.4,0.4-3.2c0.1-0.4,0.3-0.6,0.6-0.8
			c0.4-0.2,0.6-0.4,0.6-0.5c0-0.2-0.2-0.4-0.5-0.5c-0.3-0.2-0.5-0.3-0.6-0.3c-0.1-0.2-0.2-0.4-0.2-0.7s0.1-0.6,0.3-0.9
			C10.4,27.2,10.7,27,11,27z M8,50.9l-0.1-0.2c-0.1-0.2-0.1-0.4-0.1-0.7c0-1.3,0.1-3.1,0.3-5.4c0-0.4,0.1-0.7,0.2-1
			c0.1-0.3,0.2-0.4,0.2-0.6c0-0.1-0.1-0.3-0.2-0.3c-0.1-0.1-0.3-0.1-0.4-0.1H7.7c-0.4,0-0.7,0.1-0.9,0.2c-0.2,0.1-0.4,0.3-0.4,0.6
			l0.1,0.9c0,1-0.1,1.7-0.3,2c-0.1,0.3-0.7,0.4-1.7,0.4s-1.6-0.1-1.8-0.2c-0.2-0.1-0.3-0.7-0.3-1.3c0-0.5,0-0.9,0-1.1
			s0.1-0.4,0.1-0.6c0.1-0.2,0.1-0.3,0.1-0.5s-0.1-0.3-0.3-0.4c-0.2-0.1-0.5-0.2-0.8-0.2c-0.7,0-1,0.2-1,0.6c0,0.1,0.1,0.2,0.2,0.5
			s0.2,0.5,0.2,0.8c0,2.3-0.1,4.1-0.3,5.6c0,0.3-0.1,0.5-0.2,0.8c-0.1,0.2-0.2,0.4-0.2,0.6c0,0.1,0.1,0.3,0.2,0.4
			c0.1,0.1,0.3,0.2,0.6,0.2c0.9,0,1.3-0.2,1.3-0.7c0,0,0-0.2-0.1-0.4v-0.2c0-0.1,0-0.3,0-0.5c0-1.2,0.1-2,0.4-2.2
			c0.2-0.2,0.8-0.4,1.8-0.4s1.5,0.1,1.7,0.2s0.3,0.5,0.3,1.2s-0.1,1.2-0.2,1.6C6.1,50.8,6,51.1,6,51.2s0.1,0.3,0.3,0.4
			s0.5,0.2,0.8,0.2s0.6,0,0.8-0.1c0.2-0.1,0.2-0.3,0.2-0.5C8.1,51.2,8.1,51.1,8,50.9z M14.3,51.2c0.1,0,0.2,0.1,0.4,0.2
			c0.2,0.2,0.4,0.2,0.6,0.2c0.6,0,0.9-0.2,0.9-0.6c0,0,0-0.2-0.1-0.4c0-0.2-0.1-0.6-0.1-1.2c0-0.5,0-0.9,0-1.2v-1.6v-0.4
			c0-0.3,0-0.5-0.1-0.6s-0.3-0.2-0.5-0.2c-0.3,0-0.5,0.1-0.6,0.2s-0.2,0.3-0.2,0.5v0.3v0.3c0,1.6-0.1,2.6-0.4,3.2
			c-0.1,0.3-0.3,0.5-0.6,0.7s-0.5,0.3-0.8,0.3c-0.8,0-1.1-0.5-1.1-1.6l0.1-2.3c0-0.7-0.1-1.1-0.2-1.4c-0.1-0.2-0.3-0.4-0.6-0.4h-0.2
			c-0.5,0-0.7,0.1-0.7,0.4c0,0.1,0,0.2,0.1,0.5c0.1,0.2,0.1,0.5,0.1,0.7L10.2,49c0,1,0.2,1.8,0.5,2.2s0.8,0.6,1.4,0.6h0.3
			c0.4,0,0.9-0.1,1.5-0.4C14,51.2,14.2,51.2,14.3,51.2z M27.5,50c0-0.1,0-0.4,0-1.1c0-1.4-0.1-2.3-0.3-2.7c-0.1-0.2-0.3-0.4-0.5-0.5
			c-0.2-0.2-0.5-0.2-0.9-0.2s-0.8,0.1-1.2,0.3c-0.5,0.2-0.7,0.3-0.7,0.3s-0.3-0.1-0.7-0.3c-0.4-0.2-0.8-0.3-1.2-0.3
			s-0.7,0.1-1.1,0.2c-0.4,0.1-0.6,0.2-0.9,0.2l-1-0.2c-0.3,0-0.5,0.1-0.5,0.4s-0.1,1.3-0.2,3.1c0,0.3,0,0.5-0.1,0.8l-0.1,0.5v0.2
			c0,0.3,0.1,0.5,0.2,0.7s0.3,0.3,0.6,0.3s0.5-0.1,0.6-0.4c0-0.1,0.1-0.7,0.2-1.7s0.2-1.6,0.3-1.9s0.3-0.5,0.6-0.7
			c0.3-0.2,0.5-0.3,0.9-0.3c0.3,0,0.6,0.1,0.7,0.4c0.1,0.2,0.2,0.8,0.2,1.7s0,1.5-0.1,1.9s-0.1,0.6-0.1,0.7c0,0.3,0.1,0.5,0.2,0.6
			s0.3,0.1,0.5,0.1c0.3,0,0.5-0.1,0.7-0.2c0.3-0.2,0.4-0.4,0.4-0.8l-0.1-1c0-1.1,0.1-2,0.4-2.6c0.2-0.4,0.5-0.6,0.8-0.6
			c0.5,0,0.9,0.2,1,0.6c0.1,0.2,0.2,0.8,0.2,1.9c0.1,1.1,0.1,1.8,0.2,2c0.1,0.3,0.3,0.5,0.7,0.5c0.2,0,0.4-0.1,0.5-0.2
			c0.1-0.2,0.2-0.3,0.2-0.4c0-0.1,0-0.3-0.1-0.6C27.6,50.2,27.5,50.1,27.5,50z M33.6,51.7c0.3,0.1,0.5,0.2,0.8,0.2
			c0.2,0,0.4,0,0.5-0.1s0.2-0.2,0.2-0.3S35,51.2,34.9,51s-0.2-0.4-0.2-0.5s0-0.7,0-1.6c0-1,0-1.5,0-1.6c0-0.5-0.2-0.8-0.3-1.1
			c-0.2-0.3-0.5-0.5-0.8-0.7c-0.4-0.2-0.8-0.3-1.2-0.3h-0.3c-0.5,0-1,0.1-1.5,0.3s-0.7,0.5-0.7,0.8c0,0.4,0.2,0.6,0.5,0.6
			c0.1,0,0.4-0.1,0.9-0.3s0.8-0.3,1.1-0.3s0.5,0.1,0.7,0.3s0.3,0.4,0.3,0.7s-0.1,0.5-0.4,0.6c-0.1,0.1-0.4,0.1-0.8,0.2
			c-0.4,0.1-0.7,0.1-0.8,0.1c-0.6,0.1-1,0.4-1.4,0.7s-0.6,0.8-0.6,1.4s0.2,1.1,0.5,1.4c0.4,0.3,0.8,0.5,1.3,0.5h0.2
			c0.3,0,0.7-0.1,1.1-0.2c0.4-0.2,0.7-0.2,0.7-0.2C33.1,51.6,33.3,51.6,33.6,51.7z M31.8,51.1h-0.2c-0.3,0-0.5-0.1-0.7-0.3
			s-0.3-0.4-0.3-0.7V50c0-0.4,0.1-0.6,0.3-0.8c0.3-0.3,0.7-0.4,1-0.4c0.1,0,0.1,0,0.3,0h0.3l0,0h0.3c0.3,0,0.4,0.1,0.4,0.4v0.4v0.2
			v0.1V50c0,0.3-0.1,0.6-0.4,0.9C32.5,51,32.2,51.1,31.8,51.1z M41,46.9c0.2,0.4,0.3,1.1,0.3,2.1c0,0.5,0,1,0,1.4v0.4
			c0,0.3,0,0.5,0.1,0.5c0.1,0.2,0.3,0.2,0.7,0.2c0.6,0,0.9-0.2,0.9-0.5c0-0.2,0-0.3-0.1-0.5s-0.1-0.4-0.2-0.5c0-0.1,0-0.4,0-0.7
			c0-0.1,0-0.1,0-0.2c0-0.1,0-0.2,0-0.3c0,0,0-0.1,0-0.3c0-0.1,0-0.2,0-0.2l0,0c0-1-0.1-1.6-0.2-1.9c-0.3-0.6-0.8-0.9-1.5-0.9h-0.2
			c-0.4,0-0.9,0.2-1.5,0.5c-0.2,0.1-0.3,0.2-0.4,0.2s-0.3-0.1-0.5-0.3c-0.3-0.2-0.6-0.3-0.8-0.3c-0.3,0-0.4,0.1-0.4,0.4v2
			c0,1.2-0.1,2-0.2,2.4l-0.1,0.3c-0.1,0.2-0.1,0.3-0.1,0.3v0.2c0,0.4,0.3,0.6,0.8,0.6h0.1c0.2,0,0.4-0.1,0.6-0.2
			c0.1-0.2,0.2-0.4,0.2-0.8c0-1.7,0.1-2.8,0.4-3.4c0.1-0.3,0.3-0.5,0.6-0.7c0.2-0.2,0.5-0.3,0.8-0.3C40.6,46.4,40.9,46.5,41,46.9z
			 M4,62.5c-0.9-0.4-1.4-0.7-1.5-0.8C2.2,61.3,2,61,2,60.6s0.2-0.7,0.5-0.9s0.7-0.3,1.1-0.3s0.9,0.1,1.3,0.4c0.7,0.4,1,0.6,1.1,0.6
			s0.2-0.1,0.2-0.2c0.1-0.1,0.1-0.3,0.1-0.5c0-0.4-0.2-0.7-0.5-1c-0.4-0.2-1-0.4-1.9-0.4H3.7c-0.9,0-1.6,0.2-2.2,0.7
			s-0.9,1.1-0.9,1.9c0,0.6,0.2,1.2,0.6,1.6c0.3,0.3,0.9,0.7,1.6,1.1c0.8,0.4,1.3,0.6,1.5,0.8C4.8,64.8,5,65.2,5,65.5
			c0,0.5-0.2,0.8-0.5,1.1C4.2,66.8,3.8,67,3.3,67s-0.9-0.1-1.2-0.2s-0.6-0.3-0.9-0.6c-0.3-0.2-0.5-0.4-0.6-0.4S0.4,65.9,0.3,66
			s-0.2,0.3-0.2,0.5s0.1,0.4,0.2,0.6c0.3,0.7,1.3,1,2.8,1c0.5,0,1-0.1,1.4-0.2c0.8-0.3,1.4-0.7,1.7-1.4c0.2-0.3,0.3-0.7,0.3-1.1
			v-0.3c0-0.6-0.2-1.1-0.7-1.6C5.4,63.2,4.8,62.8,4,62.5z M11.2,61.2c-0.3-0.1-0.6-0.2-0.7-0.3c-0.1-0.1-0.2-0.3-0.2-0.7
			c-0.1-0.4-0.1-0.6-0.1-0.6c-0.1-0.2-0.2-0.2-0.4-0.2H9.7c-0.2,0-0.4,0.2-0.5,0.5c0,0.1-0.1,0.3-0.2,0.6c-0.1,0.3-0.2,0.5-0.3,0.6
			C8.3,61.5,8,61.8,8,61.8c0,0.1,0.1,0.2,0.3,0.4s0.3,0.4,0.3,0.6s0.1,0.9,0.1,2.1c0,1.2,0.1,2,0.3,2.3c0.3,0.5,0.8,0.8,1.5,0.8
			c0.4,0,0.7-0.1,0.9-0.2s0.3-0.3,0.3-0.5s-0.2-0.3-0.6-0.4c-0.4,0-0.6-0.1-0.7-0.3c-0.2-0.2-0.3-0.6-0.3-1.2c0-1.2,0.1-2.1,0.3-2.7
			c0.1-0.3,0.4-0.5,0.8-0.6c0.4-0.1,0.6-0.3,0.6-0.5v-0.1C11.7,61.3,11.6,61.2,11.2,61.2z M19.2,65.5c0-0.5,0-0.9,0-1.2v-1.6v-0.4
			c0-0.3,0-0.5-0.1-0.6s-0.3-0.2-0.5-0.2c-0.3,0-0.5,0.1-0.6,0.2s-0.2,0.3-0.2,0.5v0.3v0.3c0,1.6-0.1,2.6-0.4,3.2
			c-0.1,0.3-0.3,0.5-0.6,0.7S16.3,67,16,67c-0.8,0-1.1-0.5-1.1-1.6l0.1-2.3c0-0.7-0.1-1.1-0.2-1.4c-0.1-0.2-0.3-0.4-0.6-0.4H14
			c-0.5,0-0.7,0.1-0.7,0.4c0,0.1,0,0.2,0.1,0.5c0.1,0.2,0.1,0.5,0.1,0.7L13.4,65c0,1,0.2,1.8,0.5,2.2c0.3,0.4,0.8,0.6,1.4,0.6h0.2
			c0.4,0,0.9-0.1,1.5-0.4c0.2-0.1,0.3-0.2,0.4-0.2s0.2,0.1,0.4,0.2c0.2,0.2,0.4,0.2,0.6,0.2c0.6,0,0.9-0.2,0.9-0.6
			c0,0,0-0.2-0.1-0.4C19.3,66.5,19.3,66.1,19.2,65.5z M26.5,58.1L26.5,58.1c-0.4,0-0.6,0.1-0.8,0.2c-0.2,0.2-0.3,0.3-0.3,0.5
			c0,0,0,0.2,0.1,0.4c0,0.2,0.1,0.4,0.1,0.5c0,0.7-0.1,1.1-0.2,1.3s-0.5,0.3-1,0.3s-1,0.1-1.4,0.2c-0.4,0.2-0.7,0.4-1,0.8
			c-0.3,0.3-0.5,0.8-0.7,1.3S21,64.6,21,65v0.2c0,0.8,0.2,1.5,0.6,2s0.9,0.8,1.6,0.8h0.2l0,0c0.4,0,0.9-0.1,1.4-0.3
			c0.2-0.1,0.3-0.1,0.4-0.1s0.3,0,0.5,0.1s0.5,0.1,0.7,0.1s0.4-0.1,0.5-0.2s0.2-0.2,0.2-0.3c0-0.1,0-0.3-0.1-0.5s-0.1-0.6-0.1-1
			v-0.6V65c0-0.1,0-0.2,0-0.3v-0.2c0-0.4,0-1.2,0.1-2.3s0.1-1.8,0.1-2s0-0.4,0-0.5v-0.3v-0.6c0-0.3-0.1-0.5-0.2-0.6
			C26.9,58.1,26.7,58.1,26.5,58.1z M25.5,64v0.3v0.1c0,0,0,0.1,0,0.2c0,0.8-0.1,1.4-0.4,1.9c-0.3,0.4-0.7,0.6-1.2,0.6h-0.2
			c-0.3,0-0.6-0.2-0.9-0.5c-0.3-0.4-0.4-0.9-0.4-1.4v-0.5c0-0.7,0.2-1.4,0.5-1.8c0.3-0.5,0.7-0.7,1.2-0.7h0.3c0.7,0,1.1,0.5,1.1,1.4
			V64z M30.2,60L30.2,60c0.4,0,0.6-0.1,0.7-0.2c0.1-0.2,0.2-0.4,0.2-0.6v-0.1c0-0.2-0.1-0.4-0.2-0.5s-0.2-0.2-0.4-0.2h-0.2h-0.1H30
			c-0.2,0-0.3,0.1-0.4,0.2s-0.2,0.3-0.2,0.4v0.2v0.1c0,0.2,0.1,0.4,0.2,0.5S29.8,60,30,60H30.2z M30.7,66.1c0-0.2-0.1-0.6-0.1-1.3
			v-0.3v-0.6v-0.2l0.1-1.8c0-0.2,0-0.3-0.1-0.5c-0.1-0.1-0.2-0.2-0.5-0.2h-0.2c-0.6,0-0.9,0.2-0.9,0.5c0,0.1,0.1,0.2,0.2,0.5
			s0.2,0.6,0.2,0.9v0.3c0,0.2,0,0.4,0,0.7v0.2v0.4c0,0.1,0,0.2,0,0.4c0,0.6-0.1,1.1-0.2,1.5S29,67.2,29,67.2v0.2
			c0,0.1,0.1,0.2,0.2,0.3c0.1,0.1,0.3,0.2,0.5,0.2h0.2c0.4,0,0.7-0.1,0.9-0.2c0.2-0.1,0.3-0.3,0.3-0.5v-0.1c0-0.1-0.1-0.2-0.2-0.4
			C30.8,66.5,30.8,66.2,30.7,66.1z M36.1,61.2h-0.3c-0.4,0-0.9,0.1-1.3,0.3c-0.8,0.3-1.4,1-1.7,1.9c-0.2,0.5-0.3,0.9-0.3,1.3V65
			c0,0.9,0.3,1.7,0.8,2.2c0.5,0.6,1.2,0.8,2.1,0.8h0.2c0.6,0,1.1-0.1,1.6-0.4s0.8-0.5,0.8-0.8c0-0.2-0.1-0.3-0.3-0.3
			c-0.1,0-0.3,0.1-0.8,0.2c-0.4,0.1-0.8,0.2-1,0.2c-0.5,0-1-0.1-1.3-0.4s-0.5-0.6-0.5-1c0-0.3,0.1-0.5,0.4-0.5
			c0.1,0,0.6-0.1,1.5-0.2s1.5-0.3,1.7-0.4c0.4-0.2,0.5-0.5,0.5-1v-0.1c0-0.6-0.2-1.1-0.6-1.5C37.2,61.3,36.7,61.2,36.1,61.2z
			 M37,63.2c0,0.2-0.1,0.4-0.2,0.5c-0.3,0.2-0.6,0.3-1.1,0.3c-0.1,0-0.3,0-0.7,0.1h-0.3l0,0h-0.3c-0.3,0-0.4-0.1-0.4-0.2v-0.1
			c0-0.4,0.2-0.8,0.5-1.2s0.7-0.6,1.2-0.6l0,0l0,0c0.3,0,0.6,0.1,0.8,0.3C36.8,62.6,37,62.8,37,63.2L37,63.2z M42.7,64.1
			c-0.6-0.2-0.9-0.4-1.1-0.5c-0.3-0.2-0.4-0.4-0.4-0.7s0.1-0.4,0.3-0.6c0.2-0.1,0.5-0.2,0.8-0.2s0.7,0.1,1,0.3
			c0.4,0.2,0.6,0.3,0.7,0.3c0.3,0,0.4-0.2,0.4-0.5s-0.2-0.6-0.5-0.8s-0.8-0.3-1.4-0.3h-0.2c-0.7,0-1.2,0.2-1.7,0.6s-0.7,0.8-0.7,1.3
			s0.1,0.9,0.4,1.2c0.3,0.3,0.7,0.6,1.4,0.8s1,0.5,1.1,0.6c0.2,0.2,0.4,0.4,0.4,0.7c0,0.3-0.1,0.5-0.3,0.6c-0.2,0.2-0.5,0.2-0.9,0.2
			s-0.8-0.1-1.2-0.4c-0.4-0.2-0.7-0.4-0.7-0.4c-0.3,0-0.4,0.2-0.4,0.5s0.2,0.6,0.6,0.8c0.4,0.2,0.9,0.3,1.7,0.3h0.2
			c0.7,0,1.3-0.2,1.8-0.6s0.7-0.9,0.7-1.4s-0.2-1-0.6-1.3C43.7,64.5,43.3,64.2,42.7,64.1z"/>
	</g>
</g>
</svg>
