<?xml version="1.0" encoding="utf-8"?>
<!-- Generator: Adobe Illustrator 20.1.0, SVG Export Plug-In . SVG Version: 6.00 Build 0)  -->
<svg version="1.1" id="レイヤー_1" xmlns="http://www.w3.org/2000/svg" xmlns:xlink="http://www.w3.org/1999/xlink" x="0px"
	 y="0px" viewBox="0 0 80 78" style="enable-background:new 0 0 80 78;" xml:space="preserve">
<title></title>
<g id="icomoon-ignore">
</g>
<g>
	<g>
		<path d="M1.3,26.4c0.3,0,0.6-0.1,0.7-0.2c0.2-0.1,0.2-0.3,0.2-0.4V25c0-0.9,0.1-1.6,0.4-2c0.1-0.2,0.3-0.3,0.6-0.4
			s0.6-0.2,0.9-0.2l0.8,0.1c0.4,0,0.6-0.2,0.6-0.6c0-0.3-0.1-0.5-0.2-0.7C5.2,21,5,21,4.8,21s-0.4,0-0.6,0.1
			c-0.2,0.1-0.4,0.1-0.6,0.1c-0.5,0-0.8-0.1-0.9-0.2c-0.1-0.1-0.2-0.4-0.2-0.8c0-0.8,0.1-1.4,0.3-1.6C3,18.3,3.4,18.2,4,18.2
			c0.6,0,1,0,1.2,0.1c0.2,0,0.4,0.1,0.6,0.1c0.2,0.1,0.4,0.1,0.4,0.1c0.3,0,0.5-0.2,0.5-0.5v-0.2c0-0.3-0.1-0.4-0.2-0.5
			c-0.1-0.1-0.4-0.1-0.7-0.1H5.4c-1.8,0-3.1,0.1-4.1,0.2c-0.3,0.1-0.5,0.2-0.5,0.4c0,0,0,0.1,0.1,0.3C1,18.3,1,18.5,1,18.6
			c0,0.2,0,0.7,0,1.6s-0.1,2.3-0.2,4.1c0,0.3-0.1,0.5-0.2,0.8c-0.2,0.2-0.2,0.4-0.2,0.5v0.2c0,0.2,0.1,0.4,0.2,0.5
			C0.7,26.4,1,26.4,1.3,26.4z M11.2,22.4c-0.1,0.1-0.4,0.1-0.8,0.2c-0.4,0.1-0.7,0.1-0.8,0.1c-0.6,0.1-1,0.4-1.4,0.7
			c-0.4,0.3-0.6,0.8-0.6,1.4s0.2,1.1,0.5,1.4c0.4,0.3,0.8,0.5,1.3,0.5h0.2c0.3,0,0.7-0.1,1.1-0.2c0.4-0.2,0.7-0.2,0.7-0.2
			c0.1,0,0.3,0.1,0.6,0.2c0.3,0.1,0.5,0.2,0.8,0.2c0.2,0,0.4,0,0.5-0.1s0.2-0.2,0.2-0.3s-0.1-0.3-0.2-0.5c-0.1-0.2-0.2-0.4-0.2-0.5
			s0-0.7,0-1.6c0-1,0-1.5,0-1.6c0-0.5-0.2-0.8-0.3-1.1c-0.2-0.3-0.5-0.5-0.8-0.7c-0.4-0.2-0.8-0.3-1.2-0.3h-0.3
			c-0.5,0-1,0.1-1.5,0.3c-0.5,0.2-0.7,0.5-0.7,0.8c0,0.4,0.2,0.6,0.5,0.6c0.1,0,0.4-0.1,0.9-0.3c0.5-0.2,0.8-0.3,1.1-0.3
			s0.5,0.1,0.7,0.3c0.2,0.2,0.3,0.4,0.3,0.7C11.6,22,11.5,22.3,11.2,22.4z M11.7,23.7v0.4v0.2v0.1v0.1c0,0.3-0.1,0.6-0.4,0.9
			c-0.3,0.3-0.6,0.4-1,0.4h-0.2c-0.3,0-0.5-0.1-0.7-0.3c-0.2-0.2-0.3-0.4-0.3-0.7v-0.1c0-0.4,0.1-0.6,0.3-0.8c0.3-0.3,0.7-0.4,1-0.4
			c0.1,0,0.1,0,0.3,0H11l0,0h0.3C11.5,23.3,11.7,23.4,11.7,23.7z M19.5,26.3c0.5-0.3,0.8-0.5,0.8-0.8c0-0.2-0.1-0.3-0.3-0.3
			c-0.1,0-0.3,0.1-0.8,0.2c-0.4,0.1-0.7,0.2-1,0.2c-0.6,0-1-0.2-1.3-0.5c-0.3-0.4-0.5-0.9-0.5-1.7c0-0.7,0.2-1.4,0.5-1.8
			c0.3-0.5,0.7-0.7,1.3-0.7l0,0c0.2,0,0.6,0.1,0.9,0.3c0.4,0.2,0.6,0.3,0.7,0.3c0.3,0,0.5-0.2,0.5-0.5s-0.2-0.6-0.5-0.8
			c-0.4-0.3-0.9-0.4-1.4-0.4h-0.2c-0.5,0-1,0.1-1.4,0.3c-0.7,0.3-1.2,0.9-1.6,1.8c-0.2,0.4-0.3,1-0.3,1.5v0.3c0,0.5,0.1,0.9,0.3,1.3
			c0.4,1.1,1.3,1.6,2.7,1.6C18.4,26.7,18.9,26.5,19.5,26.3z M24,26.5c0.4,0,0.9-0.1,1.5-0.4c0.2-0.1,0.3-0.2,0.4-0.2
			c0.1,0,0.2,0.1,0.4,0.2c0.2,0.2,0.4,0.2,0.6,0.2c0.6,0,0.9-0.2,0.9-0.6c0,0,0-0.2-0.1-0.4c0-0.2-0.1-0.6-0.1-1.2
			c0-0.5,0-0.9,0-1.2v-1.6v-0.4c0-0.3,0-0.5-0.1-0.6s-0.3-0.2-0.5-0.2c-0.3,0-0.5,0.1-0.6,0.2s-0.2,0.3-0.2,0.5v0.3v0.3
			c0,1.6-0.1,2.6-0.4,3.2c-0.1,0.3-0.3,0.5-0.6,0.7s-0.5,0.3-0.8,0.3c-0.8,0-1.1-0.5-1.1-1.6l0.1-2.3c0-0.7-0.1-1.1-0.2-1.4
			c-0.1-0.2-0.3-0.4-0.6-0.4h-0.2c-0.5,0-0.7,0.1-0.7,0.4c0,0.1,0,0.2,0.1,0.5c0.1,0.2,0.1,0.5,0.1,0.7l-0.1,2.1
			c0,1,0.2,1.8,0.5,2.2s0.8,0.6,1.4,0.6H24V26.5z M30.6,26.6H31c0.3,0,0.6-0.1,0.8-0.2c0.2-0.1,0.3-0.3,0.3-0.5v-0.1
			c0-0.1-0.1-0.2-0.2-0.4c-0.1-0.2-0.2-0.4-0.3-0.7c-0.1-0.3-0.1-0.8-0.1-1.4c0-0.7,0-1.7,0.1-3.1v-0.4v-0.3c0-0.2,0-0.3,0-0.5v-0.3
			c0,0,0-0.1,0-0.3l0.1-1c0-0.4,0-0.6-0.1-0.7s-0.3-0.2-0.5-0.2H31c-0.6,0-0.9,0.2-0.9,0.5c0,0.1,0,0.3,0.1,0.5s0.1,0.6,0.1,1V19
			v0.5c0,0.1,0,0.7-0.1,1.9c-0.1,1.2-0.1,1.9-0.1,2.3s0,0.6-0.1,0.8c0,0.2,0,0.5-0.1,0.9v0.3v0.2c0,0.2,0.1,0.3,0.2,0.4
			C30.2,26.5,30.4,26.6,30.6,26.6z M34.3,21.4c0,0.2,0.1,0.9,0.1,2.1s0.1,2,0.3,2.3c0.3,0.5,0.8,0.8,1.5,0.8c0.4,0,0.7-0.1,0.9-0.2
			c0.2-0.1,0.3-0.3,0.3-0.5s-0.2-0.3-0.6-0.4s-0.6-0.1-0.7-0.3c-0.2-0.2-0.3-0.6-0.3-1.2c0-1.2,0.1-2.1,0.3-2.7
			c0.1-0.3,0.4-0.5,0.8-0.6s0.6-0.3,0.6-0.5v-0.1c0-0.1-0.2-0.3-0.5-0.4s-0.6-0.2-0.7-0.3c-0.1-0.1-0.2-0.3-0.2-0.7
			C36,18.3,36,18.1,36,18.1c-0.1-0.2-0.2-0.2-0.4-0.2h-0.1c-0.2,0-0.4,0.2-0.5,0.5c0,0.1-0.1,0.3-0.2,0.6c-0.1,0.3-0.2,0.5-0.3,0.6
			c-0.4,0.4-0.7,0.7-0.7,0.7c0,0.1,0.1,0.2,0.3,0.4C34.1,21,34.2,21.2,34.3,21.4z M42.4,27.2c0.4-0.7,1-2.2,1.8-4.7
			c0.1-0.4,0.3-0.8,0.5-1.2c0.2-0.4,0.2-0.7,0.2-0.9c0-0.3-0.2-0.5-0.6-0.5s-0.7,0.1-0.8,0.4c0,0.1-0.1,0.4-0.2,0.9
			s-0.2,1.1-0.5,1.9c-0.4,1.1-0.7,1.7-1,1.7c-0.2-0.1-0.5-1.3-1.2-3.6c-0.1-0.4-0.1-0.6-0.1-0.6c-0.1-0.3-0.4-0.4-0.7-0.4
			c-0.3,0-0.6,0.1-0.7,0.2s-0.2,0.2-0.2,0.3c0,0.3,0.4,1.3,1.1,3c0.2,0.5,0.5,1.1,0.8,1.7s0.5,1,0.5,1.2c0,0.4-0.2,0.9-0.5,1.3
			c-0.2,0.2-0.5,0.4-0.9,0.6c-0.4,0.2-0.6,0.4-0.6,0.6c0,0.2,0.2,0.4,0.6,0.4s0.8-0.2,1.2-0.6C41.6,28.4,42,27.9,42.4,27.2z
			 M2.7,42.7h0.2c0.4,0,0.9-0.1,1.3-0.3c0.8-0.4,1.4-1,1.7-2C6,39.9,6.1,39.5,6.1,39v-0.1c0-1.4-0.5-2.4-1.6-2.9
			c-0.3-0.2-0.7-0.2-1.1-0.2H3.1c-0.4,0-0.7,0.1-1.1,0.2c-0.4,0.2-0.8,0.4-1.1,0.8C0.3,37.4,0,38.3,0,39.5v0.1c0,1,0.3,1.8,0.8,2.4
			C1.2,42.4,1.9,42.7,2.7,42.7z M1.4,39.3v-0.2c0-0.7,0.2-1.2,0.5-1.7s0.7-0.7,1.2-0.7h0.1c0.4,0,0.8,0.2,1,0.6
			c0.3,0.4,0.4,0.9,0.4,1.5v0.5c0,0.8-0.2,1.4-0.5,1.9s-0.7,0.7-1.2,0.7H2.7c-0.4,0-0.7-0.2-1-0.6c-0.2-0.5-0.3-1-0.3-1.6V39.3z
			 M8.7,43.1c0.3,0,0.6-0.1,0.8-0.3c0.2-0.2,0.3-0.4,0.3-0.7l-0.1-1.2c0-1.3,0.1-2.4,0.4-3.2c0.1-0.4,0.3-0.6,0.6-0.8
			c0.4-0.2,0.6-0.4,0.6-0.5c0-0.2-0.2-0.4-0.5-0.5c-0.3-0.2-0.5-0.3-0.6-0.3c-0.1-0.2-0.2-0.4-0.2-0.7c0-0.3,0.1-0.6,0.3-0.9
			c0.2-0.3,0.4-0.4,0.7-0.4c0.1,0,0.3,0,0.5,0c0.1,0,0.2,0,0.3,0s0.2,0,0.3,0c0.2-0.1,0.4-0.2,0.4-0.4c0-0.2-0.1-0.4-0.3-0.5
			s-0.5-0.2-0.9-0.2c-0.8,0-1.4,0.3-1.9,0.8c0,0-0.3,0.7-1,2c-0.1,0.1-0.2,0.3-0.3,0.5c-0.2,0.2-0.2,0.4-0.2,0.6
			c0,0.1,0.1,0.3,0.2,0.5c0.1,0.2,0.2,0.3,0.2,0.4c0.1,0.2,0.1,0.7,0.1,1.5c0,0.8,0,1.4-0.1,1.8s-0.1,0.8-0.2,1
			c-0.1,0.3-0.2,0.5-0.2,0.7c0,0.2,0.1,0.3,0.2,0.5C8.3,42.9,8.4,43,8.7,43h0V43.1z M4,48.9c-1,0-1.9,0-2.5,0.1
			c-0.4,0.1-0.6,0.2-0.6,0.4c0,0.1,0,0.2,0.1,0.4c0,0.2,0.1,0.8,0.1,1.6v0.9v0.2c0,0.1,0,0.3,0,0.6v0.5c0,0.6,0,1.2-0.1,2
			c-0.1,0.7-0.2,1.3-0.3,1.6c-0.2,0.3-0.3,0.5-0.3,0.6c0,0.4,0.3,0.6,0.8,0.6h0.2c0.3,0,0.6-0.1,0.8-0.3c0.2-0.2,0.3-0.5,0.3-0.8
			c0-0.1,0-0.3-0.1-0.5c-0.1-0.2-0.1-0.5-0.1-0.7c0-0.7,0.6-1.3,1.9-1.5c0.5-0.1,1-0.2,1.3-0.4c0.3-0.1,0.6-0.3,0.9-0.6
			C7,53,7.3,52.3,7.3,51.5v-0.2c0-0.4-0.1-0.7-0.3-1.1C6.5,49.4,5.5,48.9,4,48.9z M5.7,51.8c0,0.6-0.2,1.1-0.6,1.5
			c-0.4,0.4-1,0.6-1.6,0.6H3.1H3c-0.4,0-0.6-0.1-0.6-0.4v-0.3v-0.6v-0.1v-0.1v-0.9v-0.1v-0.5c0,0,0-0.1,0-0.2c0-0.4,0.1-0.6,0.2-0.8
			c0.1-0.1,0.4-0.2,0.9-0.2h0.2c0.6,0,1,0.1,1.4,0.4s0.5,0.7,0.5,1.3L5.7,51.8L5.7,51.8z M14.3,56.4c0-0.1,0-0.5,0-1.1
			c0-1.3-0.1-2.1-0.3-2.5c-0.3-0.6-0.8-0.9-1.6-0.9c-0.4,0-0.8,0.1-1.3,0.3l-0.2,0.1c-0.2,0.1-0.2,0.1-0.3,0.1
			c-0.2,0-0.2-0.1-0.3-0.2c0-0.1-0.1-0.6-0.1-1.5s0-1.4-0.1-1.5c-0.1-0.3-0.4-0.5-0.8-0.5c-0.4,0-0.6,0.1-0.6,0.3v0.6v0.8
			c0,0.3,0,1.3-0.1,2.9s-0.1,2.5-0.1,2.8c0,0.3-0.1,0.6-0.2,0.9c-0.1,0.3-0.1,0.6-0.1,0.8c0,0.4,0.3,0.6,0.8,0.6
			c0.3,0,0.5-0.1,0.7-0.3c0.2-0.2,0.2-0.4,0.2-0.6v-0.7c0-1.4,0.1-2.4,0.4-2.9c0.3-0.5,0.7-0.8,1.3-0.8c0.7,0,1.1,0.6,1.1,1.8V56
			v1.2c0,0.5,0,0.8,0.1,0.9c0.1,0.2,0.3,0.3,0.6,0.3s0.5-0.1,0.6-0.2s0.2-0.3,0.2-0.6c0,0,0-0.2-0.1-0.5
			C14.4,56.8,14.3,56.6,14.3,56.4z M21.5,57c0-0.1,0-0.7,0-1.6c0-1,0-1.5,0-1.6c0-0.5-0.2-0.8-0.3-1.1c-0.2-0.3-0.5-0.5-0.8-0.7
			c-0.4-0.2-0.8-0.3-1.2-0.3h-0.3c-0.5,0-1,0.1-1.5,0.3c-0.5,0.2-0.7,0.5-0.7,0.8c0,0.4,0.2,0.6,0.5,0.6c0.1,0,0.4-0.1,0.9-0.3
			c0.5-0.2,0.8-0.3,1.1-0.3s0.5,0.1,0.7,0.3c0.2,0.2,0.3,0.4,0.3,0.7c0,0.3-0.1,0.5-0.4,0.6c-0.1,0.1-0.4,0.1-0.8,0.2
			c-0.4,0.1-0.7,0.1-0.8,0.1c-0.6,0.1-1,0.4-1.4,0.7c-0.4,0.3-0.6,0.8-0.6,1.4c0,0.6,0.2,1.1,0.5,1.4s0.8,0.5,1.3,0.5h0.2
			c0.3,0,0.7-0.1,1.1-0.2c0.4-0.2,0.7-0.2,0.7-0.2c0.1,0,0.3,0.1,0.6,0.2s0.5,0.2,0.8,0.2c0.2,0,0.4,0,0.5-0.1s0.2-0.2,0.2-0.3
			S22,58,21.9,57.8C21.6,57.3,21.6,57.2,21.5,57z M20.1,56.1v0.2v0.1v0.1c0,0.3-0.1,0.6-0.4,0.9c-0.3,0.3-0.6,0.4-1,0.4h-0.2
			c-0.3,0-0.5-0.1-0.7-0.3c-0.2-0.2-0.3-0.4-0.3-0.7v-0.1c0-0.4,0.1-0.6,0.3-0.8c0.3-0.3,0.7-0.4,1-0.4c0.1,0,0.1,0,0.3,0h0.3l0,0
			h0.3c0.3,0,0.4,0.1,0.4,0.4C20.1,55.9,20.1,56.1,20.1,56.1z M27.4,52L27.4,52c-0.4,0-0.7,0.1-1.1,0.3c-0.4,0.2-0.6,0.3-0.6,0.3
			c-0.1,0-0.1-0.1-0.2-0.2c-0.1-0.1-0.1-0.2-0.2-0.2C25.1,52,24.8,52,24.4,52s-0.6,0.1-0.6,0.4c0,0.1,0,0.3,0.1,0.6
			c0.1,0.3,0.1,0.8,0.1,1.4v0.5c0,0.1,0,0.4,0,0.7c0,0.6-0.1,1.1-0.3,1.6c-0.1,0.2-0.1,0.4-0.1,0.5c0,0.2,0.1,0.3,0.2,0.4
			c0.1,0.1,0.3,0.2,0.6,0.2h0.2c0.3,0,0.5-0.1,0.7-0.2c0.2-0.2,0.3-0.3,0.3-0.5c0-0.2,0-0.4-0.1-0.8c-0.1-0.4-0.1-0.6-0.1-0.8
			c0-1.1,0.1-1.9,0.4-2.4c0.3-0.5,0.8-0.7,1.4-0.7c0.3,0,0.5,0,0.6-0.1s0.2-0.2,0.2-0.4v-0.1c0-0.2-0.1-0.3-0.2-0.4
			C27.8,52.1,27.7,52,27.4,52z M38.8,56.6c0-0.1,0-0.4,0-1.1c0-1.4-0.1-2.3-0.3-2.7c-0.1-0.2-0.3-0.4-0.5-0.5
			c-0.2-0.2-0.5-0.2-0.9-0.2s-0.8,0.1-1.2,0.3c-0.5,0.2-0.7,0.3-0.7,0.3s-0.3-0.1-0.7-0.3c-0.4-0.2-0.8-0.3-1.2-0.3
			c-0.4,0-0.7,0.1-1.1,0.2s-0.6,0.2-0.9,0.2l-1-0.2c-0.3,0-0.5,0.1-0.5,0.4s-0.1,1.3-0.2,3.1c0,0.3,0,0.5-0.1,0.8l-0.1,0.5v0.2
			c0,0.3,0.1,0.5,0.2,0.7c0.1,0.2,0.3,0.3,0.6,0.3s0.5-0.1,0.6-0.4c0-0.1,0.1-0.7,0.2-1.7c0.1-1,0.2-1.6,0.3-1.9s0.3-0.5,0.6-0.7
			c0.3-0.2,0.5-0.3,0.9-0.3c0.3,0,0.6,0.1,0.7,0.4c0.1,0.2,0.2,0.8,0.2,1.7s0,1.5-0.1,1.9s-0.1,0.6-0.1,0.7c0,0.3,0.1,0.5,0.2,0.6
			s0.3,0.1,0.5,0.1c0.3,0,0.5-0.1,0.7-0.2c0.3-0.2,0.4-0.4,0.4-0.8l-0.1-1c0-1.1,0.1-2,0.4-2.6c0.2-0.4,0.5-0.6,0.8-0.6
			c0.5,0,0.9,0.2,1,0.6c0.1,0.2,0.2,0.8,0.2,1.9c0.1,1.1,0.1,1.8,0.2,2c0.1,0.3,0.3,0.5,0.7,0.5c0.2,0,0.4-0.1,0.5-0.2
			c0.1-0.2,0.2-0.3,0.2-0.4s0-0.3-0.1-0.6C38.8,56.8,38.8,56.7,38.8,56.6z M45.9,57c0-0.1,0-0.7,0-1.6c0-1,0-1.5,0-1.6
			c0-0.5-0.2-0.8-0.3-1.1c-0.2-0.3-0.5-0.5-0.8-0.7c-0.4-0.2-0.8-0.3-1.2-0.3h-0.3c-0.5,0-1,0.1-1.5,0.3c-0.5,0.2-0.7,0.5-0.7,0.8
			c0,0.4,0.2,0.6,0.5,0.6c0.1,0,0.4-0.1,0.9-0.3c0.5-0.2,0.8-0.3,1.1-0.3c0.3,0,0.5,0.1,0.7,0.3c0.2,0.2,0.3,0.4,0.3,0.7
			c0,0.3-0.1,0.5-0.4,0.6c-0.1,0.1-0.4,0.1-0.8,0.2s-0.7,0.1-0.8,0.1c-0.6,0.1-1,0.4-1.4,0.7c-0.6,0.3-0.8,0.8-0.8,1.4
			s0.2,1.1,0.5,1.4s0.8,0.5,1.3,0.5h0.2c0.3,0,0.7-0.1,1.1-0.2c0.4-0.2,0.7-0.2,0.7-0.2c0.1,0,0.3,0.1,0.6,0.2
			c0.3,0.1,0.5,0.2,0.8,0.2c0.2,0,0.4,0,0.5-0.1s0.2-0.2,0.2-0.3s-0.1-0.3-0.2-0.5C46,57.3,45.9,57.2,45.9,57z M44.5,56.1v0.2v0.1
			v0.1c0,0.3-0.1,0.6-0.4,0.9s-0.6,0.4-1,0.4h-0.2c-0.3,0-0.5-0.1-0.7-0.3c-0.2-0.2-0.3-0.4-0.3-0.7v-0.1c0-0.4,0.1-0.6,0.3-0.8
			c0.3-0.3,0.7-0.4,1-0.4c0.1,0,0.1,0,0.3,0h0.3l0,0h0.3c0.3,0,0.4,0.1,0.4,0.4L44.5,56.1L44.5,56.1z M50.9,52.9L50.9,52.9
			c0.3,0,0.6,0.1,1,0.3c0.4,0.2,0.6,0.3,0.7,0.3c0.3,0,0.5-0.2,0.5-0.5c0-0.3-0.2-0.6-0.5-0.8c-0.4-0.2-0.8-0.3-1.3-0.3h-0.2
			c-0.5,0-1,0.1-1.4,0.3c-0.7,0.3-1.2,0.9-1.6,1.8c-0.2,0.4-0.3,1-0.3,1.5v0.3c0,0.5,0.1,0.9,0.3,1.3c0.4,1.1,1.3,1.6,2.7,1.6
			c0.5,0,1-0.1,1.5-0.4s0.8-0.5,0.8-0.8c0-0.2-0.1-0.3-0.3-0.3c-0.1,0-0.3,0.1-0.8,0.2c-0.4,0.1-0.7,0.2-1,0.2c-0.6,0-1-0.2-1.3-0.5
			c-0.3-0.4-0.5-0.9-0.5-1.7c0-0.7,0.2-1.4,0.5-1.8C50,53.1,50.4,52.9,50.9,52.9z M59.9,51.9c-0.4,0-0.7,0.1-0.8,0.4
			c0,0.1-0.1,0.4-0.2,0.9s-0.2,1.1-0.5,1.9c-0.4,1.1-0.7,1.7-1,1.7c-0.2-0.1-0.5-1.3-1.2-3.6c-0.1-0.4-0.1-0.6-0.1-0.6
			c-0.1-0.3-0.4-0.4-0.7-0.4c-0.3,0-0.6,0.1-0.7,0.2s-0.2,0.2-0.2,0.3c0,0.3,0.4,1.3,1.1,3c0.2,0.5,0.5,1.1,0.8,1.7s0.5,1,0.5,1.2
			c0,0.4-0.2,0.9-0.5,1.3c-0.2,0.2-0.5,0.4-0.9,0.6s-0.6,0.4-0.6,0.6s0.2,0.4,0.6,0.4s0.8-0.2,1.2-0.6c0.4-0.4,0.8-0.9,1.2-1.6
			c0.4-0.7,1-2.2,1.8-4.7c0.1-0.4,0.3-0.8,0.5-1.2s0.2-0.7,0.2-0.9C60.5,52.1,60.3,51.9,59.9,51.9z"/>
	</g>
</g>
</svg>
