<?xml version="1.0" encoding="utf-8"?>
<!-- Generator: Adobe Illustrator 20.1.0, SVG Export Plug-In . SVG Version: 6.00 Build 0)  -->
<svg version="1.1" id="レイヤー_1" xmlns="http://www.w3.org/2000/svg" xmlns:xlink="http://www.w3.org/1999/xlink" x="0px"
	 y="0px" viewBox="0 0 80 78" style="enable-background:new 0 0 80 78;" xml:space="preserve">
<style type="text/css">
	.st0{fill:#05a176;}
</style>
<title></title>
<g id="icomoon-ignore">
</g>
<g>
	<g>
		<path class="st0" d="M1.4,26.3c0.3,0,0.6-0.1,0.7-0.2c0.2-0.1,0.2-0.3,0.2-0.4v-0.8c0-0.9,0.1-1.6,0.4-2c0.1-0.2,0.3-0.3,0.6-0.4
			s0.6-0.2,0.9-0.2L5,22.4c0.4,0,0.6-0.2,0.6-0.6c0-0.3-0.1-0.5-0.2-0.7s-0.3-0.2-0.5-0.2s-0.4,0-0.6,0.1s-0.4,0.1-0.6,0.1
			c-0.5,0-0.8-0.1-0.9-0.2s-0.2-0.4-0.2-0.8c0-0.8,0.1-1.4,0.3-1.6c0.2-0.3,0.6-0.4,1.2-0.4s1,0,1.2,0.1c0.2,0,0.4,0.1,0.6,0.1
			c0.2,0.1,0.4,0.1,0.4,0.1c0.3,0,0.5-0.2,0.5-0.5v-0.2c0-0.3-0.1-0.4-0.2-0.5s-0.4-0.1-0.7-0.1H5.5c-1.8,0-3.1,0.1-4.1,0.2
			c-0.3,0.1-0.5,0.2-0.5,0.4c0,0,0,0.1,0.1,0.3c0.1,0.2,0.1,0.4,0.1,0.5c0,0.2,0,0.7,0,1.6S1,22.4,0.9,24.2c0,0.3-0.1,0.5-0.2,0.8
			c-0.2,0.2-0.2,0.4-0.2,0.5v0.2c0,0.2,0.1,0.4,0.2,0.5C0.8,26.3,1.1,26.3,1.4,26.3z M11.3,22.3c-0.1,0.1-0.4,0.1-0.8,0.2
			c-0.4,0.1-0.7,0.1-0.8,0.1c-0.6,0.1-1,0.4-1.4,0.7c-0.4,0.3-0.6,0.8-0.6,1.4s0.2,1.1,0.5,1.4c0.4,0.3,0.8,0.5,1.3,0.5h0.2
			c0.3,0,0.7-0.1,1.1-0.2c0.4-0.2,0.7-0.2,0.7-0.2c0.1,0,0.3,0.1,0.6,0.2s0.5,0.2,0.8,0.2c0.2,0,0.4,0,0.5-0.1s0.2-0.2,0.2-0.3
			s-0.1-0.3-0.2-0.5c-0.1-0.2-0.2-0.4-0.2-0.5s0-0.7,0-1.6c0-1,0-1.5,0-1.6c0-0.5-0.2-0.8-0.3-1.1c-0.2-0.3-0.5-0.5-0.8-0.7
			c-0.4-0.2-0.8-0.3-1.2-0.3h-0.3c-0.5,0-1,0.1-1.5,0.3c-0.5,0.2-0.7,0.5-0.7,0.8c0,0.4,0.2,0.6,0.5,0.6c0.1,0,0.4-0.1,0.9-0.3
			c0.5-0.2,0.8-0.3,1.1-0.3s0.5,0.1,0.7,0.3c0.2,0.2,0.3,0.4,0.3,0.7C11.7,21.9,11.6,22.2,11.3,22.3z M11.8,23.6V24v0.2v0.1v0.1
			c0,0.3-0.1,0.6-0.4,0.9c-0.3,0.3-0.6,0.4-1,0.4h-0.2c-0.3,0-0.5-0.1-0.7-0.3c-0.2-0.2-0.3-0.4-0.3-0.7v-0.1c0-0.4,0.1-0.6,0.3-0.8
			c0.3-0.3,0.7-0.4,1-0.4c0.1,0,0.1,0,0.3,0h0.3l0,0h0.3C11.6,23.2,11.8,23.3,11.8,23.6z M19.6,26.2c0.5-0.3,0.8-0.5,0.8-0.8
			c0-0.2-0.1-0.3-0.3-0.3c-0.1,0-0.3,0.1-0.8,0.2c-0.4,0.1-0.7,0.2-1,0.2c-0.6,0-1-0.2-1.3-0.5c-0.3-0.4-0.5-0.9-0.5-1.7
			c0-0.7,0.2-1.4,0.5-1.8c0.3-0.5,0.7-0.7,1.3-0.7l0,0c0.2,0,0.6,0.1,0.9,0.3c0.4,0.2,0.6,0.3,0.7,0.3c0.3,0,0.5-0.2,0.5-0.5
			s-0.2-0.6-0.5-0.8c-0.4-0.3-0.9-0.4-1.4-0.4h-0.2c-0.5,0-1,0.1-1.4,0.3c-0.7,0.3-1.2,0.9-1.6,1.8c-0.2,0.4-0.3,1-0.3,1.5v0.3
			c0,0.5,0.1,0.9,0.3,1.3c0.4,1.1,1.3,1.6,2.7,1.6C18.5,26.6,19,26.4,19.6,26.2z M27.9,25.6c0,0,0-0.2-0.1-0.4
			c0-0.2-0.1-0.6-0.1-1.2c0-0.5,0-0.9,0-1.2v-1.6v-0.4c0-0.3,0-0.5-0.1-0.6S27.3,20,27.1,20c-0.3,0-0.5,0.1-0.6,0.2
			s-0.2,0.3-0.2,0.5V21v0.3c0,1.6-0.1,2.6-0.4,3.2c-0.1,0.3-0.3,0.5-0.6,0.7s-0.5,0.3-0.8,0.3c-0.8,0-1.1-0.5-1.1-1.6l0.1-2.3
			c0-0.7-0.1-1.1-0.2-1.4c-0.1-0.2-0.3-0.4-0.6-0.4h-0.2c-0.5,0-0.7,0.1-0.7,0.4c0,0.1,0,0.2,0.1,0.5c0.1,0.2,0.1,0.5,0.1,0.7
			l-0.1,2.1c0,1,0.2,1.8,0.5,2.2s0.8,0.6,1.4,0.6H24c0.4,0,0.9-0.1,1.5-0.4c0.2-0.1,0.3-0.2,0.4-0.2s0.2,0.1,0.4,0.2
			c0.2,0.2,0.4,0.2,0.6,0.2C27.6,26.3,27.9,26.1,27.9,25.6z M31.7,24.6c-0.1-0.3-0.1-0.8-0.1-1.4c0-0.7,0-1.7,0.1-3.1v-0.4v-0.3
			c0-0.2,0-0.3,0-0.5v-0.3c0,0,0-0.1,0-0.3l0.1-1c0-0.4,0-0.6-0.1-0.7s-0.3-0.2-0.5-0.2h-0.1c-0.6,0-0.9,0.2-0.9,0.5
			c0,0.1,0,0.3,0.1,0.5s0.1,0.6,0.1,1v0.5v0.5c0,0.1,0,0.7-0.1,1.9c-0.1,1.2-0.1,1.9-0.1,2.3s0,0.6-0.1,0.8c0,0.2,0,0.5-0.1,0.9v0.3
			v0.2c0,0.2,0.1,0.3,0.2,0.4c0.2,0.1,0.3,0.2,0.6,0.2h0.4c0.3,0,0.6-0.1,0.8-0.2c0.2-0.1,0.3-0.3,0.3-0.5l0,0
			c0-0.1-0.1-0.2-0.2-0.4C31.8,25.1,31.7,24.9,31.7,24.6z M34.4,21.3c0,0.2,0.1,0.9,0.1,2.1s0.1,2,0.3,2.3c0.3,0.5,0.8,0.8,1.5,0.8
			c0.4,0,0.7-0.1,0.9-0.2s0.3-0.3,0.3-0.5s-0.2-0.3-0.6-0.4s-0.6-0.1-0.7-0.3c-0.2-0.2-0.3-0.6-0.3-1.2c0-1.2,0.1-2.1,0.3-2.7
			c0.1-0.3,0.4-0.5,0.8-0.6s0.6-0.3,0.6-0.5V20c0-0.1-0.2-0.3-0.5-0.4s-0.6-0.2-0.7-0.3c-0.1-0.1-0.2-0.3-0.2-0.7
			c-0.1-0.4-0.1-0.6-0.1-0.6c-0.1-0.2-0.2-0.2-0.4-0.2h-0.1c-0.2,0-0.4,0.2-0.5,0.5c0,0.1-0.1,0.3-0.2,0.6c-0.1,0.3-0.2,0.5-0.3,0.6
			c-0.4,0.4-0.7,0.7-0.7,0.7c0,0.1,0.1,0.2,0.3,0.4C34.2,20.9,34.3,21.1,34.4,21.3z M44.4,19.8c-0.4,0-0.7,0.1-0.8,0.4
			c0,0.1-0.1,0.4-0.2,0.9s-0.2,1.1-0.5,1.9c-0.4,1.1-0.7,1.7-1,1.7c-0.2-0.1-0.5-1.3-1.2-3.6c-0.1-0.4-0.1-0.6-0.1-0.6
			c-0.1-0.3-0.4-0.4-0.7-0.4s-0.6,0.1-0.7,0.2S39,20.5,39,20.6c0,0.3,0.4,1.3,1.1,3c0.2,0.5,0.5,1.1,0.8,1.7s0.5,1,0.5,1.2
			c0,0.4-0.2,0.9-0.5,1.3c-0.2,0.2-0.5,0.4-0.9,0.6s-0.6,0.4-0.6,0.6s0.2,0.4,0.6,0.4s0.8-0.2,1.2-0.6s0.8-0.9,1.2-1.6
			s1-2.2,1.8-4.7c0.1-0.4,0.3-0.8,0.5-1.2c0.2-0.4,0.2-0.7,0.2-0.9C45,20,44.8,19.8,44.4,19.8z M2.8,42.6H3c0.4,0,0.9-0.1,1.3-0.3
			c0.8-0.4,1.4-1,1.7-2c0.1-0.5,0.2-0.9,0.2-1.4v-0.1c0-1.4-0.5-2.4-1.6-2.9c-0.3-0.2-0.7-0.2-1.1-0.2H3.2c-0.4,0-0.7,0.1-1.1,0.2
			c-0.4,0.2-0.8,0.4-1.1,0.8c-0.6,0.6-0.9,1.5-0.9,2.7v0.1c0,1,0.3,1.8,0.8,2.4C1.3,42.3,2,42.6,2.8,42.6z M1.5,39.2V39
			c0-0.7,0.2-1.2,0.5-1.7s0.7-0.7,1.2-0.7h0.1c0.4,0,0.8,0.2,1,0.6c0.3,0.4,0.4,0.9,0.4,1.5v0.5c0,0.8-0.2,1.4-0.5,1.9
			S3.5,41.8,3,41.8H2.8c-0.4,0-0.7-0.2-1-0.6c-0.2-0.5-0.3-1-0.3-1.6V39.2z M9.9,42l-0.1-1.2c0-1.3,0.1-2.4,0.4-3.2
			c0.1-0.4,0.3-0.6,0.6-0.8c0.4-0.2,0.6-0.4,0.6-0.5c0-0.2-0.2-0.4-0.5-0.5c-0.3-0.2-0.5-0.3-0.6-0.3c-0.1-0.2-0.2-0.4-0.2-0.7
			s0.1-0.6,0.3-0.9s0.4-0.4,0.7-0.4c0.1,0,0.3,0,0.5,0c0.1,0,0.2,0,0.3,0s0.2,0,0.3,0c0.2-0.1,0.4-0.2,0.4-0.4s-0.1-0.4-0.3-0.5
			s-0.5-0.2-0.9-0.2c-0.8,0-1.4,0.3-1.9,0.8c0,0-0.3,0.7-1,2c-0.1,0.1-0.2,0.3-0.3,0.5C8,35.9,8,36.1,8,36.3c0,0.1,0.1,0.3,0.2,0.5
			c0.1,0.2,0.2,0.3,0.2,0.4c0.1,0.2,0.1,0.7,0.1,1.5s0,1.4-0.1,1.8c-0.1,0.4-0.1,0.8-0.2,1C8.1,41.8,8,42,8,42.2s0.1,0.3,0.2,0.5
			c0.2,0.1,0.3,0.2,0.6,0.2H9c0.3,0,0.6-0.1,0.8-0.3C9.8,42.5,9.9,42.3,9.9,42z M7.3,55.7C6.6,53,6,51.1,5.5,49.9
			c-0.3-0.7-0.7-1.1-1-1.1H4.3c-0.2,0-0.4,0.1-0.6,0.3c-0.3,0.3-1,1.8-2,4.5c-0.6,1.7-1.1,2.7-1.3,3C0.2,56.9,0,57.2,0,57.4
			s0.1,0.4,0.2,0.6s0.4,0.3,0.6,0.3c0.3,0,0.4-0.1,0.5-0.2c0-0.1,0.1-0.2,0.1-0.5s0.1-0.4,0.2-0.6c0.2-0.6,0.4-1,0.6-1.2
			s0.7-0.3,1.6-0.3s1.4,0.1,1.6,0.3s0.3,0.6,0.5,1.2c0,0.2,0.1,0.3,0.1,0.5s0,0.3,0.1,0.4c0.1,0.3,0.3,0.4,0.7,0.4H7
			c0.2,0,0.4-0.1,0.6-0.3s0.3-0.4,0.3-0.7c0-0.1-0.1-0.3-0.3-0.6C7.5,56.4,7.4,56,7.3,55.7z M5.3,54.3c0,0.1-0.3,0.2-0.8,0.2h-1H3
			H2.9c-0.2,0-0.3,0-0.3-0.1l0,0c0-0.4,0.4-1.5,1.3-3.3c0.2-0.4,0.3-0.5,0.3-0.5l0,0c0.1,0,0.3,0.6,0.6,1.8
			C5.2,53.6,5.3,54.2,5.3,54.3L5.3,54.3z M14.6,52.2c-0.1,0-0.2,0-0.4,0.1c-0.1,0-0.3-0.1-0.7-0.2c-0.4-0.1-0.7-0.2-0.9-0.2h-0.1
			c-0.4,0-0.8,0.1-1.2,0.3s-0.7,0.4-1,0.7c-0.2,0.3-0.4,0.7-0.6,1.1c-0.2,0.4-0.2,0.8-0.2,1.3v0.2c0,0.4,0.1,0.8,0.2,1.2
			c0.1,0.4,0.3,0.7,0.5,0.9c0.4,0.5,1,0.7,1.8,0.7c0.3,0,0.7,0,1.1-0.1c0.1,0,0.2,0,0.3,0c0.2,0,0.3,0.1,0.3,0.4
			c0,0.5-0.2,1-0.5,1.3c-0.4,0.3-0.8,0.5-1.4,0.5c-0.2,0-0.4,0-0.7-0.1s-0.6-0.1-0.6-0.1c-0.4,0-0.6,0.1-0.6,0.4s0.2,0.5,0.6,0.7
			c0.4,0.2,0.9,0.3,1.4,0.3s1-0.1,1.4-0.3c0.8-0.4,1.3-0.9,1.6-1.8c0.1-0.4,0.2-1,0.2-1.8s0.1-1.7,0.2-2.8c0.1-1.1,0.2-1.7,0.2-1.9
			C15.2,52.5,15,52.2,14.6,52.2z M13.8,54.6v0.3c0,0.1,0,0.1,0,0.2c0,0.8-0.1,1.4-0.4,1.8c-0.3,0.4-0.7,0.6-1.2,0.6H12
			c-0.4,0-0.6-0.2-0.9-0.5c-0.2-0.3-0.3-0.8-0.3-1.4v-0.2c0-0.8,0.2-1.4,0.5-1.9c0.4-0.5,0.8-0.7,1.3-0.7h0.2c0.3,0,0.6,0.1,0.8,0.3
			s0.3,0.5,0.3,0.8c0,0,0,0.1,0,0.2L13.8,54.6L13.8,54.6z M21,51.9L21,51.9c-0.4,0-0.7,0.1-1.1,0.3s-0.6,0.3-0.6,0.3
			c-0.1,0-0.1-0.1-0.2-0.2c-0.1-0.1-0.1-0.2-0.2-0.2c-0.2-0.2-0.5-0.2-0.9-0.2s-0.6,0.1-0.6,0.4c0,0.1,0,0.3,0.1,0.6
			s0.1,0.8,0.1,1.4v0.5c0,0.1,0,0.4,0,0.7c0,0.6-0.1,1.1-0.3,1.6c-0.1,0.2-0.1,0.4-0.1,0.5c0,0.2,0.1,0.3,0.2,0.4
			c0.1,0.1,0.3,0.2,0.6,0.2h0.2c0.3,0,0.5-0.1,0.7-0.2c0.2-0.2,0.3-0.3,0.3-0.5s0-0.4-0.1-0.8C19,56.3,19,56.1,19,55.9
			c0-1.1,0.1-1.9,0.4-2.4s0.8-0.7,1.4-0.7c0.3,0,0.5,0,0.6-0.1s0.2-0.2,0.2-0.4v-0.1c0-0.2-0.1-0.3-0.2-0.4
			C21.4,52,21.2,51.9,21,51.9z M24.1,50.5L24.1,50.5c0.4,0,0.6-0.1,0.7-0.2c0.1-0.2,0.2-0.4,0.2-0.6v-0.1c0-0.2-0.1-0.4-0.2-0.5
			s-0.2-0.2-0.4-0.2h-0.2h-0.1h-0.2c-0.2,0-0.3,0.1-0.4,0.2c-0.1,0.1-0.2,0.3-0.2,0.4v0.2v0.1c0,0.2,0.1,0.4,0.2,0.5
			s0.2,0.2,0.4,0.2L24.1,50.5z M24.6,56.6c0-0.2-0.1-0.6-0.1-1.3V55v-0.6v-0.2l0.1-1.8c0-0.2,0-0.3-0.1-0.5
			c-0.1-0.1-0.2-0.2-0.5-0.2h-0.2c-0.6,0-0.9,0.2-0.9,0.5c0,0.1,0.1,0.2,0.2,0.5s0.2,0.6,0.2,0.9v0.3c0,0.2,0,0.4,0,0.7v0.2v0.4
			c0,0.1,0,0.2,0,0.4c0,0.6-0.1,1.1-0.2,1.5s-0.2,0.6-0.2,0.6v0.2c0,0.1,0.1,0.2,0.2,0.3s0.3,0.2,0.5,0.2h0.2c0.4,0,0.7-0.1,0.9-0.2
			s0.3-0.3,0.3-0.5v-0.1c0-0.1-0.1-0.2-0.2-0.4C24.7,57,24.7,56.8,24.6,56.6z M29.7,52.8L29.7,52.8c0.3,0,0.6,0.1,1,0.3
			s0.6,0.3,0.7,0.3c0.3,0,0.5-0.2,0.5-0.5s-0.2-0.6-0.5-0.8c-0.5-0.3-0.9-0.4-1.5-0.4h-0.2c-0.5,0-1,0.1-1.4,0.3
			c-0.7,0.3-1.2,0.9-1.6,1.8c-0.2,0.4-0.3,1-0.3,1.5v0.3c0,0.5,0.1,0.9,0.3,1.3c0.4,1.1,1.3,1.6,2.7,1.6c0.5,0,1-0.1,1.5-0.4
			s0.8-0.5,0.8-0.8c0-0.2-0.1-0.3-0.3-0.3c-0.1,0-0.3,0.1-0.8,0.2c-0.4,0.1-0.7,0.2-1,0.2c-0.6,0-1-0.2-1.3-0.5
			c-0.3-0.4-0.5-0.9-0.5-1.7c0-0.7,0.2-1.4,0.5-1.8C28.7,53,29.1,52.8,29.7,52.8z M39.2,56c0-0.5,0-0.9,0-1.2v-1.6v-0.4
			c0-0.3,0-0.5-0.1-0.6S38.8,52,38.6,52c-0.3,0-0.5,0.1-0.6,0.2c-0.1,0.1-0.2,0.3-0.2,0.5V53v0.3c0,1.6-0.1,2.6-0.4,3.2
			c-0.1,0.3-0.3,0.5-0.6,0.7s-0.5,0.3-0.8,0.3c-0.8,0-1.1-0.5-1.1-1.6l0.1-2.3c0-0.7-0.1-1.1-0.2-1.4c-0.1-0.2-0.3-0.4-0.6-0.4H34
			c-0.5,0-0.7,0.1-0.7,0.4c0,0.1,0,0.2,0.1,0.5c0.1,0.2,0.1,0.5,0.1,0.7v2.2c0,1,0.2,1.8,0.5,2.2s0.8,0.6,1.4,0.6h0.1
			c0.4,0,0.9-0.1,1.5-0.4c0.2-0.1,0.3-0.2,0.4-0.2s0.2,0.1,0.4,0.2c0.2,0.2,0.4,0.2,0.6,0.2c0.6,0,0.9-0.2,0.9-0.6
			c0,0,0-0.2-0.1-0.4C39.3,57,39.2,56.6,39.2,56z M43.1,56.6C43,56.3,43,55.8,43,55.2c0-0.7,0-1.7,0.1-3.1v-0.4v-0.3
			c0-0.2,0-0.3,0-0.5v-0.3c0,0,0-0.1,0-0.3l0.1-1c0-0.4,0-0.6-0.1-0.7s-0.3-0.2-0.5-0.2h-0.1c-0.6,0-0.9,0.2-0.9,0.5
			c0,0.1,0,0.3,0.1,0.5s0.1,0.6,0.1,1v0.5v0.5c0,0.1,0,0.7-0.1,1.9s-0.1,1.9-0.1,2.3s0,0.6-0.1,0.8c0,0.2,0,0.5-0.1,0.9v0.3v0.2
			c0,0.2,0.1,0.3,0.2,0.4c0.2,0.1,0.3,0.2,0.6,0.2h0.3c0.3,0,0.6-0.1,0.8-0.2c0.2-0.1,0.3-0.3,0.3-0.5l0,0c0-0.1-0.1-0.2-0.2-0.4
			C43.3,57.1,43.2,56.9,43.1,56.6z M48.4,51.7c-0.3-0.1-0.6-0.2-0.7-0.3s-0.2-0.3-0.2-0.7c-0.1-0.4-0.1-0.6-0.1-0.6
			c-0.1-0.2-0.2-0.2-0.4-0.2h-0.1c-0.2,0-0.4,0.2-0.5,0.5c0,0.1-0.1,0.3-0.2,0.6c-0.1,0.3-0.2,0.5-0.3,0.6c-0.4,0.4-0.7,0.7-0.7,0.7
			c0,0.1,0.1,0.2,0.3,0.4s0.3,0.4,0.3,0.6s0.1,0.9,0.1,2.1s0.1,2,0.3,2.3c0.3,0.5,0.8,0.8,1.5,0.8c0.4,0,0.7-0.1,0.9-0.2
			c0.2-0.1,0.3-0.3,0.3-0.5s-0.2-0.3-0.6-0.4s-0.6-0.1-0.7-0.3c-0.2-0.2-0.3-0.6-0.3-1.2c0-1.2,0.1-2.1,0.3-2.7
			c0.1-0.3,0.4-0.5,0.8-0.6s0.6-0.3,0.6-0.5V52C49,51.9,48.8,51.8,48.4,51.7z M56.5,56c0-0.5,0-0.9,0-1.2v-1.6v-0.4
			c0-0.3,0-0.5-0.1-0.6S56.1,52,55.9,52c-0.3,0-0.5,0.1-0.6,0.2c-0.1,0.1-0.2,0.3-0.2,0.5V53v0.3c0,1.6-0.1,2.6-0.4,3.2
			c-0.1,0.3-0.3,0.5-0.6,0.7s-0.5,0.3-0.8,0.3c-0.8,0-1.1-0.5-1.1-1.6l0.1-2.3c0-0.7-0.1-1.1-0.2-1.4c-0.1-0.2-0.3-0.4-0.6-0.4h-0.2
			c-0.5,0-0.7,0.1-0.7,0.4c0,0.1,0,0.2,0.1,0.5c0.1,0.2,0.1,0.5,0.1,0.7l-0.1,2.1c0,1,0.2,1.8,0.5,2.2s0.8,0.6,1.4,0.6h0.2
			c0.4,0,0.9-0.1,1.5-0.4c0.2-0.1,0.3-0.2,0.4-0.2s0.2,0.1,0.4,0.2c0.2,0.2,0.4,0.2,0.6,0.2c0.6,0,0.9-0.2,0.9-0.6
			c0,0,0-0.2-0.1-0.4C56.5,57,56.5,56.6,56.5,56z M62.2,51.9L62.2,51.9c-0.4,0-0.7,0.1-1.1,0.3c-0.4,0.2-0.6,0.3-0.6,0.3
			c-0.1,0-0.1-0.1-0.2-0.2s-0.1-0.2-0.2-0.2c-0.2-0.2-0.5-0.2-0.9-0.2s-0.6,0.1-0.6,0.4c0,0.1,0,0.3,0.1,0.6s0.1,0.8,0.1,1.4v0.5
			c0,0.1,0,0.4,0,0.7c0,0.6-0.1,1.1-0.3,1.6c0,0.4,0,0.5,0,0.7s0.1,0.3,0.2,0.4s0.3,0.2,0.6,0.2h0.2c0.3,0,0.5-0.1,0.7-0.2
			c0.2-0.2,0.3-0.3,0.3-0.5s0-0.4-0.1-0.8c-0.1-0.4-0.1-0.6-0.1-0.8c0-1.1,0.1-1.9,0.4-2.4s0.8-0.7,1.4-0.7c0.3,0,0.5,0,0.6-0.1
			s0.2-0.2,0.2-0.4v-0.1c0-0.2-0.1-0.3-0.2-0.4C62.6,52,62.5,51.9,62.2,51.9z M65.7,55.6c0.1,0,0.6-0.1,1.5-0.2
			c0.9-0.1,1.5-0.3,1.7-0.4c0.4-0.2,0.5-0.5,0.5-1v-0.1c0-0.6-0.2-1.1-0.6-1.5s-0.9-0.6-1.5-0.6H67c-0.4,0-0.9,0.1-1.3,0.3
			c-0.8,0.3-1.4,1-1.7,1.9c-0.2,0.5-0.3,0.9-0.3,1.3v0.3c0,0.9,0.3,1.7,0.8,2.2c0.5,0.6,1.2,0.8,2.1,0.8h0.2c0.6,0,1.1-0.1,1.6-0.4
			s0.8-0.5,0.8-0.8c0-0.2-0.1-0.3-0.3-0.3c-0.1,0-0.3,0.1-0.8,0.2c-0.4,0.1-0.8,0.2-1,0.2c-0.5,0-1-0.1-1.3-0.4s-0.5-0.6-0.5-1
			C65.3,55.9,65.5,55.7,65.7,55.6z M65.3,54.4L65.3,54.4c0-0.5,0.2-0.9,0.5-1.3s0.7-0.6,1.2-0.6l0,0l0,0c0.3,0,0.6,0.1,0.8,0.3
			c0.2,0.2,0.3,0.5,0.3,0.8v0.1c0,0.2-0.1,0.4-0.2,0.5c-0.3,0.2-0.6,0.3-1.1,0.3c-0.1,0-0.3,0-0.7,0.1h-0.3l0,0h-0.2
			C65.4,54.6,65.3,54.6,65.3,54.4z"/>
	</g>
</g>
</svg>
