<?xml version="1.0" encoding="utf-8"?>
<!-- Generator: Adobe Illustrator 22.0.1, SVG Export Plug-In . SVG Version: 6.00 Build 0)  -->
<svg version="1.1" id="レイヤー_1" xmlns="http://www.w3.org/2000/svg" xmlns:xlink="http://www.w3.org/1999/xlink" x="0px"
	 y="0px" viewBox="0 0 80 78" style="enable-background:new 0 0 80 78;" xml:space="preserve">
<style type="text/css">
	.st0{fill:#989898;}
</style>
<title></title>
<g id="icomoon-ignore">
</g>
<g>
	<path class="st0" d="M4.9,1.4c1.1,0,1.9,0.1,2.4,0.3c0.1,0,0.2,0.1,0.3,0.3s0.2,0.4,0.2,0.8S7.7,3.2,7.6,3.4L7.5,3.4
		C7.4,3.4,7.2,3.3,7,3c-0.6-0.6-1.2-0.9-2-0.9C4.1,2.1,3.5,2.4,3,3C2.6,3.6,2.3,4.4,2.3,5.4c0,1,0.2,1.8,0.7,2.5
		c0.5,0.6,1.1,1,1.9,1c0.5,0,0.9-0.1,1.1-0.3s0.4-0.7,0.4-1.3c0-0.2-0.1-0.5-0.2-0.7c0-0.1-0.1-0.1-0.2-0.3S5.9,6.2,5.9,6.1
		c0-0.2,0.4-0.3,1.2-0.3c0.5,0,0.8,0,1,0.1s0.2,0.2,0.2,0.3c0,0-0.1,0.1-0.2,0.3S8,6.8,8,6.8s0,0.4-0.1,1s-0.1,1-0.2,1.1
		S7.3,9.2,7,9.3C6.1,9.6,5.5,9.7,5,9.7H4.8c-0.5,0-1.1-0.1-1.5-0.3S2.4,9,2,8.6S1.4,7.8,1.2,7.3S0.9,6.2,0.9,5.7V5.4
		c0-0.6,0.1-1.1,0.3-1.6c0.4-1,1.1-1.7,2.1-2.1C3.8,1.5,4.3,1.4,4.9,1.4z"/>
	<path class="st0" d="M12.3,9.3c0,0.2-0.4,0.2-1.1,0.2h-0.6l-0.2,0l-0.4,0c-0.4,0-0.6-0.1-0.6-0.2c0-0.1,0.1-0.2,0.3-0.3
		s0.3-0.3,0.4-0.5s0.1-0.7,0.1-1.7s0-1.5-0.1-1.7S9.9,4.8,9.8,4.7C9.6,4.6,9.4,4.5,9.4,4.4s0-0.1,0.1-0.2C9.8,4,10.2,4,10.8,4h0.1
		c0.2,0,0.4,0.1,0.5,0.3s0.2,0.3,0.2,0.3s0.2-0.1,0.3-0.2s0.3-0.2,0.5-0.3S12.9,4,13.1,4s0.4,0.1,0.6,0.2s0.2,0.3,0.2,0.5
		c0,0.2-0.1,0.4-0.2,0.5s-0.2,0.2-0.3,0.2s-0.3,0-0.5-0.1S12.6,5,12.4,5S12.2,5,12,5.1s-0.3,0.3-0.4,0.6s-0.2,0.7-0.2,1.4
		s0,1.1,0.1,1.3s0.2,0.4,0.4,0.5S12.3,9.2,12.3,9.3z"/>
	<path class="st0" d="M14.8,5c0-0.3,0.2-0.5,0.7-0.8s0.9-0.3,1.4-0.3c0,0,0,0,0,0c0.5,0,0.8,0.1,1.1,0.2c0.6,0.2,0.9,0.7,1,1.4
		c0,0.1,0,0.6,0,1.5s0,1.4,0.1,1.6s0.2,0.3,0.4,0.3s0.3,0.1,0.3,0.2c0,0.1-0.1,0.2-0.2,0.3c-0.3,0.1-0.6,0.2-0.8,0.2
		s-0.5-0.1-0.6-0.2c-0.2-0.2-0.4-0.3-0.4-0.3s-0.2,0.1-0.7,0.3s-0.8,0.3-1.1,0.3c-0.5,0-0.9-0.1-1.1-0.4s-0.4-0.6-0.4-1V8.2
		c0-0.4,0.2-0.8,0.5-1.1s1-0.5,1.9-0.7c0.3-0.1,0.5-0.1,0.6-0.2c0.2-0.1,0.3-0.3,0.3-0.7S17.8,5,17.6,4.8s-0.4-0.3-0.7-0.3
		S16.3,4.7,16,5s-0.5,0.5-0.8,0.5C15,5.6,14.8,5.4,14.8,5z M17.7,6.9L17.7,6.9c-0.6,0-1,0.1-1.4,0.3S15.8,7.7,15.8,8v0.1
		c0,0.2,0.1,0.4,0.2,0.5s0.3,0.2,0.5,0.2l0.1,0h0.2c0.4,0,0.7-0.2,1-0.5c0.1-0.1,0.2-0.4,0.2-0.9c0,0,0-0.1,0-0.1l0-0.1V7.2
		C17.8,7,17.8,6.9,17.7,6.9z"/>
	<path class="st0" d="M24.7,3.9c0-0.1,0.1-0.3,0.1-0.8s0-0.7-0.1-0.9s-0.2-0.4-0.3-0.5s-0.2-0.2-0.2-0.3s0-0.1,0.1-0.2
		C24.5,1.1,24.9,1,25.4,1h0.1C25.8,1,26,1.1,26,1.4c0,0.1,0,1.2,0,3.3s0,3.3,0,3.5s0.1,0.4,0.2,0.5c0,0,0.1,0.1,0.2,0.2
		s0.2,0.2,0.2,0.3s-0.1,0.1-0.2,0.2c-0.2,0.1-0.6,0.2-1.1,0.2c-0.2,0-0.3-0.1-0.4-0.2c-0.2-0.2-0.3-0.3-0.3-0.3s-0.1,0-0.3,0.1
		s-0.4,0.2-0.6,0.3S23.4,9.7,23,9.7s-0.6-0.1-0.9-0.2c-0.5-0.3-0.9-0.7-1.1-1.3c-0.1-0.4-0.2-0.8-0.2-1.2c0-0.9,0.3-1.6,0.8-2.2
		S22.8,4,23.7,4L24.4,4C24.6,4,24.7,4,24.7,3.9z M24.7,5.6c0-0.3-0.1-0.6-0.3-0.8s-0.5-0.3-0.8-0.3h-0.1c-0.2,0-0.4,0.1-0.6,0.2
		s-0.4,0.3-0.5,0.5C22.2,5.5,22,6,22,6.6V7c0,0.6,0.1,1.1,0.4,1.5S23,9,23.4,9h0.2c0.3,0,0.6-0.1,0.8-0.3s0.3-0.5,0.3-0.9l0-0.1V7.5
		l0-0.3c0-0.2,0-0.4,0-0.6l0-0.2V6.3l0-0.1V5.9l0-0.1V5.7C24.7,5.7,24.7,5.6,24.7,5.6z"/>
	<path class="st0" d="M33.7,8.9c0.2,0.1,0.3,0.2,0.3,0.3s0,0.1-0.1,0.2c-0.2,0.2-0.5,0.2-1.1,0.2c-0.2,0-0.3,0-0.4-0.1
		s-0.2-0.2-0.3-0.3s-0.1-0.2-0.2-0.2c-0.1,0-0.2,0.1-0.3,0.2c-0.5,0.4-1,0.5-1.4,0.5c0,0,0,0,0,0h-0.2c-0.6,0-1.1-0.3-1.4-0.8
		c-0.1-0.3-0.2-1-0.2-2.1s0-1.7-0.1-1.8s-0.2-0.2-0.4-0.3s-0.3-0.2-0.3-0.2c0-0.1,0.1-0.2,0.2-0.3c0.3-0.1,0.7-0.1,1.2-0.1
		c0.3,0,0.4,0.1,0.5,0.3c0.1,0.3,0.1,1,0.1,2s0,1.7,0.1,2c0.2,0.4,0.5,0.6,0.9,0.6c0.2,0,0.4-0.1,0.7-0.2s0.4-0.3,0.5-0.5
		S32,7.5,32,6.7s0-1.4-0.1-1.6s-0.1-0.4-0.3-0.5s-0.2-0.2-0.2-0.3C31.4,4,31.9,4,32.8,4c0.2,0,0.3,0,0.4,0.1s0.1,0.2,0.1,0.5l0,0.3
		l0,1.6c0,1,0,1.6,0.1,1.9S33.5,8.8,33.7,8.9z"/>
	<path class="st0" d="M35.1,5c0-0.3,0.2-0.5,0.7-0.8s0.9-0.3,1.4-0.3c0,0,0,0,0,0c0.5,0,0.8,0.1,1.1,0.2c0.6,0.2,0.9,0.7,1,1.4
		c0,0.1,0,0.6,0,1.5s0,1.4,0.1,1.6s0.2,0.3,0.4,0.3s0.3,0.1,0.3,0.2c0,0.1-0.1,0.2-0.2,0.3c-0.3,0.1-0.6,0.2-0.8,0.2
		s-0.5-0.1-0.6-0.2c-0.2-0.2-0.4-0.3-0.4-0.3s-0.2,0.1-0.7,0.3s-0.8,0.3-1.1,0.3c-0.5,0-0.9-0.1-1.1-0.4s-0.4-0.6-0.4-1V8.2
		c0-0.4,0.2-0.8,0.5-1.1s1-0.5,1.9-0.7c0.3-0.1,0.5-0.1,0.6-0.2c0.2-0.1,0.3-0.3,0.3-0.7S38.1,5,37.9,4.8s-0.4-0.3-0.7-0.3
		S36.6,4.7,36.3,5s-0.5,0.5-0.8,0.5C35.3,5.6,35.1,5.4,35.1,5z M38,6.9L38,6.9c-0.6,0-1,0.1-1.4,0.3S36.1,7.7,36.1,8v0.1
		c0,0.2,0.1,0.4,0.2,0.5s0.3,0.2,0.5,0.2l0.1,0H37c0.4,0,0.7-0.2,1-0.5c0.1-0.1,0.2-0.4,0.2-0.9c0,0,0-0.1,0-0.1l0-0.1V7.2
		C38.2,7,38.1,6.9,38,6.9z"/>
	<path class="st0" d="M43.6,8.8l0.9-0.1c0.1,0,0.2,0.1,0.2,0.2s-0.2,0.3-0.5,0.5s-0.6,0.3-0.9,0.3h-0.1c-0.3,0-0.5-0.1-0.7-0.2
		S42.1,9.1,42,8.9c-0.2-0.3-0.3-1-0.3-2s0-1.6-0.1-1.8s-0.2-0.4-0.3-0.5C41.1,4.5,41,4.4,41,4.4c0-0.1,0.1-0.2,0.2-0.3
		c0.3-0.2,0.4-0.3,0.4-0.3s0.2-0.3,0.4-1c0.1-0.3,0.3-0.5,0.5-0.5s0.3,0.1,0.3,0.2c0,0,0,0.2,0.1,0.5s0.1,0.5,0.2,0.6
		s0.3,0.2,0.7,0.3s0.5,0.2,0.5,0.3s-0.2,0.3-0.6,0.3s-0.6,0.2-0.7,0.3C43,5.1,43,5.7,43,6.6s0,1.5,0.1,1.8
		C43.2,8.6,43.4,8.8,43.6,8.8z"/>
	<path class="st0" d="M46.8,7.3c0,0.4,0.2,0.8,0.5,1.1s0.8,0.5,1.3,0.5c0.2,0,0.4,0,0.6-0.1s0.4-0.1,0.6-0.2S50,8.4,50,8.4
		c0.2,0,0.2,0.1,0.2,0.3c0,0.2-0.3,0.5-0.9,0.7c-0.4,0.2-0.8,0.3-1.2,0.3h-0.1c-0.7,0-1.3-0.2-1.8-0.7c-0.3-0.2-0.5-0.6-0.6-0.9
		s-0.2-0.8-0.2-1.2l0-0.1V6.6c0-0.4,0.1-0.7,0.3-1.1c0.2-0.4,0.4-0.7,0.6-0.9c0.5-0.5,1.1-0.7,1.8-0.7c1.1,0,1.8,0.4,2.1,1.2
		c0.1,0.3,0.2,0.5,0.2,0.7v0.1c0,0.3-0.1,0.5-0.3,0.5s-0.7,0.2-1.6,0.2s-1.3,0.1-1.3,0.1C46.9,6.9,46.8,7,46.8,7.3z M49.2,5.8V5.6
		c0-0.3-0.1-0.5-0.3-0.8s-0.5-0.3-0.8-0.3H48c-0.1,0-0.1,0-0.1,0c-0.3,0-0.5,0.2-0.8,0.5s-0.4,0.6-0.4,1V6c0,0.1,0.1,0.2,0.2,0.2
		c0.1,0,0.1,0,0.1,0l0.1,0h0l0,0l1.1-0.1l0.2,0C49,6.1,49.2,6,49.2,5.8z"/>
	<path class="st0" d="M3.6,15c-0.4,0-0.7,0.1-1,0.3s-0.4,0.5-0.4,0.9s0.2,0.7,0.6,1c0.2,0.2,0.7,0.4,1.4,0.7s1.2,0.6,1.5,0.8
		c0.5,0.5,0.8,1,0.8,1.5v0.2c0,0.6-0.3,1.2-0.8,1.6c-0.2,0.2-0.5,0.3-0.9,0.4s-0.7,0.2-1.1,0.2H3.5c-0.8,0-1.5-0.1-2.1-0.4
		C1.1,22.2,1,21.9,1,21.4v-0.2c0-0.6,0.1-0.9,0.3-0.9c0.1,0,0.3,0.2,0.6,0.6s0.5,0.7,0.8,0.8S3.3,22,3.8,22s0.8-0.1,1-0.3
		s0.4-0.5,0.4-0.8c0-0.5-0.2-0.8-0.6-1.2c-0.2-0.1-0.6-0.4-1.4-0.7s-1.2-0.7-1.5-1c-0.4-0.4-0.6-0.9-0.6-1.5s0.2-1.1,0.6-1.5
		c0.2-0.2,0.5-0.4,0.9-0.5s0.7-0.2,1.1-0.2h0.2c0.1,0,0.4,0,0.6,0.1l0.2,0c0.2,0,0.4,0.1,0.4,0.1l0.2,0l0.2,0c0.2,0,0.3,0,0.3,0.1
		c0.2,0.1,0.3,0.4,0.3,1S6,16.4,5.8,16.4c-0.1,0-0.3-0.2-0.5-0.5s-0.4-0.5-0.6-0.6C4.4,15.1,4,15,3.6,15z"/>
	<path class="st0" d="M11.8,18.5c-0.2,0-0.4-0.2-0.7-0.5s-0.6-0.5-1-0.5s-0.7,0.2-1,0.6S8.8,19,8.8,19.7s0.2,1.2,0.5,1.6
		s0.7,0.6,1.2,0.6c0.3,0,0.5,0,0.7-0.1s0.4-0.1,0.5-0.2s0.3-0.1,0.3-0.1c0.1,0,0.2,0.1,0.2,0.2c0,0.2-0.2,0.5-0.7,0.7
		s-0.9,0.3-1.3,0.3c-0.8,0-1.5-0.3-2-0.8c-0.2-0.2-0.4-0.5-0.5-0.8S7.5,20.4,7.5,20v-0.3c0,0,0,0,0,0c0,0,0,0,0,0
		c0-0.3,0.1-0.7,0.2-1.1c0.3-0.7,0.8-1.2,1.5-1.5c0.4-0.2,0.8-0.2,1.2-0.2h0.1c0.5,0,1,0.1,1.3,0.3c0.3,0.1,0.4,0.4,0.4,0.7
		c0,0.2,0,0.4-0.1,0.5S11.9,18.5,11.8,18.5z"/>
	<path class="st0" d="M13.4,22.2c0-0.1,0.1-0.2,0.3-0.4s0.3-0.4,0.3-0.6s0.1-1.2,0.1-3s0-2.9-0.1-3.3c0-0.2-0.1-0.3-0.2-0.4
		c-0.2-0.2-0.3-0.2-0.3-0.3c0-0.1,0.1-0.2,0.2-0.3c0.3-0.1,0.6-0.2,1-0.2h0.2c0.2,0,0.3,0.1,0.4,0.2s0.1,0.5,0.1,1l0,0.2
		c0,0.1,0,0.3,0,0.4l0,0.4c0,0.1,0,0.3,0,0.4c0,0.5,0.1,0.8,0.3,0.8c0,0,0.1,0,0.3-0.1c0.5-0.2,1-0.4,1.4-0.4c0.7,0,1.2,0.3,1.4,0.8
		c0.2,0.4,0.3,1.3,0.3,2.8c0,0.6,0,0.9,0.1,1.1s0.2,0.3,0.3,0.4s0.3,0.2,0.3,0.3c0,0.1-0.1,0.2-0.2,0.2s-0.6,0.1-1.2,0.1h-0.2
		c-0.4,0-0.6-0.1-0.6-0.3c0,0,0.1-0.1,0.2-0.3s0.2-0.3,0.2-0.5s0-0.7,0-1.6s0-1.4-0.1-1.6c-0.3-0.4-0.6-0.6-0.9-0.6
		c-0.4,0-0.8,0.2-1.1,0.5c-0.2,0.2-0.3,0.8-0.3,1.6s0,1.4,0.1,1.6s0.1,0.4,0.3,0.6s0.2,0.3,0.2,0.3c0,0.1-0.4,0.2-1.2,0.2
		S13.4,22.4,13.4,22.2z"/>
	<path class="st0" d="M26,19.6v0.3c0,0.3-0.1,0.6-0.2,1c-0.3,0.8-0.8,1.3-1.6,1.6c-0.3,0.1-0.7,0.2-1,0.2h-0.2
		c-0.7,0-1.4-0.2-1.9-0.8c-0.2-0.2-0.4-0.5-0.6-0.9s-0.2-0.8-0.2-1.2v-0.1c0-0.4,0.1-0.8,0.2-1.1c0.3-0.8,0.8-1.3,1.5-1.6
		c0.3-0.1,0.7-0.2,1-0.2h0.3c0.3,0,0.7,0.1,1,0.2c0.6,0.3,1.1,0.8,1.3,1.4C26,18.9,26,19.2,26,19.6z M21.8,19.5v0.2
		c0,0.7,0.1,1.2,0.4,1.7c0.1,0.2,0.3,0.4,0.5,0.5s0.4,0.2,0.6,0.2h0.1c0.4,0,0.7-0.2,0.9-0.5s0.4-0.8,0.4-1.5v-0.4
		c0-0.6-0.1-1.2-0.4-1.6s-0.6-0.7-1-0.7h-0.2c-0.4,0-0.7,0.2-0.9,0.6S21.8,18.9,21.8,19.5z"/>
	<path class="st0" d="M32.6,19.6v0.3c0,0.3-0.1,0.6-0.2,1c-0.3,0.8-0.8,1.3-1.6,1.6c-0.3,0.1-0.7,0.2-1,0.2h-0.2
		c-0.7,0-1.4-0.2-1.9-0.8c-0.2-0.2-0.4-0.5-0.6-0.9S27,20.3,27,19.9v-0.1c0-0.4,0.1-0.8,0.2-1.1c0.3-0.8,0.8-1.3,1.5-1.6
		c0.3-0.1,0.7-0.2,1-0.2H30c0.3,0,0.7,0.1,1,0.2c0.6,0.3,1.1,0.8,1.3,1.4C32.5,18.9,32.6,19.2,32.6,19.6z M28.3,19.5v0.2
		c0,0.7,0.1,1.2,0.4,1.7c0.1,0.2,0.3,0.4,0.5,0.5s0.4,0.2,0.6,0.2h0.1c0.4,0,0.7-0.2,0.9-0.5s0.4-0.8,0.4-1.5v-0.4
		c0-0.6-0.1-1.2-0.4-1.6s-0.6-0.7-1-0.7h-0.2c-0.4,0-0.7,0.2-0.9,0.6S28.3,18.9,28.3,19.5z"/>
	<path class="st0" d="M33.6,22.4c0-0.1,0.1-0.2,0.3-0.3s0.3-0.3,0.4-0.6s0.1-1.3,0.1-3.1s0-2.8-0.1-3.1s-0.1-0.4-0.3-0.5
		c-0.3-0.2-0.4-0.3-0.4-0.3v-0.1c0-0.1,0.1-0.1,0.2-0.2c0.4-0.2,0.8-0.2,1.4-0.2h0.1c0.2,0,0.3,0.1,0.3,0.4c0,0,0,0.3,0,0.9v1.3
		l0,0.2v0.4l0,0.2v1.9c0,1.2,0,1.9,0.1,2.1s0.1,0.5,0.3,0.6c0,0,0.1,0.1,0.2,0.2s0.2,0.2,0.2,0.3c0,0.1-0.2,0.2-0.7,0.2l-0.2,0h-0.2
		l-1,0h-0.1C33.8,22.6,33.6,22.5,33.6,22.4z"/>
	<path class="st0" d="M6.3,32.6v0.3c0,0.3-0.1,0.6-0.2,1c-0.3,0.8-0.8,1.3-1.6,1.6c-0.3,0.1-0.7,0.2-1,0.2H3.4
		c-0.7,0-1.4-0.2-1.9-0.8C1.3,34.7,1.1,34.4,1,34s-0.2-0.8-0.2-1.2v-0.1c0-0.4,0.1-0.8,0.2-1.1c0.3-0.8,0.8-1.3,1.5-1.6
		c0.3-0.1,0.7-0.2,1-0.2h0.3c0.3,0,0.7,0.1,1,0.2c0.6,0.3,1.1,0.8,1.3,1.4C6.3,31.9,6.3,32.2,6.3,32.6z M2.1,32.5v0.2
		c0,0.7,0.1,1.2,0.4,1.7c0.1,0.2,0.3,0.4,0.5,0.5s0.4,0.2,0.6,0.2h0.1c0.4,0,0.7-0.2,0.9-0.5s0.4-0.8,0.4-1.5v-0.4
		c0-0.6-0.1-1.2-0.4-1.6s-0.6-0.7-1-0.7H3.4c-0.4,0-0.7,0.2-0.9,0.6S2.1,31.9,2.1,32.5z"/>
	<path class="st0" d="M9.4,35.7H9.1c-1.1,0-1.7-0.1-1.7-0.3c0-0.1,0.1-0.2,0.3-0.3s0.3-0.3,0.4-0.5s0.1-0.8,0.1-1.8s0-1.6-0.1-1.7
		s-0.2-0.3-0.3-0.4s-0.2-0.2-0.2-0.3s0.1-0.2,0.3-0.5s0.3-0.5,0.4-0.8c0.2-0.8,0.4-1.3,0.7-1.7c0.4-0.4,1-0.7,1.7-0.7
		c0.4,0,0.6,0.1,0.8,0.2s0.3,0.3,0.3,0.5s-0.1,0.3-0.2,0.4s-0.2,0.1-0.3,0.1s-0.3-0.1-0.6-0.2s-0.5-0.2-0.6-0.2
		c-0.2,0-0.4,0.1-0.5,0.4S9.5,28.7,9.5,29s0.1,0.6,0.2,0.7c0,0.1,0.2,0.2,0.5,0.3s0.5,0.3,0.5,0.4c0,0.1-0.2,0.2-0.5,0.3
		S9.7,30.9,9.6,31c-0.1,0.2-0.2,0.8-0.2,1.8s0,1.6,0.1,1.8s0.2,0.4,0.4,0.5s0.3,0.3,0.3,0.4C10.3,35.6,10,35.7,9.4,35.7z"/>
	<path class="st0" d="M3.6,41c-0.4,0-0.7,0.1-1,0.3s-0.4,0.5-0.4,0.9s0.2,0.7,0.6,1c0.2,0.2,0.7,0.4,1.4,0.7s1.2,0.6,1.5,0.8
		c0.5,0.5,0.8,1,0.8,1.5v0.2c0,0.6-0.3,1.2-0.8,1.6c-0.2,0.2-0.5,0.3-0.9,0.4s-0.7,0.2-1.1,0.2H3.5c-0.8,0-1.5-0.1-2.1-0.4
		C1.1,48.2,1,47.9,1,47.4v-0.2c0-0.6,0.1-0.9,0.3-0.9c0.1,0,0.3,0.2,0.6,0.6s0.5,0.7,0.8,0.8S3.3,48,3.8,48s0.8-0.1,1-0.3
		s0.4-0.5,0.4-0.8c0-0.5-0.2-0.8-0.6-1.2c-0.2-0.1-0.6-0.4-1.4-0.7s-1.2-0.7-1.5-1c-0.4-0.4-0.6-0.9-0.6-1.5s0.2-1.1,0.6-1.5
		c0.2-0.2,0.5-0.4,0.9-0.5s0.7-0.2,1.1-0.2h0.2c0.1,0,0.4,0,0.6,0.1l0.2,0c0.2,0,0.4,0.1,0.4,0.1l0.2,0l0.2,0c0.2,0,0.3,0,0.3,0.1
		c0.2,0.1,0.3,0.4,0.3,1S6,42.4,5.8,42.4c-0.1,0-0.3-0.2-0.5-0.5s-0.4-0.5-0.6-0.6C4.4,41.1,4,41,3.6,41z"/>
	<path class="st0" d="M11.8,44.5c-0.2,0-0.4-0.2-0.7-0.5s-0.6-0.5-1-0.5s-0.7,0.2-1,0.6S8.8,45,8.8,45.7s0.2,1.2,0.5,1.6
		s0.7,0.6,1.2,0.6c0.3,0,0.5,0,0.7-0.1s0.4-0.1,0.5-0.2s0.3-0.1,0.3-0.1c0.1,0,0.2,0.1,0.2,0.2c0,0.2-0.2,0.5-0.7,0.7
		s-0.9,0.3-1.3,0.3c-0.8,0-1.5-0.3-2-0.8c-0.2-0.2-0.4-0.5-0.5-0.8S7.5,46.4,7.5,46v-0.3c0,0,0,0,0,0c0,0,0,0,0,0
		c0-0.3,0.1-0.7,0.2-1.1c0.3-0.7,0.8-1.2,1.5-1.5c0.4-0.2,0.8-0.2,1.2-0.2h0.1c0.5,0,1,0.1,1.3,0.3c0.3,0.1,0.4,0.4,0.4,0.7
		c0,0.2,0,0.4-0.1,0.5S11.9,44.5,11.8,44.5z"/>
	<path class="st0" d="M13.6,43.7c-0.2-0.1-0.3-0.2-0.3-0.3s0-0.2,0.1-0.2c0.3-0.2,0.7-0.3,1.4-0.3h0.2c0.2,0,0.3,0.1,0.4,0.3
		c0,0.1,0,0.8,0,2.1s0,2.1,0.1,2.3s0.2,0.3,0.4,0.4s0.3,0.2,0.3,0.3c0,0.1-0.5,0.2-1.5,0.2l-0.2,0h-0.7c-0.3,0-0.4-0.1-0.4-0.2
		c0-0.1,0.1-0.2,0.3-0.3s0.3-0.2,0.4-0.4c0.1-0.1,0.1-0.5,0.1-1l0-0.2v-0.2l0-0.3v-0.2l0-0.2c0-0.9,0-1.5-0.1-1.6
		S13.8,43.8,13.6,43.7z M15.4,41c0,0.2-0.1,0.3-0.2,0.5s-0.3,0.2-0.4,0.2c0,0-0.1,0-0.1,0l-0.1,0c-0.2,0-0.4-0.1-0.5-0.2
		s-0.2-0.3-0.2-0.5V41c0-0.2,0.1-0.4,0.2-0.5s0.3-0.2,0.6-0.2h0l0.2,0c0.1,0,0.2,0.1,0.4,0.2s0.2,0.3,0.2,0.4l0,0.1V41z"/>
	<path class="st0" d="M18.3,46.3c0,0.4,0.2,0.8,0.5,1.1s0.8,0.5,1.3,0.5c0.2,0,0.4,0,0.6-0.1s0.4-0.1,0.6-0.2s0.3-0.1,0.4-0.1
		c0.2,0,0.2,0.1,0.2,0.3c0,0.2-0.3,0.5-0.9,0.7c-0.4,0.2-0.8,0.3-1.2,0.3h-0.1c-0.7,0-1.3-0.2-1.8-0.7c-0.3-0.2-0.5-0.6-0.6-0.9
		S17,46.3,17,45.9l0-0.1v-0.1c0-0.4,0.1-0.7,0.3-1.1c0.2-0.4,0.4-0.7,0.6-0.9c0.5-0.5,1.1-0.7,1.8-0.7c1.1,0,1.8,0.4,2.1,1.2
		c0.1,0.3,0.2,0.5,0.2,0.7v0.1c0,0.3-0.1,0.5-0.3,0.5s-0.7,0.2-1.6,0.2s-1.3,0.1-1.3,0.1C18.4,45.9,18.3,46,18.3,46.3z M20.7,44.8
		v-0.2c0-0.3-0.1-0.5-0.3-0.8s-0.5-0.3-0.8-0.3h-0.1c-0.1,0-0.1,0-0.1,0c-0.3,0-0.5,0.2-0.8,0.5s-0.4,0.6-0.4,1V45
		c0,0.1,0.1,0.2,0.2,0.2c0.1,0,0.1,0,0.1,0l0.1,0h0l0,0l1.1-0.1l0.2,0C20.5,45.1,20.7,45,20.7,44.8z"/>
	<path class="st0" d="M23.8,48.5c-0.6,0-0.8-0.1-0.8-0.2c0-0.1,0.1-0.2,0.2-0.3c0.3-0.1,0.4-0.3,0.5-0.4s0.1-0.7,0.1-1.7
		s0-1.6-0.1-1.8s-0.2-0.3-0.3-0.4s-0.2-0.2-0.2-0.3s0.1-0.1,0.2-0.2c0.2-0.1,0.6-0.2,1.2-0.2c0.2,0,0.3,0.1,0.4,0.2
		c0,0,0.1,0.1,0.1,0.3s0.1,0.2,0.1,0.2c0.1,0,0.2-0.1,0.3-0.2c0.5-0.4,1-0.5,1.5-0.5h0h0.2c0.3,0,0.6,0.1,0.9,0.2s0.5,0.4,0.6,0.7
		s0.2,1,0.2,2s0,1.6,0.1,1.8s0.2,0.2,0.4,0.3s0.3,0.2,0.3,0.3c0,0.2-0.6,0.3-1.7,0.3h-0.2c-0.4,0-0.5-0.1-0.5-0.3c0,0,0-0.1,0.1-0.3
		s0.1-0.3,0.2-0.4s0-0.7,0-1.6s-0.1-1.5-0.2-1.8c-0.2-0.4-0.4-0.5-0.8-0.5c-0.3,0-0.5,0.1-0.8,0.2s-0.4,0.3-0.5,0.5S25,45.1,25,46
		s0,1.4,0.1,1.5s0.1,0.3,0.2,0.4l0.2,0.4c0,0.2-0.3,0.2-0.9,0.2l-0.4,0H23.8z"/>
	<path class="st0" d="M34.6,44.5c-0.2,0-0.4-0.2-0.7-0.5s-0.6-0.5-1-0.5s-0.7,0.2-1,0.6s-0.4,0.9-0.4,1.6s0.2,1.2,0.5,1.6
		s0.7,0.6,1.2,0.6c0.3,0,0.5,0,0.7-0.1s0.4-0.1,0.5-0.2s0.3-0.1,0.3-0.1c0.1,0,0.2,0.1,0.2,0.2c0,0.2-0.2,0.5-0.7,0.7
		s-0.9,0.3-1.3,0.3c-0.8,0-1.5-0.3-2-0.8c-0.2-0.2-0.4-0.5-0.5-0.8s-0.2-0.7-0.2-1.1v-0.3c0,0,0,0,0,0c0,0,0,0,0,0
		c0-0.3,0.1-0.7,0.2-1.1c0.3-0.7,0.8-1.2,1.5-1.5c0.4-0.2,0.8-0.2,1.2-0.2h0.1c0.5,0,1,0.1,1.3,0.3c0.3,0.1,0.4,0.4,0.4,0.7
		c0,0.2,0,0.4-0.1,0.5S34.7,44.5,34.6,44.5z"/>
	<path class="st0" d="M37.3,46.3c0,0.4,0.2,0.8,0.5,1.1s0.8,0.5,1.3,0.5c0.2,0,0.4,0,0.6-0.1c0.2-0.1,0.4-0.1,0.6-0.2
		s0.3-0.1,0.4-0.1c0.2,0,0.2,0.1,0.2,0.3c0,0.2-0.3,0.5-0.9,0.7c-0.4,0.2-0.8,0.3-1.2,0.3h-0.1c-0.7,0-1.3-0.2-1.8-0.7
		c-0.3-0.2-0.5-0.6-0.6-0.9S36,46.3,36,45.9l0-0.1v-0.1c0-0.4,0.1-0.7,0.3-1.1c0.2-0.4,0.4-0.7,0.6-0.9c0.5-0.5,1.1-0.7,1.8-0.7
		c1.1,0,1.8,0.4,2.1,1.2c0.1,0.3,0.2,0.5,0.2,0.7v0.1c0,0.3-0.1,0.5-0.3,0.5s-0.7,0.2-1.6,0.2c-0.8,0.1-1.3,0.1-1.3,0.1
		C37.4,45.9,37.3,46,37.3,46.3z M39.7,44.8v-0.2c0-0.3-0.1-0.5-0.3-0.8c-0.2-0.2-0.5-0.3-0.8-0.3h-0.1c-0.1,0-0.1,0-0.1,0
		c-0.3,0-0.5,0.2-0.8,0.5s-0.4,0.6-0.4,1V45c0,0.1,0.1,0.2,0.2,0.2c0.1,0,0.1,0,0.1,0l0.1,0h0l0,0l1.1-0.1l0.2,0
		C39.5,45.1,39.7,45,39.7,44.8z"/>
	<path class="st0" d="M1,57c0-0.3,0.2-0.5,0.7-0.8s0.9-0.3,1.4-0.3c0,0,0,0,0,0c0.5,0,0.8,0.1,1.1,0.2c0.6,0.2,0.9,0.7,1,1.4
		c0,0.1,0,0.6,0,1.5s0,1.4,0.1,1.6s0.2,0.3,0.4,0.3s0.3,0.1,0.3,0.2c0,0.1-0.1,0.2-0.2,0.3c-0.3,0.1-0.6,0.2-0.8,0.2
		s-0.5-0.1-0.6-0.2c-0.2-0.2-0.4-0.3-0.4-0.3s-0.2,0.1-0.7,0.3s-0.8,0.3-1.1,0.3c-0.5,0-0.9-0.1-1.1-0.4s-0.4-0.6-0.4-1v-0.1
		c0-0.4,0.2-0.8,0.5-1.1s1-0.5,1.9-0.7c0.3-0.1,0.5-0.1,0.6-0.2c0.2-0.1,0.3-0.3,0.3-0.7S4,57,3.8,56.8s-0.4-0.3-0.7-0.3
		S2.5,56.7,2.2,57s-0.5,0.5-0.8,0.5C1.2,57.6,1,57.4,1,57z M3.9,58.9L3.9,58.9c-0.6,0-1,0.1-1.4,0.3S2,59.7,2,60v0.1
		c0,0.2,0.1,0.4,0.2,0.5s0.3,0.2,0.5,0.2l0.1,0h0.2c0.4,0,0.7-0.2,1-0.5C4,60.3,4.1,60,4.1,59.6c0,0,0-0.1,0-0.1l0-0.1v-0.1
		C4.1,59,4,58.9,3.9,58.9z"/>
	<path class="st0" d="M7.9,61.5c-0.6,0-0.8-0.1-0.8-0.2c0-0.1,0.1-0.2,0.2-0.3c0.3-0.1,0.4-0.3,0.5-0.4s0.1-0.7,0.1-1.7
		s0-1.6-0.1-1.8s-0.2-0.3-0.3-0.4s-0.2-0.2-0.2-0.3s0.1-0.1,0.2-0.2C7.5,56,7.9,56,8.5,56c0.2,0,0.3,0.1,0.4,0.2
		c0,0,0.1,0.1,0.1,0.3s0.1,0.2,0.1,0.2c0.1,0,0.2-0.1,0.3-0.2c0.5-0.4,1-0.5,1.5-0.5h0h0.2c0.3,0,0.6,0.1,0.9,0.2s0.5,0.4,0.6,0.7
		s0.2,1,0.2,2s0,1.6,0.1,1.8s0.2,0.2,0.4,0.3s0.3,0.2,0.3,0.3c0,0.2-0.6,0.3-1.7,0.3h-0.2c-0.4,0-0.5-0.1-0.5-0.3c0,0,0-0.1,0.1-0.3
		s0.1-0.3,0.2-0.4s0-0.7,0-1.6s-0.1-1.5-0.2-1.8c-0.2-0.4-0.4-0.5-0.8-0.5c-0.3,0-0.5,0.1-0.8,0.2s-0.4,0.3-0.5,0.5S9.1,58.1,9.1,59
		s0,1.4,0.1,1.5s0.1,0.3,0.2,0.4l0.2,0.4c0,0.2-0.3,0.2-0.9,0.2l-0.4,0H7.9z"/>
	<path class="st0" d="M18.3,55.9c0-0.1,0.1-0.3,0.1-0.8s0-0.7-0.1-0.9s-0.2-0.4-0.3-0.5s-0.2-0.2-0.2-0.3s0-0.1,0.1-0.2
		c0.2-0.1,0.6-0.2,1.2-0.2h0.1c0.3,0,0.4,0.1,0.5,0.4c0,0.1,0,1.2,0,3.3s0,3.3,0,3.5s0.1,0.4,0.2,0.5c0,0,0.1,0.1,0.2,0.2
		s0.2,0.2,0.2,0.3s-0.1,0.1-0.2,0.2c-0.2,0.1-0.6,0.2-1.1,0.2c-0.2,0-0.3-0.1-0.4-0.2c-0.2-0.2-0.3-0.3-0.3-0.3s-0.1,0-0.3,0.1
		s-0.4,0.2-0.6,0.3s-0.5,0.1-0.8,0.1s-0.6-0.1-0.9-0.2c-0.5-0.3-0.9-0.7-1.1-1.3c-0.1-0.4-0.2-0.8-0.2-1.2c0-0.9,0.3-1.6,0.8-2.2
		s1.2-0.8,2.1-0.8L18,56C18.1,56,18.2,56,18.3,55.9z M18.2,57.6c0-0.3-0.1-0.6-0.3-0.8s-0.5-0.3-0.8-0.3H17c-0.2,0-0.4,0.1-0.6,0.2
		s-0.4,0.3-0.5,0.5c-0.3,0.4-0.4,0.9-0.4,1.5V59c0,0.6,0.1,1.1,0.4,1.5s0.6,0.6,1,0.6h0.2c0.3,0,0.6-0.1,0.8-0.3s0.3-0.5,0.3-0.9
		l0-0.1v-0.1l0-0.3c0-0.2,0-0.4,0-0.6l0-0.2v-0.2l0-0.1v-0.3l0-0.1v-0.1C18.2,57.7,18.2,57.6,18.2,57.6z"/>
	<path class="st0" d="M7.7,67.7v0.2c0,0.3-0.1,0.5-0.3,0.5c-0.1,0-0.2-0.1-0.4-0.4s-0.4-0.5-0.6-0.6S6,67.2,5.7,67.2s-0.5,0-0.6,0.1
		s-0.2,0.2-0.2,0.4s-0.1,1.1-0.1,2.8s0,2.6,0.1,2.8s0.2,0.5,0.4,0.6s0.4,0.3,0.4,0.4s-0.2,0.2-0.6,0.2l-0.2,0l-0.4,0
		c-0.1,0-0.3,0-0.4,0l-0.6,0c-0.5,0-0.8,0-0.9,0s-0.2-0.1-0.2-0.2c0-0.1,0.1-0.2,0.4-0.3s0.4-0.4,0.5-0.6s0.1-1.3,0.1-3
		s0-2.7-0.1-2.8c-0.1-0.2-0.3-0.3-0.7-0.3s-0.7,0.1-0.9,0.2S1.5,67.7,1.3,68s-0.4,0.4-0.5,0.4c-0.1,0-0.2-0.1-0.2-0.3v-0.2
		c0-0.8,0.1-1.3,0.2-1.4c0.1,0,1.2-0.1,3.5-0.1l2.8,0c0.3,0,0.5,0.1,0.6,0.2S7.7,67.1,7.7,67.7z"/>
	<path class="st0" d="M8.9,72.3c0,0.4,0.2,0.8,0.5,1.1s0.8,0.5,1.3,0.5c0.2,0,0.4,0,0.6-0.1s0.4-0.1,0.6-0.2s0.3-0.1,0.4-0.1
		c0.2,0,0.2,0.1,0.2,0.3c0,0.2-0.3,0.5-0.9,0.7c-0.4,0.2-0.8,0.3-1.2,0.3h-0.1c-0.7,0-1.3-0.2-1.8-0.7c-0.3-0.2-0.5-0.6-0.6-0.9
		s-0.2-0.8-0.2-1.2l0-0.1v-0.1c0-0.4,0.1-0.7,0.3-1.1c0.2-0.4,0.4-0.7,0.6-0.9c0.5-0.5,1.1-0.7,1.8-0.7c1.1,0,1.8,0.4,2.1,1.2
		c0.1,0.3,0.2,0.5,0.2,0.7v0.1c0,0.3-0.1,0.5-0.3,0.5s-0.7,0.2-1.6,0.2s-1.3,0.1-1.3,0.1C9.1,71.9,8.9,72,8.9,72.3z M11.4,70.8v-0.2
		c0-0.3-0.1-0.5-0.3-0.8s-0.5-0.3-0.8-0.3h-0.1c-0.1,0-0.1,0-0.1,0c-0.3,0-0.5,0.2-0.8,0.5s-0.4,0.6-0.4,1V71c0,0.1,0.1,0.2,0.2,0.2
		c0.1,0,0.1,0,0.1,0l0.1,0h0l0,0l1.1-0.1l0.2,0C11.2,71.1,11.4,71,11.4,70.8z"/>
	<path class="st0" d="M18,70.5c-0.2,0-0.4-0.2-0.7-0.5s-0.6-0.5-1-0.5s-0.7,0.2-1,0.6s-0.4,0.9-0.4,1.6s0.2,1.2,0.5,1.6
		s0.7,0.6,1.2,0.6c0.3,0,0.5,0,0.7-0.1s0.4-0.1,0.5-0.2s0.3-0.1,0.3-0.1c0.1,0,0.2,0.1,0.2,0.2c0,0.2-0.2,0.5-0.7,0.7
		s-0.9,0.3-1.3,0.3c-0.8,0-1.5-0.3-2-0.8c-0.2-0.2-0.4-0.5-0.5-0.8s-0.2-0.7-0.2-1.1v-0.3c0,0,0,0,0,0c0,0,0,0,0,0
		c0-0.3,0.1-0.7,0.2-1.1c0.3-0.7,0.8-1.2,1.5-1.5c0.4-0.2,0.8-0.2,1.2-0.2h0.1c0.5,0,1,0.1,1.3,0.3c0.3,0.1,0.4,0.4,0.4,0.7
		c0,0.2,0,0.4-0.1,0.5S18.1,70.5,18,70.5z"/>
	<path class="st0" d="M19.5,74.2c0-0.1,0.1-0.2,0.3-0.4s0.3-0.4,0.3-0.6s0.1-1.2,0.1-3s0-2.9-0.1-3.3c0-0.2-0.1-0.3-0.2-0.4
		c-0.2-0.2-0.3-0.2-0.3-0.3c0-0.1,0.1-0.2,0.2-0.3c0.3-0.1,0.6-0.2,1-0.2h0.2c0.2,0,0.3,0.1,0.4,0.2s0.1,0.5,0.1,1l0,0.2
		c0,0.1,0,0.3,0,0.4l0,0.4c0,0.1,0,0.3,0,0.4c0,0.5,0.1,0.8,0.3,0.8c0,0,0.1,0,0.3-0.1c0.5-0.2,1-0.4,1.4-0.4c0.7,0,1.2,0.3,1.4,0.8
		c0.2,0.4,0.3,1.3,0.3,2.8c0,0.6,0,0.9,0.1,1.1s0.2,0.3,0.3,0.4s0.3,0.2,0.3,0.3c0,0.1-0.1,0.2-0.2,0.2s-0.6,0.1-1.2,0.1H24
		c-0.4,0-0.6-0.1-0.6-0.3c0,0,0.1-0.1,0.2-0.3s0.2-0.3,0.2-0.5s0-0.7,0-1.6s0-1.4-0.1-1.6c-0.3-0.4-0.6-0.6-0.9-0.6
		c-0.4,0-0.8,0.2-1.1,0.5c-0.2,0.2-0.3,0.8-0.3,1.6s0,1.4,0.1,1.6s0.1,0.4,0.3,0.6s0.2,0.3,0.2,0.3c0,0.1-0.4,0.2-1.2,0.2
		S19.5,74.4,19.5,74.2z"/>
	<path class="st0" d="M27.4,74.5c-0.6,0-0.8-0.1-0.8-0.2c0-0.1,0.1-0.2,0.2-0.3c0.3-0.1,0.4-0.3,0.5-0.4s0.1-0.7,0.1-1.7
		s0-1.6-0.1-1.8s-0.2-0.3-0.3-0.4s-0.2-0.2-0.2-0.3s0.1-0.1,0.2-0.2C27.1,69,27.5,69,28,69c0.2,0,0.3,0.1,0.4,0.2
		c0,0,0.1,0.1,0.1,0.3s0.1,0.2,0.1,0.2c0.1,0,0.2-0.1,0.3-0.2c0.5-0.4,1-0.5,1.5-0.5h0h0.2c0.3,0,0.6,0.1,0.9,0.2s0.5,0.4,0.6,0.7
		s0.2,1,0.2,2s0,1.6,0.1,1.8s0.2,0.2,0.4,0.3s0.3,0.2,0.3,0.3c0,0.2-0.6,0.3-1.7,0.3h-0.2c-0.4,0-0.5-0.1-0.5-0.3c0,0,0-0.1,0.1-0.3
		s0.1-0.3,0.2-0.4s0-0.7,0-1.6s-0.1-1.5-0.2-1.8c-0.2-0.4-0.4-0.5-0.8-0.5c-0.3,0-0.5,0.1-0.8,0.2s-0.4,0.3-0.5,0.5
		s-0.2,0.8-0.2,1.6s0,1.4,0.1,1.5s0.1,0.3,0.2,0.4l0.2,0.4c0,0.2-0.3,0.2-0.9,0.2l-0.4,0H27.4z"/>
	<path class="st0" d="M39.4,71.6v0.3c0,0.3-0.1,0.6-0.2,1c-0.3,0.8-0.8,1.3-1.6,1.6c-0.3,0.1-0.7,0.2-1,0.2h-0.2
		c-0.7,0-1.4-0.2-1.9-0.8c-0.2-0.2-0.4-0.5-0.6-0.9s-0.2-0.8-0.2-1.2v-0.1c0-0.4,0.1-0.8,0.2-1.1c0.3-0.8,0.8-1.3,1.5-1.6
		c0.3-0.1,0.7-0.2,1-0.2h0.3c0.3,0,0.7,0.1,1,0.2c0.6,0.3,1.1,0.8,1.3,1.4C39.4,70.9,39.4,71.2,39.4,71.6z M35.2,71.5v0.2
		c0,0.7,0.1,1.2,0.4,1.7c0.1,0.2,0.3,0.4,0.5,0.5s0.4,0.2,0.6,0.2h0.1c0.4,0,0.7-0.2,0.9-0.5s0.4-0.8,0.4-1.5v-0.4
		c0-0.6-0.1-1.2-0.4-1.6s-0.6-0.7-1-0.7h-0.2c-0.4,0-0.7,0.2-0.9,0.6S35.2,70.9,35.2,71.5z"/>
	<path class="st0" d="M40.4,74.4c0-0.1,0.1-0.2,0.3-0.3s0.3-0.3,0.4-0.6s0.1-1.3,0.1-3.1s0-2.8-0.1-3.1s-0.1-0.4-0.3-0.5
		c-0.3-0.2-0.4-0.3-0.4-0.3v-0.1c0-0.1,0.1-0.1,0.2-0.2c0.4-0.2,0.8-0.2,1.4-0.2h0.1c0.2,0,0.3,0.1,0.3,0.4c0,0,0,0.3,0,0.9v1.3
		l0,0.2v0.4l0,0.2v1.9c0,1.2,0,1.9,0.1,2.1s0.1,0.5,0.3,0.6c0,0,0.1,0.1,0.2,0.2s0.2,0.2,0.2,0.3c0,0.1-0.2,0.2-0.7,0.2l-0.2,0H42
		l-1,0h-0.1C40.6,74.6,40.4,74.5,40.4,74.4z"/>
	<path class="st0" d="M49.7,71.6v0.3c0,0.3-0.1,0.6-0.2,1c-0.3,0.8-0.8,1.3-1.6,1.6c-0.3,0.1-0.7,0.2-1,0.2h-0.2
		c-0.7,0-1.4-0.2-1.9-0.8c-0.2-0.2-0.4-0.5-0.6-0.9s-0.2-0.8-0.2-1.2v-0.1c0-0.4,0.1-0.8,0.2-1.1c0.3-0.8,0.8-1.3,1.5-1.6
		c0.3-0.1,0.7-0.2,1-0.2h0.3c0.3,0,0.7,0.1,1,0.2c0.6,0.3,1.1,0.8,1.3,1.4C49.6,70.9,49.7,71.2,49.7,71.6z M45.4,71.5v0.2
		c0,0.7,0.1,1.2,0.4,1.7c0.1,0.2,0.3,0.4,0.5,0.5s0.4,0.2,0.6,0.2h0.1c0.4,0,0.7-0.2,0.9-0.5s0.4-0.8,0.4-1.5v-0.4
		c0-0.6-0.1-1.2-0.4-1.6s-0.6-0.7-1-0.7h-0.2c-0.4,0-0.7,0.2-0.9,0.6S45.4,70.9,45.4,71.5z"/>
	<path class="st0" d="M56.2,69.2c0,0.2-0.1,0.4-0.4,0.4s-0.4,0.2-0.4,0.3l0,0.1l0,0.1l0,0.2c0,0.1,0,0.3,0,0.5s-0.1,0.5-0.2,0.7
		c-0.4,0.7-1.1,1.1-2.1,1.1c-0.3,0-0.6,0.1-0.7,0.1c-0.2,0.1-0.3,0.2-0.3,0.4s0.2,0.3,0.5,0.4c0,0,0.4,0,1.2,0.1
		c0.7,0.1,1.2,0.2,1.5,0.3c0.5,0.3,0.8,0.6,0.8,1.1c0,0.6-0.3,1.2-0.9,1.6s-1.3,0.6-2.2,0.6c-0.7,0-1.2-0.1-1.6-0.4
		c-0.2-0.1-0.4-0.3-0.5-0.4s-0.2-0.4-0.2-0.6c0-0.3,0.1-0.6,0.3-0.9c0.3-0.4,0.5-0.6,0.5-0.6s-0.1-0.1-0.2-0.3S51,73.8,51,73.6
		s0.1-0.4,0.3-0.6s0.3-0.4,0.3-0.4s-0.1-0.2-0.4-0.6s-0.4-0.7-0.4-1.1s0.1-0.6,0.2-0.9c0.4-0.7,1.2-1.1,2.3-1.1h0.2l0.8,0.1l0.3,0
		c0.1,0,0.2,0,0.3,0l0.6,0C56,68.9,56.2,69,56.2,69.2z M52.6,74.4c-0.3,0-0.5,0.1-0.7,0.3s-0.3,0.4-0.3,0.7v0c0,0.3,0.1,0.6,0.4,0.8
		s0.6,0.3,1.1,0.3h0.2c0.5,0,1-0.1,1.3-0.4s0.5-0.5,0.5-0.9l0,0c0-0.2-0.1-0.4-0.3-0.5s-0.4-0.2-0.7-0.2c-0.2,0-0.3,0-0.3,0l-0.2,0
		h-0.1l-0.4,0l-0.2,0H52.6z M53.1,69.2H53c-0.2,0-0.4,0.1-0.6,0.4s-0.3,0.5-0.3,0.8l0,0.1l0,0.1v0.2l0,0c0,0.4,0.1,0.7,0.3,1
		s0.4,0.4,0.8,0.4h0c0.3,0,0.5-0.1,0.7-0.3s0.3-0.5,0.3-0.8v-0.2c0-0.1,0-0.2,0-0.2c0-0.4-0.1-0.7-0.3-1S53.4,69.2,53.1,69.2z"/>
	<path class="st0" d="M59,69.7c0,0.4,0.3,1.4,1,3c0.1,0.2,0.2,0.3,0.2,0.3s0.2-0.2,0.3-0.5c0.5-1.1,0.8-2,0.8-2.6
		c0-0.2,0-0.3-0.1-0.4l-0.1-0.1C61,69.3,61,69.2,61,69.2c0-0.2,0.2-0.2,0.7-0.2h0.4c0.5,0,0.7,0.1,0.7,0.3c0,0.1-0.1,0.3-0.3,0.5
		s-0.3,0.4-0.4,0.6s-0.4,1-0.9,2.4s-1,2.4-1.3,2.9s-0.6,0.9-0.8,1.1s-0.5,0.3-0.8,0.3h-0.2c-0.2,0-0.4-0.1-0.5-0.2s-0.2-0.2-0.2-0.4
		s0-0.2,0.1-0.3s0.2-0.1,0.4-0.1l0.1,0c0.1,0,0.1,0,0.3,0c0.3,0,0.5-0.2,0.8-0.5s0.3-0.7,0.3-1.1s-0.6-1.7-1.7-4.1
		c-0.1-0.2-0.3-0.4-0.4-0.7s-0.3-0.4-0.3-0.5c0-0.1,0.1-0.3,0.3-0.3s0.5-0.1,1-0.1s0.7,0.1,0.7,0.3C59,69.5,59,69.7,59,69.7z"/>
</g>
</svg>
