<?xml version="1.0" encoding="utf-8"?>
<!-- Generator: Adobe Illustrator 22.0.1, SVG Export Plug-In . SVG Version: 6.00 Build 0)  -->
<svg version="1.1" id="レイヤー_1" xmlns="http://www.w3.org/2000/svg" xmlns:xlink="http://www.w3.org/1999/xlink" x="0px"
	 y="0px" viewBox="0 0 80 78" style="enable-background:new 0 0 80 78;" xml:space="preserve">
<style type="text/css">
	.st0{enable-background:new    ;}
	.st1{fill:#989898;}
</style>
<title></title>
<g id="icomoon-ignore">
</g>
<g class="st0">
	<path class="st1" d="M5.4,0.8c1.3,0,2.2,0.1,2.8,0.3c0.1,0,0.3,0.2,0.4,0.3s0.2,0.5,0.2,0.9S8.7,3,8.5,3.1L8.4,3.2
		C8.3,3.2,8,3.1,7.8,2.7C7.1,2,6.3,1.6,5.4,1.6C4.5,1.6,3.8,2,3.2,2.7C2.7,3.4,2.4,4.4,2.4,5.6c0,1.2,0.3,2.2,0.9,2.9
		c0.6,0.8,1.3,1.1,2.3,1.1c0.6,0,1-0.1,1.3-0.4s0.4-0.8,0.4-1.5c0-0.3-0.1-0.5-0.2-0.8c0-0.1-0.1-0.2-0.3-0.3
		C6.6,6.5,6.5,6.4,6.5,6.4c0-0.2,0.4-0.3,1.3-0.3c0.6,0,1,0,1.1,0.1c0.2,0.1,0.3,0.2,0.3,0.3c0,0-0.1,0.1-0.2,0.3
		C9,7,8.9,7.1,8.9,7.2S8.9,7.6,8.8,8.4C8.8,9.1,8.7,9.5,8.6,9.7s-0.4,0.3-0.8,0.4c-1,0.3-1.8,0.5-2.3,0.5H5.3
		c-0.6,0-1.2-0.1-1.8-0.3C2.9,10,2.4,9.7,2,9.3S1.3,8.4,1,7.8S0.7,6.5,0.7,5.8V5.5c0-0.6,0.1-1.3,0.4-1.9c0.5-1.2,1.3-2,2.4-2.4
		C4.1,0.9,4.7,0.8,5.4,0.8z"/>
	<path class="st1" d="M14,10.1c0,0.2-0.4,0.3-1.2,0.3h-0.7l-0.3,0l-0.4,0c-0.5,0-0.7-0.1-0.7-0.3c0-0.1,0.1-0.3,0.3-0.4
		c0.2-0.1,0.4-0.3,0.4-0.5c0.1-0.2,0.1-0.9,0.1-2s0-1.7-0.1-2s-0.2-0.4-0.3-0.5c-0.3-0.2-0.4-0.3-0.4-0.4s0-0.2,0.1-0.2
		c0.3-0.2,0.8-0.3,1.4-0.3h0.1c0.3,0,0.4,0.1,0.6,0.4c0.1,0.3,0.2,0.4,0.3,0.4s0.2-0.1,0.4-0.2s0.4-0.3,0.6-0.4s0.5-0.2,0.8-0.2
		s0.5,0.1,0.7,0.2c0.2,0.1,0.2,0.3,0.2,0.6c0,0.2-0.1,0.4-0.2,0.5s-0.2,0.2-0.4,0.2s-0.3-0.1-0.5-0.2C14.5,5.1,14.3,5,14.2,5
		s-0.3,0.1-0.5,0.2c-0.2,0.1-0.3,0.3-0.5,0.7C13.1,6.2,13,6.8,13,7.6c0,0.8,0.1,1.3,0.2,1.5c0.1,0.2,0.3,0.4,0.5,0.6S14,10,14,10.1z
		"/>
	<path class="st1" d="M16.9,5c0-0.3,0.3-0.6,0.8-0.9c0.5-0.3,1.1-0.4,1.7-0.4c0,0,0,0,0.1,0c0.5,0,1,0.1,1.3,0.2
		c0.7,0.3,1,0.8,1.1,1.7c0,0.1,0,0.7,0,1.7c0,1.1,0,1.7,0.1,1.9s0.2,0.3,0.5,0.4s0.4,0.2,0.4,0.2c0,0.2-0.1,0.3-0.2,0.4
		c-0.3,0.2-0.7,0.3-1,0.3s-0.6-0.1-0.7-0.2c-0.3-0.3-0.4-0.4-0.4-0.4s-0.3,0.1-0.8,0.3c-0.5,0.2-0.9,0.3-1.3,0.3
		c-0.6,0-1-0.2-1.3-0.5S16.6,9.4,16.6,9V8.8c0-0.5,0.2-0.9,0.6-1.3s1.1-0.6,2.2-0.8c0.4-0.1,0.6-0.1,0.7-0.2
		c0.2-0.1,0.3-0.4,0.3-0.8S20.4,5,20.2,4.8s-0.5-0.3-0.8-0.3s-0.7,0.2-1,0.6c-0.3,0.4-0.6,0.6-0.9,0.6C17.1,5.7,16.9,5.5,16.9,5z
		 M20.3,7.2h-0.1c-0.6,0-1.1,0.1-1.5,0.4c-0.4,0.3-0.6,0.6-0.6,1v0.1c0,0.2,0.1,0.4,0.2,0.6c0.1,0.2,0.3,0.3,0.6,0.3l0.1,0h0.2
		c0.5,0,0.9-0.2,1.2-0.6c0.1-0.2,0.2-0.5,0.2-1c0,0,0-0.1,0-0.1l0-0.2V7.6C20.5,7.4,20.4,7.2,20.3,7.2z"/>
	<path class="st1" d="M28.5,3.8c0-0.1,0.1-0.4,0.1-0.9s0-0.9-0.1-1.1c-0.1-0.2-0.2-0.4-0.4-0.6c-0.2-0.2-0.3-0.3-0.3-0.3
		s0.1-0.1,0.2-0.2c0.3-0.2,0.7-0.2,1.4-0.2h0.2c0.3,0,0.5,0.2,0.5,0.5c0,0.1,0,1.4,0,3.9c0,2.5,0,3.9,0.1,4.1c0,0.2,0.1,0.4,0.3,0.6
		c0,0,0.1,0.1,0.3,0.2c0.1,0.1,0.2,0.2,0.2,0.3c0,0.1-0.1,0.2-0.2,0.2c-0.3,0.1-0.7,0.2-1.3,0.2c-0.2,0-0.4-0.1-0.5-0.2
		c-0.2-0.2-0.4-0.4-0.4-0.4s-0.1,0.1-0.3,0.2s-0.4,0.2-0.7,0.3c-0.3,0.1-0.6,0.2-1,0.2s-0.7-0.1-1.1-0.3c-0.6-0.3-1-0.8-1.3-1.5
		c-0.1-0.4-0.2-0.9-0.2-1.4c0-1,0.3-1.9,0.9-2.5s1.4-1,2.4-1l0.9,0.1C28.3,3.9,28.5,3.9,28.5,3.8z M28.5,5.7c0-0.4-0.1-0.7-0.4-0.9
		c-0.2-0.2-0.6-0.3-0.9-0.3H27c-0.2,0-0.4,0.1-0.7,0.2S26,5,25.8,5.2c-0.3,0.5-0.5,1-0.5,1.7v0.4c0,0.7,0.2,1.2,0.5,1.7
		s0.7,0.7,1.1,0.7h0.2c0.4,0,0.7-0.1,1-0.4s0.4-0.6,0.4-1l0-0.1V8l0-0.4c0-0.2,0-0.4,0-0.7l0-0.2V6.6l0-0.1V6.1l0-0.1V5.9
		C28.5,5.8,28.5,5.8,28.5,5.7z"/>
	<path class="st1" d="M38.9,9.7c0.2,0.2,0.3,0.3,0.3,0.3c0,0.1,0,0.1-0.1,0.2c-0.2,0.2-0.6,0.3-1.3,0.3c-0.2,0-0.4,0-0.5-0.1
		c-0.1-0.1-0.2-0.2-0.3-0.4s-0.2-0.3-0.2-0.3c-0.1,0-0.2,0.1-0.4,0.2c-0.6,0.4-1.1,0.6-1.6,0.6c0,0,0,0,0,0h-0.2
		c-0.8,0-1.3-0.3-1.6-1c-0.2-0.3-0.3-1.1-0.3-2.4c0-1.3,0-2-0.1-2.1c0-0.1-0.2-0.3-0.4-0.4c-0.2-0.1-0.4-0.2-0.4-0.3
		c0-0.2,0.1-0.3,0.2-0.3c0.4-0.1,0.8-0.2,1.4-0.2c0.3,0,0.5,0.1,0.6,0.4c0.1,0.3,0.2,1.1,0.2,2.4c0,1.3,0.1,2,0.2,2.3
		c0.2,0.5,0.5,0.7,1,0.7c0.3,0,0.5-0.1,0.8-0.2s0.5-0.3,0.6-0.5S36.9,8,36.9,7c0-1,0-1.6-0.1-1.9s-0.2-0.5-0.3-0.6
		c-0.1-0.1-0.2-0.3-0.2-0.4c0-0.2,0.5-0.3,1.6-0.3c0.2,0,0.4,0,0.4,0.1c0.1,0.1,0.1,0.3,0.1,0.5l0,0.4l0,1.8c0,1.2,0,1.9,0.1,2.2
		C38.6,9.3,38.7,9.5,38.9,9.7z"/>
	<path class="st1" d="M40.6,5c0-0.3,0.3-0.6,0.8-0.9c0.5-0.3,1.1-0.4,1.7-0.4c0,0,0,0,0.1,0c0.5,0,1,0.1,1.3,0.2
		c0.7,0.3,1,0.8,1.1,1.7c0,0.1,0,0.7,0,1.7c0,1.1,0,1.7,0.1,1.9c0.1,0.2,0.2,0.3,0.5,0.4s0.4,0.2,0.4,0.2c0,0.2-0.1,0.3-0.2,0.4
		c-0.3,0.2-0.7,0.3-1,0.3c-0.3,0-0.6-0.1-0.7-0.2c-0.3-0.3-0.4-0.4-0.4-0.4c0,0-0.3,0.1-0.8,0.3c-0.5,0.2-0.9,0.3-1.3,0.3
		c-0.6,0-1-0.2-1.3-0.5S40.3,9.4,40.3,9V8.8c0-0.5,0.2-0.9,0.6-1.3c0.4-0.4,1.1-0.6,2.2-0.8c0.4-0.1,0.6-0.1,0.7-0.2
		c0.2-0.1,0.3-0.4,0.3-0.8S44.1,5,43.8,4.8c-0.2-0.2-0.5-0.3-0.8-0.3c-0.4,0-0.7,0.2-1,0.6c-0.3,0.4-0.6,0.6-0.9,0.6
		C40.8,5.7,40.6,5.5,40.6,5z M43.9,7.2h-0.1c-0.6,0-1.1,0.1-1.5,0.4c-0.4,0.3-0.6,0.6-0.6,1v0.1c0,0.2,0.1,0.4,0.2,0.6
		c0.1,0.2,0.3,0.3,0.6,0.3l0.1,0h0.2c0.5,0,0.9-0.2,1.2-0.6c0.1-0.2,0.2-0.5,0.2-1c0,0,0-0.1,0-0.1l0-0.2V7.6
		C44.2,7.4,44.1,7.2,43.9,7.2z"/>
	<path class="st1" d="M50.5,9.5l1-0.2c0.1,0,0.2,0.1,0.2,0.3c0,0.2-0.2,0.4-0.5,0.6c-0.4,0.2-0.7,0.3-1.1,0.3H50
		c-0.3,0-0.6-0.1-0.8-0.2s-0.4-0.4-0.5-0.6c-0.2-0.4-0.3-1.2-0.3-2.3c0-1.1,0-1.8-0.1-2.1c-0.1-0.3-0.2-0.5-0.3-0.6
		c-0.2-0.2-0.4-0.3-0.4-0.3c0-0.1,0.1-0.2,0.2-0.3c0.3-0.2,0.5-0.3,0.5-0.4c0,0,0.2-0.4,0.5-1.1C48.9,2.2,49.1,2,49.3,2
		c0.2,0,0.3,0.1,0.4,0.2c0,0,0.1,0.2,0.1,0.6s0.1,0.6,0.3,0.7c0.1,0.1,0.4,0.2,0.8,0.3c0.4,0.1,0.6,0.2,0.6,0.4s-0.2,0.3-0.6,0.4
		c-0.4,0.1-0.7,0.2-0.8,0.3c-0.2,0.2-0.2,0.9-0.2,2s0.1,1.8,0.2,2C50,9.3,50.3,9.5,50.5,9.5z"/>
	<path class="st1" d="M54.2,7.8c0,0.5,0.2,1,0.6,1.3c0.4,0.4,0.9,0.5,1.5,0.5c0.2,0,0.5,0,0.7-0.1c0.2-0.1,0.4-0.2,0.6-0.3
		C57.8,9.1,58,9.1,58,9.1c0.2,0,0.3,0.1,0.3,0.3c0,0.3-0.3,0.5-1,0.8c-0.4,0.2-0.9,0.3-1.4,0.3h-0.2c-0.9,0-1.6-0.3-2.1-0.8
		c-0.3-0.3-0.5-0.6-0.7-1.1c-0.2-0.4-0.3-0.9-0.3-1.4l0-0.2V6.9c0-0.4,0.1-0.9,0.3-1.3c0.2-0.4,0.4-0.8,0.7-1
		C54.3,4,55,3.7,55.8,3.7c1.2,0,2.1,0.5,2.5,1.4c0.1,0.3,0.2,0.6,0.2,0.8v0.1c0,0.3-0.1,0.5-0.4,0.6C57.8,6.9,57.2,7,56.2,7
		c-1,0.1-1.5,0.1-1.6,0.1C54.4,7.3,54.2,7.5,54.2,7.8z M57.1,6V5.7c0-0.3-0.1-0.6-0.4-0.9c-0.2-0.3-0.5-0.4-0.9-0.4h-0.1
		c-0.1,0-0.1,0-0.1,0c-0.3,0-0.6,0.2-0.9,0.5c-0.3,0.4-0.4,0.8-0.4,1.2v0.1c0,0.1,0.1,0.2,0.3,0.2c0.1,0,0.1,0,0.1,0l0.2,0h0l0,0
		l1.3-0.1l0.2,0C56.8,6.4,57.1,6.2,57.1,6z"/>
	<path class="st1" d="M3.9,18.3c-0.5,0-0.8,0.1-1.1,0.4c-0.3,0.2-0.4,0.6-0.4,1c0,0.4,0.2,0.8,0.7,1.2c0.3,0.2,0.8,0.5,1.6,0.8
		s1.4,0.7,1.7,1c0.6,0.6,0.9,1.2,0.9,1.8v0.2c0,0.8-0.3,1.4-0.9,1.8c-0.3,0.2-0.6,0.4-1,0.5c-0.4,0.1-0.8,0.2-1.2,0.2H3.8
		c-0.9,0-1.8-0.1-2.5-0.4c-0.3-0.1-0.5-0.5-0.5-1v-0.2c0-0.7,0.1-1,0.3-1c0.2,0,0.4,0.2,0.6,0.6s0.6,0.8,0.9,1s0.8,0.3,1.3,0.3
		s0.9-0.1,1.2-0.4c0.3-0.3,0.5-0.6,0.5-1c0-0.5-0.3-1-0.8-1.4c-0.2-0.2-0.8-0.4-1.6-0.8c-0.9-0.4-1.5-0.8-1.8-1.1
		c-0.5-0.5-0.7-1.1-0.7-1.7s0.2-1.3,0.7-1.7c0.3-0.3,0.6-0.4,1-0.6c0.4-0.1,0.8-0.2,1.2-0.2h0.3c0.2,0,0.4,0,0.7,0.1l0.2,0
		c0.3,0.1,0.4,0.1,0.5,0.1l0.2,0l0.2,0c0.2,0,0.3,0,0.4,0.1C6.6,18,6.8,18.4,6.8,19s-0.1,1-0.4,1c-0.1,0-0.3-0.2-0.6-0.5
		s-0.5-0.6-0.7-0.7C4.8,18.5,4.4,18.3,3.9,18.3z"/>
	<path class="st1" d="M13.5,22.5c-0.2,0-0.5-0.2-0.8-0.6s-0.7-0.6-1.2-0.6s-0.8,0.2-1.1,0.7c-0.3,0.4-0.5,1.1-0.5,1.9
		s0.2,1.4,0.6,1.9c0.4,0.5,0.9,0.7,1.5,0.7c0.3,0,0.6,0,0.8-0.1s0.4-0.2,0.6-0.3c0.2-0.1,0.3-0.1,0.4-0.1c0.1,0,0.2,0.1,0.2,0.3
		c0,0.3-0.3,0.5-0.8,0.8s-1.1,0.4-1.6,0.4c-1,0-1.8-0.3-2.4-0.9c-0.2-0.3-0.4-0.6-0.6-1c-0.2-0.4-0.2-0.8-0.2-1.3v-0.3c0,0,0,0,0,0
		c0,0,0,0,0,0c0-0.4,0.1-0.8,0.3-1.2c0.4-0.8,0.9-1.4,1.7-1.7c0.5-0.2,0.9-0.3,1.3-0.3h0.2c0.6,0,1.1,0.1,1.6,0.3
		c0.3,0.2,0.5,0.5,0.5,0.9c0,0.3-0.1,0.5-0.2,0.6C13.7,22.4,13.6,22.5,13.5,22.5z"/>
	<path class="st1" d="M15.2,26.8c0-0.1,0.1-0.2,0.3-0.4c0.2-0.2,0.3-0.4,0.4-0.7s0.1-1.4,0.1-3.5s0-3.4-0.1-3.8
		c0-0.2-0.1-0.4-0.3-0.5c-0.3-0.2-0.4-0.3-0.4-0.3c0-0.2,0.1-0.3,0.3-0.4c0.3-0.1,0.7-0.2,1.2-0.2h0.2c0.2,0,0.4,0.1,0.4,0.3
		s0.1,0.5,0.1,1.1l0,0.3c0,0.2,0,0.3,0,0.5l0,0.5c0,0.2,0,0.3,0,0.5c0,0.6,0.1,0.9,0.3,0.9c0,0,0.1-0.1,0.3-0.1
		c0.6-0.3,1.2-0.4,1.6-0.4c0.8,0,1.4,0.3,1.7,1c0.2,0.4,0.3,1.5,0.3,3.2c0,0.7,0,1.1,0.1,1.2c0,0.2,0.2,0.3,0.4,0.5s0.3,0.3,0.3,0.3
		c0,0.1-0.1,0.2-0.3,0.3s-0.7,0.1-1.4,0.1h-0.2c-0.5,0-0.7-0.1-0.7-0.3c0,0,0.1-0.2,0.2-0.3c0.1-0.2,0.2-0.4,0.2-0.6
		s0.1-0.8,0.1-1.8s0-1.6-0.1-1.9c-0.3-0.4-0.7-0.7-1-0.8c-0.5,0-0.9,0.2-1.3,0.6c-0.2,0.3-0.3,0.9-0.3,1.9c0,1,0,1.6,0.1,1.9
		c0,0.3,0.1,0.5,0.3,0.7c0.2,0.2,0.2,0.3,0.2,0.4c0,0.2-0.5,0.2-1.4,0.2S15.2,27.1,15.2,26.8z"/>
	<path class="st1" d="M30,23.7V24c0,0.4-0.1,0.8-0.2,1.2c-0.3,0.9-0.9,1.5-1.8,1.9c-0.4,0.2-0.8,0.2-1.1,0.2h-0.2
		c-0.9,0-1.6-0.3-2.2-0.9c-0.3-0.3-0.5-0.6-0.6-1s-0.2-0.9-0.2-1.4v-0.1c0-0.4,0.1-0.9,0.2-1.3c0.3-0.9,0.9-1.5,1.8-1.8
		c0.4-0.2,0.8-0.2,1.1-0.2H27c0.4,0,0.8,0.1,1.2,0.3c0.7,0.3,1.3,0.9,1.6,1.7C29.9,22.9,30,23.3,30,23.7z M25,23.7v0.3
		c0,0.8,0.2,1.4,0.5,1.9c0.1,0.2,0.3,0.4,0.5,0.6s0.4,0.2,0.7,0.2h0.1c0.4,0,0.8-0.2,1.1-0.6c0.3-0.4,0.5-1,0.5-1.7v-0.5
		c0-0.7-0.2-1.4-0.5-1.9c-0.3-0.5-0.7-0.8-1.2-0.8h-0.2c-0.4,0-0.8,0.2-1.1,0.7S25,22.9,25,23.7z"/>
	<path class="st1" d="M37.7,23.7V24c0,0.4-0.1,0.8-0.2,1.2c-0.3,0.9-0.9,1.5-1.8,1.9c-0.4,0.2-0.8,0.2-1.1,0.2h-0.2
		c-0.9,0-1.6-0.3-2.2-0.9c-0.3-0.3-0.5-0.6-0.6-1s-0.2-0.9-0.2-1.4v-0.1c0-0.4,0.1-0.9,0.2-1.3c0.3-0.9,0.9-1.5,1.8-1.8
		c0.4-0.2,0.8-0.2,1.1-0.2h0.3c0.4,0,0.8,0.1,1.2,0.3c0.7,0.3,1.3,0.9,1.6,1.7C37.6,22.9,37.7,23.3,37.7,23.7z M32.7,23.7v0.3
		c0,0.8,0.2,1.4,0.5,1.9c0.1,0.2,0.3,0.4,0.5,0.6s0.4,0.2,0.7,0.2h0.1c0.4,0,0.8-0.2,1.1-0.6c0.3-0.4,0.5-1,0.5-1.7v-0.5
		c0-0.7-0.2-1.4-0.5-1.9c-0.3-0.5-0.7-0.8-1.2-0.8h-0.2c-0.4,0-0.8,0.2-1.1,0.7S32.7,22.9,32.7,23.7z"/>
	<path class="st1" d="M38.8,27c0-0.1,0.1-0.2,0.3-0.4s0.3-0.4,0.4-0.7c0.1-0.3,0.1-1.5,0.1-3.7s0-3.3-0.1-3.6s-0.2-0.5-0.4-0.6
		c-0.3-0.2-0.5-0.3-0.5-0.4v-0.1c0-0.1,0.1-0.1,0.2-0.2c0.4-0.2,1-0.3,1.6-0.3h0.1c0.2,0,0.4,0.2,0.4,0.5c0,0,0,0.4,0,1v1.5l0,0.3
		v0.4l0,0.3v2.2c0,1.3,0,2.2,0.1,2.5c0,0.3,0.1,0.6,0.3,0.7c0,0,0.1,0.1,0.3,0.2c0.2,0.1,0.3,0.2,0.3,0.3c0,0.2-0.3,0.2-0.8,0.2
		l-0.3,0h-0.3l-1.1,0h-0.1C39,27.2,38.8,27.1,38.8,27z"/>
	<path class="st1" d="M7.1,40.5v0.3c0,0.4-0.1,0.8-0.2,1.2c-0.3,0.9-0.9,1.5-1.8,1.9c-0.4,0.2-0.8,0.2-1.1,0.2H3.6
		c-0.9,0-1.6-0.3-2.2-0.9c-0.3-0.3-0.5-0.6-0.6-1s-0.2-0.9-0.2-1.4v-0.1c0-0.4,0.1-0.9,0.2-1.3c0.3-0.9,0.9-1.5,1.8-1.8
		c0.4-0.2,0.8-0.2,1.1-0.2h0.3c0.4,0,0.8,0.1,1.2,0.3c0.7,0.3,1.3,0.9,1.6,1.7C7,39.7,7.1,40.1,7.1,40.5z M2.1,40.5v0.3
		c0,0.8,0.2,1.4,0.5,1.9c0.1,0.2,0.3,0.4,0.5,0.6s0.4,0.2,0.7,0.2h0.1c0.4,0,0.8-0.2,1.1-0.6c0.3-0.4,0.5-1,0.5-1.7v-0.5
		c0-0.7-0.2-1.4-0.5-1.9C4.6,38.3,4.3,38,3.8,38H3.6c-0.4,0-0.8,0.2-1.1,0.7S2.1,39.7,2.1,40.5z"/>
	<path class="st1" d="M10.7,44.2h-0.4c-1.3,0-2-0.1-2-0.3c0-0.1,0.1-0.2,0.3-0.4s0.4-0.3,0.4-0.6c0.1-0.2,0.1-1,0.1-2.1
		c0-1.2,0-1.8-0.1-2s-0.2-0.3-0.4-0.4c-0.2-0.1-0.3-0.2-0.3-0.3c0-0.1,0.1-0.3,0.3-0.5C9,37.3,9.1,37,9.2,36.6
		c0.2-0.9,0.5-1.5,0.9-1.9c0.5-0.5,1.1-0.8,2-0.8c0.4,0,0.7,0.1,1,0.2c0.2,0.1,0.4,0.3,0.4,0.6s-0.1,0.4-0.2,0.5s-0.2,0.2-0.4,0.2
		s-0.4-0.1-0.7-0.2s-0.5-0.2-0.7-0.2c-0.3,0-0.4,0.2-0.6,0.5c-0.1,0.3-0.2,0.7-0.2,1s0.1,0.6,0.2,0.8c0.1,0.1,0.3,0.2,0.6,0.4
		c0.4,0.2,0.5,0.3,0.5,0.5c0,0.1-0.2,0.2-0.5,0.3c-0.4,0.1-0.6,0.2-0.7,0.4c-0.1,0.2-0.2,0.9-0.2,2.1c0,1.2,0,1.9,0.1,2.1
		s0.2,0.4,0.5,0.6s0.4,0.3,0.4,0.4C11.6,44.1,11.3,44.2,10.7,44.2z"/>
	<path class="st1" d="M10.3,60.5c0,0.2-0.3,0.3-1,0.3H9l-0.3,0c-0.6,0-1,0-1.3-0.1S7,60.6,7,60.5c0,0,0.1-0.2,0.2-0.3
		s0.3-0.4,0.3-0.7s0.1-0.8,0.1-1.6s-0.1-1.2-0.2-1.3c-0.2-0.1-0.8-0.2-1.9-0.2s-1.8,0.1-2,0.3c-0.1,0.1-0.2,0.6-0.2,1.4
		s0,1.3,0.1,1.6s0.1,0.4,0.2,0.6l0.1,0.2C4,60.4,4,60.5,4,60.5c0,0.2-0.1,0.3-0.4,0.3c-0.1,0-0.6,0-1.5,0s-1.3-0.1-1.3-0.3
		c0-0.1,0.2-0.3,0.5-0.5c0.2-0.2,0.4-0.4,0.4-0.6c0-0.3,0.1-1.4,0.1-3.3s0-3.1-0.1-3.4S1.4,52.2,1.1,52c-0.3-0.2-0.4-0.3-0.4-0.4
		c0-0.2,0.6-0.3,1.7-0.3h0.7c0.6,0,1,0.1,1,0.3c0,0-0.1,0.1-0.2,0.3c-0.2,0.2-0.3,0.4-0.3,0.7c-0.1,0.3-0.1,0.7-0.1,1.4
		s0.1,1,0.2,1.2s0.8,0.2,1.9,0.2s1.8-0.1,1.9-0.2c0.1-0.1,0.2-0.5,0.2-1.2c0-0.7,0-1.1-0.1-1.3s-0.1-0.4-0.2-0.5L7.2,52
		C7.1,51.9,7,51.8,7,51.7c0-0.2,0.1-0.3,0.4-0.3s0.8,0,1.7,0s1.3,0.1,1.3,0.3c0,0.1-0.1,0.3-0.2,0.4c-0.4,0.3-0.6,0.4-0.6,0.5
		c-0.1,0.2-0.1,1-0.1,2.6l0,3.4c0,0.6,0,1,0.1,1.2s0.2,0.3,0.3,0.4C10.1,60.3,10.3,60.5,10.3,60.5z"/>
	<path class="st1" d="M18.4,60.1c0.2,0.2,0.3,0.3,0.3,0.3c0,0.1,0,0.1-0.1,0.2c-0.2,0.2-0.6,0.3-1.3,0.3c-0.2,0-0.4,0-0.5-0.1
		c-0.1-0.1-0.2-0.2-0.3-0.4s-0.2-0.3-0.2-0.3c-0.1,0-0.2,0.1-0.4,0.2c-0.6,0.4-1.1,0.6-1.6,0.6c0,0,0,0,0,0h-0.2
		c-0.8,0-1.3-0.3-1.6-1c-0.2-0.3-0.3-1.1-0.3-2.4c0-1.3,0-2-0.1-2.1c0-0.1-0.2-0.3-0.4-0.4c-0.2-0.1-0.4-0.2-0.4-0.3
		c0-0.2,0.1-0.3,0.2-0.3c0.4-0.1,0.8-0.2,1.4-0.2c0.3,0,0.5,0.1,0.6,0.4c0.1,0.3,0.2,1.1,0.2,2.4c0,1.3,0.1,2,0.2,2.3
		c0.2,0.5,0.5,0.7,1,0.7c0.3,0,0.5-0.1,0.8-0.2s0.5-0.3,0.6-0.5s0.2-0.8,0.2-1.8c0-1,0-1.6-0.1-1.9s-0.2-0.5-0.3-0.6
		c-0.1-0.1-0.2-0.3-0.2-0.4c0-0.2,0.5-0.3,1.6-0.3c0.2,0,0.4,0,0.4,0.1c0.1,0.1,0.1,0.3,0.1,0.5l0,0.4l0,1.8c0,1.2,0,1.9,0.1,2.2
		C18.1,59.7,18.2,59.9,18.4,60.1z"/>
	<path class="st1" d="M24.7,59.5c0-0.2,0.1-0.8,0.1-1.8s-0.1-1.7-0.2-2s-0.5-0.5-0.9-0.5c-0.3,0-0.5,0.1-0.8,0.3
		c-0.3,0.2-0.5,0.4-0.6,0.7s-0.1,0.8-0.1,1.7c0,0.9,0,1.5,0,1.7s0,0.4,0.1,0.5l0.1,0.2c0.1,0.1,0.1,0.2,0.1,0.3c0,0.2-0.3,0.3-1,0.3
		s-1.2-0.1-1.4-0.2L20,60.4c0-0.1,0-0.2,0.1-0.3c0.3-0.3,0.4-0.5,0.5-0.6s0.1-0.8,0.1-1.9c0-1.1-0.1-1.9-0.3-2.2l-0.1-0.2
		c-0.1-0.2-0.2-0.3-0.2-0.3c0-0.1,0.1-0.2,0.3-0.3c0.2-0.1,0.4-0.2,0.8-0.2s0.6,0.1,0.8,0.3c0.2,0.2,0.3,0.3,0.4,0.3l0.2-0.1
		l0.5-0.3c0.4-0.2,0.9-0.3,1.3-0.3s0.9,0.1,1.3,0.4c0.4,0.3,0.6,0.4,0.7,0.4l0.2-0.1l0.3-0.2c0.2-0.1,0.4-0.2,0.7-0.3
		c0.2-0.1,0.6-0.2,0.9-0.2c0.7,0,1.3,0.3,1.6,0.9c0.2,0.5,0.3,1.5,0.3,3.2c0,0.7,0,1.1,0.1,1.3c0,0.1,0.2,0.3,0.4,0.4
		s0.3,0.3,0.3,0.3v0.2L31,60.6c-0.2,0.1-0.8,0.2-1.7,0.2c-0.4,0-0.6-0.1-0.6-0.3c0,0,0-0.1,0.1-0.3s0.1-0.3,0.1-0.4
		c0-0.1,0-0.7,0-1.7s-0.1-1.7-0.2-2c-0.1-0.3-0.2-0.5-0.4-0.6c-0.2-0.1-0.4-0.2-0.7-0.2s-0.6,0.1-0.8,0.3s-0.4,0.4-0.5,0.6
		c-0.1,0.2-0.1,0.8-0.1,1.9s0,1.6,0.1,1.8c0.1,0.2,0.2,0.3,0.4,0.5s0.3,0.3,0.3,0.3c0,0.2-0.4,0.3-1.2,0.3h-1
		c-0.5,0-0.7-0.1-0.7-0.2c0-0.1,0.1-0.3,0.2-0.4C24.6,59.9,24.7,59.7,24.7,59.5z"/>
	<path class="st1" d="M32.5,55.4c0-0.3,0.3-0.6,0.8-0.9c0.5-0.3,1.1-0.4,1.7-0.4c0,0,0,0,0.1,0c0.5,0,1,0.1,1.3,0.2
		c0.7,0.3,1,0.8,1.1,1.7c0,0.1,0,0.7,0,1.7c0,1.1,0,1.7,0.1,1.9s0.2,0.3,0.5,0.4s0.4,0.2,0.4,0.2c0,0.2-0.1,0.3-0.2,0.4
		c-0.3,0.2-0.7,0.3-1,0.3s-0.6-0.1-0.7-0.2c-0.3-0.3-0.4-0.4-0.4-0.4s-0.3,0.1-0.8,0.3C34.8,60.8,34.3,61,34,61
		c-0.6,0-1-0.2-1.3-0.5s-0.5-0.7-0.5-1.1v-0.2c0-0.5,0.2-0.9,0.6-1.3s1.1-0.6,2.2-0.8c0.4-0.1,0.6-0.1,0.7-0.2
		c0.2-0.1,0.3-0.4,0.3-0.8s-0.1-0.7-0.3-0.9s-0.5-0.3-0.8-0.3s-0.7,0.2-1,0.6c-0.3,0.4-0.6,0.6-0.9,0.6
		C32.7,56.1,32.5,55.9,32.5,55.4z M35.8,57.6h-0.1c-0.6,0-1.1,0.1-1.5,0.4c-0.4,0.3-0.6,0.6-0.6,1v0.1c0,0.2,0.1,0.4,0.2,0.6
		c0.1,0.2,0.3,0.3,0.6,0.3l0.1,0h0.2c0.5,0,0.9-0.2,1.2-0.6c0.1-0.2,0.2-0.5,0.2-1c0,0,0-0.1,0-0.1l0-0.2V58
		C36,57.8,36,57.6,35.8,57.6z"/>
	<path class="st1" d="M40.5,60.7c-0.6,0-1-0.1-1-0.3c0-0.2,0.1-0.3,0.3-0.4c0.3-0.2,0.5-0.3,0.5-0.5c0.1-0.1,0.1-0.8,0.1-2
		c0-1.2,0-1.9-0.1-2.1c-0.1-0.2-0.2-0.4-0.4-0.5s-0.3-0.2-0.3-0.3s0.1-0.2,0.2-0.2c0.3-0.2,0.7-0.3,1.4-0.3c0.2,0,0.3,0.1,0.4,0.2
		c0,0,0.1,0.1,0.2,0.3c0.1,0.2,0.1,0.2,0.1,0.2c0.1,0,0.2-0.1,0.4-0.2c0.6-0.4,1.2-0.6,1.7-0.6h0h0.2c0.4,0,0.7,0.1,1,0.3
		c0.3,0.2,0.5,0.5,0.7,0.8c0.2,0.4,0.2,1.2,0.2,2.4c0,1.2,0,1.9,0.1,2.1c0.1,0.1,0.2,0.3,0.4,0.4c0.2,0.1,0.4,0.2,0.4,0.4
		c0,0.2-0.6,0.3-1.9,0.3h-0.2c-0.4,0-0.6-0.1-0.6-0.3c0,0,0.1-0.1,0.2-0.3c0.1-0.2,0.2-0.3,0.2-0.5c0-0.2,0.1-0.8,0.1-1.9
		c0-1.1-0.1-1.8-0.2-2.1c-0.2-0.4-0.5-0.6-0.9-0.6c-0.3,0-0.6,0.1-0.9,0.2c-0.3,0.1-0.5,0.3-0.6,0.6c-0.1,0.3-0.2,0.9-0.2,1.9
		c0,1,0,1.6,0.1,1.8c0.1,0.2,0.1,0.4,0.2,0.5l0.3,0.4c0,0.2-0.4,0.3-1.1,0.3l-0.4,0H40.5z"/>
	<path class="st1" d="M3.9,68.7c-0.5,0-0.8,0.1-1.1,0.4c-0.3,0.2-0.4,0.6-0.4,1c0,0.4,0.2,0.8,0.7,1.2c0.3,0.2,0.8,0.5,1.6,0.8
		s1.4,0.7,1.7,1c0.6,0.6,0.9,1.2,0.9,1.8v0.2c0,0.8-0.3,1.4-0.9,1.8c-0.3,0.2-0.6,0.4-1,0.5c-0.4,0.1-0.8,0.2-1.2,0.2H3.8
		c-0.9,0-1.8-0.1-2.5-0.4c-0.3-0.1-0.5-0.5-0.5-1V76c0-0.7,0.1-1,0.3-1c0.2,0,0.4,0.2,0.6,0.6s0.6,0.8,0.9,1s0.8,0.3,1.3,0.3
		s0.9-0.1,1.2-0.4c0.3-0.3,0.5-0.6,0.5-1c0-0.5-0.3-1-0.8-1.4c-0.2-0.2-0.8-0.4-1.6-0.8c-0.9-0.4-1.5-0.8-1.8-1.1
		c-0.5-0.5-0.7-1.1-0.7-1.7s0.2-1.3,0.7-1.7c0.3-0.3,0.6-0.4,1-0.6C3,68.1,3.5,68,3.9,68h0.3c0.2,0,0.4,0,0.7,0.1l0.2,0
		c0.3,0.1,0.4,0.1,0.5,0.1l0.2,0l0.2,0c0.2,0,0.3,0,0.4,0.1c0.3,0.1,0.4,0.5,0.4,1.1s-0.1,1-0.4,1c-0.1,0-0.3-0.2-0.6-0.5
		s-0.5-0.6-0.7-0.7C4.8,68.9,4.4,68.7,3.9,68.7z"/>
	<path class="st1" d="M11.3,76.7l1-0.2c0.1,0,0.2,0.1,0.2,0.3c0,0.2-0.2,0.4-0.5,0.6s-0.7,0.3-1.1,0.3h-0.1c-0.3,0-0.6-0.1-0.8-0.2
		s-0.4-0.4-0.5-0.6c-0.2-0.4-0.3-1.2-0.3-2.3c0-1.1,0-1.8-0.1-2.1s-0.2-0.5-0.3-0.6c-0.2-0.2-0.4-0.3-0.4-0.3c0-0.1,0.1-0.2,0.2-0.3
		C8.8,71,9,70.9,9,70.9c0,0,0.2-0.4,0.5-1.1c0.2-0.4,0.3-0.5,0.5-0.5s0.3,0.1,0.4,0.2c0,0,0.1,0.2,0.1,0.6s0.1,0.6,0.3,0.7
		c0.1,0.1,0.4,0.2,0.8,0.3c0.4,0.1,0.6,0.2,0.6,0.4s-0.2,0.3-0.6,0.4s-0.7,0.2-0.8,0.3c-0.2,0.2-0.2,0.9-0.2,2s0.1,1.8,0.2,2
		C10.8,76.5,11,76.7,11.3,76.7z"/>
	<path class="st1" d="M20.4,76.9c0.2,0.2,0.3,0.3,0.3,0.3c0,0.1,0,0.1-0.1,0.2c-0.2,0.2-0.6,0.3-1.3,0.3c-0.2,0-0.4,0-0.5-0.1
		c-0.1-0.1-0.2-0.2-0.3-0.4s-0.2-0.3-0.2-0.3c-0.1,0-0.2,0.1-0.4,0.2c-0.6,0.4-1.1,0.6-1.6,0.6c0,0,0,0,0,0h-0.2
		c-0.8,0-1.3-0.3-1.6-1c-0.2-0.3-0.3-1.1-0.3-2.4c0-1.3,0-2-0.1-2.1c0-0.1-0.2-0.3-0.4-0.4c-0.2-0.1-0.4-0.2-0.4-0.3
		c0-0.2,0.1-0.3,0.2-0.3c0.4-0.1,0.8-0.2,1.4-0.2c0.3,0,0.5,0.1,0.6,0.4c0.1,0.3,0.2,1.1,0.2,2.4c0,1.3,0.1,2,0.2,2.3
		c0.2,0.5,0.5,0.7,1,0.7c0.3,0,0.5-0.1,0.8-0.2s0.5-0.3,0.6-0.5s0.2-0.8,0.2-1.8c0-1,0-1.6-0.1-1.9s-0.2-0.5-0.3-0.6
		c-0.1-0.1-0.2-0.3-0.2-0.4c0-0.2,0.5-0.3,1.6-0.3c0.2,0,0.4,0,0.4,0.1c0.1,0.1,0.1,0.3,0.1,0.5l0,0.4l0,1.8c0,1.2,0,1.9,0.1,2.2
		C20.1,76.5,20.2,76.7,20.4,76.9z"/>
	<path class="st1" d="M26.4,71c0-0.1,0.1-0.4,0.1-0.9s0-0.9-0.1-1.1c-0.1-0.2-0.2-0.4-0.4-0.6c-0.2-0.2-0.3-0.3-0.3-0.3
		s0.1-0.1,0.2-0.2c0.3-0.2,0.7-0.2,1.4-0.2h0.2c0.3,0,0.5,0.2,0.5,0.5c0,0.1,0,1.4,0,3.9c0,2.5,0,3.9,0.1,4.1c0,0.2,0.1,0.4,0.3,0.6
		c0,0,0.1,0.1,0.3,0.2c0.1,0.1,0.2,0.2,0.2,0.3c0,0.1-0.1,0.2-0.2,0.2c-0.3,0.1-0.7,0.2-1.3,0.2c-0.2,0-0.4-0.1-0.5-0.2
		c-0.2-0.2-0.4-0.4-0.4-0.4s-0.1,0.1-0.3,0.2s-0.4,0.2-0.7,0.3c-0.3,0.1-0.6,0.2-1,0.2s-0.7-0.1-1.1-0.3c-0.6-0.3-1-0.8-1.3-1.5
		c-0.1-0.4-0.2-0.9-0.2-1.4c0-1,0.3-1.9,0.9-2.5s1.4-1,2.4-1l0.9,0.1C26.3,71.1,26.4,71.1,26.4,71z M26.4,72.9
		c0-0.4-0.1-0.7-0.4-0.9c-0.2-0.2-0.6-0.3-0.9-0.3H25c-0.2,0-0.4,0.1-0.7,0.2s-0.4,0.3-0.6,0.5c-0.3,0.5-0.5,1-0.5,1.7v0.4
		c0,0.7,0.2,1.2,0.5,1.7s0.7,0.7,1.1,0.7h0.2c0.4,0,0.7-0.1,1-0.4s0.4-0.6,0.4-1l0-0.1v-0.1l0-0.4c0-0.2,0-0.4,0-0.7l0-0.2v-0.2
		l0-0.1v-0.4l0-0.1v-0.1C26.4,73,26.4,73,26.4,72.9z"/>
	<path class="st1" d="M30.3,71.9c-0.2-0.1-0.4-0.2-0.4-0.3s0-0.2,0.1-0.2c0.3-0.2,0.9-0.3,1.6-0.3h0.2c0.2,0,0.4,0.1,0.4,0.3
		c0,0.1,0,1,0,2.5c0,1.5,0,2.4,0.1,2.6c0.1,0.2,0.2,0.4,0.5,0.5c0.2,0.1,0.4,0.2,0.4,0.4c0,0.2-0.6,0.3-1.7,0.3l-0.2,0h-0.8
		c-0.3,0-0.5-0.1-0.5-0.2c0-0.1,0.1-0.3,0.3-0.4s0.3-0.3,0.4-0.4c0.1-0.2,0.1-0.6,0.1-1.2l0-0.2v-0.2l0-0.3v-0.2l0-0.2
		c0-1.1,0-1.7-0.1-1.9C30.7,72.1,30.6,72,30.3,71.9z M32.5,68.8c0,0.2-0.1,0.4-0.3,0.6c-0.2,0.2-0.3,0.3-0.5,0.3c0,0-0.1,0-0.1,0
		l-0.2,0c-0.2,0-0.4-0.1-0.6-0.2s-0.3-0.3-0.3-0.6v-0.1c0-0.2,0.1-0.4,0.3-0.6c0.2-0.2,0.4-0.2,0.7-0.2h0l0.2,0
		c0.1,0,0.3,0.1,0.4,0.2c0.2,0.2,0.2,0.3,0.2,0.5l0,0.1V68.8z"/>
	<path class="st1" d="M35.8,75c0,0.5,0.2,1,0.6,1.3s0.9,0.5,1.5,0.5c0.2,0,0.5,0,0.7-0.1c0.2-0.1,0.4-0.2,0.6-0.3s0.4-0.2,0.4-0.2
		c0.2,0,0.3,0.1,0.3,0.3c0,0.3-0.3,0.5-1,0.8c-0.4,0.2-0.9,0.3-1.4,0.3h-0.2c-0.9,0-1.6-0.3-2.1-0.8c-0.3-0.3-0.5-0.6-0.7-1.1
		c-0.2-0.4-0.3-0.9-0.3-1.4l0-0.2v-0.2c0-0.4,0.1-0.9,0.3-1.3c0.2-0.4,0.4-0.8,0.7-1c0.6-0.6,1.3-0.9,2.1-0.9c1.2,0,2.1,0.5,2.5,1.4
		c0.1,0.3,0.2,0.6,0.2,0.8v0.1c0,0.3-0.1,0.5-0.4,0.6c-0.3,0.1-0.9,0.2-1.8,0.3s-1.5,0.1-1.6,0.1C36,74.5,35.8,74.7,35.8,75z
		 M38.7,73.2v-0.2c0-0.3-0.1-0.6-0.4-0.9c-0.2-0.3-0.5-0.4-0.9-0.4h-0.1c-0.1,0-0.1,0-0.1,0c-0.3,0-0.6,0.2-0.9,0.5
		s-0.4,0.8-0.4,1.2v0.1c0,0.1,0.1,0.2,0.3,0.2c0.1,0,0.1,0,0.1,0l0.2,0h0l0,0l1.3-0.1l0.2,0C38.5,73.6,38.7,73.4,38.7,73.2z"/>
	<path class="st1" d="M46.3,75.8c0,0.5-0.2,1-0.6,1.3c-0.4,0.4-1,0.6-1.8,0.6h-0.2c-0.9,0-1.5-0.1-2-0.3c-0.2-0.1-0.4-0.4-0.4-0.8
		v-0.2c0-0.5,0.1-0.8,0.3-0.8c0.2,0,0.4,0.2,0.6,0.5c0.2,0.3,0.4,0.5,0.6,0.6c0.3,0.2,0.6,0.3,1,0.3c0.4,0,0.7-0.1,0.9-0.2
		c0.2-0.2,0.3-0.4,0.3-0.7s-0.2-0.5-0.5-0.8c-0.2-0.1-0.6-0.3-1.2-0.6c-0.6-0.3-1.1-0.5-1.4-0.8c-0.3-0.3-0.5-0.7-0.5-1.2
		s0.2-1,0.7-1.3c0.4-0.3,1-0.5,1.6-0.5H44c0.8,0,1.4,0.1,1.8,0.3c0.2,0.1,0.3,0.4,0.3,0.9s-0.1,0.7-0.3,0.7c-0.1,0-0.3-0.1-0.5-0.4
		c-0.2-0.3-0.4-0.5-0.6-0.6c-0.2-0.1-0.4-0.2-0.8-0.2s-0.6,0.1-0.8,0.2c-0.2,0.1-0.3,0.4-0.3,0.6c0,0.3,0.2,0.5,0.5,0.7
		c0.1,0.1,0.5,0.2,1.1,0.5s1.1,0.6,1.4,0.8C46.1,74.9,46.3,75.3,46.3,75.8z"/>
</g>
</svg>
