<?xml version="1.0" encoding="utf-8"?>
<!-- Generator: Adobe Illustrator 20.1.0, SVG Export Plug-In . SVG Version: 6.00 Build 0)  -->
<svg version="1.1" id="レイヤー_1" xmlns="http://www.w3.org/2000/svg" xmlns:xlink="http://www.w3.org/1999/xlink" x="0px"
	 y="0px" viewBox="0 0 80 78" style="enable-background:new 0 0 80 78;" xml:space="preserve">
<style type="text/css">
	.st0{fill:#ffbb00;}
</style>
<title></title>
<g id="icomoon-ignore">
</g>
<g>
	<g>
		<path class="st0" d="M1.3,27.8c0.3,0,0.6-0.1,0.7-0.2c0.2-0.1,0.2-0.3,0.2-0.4v-0.8c0-0.9,0.1-1.6,0.4-2c0.1-0.2,0.3-0.3,0.6-0.4
			s0.6-0.2,0.9-0.2l0.8,0.1c0.4,0,0.6-0.2,0.6-0.6c0-0.3-0.1-0.5-0.2-0.7S5,22.4,4.8,22.4s-0.4,0-0.6,0.1s-0.4,0.1-0.6,0.1
			c-0.5,0-0.8-0.1-0.9-0.2c-0.1-0.1-0.2-0.4-0.2-0.8c0-0.8,0.1-1.4,0.3-1.6C3,19.6,3.4,19.5,4,19.5s1,0,1.2,0.1
			c0.2,0,0.4,0.1,0.6,0.1c0.2,0.1,0.4,0.1,0.4,0.1c0.3,0,0.5-0.2,0.5-0.5v-0.2c0-0.3-0.1-0.4-0.2-0.5s-0.4-0.1-0.7-0.1H5.4
			c-1.8,0-3.1,0.1-4.1,0.2c-0.3,0.1-0.5,0.2-0.5,0.4c0,0,0,0.1,0.1,0.3S1,19.8,1,19.9c0,0.2,0,0.7,0,1.6s-0.1,2.3-0.2,4.1
			c0,0.3-0.1,0.5-0.2,0.8c-0.2,0.2-0.2,0.4-0.2,0.5v0.2c0,0.2,0.1,0.4,0.2,0.5S1,27.8,1.3,27.8z M13.1,26.4c0-0.1,0-0.7,0-1.6
			c0-1,0-1.5,0-1.6c0-0.5-0.2-0.8-0.3-1.1c-0.2-0.3-0.5-0.5-0.8-0.7c-0.4-0.2-0.8-0.3-1.2-0.3h-0.3c-0.5,0-1,0.1-1.5,0.3
			c-0.5,0.2-0.7,0.5-0.7,0.8c0,0.4,0.2,0.6,0.5,0.6c0.1,0,0.4-0.1,0.9-0.3c0.5-0.2,0.8-0.3,1.1-0.3s0.5,0.1,0.7,0.3s0.3,0.4,0.3,0.7
			c0,0.3-0.1,0.5-0.4,0.6c-0.1,0.1-0.4,0.1-0.8,0.2c-0.4,0.1-0.7,0.1-0.8,0.1c-0.6,0.1-1,0.4-1.4,0.7c-0.4,0.3-0.6,0.8-0.6,1.4
			s0.2,1.1,0.5,1.4c0.4,0.3,0.8,0.5,1.3,0.5h0.2c0.3,0,0.7-0.1,1.1-0.2c0.4-0.2,0.7-0.2,0.7-0.2c0.1,0,0.3,0.1,0.6,0.2
			s0.5,0.2,0.8,0.2c0.2,0,0.4,0,0.5-0.1s0.2-0.2,0.2-0.3s-0.1-0.3-0.2-0.5C13.2,26.7,13.1,26.6,13.1,26.4z M11.7,25.5v0.2v0.1v0.1
			c0,0.3-0.1,0.6-0.4,0.9c-0.3,0.3-0.6,0.4-1,0.4h-0.2c-0.3,0-0.5-0.1-0.7-0.3s-0.3-0.4-0.3-0.7v-0.1c0-0.4,0.1-0.6,0.3-0.8
			c0.3-0.3,0.7-0.4,1-0.4c0.1,0,0.1,0,0.3,0H11l0,0h0.3c0.3,0,0.4,0.1,0.4,0.4C11.7,25.3,11.7,25.5,11.7,25.5z M17.9,28.1
			c0.5,0,1-0.1,1.5-0.4s0.8-0.5,0.8-0.8c0-0.2-0.1-0.3-0.3-0.3c-0.1,0-0.3,0.1-0.8,0.2c-0.4,0.1-0.7,0.2-1,0.2c-0.6,0-1-0.2-1.3-0.5
			c-0.3-0.4-0.5-0.9-0.5-1.7c0-0.7,0.2-1.4,0.5-1.8c0.3-0.5,0.7-0.7,1.3-0.7l0,0c0.2,0,0.6,0.1,0.9,0.3c0.4,0.2,0.6,0.3,0.7,0.3
			c0.3,0,0.5-0.2,0.5-0.5s-0.2-0.6-0.5-0.8c-0.3-0.3-0.8-0.4-1.3-0.4h-0.2c-0.5,0-1,0.1-1.4,0.3c-0.7,0.3-1.2,0.9-1.6,1.8
			c-0.2,0.4-0.3,1-0.3,1.5V25c0,0.5,0.1,0.9,0.3,1.3C15.7,27.5,16.6,28.1,17.9,28.1z M22.4,27.2c0.3,0.4,0.8,0.6,1.4,0.6H24
			c0.4,0,0.9-0.1,1.5-0.4c0.2-0.1,0.3-0.2,0.4-0.2s0.2,0.1,0.4,0.2c0.2,0.2,0.4,0.2,0.6,0.2c0.6,0,0.9-0.2,0.9-0.6
			c0,0,0-0.2-0.1-0.4c0-0.2-0.1-0.6-0.1-1.2c0-0.5,0-0.9,0-1.2v-1.6v-0.4c0-0.3,0-0.5-0.1-0.6s-0.3-0.2-0.5-0.2
			c-0.3,0-0.5,0.1-0.6,0.2s-0.2,0.3-0.2,0.5v0.3v0.3c0,1.6-0.1,2.6-0.4,3.2c-0.1,0.3-0.3,0.5-0.6,0.7s-0.5,0.3-0.8,0.3
			c-0.8,0-1.1-0.5-1.1-1.6l0.1-2.3c0-0.7-0.1-1.1-0.2-1.4c-0.1-0.2-0.3-0.4-0.6-0.4h-0.2c-0.5,0-0.7,0.1-0.7,0.4
			c0,0.1,0,0.2,0.1,0.5c0.1,0.2,0.1,0.5,0.1,0.7l-0.1,2.1C21.9,26.2,22.1,26.9,22.4,27.2z M30.6,28H31c0.3,0,0.6-0.1,0.8-0.2
			c0.2-0.1,0.3-0.3,0.3-0.5v-0.1c0-0.1-0.1-0.2-0.2-0.4c-0.1-0.2-0.2-0.4-0.3-0.7s-0.1-0.8-0.1-1.4c0-0.7,0-1.7,0.1-3.1v-0.4v-0.3
			c0-0.2,0-0.3,0-0.5V20c0,0,0-0.1,0-0.3l0.1-1c0-0.4,0-0.6-0.1-0.7s-0.3-0.2-0.5-0.2H31c-0.6,0-0.9,0.2-0.9,0.5
			c0,0.1,0,0.3,0.1,0.5s0.1,0.6,0.1,1v0.5v0.5c0,0.1,0,0.7-0.1,1.9s-0.1,1.9-0.1,2.3s0,0.6-0.1,0.8c0,0.2,0,0.5-0.1,0.9V27v0.2
			c0,0.2,0.1,0.3,0.2,0.4C30.2,27.9,30.4,28,30.6,28z M36.9,21.2c-0.3-0.1-0.6-0.2-0.7-0.3c-0.1-0.1-0.2-0.3-0.2-0.7
			c-0.1-0.4-0.1-0.6-0.1-0.6c-0.1-0.2-0.2-0.2-0.4-0.2h-0.1c-0.2,0-0.4,0.2-0.5,0.5c0,0.1-0.1,0.3-0.2,0.6c-0.1,0.3-0.2,0.5-0.3,0.6
			c-0.4,0.4-0.7,0.7-0.7,0.7c0,0.1,0.1,0.2,0.3,0.4c0.2,0.2,0.3,0.4,0.3,0.6s0.1,0.9,0.1,2.1s0.1,2,0.3,2.3c0.3,0.5,0.8,0.8,1.5,0.8
			c0.4,0,0.7-0.1,0.9-0.2s0.3-0.3,0.3-0.5s-0.2-0.3-0.6-0.4c-0.4-0.1-0.6-0.1-0.7-0.3c-0.2-0.2-0.3-0.6-0.3-1.2
			c0-1.2,0.1-2.1,0.3-2.7c0.1-0.3,0.4-0.5,0.8-0.6c0.4-0.1,0.6-0.3,0.6-0.5v-0.1C37.4,21.4,37.3,21.2,36.9,21.2z M40.8,26.7
			c0.3,0.6,0.5,1,0.5,1.2c0,0.4-0.2,0.9-0.5,1.3c-0.2,0.2-0.5,0.4-0.9,0.6s-0.6,0.4-0.6,0.6s0.2,0.4,0.6,0.4s0.8-0.2,1.2-0.6
			s0.8-0.9,1.2-1.6s1-2.2,1.8-4.7c0.1-0.4,0.3-0.8,0.5-1.2s0.2-0.7,0.2-0.9c0-0.3-0.2-0.5-0.6-0.5s-0.7,0.1-0.8,0.4
			c0,0.1-0.1,0.4-0.2,0.9s-0.2,1.1-0.5,1.9c-0.4,1.1-0.7,1.7-1,1.7c-0.2-0.1-0.5-1.3-1.2-3.6c-0.1-0.4-0.1-0.6-0.1-0.6
			c-0.1-0.3-0.4-0.4-0.7-0.4s-0.6,0.1-0.7,0.2c-0.1,0.1-0.2,0.2-0.2,0.3c0,0.3,0.4,1.3,1.1,3C40.2,25.6,40.5,26.1,40.8,26.7z
			 M2.7,44.1h0.2c0.4,0,0.9-0.1,1.3-0.3c0.8-0.4,1.4-1,1.7-2c0.1-0.5,0.2-0.9,0.2-1.4v-0.1c0-1.4-0.5-2.4-1.6-2.9
			c-0.3-0.2-0.7-0.2-1.1-0.2H3.1c-0.4,0-0.7,0.1-1.1,0.2c-0.4,0.2-0.8,0.4-1.1,0.8C0.3,38.8,0,39.7,0,40.9V41c0,1,0.3,1.8,0.8,2.4
			C1.2,43.8,1.9,44.1,2.7,44.1z M1.4,40.7v-0.2c0-0.7,0.2-1.2,0.5-1.7S2.6,38,3.1,38h0.1c0.4,0,0.8,0.2,1,0.6
			c0.2,0.4,0.4,0.9,0.4,1.5v0.5c0,0.8-0.2,1.4-0.5,1.9s-0.7,0.7-1.2,0.7H2.7c-0.4,0-0.7-0.2-1-0.6c-0.2-0.5-0.3-1-0.3-1.6
			C1.4,41,1.4,40.7,1.4,40.7z M8.7,44.5c0.3,0,0.6-0.1,0.8-0.3s0.3-0.4,0.3-0.7l-0.1-1.2c0-1.3,0.1-2.4,0.4-3.2
			c0.1-0.4,0.3-0.6,0.6-0.8c0.4-0.2,0.6-0.4,0.6-0.5c0-0.2-0.2-0.4-0.5-0.5C10.5,37,10.3,37,10.2,37c-0.1-0.2-0.2-0.4-0.2-0.7
			s0.1-0.6,0.3-0.9c0.2-0.3,0.4-0.4,0.7-0.4c0.1,0,0.3,0,0.5,0c0.1,0,0.2,0,0.3,0s0.2,0,0.3,0c0.2-0.1,0.4-0.2,0.4-0.4
			s-0.1-0.4-0.3-0.5s-0.5-0.2-0.9-0.2c-0.8,0-1.4,0.3-1.9,0.8c0,0-0.3,0.7-1,2c-0.1,0.1-0.2,0.3-0.3,0.5c-0.2,0.2-0.2,0.4-0.2,0.6
			c0,0.1,0.1,0.3,0.2,0.5c0.1,0.2,0.2,0.3,0.2,0.4c0.1,0.2,0.1,0.7,0.1,1.5s0,1.4-0.1,1.8c-0.1,0.4-0.1,0.8-0.2,1
			c-0.1,0.3-0.2,0.5-0.2,0.7S8,44,8.1,44.2c0.2,0.1,0.3,0.2,0.6,0.2l0,0C8.7,44.4,8.7,44.5,8.7,44.5z M3.9,51.5c0.5,0,1,0,1.4,0.1
			s0.6,0.1,0.7,0.1c0.3,0,0.4-0.1,0.5-0.2c0.1-0.1,0.1-0.3,0.1-0.5s-0.1-0.4-0.3-0.5s-0.6-0.1-1.2-0.1c-1.8,0-3,0.1-3.8,0.2
			c-0.4,0.1-0.7,0.2-0.7,0.5c0,0.1,0,0.2,0.1,0.3l0.1,0.2c0.1,0.2,0.1,0.4,0.1,0.6c0,1.2-0.1,3.1-0.4,5.6c0,0.4-0.1,0.7-0.2,0.9
			c-0.1,0.3-0.2,0.4-0.2,0.5c0,0.3,0.2,0.4,0.5,0.5s1,0.1,1.9,0.1h1c1.2,0,2,0,2.3-0.1c0.4-0.1,0.6-0.4,0.6-0.8
			c0-0.3-0.1-0.4-0.4-0.4c-0.1,0-0.4,0.1-0.9,0.2s-1,0.2-1.6,0.2s-1-0.1-1.1-0.4c-0.2-0.3-0.2-0.7-0.2-1.4s0.1-1.1,0.3-1.3
			s0.5-0.3,1.1-0.3c0.2,0,0.4,0,0.6,0.1l0.4,0.1h0.2c0.5,0,0.8-0.3,0.8-0.8c0-0.3-0.1-0.4-0.2-0.6C5.3,54.1,5.1,54,5,54
			c-0.2,0-0.4,0-0.6,0.1c-0.3,0.1-0.5,0.1-0.9,0.1c-0.3,0-0.6-0.1-0.8-0.2c-0.2-0.1-0.3-0.3-0.3-0.7c0-0.8,0.1-1.4,0.4-1.7
			C3,51.6,3.4,51.5,3.9,51.5z M11.2,54.2L11.2,54.2c0.3,0,0.6,0.1,1,0.3s0.6,0.3,0.7,0.3c0.3,0,0.5-0.2,0.5-0.5s-0.2-0.6-0.5-0.8
			c-0.5-0.3-0.9-0.4-1.5-0.4h-0.2c-0.5,0-1,0.1-1.4,0.3c-0.7,0.3-1.2,0.9-1.6,1.8c-0.2,0.4-0.3,1-0.3,1.5V57c0,0.5,0.1,0.9,0.3,1.3
			c0.4,1.1,1.3,1.6,2.7,1.6c0.5,0,1-0.1,1.5-0.4s0.8-0.5,0.8-0.8c0-0.2-0.1-0.3-0.3-0.3c-0.1,0-0.3,0.1-0.8,0.2
			c-0.4,0.1-0.7,0.2-1,0.2c-0.6,0-1-0.2-1.3-0.5c-0.3-0.4-0.5-0.9-0.5-1.7c0-0.7,0.2-1.4,0.5-1.8C10.2,54.5,10.6,54.2,11.2,54.2z
			 M19.2,53.4c-0.4-0.2-0.7-0.2-1.1-0.2h-0.3c-0.4,0-0.7,0.1-1.1,0.2c-0.4,0.2-0.8,0.4-1.1,0.8c-0.6,0.6-0.9,1.5-0.9,2.7V57
			c0,1,0.3,1.8,0.8,2.4c0.5,0.6,1.2,0.8,1.9,0.8h0.2c0.4,0,0.9-0.1,1.3-0.3c0.8-0.4,1.4-1,1.7-2c0.1-0.5,0.2-0.9,0.2-1.4v-0.1
			C20.8,54.9,20.3,53.9,19.2,53.4z M19.3,56.6c0,0.8-0.2,1.4-0.5,1.9s-0.7,0.7-1.2,0.7h-0.2c-0.4,0-0.7-0.2-1-0.6S16,57.7,16,57.1
			v-0.4v-0.2c0-0.7,0.2-1.2,0.5-1.7s0.7-0.7,1.2-0.7h0.1c0.4,0,0.8,0.2,1,0.6s0.4,0.9,0.4,1.5L19.3,56.6
			C19.2,56.6,19.3,56.6,19.3,56.6z M28.3,58.1c0-0.1,0-0.4,0-0.7c0-0.1,0-0.1,0-0.2s0-0.2,0-0.3c0,0,0-0.1,0-0.3c0-0.1,0-0.2,0-0.2
			l0,0c0-1-0.1-1.6-0.2-1.9c-0.3-0.6-0.8-0.9-1.5-0.9h-0.2c-0.4,0-0.9,0.2-1.5,0.5c-0.2,0.1-0.3,0.2-0.4,0.2S24.2,54.2,24,54
			c-0.3-0.2-0.6-0.3-0.8-0.3s-0.4,0.1-0.4,0.4v2c0,1.2-0.1,2-0.2,2.4l-0.2,0.2c-0.1,0.2-0.1,0.3-0.1,0.3v0.2c0,0.4,0.3,0.6,0.8,0.6
			h0.1c0.2,0,0.4-0.1,0.6-0.2c0.1-0.2,0.2-0.4,0.2-0.8c0-1.7,0.1-2.8,0.4-3.4c0.1-0.3,0.3-0.5,0.6-0.7c0.2-0.2,0.5-0.3,0.8-0.3
			c0.4,0,0.7,0.2,0.9,0.5C26.9,55.3,27,56,27,57c0,0.5,0,1,0,1.4v0.4c0,0.3,0,0.5,0.1,0.5c0.1,0.2,0.3,0.2,0.7,0.2
			c0.6,0,0.9-0.2,0.9-0.5c0-0.2,0-0.3-0.1-0.5C28.4,58.3,28.3,58.2,28.3,58.1z M34.6,53.4c-0.4-0.2-0.8-0.2-1.2-0.2h-0.3
			c-0.4,0-0.7,0.1-1.1,0.2c-0.4,0.2-0.8,0.4-1.1,0.8c-0.6,0.6-0.9,1.5-0.9,2.7V57c0,1,0.3,1.8,0.8,2.4s1.2,0.8,1.9,0.8h0.2
			c0.4,0,0.9-0.1,1.3-0.3c0.8-0.4,1.4-1,1.7-2c0.1-0.5,0.2-0.9,0.2-1.4v-0.1C36.2,54.9,35.6,53.9,34.6,53.4z M34.7,56.6
			c0,0.8-0.2,1.4-0.5,1.9s-0.7,0.7-1.2,0.7h-0.2c-0.4,0-0.7-0.2-1-0.6c-0.3-0.4-0.4-0.9-0.4-1.5v-0.4v-0.2c0-0.7,0.2-1.2,0.5-1.7
			c0.3-0.5,0.7-0.7,1.2-0.7h0.1c0.4,0,0.8,0.2,1,0.6s0.4,0.9,0.4,1.5L34.7,56.6L34.7,56.6z M47.2,58c0-0.1,0-0.4,0-1.1
			c0-1.4-0.1-2.3-0.3-2.7c-0.1-0.2-0.3-0.4-0.5-0.5c-0.2-0.2-0.5-0.2-0.9-0.2s-0.8,0.1-1.2,0.3c-0.5,0.2-0.7,0.3-0.7,0.3
			s-0.3-0.1-0.7-0.3s-0.8-0.3-1.2-0.3s-0.7,0.1-1.1,0.2c-0.4,0.1-0.6,0.2-0.9,0.2l-1-0.2c-0.3,0-0.5,0.1-0.5,0.4
			c0,0.3-0.1,1.3-0.2,3.1c0,0.3,0,0.5-0.1,0.8l-0.1,0.5v0.2c0,0.3,0.1,0.5,0.2,0.7s0.3,0.3,0.6,0.3s0.5-0.1,0.6-0.4
			c0-0.1,0.1-0.7,0.2-1.7s0.2-1.6,0.3-1.9c0.1-0.3,0.3-0.5,0.6-0.7s0.5-0.3,0.9-0.3c0.3,0,0.6,0.1,0.7,0.4c0.1,0.2,0.2,0.8,0.2,1.7
			s0,1.5-0.1,1.9s-0.1,0.6-0.1,0.7c0,0.3,0.1,0.5,0.2,0.6s0.3,0.1,0.5,0.1c0.3,0,0.5-0.1,0.7-0.2c0.3-0.2,0.4-0.4,0.4-0.8l-0.1-1
			c0-1.1,0.1-2,0.4-2.6c0.2-0.4,0.5-0.6,0.8-0.6c0.5,0,0.9,0.2,1,0.6c0.1,0.2,0.2,0.8,0.2,1.9c0.1,1.1,0.1,1.8,0.2,2
			c0.1,0.3,0.3,0.5,0.7,0.5c0.2,0,0.4-0.1,0.5-0.2c0.1-0.2,0.2-0.3,0.2-0.4s0-0.3-0.1-0.6C47.3,58.2,47.2,58.1,47.2,58z M50.2,52
			h0.2h0.1c0.3,0,0.5-0.1,0.6-0.2c0.1-0.2,0.2-0.4,0.2-0.6v-0.1c0-0.2-0.1-0.4-0.2-0.5s-0.2-0.2-0.4-0.2h-0.2h-0.1h-0.2
			c-0.2,0-0.3,0.1-0.4,0.2c-0.1,0.1-0.2,0.3-0.2,0.4v0.2v0.1c0,0.2,0.1,0.4,0.2,0.5C50,51.9,50.1,52,50.2,52z M51,58.1
			c0-0.2-0.1-0.6-0.1-1.3v-0.3v-0.6v-0.2l0.1-1.8c0-0.2,0-0.3-0.1-0.5c-0.1-0.1-0.2-0.2-0.5-0.2h-0.2c-0.6,0-0.9,0.2-0.9,0.5
			c0,0.1,0.1,0.2,0.2,0.5s0.2,0.6,0.2,0.9v0.3c0,0.2,0,0.4,0,0.7v0.2v0.4c0,0.1,0,0.2,0,0.4c0,0.6-0.1,1.1-0.2,1.5s-0.2,0.6-0.2,0.6
			v0.2c0,0.1,0.1,0.2,0.2,0.3c0.1,0.1,0.3,0.2,0.5,0.2h0.2c0.4,0,0.7-0.1,0.9-0.2c0.2-0.1,0.3-0.3,0.3-0.5v-0.1
			c0-0.1-0.1-0.2-0.2-0.4C51.1,58.5,51,58.2,51,58.1z M56,54.2L56,54.2c0.3,0,0.6,0.1,1,0.3s0.6,0.3,0.7,0.3c0.3,0,0.5-0.2,0.5-0.5
			s-0.2-0.6-0.5-0.8c-0.4-0.2-0.8-0.3-1.3-0.3h-0.2c-0.5,0-1,0.1-1.4,0.3c-0.7,0.3-1.2,0.9-1.6,1.8c-0.2,0.4-0.3,1-0.3,1.5v0.3
			c0,0.5,0.1,0.9,0.3,1.3c0.4,1.1,1.3,1.6,2.7,1.6c0.5,0,1-0.1,1.5-0.4s0.8-0.5,0.8-0.8c0-0.2-0.1-0.3-0.3-0.3
			c-0.1,0-0.3,0.1-0.8,0.2c-0.4,0.1-0.7,0.2-1,0.2c-0.6,0-1-0.2-1.3-0.5c-0.3-0.4-0.5-0.9-0.5-1.7c0-0.7,0.2-1.4,0.5-1.8
			C55,54.5,55.5,54.2,56,54.2z M63.8,56.7c-0.2-0.2-0.7-0.4-1.2-0.7c-0.6-0.2-0.9-0.4-1.1-0.5c-0.3-0.2-0.4-0.4-0.4-0.7
			s0.1-0.4,0.3-0.6c0.2-0.1,0.5-0.2,0.8-0.2s0.7,0.1,1,0.3c0.4,0.2,0.6,0.3,0.7,0.3c0.3,0,0.4-0.2,0.4-0.5s-0.2-0.6-0.5-0.8
			C63.4,53,63,53,62.4,53h-0.2c-0.7,0-1.2,0.2-1.7,0.6c-0.5,0.4-0.7,0.8-0.7,1.3s0.1,0.9,0.4,1.2s0.7,0.6,1.4,0.8
			c0.6,0.3,1,0.5,1.1,0.6c0.2,0.2,0.4,0.4,0.4,0.7s-0.1,0.5-0.3,0.6C62.6,59,62.3,59,61.9,59s-0.8-0.1-1.2-0.4
			c-0.4-0.2-0.7-0.4-0.7-0.4c-0.3,0-0.4,0.2-0.4,0.5s0.2,0.6,0.6,0.8c0.4,0.2,0.9,0.3,1.7,0.3h0.2c0.7,0,1.3-0.2,1.8-0.6
			c0.5-0.4,0.7-0.9,0.7-1.4C64.4,57.5,64.2,57.1,63.8,56.7z"/>
	</g>
</g>
</svg>
