<?xml version="1.0" encoding="utf-8"?>
<!-- Generator: Adobe Illustrator 22.0.1, SVG Export Plug-In . SVG Version: 6.00 Build 0)  -->
<svg version="1.1" id="レイヤー_1" xmlns="http://www.w3.org/2000/svg" xmlns:xlink="http://www.w3.org/1999/xlink" x="0px"
	 y="0px" viewBox="0 0 80 78" style="enable-background:new 0 0 80 78;" xml:space="preserve">
<style type="text/css">
	.st0{fill:#989898;}
</style>
<title></title>
<g id="icomoon-ignore">
</g>
<path class="st0" d="M5.4,7.6c1.3,0,2.2,0.1,2.8,0.3c0.1,0,0.3,0.2,0.4,0.3s0.2,0.5,0.2,0.9S8.7,9.8,8.6,9.9L8.5,10
	c-0.1,0-0.3-0.2-0.6-0.5C7.2,8.8,6.5,8.4,5.5,8.4c-0.9,0-1.6,0.4-2.2,1.1c-0.5,0.7-0.8,1.7-0.8,2.9s0.3,2.2,0.9,2.9
	c0.6,0.8,1.3,1.1,2.3,1.1c0.6,0,1-0.1,1.3-0.4s0.4-0.8,0.4-1.5c0-0.3-0.1-0.5-0.2-0.8c0-0.1-0.1-0.2-0.3-0.3
	c-0.1-0.1-0.2-0.2-0.2-0.3c0-0.2,0.4-0.3,1.3-0.3c0.6,0,1,0,1.1,0.1c0.2,0.1,0.3,0.2,0.3,0.3c0,0-0.1,0.1-0.2,0.3
	C9.1,13.7,9,13.8,9,13.9s-0.1,0.5-0.1,1.2c-0.1,0.7-0.1,1.2-0.2,1.3s-0.4,0.3-0.8,0.4c-1.1,0.4-1.9,0.5-2.4,0.5H5.3
	c-0.6,0-1.2-0.1-1.8-0.3c-0.6-0.2-1-0.5-1.4-0.9s-0.7-0.9-1-1.5s-0.4-1.3-0.4-2v-0.3c0-0.6,0.1-1.3,0.4-1.9c0.5-1.2,1.3-2,2.4-2.4
	C4.1,7.7,4.7,7.6,5.4,7.6z M14,16.9c0,0.2-0.4,0.3-1.2,0.3h-0.7h-0.3h-0.4c-0.5,0-0.7-0.1-0.7-0.3c0-0.1,0.1-0.3,0.3-0.4
	s0.4-0.3,0.4-0.5c0.1-0.2,0.1-0.9,0.1-2s0-1.7-0.1-2s-0.2-0.4-0.3-0.5c-0.3-0.2-0.4-0.3-0.4-0.4s0-0.2,0.1-0.2
	c0.3-0.2,0.8-0.3,1.4-0.3h0.1c0.3,0,0.4,0.1,0.6,0.4c0.1,0.3,0.2,0.4,0.3,0.4s0.2-0.1,0.4-0.2s0.4-0.3,0.6-0.4s0.5-0.2,0.8-0.2
	s0.5,0.1,0.7,0.2c0.2,0.1,0.2,0.3,0.2,0.6c0,0.2-0.1,0.4-0.2,0.5s-0.2,0.2-0.4,0.2S15,12,14.8,11.9c-0.2-0.1-0.4-0.2-0.6-0.2
	s-0.3,0.1-0.5,0.2c-0.2,0.1-0.3,0.3-0.5,0.7c-0.1,0.3-0.2,0.9-0.2,1.6c0,0.8,0.1,1.3,0.2,1.5c0.1,0.2,0.3,0.4,0.5,0.6
	S14,16.8,14,16.9z M16.9,11.8c0-0.3,0.3-0.6,0.8-0.9c0.5-0.3,1.1-0.4,1.7-0.4c0,0,0,0,0.1,0c0.5,0,1,0.1,1.3,0.2
	c0.7,0.3,1,0.8,1.1,1.7c0,0.1,0,0.7,0,1.7c0,1.1,0,1.7,0.1,1.9s0.2,0.3,0.5,0.4s0.4,0.2,0.4,0.2c0,0.2-0.1,0.3-0.2,0.4
	c-0.3,0.2-0.7,0.3-1,0.3s-0.6-0.1-0.7-0.2c-0.3-0.3-0.4-0.4-0.4-0.4s-0.3,0.1-0.8,0.3c-0.5,0.2-0.9,0.3-1.3,0.3
	c-0.6,0-1-0.2-1.3-0.5s-0.5-0.7-0.5-1.1v-0.2c0-0.5,0.2-0.9,0.6-1.3s1.1-0.6,2.2-0.8c0.4-0.1,0.6-0.1,0.7-0.2
	c0.2-0.1,0.3-0.4,0.3-0.8s-0.1-0.7-0.3-0.9s-0.5-0.2-0.9-0.2s-0.7,0.2-1,0.6c-0.3,0.4-0.6,0.6-0.9,0.6
	C17.1,12.5,16.9,12.3,16.9,11.8z M20.3,14h-0.1c-0.6,0-1.1,0.1-1.5,0.4c-0.4,0.3-0.6,0.6-0.6,1v0.1c0,0.2,0.1,0.4,0.2,0.6
	s0.3,0.3,0.6,0.3H19h0.2c0.5,0,0.9-0.2,1.2-0.6c0.1-0.2,0.2-0.5,0.2-1v-0.1v-0.2v-0.2C20.5,14.2,20.4,14,20.3,14z M28.5,10.6
	c0-0.1,0.1-0.4,0.1-0.9s0-0.9-0.1-1.1C28.4,8.3,28.2,8.1,28,8c-0.2-0.2-0.3-0.3-0.3-0.3s0.1-0.1,0.2-0.2c0.3-0.2,0.7-0.2,1.4-0.2
	h0.2c0.3,0,0.5,0.2,0.5,0.5c0,0.1,0,1.4,0,3.9s0,3.9,0.1,4.1c0,0.2,0.1,0.4,0.3,0.6c0,0,0.1,0.1,0.3,0.2c0.1,0.1,0.2,0.2,0.2,0.3
	c0,0.1-0.1,0.2-0.2,0.2c-0.3,0.1-0.7,0.2-1.3,0.2c-0.2,0-0.4-0.1-0.5-0.2c-0.2-0.2-0.4-0.4-0.4-0.4s-0.1,0.1-0.3,0.2
	s-0.4,0.2-0.7,0.3c-0.3,0.1-0.6,0.2-1,0.2s-0.7-0.1-1.1-0.3c-0.6-0.3-1-0.8-1.3-1.5c-0.1-0.4-0.2-0.9-0.2-1.4c0-1,0.3-1.9,0.9-2.5
	s1.4-1,2.4-1l0.9,0.1C28.3,10.7,28.5,10.7,28.5,10.6z M28.5,12.5c0-0.4-0.1-0.7-0.4-0.9c-0.2-0.2-0.6-0.3-0.9-0.3H27
	c-0.2,0-0.4,0.1-0.7,0.2s-0.4,0.3-0.6,0.5c-0.3,0.5-0.5,1-0.5,1.7v0.4c0,0.7,0.2,1.2,0.5,1.7s0.7,0.7,1.1,0.7H27
	c0.4,0,0.7-0.1,1-0.4s0.4-0.6,0.4-1V15v-0.1v-0.4c0-0.2,0-0.4,0-0.7v-0.2v-0.2v-0.1v-0.4v-0.1v-0.1C28.5,12.6,28.5,12.6,28.5,12.5z
	 M38.9,16.5c0.2,0.2,0.3,0.3,0.3,0.3c0,0.1,0,0.1-0.1,0.2c-0.2,0.2-0.6,0.3-1.3,0.3c-0.2,0-0.4,0-0.5-0.1S37.1,17,37,16.8
	s-0.2-0.3-0.2-0.3c-0.1,0-0.2,0.1-0.4,0.2c-0.6,0.4-1.1,0.6-1.6,0.6l0,0h-0.2c-0.8,0-1.3-0.3-1.6-1c-0.2-0.3-0.3-1.1-0.3-2.4
	s0-2-0.1-2.1c0-0.1-0.2-0.3-0.4-0.4c-0.2-0.1-0.4-0.2-0.4-0.3c0-0.2,0.1-0.3,0.2-0.3c0.4-0.1,0.8-0.2,1.4-0.2c0.3,0,0.5,0.1,0.6,0.4
	c0.1,0.3,0.2,1.1,0.2,2.4s0.1,2,0.2,2.3c0.2,0.5,0.5,0.7,1,0.7c0.3,0,0.5-0.1,0.8-0.2s0.5-0.3,0.6-0.5s0.2-0.8,0.2-1.8
	s0-1.6-0.1-1.9s-0.2-0.5-0.3-0.6s-0.2-0.3-0.2-0.4c0-0.2,0.5-0.3,1.6-0.3c0.2,0,0.4,0,0.4,0.1c0.1,0.1,0.1,0.3,0.1,0.5v0.4v1.8
	c0,1.2,0,1.9,0.1,2.2C38.6,16.1,38.7,16.3,38.9,16.5z M40.6,11.8c0-0.3,0.3-0.6,0.8-0.9c0.5-0.3,1.1-0.4,1.7-0.4c0,0,0,0,0.1,0
	c0.5,0,1,0.1,1.3,0.2c0.7,0.3,1,0.8,1.1,1.7c0,0.1,0,0.7,0,1.7c0,1.1,0,1.7,0.1,1.9s0.2,0.3,0.5,0.4s0.4,0.2,0.4,0.2
	c0,0.2-0.1,0.3-0.2,0.4c-0.3,0.2-0.7,0.3-1,0.3s-0.6-0.1-0.7-0.2c-0.3-0.3-0.4-0.4-0.4-0.4S44,16.8,43.5,17
	c-0.5,0.2-0.9,0.3-1.3,0.3c-0.6,0-1-0.2-1.3-0.5s-0.5-0.7-0.5-1.1v-0.2c0-0.5,0.2-0.9,0.6-1.3c0.4-0.4,1.1-0.6,2.2-0.8
	c0.4-0.1,0.6-0.1,0.7-0.2c0.2-0.1,0.3-0.4,0.3-0.8s-0.1-0.7-0.3-0.9c-0.3-0.1-0.5-0.2-0.9-0.2s-0.7,0.2-1,0.6
	c-0.3,0.4-0.6,0.6-0.9,0.6C40.8,12.5,40.6,12.3,40.6,11.8z M43.9,14L43.9,14c-0.7,0-1.2,0.1-1.6,0.4c-0.4,0.3-0.6,0.6-0.6,1v0.1
	c0,0.2,0.1,0.4,0.2,0.6c0.1,0.2,0.3,0.3,0.6,0.3h0.1h0.2c0.5,0,0.9-0.2,1.2-0.6c0.1-0.2,0.2-0.5,0.2-1v-0.1v-0.2v-0.2
	C44.2,14.2,44.1,14,43.9,14z M50.5,16.3l1-0.2c0.1,0,0.2,0.1,0.2,0.3c0,0.2-0.2,0.4-0.5,0.6c-0.4,0.2-0.7,0.3-1.1,0.3H50
	c-0.3,0-0.6-0.1-0.8-0.2s-0.4-0.4-0.5-0.6c-0.2-0.4-0.3-1.2-0.3-2.3s0-1.8-0.1-2.1c-0.1-0.3-0.2-0.5-0.3-0.6
	c-0.2-0.2-0.4-0.3-0.4-0.3c0-0.1,0.1-0.2,0.2-0.3c0.3-0.2,0.5-0.3,0.5-0.4c0,0,0.2-0.4,0.5-1.1C49,9,49.1,8.9,49.3,8.9
	s0.3,0.1,0.4,0.2c0,0,0.1,0.2,0.1,0.6s0.1,0.6,0.3,0.7c0.1,0.1,0.4,0.2,0.8,0.3c0.4,0.1,0.6,0.2,0.6,0.4s-0.2,0.3-0.6,0.4
	c-0.4,0.1-0.7,0.2-0.8,0.3c-0.2,0.2-0.2,0.9-0.2,2s0.1,1.8,0.2,2C50,16.1,50.3,16.3,50.5,16.3z M54.2,14.6c0,0.5,0.2,1,0.6,1.3
	c0.4,0.4,0.9,0.5,1.5,0.5c0.2,0,0.5,0,0.7-0.1s0.4-0.2,0.6-0.3c0.2-0.1,0.4-0.2,0.4-0.2c0.2,0,0.3,0.1,0.3,0.3c0,0.3-0.3,0.5-1,0.8
	c-0.4,0.2-0.9,0.3-1.4,0.3h-0.2c-0.9,0-1.6-0.3-2.1-0.8c-0.3-0.3-0.5-0.6-0.7-1.1c-0.2-0.4-0.3-0.9-0.3-1.4v-0.2v-0.2
	c0-0.4,0.1-0.9,0.3-1.3c0.2-0.4,0.4-0.8,0.7-1c0.6-0.6,1.3-0.9,2.1-0.9c1.2,0,2.1,0.5,2.5,1.4c0.1,0.3,0.2,0.6,0.2,0.8v0.1
	c0,0.3-0.1,0.5-0.4,0.6c-0.3,0.1-0.9,0.2-1.8,0.3c-1,0.1-1.5,0.1-1.6,0.1C54.4,14.1,54.2,14.3,54.2,14.6z M57.1,12.8v-0.2
	c0-0.3-0.1-0.6-0.4-0.9c-0.2-0.3-0.5-0.4-0.9-0.4h-0.1c-0.1,0-0.1,0-0.1,0c-0.3,0-0.6,0.2-0.9,0.5c-0.3,0.4-0.4,0.8-0.4,1.2v0.1
	c0,0.1,0.1,0.2,0.3,0.2c0.1,0,0.1,0,0.1,0h0.2l0,0l0,0l1.3-0.1h0.2C56.8,13.2,57.1,13,57.1,12.8z M3.9,25.1c-0.5,0-0.8,0.1-1.1,0.4
	c-0.3,0.2-0.4,0.6-0.4,1s0.2,0.8,0.7,1.2c0.3,0.2,0.8,0.5,1.6,0.8s1.4,0.7,1.7,1c0.6,0.6,0.9,1.2,0.9,1.8v0.2c0,0.8-0.3,1.4-0.9,1.8
	c-0.3,0.2-0.6,0.4-1,0.5S4.6,34,4.2,34H3.8c-0.9,0-1.8-0.1-2.5-0.4c-0.3-0.1-0.5-0.5-0.5-1v-0.2c0-0.7,0.1-1,0.3-1s0.4,0.2,0.6,0.6
	s0.6,0.8,0.9,1s0.9,0.3,1.5,0.3s0.9-0.1,1.2-0.4c0.3-0.3,0.5-0.6,0.5-1c0-0.5-0.3-1-0.8-1.4c-0.2-0.2-0.8-0.4-1.6-0.8
	c-0.9-0.4-1.5-0.8-1.8-1.1c-0.5-0.5-0.7-1.1-0.7-1.7s0.2-1.3,0.7-1.7c0.3-0.3,0.6-0.4,1-0.6c0.4-0.1,0.8-0.2,1.2-0.2h0.3
	c0.2,0,0.4,0,0.7,0.1H5c0.3,0.1,0.4,0.1,0.5,0.1h0.2h0.2c0.2,0,0.3,0,0.4,0.1c0.3,0.1,0.4,0.5,0.4,1.1s-0.1,1-0.4,1
	c-0.1,0-0.3-0.2-0.6-0.5S5.2,25.7,5,25.6C4.8,25.3,4.4,25.1,3.9,25.1z M13.5,29.3c-0.2,0-0.5-0.2-0.8-0.6s-0.7-0.6-1.2-0.6
	s-0.8,0.2-1.1,0.7c-0.3,0.4-0.5,1.1-0.5,1.9c0,0.8,0.2,1.4,0.6,1.9c0.4,0.5,0.9,0.7,1.5,0.7c0.3,0,0.6,0,0.8-0.1s0.4-0.2,0.6-0.3
	c0.2-0.1,0.3-0.1,0.4-0.1c0.1,0,0.2,0.1,0.2,0.3c0,0.3-0.3,0.5-0.8,0.8s-1.1,0.4-1.6,0.4c-1,0-1.8-0.3-2.4-0.9
	c-0.2-0.3-0.4-0.6-0.6-1c-0.2-0.4-0.2-0.8-0.2-1.3v-0.3l0,0l0,0c0-0.4,0.1-0.8,0.3-1.2c0.4-0.8,0.9-1.4,1.7-1.7
	c0.5-0.2,0.9-0.3,1.3-0.3h0.2c0.6,0,1.1,0.1,1.6,0.3c0.3,0.2,0.5,0.5,0.5,0.9c0,0.3-0.1,0.5-0.2,0.6C13.7,29.2,13.6,29.3,13.5,29.3z
	 M15.2,33.6c0-0.1,0.1-0.2,0.3-0.4s0.3-0.4,0.4-0.7C16,32.2,16,31.1,16,29s0-3.4-0.1-3.8c0-0.2-0.1-0.4-0.3-0.5
	c-0.3-0.2-0.4-0.3-0.4-0.3c0-0.2,0.1-0.3,0.3-0.4c0.3-0.1,0.7-0.2,1.2-0.2h0.2c0.2,0,0.4,0.1,0.4,0.3s0.1,0.5,0.1,1.1v0.3
	c0,0.2,0,0.3,0,0.5v0.5c0,0.2,0,0.3,0,0.5c0,0.6,0.1,0.9,0.3,0.9c0,0,0.1-0.1,0.3-0.1c0.6-0.3,1.2-0.4,1.6-0.4c0.8,0,1.4,0.3,1.7,1
	c0.2,0.4,0.3,1.5,0.3,3.2c0,0.7,0,1.1,0.1,1.2c0,0.2,0.2,0.3,0.4,0.5s0.3,0.3,0.3,0.3c0,0.1-0.1,0.2-0.3,0.3S21.4,34,20.7,34h-0.2
	c-0.5,0-0.7-0.1-0.7-0.3c0,0,0.1-0.2,0.2-0.3c0.1-0.2,0.2-0.4,0.2-0.6s0.1-0.8,0.1-1.8s0-1.6-0.1-1.9c-0.3-0.4-0.7-0.7-1-0.8
	c-0.5,0-0.9,0.2-1.3,0.6c-0.2,0.3-0.3,0.9-0.3,1.9c0,1,0,1.6,0.1,1.9c0,0.3,0.1,0.5,0.3,0.7c0.2,0.2,0.2,0.3,0.2,0.4
	c0,0.2-0.5,0.2-1.4,0.2S15.2,33.9,15.2,33.6z M30,30.5v0.3c0,0.4-0.1,0.8-0.2,1.2c-0.3,0.9-0.9,1.5-1.8,1.9
	c-0.4,0.2-0.8,0.2-1.1,0.2h-0.2c-0.9,0-1.6-0.3-2.2-0.9c-0.3-0.3-0.5-0.6-0.6-1s-0.2-0.9-0.2-1.4v-0.1c0-0.4,0.1-0.9,0.2-1.3
	c0.3-0.9,0.9-1.5,1.8-1.8c0.4-0.2,0.8-0.2,1.1-0.2H27c0.4,0,0.8,0.1,1.2,0.3c0.7,0.3,1.3,0.9,1.6,1.7C29.9,29.7,30,30.1,30,30.5z
	 M25,30.5v0.3c0,0.8,0.2,1.4,0.5,1.9c0.1,0.2,0.3,0.4,0.5,0.6s0.4,0.2,0.7,0.2h0.1c0.4,0,0.8-0.2,1.1-0.6c0.3-0.4,0.5-1,0.5-1.7
	v-0.5c0-0.7-0.2-1.4-0.5-1.9S27.2,28,26.7,28h-0.2c-0.4,0-0.8,0.2-1.1,0.7S25,29.7,25,30.5z M37.7,30.5v0.3c0,0.4-0.1,0.8-0.2,1.2
	c-0.3,0.9-0.9,1.5-1.8,1.9c-0.4,0.2-0.8,0.2-1.1,0.2h-0.2c-0.9,0-1.6-0.3-2.2-0.9c-0.3-0.3-0.5-0.6-0.6-1s-0.2-0.9-0.2-1.4v-0.1
	c0-0.4,0.1-0.9,0.2-1.3c0.3-0.9,0.9-1.5,1.8-1.8c0.4-0.2,0.8-0.2,1.1-0.2h0.3c0.4,0,0.8,0.1,1.2,0.3c0.7,0.3,1.3,0.9,1.6,1.7
	C37.6,29.7,37.7,30.1,37.7,30.5z M32.7,30.5v0.3c0,0.8,0.2,1.4,0.5,1.9c0.1,0.2,0.3,0.4,0.5,0.6s0.4,0.2,0.7,0.2h0.1
	c0.4,0,0.8-0.2,1.1-0.6c0.3-0.4,0.5-1,0.5-1.7v-0.5c0-0.7-0.2-1.4-0.5-1.9S34.9,28,34.4,28h-0.2c-0.4,0-0.8,0.2-1.1,0.7
	S32.7,29.7,32.7,30.5z M38.8,33.8c0-0.1,0.1-0.2,0.3-0.4s0.3-0.4,0.4-0.7c0.1-0.3,0.1-1.5,0.1-3.7s0-3.3-0.1-3.6s-0.2-0.5-0.4-0.6
	c-0.3-0.2-0.5-0.3-0.5-0.4v-0.1c0-0.1,0.1-0.1,0.2-0.2c0.4-0.2,1-0.3,1.6-0.3h0.1c0.2,0,0.4,0.2,0.4,0.5c0,0,0,0.4,0,1v1.5v0.3v0.4
	v0.3V30c0,1.3,0,2.2,0.1,2.5c0,0.3,0.1,0.6,0.3,0.7c0,0,0.1,0.1,0.3,0.2c0.2,0.1,0.3,0.2,0.3,0.3c0,0.2-0.3,0.2-0.8,0.2h-0.3h-0.3
	h-1.1h-0.1C39,34,38.8,33.9,38.8,33.8z M7.1,47.3v0.3c0,0.4-0.1,0.8-0.2,1.2c-0.4,0.9-1,1.5-1.9,1.9c-0.4,0.2-0.8,0.2-1.1,0.2H3.6
	c-0.9,0-1.6-0.3-2.2-0.9c-0.3-0.3-0.5-0.6-0.6-1s-0.2-0.9-0.2-1.4v-0.1c0-0.4,0.1-0.9,0.2-1.3c0.3-0.9,0.9-1.5,1.8-1.9
	c0.4-0.2,0.8-0.2,1.1-0.2H4c0.4,0,0.8,0.1,1.2,0.3C6,44.7,6.5,45.3,6.8,46C7,46.5,7.1,46.9,7.1,47.3z M2.1,47.3v0.3
	c0,0.8,0.2,1.4,0.5,1.9c0.1,0.2,0.3,0.4,0.5,0.6s0.4,0.2,0.7,0.2h0.1c0.4,0,0.8-0.2,1.1-0.6c0.3-0.4,0.5-1,0.5-1.7v-0.5
	c0-0.7-0.2-1.4-0.5-1.9s-0.7-0.8-1.2-0.8H3.6c-0.4,0-0.8,0.2-1.1,0.7S2.1,46.5,2.1,47.3z M10.7,51h-0.4c-1.3,0-2-0.1-2-0.3
	c0-0.1,0.1-0.2,0.3-0.4S9,50,9,49.7c0.1-0.2,0.1-1,0.1-2.1s0-1.8-0.1-2s-0.1-0.3-0.3-0.4S8.4,45,8.4,44.9s0.1-0.3,0.3-0.5
	c0.2-0.3,0.3-0.6,0.4-0.9c0.2-0.9,0.5-1.5,0.9-1.9c0.5-0.5,1.1-0.8,2-0.8c0.4,0,0.7,0.1,1,0.2c0.2,0.1,0.4,0.3,0.4,0.6
	s-0.1,0.4-0.2,0.5s-0.2,0.2-0.4,0.2s-0.4-0.1-0.7-0.2s-0.5-0.2-0.7-0.2c-0.3,0-0.4,0.2-0.6,0.5c-0.1,0.3-0.2,0.7-0.2,1
	s0.1,0.6,0.2,0.8c0.1,0.1,0.3,0.2,0.6,0.4c0.4,0.2,0.5,0.3,0.5,0.5c0,0.1-0.2,0.2-0.5,0.3c-0.4,0.1-0.6,0.2-0.7,0.4
	c-0.1,0.2-0.2,0.9-0.2,2.1c0,1.2,0,1.9,0.1,2.1s0.2,0.4,0.5,0.6s0.4,0.3,0.4,0.4C11.6,50.9,11.3,51,10.7,51z M0.2,67.2
	c0-0.1,0.1-0.2,0.4-0.4c0.3-0.2,0.5-0.3,0.6-0.6c0.1-0.3,0.3-0.7,0.5-1.3c0.2-0.6,0.5-1.4,0.9-2.3s0.7-1.8,0.9-2.5s0.4-1.2,0.5-1.4
	C4.2,58.3,4.5,58,4.8,58H5c0.1,0,0.2,0,0.3,0.1c0.3,0.2,0.5,0.6,0.8,1.3c0.1,0.2,0.2,0.6,0.4,1.1c0.2,0.5,0.6,1.6,1.1,3.1
	c0.5,1.5,0.9,2.4,1,2.5c0.1,0.2,0.3,0.4,0.6,0.6C9.5,66.8,9.6,67,9.6,67c0,0.2-0.1,0.3-0.3,0.4c-0.2,0-0.5,0-1.2,0H7.7
	c-0.8,0-1.3-0.1-1.3-0.3c0,0,0.1-0.1,0.2-0.3c0.1-0.2,0.2-0.4,0.2-0.6s-0.1-0.6-0.3-1c-0.2-0.4-0.3-0.6-0.5-0.7s-0.6-0.2-1.5-0.2
	s-1.4,0-1.5,0.1c-0.1,0.1-0.3,0.5-0.4,0.9c-0.1,0.4-0.3,0.8-0.3,1c0,0.3,0.1,0.5,0.2,0.7s0.3,0.3,0.3,0.3c0,0.2-0.3,0.2-0.8,0.2
	s-1,0-1.3-0.1C0.3,67.5,0.2,67.3,0.2,67.2z M5.9,63.5L5.9,63.5c0-0.5-0.4-1.5-1.1-3.3c-0.1-0.3-0.2-0.4-0.2-0.4l-0.2,0.5
	c-0.8,1.8-1.1,2.8-1.1,3.2c0,0.1,0,0.1,0.1,0.1s0.1,0,0.2,0h0.5h0.5l0,0C5.4,63.6,5.9,63.6,5.9,63.5z M16.9,61.3
	c0,0.3-0.2,0.4-0.5,0.5s-0.5,0.2-0.5,0.4v0.1v0.2v0.2c0,0.2,0,0.4,0,0.6s-0.1,0.6-0.2,0.8c-0.4,0.8-1.3,1.2-2.5,1.3
	c-0.4,0-0.6,0.1-0.8,0.1C12.2,65.6,12,65.7,12,66s0.2,0.4,0.5,0.5c0.1,0,0.5,0.1,1.4,0.1c0.9,0.1,1.4,0.2,1.7,0.3
	c0.6,0.3,0.9,0.7,0.9,1.3c0,0.7-0.3,1.4-1,1.8c-0.7,0.4-1.5,0.7-2.6,0.7c-0.8,0-1.4-0.1-1.9-0.4c-0.2-0.1-0.4-0.3-0.6-0.5
	c-0.1-0.2-0.2-0.4-0.2-0.7c0-0.4,0.1-0.7,0.4-1c0.4-0.4,0.6-0.7,0.6-0.7s-0.1-0.1-0.3-0.4s-0.3-0.4-0.3-0.7c0-0.3,0.1-0.5,0.3-0.8
	s0.3-0.4,0.3-0.5c0-0.1-0.1-0.3-0.4-0.7c-0.3-0.4-0.4-0.8-0.4-1.2s0.1-0.7,0.3-1c0.5-0.9,1.4-1.3,2.7-1.3h0.2l1,0.1h0.3
	c0.1,0,0.2,0,0.4,0H16C16.7,61,16.9,61.1,16.9,61.3z M12.7,67.4c-0.3,0-0.6,0.1-0.8,0.3c-0.2,0.2-0.3,0.5-0.3,0.8v0.1
	c0,0.4,0.2,0.7,0.5,0.9c0.3,0.2,0.7,0.3,1.3,0.3h0.2c0.6,0,1.2-0.1,1.5-0.4s0.6-0.6,0.6-1v-0.1c0-0.3-0.1-0.5-0.3-0.6
	c-0.2-0.2-0.5-0.2-0.8-0.2c-0.2,0-0.3,0-0.4,0H14h-0.1h-0.4h-0.3h-0.5V67.4z M13.3,61.4h-0.2c-0.2,0-0.5,0.1-0.7,0.4s-0.3,0.6-0.3,1
	v0.1v0.2v0.2v0.1c0,0.5,0.1,0.9,0.3,1.1s0.5,0.4,0.9,0.4l0,0c0.3,0,0.6-0.1,0.8-0.4s0.3-0.6,0.3-1v-0.3c0-0.1,0-0.2,0-0.3
	c0-0.4-0.1-0.8-0.4-1.1S13.6,61.4,13.3,61.4z M21.4,67.3c0,0.2-0.4,0.3-1.2,0.3h-0.7h-0.3h-0.4c-0.5,0-0.7-0.1-0.7-0.3
	c0-0.1,0.1-0.3,0.3-0.4c0.2-0.1,0.4-0.3,0.4-0.5c0.1-0.2,0.1-0.9,0.1-2c0-1.1,0-1.7-0.1-2s-0.2-0.4-0.3-0.5
	c-0.3-0.2-0.4-0.3-0.4-0.4s0-0.2,0.1-0.2c0.3-0.2,0.8-0.3,1.4-0.3h0.1c0.3,0,0.4,0.1,0.6,0.4c0.1,0.3,0.2,0.4,0.3,0.4
	s0.2-0.1,0.4-0.2s0.4-0.3,0.6-0.4s0.5-0.2,0.8-0.2s0.5,0.1,0.7,0.2c0.2,0.1,0.2,0.3,0.2,0.6c0,0.2-0.1,0.4-0.2,0.5
	c-0.1,0.1-0.2,0.2-0.4,0.2s-0.3-0.1-0.5-0.2c-0.2-0.1-0.4-0.2-0.6-0.2s-0.4,0.2-0.6,0.3s-0.3,0.3-0.5,0.7c-0.1,0.3-0.2,0.9-0.2,1.6
	c0,0.8,0.1,1.3,0.2,1.5s0.3,0.4,0.5,0.6S21.4,67.2,21.4,67.3z M24.4,61.9c-0.2-0.1-0.4-0.2-0.4-0.3s0-0.2,0.1-0.2
	c0.3-0.2,0.9-0.3,1.6-0.3H26c0.2,0,0.4,0.1,0.4,0.3c0,0.1,0,1,0,2.5c0,1.5,0,2.4,0.1,2.6s0.2,0.4,0.5,0.5c0.2,0.1,0.4,0.2,0.4,0.4
	s-0.6,0.3-1.7,0.3h-0.2h-0.8c-0.3,0-0.5-0.1-0.5-0.2c0-0.1,0.1-0.3,0.3-0.4c0.2-0.1,0.3-0.3,0.4-0.4c0.1-0.2,0.1-0.6,0.1-1.2v-0.2
	v-0.2v-0.3v-0.2v-0.2c0-1.1,0-1.7-0.1-1.9C24.8,62.1,24.7,62,24.4,61.9z M26.6,58.8c0,0.2-0.1,0.4-0.3,0.6c-0.2,0.2-0.3,0.3-0.5,0.3
	h-0.1h-0.2c-0.2,0-0.4-0.1-0.6-0.2s-0.3-0.3-0.3-0.6v-0.1c0-0.2,0.1-0.4,0.3-0.6c0.2-0.2,0.4-0.2,0.7-0.2l0,0h0.2
	c0.1,0,0.3,0.1,0.4,0.2c0.2,0.2,0.2,0.3,0.2,0.5v0.1l0,0H26.6z M33.5,62.9c-0.2,0-0.5-0.2-0.8-0.6s-0.7-0.6-1.2-0.6
	s-0.8,0.2-1.1,0.7c-0.3,0.4-0.5,1.1-0.5,1.9c0,0.8,0.2,1.4,0.6,1.9s0.9,0.7,1.5,0.7c0.3,0,0.6,0,0.8-0.1c0.2-0.1,0.4-0.2,0.6-0.3
	c0.2-0.1,0.3-0.1,0.4-0.1c0.1,0,0.2,0.1,0.2,0.3c0,0.3-0.3,0.5-0.8,0.8s-1.1,0.4-1.6,0.4c-1,0-1.8-0.3-2.4-0.9
	c-0.2-0.3-0.4-0.6-0.6-1c-0.2-0.4-0.2-0.8-0.2-1.3v-0.3l0,0l0,0c0-0.4,0.1-0.8,0.3-1.2c0.4-0.8,0.9-1.4,1.7-1.7
	c0.5-0.2,0.9-0.3,1.3-0.3h0.2c0.6,0,1.1,0.1,1.6,0.3c0.3,0.2,0.5,0.5,0.5,0.9c0,0.3-0.1,0.5-0.2,0.6C33.7,62.9,33.6,62.9,33.5,62.9z
	 M42,66.9c0.2,0.2,0.3,0.3,0.3,0.3c0,0.1,0,0.1-0.1,0.2c-0.2,0.2-0.6,0.3-1.3,0.3c-0.2,0-0.4,0-0.5-0.1c-0.1-0.1-0.2-0.2-0.3-0.4
	C40,67,40,66.9,40,66.9c-0.1,0-0.2,0.1-0.4,0.2c-0.6,0.4-1.1,0.6-1.6,0.6l0,0h-0.2c-0.8,0-1.3-0.3-1.6-1c-0.2-0.3-0.3-1.1-0.3-2.4
	c0-1.3,0-2-0.1-2.1c0-0.1-0.2-0.3-0.4-0.4c-0.2-0.1-0.4-0.2-0.4-0.3c0-0.2,0.1-0.3,0.2-0.3c0.4-0.1,0.8-0.2,1.4-0.2
	c0.3,0,0.5,0.1,0.6,0.4c0.1,0.3,0.2,1.1,0.2,2.4c0,1.3,0.1,2,0.2,2.3c0.2,0.5,0.5,0.7,1,0.7c0.3,0,0.5-0.1,0.8-0.2
	c0.3-0.1,0.5-0.3,0.6-0.5s0.2-0.8,0.2-1.8c0-1,0-1.6-0.1-1.9s-0.2-0.5-0.3-0.6s-0.2-0.3-0.2-0.4c0-0.2,0.5-0.3,1.6-0.3
	c0.2,0,0.4,0,0.4,0.1c0.1,0.1,0.1,0.3,0.1,0.5v0.4v1.8c0,1.2,0,1.9,0.1,2.2C41.7,66.5,41.8,66.7,42,66.9z M43.4,67.4
	c0-0.1,0.1-0.2,0.3-0.4s0.3-0.4,0.4-0.7c0.1-0.3,0.1-1.5,0.1-3.7c0-2.2,0-3.3-0.1-3.6s-0.2-0.5-0.4-0.6c-0.3-0.2-0.5-0.3-0.5-0.4
	v-0.1c0-0.1,0.1-0.1,0.2-0.2c0.4-0.2,1-0.3,1.6-0.3h0.1c0.2,0,0.4,0.2,0.4,0.5c0,0,0,0.4,0,1v1.5v0.3v0.4v0.3v2.2
	c0,1.3,0,2.2,0.1,2.5c0,0.3,0.1,0.6,0.3,0.7c0,0,0.1,0.1,0.3,0.2c0.2,0.1,0.3,0.2,0.3,0.3c0,0.2-0.3,0.2-0.8,0.2h-0.3h-0.3H44l0,0
	C43.6,67.6,43.4,67.5,43.4,67.4z M50.6,66.7l1-0.2c0.1,0,0.2,0.1,0.2,0.3s-0.2,0.4-0.5,0.6c-0.4,0.2-0.7,0.3-1.1,0.3h-0.1
	c-0.3,0-0.6-0.1-0.8-0.2c-0.2-0.1-0.4-0.4-0.5-0.6c-0.2-0.4-0.3-1.2-0.3-2.3c0-1.1,0-1.8-0.1-2.1c-0.1-0.3-0.2-0.5-0.3-0.6
	c-0.2-0.2-0.4-0.3-0.4-0.3c0-0.1,0.1-0.2,0.2-0.3c0.3-0.2,0.5-0.3,0.5-0.4c0,0,0.2-0.4,0.5-1.1c0.2-0.4,0.3-0.5,0.5-0.5
	s0.3,0.1,0.4,0.2c0,0,0.1,0.2,0.1,0.6s0.1,0.6,0.3,0.7c0.1,0.1,0.4,0.2,0.8,0.3c0.4,0.1,0.6,0.2,0.6,0.4s-0.2,0.3-0.6,0.4
	c-0.4,0.1-0.7,0.2-0.8,0.3c-0.2,0.2-0.2,0.9-0.2,2c0,1.1,0.1,1.8,0.2,2C50.1,66.5,50.4,66.7,50.6,66.7z M59.8,66.9
	c0.2,0.2,0.3,0.3,0.3,0.3c0,0.1,0,0.1-0.1,0.2c-0.2,0.2-0.6,0.3-1.3,0.3c-0.2,0-0.4,0-0.5-0.1c-0.1-0.1-0.2-0.2-0.3-0.4
	c-0.1-0.2-0.2-0.3-0.2-0.3c-0.1,0-0.2,0.1-0.4,0.2c-0.6,0.4-1.1,0.6-1.6,0.6l0,0h-0.2c-0.8,0-1.3-0.3-1.6-1
	c-0.2-0.3-0.3-1.1-0.3-2.4c0-1.3,0-2-0.1-2.1c0-0.1-0.2-0.3-0.4-0.4c-0.2-0.1-0.4-0.2-0.4-0.3c0-0.2,0.1-0.3,0.2-0.3
	c0.4-0.1,0.8-0.2,1.4-0.2c0.3,0,0.5,0.1,0.6,0.4c0.1,0.3,0.2,1.1,0.2,2.4c0,1.3,0.1,2,0.2,2.3c0.2,0.5,0.5,0.7,1,0.7
	c0.3,0,0.5-0.1,0.8-0.2c0.3-0.1,0.5-0.3,0.6-0.5s0.2-0.8,0.2-1.8c0-1,0-1.6-0.1-1.9c-0.1-0.3-0.2-0.5-0.3-0.6s-0.2-0.3-0.2-0.4
	c0-0.2,0.5-0.3,1.6-0.3c0.2,0,0.4,0,0.4,0.1c0.1,0.1,0.1,0.3,0.1,0.5v0.4v1.8c0,1.2,0,1.9,0.1,2.2C59.4,66.5,59.6,66.7,59.8,66.9z
	 M64.6,67.3c0,0.2-0.4,0.3-1.2,0.3h-0.7h-0.3H62c-0.5,0-0.7-0.1-0.7-0.3c0-0.1,0.1-0.3,0.3-0.4c0.2-0.1,0.4-0.3,0.4-0.5
	c0.1-0.2,0.1-0.9,0.1-2c0-1.1,0-1.7-0.1-2c-0.1-0.2-0.2-0.4-0.3-0.5c-0.3-0.2-0.4-0.3-0.4-0.4s0-0.2,0.1-0.2
	c0.3-0.2,0.8-0.3,1.4-0.3h0.1c0.3,0,0.4,0.1,0.6,0.4c0.1,0.3,0.2,0.4,0.3,0.4s0.2-0.1,0.4-0.2c0.2-0.1,0.4-0.3,0.6-0.4
	c0.2-0.1,0.5-0.2,0.8-0.2s0.5,0.1,0.7,0.2c0.2,0.1,0.2,0.3,0.2,0.6c0,0.2-0.1,0.4-0.2,0.5c-0.1,0.1-0.2,0.2-0.4,0.2
	s-0.3-0.1-0.5-0.2c-0.2-0.1-0.4-0.2-0.6-0.2s-0.3,0.1-0.5,0.2S64,62.6,63.8,63c-0.1,0.3-0.2,0.9-0.2,1.6c0,0.8,0.1,1.3,0.2,1.5
	c0.1,0.2,0.3,0.4,0.5,0.6C64.5,67.1,64.6,67.2,64.6,67.3z M68.7,65c0,0.5,0.2,1,0.6,1.3c0.4,0.4,0.9,0.5,1.5,0.5
	c0.2,0,0.5,0,0.7-0.1c0.2-0.1,0.4-0.2,0.6-0.3c0.2-0.1,0.4-0.2,0.4-0.2c0.2,0,0.3,0.1,0.3,0.3c0,0.3-0.3,0.5-1,0.8
	c-0.4,0.2-0.9,0.3-1.4,0.3h-0.2c-0.9,0-1.6-0.3-2.1-0.8c-0.3-0.3-0.5-0.6-0.7-1.1c-0.2-0.4-0.3-0.9-0.3-1.4v-0.2v-0.2
	c0-0.4,0.1-0.9,0.3-1.3c0.2-0.4,0.4-0.8,0.7-1c0.6-0.6,1.3-0.9,2.1-0.9c1.2,0,2.1,0.5,2.5,1.4c0.1,0.3,0.2,0.6,0.2,0.8v0.4
	c0,0.3-0.1,0.5-0.4,0.6s-0.9,0.2-1.8,0.3c-1,0.1-1.5,0.1-1.6,0.1C68.8,64.5,68.7,64.7,68.7,65z M71.5,63.2V63c0-0.3-0.1-0.6-0.4-0.9
	c-0.2-0.3-0.5-0.4-0.9-0.4h-0.1c-0.1,0-0.1,0-0.1,0c-0.3,0-0.6,0.2-0.9,0.5c-0.3,0.4-0.4,0.8-0.4,1.2v0.1c0,0.1,0.1,0.2,0.3,0.2
	c0.1,0,0.1,0,0.1,0h0.2l0,0l0,0l1.3-0.1h0.2C71.3,63.6,71.5,63.4,71.5,63.2z"/>
</svg>
