<?xml version="1.0" encoding="utf-8"?>
<!-- Generator: Adobe Illustrator 22.1.0, SVG Export Plug-In . SVG Version: 6.00 Build 0)  -->
<svg version="1.1" id="レイヤー_1" xmlns="http://www.w3.org/2000/svg" xmlns:xlink="http://www.w3.org/1999/xlink" x="0px"
	 y="0px" viewBox="0 0 512 512" style="enable-background:new 0 0 512 512;" xml:space="preserve">
<style type="text/css">
	.st0{display:none;}
	.st1{display:inline;opacity:0.3;fill:none;stroke:#449FDB;enable-background:new    ;}
	.st2{display:inline;fill:none;stroke:#449FDB;}
	.st3{fill:#F3D924;}
</style>
<title></title>
<g id="icomoon-ignore" class="st0">
	<line class="st1" x1="16" y1="0" x2="16" y2="512"/>
	<line class="st2" x1="32" y1="0" x2="32" y2="512"/>
	<line class="st1" x1="48" y1="0" x2="48" y2="512"/>
	<line class="st2" x1="64" y1="0" x2="64" y2="512"/>
	<line class="st1" x1="80" y1="0" x2="80" y2="512"/>
	<line class="st2" x1="96" y1="0" x2="96" y2="512"/>
	<line class="st1" x1="112" y1="0" x2="112" y2="512"/>
	<line class="st2" x1="128" y1="0" x2="128" y2="512"/>
	<line class="st1" x1="144" y1="0" x2="144" y2="512"/>
	<line class="st2" x1="160" y1="0" x2="160" y2="512"/>
	<line class="st1" x1="176" y1="0" x2="176" y2="512"/>
	<line class="st2" x1="192" y1="0" x2="192" y2="512"/>
	<line class="st1" x1="208" y1="0" x2="208" y2="512"/>
	<line class="st2" x1="224" y1="0" x2="224" y2="512"/>
	<line class="st1" x1="240" y1="0" x2="240" y2="512"/>
	<line class="st2" x1="256" y1="0" x2="256" y2="512"/>
	<line class="st1" x1="272" y1="0" x2="272" y2="512"/>
	<line class="st2" x1="288" y1="0" x2="288" y2="512"/>
	<line class="st1" x1="304" y1="0" x2="304" y2="512"/>
	<line class="st2" x1="320" y1="0" x2="320" y2="512"/>
	<line class="st1" x1="336" y1="0" x2="336" y2="512"/>
	<line class="st2" x1="352" y1="0" x2="352" y2="512"/>
	<line class="st1" x1="368" y1="0" x2="368" y2="512"/>
	<line class="st2" x1="384" y1="0" x2="384" y2="512"/>
	<line class="st1" x1="400" y1="0" x2="400" y2="512"/>
	<line class="st2" x1="416" y1="0" x2="416" y2="512"/>
	<line class="st1" x1="432" y1="0" x2="432" y2="512"/>
	<line class="st2" x1="448" y1="0" x2="448" y2="512"/>
	<line class="st1" x1="464" y1="0" x2="464" y2="512"/>
	<line class="st2" x1="480" y1="0" x2="480" y2="512"/>
	<line class="st1" x1="496" y1="0" x2="496" y2="512"/>
	<line class="st1" x1="0" y1="16" x2="512" y2="16"/>
	<line class="st2" x1="0" y1="32" x2="512" y2="32"/>
	<line class="st1" x1="0" y1="48" x2="512" y2="48"/>
	<line class="st2" x1="0" y1="64" x2="512" y2="64"/>
	<line class="st1" x1="0" y1="80" x2="512" y2="80"/>
	<line class="st2" x1="0" y1="96" x2="512" y2="96"/>
	<line class="st1" x1="0" y1="112" x2="512" y2="112"/>
	<line class="st2" x1="0" y1="128" x2="512" y2="128"/>
	<line class="st1" x1="0" y1="144" x2="512" y2="144"/>
	<line class="st2" x1="0" y1="160" x2="512" y2="160"/>
	<line class="st1" x1="0" y1="176" x2="512" y2="176"/>
	<line class="st2" x1="0" y1="192" x2="512" y2="192"/>
	<line class="st1" x1="0" y1="208" x2="512" y2="208"/>
	<line class="st2" x1="0" y1="224" x2="512" y2="224"/>
	<line class="st1" x1="0" y1="240" x2="512" y2="240"/>
	<line class="st2" x1="0" y1="256" x2="512" y2="256"/>
	<line class="st1" x1="0" y1="272" x2="512" y2="272"/>
	<line class="st2" x1="0" y1="288" x2="512" y2="288"/>
	<line class="st1" x1="0" y1="304" x2="512" y2="304"/>
	<line class="st2" x1="0" y1="320" x2="512" y2="320"/>
	<line class="st1" x1="0" y1="336" x2="512" y2="336"/>
	<line class="st2" x1="0" y1="352" x2="512" y2="352"/>
	<line class="st1" x1="0" y1="368" x2="512" y2="368"/>
	<line class="st2" x1="0" y1="384" x2="512" y2="384"/>
	<line class="st1" x1="0" y1="400" x2="512" y2="400"/>
	<line class="st2" x1="0" y1="416" x2="512" y2="416"/>
	<line class="st1" x1="0" y1="432" x2="512" y2="432"/>
	<line class="st2" x1="0" y1="448" x2="512" y2="448"/>
	<line class="st1" x1="0" y1="464" x2="512" y2="464"/>
	<line class="st2" x1="0" y1="480" x2="512" y2="480"/>
	<line class="st1" x1="0" y1="496" x2="512" y2="496"/>
</g>
<path class="st3" d="M222.4,375.4c-0.2-0.1-0.4-0.2-0.4-0.5c-0.1-0.3-0.2-1.4-0.3-3.2c-0.1-1.2-0.1-3.4-0.1-6.5V362
	c0.1-5.2,0.1-8.5,0.1-9.7c0-0.3,0.1-1,0.1-2.2s0.1-1.8,0.1-2l-0.5-0.4c-3.2,1.2-5.6,2.1-7.1,2.6s-3.6,1.1-6.1,1.9v0.1
	c0.1,0.4,0.1,0.9,0.2,1.4c0.1,0.6,0.1,1.1,0.1,1.4l0.2,0.1c0.8-0.4,2.6-1.2,5.6-2.5c0.6-0.2,0.9-0.4,1-0.4s0.2,0,0.4,0.2
	s0.1,0.5,0.1,0.9l0.1,1.9c0.1,2.1,0.1,4,0.1,5.9v5.2c0,3.9-0.1,6.4-0.2,7.5c-0.1,0.6-0.2,1-0.4,1.2s-0.6,0.4-0.9,0.4l-4.1,0.5v1.8
	c4.8-0.1,7.8-0.1,9.1-0.1c1.9,0,4.4,0,7.6,0.1V376c-0.4,0-0.9-0.1-1.4-0.1C223.8,375.7,222.8,375.5,222.4,375.4L222.4,375.4z
	 M249.4,349.9c-1.4-1.1-3.1-1.6-5.4-1.6c-2.8,0-5.1,1-6.9,2.9s-2.7,4.5-2.7,7.8c0,2.6,0.6,4.7,1.9,6.1c1.3,1.5,2.9,2.1,4.7,2.1
	c1.1,0,2.1-0.1,3.1-0.5c0.3-0.1,0.6-0.3,0.8-0.5c0.5-0.4,1.4-1.2,2.9-2.5c-0.2,2.3-0.5,4-0.8,5c-0.4,1.5-1.1,2.8-1.9,3.9
	s-1.8,2.1-3.1,2.8c-1.2,0.7-2.6,1-4.1,1c-0.6,0-1.1-0.1-1.6-0.2l-0.5,0.9l1.7,1.4c2.1,0,4.1-0.4,5.9-1.2s3.5-2,5-3.5
	c1.6-1.5,2.8-3.3,3.6-5.5c0.9-2.1,1.4-4.7,1.4-7.8c0-2.6-0.4-4.8-1-6.5C251.8,352.3,250.8,350.9,249.4,349.9L249.4,349.9z
	 M247.5,361.2c-0.2,0.6-0.8,1.2-1.4,1.5c-0.6,0.4-1.3,0.6-2,0.6c-0.8,0-1.5-0.2-2.1-0.7c-0.7-0.5-1.2-1.2-1.6-2.2s-0.6-2.3-0.6-3.9
	c0-2.2,0.4-3.8,1.1-4.6c0.7-1,1.6-1.4,2.8-1.4c1.4,0,2.5,0.7,3.2,2s1.1,3.2,1.1,5.7C248,359.5,247.8,360.5,247.5,361.2L247.5,361.2z
	 M280.4,372.4c-1.5,0.1-2.8,0.1-3.8,0.1c-3.2,0-5.1,0.1-5.7,0.1h-3.8v-0.2c1.4-1.2,2.6-2.5,3.9-3.7l2.2-2.2l2.4-2.5
	c0.7-0.8,1.3-1.6,2-2.6c0.6-1,1-1.9,1.3-2.7s0.4-1.6,0.4-2.5c0-1.4-0.3-2.6-1-3.9s-1.6-2.2-3-3c-1.3-0.7-3-1-5.2-1
	c-1.5,0-2.9,0.2-4.1,0.7s-2.3,1.1-3.2,2.1c-0.1,0.9-0.1,1.6-0.2,2.4l-0.5,5h1.6c0.4-1.4,0.6-2.6,0.9-3.5c0.5-0.7,1.1-1.2,1.9-1.5
	c0.8-0.4,1.5-0.5,2.4-0.5c1.5,0,2.6,0.5,3.5,1.3c0.9,0.9,1.3,2.1,1.3,3.9c0,0.9-0.1,1.6-0.4,2.5c-0.2,0.8-0.6,1.7-1.2,2.7
	c-0.5,1-1.4,2.1-2.4,3.3s-2.5,2.8-4.6,5l-4,4v2.2l10-0.1c0.6,0,1.6,0,3.1,0l6.4,0.1l0.1-0.2c0-0.8-0.1-1.4-0.1-1.8
	c0-0.8,0-1.8,0.1-3L280.4,372.4L280.4,372.4z M300.5,359.5c-0.7,0-1.4,0.1-2.1,0.2c-0.7,0.2-1.2,0.4-1.5,0.5
	c-0.4,0.2-1.4,1.1-3.1,2.8c0.2-2.3,0.5-4,0.8-5c0.5-1.5,1-2.8,1.9-4s1.9-2,3-2.8c1.2-0.7,2.5-1,3.9-1c0.5,0,0.9,0,1.5,0.1l0.7-0.7
	l-1.7-1.4c-2.1,0-4,0.4-5.9,1.2s-3.5,2-5,3.5s-2.8,3.3-3.6,5.5c-0.9,2.1-1.4,4.8-1.4,7.9c0,2.6,0.4,4.8,1,6.5s1.7,3.1,3.1,4.2
	s3.1,1.6,5.4,1.6c2.8,0,5-1,6.9-2.9s2.7-4.5,2.7-7.8c0-2.9-0.6-5-2-6.2C303.6,360.2,302.1,359.5,300.5,359.5L300.5,359.5z
	 M300.6,374.8c-0.7,0.9-1.6,1.4-2.8,1.4c-1.4,0-2.5-0.7-3.2-2s-1.1-3.3-1.1-5.8c0-1.2,0.1-2.2,0.5-2.9s0.8-1.2,1.4-1.5
	c0.6-0.4,1.3-0.5,2-0.5c0.8,0,1.5,0.2,2.1,0.7c0.7,0.5,1.2,1.1,1.6,2.1s0.6,2.3,0.6,3.9C301.8,372.3,301.4,373.9,300.6,374.8
	L300.6,374.8z M192.9,342.6h3.9v-9.1h8.4v-3.7h-8.4v-5h9.6V321h-13.6v21.6H192.9z M218.1,320.5c-2.8,0-4.8,0.9-6.2,2.5
	c-1.9,2-2.9,4.9-2.9,8.9c0,3.9,0.9,6.8,2.9,8.9c1.4,1.7,3.5,2.5,6.2,2.5s4.8-0.9,6.2-2.5c1.9-2,2.9-5,2.9-8.9s-0.9-6.9-2.9-8.9
	C222.9,321.3,220.8,320.5,218.1,320.5z M221.8,337.4c-0.9,1.3-2.2,2-3.8,2s-2.9-0.6-3.8-2s-1.4-3.2-1.4-5.6s0.5-4.3,1.4-5.6
	c0.9-1.3,2.2-2,3.8-2s2.9,0.6,3.8,2c0.9,1.3,1.4,3.1,1.4,5.6S222.8,336.1,221.8,337.4z M245.1,339.6c0.6-1.2,0.9-3,0.9-5.4V321h-4
	v13.2c0,1.5-0.1,2.5-0.5,3.2c-0.5,1.2-1.5,1.8-3.1,1.8s-2.7-0.6-3.1-1.8c-0.3-0.7-0.4-1.8-0.4-3.2V321h-4.1v13.2
	c0,2.3,0.3,4,0.9,5.4c1.2,2.3,3.4,3.5,6.8,3.5S243.9,342,245.1,339.6z M265.8,342.6v-21.5h-3.7v15l-7.6-15h-4.1v21.5h3.7v-15.2
	l7.8,15.2H265.8z M284.5,324.4c-0.9-1.4-1.9-2.2-3.2-2.7c-0.8-0.3-1.8-0.5-3-0.5h-8.2v21.5h8.2c2.9,0,5-1.4,6.4-4
	c1-2,1.5-4.4,1.5-7.2c0-1.1-0.1-2.3-0.4-3.5C285.6,326.5,285.1,325.4,284.5,324.4L284.5,324.4z M281.5,335.8c-0.8,2.1-2,3.1-4,3.1
	h-3.7v-14.1h3.7c1.8,0,3,0.6,3.6,1.8c0.6,1.2,0.9,2.9,0.9,5C282.1,333.2,281.9,334.6,281.5,335.8L281.5,335.8z M303.7,324.9v-3.8
	h-13.8v21.5h14.2v-3.9h-10.4v-5.5h9v-3.8h-9v-4.6L303.7,324.9L303.7,324.9z M322.4,324.4c-0.9-1.4-1.9-2.2-3.2-2.7
	c-0.8-0.3-1.8-0.5-3-0.5H308v21.5h8.2c2.9,0,5-1.4,6.4-4c1-2,1.5-4.4,1.5-7.2c0-1.1-0.1-2.3-0.4-3.5
	C323.5,326.5,323,325.4,322.4,324.4L322.4,324.4z M319.5,335.8c-0.8,2.1-2,3.1-4,3.1h-3.7v-14.1h3.7c1.8,0,3,0.6,3.6,1.8
	c0.6,1.2,0.9,2.9,0.9,5C320,333.2,319.8,334.6,319.5,335.8L319.5,335.8z M107.1,236.6l-18.8-3.8v-0.1l20.1-2.9l1.5-7.5l-17.4-10.6
	v-0.1l18.8,3.8l1.4-7.1l-22.5-4.6L88,214.8l16.5,10.1v0.1l-19.1,3l-2.2,11.2l22.5,4.6L107.1,236.6L107.1,236.6z M127.5,176.7
	l-3.6-1.8l-8.9,18.6l-5.3-2.6l7.8-16.4l-3.7-1.8l-7.8,16.4l-4.3-2.1l8.6-17.9l-3.7-1.8l-11.8,24.8l20.7,10.1L127.5,176.7
	L127.5,176.7z M134.7,167l-18.9-13.1l-4.3,6.4l18.9,13.2L134.7,167z M134.3,153.1l-4.8,5.4c3.2,2.9,6.9,6.2,15.1-3
	c4.9-5.6,5.9-10.2,2.3-13.5l-12.1-11l-5.1,5.8l12.1,11.1c1.3,1.2,2.3,2.5-0.4,5.5C138.6,156.5,137,155.6,134.3,153.1L134.3,153.1z
	 M167.4,134.6c3.9-2.9,13.4-11.8,7.1-20.6s-17.6-2.1-21.4,0.9s-13.4,11.7-7.1,20.5C152.3,144.2,163.4,137.5,167.4,134.6z
	 M155.4,118.2c3.4-2.5,9-4.8,12.9,0.4s0.1,10.1-3.2,12.6s-9,4.8-12.9-0.4C148.2,125.6,152,120.8,155.4,118.2z M199.1,112.7
	c3.9,1.2,8.8,0.2,12-0.9c8.9-2.8,13.6-7.2,11.9-13l-4.5-14.4l-7.5,2.4l4.6,14.6c0.9,2.7-0.8,4.9-5.8,6.5c-3.4,1.1-6.7,0.7-7.7-2.4
	l-4.5-14.3l-7.5,2.4l4.6,14.7C195.5,110.4,196.8,111.9,199.1,112.7L199.1,112.7z M237.3,105.1L236,88.6h0.1l16.3,15.3l7.7-0.6
	l-1.8-23.2l-7.2,0.6l1.2,16.2h-0.1L236.3,82l-8.1,0.7l1.8,23.2L237.3,105.1L237.3,105.1z M275,81.6l-7.7-0.6l-1.9,23.2l7.7,0.6
	L275,81.6z M295.5,108.9L313,89.2l-7.8-1.8l-11.8,15.2h-0.1l-3.7-19l-8-1.9l6.9,25.5L295.5,108.9L295.5,108.9z M335.2,125.1l1.8-3.7
	l-18.5-8.9l2.5-5.4l16.2,7.8l1.8-3.7l-16.2-7.8l2.1-4.4l17.7,8.5l1.8-3.7L319.9,92l-9.9,21L335.2,125.1z M345.4,132.6l5.6-7.1l6.2,5
	c4.5,3.6,4,4.8,2,7.2c-1.5,1.9-2,3-2.2,4.2l6.7,5.4l0.4-0.5c-1-1.4-0.5-2,1.5-4.6c2.6-3.4,1.8-5,0-7.6c3.4,1.7,6.3,1.2,7.9-0.8
	c1.2-1.6,2.6-6.3-5.1-12.4l-14.6-11.8l-14.2,18.2L345.4,132.6L345.4,132.6z M357.2,117.6l7.5,6.1c3.5,2.9,3.1,4.8,2.4,5.8
	c-1.4,1.8-3.5,1.2-6.6-1.2l-7.1-5.7L357.2,117.6L357.2,117.6z M375.9,150.9l-4.6-5.9c-2.2,1.8-4.5,6.6,3.9,17.4
	c2,2.6,9.5,11.1,15,6.8c3.2-2.6,1.4-7.1-1.2-11.6l-4.5-8c-0.8-1.4-2-3.4-0.5-4.6c1.6-1.3,4.4,1.1,6.1,3.4c4.2,5.4,2.7,7.4,2,8.1
	l4.6,5.9c2.1-1.8,3.9-7.1-3.2-16.1c-7.5-9.5-12.4-8.4-14.4-6.8c-4,3.2-1,8.2,2,13.6l2,3.5c2,3.4,3.4,5.9,2,7.1
	c-1.9,1.6-4.9-1.4-7.1-4.2C373.6,154.1,374.9,151.8,375.9,150.9z M390.1,184.4l20-11.5l-3.8-6.8l-19.9,11.5L390.1,184.4L390.1,184.4
	z M413.5,189.6l-17.5,7.1l2.9,7.2l17.5-7.1l4.1,10.5l3.8-1.5l-11-28.3l-3.8,1.5L413.5,189.6L413.5,189.6z M405.3,227.9l1.2,7.7
	l8.5-1.4l16.1,10.1l-1.4-8.8l-11-5.7l8.6-9.2l-1.5-9.1l-12.1,15.1L405.3,227.9z M166.2,374.5l-8.5,11l2.2-16l-3.4-2.7l-12.2,15.9
	l3.1,2.4l8.6-11.3l-2.3,16.3l3.2,2.5l12.2-15.9L166.2,374.5L166.2,374.5z M161.3,395.8l3.8,2.2l3.2-2.9l6.4,3.7l-0.9,4.2l3.9,2.3
	l3.9-21l-4.1-2.4L161.3,395.8z M175.9,395.6l-4.4-2.6l6.1-5.5L175.9,395.6z M197.9,391.9c-2.7-1.1-5.2-1.1-7.6,0s-4.1,3.2-5.4,6.2
	c-1.2,3-1.4,5.6-0.4,8c0.9,2.4,2.5,4,4.9,5c1.5,0.6,2.9,0.8,4.1,0.6c0.8-0.1,1.6-0.5,2.8-1l-0.6,2.5l2.6,1l4-10l-7.6-3.1l-1.2,3.1
	l4.2,1.8c-0.7,1.1-1.6,1.9-2.7,2.3c-1.1,0.4-2.3,0.4-3.6-0.2s-2.3-1.5-2.9-2.9c-0.6-1.4-0.5-3.2,0.4-5.5c0.9-2.2,2.1-3.8,3.4-4.5
	s2.9-0.8,4.3-0.2c0.8,0.3,1.4,0.8,1.9,1.3c0.9,1,1.2,2.1,1.1,3.5l3.8,1.5c0.5-1.9,0.3-3.7-0.6-5.5
	C201.9,394.1,200.2,392.8,197.9,391.9L197.9,391.9z M218.6,399c-2.8-0.7-5.1-0.5-6.9,0.7c-2.4,1.3-4,3.8-4.9,7.4
	c-0.9,3.5-0.6,6.5,0.9,8.8c1.1,1.9,3,3.1,5.8,3.9s5.1,0.5,6.9-0.7c2.4-1.4,4-3.9,4.9-7.4c0.9-3.6,0.6-6.5-0.9-8.8
	C223.3,400.9,221.4,399.7,218.6,399z M221.4,410.6c-0.5,2.2-1.4,3.8-2.6,4.8c-1.2,1-2.6,1.2-4.2,0.9c-1.6-0.4-2.8-1.3-3.4-2.8
	c-0.6-1.4-0.8-3.2-0.2-5.5s1.4-3.8,2.6-4.8s2.6-1.2,4.2-0.9s2.7,1.3,3.4,2.8C221.8,406.6,221.9,408.4,221.4,410.6L221.4,410.6z
	 M237.1,412.2l-2.9-9.2l-4.9-0.6l5.2,13.4l-0.9,7.5l4.1,0.5l0.9-7.5l8.1-11.6l-4.6-0.6L237.1,412.2z M255,404.5l-6.9,20.2h4.3
	l1.3-4.1h7.4l1.4,4.1h4.5l-7.1-20.1L255,404.5L255,404.5z M254.9,417l2.5-8l2.5,7.9L254.9,417L254.9,417z M287.4,401.5l-4.1,0.6
	l2.2,13.9c0.1,1,0.1,1.6,0,2.1c-0.2,0.8-0.7,1.2-1.6,1.3c-0.9,0.1-1.5,0-2-0.6c-0.4-0.6-0.7-1.6-1-3.2v-0.5l-4,0.6v0.5
	c0.4,2.4,1.1,4.1,2.1,5.4c1,1.2,2.9,1.6,5.4,1.2s4.1-1.5,4.8-3.4c0.4-1.1,0.5-2.5,0.2-4.1L287.4,401.5L287.4,401.5z M297.5,398.9
	l-1.3,21.4l4.2-1.2l0.1-4.4l7-2l2.4,3.6l4.4-1.2l-12.2-17.4L297.5,398.9L297.5,398.9z M300.8,411l0.3-8.4l4.6,6.9L300.8,411z
	 M324.7,390.2c-1.5-0.5-3.1-0.3-5,0.5l-7.8,3.5l8,18.5l3.8-1.7l-2.9-6.6l3.8-1.6c2-0.9,3.3-2,4-3.4c0.6-1.4,0.5-3.1-0.4-5.3
	C327.4,392,326.2,390.8,324.7,390.2L324.7,390.2z M324.6,398.1c-0.3,0.6-0.9,1.1-1.7,1.5l-3.4,1.5l-2.4-5.4l3.4-1.5
	c0.9-0.4,1.6-0.5,2.3-0.3c0.6,0.2,1.2,0.8,1.6,1.8C324.8,396.6,324.9,397.4,324.6,398.1L324.6,398.1z M332.5,384.2l4,21l3.8-2.2
	l-0.9-4.2l6.4-3.8l3.2,2.9l3.9-2.3l-16.1-13.8L332.5,384.2L332.5,384.2z M343,392.5l-4.4,2.6l-1.8-8.1L343,392.5z M354.9,368.6
	l8.5,11l-14.8-6.1l-3.4,2.7l12.3,15.9l3-2.4l-8.7-11.2l15,6.2l3.2-2.6l-12.3-15.9L354.9,368.6L354.9,368.6z M157.4,342.8h30.4v-21.6
	h-46.5C145.9,328.9,151.3,336.1,157.4,342.8z M329.2,342.8h27.1c6.1-6.6,11.5-13.9,16.1-21.6h-43.2V342.8L329.2,342.8z M239.6,132.7
	h-0.1v0.1h0.1V132.7z M241.3,136.8h-0.1v0.1h0.1V136.8z M241.6,138.7h-0.1v0.1h0.1V138.7z M241.6,139h-0.1v0.2h0.1V139z
	 M241.6,145.6h-0.1v0.1h0.1V145.6z M266.1,149H266v0.1h0.1V149z M317,156.1h-0.1v0.1h0.1V156.1z M318,156.6h-0.1v0.1h0.1V156.6z
	 M165.7,180.2c0-0.1,0-0.1,0-0.1C165.6,180.1,165.6,180.2,165.7,180.2z M173.2,186.6L173.2,186.6v0.1V186.6z M164.8,183.8
	c0.5,0.9,1.1,1.3,2.4,1.4c0.8-0.4,0.6-1.1,0.9-1.6h0.1c0-0.6,0-1.3,0.4-1.4c0.5-1.1,0.5-2.2,0.9-3.4l0.1-0.8
	c0.8-0.9,0.5-2.4,0.9-3.7c0.5-1.3,1.1-1.4,1.1-3.1l0.1,0.1c0-0.1,0-0.4,0.1-0.6v0.1c0-0.8,0.2-1.6,0.4-1.7c0.4-0.1,0.1-0.5,0.4-0.6
	c0.2-0.2,0.9-0.1,1.3-0.1c-0.1,0.1-0.1,0.1-0.2,0.1h0.2c0.2,0.6,0.4,0.6,0.4,1.1h-0.1v0.1h0.1c0,0.1-0.1,0.2-0.1,0.4
	c0.5,1.2-0.4,1.2-0.4,2.6l-0.1-0.1c0,0.1,0.1,0.4-0.1,0.4l0,0c0,0.6-0.1,1.9-0.2,2.1l-0.2,0.2c-0.2,1.2-0.2,1.3-0.6,2.6
	c-0.1,0-0.1-0.1-0.1-0.2c-0.2,0.5,0,1.2-0.4,1.7c-0.1,1.9-1.1,2.4-1.3,3.9l-0.1-0.1c0,0.1,0.1,0.4-0.1,0.5v-0.1
	c-0.1,0.4,0,1.2-0.4,1.3l0.1,0.1c-0.4,0.2-0.2,0.9-0.2,1.4c0.4,0.9,1.4,1.3,2.4,1.3c0.2-0.1,0.8-0.6,1-1.2c-0.1-0.2,0.1-0.4,0.3-0.4
	c0.4-1.2,1.7-3,1.9-4.1c0,0,0.1,0,0.1,0.1c0-0.2,0-0.6,0.1-0.8v0.1c0.6-1.4,1.1-2.8,1.3-4.4l0.1,0.1l0.2-2.9h-0.1
	c1.1-2.1,0-4.6,0.4-6.7c-1.1-0.6,0-2-0.9-2.8c-0.1-2.6-1.4-4.4-2.4-6.1c-0.2-0.4-0.8-1.3-1.6-1.4c-0.6,0.6-0.8,1.7-0.9,2.6l-0.1-0.1
	c-0.4,1.3-1.1,2.2-1.1,3.8h-0.2c0.1,0.5-0.2,0.2-0.4,1.1l-0.1-0.1c0,0.2,0.1,1.2-0.1,1.2c0.2,0.2-0.4,0.6-0.1,0.6l-0.1,0.1h-0.1v0.1
	c0,0,0,0.1,0,0.2c-0.4,0.4-0.4,1.3-0.6,2.5c0-0.1,0-0.1,0-0.2c-0.2,0.6-0.2,1.4-0.6,2.2l0.1,0.1c-0.2,0.5-0.5,2-0.8,2.2h-0.1v0.6
	c-0.4,0.5-0.6,1.7-0.6,2.4l-0.1,0.1l-0.1-0.1c0.1,0.5-0.4,0.8-0.4,1.3v-0.1c-0.2,0.8-0.4,1.9-0.6,2.4l0,0c-0.1,0.7-0.2,0.9-0.4,1.6
	c-0.1,0-0.1-0.1-0.1-0.1c0,0.5-0.3,1-0.3,1C165,183.7,164.5,183.3,164.8,183.8L164.8,183.8z M339.8,178.4v-0.1
	C339.7,178.4,339.7,178.4,339.8,178.4z M331,170.3h0.2v5.2c0,0.8,0.9,2.8,1,3.7c0.2,0.6,0.8,1.2,1,1.7c0.2,1.1,0.9,3.1,1.5,3.7h-0.1
	c0.5,0.1,0.6,1.2,1,1.1c0.5,1.2,1.5,0.1,2.2,0.1c2.2-0.6,0.4-2.5,0.4-3.9c-1.3-2.1-1.3-5-2.5-6.9c0.1-1.6-0.8-1.9-0.9-3.3
	c-0.4-1.1-0.8-2.1-0.4-3.1c0-0.2,0.2-0.1,0.2-0.4c0.1-0.5,1-0.1,1-0.2c0.4,0.6,0.8,1.2,1,2.4c0.5,0.1,0.1,0.6,0.4,1.1
	c0.8,0.4,0.8,3.3,1.5,4.1c0.1,0.6,0.5,1.4,0.8,1.6c0.4,0.4,0,1.3,0.2,1.4h-0.1l0.1,0.4l-0.1-0.1c0.5,0.9,1,1.6,1.1,2.4v0.1
	c0,0.2,0,0.4,0.1,0.6h-0.1v0.1h0.1c0,0.1,0,0.2,0,0.4c0.1,0.8,0.8,1.6,1.3,1.9c0.6,0.1,0.8-0.2,1.1-0.6c0.5-0.1,0.5-0.1,0.8-0.1
	c0.9,0,0.9-0.6,1.3-1.1c0.4-1.1-1.1-2.6-1.1-3.7c-0.2-0.2-0.3-0.6-0.2-0.8v0.1h0.1V178h-0.1l0,0l0,0l-1-3.1c-0.4-0.5,0-1.4-0.6-1.9
	c-0.8-1.3-0.8-3-1.5-4.1c0-1.7-0.4-2.4-0.9-3.7c0.2-1.6-0.6-2.9-0.8-4.4l-0.1-0.1c-0.2-1.2-0.2-1.7-0.5-2.6c-0.9-2-2,0.4-2.5,0.4
	c-0.6,1.4-2.5,2.5-2.7,4.4l-0.1-0.1c0,0.1,0.1,0.2-0.1,0.4v-0.1c-0.1,1.1-0.5,1.3-0.8,2.2h0.1c-0.4,0.2-0.4,1.2-0.5,1.2
	c-0.5,0.6-0.1,1.4-0.6,2.1l-0.1-0.1C331.4,169.4,330.8,169.5,331,170.3L331,170.3z M344.1,178.1l0.1-0.1
	C344.1,177.9,344.1,178,344.1,178.1z M317.9,164.1c1.5,1.2,2.9,2.9,5,3.6c0.4,0.2,1.1,0.1,1.5,0.4l0.1-0.1c0.4,0.2,0.8,0.6,1.5,0.6
	v0.1h0.1v-0.1h0.1c0.4-0.2,0.8-0.6,0.8-1.2l0.1,0.1c0-0.2,0.2-1.1,0.1-1.6c-0.2-0.6-0.8-2-2-1.7c-0.9-0.6-2.4-1.2-3.5-1.4
	c-0.2-0.8-1.7,0-2.1-0.9c-0.2,0-0.6-0.1-0.9-0.4c-0.9,0-2.1-1.1-2.5-0.4c-0.4,0.8,0.5,1.1,1,2.1
	C317.3,163.7,317.9,163.6,317.9,164.1L317.9,164.1z M183.2,170.7c1.3-0.6,2.1-0.8,3-1.4l-0.1-0.1c1.1-0.2,0.5-0.6,1.6-1.3
	c0.9-0.2,1.1-0.8,1.7-1.4l-0.2-0.1c0.1-0.2,0.5-0.6,0.5-0.8c1.2-1.1,1.6-2.1,1.9-2.9h0.1c-0.6-0.4-0.4-0.4-1.1-0.5v0.1
	c-0.5,0.1-1.8,0.1-1.9,0.4c-0.6,0.6-1.7,0.6-2.1,0.9c-1.3,0.5-2.8,0.9-3.6,1.4c-0.5,0.4-0.9,0.4-0.9,1.3
	C183,167,181.6,170,183.2,170.7z M245.7,165.9h-0.1v0.1h0.1V165.9z M346,168.9h-0.1v0.1h0.1V168.9z M209.4,169.1v0.1h0.1v-0.1H209.4
	z M316,170.9c0.6,1.4,1.5,0.9,2.4,1.9c0.6,0.5,1.1,0.6,1.5,1.2c1.5,1.1,2.5,1.9,3.6,3.3h-0.1c0.5,0,0.5,0.4,0.6,0.6
	c0.8-0.1,1.5-0.9,2.2-1.2l-0.1-0.1c0.9-0.2,0.9-0.9,1.1-1.7c-0.6-0.6,0.1-2.2-0.4-3.1c-0.2-0.6-1.1-0.9-2-1.1v-0.1h-0.1v0.1
	c-0.4-0.1-0.6-0.1-0.9-0.1v-0.1c-1.8,0-2.6-0.2-4.4-0.1c-0.4-0.1-1.5-0.1-1.5,0V170C317.4,170.3,316.1,170.4,316,170.9L316,170.9z
	 M246.2,170.1h-0.1v0.1h0.1V170.1z M346.5,170.6h-0.1v0.1h0.1V170.6z M181.1,180L181.1,180L181.1,180z M181.3,181.4
	c2.1,0.5,1.8-0.6,2.6-1.6c1.4-0.1,1.3-2.6,3.1-2.6c0.4-1.1,0.6-1.1,1.3-1.7c1.7-0.6,2.9-2.2,4.7-2.8c0.5-0.1,1.1-0.4,0.8-1.1
	c-1.4-0.9-2.4-0.4-3.9-0.5c-0.4,0-0.8,0.2-0.8,0.5c-1.9-0.1-4,1.2-5.6,1.3c-0.8,0.9-1.1,1.3-1.1,2.6c-0.1,0-0.1,0-0.1-0.1h-0.1v0.2
	h0.1c0,0.1-0.1,0.2-0.1,0.2c0.4,2.1-0.8,2.1-0.9,3.9l0.1,0.1l-0.1,0.1l-0.1-0.1C181.3,180.6,180.7,181.2,181.3,181.4L181.3,181.4z
	 M307,173.1V173h-0.1v0.1H307z M347.4,173.9h-0.1v0.1h0.1V173.9z M327.1,178.9c-0.9,0.5-0.2,1.3-0.1,2.1c0.9,1.1,2.4,3.4,3.1,3.8
	c0-0.1,0-0.1-0.1-0.2h0.1v-0.1l0,0c-0.4-1.1-0.7-1.5-1-2.9C328.6,180.8,328.7,179,327.1,178.9L327.1,178.9L327.1,178.9z
	 M209.2,182.6v0.1h0.1v-0.1H209.2z M210.4,182.6h-0.1v0.1h0.1V182.6z M215.4,182.6v0.1h0.1v-0.1H215.4z M197,183.7v0.1h0.2v-0.1H197
	z M176.4,190.4c-0.1,1.4-1.1,1.4-1.7,2.2c-0.1,2-2.9,3.7-4,5.4c-0.8,0.1-1.1,0.8-1.7,0.9v0.1c-0.9,0.2-2.6,1.4-3.1,2.4
	c0.1,0.9,0.9,1.6,1.1,2.4c0.2-0.1,0.6,0.8,0.9,0.8l-0.1,0.1c0.9,0.1,1.6-0.2,1.9,0.2c1.1,0.2,2.4,1.1,3.2,1.4
	c0.9-1.2,0.9-2.5,1.4-3.7c0.3-0.6,0.2-1.2,0.3-1.7h0.1v-0.1h-0.1c0.1-0.4,0.1-0.8,0.4-1.2c0.1-0.5,0.2-2,0.6-2.1
	c0-1.1,0.5-1.6,0.6-2.4c0-0.2,0.1-0.4,0.1-0.6l0,0l0,0c0.1-0.5,0.4-0.9,0.2-1.3c0.6-0.2,0.4-1.3,0.6-1.6c0.2-0.2,0.4-0.9,0.6-1.1
	c0.1-1.9,1.7-3.7,1.7-4.7v-0.4c0-0.1-0.1-0.4-0.2-0.4l0.1,0.2c-0.5-0.2-0.4,0.5-0.6,0.5C178.2,187.6,177,188.3,176.4,190.4
	C176.5,190.6,176.3,190.6,176.4,190.4L176.4,190.4z M344.8,185.6c-0.8,0.1-1.7,0.9-2.5,1.1v-0.1c-1.3,0-2.1,1.2-3.4,1.3l-0.6,0.4
	c-0.4,1.7,1.5,2.2,2,3.4c0.9,0.8,2.5,1.9,3.1,2.6c0.5,0,1.1,0,1.4,0.1c0.4,0.6,0.8-0.1,1.1,0.1c3-2,1.5-4.9,0.9-8.3
	C346.3,185.9,345.6,185.1,344.8,185.6L344.8,185.6z M245.2,186.6h-0.1v0.1h0.1V186.6z M163,196.7c0.2,0,1.2-0.1,1.3-0.4v0.1
	c1.4-0.5,1.8-1.2,2.8-1.7v-0.1c1.1-1.1,2.4-2,3.1-3.1c0.1-0.5,0.6-0.5,0.5-1.1h-0.2v-0.2c-1.9-1.9-3.9-2.2-5.7-3.4
	c-0.9,0.2-0.6,0.2-1.1,0.6c-0.4,1.3-0.4,1.1-0.6,2.4l-0.1-0.1c-0.2,0.5,0,1.3-0.2,1.7v-0.1c-0.1,0.6-0.4,0.8-0.4,1.6l-0.1-0.1
	c0.1,0.1,0.1,1.2-0.1,1.3c-0.2,0.4,0,1.2,0,1.3C162.4,195.9,162.5,196.2,163,196.7L163,196.7z M188.2,186.9v-0.1h-0.1v0.1H188.2z
	 M335.3,197.8c-0.1,1.2,0.2,2.2,0.5,3.1h-0.1c0.2,0.1,0.6,1.2,0.6,1.3c-0.1,0.4,0.5,0.1,0.6,0.2l-0.1-0.1c0.9-0.6,1.7-1.9,3.1-2.2
	c0.9-1.1,2.4-0.2,3.9-0.6c0.2-1.3-1-0.4-1.8-1.2c-1.8-1.6-3.9-2.9-5.6-4.6c-1.6-1.8-2.5-3.4-4.3-5.1l0,0v-0.1H332
	c0-0.1-0.1-0.1-0.1-0.1c0.6,1.9,1.1,3.6,1.5,4.9h-0.1c0.4,0,0.1,0.6,0.4,0.6h-0.1C334.5,195,334.6,196.9,335.3,197.8L335.3,197.8z
	 M353.5,189.6c-0.4,1.7-2.4,2.1-1.5,4.4c0.1,0.4,0.4,0.4,0.8,0.8c2-0.1,2.2,1.7,3.6,2.2c0.2,0.6,0.6,1.4,0.9,1.3
	c0,0.6,0.5,1.1,1.3,1.3c1.5-0.2,1.5,0,2.5-0.2c0.6-0.9-0.6-1.9-0.6-2.5l-0.4-0.6c-0.1-0.6-0.5-1.2-0.8-1.7c-1.8-1.4-3.1-5-5-5.5V189
	L353.5,189.6L353.5,189.6z M252.6,188.7h-0.1v0.2h0.1V188.7z M266.5,189.1h0.1V189h-0.1V189.1z M316.5,189.6v-0.1h-0.1v0.1H316.5
	L316.5,189.6z M323.1,189.8H323v0.1h0.1V189.8z M149.4,202.8h1.3c0.2-0.3,0.5-0.6,0.7-1.1h0.1v-0.1c0.2-0.4,0.4-0.9,0.6-1.5
	c0.6,0,0-0.6,0.5-0.8c0.2-0.5,0.6-0.8,1.1-1.2V198c0.4-0.8,1.8-1.4,2.8-1.7c0.9,0.2,0.8-0.6,1.3-0.8l-0.1-0.1c0.1,0,0-0.8-0.4-0.9
	c-0.2-0.9-0.9-2.1-1.1-2.9c-1.1-0.4-1.3,0.9-2.1,1.6V193c-1.4,2.2-3.1,4.9-4.6,7.5c-0.2,0.2-0.2,0.8-0.5,0.9
	C148.7,202.3,149,202.4,149.4,202.8L149.4,202.8z M327.8,193.1c0.1,1.3,0,2.4-0.1,4.4c0.2,0.6,0,1.3,0.1,1.8
	c0.5,0.9-0.2,1.7-0.1,2.5l-0.2,1.3l-0.1-0.1c-0.1,0.9,0.4,0.9,0,2l-0.1-0.1c-0.4,0.8-0.2,2.9-0.9,3.4c-0.2,0.8-0.1,2.4-0.6,2.6
	l-0.2,1.3l0,0c0,1.4-0.9,1.9-1.4,3.8c0,0.8-0.6,0.9-0.9,2v-0.1l-0.4,0.5c-1.3,2.6-2.5,5.9-4.3,8.6c-0.4,1.1,0.2,1.4,0.4,2.4
	c0.1,0,0.2-0.1,0.4,0c-0.1,0.5,1,1.3,1,1.7h0.1l0.4,0.6c1.5,1.2,2.1,3.1,3.4,4.4c0.5,0.8,1.9,2.8,2.6,3.4c0,0.8,0.2,0.1,0.4,0.9
	c1.3,1.3,1.7,3.1,3.2,3.8c1.3-1.4,1-2.8,1.7-4.8h0.1c-0.2-0.9,0.5-1.4,0.4-2.4l0.1,0.1v-2.6c-0.5-0.5-2.2-2-2.8-2.2
	c-0.6-1.4-1.1-0.6-2-2.2c-1.1-0.8-2-1.6-3-2.6c-1-1.3-2.6-1.3-2.9-3.6c0-0.2,0.4-0.6,0.8-1.1c0.5-0.2,1.5,0.1,1.5,0l2.2,2.1v0.2
	c1,0.8,1.8,1.9,2.9,2.5l-0.1,0.1c0.4,0.5,1,0.6,1.1,1.1h-0.1c0.5,0.6,1.7,1.6,2.5,2.1c1.1-0.1,0.4-1.9,0.8-2.6
	c0.5-1.6,0.2-4.2,0.2-6.3c0.1-1.1-1.5-2-2-2.6c-2.1-1.4-4.3-3.6-5.6-5.4c-0.4-1.2,0.4-1.2,0.5-1.6c1.7,0,2.2,0.6,3.4,1.3
	c0.8,0.9,1.5,1.1,2.5,2c2.2,0.2,0.1-2.9,0.6-3.6l-0.1-0.1c0.5-1.7-0.2-2.6-0.6-4.2c-1.8-0.9-2.6-2.4-4.4-3.9
	c-0.5-0.6-0.1-1.3,0.4-1.4c0,0,0.2-0.2,0.4-0.2v-0.1c0.8,0,1.4,0.3,2,0.6h-0.1v0.1h0.1v0.1c0.1,0.1,0.2,0.1,0.4,0.1
	c0.4-1.4-0.4-3.1-0.6-4.5c-0.5-2.2-1.2-2.8-2-4.9C328.1,193.2,328.1,192.3,327.8,193.1L327.8,193.1z M327.6,197.5c0-0.1,0-0.1,0-0.1
	s0,0,0-0.1V197.5L327.6,197.5z M325.3,212.1c0-0.1,0-0.1,0-0.1C325.1,212,325.2,212.1,325.3,212.1z M323.9,215.9L323.9,215.9
	c0-0.1,0-0.1,0-0.1V215.9z M179.8,199.4L179.8,199.4c0,0.1,0,0.2,0,0.2l-0.1-0.1c-0.1,0.5-0.2,0.8-0.4,1.2h-0.1c0,0.6,0,1.4-0.4,2.1
	l-0.1-0.1v1.4c0.1,1.4,1.3-0.1,1.7,0.2c0.5,0.1,0.9,0.2,1.1,0.9c0,0.4,0,0.6-0.2,1.2v-0.1c-0.1,1.1-0.6,1.1-1.6,1.9
	c-0.4,0.8-1.8,1.6-1.9,2.4c-0.9,0.5-0.8,1.7-0.6,2.5l0,0v0.1h0.1c0.1,0.1,0.1,0.3,0.1,0.4c0,0.1-0.1,0.2-0.1,0.2l-0.1-0.1
	c0.2,0.4,0.2,1.4,0.2,1.7c0,0.1-0.1,0.1-0.1,0.2l-0.1-0.1c0.1,0.2-0.1,0.8,0.1,1.2H177c0.1,0,0.4,0.2,0.1,0.4L177,217l0.4,1.1
	c0.6,0,0.2,0.2,0.6,0.1v0.1h0.1V218H178c0.6-0.4,1.4-1.9,2.4-2.4l-0.1-0.1c1.1-0.2,0.9-1.9,2.4-1.2c0.5,0.5,1.3,0.8,1.1,1.9
	c-0.8,1.2-1.3,2.5-2.4,3.1c0,0.1,0,0.2-0.1,0.4l-0.1-0.1c-0.6,2.1-2.9,2.4-3.4,4.7c-0.4,0.2,0.1,0.6,0,0.6c0.1,0.1,0,0.1,0,0.1h-0.1
	l0.1,0.1c0,0.1,0.1,0.2,0,0.2l-0.1-0.1c-0.2,0.2,0.5,0.5,0.1,0.8l-0.1-0.1v0.4c0,0.1,0.4,0.2,0.1,0.4h-0.1c0.4,0.2,0.1,1.4,0.5,2.1
	v-0.1c0.2,0.9,0.6,1.9,0.6,2.4c0,0.4,0.2,0.6,0.4,0.4v0.1h0.4c0.2-0.1,0.8-0.2,0.9-0.8v0.1c0-1.2,0.6-0.8,0.9-1.2l-0.1-0.1
	c1.1-0.2,0.6-1.1,1.4-1.3c0.1-0.2,0.5-0.8,0.4-0.9c0.2-0.1,0.5-0.6,0.6-0.6c0.2-0.6,1.3-1.2,1.4-1.6c0.1-0.4,0.9-0.2,0.9-0.6
	c0.8-0.1,1.1,0.1,1.6,0.6c0.4,2.6-1.4,3.3-2.6,5.1c-0.1,1.2-1.8,1.9-2.2,3.3c-0.6,0.5-0.8,1.3-1.7,1.9c-0.4,0.6-1.1,1.2-1.1,1.7
	c-0.2,0.1-0.2,0.4-0.2,0.6v0.1c0.1,0.9,0.4,1.4,0.4,2.5c0.6,0.8,0.6,1.6,0.9,3c0.9,0.4-0.1,2,1.3,2c-0.1,0-0.1,0.1-0.2,0.1h0.6
	c0.4-0.8,1.8-2.9,2.4-3.8c0.5-1.3,1.6-2,2.1-3.6c0,0,0.1,0.1,0.1,0.2l0.4-1.1v0.1c0-0.6,0.8-0.6,0.6-1.2c0.1-0.5,0.6-0.4,0.8-1.1
	c0.9-0.9,1.1-2.5,1.8-3.4l0.1,0.1c0-0.8,0.8-1.3,1.1-2.1c0-0.2,0.5-1.2,0.2-1.3c0-0.1,0.1-0.1,0.1-0.2l0.1,0.1
	c-0.6-0.6-1.9-3.1-2.6-3.9c-0.9-0.5-0.9-2.1-1.8-2.6c-0.4-1.4-1.8-2.9-1.9-3.9c-0.6-2.6-1.9-4.1-2.1-6.6c-0.8-1.6-1.1-3.3-1.1-4.6
	c-0.2-0.6-0.4-1.1-0.4-1.6v-0.1c-0.1-1,0.1-1.9-0.1-3.1c-0.9-1.3,0-3.4-0.4-4.4c0.2-1.9,0.9-3,0-4.6c-1.1,0.6-1.1,2.5-1.7,3.7
	c0-0.1,0-0.1,0-0.1C180.3,197.5,179.7,198.3,179.8,199.4L179.8,199.4L179.8,199.4z M180.4,196.4c-0.1,0.1-0.1,0.1,0,0.2
	C180.4,196.6,180.4,196.5,180.4,196.4z M179.8,199.4c-0.1,0.1-0.1,0.1-0.1,0.2C179.7,199.5,179.8,199.4,179.8,199.4L179.8,199.4z
	 M316,195.2h0.1v-0.1H316V195.2z M349.5,205.4c0.4,0.8,1,3,1.5,4.2l0.2,0.8c0.6,0.4,0.8-0.2,1.1-0.4c0.4-1.2,1.1-2.6,1.3-3.7
	l0.1,0.1c0-0.6,0.4-0.6,0.4-1.3c0.1-0.6,0.4-1.6,0.6-1.7c0.2-0.6,0.5-1.1,0.9-1.6c0.2-1.2-0.1-1.7-0.8-2.2c-0.6-1.2-1.3-1.9-1.8-1.9
	c-0.4-0.1-0.5-0.8-1-0.6l0.1-0.1c-2.4-1.1-4.1,1.6-5.3,2.9C346.2,202.5,348.4,203.4,349.5,205.4z M186.9,197.5v-0.1h-0.1v0.1H186.9z
	 M153.6,203.1l-0.1-0.1c-0.4,0.8-0.4,1.4-0.1,2.5c1.1,1.4,2.2,3.1,2.4,4.9c0.2-0.1,0.6,1.3,0.8,1.4h-0.1c0.2,1.2,0.4,0.9,1.1,1.9
	c0.4,0,0.6,0.1,1.1,0.2h-0.1c0.2,0,0.8,0.1,0.8,0.2c1.1-0.2,0.9-1.3,1.1-2.4l0.1,0.1c0.2-0.4,0.2-1.3,0.2-1.4l0.4-0.1
	c0.4-1.6,1.7-3.3,2.7-4.2c0.2-1.7-0.9-3.3-1.7-4.6c-0.5-0.1-1.1-1.1-1.3-0.8c-0.6-0.2-1.1-0.6-1.6-1.1c-1.3-0.8-3,0.6-4.1,0.6
	C155,201.7,153.8,201.7,153.6,203.1z M323.1,201.3H323v0.1h0.1V201.3z M358.1,203.6c-0.2,0.4-1.3,1.2-1,1.9c0,0.4-0.4,0.9-0.2,0.9
	c-0.5,1.2-0.6,0.8-0.9,1.9l-0.1-0.1c-0.2,0.8-0.4,1.7-0.1,2.4c0,0,0.2,0,0.2,0.1c0,0,0,0.1-0.1,0.1c0.2,0,0.5,0,0.6,0.1l-0.1,0.1
	c0.1,0.2,0.8,0.1,0.8,0.6c1,0.4,1.5,1.2,2,1.6v0.1c0.4,0.8,1.5,0.9,1.5,1.7c0.4,0.6,0.9,2.2,1.8,3c0.2,0.1,0.8,0.2,0.6,0
	c0.6,0,0.1,0.1,0.6,0c0.6-0.1,1.3,0.1,1.5-0.9v0.1c0-0.8,0.9-1.2,0.9-2.4v0.1c0.6-1.4,1.7-2.4,1.8-3.8l0.1,0.1
	c-0.8-2.1-1.4-3.1-2.2-5.1c-1.3-1.7-1.5-3.3-2.8-4.4c-0.5-0.6-1.7,0.1-2.2-0.4C360.1,201.8,358.4,202.9,358.1,203.6L358.1,203.6z
	 M348.6,212.4c0.2-1.6-1-3.1-1-4.2c-0.6-1.1-0.5-2.1-1.3-3.1c-1-1.2-1.9-3.1-3.8-3c-1.1,0-2,0.4-2.5,1.1c-1,0-1.3,1.9-2.2,2.6v-0.1
	l-0.2,0.8c-1.1,1.6,0.8,2.4,0.1,4.2c0.6,2.1,3.5,3.4,3.9,5.6c0.8,0.9,0.9,1.7,1.5,2.5c0.8,0.1,0.8,0.5,2,0.4
	c0.4-0.1,0.9-0.8,0.8-1.3c0.5-1.7,1.1-2.4,2.1-4.2l0.1,0.1l0.4-0.9L348.6,212.4L348.6,212.4z M323,202.4h0.1v-0.1H323V202.4z
	 M195.6,203.8h-0.2v0.1h0.2V203.8z M195.3,204.8h0.2v-0.1h-0.2V204.8z M143,213.9c0.5,0.6,0.5,1.2,1.1,1.3c0.8,1.7,1.3,3,1.7,4.6
	h0.2c-0.1,0.4,0,0.6,0,1.1c0.2,0.1,0.4,0.2,0.5,0.8c0.4,0,0.6,0.1,1.1,0.2c-0.1,0-0.1,0.1-0.2,0.1c0.6-0.2,1.2,0.3,2.1,0.3
	c0,0.1-0.4,0.1-0.1,0.1c0.5-0.1,1.1-1.3,1.3-2.1h0.1c0.2-1.1,0.6-2.2,1.1-2.8c0.4-1.9,2.4-2.1,1.8-4.4c-0.6-1.2-0.4-2.8-1.1-3.4v0.1
	c-1.1-1.3-2.1-3.1-3.1-4.1c-0.5,0-0.8-0.1-1.1-0.4c-2.1-0.4-2.6,2.4-3.6,3.8c0.1,0.4-0.1,0.8-0.4,0.8c0.1,0.7-0.1,0.7-0.2,1.1H144
	v0.1h0.1c0,0.1-0.1,0.1-0.1,0.2c-0.4,0.1-0.2,0.9-0.5,1.1c0.1,0.1-0.1,0.2-0.1,0.1C143.4,213.3,142.8,213.3,143,213.9L143,213.9z
	 M144.7,209.2L144.7,209.2c0-0.1,0-0.1,0-0.1V209.2z M163.5,217.9c0,1.2,1.1,1.4,1.1,2.4c0.1,0.4,0.6,1.3,0.6,1.9
	c0.1,0.2,0.1,0.6,0.5,1.1c0.2,0.4,1.1,0,1.4,0.2l-0.1,0.1c0.5,0.1,2.9-0.2,3.5,0.6c0,0,0,0.1-0.1,0.1c1.1,0.1,1.3,1.2,1.9,0.8
	c0.4-1.9,0.6-5.6-0.1-7.2c-0.2-2.6,0.5-5.9-0.9-7.9c-1.6-1.1-1.9-2.6-4.4-1.9c-1.4,0.9-3.2,1.9-3.4,3.8l-0.1-0.1
	c-0.4,0.6-0.1,1.4-0.6,2c-0.1,0-0.1-0.1-0.1-0.1C162.9,215.3,162.4,216.6,163.5,217.9L163.5,217.9z M314,208.6h0.1v-0.1H314V208.6z
	 M313.8,211.1h-0.1v0.1h0.1V211.1z M356,214.1c-0.5-0.4-1.3-0.6-2-0.9c-0.2,0-1-0.1-1,0.1c-0.1-0.4,0,0.2-0.2,0v-0.1
	c-2,1.1-2.5,2.5-3.5,4.4h-0.1c0,0.6,0,1.4-0.4,2v-0.1c0,0.9-0.2,1.4-0.1,2.2c0,0.3,0.1,0.6,0.1,0.8l0,0v0.1l0,0
	c0.1,0.8,0.4,1.1,0.7,1.4c0.2,0.4,0.6,1.4,0.6,2.1L350,226c0.5,0.5,0.5,1.1,0.8,1.4h-0.1c0.9,0.2,2.8,0.2,3.9,0.8
	c0,0-0.1,0.1-0.2,0.1h1.3c0.1-0.2,0.8-0.9,0.5-1.4l0.1,0.1c0.1-0.9,0.8-1.6,0.8-2.6l0.1,0.1c0.1-1.3,1.5-2.9,2-3.8
	C359.5,218.8,357.6,215.7,356,214.1z M368,219.4c0.2,0.2,0.1,0.5,0.1,0.8c2,1.9,3,4.8,3.9,7.4h0.1v0.1h0.1v0.8
	c0.8,0.1,0.9-0.4,1-0.8c-0.6-1.9-1.4-3.7-1.3-5.5c-0.6-1.9-1.5-3.8-2-5.8c-0.1-0.5-0.6-0.6-0.8-0.4v-0.1c-0.2,0.4-0.6,0.8-0.6,1.3
	l-0.1-0.1l-0.1,0.9v-0.1c-0.1,0.2,0,0.6-0.2,0.6c-0.1,0.4,0.1,0.6,0.1,0.9C368.2,219.4,368.1,219.4,368,219.4L368,219.4z M368,219.4
	L368,219.4C367.8,219.3,368,219.4,368,219.4z M152.6,225.2v-0.1c0.5,0.6,0.2,1.3,0.6,1.3c0.9,1.3,1.1,3.1,2.1,4.1
	c0.6,0.4,2.2-0.1,3.1,0.1l-0.1,0.1c0.4,0.1,1.1-0.2,1.4,0.2c1.1,0,0.8-1.1,1.1-1.6c0.8-1.4,2.2-3.3,1.9-5.1l0.1,0.1
	c-0.2-0.6-0.4-0.9-0.4-1.4c-1.1-1.7-1.3-4.6-3.6-5.8c-0.2-0.2-0.9-0.6-1.6-0.5c-1.4,0.4-2.9,1.1-3.2,2.6c-0.6,1.2-0.6,1.4-1.2,2.5
	C153.3,223.4,152.2,224,152.6,225.2z M339.9,219.7c0.6-0.6-0.1-1.6-0.2-2.1c-0.2,0-0.4-0.8-1-0.6c-0.6,0.9-0.2,2.2,0.1,3.1
	C339.5,220.2,339.6,219.8,339.9,219.7z M191.1,218v-0.1H191v0.1H191.1z M138.3,227.2c0-0.1,0-0.1,0-0.1V227
	C138.2,227.1,138.3,227.2,138.3,227.2L138.3,227.2z M139.6,230.4c0.3-0.4,0.1-1.1,0.4-1.4v-0.4c0.6-1.1,1.3-3.1,2.1-3.6
	c0.2-1.1,0.9-1.3,1.3-2.2c-0.4-1.3-0.6-2.6-1.1-3.7c-0.5-0.2-0.1-0.6-0.8-0.4c-0.1,0.1-0.6,0.9-0.2,0.6c-0.9,1.4-1.1,2-1.3,3.3
	c-0.8,0.4-0.5,2.1-0.9,2.5L139,225c0.1,0.6-0.1,0.9-0.2,1.2h-0.1v0.1h0.1c-0.1,0.2-0.2,0.5-0.3,0.9c0.1,0.1,0.2,0.4,0,0.4v-0.1
	l-0.1,1.1h-0.1c-0.1,0.6,0.1,1.4,0.5,1.9C138.8,230.5,139.6,230.7,139.6,230.4L139.6,230.4z M375.8,219.4h-0.1v0.1h0.1V219.4z
	 M191.9,219.9v-0.1h-0.1v0.1H191.9z M342.5,221.1c0,0,0,0,0.1,0.1c0,0,0,0,0-0.1H342.5z M346.6,223.6c-0.8-1.6-2.4-1.9-4-2.6
	c-0.8,0.6-1,0.2-1.6,0.8c-1,0.5-1.8,2.4-2.6,3.1c-0.1,1.7,0.5,4.6-0.4,6.1c-0.5,2.4,1.1,3.6,1.7,4.8c0.9,1.1,1,1.3,2.1,2.5
	c0.1,0,0.1,0,0.2,0v0.1h0.1v-0.1c0.9,0.1,1.8,0.9,2.6,0.1c0.1-2.2,0-2.5,0.9-4.4c0-0.2,0.1-0.5,0.2-0.8c0.1,0,0.1,0.2,0.1,0.1
	c0.4-1.6,1.7-3.4,2.5-4.6C348.2,226.9,347.5,225,346.6,223.6L346.6,223.6z M358.9,227.1c0.1,0.4-0.1,0.9-0.2,1.4
	c-0.5,3.8,1.5,4.8,2,8h0.2c0.2,3.1,2.9,0.1,4.7,1.1c0.9,0.2,0.6,0.9,1.5,0.6c0-0.1-0.1-0.2,0.1-0.2c0,0,0,0,0,0.1
	c0-0.1,0-0.2,0.1-0.4l0.1,0.1c-0.1-1.7,0.4-2.5,1.1-3.7c0.2-1.7,1-1.9,1.3-3.3l0.1,0.1c0.1-0.2-0.4-0.6-0.1-0.8l0.1,0.1
	c-0.5-0.6-0.8-2.2-1.3-3.3c-0.1-1.3-1.3-2.8-2.2-3.8c0-0.6-0.9-0.9-1-1.3c-0.9-0.6-1.8-1.1-2.4-0.8c-0.2-0.2-0.6,0.5-1.3,0.2
	c-1,0.6-1.3,1.9-2,2.8l-0.1-0.1l-0.4,1.1c0,0.1-0.1,0.5-0.2,0.4c0.2,0.5-0.2,0.9-0.4,1.3L358.9,227.1L358.9,227.1z M343.9,221.4v0.1
	h0.1v-0.1H343.9z M312.2,222.9v0.1h0.1v-0.1H312.2z M146.9,224.1L146.9,224.1L146.9,224.1z M143.4,226.7c-0.6,0.8-0.5,1.9-1.1,2.8
	c0,0.5-0.1,1.4-0.5,1.9c-0.6,1.7,0.6,3.6,1.1,4.2c0.6,0.8,1.1,1.9,1.4,2.8c0.1,1.1,1.3,1.1,2.2,1.1v-0.2c0.2-0.1,0.2,0.2,0.4,0.2
	v-0.2c0.5,0.2,1.6,0.1,2.1,0.5c0.8-0.2,1.1-1.6,1.4-2.8l0.1,0.1c0.4-1.4,1.1-2.2,1.6-3c0.6-1.2-0.1-2.6-0.5-3.7
	c-0.5-3-2.3-4.9-4.6-6.1l-1.4,0.2C144.5,224.9,144.1,225.7,143.4,226.7L143.4,226.7z M312.5,225.4v0.1h0.1v-0.1H312.5z M167.6,225.9
	c-2.4,0.2-4.1,2.9-4.6,5.1l-0.1-0.1c-0.1,0.6-0.2,1.6-0.4,2c0.9,2.8,2.2,4.1,3,6.7c1.7,0.5,2.9,0.5,4.6,1.2c0.8-0.4,1.6-1.4,1.8-2
	c0-0.1,0.4-0.6,0-0.5c1.1-0.8,1.1-2,1.8-2.8c0.6-2.1-0.2-4.4-1.4-6.3C170.7,228.2,169.9,225.9,167.6,225.9L167.6,225.9z
	 M377.8,226.3h-0.1v0.1h0.1V226.3z M133.8,227.4h-0.1v0.1h0.1V227.4z M201.7,228v0.1h0.2V228H201.7z M204,248.1
	c-0.6-2.1-3-4.2-3.6-6.1c0.4-2.8-0.8-3.9-0.9-6.7c0.1-1.3-0.5-1.9-0.1-2.4c-0.2-0.6,0.2-0.6,0-1.2c-0.4-1.1-0.2-2.1-0.9-2.6
	c-0.9-0.4-0.2,0.2-0.9,0.6h-0.1l-0.4,0.8v-0.1c-0.1,0.9-1.9,2.5-1.9,3.6c-1.3,1.7-2.2,4.6-3.6,6.3v-0.1c0,0.1-0.4,0.6-0.5,0.8v-0.1
	H191v0.2h0.1c-0.9,1.1-1.8,3.1-2.9,4.6c-0.8,2-2.4,3.8-2.8,5.2c0.2,0.1,0.6,0.2,0.9,0.4s0.8,0.1,0.9,0.4c0.9,0,0.5,0.1,1.1,0.4
	c1.4-1.2,1.4-2.9,3.2-3.7c0.5-1,1.8-1.2,2.6-1.7c0.8-0.1,2.4-0.9,3.8-0.6c0.4,0.1,0.9,0.4,1.5,0.5h-0.1v0.1h0.1v-0.1
	c1.6,0.5,3.3,1,4.4,1.9L204,248.1L204,248.1z M358.4,229.7v0.1h0.1v-0.1H358.4z M358.1,238.2l0.1,0.1c-0.4-0.9-0.4-1.6-0.9-2.4
	c-0.5-2.2-0.9-2.6-2.5-4.2c-0.5-1.2-3-0.8-3.5-0.8v-0.1c-0.6,0.8-0.9,0.6-1.7,1.4c-0.8,1.4-2.4,3.6-2.2,5.9c0,0-0.1,0-0.1-0.1
	c0,0.1,0.1,0.4-0.1,0.5c0,0.4-0.1,1.3,0,2.1l0,0v0.2l0,0c0.1,0.6,0.2,1,0.6,1.3c0.4,0.1,0.1,1.1,0.4,0.6c0,1.1,1.3,2,1.4,3.3
	c1.5,2,3.6-0.4,5.2,1.2c0.6,0.2,0.5-1,0.8-1c0-0.1,0.1-0.5,0.1-0.6h0.1c0.4-1.7,0.6-2.1,1.3-3.4c-0.1-0.9,0.8-0.8,0.5-1.3
	C358.8,240.8,357.8,238.6,358.1,238.2L358.1,238.2z M311.4,231.1h-0.1v0.1h0.1V231.1z M311.2,231.8h0.1v-0.1h-0.1V231.8z
	 M371.5,234.6c-0.5,0.9-0.8,2.2-1.1,3.4v-0.1c-0.1,0.4,0.1,1.2-0.2,1.1c0.2,0.1,0,0.2-0.1,0.4c0.1,0.8-0.1,2.1,0.4,2.4
	c0.6,1.9,1.5,3.2,2.6,4.8c0.4,0.1,1,0,1-0.2l0.1,0.1c0-0.2,0.6-0.2,0.9-0.4c0.8-1.2,0.6-2.1,0.5-3.1l0,0v-0.2l0,0
	c0-0.6-0.1-1.1,0-1.9l0,0v-0.1c0-0.1,0-0.1,0-0.1c-0.1-0.4-0.1-0.7-0.2-1.1h0.1v-0.1h-0.1c-0.4-2.4-0.5-4.6-1-6.9
	c-0.4-0.9-1,0.2-1.3,0.2C372.1,233.4,372.1,234,371.5,234.6L371.5,234.6z M136.2,245.8c0.4,1,1.1,1.5,2.1,1.7v0.1l1.1,0.1
	c0.2-0.1,0.9-0.4,0.8-1l0.1,0.1c0.2-1.9,1.1-3.3,1.9-4.9c-0.1-0.4-0.1-1.9-0.2-2.4c-0.4-0.4-0.3-1.2-0.4-1.9
	c-0.2-0.4-0.4-0.8-0.6-1.2h0.1v-0.1H141v0.1c-0.6-1.4-1.2-2.8-3-3.4c-0.6,0.2-0.6,1.4-0.6,2h-0.1c-0.2,0.2,0,1.3-0.2,1.3
	c-0.2,0.6-0.2,2,0,2.9c-0.2,0.2,0,0-0.1,0.2h-0.1v0.4C137.2,241.8,135.8,243.5,136.2,245.8L136.2,245.8z M141.9,239.6L141.9,239.6
	c0.1,0.1,0.1,0.1,0.1,0.1L141.9,239.6z M158.1,233.6c-0.2-0.1-0.9-0.2-1.1,0c-0.1-0.4,0,0.2-0.2-0.1c-0.2,0.1-0.9,0-1.1,0.6
	c-1.1,0.1-1.1,1.6-2.1,1.9c0,2-2.1,4.4-1.1,6.2c0,0.6,0.6,0.2,0.5,1.1c0.8,1.2,1.2,1.8,1.7,3.3c0.8,0.6,0.4,2.5,1.8,2.1
	c0.1-0.6,2.2-0.4,2.9-1c0.2-0.4,0.8-1.2,0.6-1.3c0.4-1.5,1.7-3.4,2.4-4.8C162.1,238.3,160.5,234.9,158.1,233.6L158.1,233.6z
	 M227.1,236.6v0.1h0.1v-0.1H227.1z M336.5,242.2c0.6-0.6,1-1.9,2.1-2.5c0.4-1.1-0.4-1.4-0.9-2.1c-0.8,0.6-0.6,0.6-0.9,1.9l-0.1-0.1
	c-0.4,0.5,0.1,1.4-0.4,1.9C336.2,241.8,336,242.2,336.5,242.2L336.5,242.2z M305.1,241.6L305.1,241.6L305.1,241.6z M286.9,243
	L286.9,243c-0.1,0-0.1,0-0.1,0H286.9z M297.9,243.2l-0.1,0.1C297.8,243.4,297.9,243.4,297.9,243.2z M245.4,242.4
	c-1.8-0.1-2.4-0.6-3.8-0.9c-0.1,0-0.1,0-0.1,0v-0.1h-0.1v0.1c-1.4-0.1-1.9-0.4-2.8-0.5c-3-0.6-6.4-1.1-8.2-0.9
	c-0.4-0.2-1.7-0.2-1.9-0.5c-1.8,0-6.1,0.2-8.9,0.2v-0.1h-0.1v0.1c-0.2,0-0.4,0-0.5,0c-1.9,0.5-1.8,0.1-3,0.2c-2.6,0.8-3,0.2-5.4,1.1
	c-0.5-0.1-2.8,0.9-3.5,1.3c-0.2,0.4-0.9,0.4-0.5,1.2c2.1-0.2,5.1-0.1,6.2-0.8c0.9,0,1.7-0.6,2.4-0.4c1.4-0.1,3-0.6,4.1-0.6v-0.2
	c0.4,0,1.6-0.2,1.9-0.4V241c0.6,0,1.4,0,2.1,0.1v0.1c0.1,0.1,0.2-0.6,0.2-0.1l0.1-0.1l0.2,0.2v-0.1l0.6,0.6c0,0.4,0.1,1.2-0.1,1.2
	c-1.3,0.5-4.4,0.6-5.9,1.3c-1.4,0.4-3.2,0.5-4.1,0.6c-2.4,1-3.1,0.5-5.3,1c0.2,0.2-0.9,0.1-0.6,0.6c1.4-0.1,3.4,0.1,4.3-0.4
	c2.6,0,3.1-0.5,5.4-0.8c0.4-0.2,1.1-0.6,1.7-0.5c-0.1,0,0.1-0.2,0.2-0.1c0.2-0.1,1.1,0,0.6-0.2c1.3,0,1.9-0.1,2.8-0.6
	c1.6,0.2,2.9-0.6,4.6-0.4v0.1c1.3-0.8,4.9-1.6,5.9-1.1c-0.1,0-0.1,0.1-0.2,0.1c0.6,0.1,1.1-0.2,1.1,0.9c-0.1,1-1.9,0.6-1.9,1.3
	c-1.6-0.4-2.2,1.2-3.5,0.5c-0.4,0,0,0.4-0.5,0.2c0.1,0.2-1.1,0.1-0.5,0.4c-1.4-0.5-2.9,1-3.8,0.6l0.1-0.1c-0.6,0.2-1.7,0.5-1.8,0.5
	c-0.2,0.4-1.1-0.1-1.3,0.1c-0.2,0-0.4,0.1-0.8,0.1v-0.1h-0.1v0.1h0.1c-1.1,0.1-2.6,0.1-2.9,0.6c-0.5-0.5-0.6,0.1-1.6,0
	c-1.6,0.6-3.4,0.5-4.6,1c0.1,0.1-0.4,0.5-0.2,1c0.2-0.1,1.3-0.1,1.1-0.4c0.1,0,0.2-0.1,0.4,0.1c0-0.1,1.3-0.2,1.7-0.4
	c0.6,0,2.4,0,3.2-0.6c0.9-0.1,1.9-0.6,2.4-0.4v0.1c0-0.4,0.6-0.2,1.1-0.4c0.5-0.5,2.4-0.5,2.7-0.6c0.8,0,0.8,0,1.1,0l0.2-0.1
	l0.1,0.1c0.1-0.1,0.1,0,0.2,0l0,0l0,0c0.1,0,0.2,0.1,0.4,0l0,0l1.1-0.1v-0.1c0.2-0.1,0.4-0.1,0.5-0.2c0.8,0,1.7-0.1,1.8,0.2
	c0.1,0.2,0.4,0.5,0.2,0.9c0.1,0.2-0.1,0.5-0.2,0.5l0.1,0.1c-0.5,0.5-0.5,0.5-1.1,0.9c-1.3-0.1-2.6,0.8-3.6,0.6v-0.1
	c-1.3,0.6-3.1,0.5-4.7,1c0,0.2-2.1-0.2-2.1,0.5c-0.4-0.2-0.5-0.2-0.6-0.1c-2.4,0.5-2.2,0.1-4.1,1c0.2,0.4,0,0.2,0,0.6
	c0.2,0.1,0.4-0.1,0.6-0.1c2.6-0.2,4.3-0.8,6.6-0.9c1.7-0.6,2.1-0.8,3.8-0.9v-0.1c0.2-0.4,2.1-0.1,2.4-0.6c1.4,0.1,2.9-0.8,3.8-0.6
	c0.6,0.2,0.6-0.2,1.1-0.2l-0.1,0.1l0.6-0.2c1.7,0,3.2-1,5.2-1v-0.1c0.9-0.1,2-0.4,3.1-0.6v0.1h0.1V247c1.1-0.3,2.2-0.6,2.9-0.9
	c0.5,0,1.4,0.5,1.3,0.6h0.1c0,0.2,0.6,0.1,0.5,0.4h-0.1c0.6,0.5,1.6,0.8,1.8,1c1.4,0.2,2.8,1.3,3.8,1.5l-0.1,0.1l1.7,0.1
	c1.3,0.9,2.5,0.1,4,0.5c-0.1,0-0.1,0.1-0.2,0.1c1,0,1.3,0,2.4-0.4c0.2,0.1,0.5,0.1,0.6,0.1v0.1h0.1v-0.1c1,0,2-0.9,3.4-0.5v-0.2
	c0.6,0,0.5,0.1,0.9-0.1c1.5-0.5,1.7-0.9,2.9-1.5h-0.1c0.5,0,0.5-0.4,0.8-0.5c0.8-0.6,1-1,1.8-1.5c0.4-0.4,0.9-0.4,1.4-0.2h-0.1v0.2
	h0.1v-0.4c0.9,0.2,1.8,0.7,2,0.5l0.4,0.4c0.6-0.1,1.7,0.2,1.8,0c0-0.1,0.5,0.4,0.9,0.2l-0.1,0.1l1.7,0.2c1,0.1,1.5,0.5,2.7,0.6
	c0.8,0.1,1.5,0.2,2.4,0.4v0.1c0.2-0.1,0.8,0.1,0.9-0.1c0.1-0.4-1.4-1-0.9-1.9c0.2-0.4,0.8-1,1-1s0.8-0.1,0.8,0.1l0.1-0.1
	c0.6,0.4,2.2,0.2,2.5,0.6c0.8,0.1,1.3,0.1,1.8,0.1c0,0.2,0.4,0,0.4,0.2v0.1l0.1-0.2c0.8,0.5,1.4,0,2,0.6c1.5-0.2,2.1,0.8,3.6,0.6
	c0.6-0.2,1,0.2,1.1,0l0.6,0.2c0.7,0,1.2,0.4,1.6,0.5c0.6,0.2,2.2-0.2,2.6,0.5c0.8,0,0.8,0.1,1.1-0.6v0.5c-1.5-0.8-2.7-1-4.6-0.9
	c-0.6-0.6-1.5,0-2.1-0.1l-0.2-0.2c-1.5-0.4-2.6-0.6-4.3-0.6c-1.1,0.1-1.5-0.4-2.4-0.2c-0.6-0.8-1.7,0-2.8-0.8v-0.1
	c-0.1,0.2-0.2-0.2-0.2,0.2c-0.6-0.4-2.2-0.2-3.2-0.9c-1.7,0.2-3.9-0.2-4.5-1.3c0.1-0.6,0.1-1.2,0.4-1.3c1.1-0.6,2,0.4,3.4,0.4v0.1
	c0.9,0.1,1.5,0.1,2.7,0c0.4,0,0.8,0.2,1.3,0.5c1.3,0,1.2,0.4,2.3,0.4c1.3-0.1,2.6,0.6,3.7,0.8c0.2-0.2,0.2,0.2,0.4-0.1
	c0.5,0,1.3-0.2,1.8,0.2l-0.1,0.1c0.6-0.1,1.5,0.2,2,0.4c2.5,0.2,4,0.4,6.4,0.9h0.2c0.6,0.1,1.7,0.5,2-0.4c0.1-1.1-1.5-0.6-2.1-0.9
	c0-0.1,0.1-0.1,0.1-0.1c-0.5-0.1-0.9,0-1.5,0c-0.1,0-0.1,0-0.1-0.1v-0.1c-0.8,0.4-1-0.6-1.8-0.2v-0.1c-0.1,0-0.5-0.1-0.5,0.1v-0.1
	c-0.8,0.4-2.5-0.4-3.1-0.1c-0.5-0.1-1.5-0.5-1.7-0.2v-0.1c-0.5,0-1-0.2-1.5-0.4l-0.2,0.1c-0.2-0.2-2.4,0.2-2.9-0.1
	c-0.5-0.5-1.7-0.4-2-0.8c-1.7-0.4,0.4-2.4-1.3-2.4c-0.8,0-1.1-0.2-1.5-0.1c-1.1-0.1-2,0.4-3.1,0.5c-1.1-0.1-1.8,0-3.2,0.4
	c-0.4,0.4-0.4,0-0.8,0c-1,0-1.7,0.6-2.8,0.6c-1.4,0.6-3.6,0.6-4.3,1.3c-3,0.5-4.8,1.7-7.4,2.1c-0.5,0.2-1,0.4-1.4,0.6l0,0h-0.1v0.1
	c-1.3,0.6-2.3,1.1-4,1.4c-2.5-1.3-4.9-2.2-7-2.8C247.5,242.8,246.8,243,245.4,242.4L245.4,242.4z M233.2,242.4
	c-0.1,0-0.1-0.1-0.1-0.1C233.2,242.4,233.2,242.4,233.2,242.4z M295.8,247.8L295.8,247.8h-0.1H295.8z M176.1,241.8
	c-0.6-0.6-0.4-2.5-1.7-1.9c-0.9,0.2-1.1,1.4-1.4,2.8c-0.2,0.6,0.5,1.6,0.6,1.9c0.5,0.2,0.6,1.7,1.3,2.1c-0.1,0-0.1,0.1-0.2,0.1
	c0.2,0.2,0.8,0.8,0.6,1.5c0.9,1.7,0.5,3.4,1.9,4.9c0.6,0.1,0.5-0.1,1.1-0.5c0.9-0.6,0.6-0.8,0.4-1.7c-0.6-0.9-1.1-2.2-1.1-3
	c-0.4-0.6-0.1-1.5-0.8-2.4C177,244.2,176.1,242.9,176.1,241.8L176.1,241.8z M368.4,251.1l0.1,0.1c0.2-0.5,0.5-0.4,0.6-1
	c0.2,0.1,0.9-0.9,0.9-1.2c0.4-2-1.1-3.4-2.1-5l0.1-0.1c-1-1.1-1.5-3.3-3.4-3.4l0.1-0.1h-2c-1.8,1.2-3.1,2.5-4,4.9v-0.1
	c0,1.3-1.3,2.6-0.6,4.4c-0.1,2.4,0.5,2.9,1,4.7c0.2,1,0.4,1.7,0.9,2c0.1,0.4-0.1,0.4,0.1,0.6c0.6,0,1.3,0,1.8-0.5
	c1-0.1,1.7,0.4,2.7-0.1v-0.2h0.9c0.5-0.1,0.9-0.6,1-1.5l0.1,0.1c0-1,0.6-1.5,1-2.6c0,0,0,0,0,0.1L368.4,251.1L368.4,251.1z
	 M346.9,247c-0.5-2.2-1.5-3.6-2.9-5.1c-0.8,0-1.5-0.4-1.7-0.1c-0.2-0.2-0.2,0-0.5,0v-0.1c-1.9,0.2-2.8,2.2-3.8,3.8
	c0,0.9-0.8,1.3-0.6,2.4c-0.1,1-0.6,1.3-0.1,2.2c-0.2,0.2,0.8,0.1,1,0.1v-0.1c0.4,0,0.9,0,1.3-0.1v0.1h0.1V250c2-0.1,4-0.2,5.2,1.3
	c1.5-0.1,1.5-0.6,2.4-2C346.9,248.4,347.3,247.6,346.9,247L346.9,247z M152.8,249h0.1c-0.9-1.7-0.9-3.7-2.1-4.8
	c-0.8-1.6-2.6-2.8-4.3-2.5v0.1c-1.9,0.5-3,2.1-3.6,4c-0.1,0-0.1,0-0.1-0.1c0.1,0.6-0.1,1.1-0.4,1.7c0,0,0,0-0.1-0.1
	c-0.1,0.6,0,1.5-0.4,1.9l-0.1-0.1c0.2,2,1.1,3,1.9,5h-0.1c0.5,0.1,0.4,0.9,0.5,1.3h0.1v0.4l0.1-0.1c0,0.5,0.3,1,0.3,1.4
	c0.4,0.5,0.5,1.5,0.9,2.3c0.3,0.1,0.7,0.2,1.1,0.3v0.2h0.1v-0.2c0.1,0,0.3,0,0.4,0.1v0.1c0.4,0.2,2.1,0.1,2.6,0.4
	c0.6-0.4,1.1-2.1,1.1-2.6v0.1c0.4-1.2,0.6-2.8,0.9-3.7l0.1,0.1l0.4-1.2c0.8-1,0.9-1.3,0.6-2.8h0.1
	C152.8,249.9,152.8,249.4,152.8,249L152.8,249z M142.3,247.4c0,0,0-0.1,0.1-0.1C142.2,247.3,142.3,247.4,142.3,247.4z M144.7,257.2
	c0,0,0,0,0-0.1l0,0C144.6,257.2,144.7,257.2,144.7,257.2z M302,241.9v-0.1c0.4,0,0.6,0.1,1.3-0.1c0-0.2,1.4,0.9,1.8-0.2L305,241
	c-0.2-0.4-1.5-0.9-2.2-1.1h-0.5c-0.7-0.6-1.7-0.5-2.6-0.5l0,0h-0.1c-0.5-0.1-1-0.1-1.5-0.4c-1.4,0.1-3.6-0.6-4.3-0.4
	c-1.3-0.1-3,0.2-4.4-0.1c-0.5,0.5-1.8-0.1-2.4,0.4c-0.5,0.4,0.1,0.5,0,0.8c2.5-0.2,3.2,0.9,5.7,0.6l-0.1,0.1
	c0.4,0.2,1.8,0.2,2.4,0.4v0.1l0.1-0.2c0.4,0,0.8,0,1,0.1v0.1c2.2,0,3.8,0.8,5.4,0.8v0.1c0.1-0.1,0.2-0.1,0.4-0.1v0.1L302,241.9
	L302,241.9z M168.4,253.1c1.1-0.1,1.7-1,2.7-0.8v-0.1c0.6,0,0.9-0.1,1.3-0.1v-0.2c0.4,0.2,0.4-0.2,0.5-0.4c-0.4-1-0.8-3.7-1.4-5
	l-0.1,0.1c0-0.5-0.2-0.9-0.8-1.2c-0.4-1.3-1.4-1.4-2.4-2c0.1-0.1,0.1-0.1,0.2-0.1c-1.8-1.2-2.2,0.2-3.6,0.4
	c-0.5,0.2-1.8,2.1-1.8,2.4c-0.4,0.2-0.2,0.9-0.5,1.5c0-0.1,0-0.1,0-0.2c-0.1,0.6-0.6,0.9-0.2,1.9c1.7,1.6,2.8,4.2,4.1,5.2v0.1
	C167.1,254.2,167.8,253.7,168.4,253.1L168.4,253.1z M314.1,245.2h0.1v-0.1h-0.1V245.2z M227.1,246.5v0.1h0.1v-0.1H227.1z M298,248.4
	v0.1h0.1v-0.1H298z M310.5,251.4L310.5,251.4v-0.1V251.4z M231.6,249v-0.1h-0.1v0.1H231.6z M375,249c-0.8,0.1-1.1,0.8-1.7,1
	c-0.9,0.1-1.1,0.9-1.5,1.7c-0.8,0.2-1,1.3-1.7,1.9c-0.1,1.2,0,1.3,0.4,1.9c1-0.1,2.1,0.1,2.5-0.5l0.1,0.2V255c0.5,0.1,1,0,1.5,0v0.2
	h0.1V255c0.1,0,0.3,0.1,0.4,0.2c0.6,0,0.6-0.1,0.9-0.8v0.1c0.1-0.8-0.1-1.5,0-2.1l-0.1-0.1l0.1-0.1c0.2-0.8,0-1.5,0-2.4
	C375.9,249.2,375.4,249.3,375,249L375,249z M290.1,249c0,0.1-0.1,0.2-0.1,0.2l-0.1-0.2c-0.4,0.2-0.4,0.2-0.4,0.6
	c0.5-0.1,1.1,0,1.3,0.4h1.1c0.1-0.8-1.4-0.6-1.7-0.9L290.1,249L290.1,249z M137,257c0,4.4,4.1,1,5.2,2.1c0.8-0.5,0-1.6,0.1-2.5
	l-0.1,0.1c-0.5-1.6-0.8-2.9-1.7-3.7c-0.6-1.2-1.9-3.1-3.6-3.3c-1.1,0.6-0.1,1.3-0.5,2.1l0.1,0.1l-0.2,0.1v0.5
	C137.1,253.9,136.2,256.3,137,257L137,257z M354.6,260c0.8-0.4,1.1-0.6,1.7-1c0-0.1,0.2-0.2,0.5-0.2c0.1-0.5,0.6-0.8,0.8-1.2
	c-1.2-2.6-1-4.5-2.8-6.7c-0.6-1-2-0.9-3.1-0.8V250c-1.5,0.8-2,1.5-2.8,2.2c-0.4,1-0.9,1.3-0.8,2.9H348c-0.1,1.6,0.4,2.6-0.2,3.8
	v-0.1c-0.1,0.4-0.6,1-0.6,1.3c-0.6,0.5-0.6,1.6-1.7,2c-1.1,0.8-1.5,1.5-2.7,2c-2,0.8-3.4,0.8-5.2,1c-0.2,0.1-0.5,0.8-0.1,1
	c0.5,2,1.3,2.9,1,4.9v-0.1c0,0.3,0,0.4-0.1,0.5l0,0v0.1c-0.1,0.1-0.2,0.2-0.2,0.7s-0.3,1-0.5,1.5h-0.1v0.1l0,0c0,0.1,0,0.1,0,0.2
	l-0.2,0.2l0.1,0.1l-0.2,0.1c0,0.2-0.5,0.4-0.2,0.6c-1,0.8-1.1,1.5-2.1,2.6c1,0.2,1.1-0.9,3-0.5c-0.5-0.4,0.8-0.1,0.5-0.4
	c1.3-0.6,2.8,1.6,3.4,2.1c0.6-1.5,1.5-3.7,2.2-5.8c-0.2-0.6,0.4-0.6,0.4-1.2l0.1,0.1l0.4-1l0.4-0.9c0.1,0.1,0.1,0.1,0.1,0.2h0.1V270
	h-0.1c0,0,0.1-0.1,0.1,0c0-0.8,0.5-0.5,0.4-1.3c0.1,0.1,0.1,0.1,0.1,0.2c0.1-0.2,0-0.5,0.2-0.8v0.1c0.4-0.2,0.4-0.4,0.4-0.6h0.1
	c0.6-0.6,1.1-1.7,1.8-2.2c0.1-1,1.5-1.7,2-2.2c0.8-0.1,0.9-0.9,1.3-0.9l-0.1-0.1c0.9-0.4,1.1-1,2-1.6
	C354.3,260.4,354.2,260,354.6,260L354.6,260z M298.4,251.1c-0.1-0.6-1.1-0.4-1.7-0.6l0.1-0.1l-0.4,0.1c-0.4,0.2-2-0.8-2.6-0.1
	c0.4,0.4,0.9,0.2,1.7,0.4c0.1,0,0.4-0.1,0.4,0s-0.1,0.1-0.2,0.1c1.3,0.5,1.5,0.1,2.7,0.5V251.1L298.4,251.1z M294,250v0.1h0.1V250
	H294z M168.9,259L168.9,259v-0.1V259z M201.8,261.2L201.8,261.2C201.7,261.4,201.8,261.2,201.8,261.2z M196.2,254.9
	c-0.1,0-0.1,0-0.1,0H196H196.2L196.2,254.9z M202.9,258.8c0-0.5,0.1-1.2,0.2-1.2c0.1-0.4,0.2-0.6,0.2-1c-0.8-1.5-0.5-2.9-1.7-4.1
	c-0.4-0.6-0.9-1.3-1.7-1.5c-1.6-0.4-3.5-0.1-4.4-0.2c-1.7,0.8-2.6,2-3,3.5c0.2,1.3,0.9,1.5,1.9,2c0.5,0,0.9-0.4,1.1-0.8l0.1,0.1
	c0.2-0.1,0.2-0.8,0.4-0.9l1.2-1.2c1.9,0.1,1.9,0.6,2.8,1.9c0.1,1-0.2,1.3-0.1,2c0,0.1-0.1,0.3-0.1,0.3h-0.1c0.1,0.2-0.1,0.5-0.1,0.7
	c0,0-0.1,0-0.1-0.1l-0.5,1l-0.1-0.1c0.1,0.1-0.5,0.5-0.8,0.8c-0.4,0.2-0.9,0.1-1.1,0.8c-2.2,0.2-4.3,0.4-5.7-1.3
	c-1.1-0.2-1.6-1.7-2.1-2.4c-0.4-1-2.6-1.5-3.9-1.9c-2.2-0.4-5.2,0.2-6.5,2.1c-0.1,0.2-0.5,0.2-1.1,0l-0.2-0.2
	c-0.8-0.5-1.3-0.5-2.1-0.6v-0.1c-1.1-0.1-1.9-0.4-3.2-0.1c-1.1,0.2-2.6,1-2.9,2.8c0,0-0.1-0.1-0.1-0.2c0,0.2,0.1,0.4-0.1,0.5
	c0,0.4,0.1,1,0.4,1.3c1.1,2.2,2.2,2.4,4.9,3c1.1-0.4,2.7,0.1,3.8,0v-0.1h0.9v0.1h0.1v-0.1h2.4v0.1c1.1,0,2.8,0,3.6,0v-0.1
	c1.1,0.1,2.6-0.4,3.4,0.4h-0.1c1.6,0.4,2.6-0.9,3.9,0.1l-0.1,0.1c1.1-0.2,3.2-1,5.2-0.6v0.1c1.7-0.4,3.5-0.5,4.3-2.2
	c0.1,0,0.1,0,0.1,0C202.4,260.3,202.8,259.3,202.9,258.8c-0.2-0.1-0.1-0.1-0.1-0.2L202.9,258.8L202.9,258.8z M206.4,252.5h0.1v-0.1
	h-0.1V252.5z M212.6,252.4v0.1h0.1v-0.1H212.6z M279.7,253.8v-0.1h-0.2v0.1H279.7z M243.2,255.6v-0.1h-0.1v0.1H243.2L243.2,255.6z
	 M223.1,255.9v-0.1H223v0.1H223.1z M365.3,256.1V256h-0.1v0.1H365.3z M344,256.6h0.1v-0.1H344V256.6z M219.5,256.8v-0.1h-0.1v0.1
	H219.5z M297.9,257.2v-0.1h-0.1v0.1H297.9z M302,257.8v-0.1h-0.1v0.1H302z M370.2,281.8l0.1,0.1l-0.8,0.2c-1.5,2.1-3.1,3.5-4.8,5.5
	c-0.1,0.2-0.6,0.6-1,1.2c-1.5,1.2-3.1,3.4-4.8,4.2c-0.8,0.5-2.2,1.9-3,2c-2.4,0.8-2.5,1.3-5.4,1c-0.2-0.1-0.5,0-0.6-0.4
	c-0.6-0.1-1.8,0-2-0.1c-3.6-2.3-6.4-5.1-6.2-9.5h0.1l0,0h-0.1c0-0.3,0-0.6,0.1-0.9l-0.1-0.1l0.1-0.1l0.1,0.1c0-1-0.9-1.7-0.3-2.9
	c0-0.2,0-0.4-0.1-0.5c-1.2,0.1-0.8,1.7-1.3,2.4v-0.1c-0.2,0.8,0.1,1.9-0.8,2.5c0,0.5-0.2,1-0.5,1.6l-0.1-0.1c0.2,0.9-1,1.6-1.2,2.1
	c-0.2,0-0.5,0-0.6,0l0,0h-0.1c-0.5,0-0.9-0.1-1.3-0.5c-0.5-0.6-0.2-1.9,0-2.6c0.2-0.2-0.1-0.6,0.2-0.5c0.4-1.3,1-2.6,0.9-4.4
	c-0.6-0.6-1.3,0.8-2,0.6c-0.4,0.9-2,1-2.4,1.9c-1.8,1.6-4.3,4.5-6.1,5c-0.5,0.2-1.3,0.6-2,0c0.2-0.6-1-0.9-0.4-1.7l-0.1-0.1
	c0.2-0.1,0.6-1,1-1.5c0.5-0.6,1-1,1.5-1.3c0.4-0.6,0.9-1.2,2-1.9c0.2-0.6,2.1-1.2,1.8-1.5c0.2-0.2,0.4-0.5,0.5-0.4
	c1.1-0.8,2-1.5,2.6-2c0.4,0,0.1-0.1,0.2-0.4h-0.2c-0.9,1-2.6,0.4-4,0.6c-1.1,0.4-2.9-0.5-3.9-0.8v-0.1h-0.4
	c-1.5-0.5-2.8-2.5-3.8-3.5c-0.4-0.8-1.1-1.6-1.1-2.9c-0.6-0.4-0.1-1.3-0.4-1.9l0.1,0.1c-0.4-0.5,0-0.8-0.1-1.2l0.1,0.1l-0.1-0.2
	c0-0.1-0.1-0.5,0-0.6l0.1,0.1c0-0.2-0.1-0.4,0.1-0.5c0-1.2,0.4-1.2,0.6-2.1c-0.6-1.6-2.9-0.6-4.3-1c-1-0.4-2.1,0.2-3.1-0.4l0,0v-0.1
	h-0.1v0.1c0,0-0.1,0-0.1-0.1c-1.8,0.1-2.1-0.6-4-1.2c0-0.1,0.1-0.1,0.1-0.1c-0.4-0.4-0.4,0.1-0.5-0.2c-1-1.2-3,0-4.4-0.8
	c-1-0.2-2.6,0-3.1,0.2c-0.2-0.1-0.6-0.4-0.8-0.2v-0.1c-1.3-0.2-2.5,0.2-3.8-0.4c-1.7-0.2-4.7-0.8-6.5-1.5c-2.1,0.2-4.5-1-6.5-1
	c-1,0-1.1-0.1-1.8-0.4v0.1c-2.1,0.4-5-0.1-6.8,0.5c-1.1,0.1-2,0.6-3,0.8c-1.1,0.6-2.6,1.5-3.6,2.2c-0.9,1-2.6,2.2-2.9,3.8l-0.1-0.1
	c0,0.6-0.1,0.8-0.4,1.6v-0.1c0,0.2-0.1,1-0.2,1c0,0.2-0.2,0.8,0,0.6c0,0.1-0.1,0.1-0.1,0.2L264,269c0.1,1,0.5,1.2,0.5,2.2l0.4,0.4
	c0.4,0.9,0.9,1.3,1.7,2l0,0c0.2,0,0.4,0.1,0.6,0.2l-0.1,0.1c0.9,0.6,3.1,0.2,4.8,0.4c0.1,0,0.9-0.4,1.3,0c0.6,0,1.7,0.1,2.2-0.1
	c0.8,0.4,1.5-0.1,2.1,0.1v-0.1c0.4-0.2,0.4,0.4,0.6,0v0.1l0.1-0.1c0,0,0.2-0.1,0.2,0v0.1h0.4v-0.1c0.2,0,0.4,0.1,0.6,0v0.1l0.1-0.1
	c0.1,0.4,0-0.2,0.2,0v0.1c0.5,0.1,0-0.1,0.4-0.1c0.1,0,0.1,0.2,0.1,0h0.1l0.1,0.1l0.1-0.1c0.2-0.1,0.5,0.1,0.4,0h0.1
	c0.4,0.4,0.2-0.2,0.5,0c0.1,0,0.1,0,0.2,0c0,0,0.1,0,0,0.1l0.2-0.1c0.1,0.4,0-0.2,0.2,0v0.1l3.1-0.1c0.2,0.1,1.8,0.1,2.1,0
	c0.1,0,0.1,0,0.1,0.1l0.1-0.1l0.4,0.1v-0.1h0.2c0,0,0.1,0,0.1,0.1l0.1-0.1c0,0,0.1,0,0.1,0.1c1.4,0,3.1,0,4,0v-0.1
	c0.4-0.2,0.4,0.4,0.6,0c0.2,0.1,0.9,0.2,1,0v0.1c0.9-0.2,2.8,0.2,3.4-0.1v0.1c0.4,0.1,1-0.1,0.9-0.1c0.2,0,0.5-0.1,0.8,0v0.1
	l1.1-0.1c0.5,0.5,1.5,0.4,2.2,0.5c0,0.1-0.4,0.1,0,0.1c0.6-0.4,1.7-0.2,2.9-0.1l-0.1,0.1c0.8,0.2,1.8-0.5,3-0.1v0.1h0.6v-0.2
	c1.1-0.2,1.1,0.6,1.7,0c0.4,0.5,0.9-0.2,1.4,0.1l-0.1,0.1h0.4l-0.1-0.2c0.1,0,0.4,0,0.5,0.1l-0.1,0.1c0.2,0.1,0-0.5,0.4-0.1v0.1
	l0.1-0.2c0.6,0.3,0.8,0,1.1,0l0,0h0.2l0,0h0.1v0.1c1.2,0.2,1.5,0.2,2.8,0.8l-0.1,0.1c1.3,0.1,2.9,1.9,4.1,3c1.1,1.9,2.5,5.2,1.3,7.2
	l0.1,0.1l-0.1,0.1c-0.6,1.6-1.5,2.6-2.8,4.1c-0.4-0.1-0.4,0.1-0.4,0.4c-1,0.5-1.3,0.8-2.2,1.3c-0.8-0.1-1.1,0.6-1.7,0.5
	c-1,0.4-2,0.4-2.8,0.5c-1.3,0.1-3.1-0.2-4,0.1c-0.6,0.1-1.8,0.1-2,0.1c-3.9,0.4-10.1,0-14,0.2c-0.5,0-1.5-0.1-2,0.2
	c-6.5,0.4-14.8,0.1-22,0.2c0,0.2-0.6,0.1-0.6,0.2c-1,0.6-2.2,0.8-3,2.2c-0.1,0.5-0.4,0.8-0.5,1.2c0.1,0.8,0.1,1.8,0.2,2.7v0.1
	c0.2,1.1,0.6,2,2,2.5l-0.1,0.1c1.1,0.4,0.9,0.5,1.8,1h-0.1c6.8,0.1,14.3-0.2,21,0.4v-0.2c0.4-0.1,0.4,0.4,0.6,0.1v0.1
	c0.5-0.1,1.4,0.1,1.4-0.2c0.6,0,1.3-0.1,1.8,0.2l-0.1,0.1c3.5,0,7,0,10.9,0c1.5-1,9.1-0.2,12.4-0.5h10.4v-0.1h0.8v-0.2
	c4.1,0.1,9.8,0,13.8-0.2V303c1.8,0.1,3.5-0.8,5-0.6c0.6-0.5,1.5-0.2,1.7-0.6c0.2-0.1,1.5-0.1,1.5-0.4v0.6c1.7-0.4,3.4-0.9,4.5-1.6
	c-0.5-0.4,0.9-0.2,0.5-0.5c0.8-0.4,1.5-0.6,1.8-1.2c1.5-0.2,2.1-1.5,3.4-2.1c1-0.9,3-2.2,3.6-3.5l0.1,0.1c0-0.1,0.8-0.4,0.8-0.6
	l-0.1-0.1c0.9-0.6,2-1.9,2.4-2.1c0.4-0.4,0.4-0.8,0.9-1.2v0.1c1-2.1,2-3.1,3-5.2l0.1,0.1c0.1-0.8,0.4-1.1,0.5-2h0.1
	c0.1-1,0.9-1.9,0.2-2.6C371.5,279.7,371.1,281.2,370.2,281.8L370.2,281.8z M266.9,273.8c0,0-0.1,0-0.2,0
	C266.7,273.8,266.9,273.8,266.9,273.8z M300.2,274.5H300C299.9,274.5,300.1,274.6,300.2,274.5z M341.6,282
	C341.6,282,341.6,282.1,341.6,282c0,0.1,0,0.1,0,0.1V282z M341.8,285L341.8,285L341.8,285z M373,259.5c-0.5-0.1-1.4,0-1.5,0
	s-0.1-0.1-0.2-0.1l0.1-0.1h-1.5v0.1c-2,0-3.4,0.1-5,0.6v-0.1c-1.1,0.9-1,0.5-2.5,0.8c-0.1,0.4-1,0.6-1.5,0.8l0.1-0.1
	c-0.8,0.1-0.5,0.8-1.3,0.6c-1.8,1-3.1,2.1-4.1,3.3c-0.4,0.6-1.1,0.6-1.7,1.5c-1.5,0.5-2.1,2.6-3.2,3.5c-0.1,1.5-1.5,2.5-1.7,3.4
	c-0.1,0.5-0.8,0.8-0.5,1.1c-0.5,1.2-1.3,1.9-1,3.3c0.9,0.1,2,0.1,2.6,0c0.1-0.4,0.2-0.5,0.5-0.5c2.5-3.1,3.8-5.6,6.1-8.5
	c0-0.2,0-0.5,0.1-0.6h0.1v-0.1c0.3-0.5,0.8-0.6,0.9-1.2v0.1c0.2-0.9,1.3-0.8,1-1.3c0.8-0.6,0.9-1.2,2-1c1.4,1.7-0.9,3.4-1.1,4.1V269
	c0,0.4-0.1,0.6-0.2,0.9v-0.1c-0.2,1.2-1.3,1.2-1.8,2.8l-0.1-0.1c-0.1,0.5-0.6,0.9-0.8,1.7l-0.1-0.1c0,0.1,0.1,0.4-0.1,0.4
	c0,0,0,0,0-0.1c-0.5,1.3-1.5,2.5-2.1,3.3l-0.1-0.1l-0.6,1c0.1,0.2,0.5,0.9,0.6,0.6v0.1l2.4,0.1c1.7-1.5,3.4-3.3,4.5-4.9v0.1
	c0.1-0.2,0-0.4,0.1-0.5c0.1,0,0.1,0.1,0.1,0.2h0.1v-0.2h-0.1c0.4,0,0.1-0.6,0.4-0.4v0.1h0.1v-0.2h-0.1c0.2-0.2,0.4-0.4,0.8-0.5
	l-0.1-0.1c0.6-0.2,1.1-0.7,1.6-1.2l0,0c0.5-0.5,1.1-1,1.7-1.4c1.5-1.7,3.8-4,4.8-5.6c0.6-0.5,1.7-1.2,2.9-1.5
	c0.6,0.2,0.5,0.6,0.8,1.2c-0.5,1.5-1.7,2.8-3.1,3.8l0.1,0.1c-0.9,0.5-2.5,2.9-3.6,3.7c-2,1.3-2,3-4,4.5c-0.8,0.9-2.2,1.9-2.9,3.3
	h-0.1v0.5c-0.1,0.4,0.9,0.5,1.5,0.8h-0.1c0.2,0.2,0.1-0.5,0.4,0c0.4,0,1.7,0.2,1.7-0.2c0.2-0.5,1-0.6,1.5-1.5c0,0,0,0,0,0.1
	c0-0.1,0-0.2,0.1-0.2c0.2,0.1,0.6-0.9,0.8-0.9c0.8-0.5,0.9-1,1.7-2h-0.1c0.5-0.2,0.6-0.4,0.8-0.6c0.5-0.3,0.5-1,1-1.2v-0.1
	c0.4-0.5,1-1.2,1.5-1.7l-0.1-0.1c0.4-0.2,1-1,1.3-1.3c0.2-0.9,1.2-0.9,1.3-1.9l0.1,0.1c0.8-1.3,1.7-1.7,2.9-3c1.1-0.2,1.5-1.5,2.6-2
	c0.1-0.6,1-0.9,1.3-1.9l0.1,0.1v-0.4c-0.6-1.2-2-1.9-3-1.6c-0.2-0.2-0.5-0.4-0.8-0.6C376,260.2,374,259.4,373,259.5L373,259.5z
	 M323.6,261L323.6,261c0.6,0.1,1.2,0.2,1.8-0.1c0.9-0.2,1.5,0,1.7-0.1c0,0,2,0.1,2.4,0.1v-0.2c0.6-0.1,1.4,0.2,1.8,0.2
	c3.3-0.5,7.1,0.2,10-0.6v0.1h0.1v-0.1l0,0c0.1,0,0.3-0.1,0.5-0.1c0.2-0.5,1.4-0.8,1.7-1.5l0.1,0.1c0.1-0.1-0.1-0.5,0.1-0.4
	c0.2-0.5,0.4-1.3,0.1-1.7l0.1-0.2c0-0.6-0.6-1.5-0.8-1.9c-0.4-0.4-0.9-0.8-1.1-0.8c-1-1-2.4-0.2-3.9-0.4c-0.9,0.8-2.9,1-3.6,2.5
	c-2-0.4-3.1-2.1-5-2.6h-5.3l-0.4,0.5c-0.9,0.9-1,1.7-2,2.2c-0.8,1.3-2.2,2.5-3.4,2.5c-0.5,0.6-2,0.5-2.5,0.4l-0.1-0.4
	c-0.9-0.2-1-0.5-2.1-0.8c-0.2-0.9-2.1-2.2-1.5-3.3l0.1,0.1c0.4-0.6,0.8-1.5,1.1-1.7l0.1,0.1c1.5-1.5,2.8,1.5,3.5,1.5
	c0,0.2,0.4,0.2,0.6,0.4c0.9-0.1,1.2-1.3,1.5-1.7c-0.1-1-0.6-2.1-1.3-2.5c-1.4-1-2.6-1.6-4.3-1.6c-1,0.9-2.8,1-3.2,2.5
	c0,0.3-0.4,0.3-0.5,0.5c-0.4,0.5-0.4,0.6-0.6,1.2c-0.1,0.8,0,1.3-0.1,2.2c-0.1,0-0.1-0.1-0.1-0.1H309v0.1h0.1
	c0.8,1.7,1.1,3.7,3.1,4.6c0.6,0.2,1.5,0,1.7,0.6c1.8,0.6,2.7,0.1,3.8,0.1v0.1h0.1v-0.1c0.2,0,0.4,0,0.6,0.1c0.5-0.1,1.4,0.1,1.5-0.2
	c0.4,0,0.6,0,0.9,0.1v0.1l0.1-0.2l0.5,0.2c0.8-0.1,1.4,0,2,0l0,0h0.1L323.6,261z M388.5,261h-0.1v0.1h0.1V261z M173,263.2v-0.1h-0.1
	v0.1H173z M166.4,280.9L166.4,280.9c0,0.1,0,0.1,0,0.1V280.9z M137.3,271.2c3,2.1,4.9,4,6.8,6.2c1.3,0.9,1.7,1.9,3.1,2.9
	c0.1,0.4,0.8,1.3,0.9,1.2c0.2,1.5,2.6,1.3,3.6,1.5c0.6-0.1,0.9-0.4,1.2-0.9V282h-0.1c-0.5-1-0.9-1.5-1.8-2c-0.6-1.7-2.6-2.6-3.4-4
	h0.1c-1.3-1.5-3.4-2.9-4.6-4.4c-0.5-0.4-1.4-1-1.8-1.3c-0.5-0.9-1.6-1.3-2.1-2.2c-0.2-0.5,0.1-1.7,0.6-1.6c1.4-0.5,2.2,1.5,2.9,1.5
	c1.6,1.2,3.4,2.2,4.6,3.8c0.8,1,1.1,1.6,2.4,2.5l-0.1,0.1c1.8,1.5,3.5,4,5.4,5.8c0.1,0.2,0.2,1,0.5,0.8c0.2,0.6,0.4,0.8,1.1,1
	l-0.1,0.1l3-0.1c0.6-1.5-1.4-3-1.9-4.2c-0.2-0.2,0-0.2-0.4-0.2c0.1-0.2-0.2-0.6-0.4-0.6c-0.8-1.6-2.4-3.3-3.2-4.8
	c-0.6-0.4-0.8-1.3-1.1-1.5c-0.2-0.8-1.1-0.9-1.1-2.1c0.1-0.4,0.4-1.2,1.1-0.8c0.5,0,1.6,1.6,1.9,1.6c0.2,0.2,0.9,0.5,1.1,0.8
	c0.6,0.5,0.9,1,1.1,1.7l0.1-0.1c2.1,2.9,3.1,4.4,4.9,6.9c0.4,0.8,1.4,2.2,1.8,2.6c-0.1,0.3,0.2,0.4,0.5,0.4h-0.1v0.1h0.1v-0.1
	c0.2,0,0.4,0,0.4,0s0.8,0.2,0.9,0v0.1c0.6,0.2,0-0.4,0.5-0.1c0.4,0.1,0.3-0.4,0.4-0.6c-1.2-6.1-4.1-8.8-8.4-12.4
	c-1.1-0.4-2.2-1.6-3.5-1.9h0.1c-0.4-0.1-1.1-0.2-1.6-0.6c-1.6,0-2.4-1.2-4.1-1c-0.6-0.1-1.6-0.8-1.9-0.5l-0.4-0.4l-7.1-0.1
	c-1.8-0.2-2.4,1.2-4.1,0.6c-1.1,0.6-2.6,0.2-3.5,1.5c0.4,0.2,0.5,0.9,0.9,0.9v0.1c1.4,1.3,3.6,2.9,4.6,4.2h0.1L137.3,271.2z
	 M332.2,273.9c0,0,0,0,0-0.1C332.2,273.8,332.2,273.8,332.2,273.9z M335,271h0.1v-0.1l0,0c0.1-0.9,0-2-0.2-3.1c-1-2-2.2-3.3-4.8-3
	v0.2c-0.5,0-0.9,0.2-1.1,0.4c0.4,0.5,0.9,0.2,1,0.9c1,0.5,2,2.1,2.4,2.8l0.2,0.4c0.2,0.4,0.3,0.7,0.4,1l0,0v0.1c0.2,1-0.1,2-0.6,3.3
	l0,0c-0.1,0.3-0.1,0.5-0.1,0.7h0.1c0.1,0,0.1,0.1,0.1,0.2l0.8-0.4C334.3,273.5,334.9,272.4,335,271z M252.7,265.8v-0.1h-0.1v0.1
	H252.7z M337.4,266.1h0.1V266h-0.1V266.1z M178.7,276c0.4-0.6-0.1-3.7,0.6-4.6l0.1,0.1c0.8-2.1,2.1-2.8,4.2-3.8c0-1-1.3-0.4-1.4-0.6
	c-0.4-0.2-1.3-0.1-1.6,0V267c-1.4,0.6-2.9,1.6-3.4,3.5v0.2c0,0.4-0.6,0.8-0.1,1C176.5,273.7,177.8,274.7,178.7,276z M253.4,268.4
	v-0.1h-0.1v0.1H253.4z M248.1,269.4h0.1v-0.1h-0.1V269.4z M253.2,269.4v-0.1h-0.1v0.1H253.2z M174.1,271.1V271H174v0.1H174.1z
	 M378.9,271.8h0.2v-0.2h-0.2V271.8z M308.8,275v0.1h0.1V275H308.8z M338.8,277v-0.1h-0.1v0.1H338.8z M333.1,278.5v-0.1H333v0.1
	H333.1z M291.5,279.1c-0.9,0.4-2.5-0.5-2.9,0.6c0,0.6,0.4,2.5,0.9,2.8c0.5,0.5,0.4,0.8,0.9,1.3c0.2,0.7,0.5,1.6,0.9,2.4l0,0l0,0
	c0.2,0.5,0.5,0.9,0.8,1c0.9-0.1,0.8-0.5,1.3-1.3v0.1c0.4-1,0.9-1.7,1.7-2.5c0.1-0.5,0.6-1.3,1-1.9l0.1,0.1c0-0.9,1-1,0.6-2.2
	C296.2,278.7,293.3,279.4,291.5,279.1L291.5,279.1z M274.8,279.1l-0.6,0.5c-0.6,0.5,0,1.5,0.1,1.9h0.1c0.5,1.5,1.5,2,2.1,3
	c0.6,0.2,0.5,1.2,0.8,1.6h0.2c0.4,0.6,0.6,0.5,1.1,1.2h0.2c0.1-0.2,0.6-1,0.9-1.3c1-2,2.5-4.2,3.4-6l-0.8-0.8L274.8,279.1
	L274.8,279.1z M278.7,287.3h-0.1C278.6,287.4,278.7,287.3,278.7,287.3z M302,279.7c0.1,1.6,0.9,2.8,1.1,3.8l0.1-0.1
	c0.2,0.6,0.8,0.9,0.6,1.3c-0.2,0.9,1.1,1.6,1.1,2c0.9,0.2,0.5-0.6,1-0.9c0.2-0.9,0.5-0.8,1-1.5c0.4-1.6,1.3-1.9,1.7-3.4
	c0,0.1,0,0.1,0,0.2l0.2-0.9c0.2-0.5-0.6-0.8-0.6-0.9c-1.7,0.4-3.2-0.2-5.9-0.1C301.9,279.4,302.7,279.7,302,279.7L302,279.7z
	 M317,286.4c0.6-0.4,1.1-0.6,1.3-1.5c0.4-0.6,0.2-1.5,0-2c-0.6-1.5-1.7-3.3-3.9-3.6c-1.5,1.3,0.1,2.2,0.4,3.5
	C316,283.7,315.5,285.4,317,286.4L317,286.4z M352.5,281.1c-1.5-0.4-4.1-0.4-5.6-0.8c-1.5,1.2-1.1,4-1.1,6l0.4,0.2
	c-0.1,2,1.7,3,2.4,4.2c0.2,0,0.6,0.2,0.6,0.5H349c0.8,0.2,1.5,0.5,2.2,0.6h0.1v-0.1c1.5,0,2.6-1,3.9-1.6l1.3-1.3
	c0.9-0.4,1.5-1.3,2.1-2.2v-0.1c0.4-0.6,1.3-1.2,2-2c0.2-0.5,0.4-0.4,0.4-0.8c-0.1-1.1-1.7-0.8-2.8-1.1c-0.1-0.1-1.1-0.4-1.5-0.6
	c-0.9,0-2.2,0-2.6-0.4v-0.1C353.7,281.4,353.1,281.8,352.5,281.1L352.5,281.1z M351.2,292h-0.1C351.2,292.1,351.2,292,351.2,292z
	 M220.5,288.5c0.9-0.6,1.7-1.2,1.9-2.9c0.6-0.6,1.6-2,1.7-2.8v0.1c0.2-0.8,0.6-0.9,0.6-1.7c0.2-0.8-1.7-0.2-2.1-0.5
	c-2.6,0.5-4.1-0.6-6.4,0.2c-0.4,1.6,1.6,3,1.8,3.8C218.7,286.4,220.1,287.7,220.5,288.5L220.5,288.5z M209.4,286h0.1v-0.2h-0.1
	C209.4,285.8,209.5,285.9,209.4,286z M208.4,287.3L208.4,287.3v0.1C208.4,287.3,208.4,287.3,208.4,287.3z M209.4,280.8
	c-0.4,0.2-3-0.2-3.8-0.1c0,0.1-0.6,0.1-0.8,0.4c-0.6-0.6-0.9,0.4-1.1,0.5c0,1.2,0.8,2.5,1.3,2.8c1.1,2,1.1,2.8,2.6,4l-0.1,0.1
	c0.2-0.1,0.6-0.6,0.9-1c0.1-0.3,0.6-0.5,0.2-0.6c0.1-0.1,0.5-0.6,0.6-0.9c0.8-1,1.7-2.9,2.1-4.2
	C211.3,280.5,209.5,280.9,209.4,280.8z M233.9,287.3c0.5-0.1,0.4,0.5,0.6,0.6c0.4,0.1,0.1,0.4,0.6,0.4c1.7-1,1.9-3.3,3.6-4.6
	c0.5-1.3,0.9-1.3,1.1-2.6l0.1,0.1c-0.2-0.2-0.2-0.9-0.5-0.5v-0.1h-7.8l-0.6,0.5c-0.1,1.7,0.6,1.6,1.1,2.9
	C233,284.5,233.3,286.2,233.9,287.3L233.9,287.3z M283.2,285c-1,0.4-1,2-1.7,2.5c-0.1,0.2-0.2,0.4-0.4,0.6l0,0v0.1
	c-0.1,0.4-0.1,0.8,0.4,1h4.4c1-1,2.6-0.1,3.2-0.6c0.1-0.1,0.1-0.2,0.2-0.6c-1.1-1.7-1.5-3.3-2.4-4.9c-0.8-0.5-0.2-1.6-1.3-1.9
	c-0.8,0.1-1.3,1.2-1.7,2v-0.1C284,284,283.3,284.1,283.2,285L283.2,285z M301.9,286c-0.8-1.5-0.9-3.1-2.4-4.5
	c-0.8,0.5-1.3,0.9-1.7,1.7c-0.5,1.7-2,2.8-2.8,4.8l-0.1-0.1c0,0.2,0,1,0.4,1.2h7.1l0.4-0.5c0.4-0.5-0.5-1-0.4-1.5
	C301.9,286.8,302.3,286,301.9,286L301.9,286z M137.3,281.9h0.1v-0.1h-0.1V281.9z M197.6,285.4c0.8-0.8,1.1-2,1.1-3.3
	c-0.2-0.2-0.5,0-0.8-0.1c-0.8,0.5-1.7,1.2-2.1,2h-0.1c-0.1,0.6-0.4,1-0.6,1.3c0,0.8,0.1,1.7,0.2,1.9c0,0.6,0.9,0.5,0.8,0.6
	C196.8,287.1,197.2,286.5,197.6,285.4L197.6,285.4z M312,282.6c-1.5-1.6-1.5,1.3-2.5,1.7c-0.8,1.3-1.3,2.4-1.8,3.7
	c0-0.1-0.1-0.1-0.1-0.2c0,0.5-0.1,0.4-0.1,0.8c0.9,0.8,2.6,0.4,3.6,0.4c0.6-0.5,0.9,0.4,1.5,0.1v-0.2h0.2c-0.1-0.4,1.5,0,1.4-0.8
	c0-0.4,0.1-0.8,0-1.2c-0.6-0.5-0.6-1.9-1.3-2.5C312.5,283.4,312.8,283.4,312,282.6z M227.1,282.8c0,0,0,0,0.1-0.1
	C227.1,282.7,227.1,282.8,227.1,282.8z M226.5,290.5c1.1,0,1.3-0.2,1.6-0.5h4.1c0-1.7-1.7-3.4-2.1-5.2c-1.1-0.9-1.3-2.5-2.4-2.6
	c-0.2,0.2-0.6,0.5-0.6,0.8H227c-0.1,0.1,0,0.3-0.1,0.4h-0.1c0,0.6-0.9,1.2-1.1,2c-0.8,0.6-0.4,1.3-1.1,1.9v-0.1h-0.1v0.4h0.1
	c0,0.4-0.2,0.2-0.4,0.4c0.1,0.9-0.6,1.3-0.8,2.1c-0.2,0.1,0.4,0,0.1,0.4C224.6,290.6,225.4,290.2,226.5,290.5z M272.2,282.9
	c0-0.4-0.4-0.4-0.8-0.4c-0.6,1.6,0,3.8-0.2,6.2l0.6,0.8h4v-1.3c-0.4-0.2-0.5-1-0.9-1.2c-0.6-1.3-1.9-2.8-2.5-4
	C272.5,283,272.2,283.1,272.2,282.9z M376.5,282.6h0.2v-0.1h-0.2V282.6z M213.8,290.8v-0.2c0.6,0,1.4,0,1.7,0.1
	c0.8-0.5,2.2,0.5,2.4-0.8c0-0.6-0.4-1.2-0.9-1.7c-0.4-0.9-1.1-2.4-1.6-3.1c-0.4-0.4-0.6-1-0.9-1.5c-1.2-0.2-1.6,0.9-2.1,1.7v0.2
	c-0.1,0.2-0.2,0.5-0.5,0.4c0,1.7-1.6,2.2-1.7,4C211.1,291,212.9,290.2,213.8,290.8L213.8,290.8z M204.7,290.4
	c0.2-0.5,0.1-0.2,0.2-0.8l0.1,0.1l-0.4-1c-0.5-0.6-0.6-1.5-1.6-2.4c-0.5-1-0.6-1.9-1.7-2.4c-0.6-0.2-0.4,0.6-0.6,0.6
	c-0.4,0.4-0.4,0.6-0.5,1l-0.2,0.2c-0.6,1.2-1.1,2.9-1.6,3.8l0.6,0.6C201.1,290.2,202.8,290.7,204.7,290.4L204.7,290.4z M238.4,290
	c0.8,0.1,2.9,0.1,3.2-0.1c0.6-1.5,0.8-4.6-0.2-5.9c-0.8,0.5-1.6,2.5-2.4,3.5c-0.6,0.5-0.8,1-0.9,1.7
	C237.8,289.8,238.4,289.6,238.4,290L238.4,290z M166.6,288.8L166.6,288.8v0.1V288.8z M163,284v-0.1l-0.1,0.2c0-0.1-0.1-0.1-0.1-0.2
	c-2.1,1-5.3,1-7.4,1c-0.6,0.4-2.1,0.4-2.4,1.2c0,0.5,0.4,0.4,0.4,0.9c0.6,0.1,1.2,1.7,1.6,2c1.1,0.1,1.7,1.2,2.6,2
	c0.1,0.6,0.6,0.4,0.9,1c1.7,0.5,2.6,0.9,3.9,1.3l-0.1,0.1c0.6,0.2,0.9-0.2,1.6-0.2V293c1.7-0.5,2.7-2.4,3-4.3c0-0.4-0.1-0.2,0-0.5
	c-0.1-0.8,0.1-1.2,0-1.9C167,282.9,164.2,284.7,163,284L163,284z M190.2,286.1V286h-0.1v0.1H190.2z M335.4,288v-0.1h-0.1v0.1H335.4z
	 M198.6,289.1V289h-0.1v0.1H198.6z M161.7,304v0.1h0.1V304H161.7z M171.8,306.6v0.1h0.1v-0.1H171.8z M177.4,306.6v0.1h0.1v-0.1
	H177.4z M138.8,360.1c-0.4-3.1-0.4-7.1-1.3-10.2c-1.1-6.9-3.5-13.3-7-19.2c-0.2,0-0.6-0.1-0.9,0.1c-0.1,4-0.4,9,0.5,13.1
	c-0.4,2.4,1.3,4.5,0.4,6.5c-2.4-2.1-3.9-4.5-5.6-7c0.8-3.4,0.5-7.1,0.5-10.9c-0.6-5.5-1.6-11.3-3.5-16.5c-0.8-1,0-3.5-1.9-3.5
	c-2.4,6.3-1.4,14-0.4,20.5l-0.6,1c-2.4-2.6-3.5-5.9-5.7-8.7c1.1-2.5,1.1-5.5,1.4-8c0.7-3.4,0.8-6.9,0.4-10.4c0.2-5-1.7-9.4-2.6-14
	c-0.2-0.1-1.1-0.4-1.2,0.1c-0.2,2.9-0.9,5.4-1.7,7.9c0.4,3-0.9,6.2-0.7,9.4c-0.2,1.5,1.3,3-0.2,4c-1.7-1.3-1.8-3.3-2.6-5
	c-4.3-6,2.8-11.3,2.1-17.8c0.8-4,0.5-8.7,0.2-13c-0.5-1.9,0-4.4-0.9-5.9c-0.2,0.1-0.8-0.1-0.9,0.1l-2.2,7c-1.8,3.8-1.4,8.5-3,12.4
	c-3.1-3.8-1.4-9.8-2.3-14.6c-1.3-7.4-2.6-14.8-5.6-21.5l-0.9-0.1c-1.9,7.2-0.8,16.3,1.4,23.4c1.8,5.4,3.9,10.8,4.9,16.5
	c-0.2,0.1-0.2,0.8-0.7,0.5c-3.1-2.8-5.4-6.3-8.7-9c-2.4-1.7-4.6-4.4-7.6-4.9l-0.2,1c4.2,7,8.9,13.4,14.7,19.6c1.9,1,3.9,2.9,5.9,4
	c0.8,2.9,1.8,5.6,3.2,8.4c0.2,0.4,0.7,1.5-0.2,1.7c-5.1-4.4-10.4-9.4-16.3-12c-0.8-0.4-1.8-0.1-1.6,0.9c1.6,1.6,2.7,3.5,4.1,5.4
	c4.6,4,8.6,9.9,14,12.8c1.7,1.7,4.1,1.7,5.7,3.1c1.3,3.4,4.3,6.3,4.8,9.8c-2.2-1-4.2-2.8-6.3-4.1c-3.2-1.2-5.8-3.8-9.3-4.6
	c-1.2,0-1.7-1.6-3-0.9c0,0.2-0.6,0.6-0.2,0.9c7.2,7.8,15.7,15.2,25.6,17.9l3.9,4.6c0,0.8,1.4,1.5,0.6,2.4
	c-6.1-2.5-11.9-5.5-18.6-6.5c-0.2,0.4-0.7,0.5-0.5,1c5.9,5.2,12.7,9.2,19.9,12.1c1.6,1.3,3.6,1.5,5.6,1.9c3.6-0.1,5.4,4,8.1,6.2
	l1.1,0.1c0.1-0.6,1.6-0.9,1.1-2L138.8,360.1L138.8,360.1z M410.8,306.5c9.6-4.8,15.2-15,20.6-23.6c0.1-0.5,0-1-0.4-1.3
	c-2.4,1.2-4.5,2.9-6.6,4.6c-3.8,3.3-6.5,6.5-9.8,10.2l-0.4-0.2c0-3.1,1.3-5.9,1.7-8.8c5.6-7.2,4.3-17.6,4.7-26.5
	c-0.9-1.6,1-5-1.7-5.2l-2,5.4c-2.2,8.1-4.5,16-3.1,25.2c-0.9,2.6-1.5,5.4-2.6,7.9c-1.8-1.9-0.1-4.8-1.3-7c-0.9-1.3-0.1-3.5-1.3-4.9
	c-0.1-3.5-1.7-6.5-2.9-9.6c-0.2,0.1-0.6-0.1-0.9,0.1c-1,10.2-1.1,22.4,3.8,31.1c-0.5,1-0.1,2.5-1,3.4c-1,2.2-1.5,4.6-3,6.6l-0.5-0.4
	c-0.5-5.8-1.1-12-2.5-17.8c-0.6-1,0.2-3.4-1.5-3.5c-2.2,10.1-3.9,21.7-0.2,32c-1.7,3.3-3.1,6.6-5.2,9.8H394c0.2-5.5,0.9-11,0-16.9
	c-1.1-1.2,0.6-4.5-1.5-4.8c-1,2.6-2.4,5.1-2.6,8.1c-1.7,5.9-1.8,12.5-1.7,19.2c2.2,4.6-3,7.4-5.2,10.5c-0.2,0.1-0.5,0-0.8-0.2
	c0.6-6.6,2.6-12.8,2.1-19.6l-0.5-0.6c-0.4-0.2-0.8,0-1,0.4c-4.3,8.3-7.1,17.4-7.5,27.1c0.4,4.5-5,5.6-6.2,9.3c0.4,0.8,1.1,1,2.1,1
	l6.2-5.9c10.5-1.5,18.9-7.4,27.2-14c0.1-0.2,0.2-0.9-0.2-1c-3.6,0.1-6.8,1.5-10.1,2.5c-3.1,1-5.9,3.3-9,3.8c1-2.5,2.9-5.1,5.3-7
	c10-2.2,18-10.4,25.7-17.4c-0.1-0.4,0.1-1-0.4-1.2c-6.6,1.6-12.5,4.9-18,9.1h-0.5c-0.6-0.4,0.2-0.8-0.1-1.3c2.4-3,3-6.9,6.1-9.5
	c8.5-2.9,15.2-10.2,20.8-17.5c0.1-1,2-1.5,1.5-2.9c-0.4-0.4-0.8-0.4-1.3-0.4c-4.6,2.5-9.4,5.5-13.5,9c-1.5,0.9-2.1,2.6-3.6,2.8v-0.8
	C408.9,312.8,409.3,309.5,410.8,306.5L410.8,306.5z M256.9,65.8c-103.1,0-187.1,83.9-187.1,187.1C69.8,356,153.7,440,256.9,440
	S444,356.1,444,253S360,65.8,256.9,65.8L256.9,65.8z M256.9,436.1c-101.1,0-183.4-82.2-183.4-183.3S155.8,69.5,256.9,69.5
	s183.4,82.2,183.4,183.3C440.2,353.8,358,436.1,256.9,436.1L256.9,436.1z M256.9,73.8c-98.8,0-179.1,80.3-179.1,179
	s80.4,179,179.1,179c98.8,0,179.1-80.3,179.1-179S355.6,73.8,256.9,73.8L256.9,73.8z M256.9,431c-98.4,0-178.4-80-178.4-178.2
	s80-178.3,178.4-178.3s178.4,79.9,178.4,178.2S355.2,431,256.9,431z M256.9,108.2c-80.1,0-145.2,64.9-145.2,144.6
	s65.2,144.6,145.2,144.6S402,332.5,402,252.8S336.9,108.1,256.9,108.2L256.9,108.2z M256.9,396.7c-79.6,0-144.4-64.5-144.4-143.9
	s64.8-143.9,144.4-143.9s144.4,64.6,144.4,143.9S336.5,396.7,256.9,396.7L256.9,396.7z M256.9,112.6c-77.6,0-140.8,62.9-140.8,140.2
	S179.2,393,256.9,393c77.6,0,140.8-62.9,140.8-140.2S334.5,112.6,256.9,112.6L256.9,112.6z M256.9,389.2
	c-75.6,0-137.1-61.2-137.1-136.5s61.5-136.4,137.1-136.4S394,177.5,394,252.8S332.5,389.2,256.9,389.2z M199.1,208
	c0-0.1,0-0.1,0-0.1s0,0,0-0.1V208L199.1,208z M202.6,233.6c0,0.1,0,0.2,0.1,0.4C202.7,233.8,202.7,233.7,202.6,233.6z M254,195.4
	l0.1,0.1L254,195.4C254,195.4,254,195.5,254,195.4L254,195.4z M251.3,241.5L251.3,241.5C251.2,241.5,251.3,241.6,251.3,241.5z
	 M199.4,222.1C199.5,222.1,199.5,222.1,199.4,222.1c0.1-0.1,0-0.1,0-0.2V222.1L199.4,222.1z M249.2,241.5L249.2,241.5
	c-0.1,0-0.1,0-0.1,0H249.2z M228.4,236.7v-0.1C228.2,236.6,228.4,236.8,228.4,236.7z M234.1,238.6L234.1,238.6L234.1,238.6z
	 M221,207.6c0,6.4-0.6,13,1.1,19.2c2.2,0.1,3.4-1.3,6.3-2.9v-20l-1.1-1.7C224.9,203.4,222.6,205.4,221,207.6z M217,196.8
	c-2.9-0.9-6.9-2.4-9.5,0c-1.1,2.4,1.1,4.6,2.6,6.4c2.4,0.1,3.9-2.9,5.6-4.4l0.8,0.6c0.4,9.1-0.1,18,0.5,26.7l0.6,0.1
	c0.2-4.6-0.1-9.6,0.2-14.1C217.1,207.6,217.5,201.6,217,196.8L217,196.8z M237.5,188.8L237.5,188.8c-0.4,0-0.5-1.1-0.5-1.1v-0.1
	l-0.4,0.2c-0.6-0.6-2.5-0.4-2.8-0.6c-0.4,0-1.1-0.1-1.4-0.1l-0.1-0.2c-0.9-0.2-2.8-0.4-3.6-0.6c-0.8,0.1-1.8,0.2-2.2,0.1l-0.4-0.4
	c-1.9-0.2-4.9,0.2-6-0.4c-0.7,0-1.4,0-2.2,0v-0.1h-0.1v0.1c-1.6-0.1-3.4-0.1-4.9,0.1c-1.6,0.9-4.7,0.2-4.7,0.6V186
	c0,0.2-0.6-0.1-0.6,0.2c-0.8-0.4-3.8,0.4-4.7,0.6c-2.4,0.6-4.1,0-6.2,1.3c-0.4,0.9,0.8,2.2,0.2,2.5c0.1,0.2,0.1,0.4,0.1,0.6h-0.1
	v0.1h0.1v-0.1c0.5,3.3,0.4,2.7,0.8,6.4c0.2,1.1,0.1,2.4,0.6,3.1l-0.2,0.2l0.2,0.1c-0.2,1.2,0,2.4,0.2,3.3l0,0l0,0
	c0.2,0.9,0.4,1.6,0.4,2.4c0.1,0.3,0.1,0.3,0.1,0.4l0,0v0.1h0.1c0,0.1,0,0.1,0,0.1c0.1,0.6,0.2,1.8,0.2,1.8h0.1v2.9h0.3
	c-0.1,0-0.8,1.9-0.4,2.9c0,2.4,2.9,5.1,0.1,6.9c0.1,0.4,1.1,0.6,0.9,0.9l0.6-0.1c0.1,1.9,1.4,3.6,1.4,5.4c-0.1,0.6-0.3,0.6-0.2,1.4
	c0.2,0.2,0.4,1.7,0.4,2.1c-0.2,1,0.2,1.6,0.3,2.4l-0.1-0.1c0.2,0.9-0.2,1.7,0,3.1c0.8,0.6,0.4,2.2,0.9,2.8c1.1,0.4,2.2-0.6,2.9-0.8
	c1.4-0.2,1.9-0.1,3.2-0.6c0.6-0.2,2-0.4,2.5-0.6c3.1-0.8,7.4-0.2,10.3-0.6v-0.2c0,0,0.2,0.1,0.6-0.1c2.2,0.2,2.3-0.2,2.3-0.1v-0.9
	h2.9v0.9c0.1,0,0.1,0,0.1,0.1c0.9-0.2-0.1,1,0.4,0.6c1.1,0.8,3.5-1.6,5.2,1.2l2.5-0.4l-0.7-0.1c0.4-0.1,1.1-0.1,1.1-0.1v0.1
	c2.9,0,2.4,0.5,3.8,0.5c0.8,0.1,2,0.5,2,0.5v-0.6h1.6c0,0,1.8,0.2,2.1,1c0.2,0.1,0.6,0.2,0.8,0.3l-0.1,0.6c0.6-0.1,1.5,0.9,2.1,0.9
	c0.4-0.1,1.5-0.4,2-0.1c0-0.1,0-0.1,0-0.1c0-0.1,0.9,0,0.9,0.1c0.1,0,0.5-0.1,0.6,0.1l-0.1,0.1c0.6,0.1,2,0.9,2.7,0.1
	c0-2.1-0.4-4.9-0.4-6.4l0.1,0.1c0-2.1,0-4.9-0.1-6.3l0.1-0.3c0.1-1.4,0-2-0.1-4.9h0.1c-0.1,0,0.1-0.2-0.2-0.2
	c0.2-1.9-0.2-3.8-0.4-5.9v0.1c0-0.1,0-0.1,0-0.1v-0.1v-0.1l0.1,0.1v-0.1v-0.1c-0.1-0.1,0.1-0.4-0.1-0.4l0.1-0.1l-0.1-0.1
	c-0.1-0.4,0.1-1.3,0-1.2c0-0.4-0.1-0.4,0.1-0.9c-0.2-3.8-0.1-11.4-0.4-14.2h0.1c-0.2-2.9-0.5-3.2-0.2-4.9l-0.1-0.1
	c0.8-1.4-0.5-2.1-1-2.8c-0.6-0.4-1.9-1.4-2.6-1.1l-0.4-0.4l-0.1,0.1c-0.1-0.2-1.3-0.2-1.3-0.2c-1.4-0.9-2.7-1.6-5.6-1.7v-0.1
	C240,188.3,240.6,188.8,237.5,188.8L237.5,188.8z M246.1,197.6c2.4,6.4-0.2,12.8,1.3,19.6c0.2,2.6-1.1,6.4,1.9,8.1
	c0.9,1.1,3.5,0.9,2.7,2.6l-5.4,3.6c-1.7-0.5-3.1-2-4.3-3.1c-4.6-7.6-1.3-18.4-2.8-26.9c-0.4-1.1-1.1,0-1.6,0l-3,3.3
	c-0.4,6.6,0.1,13.2,0.1,19.7c0.6,2,3.2,2.5,3.2,4.6c-2.2,0.8-3.9,2.9-6.2,3.4c-2.1-1.3-2.6-3.4-3.9-5.2c-2.1,0.8-2.8,3.3-4.3,4.8
	c-0.6,2.1-2.1,2.8-4.3,2.4c-5.1-0.9-11.3-4.9-16.4-0.9c0.2-2.6,1.7-5.6,4.1-7.1c0.9-0.2,2.1,0.4,2.6-0.8c0.5-6.6-0.9-11.9-0.6-18.3
	c-3.8-4.4-9.1-9.9-5.6-16.1c4.8-5.6,11.1,0,17.2-1.3c2.8-0.2,5.9-0.5,8.3-1.1c1.1,0.4-0.1,1.7-0.6,2.1c-2.9,2.1-3.5,7.8-7.8,6.2
	c-0.8,1.4-0.4,3.3-0.2,5.1l0.6,0.4c2.7-2.6,5.9-4.7,8.1-8.1c1.1-0.8,2.2,0,3,0.8c1.6,1.3,1.3,3.3,2.4,4.8c2.9-1.7,4.3-4.6,6.8-6.9
	C243.6,194,245.5,195.3,246.1,197.6L246.1,197.6z M290.4,183.8h-0.1C290.2,183.8,290.3,183.9,290.4,183.8L290.4,183.8z M293.5,183.8
	h-0.1l0,0C293.4,183.9,293.4,183.8,293.5,183.8z M308.2,229.6c0,0.1,0,0.1,0,0.2C308.3,229.7,308.2,229.7,308.2,229.6z M269.8,203.7
	l4.8-4.8c0.5,0,1-0.5,1.5,0.2c0.2,7.6-0.1,16.1,0.2,21.9h0.6c0.4-5.9,0.4-15.6,0.2-23.1l-0.8-0.2c-3.6-0.4-7.8-2.7-11-0.3
	C264.4,200.5,268.1,201.8,269.8,203.7L269.8,203.7z M300.9,183.8h-0.1C300.8,183.8,300.8,183.9,300.9,183.8
	C300.9,183.8,300.9,183.9,300.9,183.8z M267.5,238.7L267.5,238.7C267.5,238.8,267.5,238.7,267.5,238.7z M257.4,208.6
	c0.1,0.1,0,0.7,0,0.7h-0.1c0,0,0,2.9,0.1,2.9h-0.1c0.1,0-0.1,0.5,0.2,0.5c-0.5,0.2,0,0.9-0.1,1.3l-0.1-0.1l0.2,0.4
	c0.2,0.8,0.3,1.6,0.3,2.4l0,0v0.1l0,0c0,0.1,0,0.1,0,0.2l0,0v0.1l0,0c0,1.3-0.2,2.7,0,4.2l0.1,0.1l0,0l0,0h-0.1v0.1l0,0v0.1l0,0
	c-0.2,0.9,0,2.1,0.1,2.2h-0.1v0.1h0.1c-0.2,2.8,0.5,2.8,0.1,2.8h-0.1c0.2,0-0.2,0.1,0.2,0.3c-0.1,0.4,0.1,1.1-0.2,1.1
	c0.4,0.4,0.1,1.1,0.1,1.4l-0.1-0.1c0.2,1.3,0.2,1.9,0.1,3.2c-0.1,0-0.1-0.2-0.1-0.1c0.2,0.6,0.2,1.9,0.2,2.6l0,0v0.1l0,0
	c0,0.2,0,0.3,0,0.3H258c0.2,0,0.4,4,0.2,5.6l0.6,0.6c0.5,0.1,0.9-0.4,1.3-0.3l-0.8-0.1c0.6-0.1,0.8-0.1,0.8-0.3v-0.2
	c0,0,1,0,1.2-0.1c0.5-0.1,1.6-0.3,2.5-0.6h0.1c1-0.2,2-0.5,2-0.5v-0.3v-0.1v-0.7h1.6c0,0,0,0.1-0.1,0.1c1.3,0.1,2.5-0.1,3.4-0.3
	l-0.1,0.2h1V238c0,0,1.6,0.6,2.5,0.6l0.2-0.6c0.9-0.4,2-0.8,3.4-0.8c1.9-0.2,2.5-0.8,5.5-0.8v-0.1l1.1-0.2c1.8,0.2,4.6,0.4,7.5-0.1
	v-0.2h0.6c0.6,0,2.3,0.5,2.3,0.5v0.1c2.9,0,0.4-0.2,0.8-0.2c1.4-0.1,2,1.1,5,0.8v0.1c1-0.1,1.9,0.1,2.5,0.3v0.1h0.1v-0.1
	c1.2,0.4,2.1,0.9,3.1,0.9c0.4-0.6,0-1.1,0.2-1.7l-0.2-2.1c0-1.6,1.1-3.6,1.1-4.8c0,0.1,0.3,0.1,0.3,0.1c0.1-0.9,0-2.2,0.5-2.9
	l0.2,0.1v-3.8c0.8-0.9,0.7-3.3,0.7-3.7c0-2.6,0-3.9,0-6.4l0.9-3.6c0.2-0.2,0.6-0.8,1.1-0.8c0.1-0.9-2-1.7,0.9-2.8c0-1,0-2.6,0-3.9
	c0-0.4,0-2.1,0-2.6c0-0.1-0.1-0.1,0-0.1l-0.1-0.1c0.4,0.1,0-0.6,0.4-0.2l-0.2-0.2c0.6-1.2,0-2.4,0.6-3.8c0.1-1.2,0-2.5,0.5-3.3
	c0-1.6,0.2-3.6,0.5-5c0.2-0.6-0.8-1.2-0.9-1.3c-0.8-0.4-1.5,0-2.2-0.1l-0.7-0.1c-0.2-0.2-0.7,0-0.7-0.1V185
	c-2.9,0.1-3.2-0.9-4.9-0.6c-0.5,0,0.1,0-0.5-0.1c-1.6,0.1-1.7,0-3.3,0c-2.5,0.2-5,0.1-7.4,0c-0.6,0-2.4,0.2-2.5,0
	c0.1,0.1-0.2,0.1-0.5,0l-1.9,0.6c-2.8-0.4-3.9,0.9-6.6,0.6c-0.9,0.5-2,0-3.1,0.6c-0.1,0-0.2,0-0.4,0l0,0H278
	c-1.5,0.1-2.8,0.9-4.1,0.9c-1.1,0.6-2.8,1.2-4.1,1.2c-0.6,0.4-0.9,0.4-1.4,0.8c-3.5,1.1-5.4,1.9-8.3,2.8v-0.1c0,0.4-2.9,0.9-3.1,2.2
	C257.5,198.1,257.1,203.8,257.4,208.6z M257.9,224.1V224l0,0C257.9,224,257.9,224,257.9,224.1z M261.4,224.8c2-2.9,6.5-0.9,7.8-4.2
	l-0.4-13.6c-0.2-1.9-2.2-1.4-3.1-2.9c-2.6-3.1-5.9-6.9-4.3-11.1c5.7-8.3,15.5,0.6,23.2-2l4.1-1.1c0.4,0.1,0.6,0.4,0.8,0.8
	c-2,2.8-4,5.5-5.7,8.4c-1.5,0.8-3.2-1.7-3.6,0.8c-0.1,2.5,0,5,1,7.1c-0.6,3.9,0.9,8.1-0.8,11.9c0.6,2-0.8,5.7,2.4,5.8
	c3.2,0.1,6.5-0.5,9.4-1.6l1-1.4c-0.8-4.9-0.8-10.4,0-15.2c-0.4-2.8,0.4-6.1-0.5-8.9c1.1-2.6,4-5.8,6.2-5.8h0.8
	c0.4,8.8,0.5,21.6,0.5,31.7c0.2,2.1,2.7,2.6,3.9,3.9c-2,1.7-4.1,2.9-6.1,4.6c-2.8-0.6-3.6-3.8-5.3-5.8c-2.7,1.4-3.4,5.5-6.4,6.3
	c-2.8-0.9-5.9-2.1-8.6-1.4c-3.2,3-7.9,4.4-12.2,2.9c-2-0.9-4.4-1.7-5.3-3.9C259.8,228.1,260.2,226.2,261.4,224.8L261.4,224.8z
	 M274.4,238.6h-0.1l0,0H274.4z M271.8,231.8c1-0.2,2.9-0.6,2.5-1.9c-2.4-1.1-5-1.3-7.5-1.9c-1,0.2-2.4,0.4-2.2,1.9
	C266.1,231.9,269.1,232.2,271.8,231.8z M178.9,306.9c0,0.1,0.1,0,0.1,0S179,306.9,178.9,306.9z M217.4,306.6L217.4,306.6
	C217.5,306.8,217.5,306.7,217.4,306.6z M142.8,282.5c0,0,0.1,0,0.2,0.1c0,0,0,0,0-0.1H142.8z M219.7,306.6
	C219.7,306.7,219.7,306.7,219.7,306.6L219.7,306.6L219.7,306.6L219.7,306.6z M216.8,306.5c0,0,0.8,0,0.8,0.1
	c0.9-0.3,1.9,0.2,2.1,0.1l-0.1-0.2c0.6,0,1.1,0,1.4,0.1c7.6-0.2,12.1-0.1,20.9-0.1c0.8-0.4,1.9-0.5,2.9-0.6c1.3-0.9,3.8-1.5,3.8-3.4
	v0.1c0-0.6,0.1-1.2,0.3-1.7c0.6-1.5-1-2.4-1.1-3.4c-1.1-1.5-2.4-2-3.6-2.6l-8.7-0.1c-3.2-0.2-4.8,1-7.6,0.4c-1.3,1-2.4-1.2-3.8,0.1
	c-7.8,0.1-15.2,0.1-24.3,0.1l-0.2,0.1c0-0.1-0.4-0.1-0.6-0.1c-0.5-0.8-1.4-0.5-2.4-0.6c-1.8-0.8-3.4-2-4.8-3.3
	c-0.2-0.5-1.1-2.2-1.4-3.3c0.5-1.5-1.1-2.9-0.2-4.2c0-0.5,0.2-0.1,0.5-0.5c0.9-2.4,1.8-3.8,3.4-3.8H194c1.4-3,2.9-2.1,4.1-3
	c0.9,0.1,1.6-0.8,1.6-0.7v0.1l1.2-0.1l1.2,0.4c11.2-0.2,21.2,0.5,31.2,0.5h1.1v-1.4c2.9,0.4,5.8,0.1,8.7,0.1v1.2h1.1
	c1.7-3,3.4-3,3.8-5.9h0.1c0.6-3,0-1.6,0.4-3.2c-0.1-0.6-1.1-2.3-1.6-3c-0.6-1.7-2.9-3.1-4.3-3.9c-1.3-0.4-1.7-0.7-3.1-0.8
	c-0.4-1-1.9-0.8-2.6-0.8s-0.9,0-1.4,0l-4.1-0.2c-1.4,1-2.4,0.2-4.4,0.5c-0.4,0.3-0.9,0.5-1.6,0.6v-0.2H225v0.2h0.1
	c-0.5,0.1-0.9,0.1-1.2,0.1c-0.9,1-2.4,0.1-3,1c-1.3-0.1-2.7,1-3.6,0.6c-1.3-0.2-1.4,0.6-2.2,0.6c-2.4,0.1-3.8,0.9-6.4,0.8
	c-1.1,0.9-1.7-0.6-2.6,0c-2.5,1.9-4.1,3.5-8.1,3.7c-0.5,0.2-1.1,0.6-1.8,0.1c-2.1,0-2.8-0.1-4.4,0.5c-0.2,0.5,0,1,0.4,1.5
	s0.8,2.8,0.6,3.8l-0.1-0.1l-0.1,1.7c0,0.5-0.4,1-0.5,1.5c-0.4,0.5-1.1,2-1.7,2.2c-0.1,0.4-0.5,0.8-0.9,0.9c-0.2,0.2,0,0.4-0.4,0.5
	c-0.6,1-2.4,1.3-3.9,2c-2.6,0.2-4.9,0-6.5-1.5c-1.7-0.6-2.4-2-3.1-3.4c-0.5-1-1.1-1.5-0.9-2.4c-1.1-1.9-1.1-4.1-0.7-5.8l-0.6,0.1
	v-1.2c0-0.4,0-0.5,0-0.5v0.2c0,0.2-3-0.6-4.3-1.2l0.2-0.1c-1.1-0.4-1.1-0.4-2.1-1.3c-0.4-1.3-2.1-2.2-1.8-4.1
	c-1.1-1.3-1.1-3.4-2.2-4.8c-0.1-0.5-0.6-0.5-0.8-1.2c-0.4-1.8-2.6-2.7-4.3-3l0,0h-0.2l0,0c-0.1,0-0.1,0-0.2,0l0.1,0.1
	c-0.8,0.2-1.1,0.5-1.6,1c-0.1,0.1,0.1,0.1,0.1,0.5c-0.6,0.4-0.4,1-0.4,1.5v0.1c-2.9,0.2-1.1,1.5-1.2,1.7c-0.4,0-0.4,0.4-0.5,0.5
	c0,0.6-0.6,1.2-0.4,1.9l-0.2-0.1c0,0.4,0.2,0.8-0.1,1l-0.1,0.2c0,0.6-0.3,2.1,0.4,2.1h-0.2c1.1,0,1.1,0,1.7,0.3
	c2.4,0.5,5.1,3.1,7.3,4.1c1.1,1,2.4,2.1,3.5,3.6c0.5,0.1,1.3,1.9,1.7,1.9c0.4,1,0.8,2.1,1.6,2.5c-0.2,0.6,0.5,1.1,0.5,1.3
	c0,0.5,0.6,0.9,0.6,0.8v0.2c0,0.4-0.2,1-0.1,0.9c0,0.4,0.1,1.3,0.1,1.2v0.6c0,1.2,0.4,1.6,0.9,2.6c0,1.7,0,3.3,0.4,4
	c0,0.6,0.1,1-0.1,1.5l-0.1-0.1c0,0.9,0,2-0.1,2.6l-0.1-0.1c0.1,0.6-0.6,1.7-0.6,2.1c-0.4,0.2,0.1,0.6-0.4,0.8c0.1,0.4-0.1,0.9,0,0.8
	c0,0.1,0.1,0.1,0.1,0.1v0.1c0,0.6-2.9,1.7-2.9,2.1v0.3l-0.4,0.6c-1.4,0.2-2.1,0.8-3.2,1.3c-2.1,0.5-3.4-0.1-5.2-0.5
	c-0.2,0-1.2-1-1.8-0.9c-0.2-0.4-1.1-0.8-1.3-1c-2.6-1-3.2-3.1-5.3-4.5c-0.8-0.8-1.7-2.1-2.4-2.5c-0.5-0.4-1.7-2.4-2.2-2.5
	c-0.5-1-1.4-2.6-2.1-3.3c-0.1,0-0.4,0-0.5-0.1c0.1,2.9,1.4,3.8,2.4,5.5c0.6,1.2,1.4,3.1,2.4,4.4c0.6,0.6,1.1,1.9,1.3,1.9H149
	c0.6,0,1.3,2,1.9,2.6c1.1,0.5,2.2,2.4,3.1,3c1.2,0.5,1.4,1.4,3.1,1.9L157,302c0,0.2,1.1,0.3,1.4,1c1.4,0.1,3,1,4.3,1.4
	c0.2,0.4,1.1,0.3,1.3,0.6c1.9,0.5,2.4,0.4,4.6,0.9L168,306l-0.3-0.1v0.1c2.9,0,2.1-0.1,2.5,0h0.6c0.4,0-0.1,0.8,2.8,0.7v-0.1l0,0
	c2.1-0.1,3.1,0,4.3,0.1l0,0v0.1h0.1v-0.1c0.4,0,0.9,0.1,1.5,0.2c1.9-0.1,3.6,0.4,5.2,0l0,0l0,0h0.1c0.2,0,0.4,0,0.6,0l0,0h0.1l0,0
	c0.9,0,1.9,0.1,2.2,0.3l1.6-0.2c0.4,0,0.5,0,0.6,0l0,0h0.2l0,0c0.1,0,0.2,0,0.4,0c1.1-0.4,1.9,0.4,3.4-0.1c1.8,0.5,3.8-0.5,5.6-0.2
	c1.3-0.5,1.1-0.6,2.4-0.6h0.6l-0.3,0.4c4.9-0.1,11.6-0.2,14.5,0.5L216.8,306.5L216.8,306.5z M188.1,293.2c0-0.5-0.7-0.2-1.1-0.5
	c-1.7-2.1-3.6-4.4-6.1-5.6c-0.8-0.2-1.8-1.3-2.9-0.9c-0.8,1.7,0.1,2.5,0.4,4l0.1,0.1c0,0.2,0.1,1,0.1,1.7c-0.6,0.4-1.1,1.2-2.2,0.8
	c-0.4-1-1.3-1.7-1.7-2.6l0.1,0.1c0-0.9-0.6-2.5-1.3-3.6c-0.1-0.6-0.4-1.1-0.5-1.1h-0.1c-0.1-3-1.1-2.5-0.5-3.4l1.6-1.5l-0.1-0.6
	c0.6-0.1,1.7-0.4,2.2-0.4h0.4c0.4,3,1.1,3,1.7,3h1.1v-0.9c0,0,1.5,1.2,2.4,1c0.2,1,1.4,0.4,1.9,1.3c1.1,0.5,1.8,1.2,2.8,2.2
	c1.4,1.3,3.1,2.4,3.9,4.2l0.3,1.2l0.1-0.1c0.1,0.1,0.2,0.3,0.2,0.5C190.7,293,189.2,292.9,188.1,293.2L188.1,293.2z M299.1,167.6
	L299.1,167.6C299.2,167.7,299.2,167.7,299.1,167.6z M267.5,174.2c-0.2,0.9,0.4,2.9,0.5,2.9h0.4c0,0.1,0,0.2,0,0.3
	c0.2,0.2,0.4,0.9,0.4,0.6v0.1l1.8-0.3c0.6-0.4,1.2-0.6,2.1-0.6h-0.1l1.5-1.4l-0.1-0.4c1-0.6,3.6-1.4,3.6-1.9v-0.1l0.9-0.2
	c0,0.1,0,0.1,0,0.1V173c0-0.4,1.3-0.1,1.5-0.6c0.4-0.2,1.7-0.6,2.1-1.1c1.1-0.4,2.8-0.9,3.6-1.2c1.7-0.6,3.2-1.2,4.6-1.4
	c0.9,0.1,1.8-0.4,1.8-0.2v-0.2c2.9,0.2,2.9-0.4,5.8-0.2V168c0-0.1,0.8,0,1-0.2c0.1,0,0,0,0,0.1c0.1-0.1,0.3,0,0.5,0.1l-0.1-0.1
	c0.5-0.1,0.9,0.1,1.2,0.3l-0.1,0.4h0.8l-0.1-0.2c0.1-0.1,0.2-0.1,0.2-0.3h-0.5V168c2.9-0.2,2.9,0.4,2.9,0.2v0.1l1.9-0.1
	c1.5,0.9,3.9,0.5,3.9,1.3c0-0.1,0.9-0.1,0.7-0.2c0.1-0.1,1.2-0.1,1.7-0.4c1.8,0.1,3.4-0.6,3.4-0.6v0.1c0,0.2,1.5,0.1,2.4-0.4
	c-0.2-1.2-1.3-2.2-2.3-2.8c-0.4-1.4-1.1-1.6-1.8-3.3c-1.1-0.8-0.2-2.9-2.2-3.3c-0.2-0.2-1.5-1.1-2-1.1c-0.2-0.2-0.6-0.9-1.1-0.8
	c-0.4-0.5-1.6-0.5-2.4-0.9c-0.9-0.5-2-2.2-4.9-2.6v-0.1c-2.9-3.4-6.6-4.4-10.1-7.9c-2.2-1.1-2.9-2.5-4.5-4.2
	c-0.9-0.8-2.6-2.5-3.7-3.6c0-0.4-0.4-0.9-0.5-0.8c-0.4-0.6-1.1-1.3-1.4-2c-1-1.7-2.4-2.5-3.5-4.1l-1.1-1.2c-1-0.2-1.5,0.6-2,1.1
	c-0.6,0.5-1,0.8-1.2,1.1c-0.4,0.1-0.8,0.6-0.9,0.9c0,0.1,0.2,0.2,0.2,0.3c-0.4,1.1-0.8,2.2-1.3,3.2c0.1,0.6-0.2,0.5-0.2,1.1
	l-0.1-0.1c0,0.4,0,0.8-0.2,0.9v0.1v0.1c0.1,0.7-0.4,2.1-0.4,3.1L270,141c0,0.1,0,1.6,0.1,2c-0.1,0-0.1,0-0.1-0.1
	c-0.2,1.9,0.4,4.2,1,6.3c-0.1,1.9,1.1,3.2,1.1,5.1c0,0.9-0.8,1.1-1.1,2.1l-0.1-0.1c0,0.1,0.1,0.2,0,0.4l-0.1-0.1
	c-0.6,0.4-0.6,1.3-1.2,1.9c-0.6,0.9-0.9,2-1.5,3.1l-0.1-0.1c0.1,0.5,0,0.9-0.1,1.3l0.1,0.1c-0.1,0,0,0.2-0.1,0.2h-0.1
	c-0.5,0-0.1,1.6-0.4,2.2c0,0.4-0.2,0.8-0.1,0.8h-0.1c0.1,1.7,0,2.2-0.1,2.6h-0.2v0.1c0,0.2,0,0.4,0,0.7
	C267.1,170.5,266.7,172.6,267.5,174.2L267.5,174.2z M309.4,168.3h0.2c0.1,0-0.1,0.1-0.2,0.3V168.3z M309.4,168.9
	c0.1,0.1,0,0.1,0,0.1V168.9z M277.5,139v0.5c0,0,0.2,0,0.6,0.2c-0.1,0-0.5,0-0.7,0.1l0.1,0.1v0.1c0,0.6,2.5,1.6,3.4,2.4
	c2.6,3.1,7.7,5.8,11.6,8.6c0.5,0.5,1.9,0.9,2.6,1.3l1.3,1.1c0.4-0.2,0.8,0.1,1.5,0.2l-0.1,0.1c0.4,0,0.6,0.6,0.8,0.6
	c0.1,0.5,0.6,0.4,0.5,1.4c-3.4,1.4-5.2-1.3-8-2.4c0.1,0,0.1-0.1,0.2-0.1c-1.5-1.1-4.6-2.9-6.4-4.4c-0.8,0.2-1.1-1.1-2.2-1.1
	c-0.4-1.2-2.9-2.1-3.5-3l0.1-0.1c-1.5-1.1-2.1-2.9-3.6-4c-0.1-0.5-0.1,1.1-0.1-1.8L277.5,139L277.5,139z M275.2,154.2
	c0.5-0.1,1,0,1.2,0.1v0.1h0.1v-0.1c0.8,0.2,1,0.7,2,0.6c0.1,0.4,0.9,0,1.1,0.2c0.2,0.6,1.9-0.1,2.5,0.6c0.8,0.1,1.5,0.6,2.5,0.4
	l-0.1,0.1c1.1,0.9,2.6,0.1,4,1.1c0.2,0.1,0.5-0.2,0.8-0.2v0.1h0.1v-0.1c0,0,0.1,0,0.1,0.1c0.5,0,1.3,0.6,2.1,0.6
	c0.5,0.4,2.4,0,3,0.6c2,0.8,2.9,0.6,5.8,2.4v0.9c0-0.1,0,0.4-2.9,0.4c0.1,0.2,0.5,0.3,0.2,0.3h0.1c-1.3,0-2.2,0.1-3.1-0.9
	c-0.6,0-1.5,0-1.8-0.6c-1.1,0.2-2.7-0.8-4.1-0.8c-0.5-0.6-1.5-0.1-2.4-0.7c-0.2-0.2-1.7,0.1-2-0.7c-0.6,0.1-1.5-0.4-2.5-0.6
	c-0.6-0.8-3,0-3.2-0.8c-2,0.1-2.5-1.1-3.8-1.9C274.9,155.1,275,154.6,275.2,154.2L275.2,154.2z M272.7,168.3
	c0.2-0.5,1.7-1.3,2.5-1.3c0.5-0.6,1.1-0.6,2.5-0.8c0.6-0.6,2.5-0.5,3.2-1.1c2.2,0.1,3.1-0.8,4.7-0.9c0.6-0.6,1.8,0.2,2.5-0.6
	c1.7-0.1,4-0.6,4-0.5v-0.2c2.9-0.2,2.6-0.4,3.2,0.2c0,0.4,0.8-0.4,0.2-0.2l0.3-0.4l0.2,0.9c-1.8,2-4.4,2.4-7.2,3.1
	c-0.2-0.2-1,0-1.3,0.1c-0.4,0.4-2.5,0.1-3.2,0.6c-2,0.8-3.5,0.1-5.7,1.4c-1.3,0.5-2,0.4-3.1,0.9c-0.8,0.4-1.4,0.6-2.4,0.6
	C272.6,170.1,272.6,168.8,272.7,168.3L272.7,168.3z M272,132.5C272,132.6,272,132.6,272,132.5L272,132.5z M271.8,132.3
	c0-0.1,0-0.1,0-0.1v-0.1V132.3L271.8,132.3z M297.8,162.1L297.8,162.1c0-0.1,0-0.1,0-0.1V162.1z M267.4,162.1L267.4,162.1
	L267.4,162.1z M196.6,168.2v0.1c0-0.2,0.7,0,1.2,0h-0.1c0.8,0,2.4,0.4,2.5,0.6c1.3,1.3,2.2,0.1,5.1,0.6v-0.1c0,0,0.1-0.1,0.3-0.1
	h0.1l0,0c0.1-0.1,0.1-0.1,0.2-0.1v0.1c-0.1,0-0.1,0-0.1,0l0.1,0.1h0.1l0.7-0.1c0,0,0,0-0.1,0c-0.2,0-0.4,0.1-0.7,0.1v-0.1h-0.1
	c0.2-0.1,0.6-0.2,0.8-0.1c0.1,0,0,0.1,0,0.1c2-0.1,2.9,0,3.6-0.1c1.1,0.6,3.1-0.1,3.8,0.6c1.1,0,2.2,0.2,3.3,0.6l-0.1,0.1l1.2,0.1
	c0.2,0.2,0.8,0,0.9,0.4l1.3,0.1c0.1,0,0.9,0.1,0.9,0.1l0.2,0.2c1.2-0.1,2.4,1.2,3.8,1.1l-0.1,0.1c0.8,0.2,1.7,0.1,2.6,0.6
	c0.4,0.2,1.1,0.4,1.6,0.6l0.1-0.1c0.1,0,0.2,0.1,0.2,0.1v0.1h0.1v-0.1c0.6,0.1,0.7,0.3,1.6,0.4c-0.1,0.1-0.1,0.1-0.2,0.1h-0.1v0.2
	c2.9-0.1,1.4,0.6,2.4,0.6v0.1c1.3-0.4,1.4,0.8,2.3,0.6l-0.1,0.1c0.5-0.1,1.3,0.2,1.3,0.4v0.1c0-0.2,1.4,0.6,1.8,0.6
	c1.4,1.2,1.4-1.3,1.9-1.6c0.2-1.7,1.1-2.1,0.6-4.2c0.7-2.4,0.4-4.7-0.2-6.9l0,0v-0.1H241c-0.4-1.3-1.1-2.5-1.8-3.7
	c-0.4-1.6-1.3-2.2-2.2-3.8c-0.6-0.8-1.3-1.4-1.7-1.9c-1.7-1.9,0.6-2.6,0.6-4.8l0.2,0.1c0.6-0.9,0.8-2.2,0.8-3.3v0.1
	c0-4.4,0.1-3.4-0.4-7.5l-0.4-0.9c-0.2-1.6-1.2-3.3-2-4.9c-1.1-1.1-2.1-3.6-4.1-4.1c-0.6,0.8-1.2,1.1-1.6,1.7
	c-1.6,2.4-3.5,4.8-5.4,6.9c-0.4,1.1-1.3,1.2-1.4,1.9c-1.1,1.1-2.6,3.1-3.9,4.1c-0.1,0.1,0,0.5-0.1,0.5h-0.1c-0.5,0-0.4,0.7-1.1,0.9
	c-2.2,1.6-3.4,4.3-5.9,5.6c-0.4,0.6-1.8,1-2.4,1.9c-1.1,0.6-3.1,1.3-3.8,2.2c-0.6,0.4-1.9,1.1-2.4,1.6c-1.6,0.5-3.2,1.4-4.6,2.1
	c-2.2,0.6-2.9,3.4-3.4,4.9c-0.1,0-0.1-0.1-0.1-0.2c-0.2,0.2-0.2,0.9-0.6,0.8c-0.2,0.9-0.8,1.9-0.8,2.8
	C193.3,168.7,193.7,168.2,196.6,168.2L196.6,168.2z M234,167.6l-0.1,0.4c0.7,0.2,0.4,0.4,0.5,0.9c0,0,0.1,0.1,0.1,0
	c0,0.1,0.1,0.1,0.1,0.2c0-0.1-0.1-0.1-0.1-0.2c0,0.1-0.1,0.1-0.1,0.1c-0.2,0.6-0.6,1-0.9,1.1c-1.1,0.1-1.4-0.6-2.7-0.6
	c-1.3-0.4-2.9-1.2-4.3-1.3c-1.6-1.2-3.2-0.5-5.4-1.3c-0.6-0.1-1.8,0-1.9-0.6l-6.6-0.1c-1.1-1.7,1.1-1.6,1.4-2.2l0.6-0.1l-0.1-0.1
	c0.8,0.6,1.4,0,1.9,0.2l0.1-0.1c0.1,0.1,0.4,0.1,0.4,0.1c-0.1-0.2,0.5,0.1,0.9,0c1.8,0.2,2.7,0.6,5.2,0.6c0.9,0.5,1.9,0.4,3,0.5v0.1
	h0.1c0.9,0.1,2.3,0.8,2.3,0.6v0.1c0,0.1,1.2-0.6,1.4-0.2l1.2-0.3C232,168.3,233.1,166.8,234,167.6L234,167.6z M226.1,165.2v-0.1
	c0.1,0,0.1,0,0.1,0L226.1,165.2z M211,156.1v0.1c0-0.2,0.9-1.6,1.6-1.9c0.5-0.4,0.4-0.6,1.1-1.2c0.5-0.1,0.8-0.4,1.2-0.8
	c1.4-0.8,1.4-1.9,3.1-2.5c1.4-1.9,4.4-3.6,4.4-5.2v0.1c0-0.5,1.9,0.1,1.7,0.1h0.1c0-2.9,1-2.1,1.1-2.6v0.5c0.5-0.4,0.2-0.9,1.1-0.9
	h-0.1c0.4-2.6,1.4-2.1,1.8-0.9c0.1,2.1-1.6,3.1-2.2,3.9c-1.7,2.5-4.1,4.1-6.4,6.8c-0.9,0.2-0.4,0.5-1.3,0.6c-0.4,1.3-3,2.5-4.1,3.4
	c-1.8,0.6-2.6,2.8-4.4,2.4c-0.1-0.1,0.1-0.6,0.1-1.1C210.3,156.6,208.1,156.7,211,156.1L211,156.1z M210.2,160.8l-0.1-0.2
	c1.7-0.2,1.4-1.1,3.4-1.1h-0.1c0.1,0,0.4-0.1,0.4-0.1v-0.2c0-0.1,2-0.1,2.8-0.6l0.4-0.2c0.4-0.2,0.9-0.4,1.4-0.6h0.1v0.1h0.1v-0.1
	c1,0.1,1.2-0.6,2.1-0.6c0.1,0.1,0.6-0.1,0.6-0.2c0,0,0.6-0.4,1-0.2l0.2-0.4v0.1c0-0.5,1.6-0.4,2.4-0.9c0.8,0,1.6-0.4,2.5-0.6
	c1.1,0,2.8-1.3,3.5,0.2l0.1,0.2c-0.6,1.9-3.4,1.6-4.6,2.6c-1.7,0.1-2.1,0.9-3.9,1.2c-0.9,1.1-4.6,1.2-5.4,2.2
	c-1.1,0.1-1.9,0.5-3,0.8c-0.1,0-0.6,0.5-0.6,0.2c-0.1,0-0.4,0.2-0.4,0.2c-0.4,0-2.1,0.1-2.1,0.4v0.1c0-0.1-4.1,1.6-4.6-0.4
	C207,161.4,208.8,161,210.2,160.8L210.2,160.8z"/>
</svg>
