<?xml version="1.0" encoding="utf-8"?>
<!-- Generator: Adobe Illustrator 20.1.0, SVG Export Plug-In . SVG Version: 6.00 Build 0)  -->
<svg version="1.1" id="レイヤー_1" xmlns="http://www.w3.org/2000/svg" xmlns:xlink="http://www.w3.org/1999/xlink" x="0px"
	 y="0px" viewBox="0 0 80 78" style="enable-background:new 0 0 80 78;" xml:space="preserve">
<style type="text/css">
	.st0{fill:#fc6333;}
</style>
<title></title>
<g id="icomoon-ignore">
</g>
<g>
	<g>
		<path class="st0" d="M1.3,18.3c0.3,0,0.6-0.1,0.7-0.2c0.2-0.1,0.2-0.3,0.2-0.4v-0.8c0-0.9,0.1-1.6,0.4-2c0.1-0.2,0.3-0.3,0.6-0.4
			c0.3-0.1,0.6-0.2,0.9-0.2l0.8,0.1c0.4,0,0.6-0.2,0.6-0.6c0-0.3-0.1-0.5-0.2-0.7S5,12.9,4.8,12.9s-0.4,0-0.6,0.1s-0.4,0.1-0.6,0.1
			c-0.5,0-0.8-0.1-0.9-0.2s-0.2-0.4-0.2-0.8c0-0.8,0.1-1.4,0.3-1.6C3,10.2,3.4,10.1,4,10.1s1,0,1.2,0.1c0.2,0,0.4,0.1,0.6,0.1
			c0.2,0.1,0.4,0.1,0.4,0.1c0.3,0,0.5-0.2,0.5-0.5V9.7c0-0.3-0.1-0.4-0.2-0.5S6.1,9.1,5.8,9.1H5.4c-1.8,0-3.1,0.1-4.1,0.2
			C1,9.4,0.8,9.5,0.8,9.7c0,0,0,0.1,0.1,0.3S1,10.4,1,10.5s0,0.7,0,1.6s-0.1,2.3-0.2,4.1c0,0.3-0.1,0.5-0.2,0.8
			c-0.2,0.2-0.2,0.4-0.2,0.5v0.2c0,0.2,0.1,0.4,0.2,0.5C0.7,18.3,1,18.3,1.3,18.3z M11.2,14.3c-0.1,0.1-0.4,0.1-0.8,0.2
			c-0.4,0.1-0.7,0.1-0.8,0.1c-0.6,0.1-1,0.4-1.4,0.7c-0.4,0.3-0.6,0.8-0.6,1.4s0.2,1.1,0.5,1.4c0.4,0.3,0.8,0.5,1.3,0.5h0.2
			c0.3,0,0.7-0.1,1.1-0.2c0.4-0.2,0.7-0.2,0.7-0.2c0.1,0,0.3,0.1,0.6,0.2s0.5,0.2,0.8,0.2c0.2,0,0.4,0,0.5-0.1s0.2-0.2,0.2-0.3
			s-0.1-0.3-0.2-0.5c-0.1-0.2-0.2-0.4-0.2-0.5s0-0.7,0-1.6c0-1,0-1.5,0-1.6c0-0.5-0.2-0.8-0.3-1.1c-0.2-0.3-0.5-0.5-0.8-0.7
			c-0.4-0.2-0.8-0.3-1.2-0.3h-0.3c-0.5,0-1,0.1-1.5,0.3S8.3,12.7,8.3,13c0,0.4,0.2,0.6,0.5,0.6c0.1,0,0.4-0.1,0.9-0.3
			s0.8-0.3,1.1-0.3s0.5,0.1,0.7,0.3s0.3,0.4,0.3,0.7C11.6,13.9,11.5,14.2,11.2,14.3z M11.7,15.6V16v0.2v0.1v0.1
			c0,0.3-0.1,0.6-0.4,0.9c-0.3,0.3-0.6,0.4-1,0.4h-0.2c-0.3,0-0.5-0.1-0.7-0.3S9.1,17,9.1,16.7v-0.1c0-0.4,0.1-0.6,0.3-0.8
			c0.3-0.3,0.7-0.4,1-0.4c0.1,0,0.1,0,0.3,0H11l0,0h0.3C11.5,15.2,11.7,15.3,11.7,15.6z M17.9,18.6c0.5,0,1-0.1,1.5-0.4
			s0.8-0.5,0.8-0.8c0-0.2-0.1-0.3-0.3-0.3c-0.1,0-0.3,0.1-0.8,0.2c-0.4,0.1-0.7,0.2-1,0.2c-0.6,0-1-0.2-1.3-0.5
			c-0.3-0.4-0.5-0.9-0.5-1.7c0-0.7,0.2-1.4,0.5-1.8c0.3-0.5,0.7-0.7,1.3-0.7l0,0c0.2,0,0.6,0.1,0.9,0.3c0.4,0.2,0.6,0.3,0.7,0.3
			c0.3,0,0.5-0.2,0.5-0.5s-0.2-0.6-0.5-0.8c-0.3-0.3-0.8-0.4-1.3-0.4h-0.2c-0.5,0-1,0.1-1.4,0.3c-0.7,0.3-1.2,0.9-1.6,1.8
			c-0.2,0.4-0.3,1-0.3,1.5v0.3c0,0.5,0.1,0.9,0.3,1.3C15.7,18,16.6,18.6,17.9,18.6z M27.8,17.6c0,0,0-0.2-0.1-0.4
			c0-0.2-0.1-0.6-0.1-1.2c0-0.5,0-0.9,0-1.2v-1.6v-0.4c0-0.3,0-0.5-0.1-0.6S27.2,12,27,12c-0.3,0-0.5,0.1-0.6,0.2s-0.2,0.3-0.2,0.5
			V13v0.3c0,1.6-0.1,2.6-0.4,3.2c-0.1,0.3-0.3,0.5-0.6,0.7s-0.5,0.3-0.8,0.3c-0.8,0-1.1-0.5-1.1-1.6l0.1-2.3c0-0.7-0.1-1.1-0.2-1.4
			c-0.1-0.2-0.3-0.4-0.6-0.4h-0.2c-0.5,0-0.7,0.1-0.7,0.4c0,0.1,0,0.2,0.1,0.5c0.1,0.2,0.1,0.5,0.1,0.7l-0.1,2.1
			c0,1,0.2,1.8,0.5,2.2s0.8,0.6,1.4,0.6h0.2c0.4,0,0.9-0.1,1.5-0.4c0.2-0.1,0.3-0.2,0.4-0.2s0.2,0.1,0.4,0.2
			c0.2,0.2,0.4,0.2,0.6,0.2C27.5,18.3,27.8,18.1,27.8,17.6z M30.6,18.5H31c0.3,0,0.6-0.1,0.8-0.2c0.2-0.1,0.3-0.3,0.3-0.5v-0.1
			c0-0.1-0.1-0.2-0.2-0.4c-0.1-0.2-0.2-0.4-0.3-0.7s-0.1-0.8-0.1-1.4c0-0.7,0-1.7,0.1-3.1v-0.4v-0.3c0-0.2,0-0.3,0-0.5v-0.3
			c0,0,0-0.1,0-0.3l0.1-1c0-0.4,0-0.6-0.1-0.7c-0.1-0.1-0.3-0.2-0.5-0.2H31c-0.6,0-0.9,0.2-0.9,0.5c0,0.1,0,0.3,0.1,0.5
			s0.1,0.6,0.1,1v0.5v0.5c0,0.1,0,0.7-0.1,1.9s-0.1,1.9-0.1,2.3s0,0.6-0.1,0.8c0,0.2,0,0.5-0.1,0.9v0.3v0.2c0,0.2,0.1,0.3,0.2,0.4
			C30.2,18.4,30.4,18.5,30.6,18.5z M36.1,18.5c0.4,0,0.7-0.1,0.9-0.2s0.3-0.3,0.3-0.5s-0.2-0.3-0.6-0.4c-0.4-0.1-0.6-0.1-0.7-0.3
			c-0.2-0.2-0.3-0.6-0.3-1.2c0-1.2,0.1-2.1,0.3-2.7c0.1-0.3,0.4-0.5,0.8-0.6s0.6-0.3,0.6-0.5V12c0-0.1-0.2-0.3-0.5-0.4
			c-0.3-0.1-0.6-0.2-0.7-0.3C36.1,11.2,36,11,36,10.6c-0.1-0.4-0.1-0.6-0.1-0.6c-0.1-0.2-0.2-0.2-0.4-0.2h-0.1
			c-0.2,0-0.4,0.2-0.5,0.5c0,0.1-0.1,0.3-0.2,0.6c-0.1,0.3-0.2,0.5-0.3,0.6c-0.4,0.4-0.7,0.7-0.7,0.7c0,0.1,0.1,0.2,0.3,0.4
			s0.3,0.4,0.3,0.6s0.1,0.9,0.1,2.1s0.1,2,0.3,2.3C34.9,18.2,35.4,18.5,36.1,18.5z M44.2,14.4c0.1-0.4,0.3-0.8,0.5-1.2
			s0.2-0.7,0.2-0.9c0-0.3-0.2-0.5-0.6-0.5s-0.7,0.1-0.8,0.4c0,0.1-0.1,0.4-0.2,0.9s-0.2,1.1-0.5,1.9c-0.4,1.1-0.7,1.7-1,1.7
			c-0.2-0.1-0.5-1.3-1.2-3.6c-0.1-0.4-0.1-0.6-0.1-0.6c-0.1-0.3-0.4-0.4-0.7-0.4s-0.6,0.1-0.7,0.2s-0.2,0.2-0.2,0.3
			c0,0.3,0.4,1.3,1.1,3c0.2,0.5,0.5,1.1,0.8,1.7s0.5,1,0.5,1.2c0,0.4-0.2,0.9-0.5,1.3c-0.2,0.2-0.5,0.4-0.9,0.6s-0.6,0.4-0.6,0.6
			s0.2,0.4,0.6,0.4c0.4,0,0.8-0.2,1.2-0.6s0.8-0.9,1.2-1.6C42.8,18.5,43.4,16.9,44.2,14.4z M2.7,34.6h0.2c0.4,0,0.9-0.1,1.3-0.3
			c0.8-0.4,1.4-1,1.7-2c0.1-0.5,0.2-0.9,0.2-1.4v-0.1c0-1.4-0.5-2.4-1.6-2.9c-0.3-0.2-0.7-0.2-1.1-0.2H3.1c-0.4,0-0.7,0.1-1.1,0.2
			c-0.4,0.2-0.8,0.4-1.1,0.8C0.3,29.3,0,30.2,0,31.4v0.1c0,1,0.3,1.8,0.8,2.4C1.2,34.3,1.9,34.6,2.7,34.6z M1.4,31.2V31
			c0-0.7,0.2-1.2,0.5-1.7s0.7-0.7,1.2-0.7h0.1c0.4,0,0.8,0.2,1,0.6c0.3,0.4,0.4,0.9,0.4,1.5v0.5c0,0.8-0.2,1.4-0.5,1.9
			s-0.7,0.7-1.2,0.7H2.7c-0.4,0-0.7-0.2-1-0.6c-0.2-0.5-0.3-1-0.3-1.6C1.4,31.6,1.4,31.2,1.4,31.2z M11,25.5c0.1,0,0.3,0,0.5,0
			c0.1,0,0.2,0,0.3,0s0.2,0,0.3,0c0.2-0.1,0.4-0.2,0.4-0.4c0-0.2-0.1-0.4-0.3-0.5s-0.5-0.2-0.9-0.2c-0.8,0-1.4,0.3-1.9,0.8
			c0,0-0.3,0.7-1,2c-0.1,0.1-0.2,0.3-0.3,0.5c-0.2,0.2-0.2,0.4-0.2,0.6c0,0.1,0.1,0.3,0.2,0.5s0.2,0.3,0.2,0.4
			c0.1,0.2,0.1,0.7,0.1,1.5s0,1.4-0.1,1.8s-0.1,0.8-0.2,1C8,33.8,7.9,34,7.9,34.2s0.1,0.3,0.2,0.5c0.2,0.1,0.3,0.2,0.6,0.2h0.2
			c0.3,0,0.6-0.1,0.8-0.3s0.3-0.4,0.3-0.7l-0.1-1.2c0-1.3,0.1-2.4,0.4-3.2c0.1-0.4,0.3-0.6,0.6-0.8c0.4-0.2,0.6-0.4,0.6-0.5
			c0-0.2-0.2-0.4-0.5-0.5c-0.3-0.2-0.5-0.3-0.6-0.3c-0.1-0.2-0.2-0.4-0.2-0.7s0.1-0.6,0.3-0.9C10.4,25.7,10.7,25.5,11,25.5z
			 M0.6,50.4c0.2,0.1,0.9,0.1,1.9,0.1h0.2h0.2h0.2c1.4,0,2.4-0.2,3-0.6c0.8-0.5,1.2-1.2,1.2-2.1s-0.4-1.6-1.1-2.1
			c-0.3-0.2-0.5-0.3-0.5-0.3s0.1-0.1,0.4-0.4c0.5-0.5,0.8-1.1,0.8-1.8c0-1.5-1.1-2.2-3.2-2.2H3c-0.1,0-0.2,0-0.3,0H2.5
			c-0.7,0-1.2,0-1.4,0.1s-0.4,0.2-0.4,0.3s0,0.2,0,0.3l0.1,0.2c0.1,0.2,0.1,0.6,0.1,1v0.5v0.3v1c0,1.5-0.1,2.9-0.2,4.1
			c0,0.3-0.1,0.5-0.1,0.7c-0.1,0.3-0.2,0.5-0.2,0.6v0.1C0.3,50.3,0.4,50.4,0.6,50.4z M2.3,44.5L2.3,44.5v-0.4V44l0.1-1.3
			c0,0,0-0.1,0-0.3s0.1-0.4,0.2-0.5s0.4-0.1,0.7-0.1h0.4c0.5,0,0.9,0.1,1.3,0.4c0.3,0.2,0.5,0.6,0.5,1v0.1c0,0.5-0.2,0.9-0.5,1.2
			S4.3,45,3.8,45H3.5H3.3H3.2H3.1H2.8c-0.2,0-0.4,0-0.5-0.1s-0.1-0.2-0.1-0.3L2.3,44.5z M2.1,48.8v-0.7V48l0.1-1c0,0,0-0.1,0-0.3
			c0-0.5,0.2-0.7,0.5-0.7c0.2,0,0.3,0,0.4,0h0.6c0.6,0,1.1,0.1,1.5,0.4c0.4,0.3,0.5,0.7,0.5,1.2v0.1c0,0.6-0.2,1.1-0.7,1.4
			c-0.4,0.3-0.9,0.4-1.7,0.4H3.2c-0.5,0-0.8,0-0.9-0.1S2.1,49.2,2.1,49V48.8z M12.9,49.8c0.1,0,0.2,0.1,0.4,0.2
			c0.2,0.2,0.4,0.2,0.6,0.2c0.6,0,0.9-0.2,0.9-0.6c0,0,0-0.2-0.1-0.4c0-0.2-0.1-0.6-0.1-1.2c0-0.5,0-0.9,0-1.2v-1.6v-0.4
			c0-0.3,0-0.5-0.1-0.6S14.2,44,14,44c-0.3,0-0.5,0.1-0.6,0.2c-0.1,0.1-0.2,0.3-0.2,0.5V45v0.3c0,1.6-0.1,2.6-0.4,3.2
			c-0.1,0.3-0.3,0.5-0.6,0.7s-0.5,0.3-0.8,0.3c-0.8,0-1.1-0.5-1.1-1.6l0.1-2.3c0-0.7-0.1-1.1-0.2-1.4c-0.1-0.2-0.3-0.4-0.6-0.4H9.4
			c-0.5,0-0.7,0.1-0.7,0.4c0,0.1,0,0.2,0.1,0.5c0.1,0.2,0.1,0.5,0.1,0.7l-0.1,2.1c0,1,0.2,1.8,0.5,2.2s0.8,0.6,1.4,0.6h0.2
			c0.4,0,0.9-0.1,1.5-0.4C12.7,49.8,12.9,49.8,12.9,49.8z M21.4,48.6c0-0.5-0.2-1-0.6-1.3c-0.2-0.2-0.7-0.4-1.2-0.7
			c-0.6-0.2-0.9-0.4-1.1-0.5c-0.3-0.2-0.4-0.4-0.4-0.7s0.1-0.4,0.3-0.6c0.2-0.1,0.5-0.2,0.8-0.2s0.7,0.1,1,0.3
			c0.4,0.2,0.6,0.3,0.7,0.3c0.3,0,0.4-0.2,0.4-0.5s-0.2-0.6-0.5-0.8c-0.4-0.2-0.8-0.3-1.4-0.3h-0.2c-0.7,0-1.2,0.2-1.7,0.6
			c-0.5,0.4-0.7,0.8-0.7,1.3s0.1,0.9,0.4,1.2s0.7,0.6,1.4,0.8c0.6,0.3,1,0.5,1.1,0.6c0.2,0.2,0.4,0.4,0.4,0.7s-0.1,0.5-0.3,0.6
			c-0.2,0.2-0.5,0.2-0.9,0.2s-0.8-0.1-1.2-0.4C17.3,49,17,48.8,17,48.8c-0.3,0-0.4,0.2-0.4,0.5s0.2,0.6,0.6,0.8s0.9,0.3,1.7,0.3h0.2
			c0.7,0,1.3-0.2,1.8-0.6C21.2,49.6,21.4,49.1,21.4,48.6z M24.2,42.5L24.2,42.5c0.4,0,0.6-0.1,0.7-0.2c0.1-0.2,0.2-0.4,0.2-0.6v-0.1
			c0-0.2-0.1-0.4-0.2-0.5s-0.2-0.2-0.4-0.2h-0.2h-0.1H24c-0.2,0-0.3,0.1-0.4,0.2c-0.1,0.1-0.2,0.3-0.2,0.4v0.2v0.1
			c0,0.2,0.1,0.4,0.2,0.5s0.2,0.2,0.4,0.2L24.2,42.5z M23.3,46.8V47v0.4c0,0.1,0,0.2,0,0.4c0,0.6-0.1,1.1-0.2,1.5s-0.2,0.6-0.2,0.6
			v0.2c0,0.1,0.1,0.2,0.2,0.3s0.3,0.2,0.5,0.2h0.2c0.4,0,0.7-0.1,0.9-0.2c0.2-0.1,0.3-0.3,0.3-0.5v-0.1c0-0.1-0.1-0.2-0.2-0.4
			s-0.2-0.4-0.2-0.6c0-0.2-0.1-0.6-0.1-1.3v-0.3v-0.6v-0.2l0.1-1.8c0-0.2,0-0.3-0.1-0.5c-0.1-0.1-0.2-0.2-0.5-0.2h-0.2
			c-0.6,0-0.9,0.2-0.9,0.5c0,0.1,0.1,0.2,0.2,0.5s0.2,0.6,0.2,0.9v0.3C23.4,46.2,23.4,46.4,23.3,46.8z M32.8,48.6c0-0.1,0-0.4,0-0.7
			c0-0.1,0-0.1,0-0.2c0-0.1,0-0.2,0-0.3c0,0,0-0.1,0-0.3c0-0.1,0-0.2,0-0.2l0,0c0-1-0.1-1.6-0.2-1.9c-0.3-0.6-0.8-0.9-1.5-0.9h-0.2
			c-0.4,0-0.9,0.2-1.5,0.5c-0.2,0.1-0.3,0.2-0.4,0.2s-0.3-0.1-0.5-0.3c-0.3-0.2-0.6-0.3-0.8-0.3c-0.3,0-0.4,0.1-0.4,0.4v2
			c0,1.2-0.1,2-0.2,2.4L27,49.3c-0.1,0.2-0.1,0.3-0.1,0.3v0.1c0,0.4,0.3,0.6,0.8,0.6h0.1c0.2,0,0.4-0.1,0.6-0.2
			c0.1-0.2,0.2-0.4,0.2-0.8c0-1.7,0.1-2.8,0.4-3.4c0.1-0.3,0.3-0.5,0.6-0.7c0.2-0.2,0.5-0.3,0.8-0.3c0.4,0,0.7,0.2,0.9,0.5
			c0.2,0.4,0.3,1.1,0.3,2.1c0,0.5,0,1,0,1.4v0.4c0,0.3,0,0.5,0.1,0.5C31.8,50,32,50,32.4,50c0.6,0,0.9-0.2,0.9-0.5
			c0-0.2,0-0.3-0.1-0.5C32.9,48.9,32.8,48.8,32.8,48.6z M37.3,50.6L37.3,50.6c0.7,0,1.2-0.1,1.7-0.4c0.5-0.3,0.8-0.5,0.8-0.8
			c0-0.2-0.1-0.3-0.3-0.3c-0.1,0-0.3,0.1-0.8,0.2c-0.4,0.1-0.8,0.2-1,0.2c-0.5,0-1-0.1-1.3-0.4c-0.3-0.3-0.5-0.6-0.5-1
			c0-0.3,0.1-0.5,0.4-0.5c0.1,0,0.6-0.1,1.5-0.2c0.9-0.1,1.5-0.3,1.7-0.4c0.4-0.2,0.5-0.5,0.5-1v-0.1c0-0.6-0.2-1.1-0.6-1.5
			s-0.9-0.6-1.5-0.6h-0.3c-0.4,0-0.9,0.1-1.3,0.3c-0.8,0.3-1.4,1-1.7,1.9c-0.2,0.5-0.3,0.9-0.3,1.3v0.3c0,0.9,0.3,1.7,0.8,2.2
			C35.7,50.3,36.4,50.6,37.3,50.6z M35.9,46.3c0-0.4,0.2-0.8,0.5-1.2s0.7-0.6,1.2-0.6l0,0l0,0c0.3,0,0.6,0.1,0.8,0.3
			s0.3,0.5,0.3,0.8v0.1c0,0.2-0.1,0.4-0.2,0.5c-0.3,0.2-0.6,0.3-1.1,0.3c-0.1,0-0.3,0-0.7,0.1h-0.3l0,0h-0.2c-0.3,0-0.4-0.1-0.4-0.2
			v-0.1C35.8,46.3,35.9,46.3,35.9,46.3z M43.9,50.6c0.7,0,1.3-0.2,1.8-0.6s0.7-0.9,0.7-1.4s-0.2-1-0.6-1.3c-0.2-0.2-0.7-0.4-1.2-0.7
			c-0.6-0.2-0.9-0.4-1.1-0.5c-0.3-0.2-0.4-0.4-0.4-0.7s0.1-0.4,0.3-0.6c0.2-0.1,0.5-0.2,0.8-0.2s0.7,0.1,1,0.3
			c0.4,0.2,0.6,0.3,0.7,0.3c0.3,0,0.4-0.2,0.4-0.5s-0.2-0.6-0.5-0.8c-0.4-0.2-0.8-0.3-1.4-0.3h-0.2c-0.7,0-1.2,0.2-1.7,0.6
			c-0.5,0.4-0.7,0.8-0.7,1.3s0.1,0.9,0.4,1.2s0.7,0.6,1.4,0.8c0.6,0.3,1,0.5,1.1,0.6c0.2,0.2,0.4,0.4,0.4,0.7s-0.1,0.5-0.3,0.6
			c-0.2,0.2-0.5,0.2-0.9,0.2s-0.8-0.1-1.2-0.4C42.3,49,42,48.8,42,48.8c-0.3,0-0.4,0.2-0.4,0.5s0.2,0.6,0.6,0.8s0.9,0.3,1.7,0.3l0,0
			C43.9,50.4,43.9,50.6,43.9,50.6z M50.1,50.6c0.7,0,1.3-0.2,1.8-0.6c0.5-0.4,0.7-0.9,0.7-1.4s-0.2-1-0.6-1.3
			c-0.2-0.2-0.7-0.4-1.2-0.7c-0.6-0.2-0.9-0.4-1.1-0.5c-0.3-0.2-0.4-0.4-0.4-0.7s0.1-0.4,0.3-0.6c0.2-0.1,0.5-0.2,0.8-0.2
			s0.7,0.1,1,0.3c0.4,0.2,0.6,0.3,0.7,0.3c0.3,0,0.4-0.2,0.4-0.5s-0.2-0.6-0.5-0.8c-0.4-0.2-0.8-0.3-1.4-0.3h-0.2
			c-0.7,0-1.2,0.2-1.7,0.6C48.2,44.6,48,45,48,45.5s0.1,0.9,0.4,1.2s0.7,0.6,1.4,0.8c0.6,0.3,1,0.5,1.1,0.6c0.2,0.2,0.4,0.4,0.4,0.7
			s-0.1,0.5-0.3,0.6c-0.2,0.2-0.5,0.2-0.9,0.2s-0.8-0.1-1.2-0.4s-0.7-0.4-0.7-0.4c-0.3,0-0.4,0.2-0.4,0.5s0.2,0.6,0.6,0.8
			s0.9,0.3,1.7,0.3l0,0V50.6z M10.1,60c0-1,0.1-1.6,0.1-1.9l0.1-0.3v-0.2c0-0.3-0.2-0.5-0.6-0.5c-0.6,0-1.1,0.3-1.5,0.8
			c-0.2,0.3-0.7,1.2-1.5,2.6c-0.8,1.5-1.2,2.2-1.3,2.2l-0.2-0.2C5.1,62.4,5,62,4.7,61.2c-0.7-1.8-1.2-2.9-1.6-3.4
			C2.8,57.3,2.3,57,1.8,57c-0.2,0-0.4,0-0.5,0.1s-0.2,0.2-0.2,0.3l0.1,1.2c0,1.3-0.1,3-0.3,5c0,0.4-0.1,0.8-0.3,1.2
			c-0.1,0.3-0.2,0.5-0.2,0.6c0,0.3,0.2,0.5,0.5,0.5c0.4,0,0.6-0.1,0.8-0.3c0.1-0.2,0.2-0.6,0.2-1S2,63.3,2.1,62s0.2-2,0.3-2.2
			c-0.1,0,0-0.1,0-0.1c0.1,0,0.5,0.8,1.1,2.4s0.9,2.5,1,2.6c0.2,0.3,0.4,0.5,0.6,0.5s0.5-0.2,0.7-0.5s0.7-1.2,1.4-2.8
			c0.7-1.5,1.2-2.3,1.3-2.3s0.1,0.7,0.1,2c0,1.4,0,2.2-0.1,2.7c0,0.4-0.1,0.7-0.1,0.9c0,0.2,0.1,0.4,0.3,0.6s0.4,0.3,0.6,0.3h0.3
			c0.2,0,0.3-0.1,0.4-0.2c0.1-0.1,0.2-0.2,0.2-0.3c0-0.1,0-0.3-0.1-0.6L10,64.7c-0.1-0.2-0.1-0.5-0.1-1v-1.1
			C10,61.9,10,60.9,10.1,60z M17.4,64.9c0-0.1,0-0.7,0-1.6c0-1,0-1.5,0-1.6c0-0.5-0.2-0.8-0.3-1.1c-0.2-0.3-0.5-0.5-0.8-0.7
			c-0.4-0.2-0.8-0.3-1.2-0.3h-0.3c-0.5,0-1,0.1-1.5,0.3c-0.7,0.2-0.9,0.5-0.9,0.8c0,0.4,0.2,0.6,0.5,0.6c0.1,0,0.4-0.1,0.9-0.3
			s0.8-0.3,1.1-0.3s0.5,0.1,0.7,0.3s0.3,0.4,0.3,0.7s-0.1,0.5-0.4,0.6c-0.1,0.1-0.4,0.1-0.8,0.2c-0.4,0.1-0.7,0.1-0.8,0.1
			c-0.6,0.1-1,0.4-1.4,0.7s-0.6,0.8-0.6,1.4s0.2,1.1,0.5,1.4c0.4,0.3,0.8,0.5,1.3,0.5h0.2c0.3,0,0.7-0.1,1.1-0.2
			c0.4-0.2,0.7-0.2,0.7-0.2c0.1,0,0.3,0.1,0.6,0.2s0.5,0.2,0.8,0.2c0.2,0,0.4,0,0.5-0.1s0.2-0.2,0.2-0.3s-0.1-0.3-0.2-0.5
			C17.5,65.2,17.4,65.1,17.4,64.9z M16,64v0.2v0.1v0.1c0,0.3-0.1,0.6-0.4,0.9c-0.3,0.3-0.6,0.4-1,0.4h-0.2c-0.3,0-0.5-0.1-0.7-0.3
			c-0.2-0.2-0.3-0.4-0.3-0.7v-0.1c0-0.4,0.1-0.6,0.3-0.8c0.3-0.3,0.7-0.4,1-0.4c0.1,0,0.1,0,0.3,0h0.3l0,0h0.3
			c0.3,0,0.4,0.1,0.4,0.4C16,63.8,16,64,16,64z M25.5,64.6c0-0.1,0-0.4,0-0.7c0-0.1,0-0.1,0-0.2s0-0.2,0-0.3c0,0,0-0.1,0-0.3
			c0-0.1,0-0.2,0-0.2l0,0c0-1-0.1-1.6-0.2-1.9c-0.3-0.6-0.8-0.9-1.5-0.9h-0.2c-0.4,0-0.9,0.2-1.5,0.5c-0.2,0.1-0.3,0.2-0.4,0.2
			s-0.3-0.1-0.5-0.3c-0.3-0.2-0.6-0.3-0.8-0.3c-0.3,0-0.4,0.1-0.4,0.4v2c0,1.2-0.1,2-0.2,2.4l-0.1,0.3c-0.1,0.2-0.1,0.3-0.1,0.3v0.1
			c0,0.4,0.3,0.6,0.8,0.6l0,0c0.2,0,0.4-0.1,0.6-0.2c0.1-0.2,0.2-0.4,0.2-0.8c0-1.7,0.1-2.8,0.4-3.4c0.1-0.3,0.3-0.5,0.6-0.7
			c0.2-0.2,0.5-0.3,0.8-0.3c0.4,0,0.7,0.2,0.9,0.5c0.2,0.4,0.3,1.1,0.3,2.1c0,0.5,0,1,0,1.4v0.4c0,0.3,0,0.5,0.1,0.5
			C24.4,66,24.6,66,25,66c0.6,0,0.9-0.2,0.9-0.5c0-0.2,0-0.3-0.1-0.5C25.6,64.9,25.5,64.8,25.5,64.6z M32.6,64.9c0-0.1,0-0.7,0-1.6
			c0-1,0-1.5,0-1.6c0-0.5-0.2-0.8-0.3-1.1c-0.2-0.3-0.5-0.5-0.8-0.7s-0.8-0.3-1.2-0.3H30c-0.5,0-1,0.1-1.5,0.3s-0.7,0.5-0.7,0.8
			c0,0.4,0.2,0.6,0.5,0.6c0.1,0,0.4-0.1,0.9-0.3s0.8-0.3,1.1-0.3s0.5,0.1,0.7,0.3s0.3,0.4,0.3,0.7s-0.1,0.5-0.4,0.6
			c-0.1,0.1-0.4,0.1-0.8,0.2c-0.4,0.1-0.7,0.1-0.8,0.1c-0.6,0.1-1,0.4-1.4,0.7s-0.6,0.8-0.6,1.4s0.2,1.1,0.5,1.4
			c0.4,0.3,0.8,0.5,1.3,0.5h0.2c0.3,0,0.7-0.1,1.1-0.2c0.4-0.2,0.7-0.2,0.7-0.2c0.1,0,0.3,0.1,0.6,0.2s0.5,0.2,0.8,0.2
			c0.2,0,0.4,0,0.5-0.1s0.2-0.2,0.2-0.3s-0.1-0.3-0.2-0.5C32.7,65.2,32.6,65.1,32.6,64.9z M31.2,64v0.2v0.1v0.1
			c0,0.3-0.1,0.6-0.4,0.9s-0.6,0.4-1,0.4h-0.2c-0.3,0-0.5-0.1-0.7-0.3c-0.2-0.2-0.3-0.4-0.3-0.7v-0.1c0-0.4,0.1-0.6,0.3-0.8
			c0.3-0.3,0.7-0.4,1-0.4c0.1,0,0.1,0,0.3,0h0.3l0,0h0.3c0.3,0,0.4,0.1,0.4,0.4C31.2,63.8,31.2,64,31.2,64z M39.9,60.2
			c-0.1,0-0.2,0-0.4,0.1c-0.1,0-0.3-0.1-0.7-0.2s-0.7-0.2-0.9-0.2h-0.2c-0.4,0-0.8,0.1-1.2,0.3s-0.7,0.4-1,0.7
			c-0.2,0.3-0.4,0.7-0.6,1.1c-0.1,0.4-0.2,0.9-0.2,1.3v0.2c0,0.4,0.1,0.8,0.2,1.2c0.1,0.4,0.3,0.7,0.5,0.9c0.4,0.5,1,0.7,1.8,0.7
			c0.3,0,0.7,0,1.1-0.1c0.1,0,0.2,0,0.3,0c0.2,0,0.3,0.1,0.3,0.4c0,0.5-0.2,1-0.5,1.3c-0.4,0.3-0.8,0.5-1.4,0.5
			c-0.2,0-0.4,0-0.7-0.1s-0.6-0.1-0.6-0.1c-0.4,0-0.6,0.1-0.6,0.4s0.2,0.5,0.6,0.7c0.4,0.2,0.9,0.3,1.4,0.3s1-0.1,1.4-0.3
			c0.8-0.4,1.3-0.9,1.6-1.8c0.1-0.4,0.2-1,0.2-1.8s0.1-1.7,0.2-2.8c0.1-1.1,0.2-1.7,0.2-1.9C40.5,60.5,40.3,60.2,39.9,60.2z
			 M39,62.6v0.3c0,0.1,0,0.1,0,0.2c0,0.8-0.1,1.4-0.4,1.8s-0.7,0.6-1.2,0.6h-0.2c-0.4,0-0.6-0.2-0.9-0.5c-0.2-0.3-0.3-0.8-0.3-1.4
			v-0.2c0-0.8,0.2-1.4,0.5-1.9c0.4-0.5,0.8-0.7,1.3-0.7H38c0.3,0,0.6,0.1,0.8,0.3s0.3,0.5,0.3,0.8c0,0,0,0.1,0,0.2L39,62.6L39,62.6z
			 M45.7,59.7h-0.3c-0.4,0-0.9,0.1-1.3,0.3c-0.8,0.3-1.4,1-1.7,1.9c-0.2,0.5-0.3,0.9-0.3,1.3v0.3c0,0.9,0.3,1.7,0.8,2.2
			c0.5,0.6,1.2,0.8,2.1,0.8h0.2c0.6,0,1.1-0.1,1.6-0.4s0.8-0.5,0.8-0.8c0-0.2-0.1-0.3-0.3-0.3c-0.1,0-0.3,0.1-0.8,0.2
			c-0.4,0.1-0.8,0.2-1,0.2c-0.5,0-1-0.1-1.3-0.4s-0.5-0.6-0.5-1c0-0.3,0.1-0.5,0.4-0.5c0.1,0,0.6-0.1,1.5-0.2s1.5-0.3,1.7-0.4
			c0.4-0.2,0.5-0.5,0.5-1v-0.1c0-0.6-0.2-1.1-0.6-1.5C46.8,59.9,46.3,59.7,45.7,59.7z M46.5,61.8c0,0.2-0.1,0.4-0.2,0.5
			c-0.3,0.2-0.6,0.3-1.1,0.3c-0.1,0-0.3,0-0.7,0.1h-0.3l0,0H44c-0.3,0-0.4-0.1-0.4-0.2v-0.1c0-0.4,0.2-0.8,0.5-1.2s0.7-0.6,1.2-0.6
			l0,0l0,0c0.3,0,0.6,0.1,0.8,0.3C46.4,61.1,46.5,61.4,46.5,61.8L46.5,61.8z M58.8,64.5c0-0.1,0-0.4,0-1.1c0-1.4-0.1-2.3-0.3-2.7
			c-0.1-0.2-0.3-0.4-0.5-0.5C57.8,60,57.5,60,57.1,60s-0.8,0.1-1.2,0.3c-0.5,0.2-0.7,0.3-0.7,0.3s-0.3-0.1-0.7-0.3S53.7,60,53.3,60
			s-0.7,0.1-1.1,0.2s-0.6,0.2-0.9,0.2l-1-0.2c-0.3,0-0.5,0.1-0.5,0.4s-0.1,1.3-0.2,3.1c0,0.3,0,0.5-0.1,0.8l-0.1,0.4v0.2
			c0,0.3,0.1,0.5,0.2,0.7s0.3,0.3,0.6,0.3s0.5-0.1,0.6-0.4c0-0.1,0.1-0.7,0.2-1.7c0.1-1,0.2-1.6,0.3-1.9c0.1-0.3,0.3-0.5,0.6-0.7
			s0.5-0.3,0.9-0.3c0.3,0,0.6,0.1,0.7,0.4c0.1,0.2,0.2,0.8,0.2,1.7s0,1.5-0.1,1.9s-0.1,0.6-0.1,0.7c0,0.3,0.1,0.5,0.2,0.6
			s0.3,0.1,0.5,0.1c0.3,0,0.5-0.1,0.7-0.2c0.3-0.2,0.4-0.4,0.4-0.8l-0.1-1c0-1.1,0.1-2,0.4-2.6c0.2-0.4,0.5-0.6,0.8-0.6
			c0.5,0,0.9,0.2,1,0.6c0.1,0.2,0.2,0.8,0.2,1.9c0.1,1.1,0.1,1.8,0.2,2c0.1,0.3,0.3,0.5,0.7,0.5c0.2,0,0.4-0.1,0.5-0.2
			c0.1-0.2,0.2-0.3,0.2-0.4s0-0.3-0.1-0.6C58.9,64.7,58.9,64.6,58.8,64.5z M64,59.7h-0.3c-0.4,0-0.9,0.1-1.3,0.3
			c-0.8,0.3-1.4,1-1.7,1.9c-0.2,0.5-0.3,0.9-0.3,1.3v0.3c0,0.9,0.3,1.7,0.8,2.2c0.5,0.6,1.2,0.8,2.1,0.8h0.2c0.6,0,1.1-0.1,1.6-0.4
			s0.8-0.5,0.8-0.8c0-0.2-0.1-0.3-0.3-0.3c-0.1,0-0.3,0.1-0.8,0.2c-0.4,0.1-0.8,0.2-1,0.2c-0.5,0-1-0.1-1.3-0.4S62,64.4,62,64
			c0-0.3,0.1-0.5,0.4-0.5c0.1,0,0.6-0.1,1.5-0.2s1.5-0.3,1.7-0.4c0.4-0.2,0.5-0.5,0.5-1v-0.1c0-0.6-0.2-1.1-0.6-1.5
			C65.1,59.9,64.6,59.7,64,59.7z M64.9,61.8c0,0.2-0.1,0.4-0.2,0.5c-0.3,0.2-0.6,0.3-1.1,0.3c-0.1,0-0.3,0-0.7,0.1h-0.3l0,0h-0.2
			c-0.3,0-0.4-0.1-0.4-0.2v-0.1c0-0.4,0.2-0.8,0.5-1.2s0.7-0.6,1.2-0.6l0,0l0,0c0.3,0,0.6,0.1,0.8,0.3
			C64.8,61.1,64.9,61.4,64.9,61.8L64.9,61.8z M73.7,64.6c0-0.1,0-0.4,0-0.7c0-0.1,0-0.1,0-0.2s0-0.2,0-0.3c0,0,0-0.1,0-0.3
			c0-0.1,0-0.2,0-0.2l0,0c0-1-0.1-1.6-0.2-1.9c-0.3-0.6-0.8-0.9-1.5-0.9h-0.2c-0.4,0-0.9,0.2-1.5,0.5c-0.2,0.1-0.3,0.2-0.4,0.2
			s-0.3-0.1-0.5-0.3c-0.3-0.2-0.6-0.3-0.8-0.3c-0.3,0-0.4,0.1-0.4,0.4v2c0,1.2-0.1,2-0.2,2.4l-0.1,0.3c-0.1,0.2-0.1,0.3-0.1,0.3v0.1
			c0,0.4,0.3,0.6,0.8,0.6h0.1c0.2,0,0.4-0.1,0.6-0.2c0.1-0.2,0.2-0.4,0.2-0.8c0-1.7,0.1-2.8,0.4-3.4c0.1-0.3,0.3-0.5,0.6-0.7
			c0.2-0.2,0.5-0.3,0.8-0.3c0.4,0,0.7,0.2,0.9,0.5c0.2,0.4,0.3,1.1,0.3,2.1c0,0.5,0,1,0,1.4v0.4c0,0.3,0,0.5,0.1,0.5
			c0.1,0.2,0.3,0.2,0.7,0.2c0.6,0,0.9-0.2,0.9-0.5c0-0.2,0-0.3-0.1-0.5C73.8,64.9,73.7,64.8,73.7,64.6z M78.7,60.6
			c0.4-0.1,0.6-0.3,0.6-0.5V60c0-0.1-0.2-0.3-0.5-0.4s-0.6-0.2-0.7-0.3s-0.2-0.3-0.2-0.7c-0.1-0.4-0.1-0.6-0.1-0.6
			c-0.1-0.2-0.2-0.2-0.4-0.2h-0.1c-0.2,0-0.4,0.2-0.5,0.5c0,0.1-0.1,0.3-0.2,0.6s-0.2,0.5-0.3,0.6c-0.4,0.4-0.7,0.7-0.7,0.7
			c0,0.1,0.1,0.2,0.3,0.4c0.2,0.2,0.3,0.4,0.3,0.6s0.1,0.9,0.1,2.1s0.1,2,0.3,2.3c0.3,0.5,0.8,0.8,1.5,0.8c0.4,0,0.7-0.1,0.9-0.2
			c0.2-0.1,0.3-0.3,0.3-0.5s-0.2-0.3-0.6-0.4c-0.4,0-0.6-0.1-0.7-0.3c-0.2-0.2-0.3-0.6-0.3-1.2c0-1.2,0.1-2.1,0.3-2.7
			C78,60.9,78.3,60.7,78.7,60.6z"/>
	</g>
</g>
</svg>
